solid Created by stlwrite.m 03-Sep-2021 16:23:09
facet normal -0.0000000E+00 0.0000000E+00 9.9999994E-01
outer loop
vertex -9.3150002E-01 3.0000001E-02 -1.3000000E-01
vertex -9.3150002E-01 -2.9999999E-02 -1.3000000E-01
vertex -9.0149999E-01 3.0000001E-02 -1.3000000E-01
endloop
endfacet
facet normal 0.0000000E+00 0.0000000E+00 9.9999994E-01
outer loop
vertex -9.0149999E-01 3.0000001E-02 -1.3000000E-01
vertex -9.3150002E-01 -2.9999999E-02 -1.3000000E-01
vertex -9.0149999E-01 -2.9999999E-02 -1.3000000E-01
endloop
endfacet
facet normal 1.0000000E+00 0.0000000E+00 -0.0000000E+00
outer loop
vertex -9.0149999E-01 3.0000001E-02 -1.5000001E-01
vertex -9.0149999E-01 3.0000001E-02 -1.3000000E-01
vertex -9.0149999E-01 -2.9999999E-02 -1.5000001E-01
endloop
endfacet
facet normal 1.0000000E+00 0.0000000E+00 0.0000000E+00
outer loop
vertex -9.0149999E-01 -2.9999999E-02 -1.5000001E-01
vertex -9.0149999E-01 3.0000001E-02 -1.3000000E-01
vertex -9.0149999E-01 -2.9999999E-02 -1.3000000E-01
endloop
endfacet
facet normal 9.9999994E-01 0.0000000E+00 0.0000000E+00
outer loop
vertex -9.3150002E-01 -2.9999999E-02 -1.3000000E-01
vertex -9.3150002E-01 3.0000001E-02 -1.3000000E-01
vertex -9.3150002E-01 -2.9999999E-02 1.2900000E+00
endloop
endfacet
facet normal 1.0000000E+00 -0.0000000E+00 0.0000000E+00
outer loop
vertex -9.3150002E-01 -2.9999999E-02 1.2900000E+00
vertex -9.3150002E-01 3.0000001E-02 -1.3000000E-01
vertex -9.3150002E-01 3.0000001E-02 1.3500000E+00
endloop
endfacet
facet normal 1.0000000E+00 0.0000000E+00 0.0000000E+00
outer loop
vertex -9.3150002E-01 -2.9999999E-02 1.2900000E+00
vertex -9.3150002E-01 3.0000001E-02 1.3500000E+00
vertex -9.3150002E-01 1.3016514E-02 1.3770291E+00
endloop
endfacet
facet normal 1.0000000E+00 0.0000000E+00 0.0000000E+00
outer loop
vertex -9.3150002E-01 1.3016514E-02 1.3770291E+00
vertex -9.3150002E-01 3.0000001E-02 1.3500000E+00
vertex -9.3150002E-01 1.8704696E-02 1.3734549E+00
endloop
endfacet
facet normal 9.9999994E-01 0.0000000E+00 0.0000000E+00
outer loop
vertex -9.3150002E-01 1.8704696E-02 1.3734549E+00
vertex -9.3150002E-01 3.0000001E-02 1.3500000E+00
vertex -9.3150002E-01 2.3454947E-02 1.3687047E+00
endloop
endfacet
facet normal 9.9999994E-01 0.0000000E+00 0.0000000E+00
outer loop
vertex -9.3150002E-01 2.3454947E-02 1.3687047E+00
vertex -9.3150002E-01 3.0000001E-02 1.3500000E+00
vertex -9.3150002E-01 2.7029064E-02 1.3630165E+00
endloop
endfacet
facet normal 1.0000000E+00 0.0000000E+00 0.0000000E+00
outer loop
vertex -9.3150002E-01 2.7029064E-02 1.3630165E+00
vertex -9.3150002E-01 3.0000001E-02 1.3500000E+00
vertex -9.3150002E-01 2.9247835E-02 1.3566756E+00
endloop
endfacet
facet normal 1.0000000E+00 0.0000000E+00 0.0000000E+00
outer loop
vertex -9.3150002E-01 1.3016514E-02 1.3770291E+00
vertex -9.3150002E-01 6.6756275E-03 1.3792478E+00
vertex -9.3150002E-01 -2.9999999E-02 1.2900000E+00
endloop
endfacet
facet normal 1.0000000E+00 0.0000000E+00 0.0000000E+00
outer loop
vertex -9.3150002E-01 -2.9999999E-02 1.2900000E+00
vertex -9.3150002E-01 6.6756275E-03 1.3792478E+00
vertex -9.3150002E-01 -2.2351740E-09 1.3800000E+00
endloop
endfacet
facet normal 1.0000000E+00 0.0000000E+00 -0.0000000E+00
outer loop
vertex -9.3150002E-01 -2.9999999E-02 1.2900000E+00
vertex -9.3150002E-01 -2.2351740E-09 1.3800000E+00
vertex -9.3150002E-01 -3.0752163E-02 1.2966757E+00
endloop
endfacet
facet normal 1.0000000E+00 0.0000000E+00 -0.0000000E+00
outer loop
vertex -9.3150002E-01 -3.0752163E-02 1.2966757E+00
vertex -9.3150002E-01 -2.2351740E-09 1.3800000E+00
vertex -9.3150002E-01 -3.2970935E-02 1.3030164E+00
endloop
endfacet
facet normal 9.9999994E-01 0.0000000E+00 -0.0000000E+00
outer loop
vertex -9.3150002E-01 -3.2970935E-02 1.3030164E+00
vertex -9.3150002E-01 -2.2351740E-09 1.3800000E+00
vertex -9.3150002E-01 -3.6545057E-02 1.3087047E+00
endloop
endfacet
facet normal 1.0000000E+00 0.0000000E+00 -0.0000000E+00
outer loop
vertex -9.3150002E-01 -3.6545057E-02 1.3087047E+00
vertex -9.3150002E-01 -2.2351740E-09 1.3800000E+00
vertex -9.3150002E-01 -4.1295309E-02 1.3134550E+00
endloop
endfacet
facet normal 1.0000000E+00 0.0000000E+00 -0.0000000E+00
outer loop
vertex -9.3150002E-01 -4.1295309E-02 1.3134550E+00
vertex -9.3150002E-01 -2.2351740E-09 1.3800000E+00
vertex -9.3150002E-01 -4.6983488E-02 1.3170290E+00
endloop
endfacet
facet normal 1.0000000E+00 0.0000000E+00 -0.0000000E+00
outer loop
vertex -9.3150002E-01 -4.6983488E-02 1.3170290E+00
vertex -9.3150002E-01 -2.2351740E-09 1.3800000E+00
vertex -9.3150002E-01 -5.3324372E-02 1.3192478E+00
endloop
endfacet
facet normal 1.0000000E+00 0.0000000E+00 -0.0000000E+00
outer loop
vertex -9.3150002E-01 -5.3324372E-02 1.3192478E+00
vertex -9.3150002E-01 -2.2351740E-09 1.3800000E+00
vertex -9.3150002E-01 -5.9999999E-02 1.3200001E+00
endloop
endfacet
facet normal 1.0000000E+00 0.0000000E+00 -0.0000000E+00
outer loop
vertex -9.3150002E-01 -5.9999999E-02 1.3200001E+00
vertex -9.3150002E-01 -2.2351740E-09 1.3800000E+00
vertex -9.3150002E-01 -1.1700962E-01 1.3575000E+00
endloop
endfacet
facet normal 1.0000000E+00 0.0000000E+00 0.0000000E+00
outer loop
vertex -9.3150002E-01 -5.9999999E-02 1.3200001E+00
vertex -9.3150002E-01 -1.1700962E-01 1.3575000E+00
vertex -9.3150002E-01 -1.1551112E-01 1.3538823E+00
endloop
endfacet
facet normal 1.0000000E+00 0.0000000E+00 0.0000000E+00
outer loop
vertex -9.3150002E-01 -2.2351740E-09 1.3800000E+00
vertex -9.3150002E-01 -1.3000000E-01 1.3800000E+00
vertex -9.3150002E-01 -1.1700962E-01 1.3575000E+00
endloop
endfacet
facet normal 1.0000000E+00 0.0000000E+00 0.0000000E+00
outer loop
vertex -9.3150002E-01 -1.1700962E-01 1.3575000E+00
vertex -9.3150002E-01 -1.3000000E-01 1.3800000E+00
vertex -9.3150002E-01 -1.1939339E-01 1.3606066E+00
endloop
endfacet
facet normal 1.0000000E+00 0.0000000E+00 0.0000000E+00
outer loop
vertex -9.3150002E-01 -1.1939339E-01 1.3606066E+00
vertex -9.3150002E-01 -1.3000000E-01 1.3800000E+00
vertex -9.3150002E-01 -1.2250000E-01 1.3629904E+00
endloop
endfacet
facet normal 1.0000000E+00 0.0000000E+00 0.0000000E+00
outer loop
vertex -9.3150002E-01 -1.2250000E-01 1.3629904E+00
vertex -9.3150002E-01 -1.3000000E-01 1.3800000E+00
vertex -9.3150002E-01 -1.2611772E-01 1.3644888E+00
endloop
endfacet
facet normal 9.9999994E-01 0.0000000E+00 0.0000000E+00
outer loop
vertex -9.3150002E-01 -1.2611772E-01 1.3644888E+00
vertex -9.3150002E-01 -1.3000000E-01 1.3800000E+00
vertex -9.3150002E-01 -1.3000000E-01 1.3650000E+00
endloop
endfacet
facet normal 9.9999994E-01 0.0000000E+00 -0.0000000E+00
outer loop
vertex -9.3150002E-01 -1.3000000E-01 1.3650000E+00
vertex -9.3150002E-01 -1.3000000E-01 1.3800000E+00
vertex -9.3150002E-01 -1.3388228E-01 1.3644888E+00
endloop
endfacet
facet normal 9.9999994E-01 0.0000000E+00 -0.0000000E+00
outer loop
vertex -9.3150002E-01 -1.3388228E-01 1.3644888E+00
vertex -9.3150002E-01 -1.3000000E-01 1.3800000E+00
vertex -9.3150002E-01 -1.3717948E-01 1.3791283E+00
endloop
endfacet
facet normal 1.0000000E+00 0.0000000E+00 0.0000000E+00
outer loop
vertex -9.3150002E-01 -1.3388228E-01 1.3644888E+00
vertex -9.3150002E-01 -1.3717948E-01 1.3791283E+00
vertex -9.3150002E-01 -1.3750000E-01 1.3629904E+00
endloop
endfacet
facet normal 9.9999994E-01 0.0000000E+00 -0.0000000E+00
outer loop
vertex -9.3150002E-01 -1.3750000E-01 1.3629904E+00
vertex -9.3150002E-01 -1.3717948E-01 1.3791283E+00
vertex -9.3150002E-01 -1.4060660E-01 1.3606066E+00
endloop
endfacet
facet normal 1.0000000E+00 0.0000000E+00 -0.0000000E+00
outer loop
vertex -9.3150002E-01 -1.4060660E-01 1.3606066E+00
vertex -9.3150002E-01 -1.3717948E-01 1.3791283E+00
vertex -9.3150002E-01 -1.4394170E-01 1.3765637E+00
endloop
endfacet
facet normal 1.0000000E+00 0.0000000E+00 0.0000000E+00
outer loop
vertex -9.3150002E-01 -1.4060660E-01 1.3606066E+00
vertex -9.3150002E-01 -1.4394170E-01 1.3765637E+00
vertex -9.3150002E-01 -1.4299038E-01 1.3575000E+00
endloop
endfacet
facet normal 1.0000000E+00 0.0000000E+00 0.0000000E+00
outer loop
vertex -9.3150002E-01 -1.4299038E-01 1.3575000E+00
vertex -9.3150002E-01 -1.4394170E-01 1.3765637E+00
vertex -9.3150002E-01 -1.4448889E-01 1.3538823E+00
endloop
endfacet
facet normal 1.0000000E+00 0.0000000E+00 -0.0000000E+00
outer loop
vertex -9.3150002E-01 -1.4448889E-01 1.3538823E+00
vertex -9.3150002E-01 -1.4394170E-01 1.3765637E+00
vertex -9.3150002E-01 -1.4989367E-01 1.3724554E+00
endloop
endfacet
facet normal 1.0000000E+00 0.0000000E+00 0.0000000E+00
outer loop
vertex -9.3150002E-01 -1.4448889E-01 1.3538823E+00
vertex -9.3150002E-01 -1.4989367E-01 1.3724554E+00
vertex -9.3150002E-01 -1.4500000E-01 1.3500000E+00
endloop
endfacet
facet normal 1.0000000E+00 0.0000000E+00 0.0000000E+00
outer loop
vertex -9.3150002E-01 -1.4500000E-01 1.3500000E+00
vertex -9.3150002E-01 -1.4989367E-01 1.3724554E+00
vertex -9.3150002E-01 -1.4989367E-01 1.3275447E+00
endloop
endfacet
facet normal 1.0000000E+00 0.0000000E+00 0.0000000E+00
outer loop
vertex -9.3150002E-01 -1.4500000E-01 1.3500000E+00
vertex -9.3150002E-01 -1.4989367E-01 1.3275447E+00
vertex -9.3150002E-01 -1.4448889E-01 1.3461177E+00
endloop
endfacet
facet normal 1.0000000E+00 0.0000000E+00 0.0000000E+00
outer loop
vertex -9.3150002E-01 -1.4448889E-01 1.3461177E+00
vertex -9.3150002E-01 -1.4989367E-01 1.3275447E+00
vertex -9.3150002E-01 -1.4394170E-01 1.3234363E+00
endloop
endfacet
facet normal 1.0000000E+00 0.0000000E+00 0.0000000E+00
outer loop
vertex -9.3150002E-01 -1.4448889E-01 1.3461177E+00
vertex -9.3150002E-01 -1.4394170E-01 1.3234363E+00
vertex -9.3150002E-01 -1.4299038E-01 1.3425000E+00
endloop
endfacet
facet normal 1.0000000E+00 0.0000000E+00 0.0000000E+00
outer loop
vertex -9.3150002E-01 -1.4299038E-01 1.3425000E+00
vertex -9.3150002E-01 -1.4394170E-01 1.3234363E+00
vertex -9.3150002E-01 -1.4060660E-01 1.3393934E+00
endloop
endfacet
facet normal 9.9999994E-01 0.0000000E+00 0.0000000E+00
outer loop
vertex -9.3150002E-01 -1.4060660E-01 1.3393934E+00
vertex -9.3150002E-01 -1.4394170E-01 1.3234363E+00
vertex -9.3150002E-01 -1.3717948E-01 1.3208717E+00
endloop
endfacet
facet normal 1.0000000E+00 0.0000000E+00 0.0000000E+00
outer loop
vertex -9.3150002E-01 -1.4060660E-01 1.3393934E+00
vertex -9.3150002E-01 -1.3717948E-01 1.3208717E+00
vertex -9.3150002E-01 -1.3750000E-01 1.3370097E+00
endloop
endfacet
facet normal 1.0000000E+00 0.0000000E+00 0.0000000E+00
outer loop
vertex -9.3150002E-01 -1.3750000E-01 1.3370097E+00
vertex -9.3150002E-01 -1.3717948E-01 1.3208717E+00
vertex -9.3150002E-01 -1.3388228E-01 1.3355111E+00
endloop
endfacet
facet normal 1.0000000E+00 0.0000000E+00 0.0000000E+00
outer loop
vertex -9.3150002E-01 -1.3388228E-01 1.3355111E+00
vertex -9.3150002E-01 -1.3717948E-01 1.3208717E+00
vertex -9.3150002E-01 -1.3000000E-01 1.3200001E+00
endloop
endfacet
facet normal 9.9999994E-01 0.0000000E+00 0.0000000E+00
outer loop
vertex -9.3150002E-01 -1.3388228E-01 1.3355111E+00
vertex -9.3150002E-01 -1.3000000E-01 1.3200001E+00
vertex -9.3150002E-01 -1.3000000E-01 1.3350000E+00
endloop
endfacet
facet normal 9.9999994E-01 -0.0000000E+00 0.0000000E+00
outer loop
vertex -9.3150002E-01 -1.3000000E-01 1.3350000E+00
vertex -9.3150002E-01 -1.3000000E-01 1.3200001E+00
vertex -9.3150002E-01 -1.2611772E-01 1.3355111E+00
endloop
endfacet
facet normal 1.0000000E+00 -0.0000000E+00 0.0000000E+00
outer loop
vertex -9.3150002E-01 -1.2611772E-01 1.3355111E+00
vertex -9.3150002E-01 -1.3000000E-01 1.3200001E+00
vertex -9.3150002E-01 -1.2250000E-01 1.3370097E+00
endloop
endfacet
facet normal 1.0000000E+00 -0.0000000E+00 0.0000000E+00
outer loop
vertex -9.3150002E-01 -1.2250000E-01 1.3370097E+00
vertex -9.3150002E-01 -1.3000000E-01 1.3200001E+00
vertex -9.3150002E-01 -1.1939339E-01 1.3393934E+00
endloop
endfacet
facet normal 1.0000000E+00 -0.0000000E+00 0.0000000E+00
outer loop
vertex -9.3150002E-01 -1.1939339E-01 1.3393934E+00
vertex -9.3150002E-01 -1.3000000E-01 1.3200001E+00
vertex -9.3150002E-01 -1.1700962E-01 1.3425000E+00
endloop
endfacet
facet normal 1.0000000E+00 0.0000000E+00 0.0000000E+00
outer loop
vertex -9.3150002E-01 -1.1700962E-01 1.3425000E+00
vertex -9.3150002E-01 -1.3000000E-01 1.3200001E+00
vertex -9.3150002E-01 -5.9999999E-02 1.3200001E+00
endloop
endfacet
facet normal 9.9999994E-01 -0.0000000E+00 0.0000000E+00
outer loop
vertex -9.3150002E-01 -1.1700962E-01 1.3425000E+00
vertex -9.3150002E-01 -5.9999999E-02 1.3200001E+00
vertex -9.3150002E-01 -1.1551112E-01 1.3461177E+00
endloop
endfacet
facet normal 9.9999994E-01 -0.0000000E+00 0.0000000E+00
outer loop
vertex -9.3150002E-01 -1.1551112E-01 1.3461177E+00
vertex -9.3150002E-01 -5.9999999E-02 1.3200001E+00
vertex -9.3150002E-01 -1.1500000E-01 1.3500000E+00
endloop
endfacet
facet normal 1.0000000E+00 -0.0000000E+00 -0.0000000E+00
outer loop
vertex -9.3150002E-01 -1.1500000E-01 1.3500000E+00
vertex -9.3150002E-01 -5.9999999E-02 1.3200001E+00
vertex -9.3150002E-01 -1.1551112E-01 1.3538823E+00
endloop
endfacet
facet normal 1.0000000E+00 0.0000000E+00 -0.0000000E+00
outer loop
vertex -9.3150002E-01 -1.4989367E-01 1.3275447E+00
vertex -9.3150002E-01 -1.4989367E-01 1.3724554E+00
vertex -9.3150002E-01 -1.5468952E-01 1.3329580E+00
endloop
endfacet
facet normal 9.9999994E-01 0.0000000E+00 0.0000000E+00
outer loop
vertex -9.3150002E-01 -1.5468952E-01 1.3329580E+00
vertex -9.3150002E-01 -1.4989367E-01 1.3724554E+00
vertex -9.3150002E-01 -1.5468952E-01 1.3670419E+00
endloop
endfacet
facet normal 1.0000000E+00 0.0000000E+00 -0.0000000E+00
outer loop
vertex -9.3150002E-01 -1.5468952E-01 1.3329580E+00
vertex -9.3150002E-01 -1.5468952E-01 1.3670419E+00
vertex -9.3150002E-01 -1.5805049E-01 1.3393618E+00
endloop
endfacet
facet normal 1.0000000E+00 0.0000000E+00 0.0000000E+00
outer loop
vertex -9.3150002E-01 -1.5805049E-01 1.3393618E+00
vertex -9.3150002E-01 -1.5468952E-01 1.3670419E+00
vertex -9.3150002E-01 -1.5805049E-01 1.3606381E+00
endloop
endfacet
facet normal 1.0000000E+00 0.0000000E+00 -0.0000000E+00
outer loop
vertex -9.3150002E-01 -1.5805049E-01 1.3393618E+00
vertex -9.3150002E-01 -1.5805049E-01 1.3606381E+00
vertex -9.3150002E-01 -1.5978126E-01 1.3463839E+00
endloop
endfacet
facet normal 1.0000000E+00 0.0000000E+00 0.0000000E+00
outer loop
vertex -9.3150002E-01 -1.5978126E-01 1.3463839E+00
vertex -9.3150002E-01 -1.5805049E-01 1.3606381E+00
vertex -9.3150002E-01 -1.5978126E-01 1.3536161E+00
endloop
endfacet
facet normal 0.0000000E+00 -1.3051091E-01 9.9144685E-01
outer loop
vertex -9.3150002E-01 -1.2611772E-01 1.3355111E+00
vertex -9.6149999E-01 -1.2611772E-01 1.3355111E+00
vertex -9.3150002E-01 -1.3000000E-01 1.3350000E+00
endloop
endfacet
facet normal 0.0000000E+00 -1.3051091E-01 9.9144685E-01
outer loop
vertex -9.3150002E-01 -1.3000000E-01 1.3350000E+00
vertex -9.6149999E-01 -1.2611772E-01 1.3355111E+00
vertex -9.6149999E-01 -1.3000000E-01 1.3350000E+00
endloop
endfacet
facet normal 0.0000000E+00 1.3051042E-01 9.9144691E-01
outer loop
vertex -9.3150002E-01 -1.3000000E-01 1.3350000E+00
vertex -9.6149999E-01 -1.3000000E-01 1.3350000E+00
vertex -9.3150002E-01 -1.3388228E-01 1.3355111E+00
endloop
endfacet
facet normal 0.0000000E+00 1.3051042E-01 9.9144691E-01
outer loop
vertex -9.3150002E-01 -1.3388228E-01 1.3355111E+00
vertex -9.6149999E-01 -1.3000000E-01 1.3350000E+00
vertex -9.6149999E-01 -1.3388228E-01 1.3355111E+00
endloop
endfacet
facet normal 0.0000000E+00 3.8269910E-01 9.2387307E-01
outer loop
vertex -9.3150002E-01 -1.3388228E-01 1.3355111E+00
vertex -9.6149999E-01 -1.3388228E-01 1.3355111E+00
vertex -9.3150002E-01 -1.3750000E-01 1.3370097E+00
endloop
endfacet
facet normal 0.0000000E+00 3.8269910E-01 9.2387307E-01
outer loop
vertex -9.3150002E-01 -1.3750000E-01 1.3370097E+00
vertex -9.6149999E-01 -1.3388228E-01 1.3355111E+00
vertex -9.6149999E-01 -1.3750000E-01 1.3370097E+00
endloop
endfacet
facet normal 0.0000000E+00 6.0875106E-01 7.9336125E-01
outer loop
vertex -9.3150002E-01 -1.3750000E-01 1.3370097E+00
vertex -9.6149999E-01 -1.3750000E-01 1.3370097E+00
vertex -9.3150002E-01 -1.4060660E-01 1.3393934E+00
endloop
endfacet
facet normal 0.0000000E+00 6.0875106E-01 7.9336125E-01
outer loop
vertex -9.3150002E-01 -1.4060660E-01 1.3393934E+00
vertex -9.6149999E-01 -1.3750000E-01 1.3370097E+00
vertex -9.6149999E-01 -1.4060660E-01 1.3393934E+00
endloop
endfacet
facet normal 0.0000000E+00 7.9335207E-01 6.0876304E-01
outer loop
vertex -9.3150002E-01 -1.4060660E-01 1.3393934E+00
vertex -9.6149999E-01 -1.4060660E-01 1.3393934E+00
vertex -9.3150002E-01 -1.4299038E-01 1.3425000E+00
endloop
endfacet
facet normal 0.0000000E+00 7.9335207E-01 6.0876304E-01
outer loop
vertex -9.3150002E-01 -1.4299038E-01 1.3425000E+00
vertex -9.6149999E-01 -1.4060660E-01 1.3393934E+00
vertex -9.6149999E-01 -1.4299038E-01 1.3425000E+00
endloop
endfacet
facet normal 0.0000000E+00 9.2388147E-01 3.8267881E-01
outer loop
vertex -9.3150002E-01 -1.4299038E-01 1.3425000E+00
vertex -9.6149999E-01 -1.4299038E-01 1.3425000E+00
vertex -9.3150002E-01 -1.4448889E-01 1.3461177E+00
endloop
endfacet
facet normal 0.0000000E+00 9.2388147E-01 3.8267881E-01
outer loop
vertex -9.3150002E-01 -1.4448889E-01 1.3461177E+00
vertex -9.6149999E-01 -1.4299038E-01 1.3425000E+00
vertex -9.6149999E-01 -1.4448889E-01 1.3461177E+00
endloop
endfacet
facet normal 0.0000000E+00 9.9144500E-01 1.3052538E-01
outer loop
vertex -9.3150002E-01 -1.4448889E-01 1.3461177E+00
vertex -9.6149999E-01 -1.4448889E-01 1.3461177E+00
vertex -9.3150002E-01 -1.4500000E-01 1.3500000E+00
endloop
endfacet
facet normal 0.0000000E+00 9.9144500E-01 1.3052538E-01
outer loop
vertex -9.3150002E-01 -1.4500000E-01 1.3500000E+00
vertex -9.6149999E-01 -1.4448889E-01 1.3461177E+00
vertex -9.6149999E-01 -1.4500000E-01 1.3500000E+00
endloop
endfacet
facet normal 0.0000000E+00 9.9144500E-01 -1.3052538E-01
outer loop
vertex -9.3150002E-01 -1.4500000E-01 1.3500000E+00
vertex -9.6149999E-01 -1.4500000E-01 1.3500000E+00
vertex -9.3150002E-01 -1.4448889E-01 1.3538823E+00
endloop
endfacet
facet normal 0.0000000E+00 9.9144500E-01 -1.3052538E-01
outer loop
vertex -9.3150002E-01 -1.4448889E-01 1.3538823E+00
vertex -9.6149999E-01 -1.4500000E-01 1.3500000E+00
vertex -9.6149999E-01 -1.4448889E-01 1.3538823E+00
endloop
endfacet
facet normal 0.0000000E+00 9.2387694E-01 -3.8268957E-01
outer loop
vertex -9.3150002E-01 -1.4448889E-01 1.3538823E+00
vertex -9.6149999E-01 -1.4448889E-01 1.3538823E+00
vertex -9.3150002E-01 -1.4299038E-01 1.3575000E+00
endloop
endfacet
facet normal 0.0000000E+00 9.2387694E-01 -3.8268957E-01
outer loop
vertex -9.3150002E-01 -1.4299038E-01 1.3575000E+00
vertex -9.6149999E-01 -1.4448889E-01 1.3538823E+00
vertex -9.6149999E-01 -1.4299038E-01 1.3575000E+00
endloop
endfacet
facet normal 0.0000000E+00 7.9335207E-01 -6.0876304E-01
outer loop
vertex -9.3150002E-01 -1.4299038E-01 1.3575000E+00
vertex -9.6149999E-01 -1.4299038E-01 1.3575000E+00
vertex -9.3150002E-01 -1.4060660E-01 1.3606066E+00
endloop
endfacet
facet normal 0.0000000E+00 7.9335207E-01 -6.0876304E-01
outer loop
vertex -9.3150002E-01 -1.4060660E-01 1.3606066E+00
vertex -9.6149999E-01 -1.4299038E-01 1.3575000E+00
vertex -9.6149999E-01 -1.4060660E-01 1.3606066E+00
endloop
endfacet
facet normal 0.0000000E+00 6.0877025E-01 -7.9334664E-01
outer loop
vertex -9.3150002E-01 -1.4060660E-01 1.3606066E+00
vertex -9.6149999E-01 -1.4060660E-01 1.3606066E+00
vertex -9.3150002E-01 -1.3750000E-01 1.3629904E+00
endloop
endfacet
facet normal 0.0000000E+00 6.0877025E-01 -7.9334664E-01
outer loop
vertex -9.3150002E-01 -1.3750000E-01 1.3629904E+00
vertex -9.6149999E-01 -1.4060660E-01 1.3606066E+00
vertex -9.6149999E-01 -1.3750000E-01 1.3629904E+00
endloop
endfacet
facet normal 0.0000000E+00 3.8267308E-01 -9.2388380E-01
outer loop
vertex -9.3150002E-01 -1.3750000E-01 1.3629904E+00
vertex -9.6149999E-01 -1.3750000E-01 1.3629904E+00
vertex -9.3150002E-01 -1.3388228E-01 1.3644888E+00
endloop
endfacet
facet normal 0.0000000E+00 3.8267308E-01 -9.2388380E-01
outer loop
vertex -9.3150002E-01 -1.3388228E-01 1.3644888E+00
vertex -9.6149999E-01 -1.3750000E-01 1.3629904E+00
vertex -9.6149999E-01 -1.3388228E-01 1.3644888E+00
endloop
endfacet
facet normal 0.0000000E+00 1.3054034E-01 -9.9144292E-01
outer loop
vertex -9.3150002E-01 -1.3388228E-01 1.3644888E+00
vertex -9.6149999E-01 -1.3388228E-01 1.3644888E+00
vertex -9.3150002E-01 -1.3000000E-01 1.3650000E+00
endloop
endfacet
facet normal 0.0000000E+00 1.3054034E-01 -9.9144292E-01
outer loop
vertex -9.3150002E-01 -1.3000000E-01 1.3650000E+00
vertex -9.6149999E-01 -1.3388228E-01 1.3644888E+00
vertex -9.6149999E-01 -1.3000000E-01 1.3650000E+00
endloop
endfacet
facet normal -0.0000000E+00 -1.3054083E-01 -9.9144286E-01
outer loop
vertex -9.3150002E-01 -1.3000000E-01 1.3650000E+00
vertex -9.6149999E-01 -1.3000000E-01 1.3650000E+00
vertex -9.3150002E-01 -1.2611772E-01 1.3644888E+00
endloop
endfacet
facet normal -0.0000000E+00 -1.3054083E-01 -9.9144286E-01
outer loop
vertex -9.3150002E-01 -1.2611772E-01 1.3644888E+00
vertex -9.6149999E-01 -1.3000000E-01 1.3650000E+00
vertex -9.6149999E-01 -1.2611772E-01 1.3644888E+00
endloop
endfacet
facet normal -0.0000000E+00 -3.8267308E-01 -9.2388380E-01
outer loop
vertex -9.3150002E-01 -1.2611772E-01 1.3644888E+00
vertex -9.6149999E-01 -1.2611772E-01 1.3644888E+00
vertex -9.3150002E-01 -1.2250000E-01 1.3629904E+00
endloop
endfacet
facet normal -0.0000000E+00 -3.8267308E-01 -9.2388380E-01
outer loop
vertex -9.3150002E-01 -1.2250000E-01 1.3629904E+00
vertex -9.6149999E-01 -1.2611772E-01 1.3644888E+00
vertex -9.6149999E-01 -1.2250000E-01 1.3629904E+00
endloop
endfacet
facet normal -0.0000000E+00 -6.0876840E-01 -7.9334801E-01
outer loop
vertex -9.3150002E-01 -1.2250000E-01 1.3629904E+00
vertex -9.6149999E-01 -1.2250000E-01 1.3629904E+00
vertex -9.3150002E-01 -1.1939339E-01 1.3606066E+00
endloop
endfacet
facet normal -0.0000000E+00 -6.0876840E-01 -7.9334801E-01
outer loop
vertex -9.3150002E-01 -1.1939339E-01 1.3606066E+00
vertex -9.6149999E-01 -1.2250000E-01 1.3629904E+00
vertex -9.6149999E-01 -1.1939339E-01 1.3606066E+00
endloop
endfacet
facet normal -0.0000000E+00 -7.9335308E-01 -6.0876185E-01
outer loop
vertex -9.3150002E-01 -1.1939339E-01 1.3606066E+00
vertex -9.6149999E-01 -1.1939339E-01 1.3606066E+00
vertex -9.3150002E-01 -1.1700962E-01 1.3575000E+00
endloop
endfacet
facet normal -0.0000000E+00 -7.9335308E-01 -6.0876185E-01
outer loop
vertex -9.3150002E-01 -1.1700962E-01 1.3575000E+00
vertex -9.6149999E-01 -1.1939339E-01 1.3606066E+00
vertex -9.6149999E-01 -1.1700962E-01 1.3575000E+00
endloop
endfacet
facet normal -0.0000000E+00 -9.2387772E-01 -3.8268796E-01
outer loop
vertex -9.3150002E-01 -1.1700962E-01 1.3575000E+00
vertex -9.6149999E-01 -1.1700962E-01 1.3575000E+00
vertex -9.3150002E-01 -1.1551112E-01 1.3538823E+00
endloop
endfacet
facet normal -0.0000000E+00 -9.2387772E-01 -3.8268796E-01
outer loop
vertex -9.3150002E-01 -1.1551112E-01 1.3538823E+00
vertex -9.6149999E-01 -1.1700962E-01 1.3575000E+00
vertex -9.6149999E-01 -1.1551112E-01 1.3538823E+00
endloop
endfacet
facet normal -0.0000000E+00 -9.9144477E-01 -1.3052726E-01
outer loop
vertex -9.3150002E-01 -1.1551112E-01 1.3538823E+00
vertex -9.6149999E-01 -1.1551112E-01 1.3538823E+00
vertex -9.3150002E-01 -1.1500000E-01 1.3500000E+00
endloop
endfacet
facet normal -0.0000000E+00 -9.9144477E-01 -1.3052726E-01
outer loop
vertex -9.3150002E-01 -1.1500000E-01 1.3500000E+00
vertex -9.6149999E-01 -1.1551112E-01 1.3538823E+00
vertex -9.6149999E-01 -1.1500000E-01 1.3500000E+00
endloop
endfacet
facet normal 0.0000000E+00 -9.9144477E-01 1.3052726E-01
outer loop
vertex -9.3150002E-01 -1.1500000E-01 1.3500000E+00
vertex -9.6149999E-01 -1.1500000E-01 1.3500000E+00
vertex -9.3150002E-01 -1.1551112E-01 1.3461177E+00
endloop
endfacet
facet normal 0.0000000E+00 -9.9144477E-01 1.3052726E-01
outer loop
vertex -9.3150002E-01 -1.1551112E-01 1.3461177E+00
vertex -9.6149999E-01 -1.1500000E-01 1.3500000E+00
vertex -9.6149999E-01 -1.1551112E-01 1.3461177E+00
endloop
endfacet
facet normal 0.0000000E+00 -9.2388213E-01 3.8267717E-01
outer loop
vertex -9.3150002E-01 -1.1551112E-01 1.3461177E+00
vertex -9.6149999E-01 -1.1551112E-01 1.3461177E+00
vertex -9.3150002E-01 -1.1700962E-01 1.3425000E+00
endloop
endfacet
facet normal 0.0000000E+00 -9.2388213E-01 3.8267717E-01
outer loop
vertex -9.3150002E-01 -1.1700962E-01 1.3425000E+00
vertex -9.6149999E-01 -1.1551112E-01 1.3461177E+00
vertex -9.6149999E-01 -1.1700962E-01 1.3425000E+00
endloop
endfacet
facet normal 0.0000000E+00 -7.9335308E-01 6.0876185E-01
outer loop
vertex -9.3150002E-01 -1.1700962E-01 1.3425000E+00
vertex -9.6149999E-01 -1.1700962E-01 1.3425000E+00
vertex -9.3150002E-01 -1.1939339E-01 1.3393934E+00
endloop
endfacet
facet normal 0.0000000E+00 -7.9335308E-01 6.0876185E-01
outer loop
vertex -9.3150002E-01 -1.1939339E-01 1.3393934E+00
vertex -9.6149999E-01 -1.1700962E-01 1.3425000E+00
vertex -9.6149999E-01 -1.1939339E-01 1.3393934E+00
endloop
endfacet
facet normal 0.0000000E+00 -6.0874927E-01 7.9336268E-01
outer loop
vertex -9.3150002E-01 -1.1939339E-01 1.3393934E+00
vertex -9.6149999E-01 -1.1939339E-01 1.3393934E+00
vertex -9.3150002E-01 -1.2250000E-01 1.3370097E+00
endloop
endfacet
facet normal 0.0000000E+00 -6.0874927E-01 7.9336268E-01
outer loop
vertex -9.3150002E-01 -1.2250000E-01 1.3370097E+00
vertex -9.6149999E-01 -1.1939339E-01 1.3393934E+00
vertex -9.6149999E-01 -1.2250000E-01 1.3370097E+00
endloop
endfacet
facet normal 0.0000000E+00 -3.8269910E-01 9.2387307E-01
outer loop
vertex -9.3150002E-01 -1.2250000E-01 1.3370097E+00
vertex -9.6149999E-01 -1.2250000E-01 1.3370097E+00
vertex -9.3150002E-01 -1.2611772E-01 1.3355111E+00
endloop
endfacet
facet normal 0.0000000E+00 -3.8269910E-01 9.2387307E-01
outer loop
vertex -9.3150002E-01 -1.2611772E-01 1.3355111E+00
vertex -9.6149999E-01 -1.2250000E-01 1.3370097E+00
vertex -9.6149999E-01 -1.2611772E-01 1.3355111E+00
endloop
endfacet
facet normal -0.0000000E+00 -1.1197154E-01 -9.9371141E-01
outer loop
vertex -9.3150002E-01 -5.9999999E-02 1.3200001E+00
vertex -9.6149999E-01 -5.9999999E-02 1.3200001E+00
vertex -9.3150002E-01 -5.3324372E-02 1.3192478E+00
endloop
endfacet
facet normal -0.0000000E+00 -1.1197154E-01 -9.9371141E-01
outer loop
vertex -9.3150002E-01 -5.3324372E-02 1.3192478E+00
vertex -9.6149999E-01 -5.9999999E-02 1.3200001E+00
vertex -9.6149999E-01 -5.3324372E-02 1.3192478E+00
endloop
endfacet
facet normal -0.0000000E+00 -3.3028853E-01 -9.4388002E-01
outer loop
vertex -9.3150002E-01 -5.3324372E-02 1.3192478E+00
vertex -9.6149999E-01 -5.3324372E-02 1.3192478E+00
vertex -9.3150002E-01 -4.6983488E-02 1.3170290E+00
endloop
endfacet
facet normal -0.0000000E+00 -3.3028853E-01 -9.4388002E-01
outer loop
vertex -9.3150002E-01 -4.6983488E-02 1.3170290E+00
vertex -9.6149999E-01 -5.3324372E-02 1.3192478E+00
vertex -9.6149999E-01 -4.6983488E-02 1.3170290E+00
endloop
endfacet
facet normal -0.0000000E+00 -5.3202075E-01 -8.4673131E-01
outer loop
vertex -9.3150002E-01 -4.6983488E-02 1.3170290E+00
vertex -9.6149999E-01 -4.6983488E-02 1.3170290E+00
vertex -9.3150002E-01 -4.1295309E-02 1.3134550E+00
endloop
endfacet
facet normal -0.0000000E+00 -5.3202075E-01 -8.4673131E-01
outer loop
vertex -9.3150002E-01 -4.1295309E-02 1.3134550E+00
vertex -9.6149999E-01 -4.6983488E-02 1.3170290E+00
vertex -9.6149999E-01 -4.1295309E-02 1.3134550E+00
endloop
endfacet
facet normal -0.0000000E+00 -7.0710677E-01 -7.0710677E-01
outer loop
vertex -9.3150002E-01 -4.1295309E-02 1.3134550E+00
vertex -9.6149999E-01 -4.1295309E-02 1.3134550E+00
vertex -9.3150002E-01 -3.6545057E-02 1.3087047E+00
endloop
endfacet
facet normal -0.0000000E+00 -7.0710677E-01 -7.0710677E-01
outer loop
vertex -9.3150002E-01 -3.6545057E-02 1.3087047E+00
vertex -9.6149999E-01 -4.1295309E-02 1.3134550E+00
vertex -9.6149999E-01 -3.6545057E-02 1.3087047E+00
endloop
endfacet
facet normal -0.0000000E+00 -8.4672958E-01 -5.3202355E-01
outer loop
vertex -9.3150002E-01 -3.6545057E-02 1.3087047E+00
vertex -9.6149999E-01 -3.6545057E-02 1.3087047E+00
vertex -9.3150002E-01 -3.2970935E-02 1.3030164E+00
endloop
endfacet
facet normal -0.0000000E+00 -8.4672958E-01 -5.3202355E-01
outer loop
vertex -9.3150002E-01 -3.2970935E-02 1.3030164E+00
vertex -9.6149999E-01 -3.6545057E-02 1.3087047E+00
vertex -9.6149999E-01 -3.2970935E-02 1.3030164E+00
endloop
endfacet
facet normal -0.0000000E+00 -9.4388098E-01 -3.3028567E-01
outer loop
vertex -9.3150002E-01 -3.2970935E-02 1.3030164E+00
vertex -9.6149999E-01 -3.2970935E-02 1.3030164E+00
vertex -9.3150002E-01 -3.0752163E-02 1.2966757E+00
endloop
endfacet
facet normal -0.0000000E+00 -9.4388098E-01 -3.3028567E-01
outer loop
vertex -9.3150002E-01 -3.0752163E-02 1.2966757E+00
vertex -9.6149999E-01 -3.2970935E-02 1.3030164E+00
vertex -9.6149999E-01 -3.0752163E-02 1.2966757E+00
endloop
endfacet
facet normal -0.0000000E+00 -9.9371237E-01 -1.1196315E-01
outer loop
vertex -9.3150002E-01 -3.0752163E-02 1.2966757E+00
vertex -9.6149999E-01 -3.0752163E-02 1.2966757E+00
vertex -9.3150002E-01 -2.9999999E-02 1.2900000E+00
endloop
endfacet
facet normal -0.0000000E+00 -9.9371237E-01 -1.1196315E-01
outer loop
vertex -9.3150002E-01 -2.9999999E-02 1.2900000E+00
vertex -9.6149999E-01 -3.0752163E-02 1.2966757E+00
vertex -9.6149999E-01 -2.9999999E-02 1.2900000E+00
endloop
endfacet
facet normal 0.0000000E+00 0.0000000E+00 -1.0000000E+00
outer loop
vertex -9.6149999E-01 -1.3000000E-01 1.3200001E+00
vertex -9.6149999E-01 -5.9999999E-02 1.3200001E+00
vertex -9.3150002E-01 -1.3000000E-01 1.3200001E+00
endloop
endfacet
facet normal 0.0000000E+00 0.0000000E+00 -1.0000000E+00
outer loop
vertex -9.3150002E-01 -1.3000000E-01 1.3200001E+00
vertex -9.6149999E-01 -5.9999999E-02 1.3200001E+00
vertex -9.3150002E-01 -5.9999999E-02 1.3200001E+00
endloop
endfacet
facet normal 0.0000000E+00 -1.2052458E-01 9.9271035E-01
outer loop
vertex -9.3150002E-01 -1.3000000E-01 1.3800000E+00
vertex -9.6149999E-01 -1.3000000E-01 1.3800000E+00
vertex -9.3150002E-01 -1.3717948E-01 1.3791283E+00
endloop
endfacet
facet normal 0.0000000E+00 -1.2052458E-01 9.9271035E-01
outer loop
vertex -9.3150002E-01 -1.3717948E-01 1.3791283E+00
vertex -9.6149999E-01 -1.3000000E-01 1.3800000E+00
vertex -9.6149999E-01 -1.3717948E-01 1.3791283E+00
endloop
endfacet
facet normal 0.0000000E+00 -3.5461655E-01 9.3501186E-01
outer loop
vertex -9.3150002E-01 -1.3717948E-01 1.3791283E+00
vertex -9.6149999E-01 -1.3717948E-01 1.3791283E+00
vertex -9.3150002E-01 -1.4394170E-01 1.3765637E+00
endloop
endfacet
facet normal 0.0000000E+00 -3.5461655E-01 9.3501186E-01
outer loop
vertex -9.3150002E-01 -1.4394170E-01 1.3765637E+00
vertex -9.6149999E-01 -1.3717948E-01 1.3791283E+00
vertex -9.6149999E-01 -1.4394170E-01 1.3765637E+00
endloop
endfacet
facet normal 0.0000000E+00 -5.6806111E-01 8.2298642E-01
outer loop
vertex -9.3150002E-01 -1.4394170E-01 1.3765637E+00
vertex -9.6149999E-01 -1.4394170E-01 1.3765637E+00
vertex -9.3150002E-01 -1.4989367E-01 1.3724554E+00
endloop
endfacet
facet normal 0.0000000E+00 -5.6806111E-01 8.2298642E-01
outer loop
vertex -9.3150002E-01 -1.4989367E-01 1.3724554E+00
vertex -9.6149999E-01 -1.4394170E-01 1.3765637E+00
vertex -9.6149999E-01 -1.4989367E-01 1.3724554E+00
endloop
endfacet
facet normal 0.0000000E+00 -7.4851191E-01 6.6312146E-01
outer loop
vertex -9.3150002E-01 -1.4989367E-01 1.3724554E+00
vertex -9.6149999E-01 -1.4989367E-01 1.3724554E+00
vertex -9.3150002E-01 -1.5468952E-01 1.3670419E+00
endloop
endfacet
facet normal 0.0000000E+00 -7.4851191E-01 6.6312146E-01
outer loop
vertex -9.3150002E-01 -1.5468952E-01 1.3670419E+00
vertex -9.6149999E-01 -1.4989367E-01 1.3724554E+00
vertex -9.6149999E-01 -1.5468952E-01 1.3670419E+00
endloop
endfacet
facet normal 0.0000000E+00 -8.8545620E-01 4.6472275E-01
outer loop
vertex -9.3150002E-01 -1.5468952E-01 1.3670419E+00
vertex -9.6149999E-01 -1.5468952E-01 1.3670419E+00
vertex -9.3150002E-01 -1.5805049E-01 1.3606381E+00
endloop
endfacet
facet normal 0.0000000E+00 -8.8545620E-01 4.6472275E-01
outer loop
vertex -9.3150002E-01 -1.5805049E-01 1.3606381E+00
vertex -9.6149999E-01 -1.5468952E-01 1.3670419E+00
vertex -9.6149999E-01 -1.5805049E-01 1.3606381E+00
endloop
endfacet
facet normal 0.0000000E+00 -9.7094196E-01 2.3931521E-01
outer loop
vertex -9.3150002E-01 -1.5805049E-01 1.3606381E+00
vertex -9.6149999E-01 -1.5805049E-01 1.3606381E+00
vertex -9.3150002E-01 -1.5978126E-01 1.3536161E+00
endloop
endfacet
facet normal 0.0000000E+00 -9.7094196E-01 2.3931521E-01
outer loop
vertex -9.3150002E-01 -1.5978126E-01 1.3536161E+00
vertex -9.6149999E-01 -1.5805049E-01 1.3606381E+00
vertex -9.6149999E-01 -1.5978126E-01 1.3536161E+00
endloop
endfacet
facet normal -0.0000000E+00 -9.9999994E-01 -0.0000000E+00
outer loop
vertex -9.3150002E-01 -1.5978126E-01 1.3536161E+00
vertex -9.6149999E-01 -1.5978126E-01 1.3536161E+00
vertex -9.3150002E-01 -1.5978126E-01 1.3463839E+00
endloop
endfacet
facet normal 0.0000000E+00 -9.9999994E-01 0.0000000E+00
outer loop
vertex -9.3150002E-01 -1.5978126E-01 1.3463839E+00
vertex -9.6149999E-01 -1.5978126E-01 1.3536161E+00
vertex -9.6149999E-01 -1.5978126E-01 1.3463839E+00
endloop
endfacet
facet normal -0.0000000E+00 -9.7094291E-01 -2.3931138E-01
outer loop
vertex -9.3150002E-01 -1.5978126E-01 1.3463839E+00
vertex -9.6149999E-01 -1.5978126E-01 1.3463839E+00
vertex -9.3150002E-01 -1.5805049E-01 1.3393618E+00
endloop
endfacet
facet normal -0.0000000E+00 -9.7094291E-01 -2.3931138E-01
outer loop
vertex -9.3150002E-01 -1.5805049E-01 1.3393618E+00
vertex -9.6149999E-01 -1.5978126E-01 1.3463839E+00
vertex -9.6149999E-01 -1.5805049E-01 1.3393618E+00
endloop
endfacet
facet normal -0.0000000E+00 -8.8545620E-01 -4.6472275E-01
outer loop
vertex -9.3150002E-01 -1.5805049E-01 1.3393618E+00
vertex -9.6149999E-01 -1.5805049E-01 1.3393618E+00
vertex -9.3150002E-01 -1.5468952E-01 1.3329580E+00
endloop
endfacet
facet normal -0.0000000E+00 -8.8545620E-01 -4.6472275E-01
outer loop
vertex -9.3150002E-01 -1.5468952E-01 1.3329580E+00
vertex -9.6149999E-01 -1.5805049E-01 1.3393618E+00
vertex -9.6149999E-01 -1.5468952E-01 1.3329580E+00
endloop
endfacet
facet normal -0.0000000E+00 -7.4850464E-01 -6.6312957E-01
outer loop
vertex -9.3150002E-01 -1.5468952E-01 1.3329580E+00
vertex -9.6149999E-01 -1.5468952E-01 1.3329580E+00
vertex -9.3150002E-01 -1.4989367E-01 1.3275447E+00
endloop
endfacet
facet normal -0.0000000E+00 -7.4850464E-01 -6.6312957E-01
outer loop
vertex -9.3150002E-01 -1.4989367E-01 1.3275447E+00
vertex -9.6149999E-01 -1.5468952E-01 1.3329580E+00
vertex -9.6149999E-01 -1.4989367E-01 1.3275447E+00
endloop
endfacet
facet normal -0.0000000E+00 -5.6807226E-01 -8.2297868E-01
outer loop
vertex -9.3150002E-01 -1.4989367E-01 1.3275447E+00
vertex -9.6149999E-01 -1.4989367E-01 1.3275447E+00
vertex -9.3150002E-01 -1.4394170E-01 1.3234363E+00
endloop
endfacet
facet normal -0.0000000E+00 -5.6807226E-01 -8.2297868E-01
outer loop
vertex -9.3150002E-01 -1.4394170E-01 1.3234363E+00
vertex -9.6149999E-01 -1.4989367E-01 1.3275447E+00
vertex -9.6149999E-01 -1.4394170E-01 1.3234363E+00
endloop
endfacet
facet normal -0.0000000E+00 -3.5460213E-01 -9.3501729E-01
outer loop
vertex -9.3150002E-01 -1.4394170E-01 1.3234363E+00
vertex -9.6149999E-01 -1.4394170E-01 1.3234363E+00
vertex -9.3150002E-01 -1.3717948E-01 1.3208717E+00
endloop
endfacet
facet normal -0.0000000E+00 -3.5460213E-01 -9.3501729E-01
outer loop
vertex -9.3150002E-01 -1.3717948E-01 1.3208717E+00
vertex -9.6149999E-01 -1.4394170E-01 1.3234363E+00
vertex -9.6149999E-01 -1.3717948E-01 1.3208717E+00
endloop
endfacet
facet normal -0.0000000E+00 -1.2052458E-01 -9.9271035E-01
outer loop
vertex -9.3150002E-01 -1.3717948E-01 1.3208717E+00
vertex -9.6149999E-01 -1.3717948E-01 1.3208717E+00
vertex -9.3150002E-01 -1.3000000E-01 1.3200001E+00
endloop
endfacet
facet normal -0.0000000E+00 -1.2052458E-01 -9.9271035E-01
outer loop
vertex -9.3150002E-01 -1.3000000E-01 1.3200001E+00
vertex -9.6149999E-01 -1.3717948E-01 1.3208717E+00
vertex -9.6149999E-01 -1.3000000E-01 1.3200001E+00
endloop
endfacet
facet normal -0.0000000E+00 0.0000000E+00 1.0000000E+00
outer loop
vertex -9.6149999E-01 -2.2351740E-09 1.3800000E+00
vertex -9.6149999E-01 -1.3000000E-01 1.3800000E+00
vertex -9.3150002E-01 -2.2351740E-09 1.3800000E+00
endloop
endfacet
facet normal 0.0000000E+00 0.0000000E+00 1.0000000E+00
outer loop
vertex -9.3150002E-01 -2.2351740E-09 1.3800000E+00
vertex -9.6149999E-01 -1.3000000E-01 1.3800000E+00
vertex -9.3150002E-01 -1.3000000E-01 1.3800000E+00
endloop
endfacet
facet normal 0.0000000E+00 9.9371207E-01 1.1196541E-01
outer loop
vertex -9.3150002E-01 3.0000001E-02 1.3500000E+00
vertex -9.6149999E-01 3.0000001E-02 1.3500000E+00
vertex -9.3150002E-01 2.9247835E-02 1.3566756E+00
endloop
endfacet
facet normal 0.0000000E+00 9.9371207E-01 1.1196541E-01
outer loop
vertex -9.3150002E-01 2.9247835E-02 1.3566756E+00
vertex -9.6149999E-01 3.0000001E-02 1.3500000E+00
vertex -9.6149999E-01 2.9247835E-02 1.3566756E+00
endloop
endfacet
facet normal 0.0000000E+00 9.4388294E-01 3.3028015E-01
outer loop
vertex -9.3150002E-01 2.9247835E-02 1.3566756E+00
vertex -9.6149999E-01 2.9247835E-02 1.3566756E+00
vertex -9.3150002E-01 2.7029064E-02 1.3630165E+00
endloop
endfacet
facet normal 0.0000000E+00 9.4388294E-01 3.3028015E-01
outer loop
vertex -9.3150002E-01 2.7029064E-02 1.3630165E+00
vertex -9.6149999E-01 2.9247835E-02 1.3566756E+00
vertex -9.6149999E-01 2.7029064E-02 1.3630165E+00
endloop
endfacet
facet normal 0.0000000E+00 8.4672499E-01 5.3203094E-01
outer loop
vertex -9.3150002E-01 2.7029064E-02 1.3630165E+00
vertex -9.6149999E-01 2.7029064E-02 1.3630165E+00
vertex -9.3150002E-01 2.3454947E-02 1.3687047E+00
endloop
endfacet
facet normal 0.0000000E+00 8.4672499E-01 5.3203094E-01
outer loop
vertex -9.3150002E-01 2.3454947E-02 1.3687047E+00
vertex -9.6149999E-01 2.7029064E-02 1.3630165E+00
vertex -9.6149999E-01 2.3454947E-02 1.3687047E+00
endloop
endfacet
facet normal 0.0000000E+00 7.0710677E-01 7.0710677E-01
outer loop
vertex -9.3150002E-01 2.3454947E-02 1.3687047E+00
vertex -9.6149999E-01 2.3454947E-02 1.3687047E+00
vertex -9.3150002E-01 1.8704696E-02 1.3734549E+00
endloop
endfacet
facet normal 0.0000000E+00 7.0710677E-01 7.0710677E-01
outer loop
vertex -9.3150002E-01 1.8704696E-02 1.3734549E+00
vertex -9.6149999E-01 2.3454947E-02 1.3687047E+00
vertex -9.6149999E-01 1.8704696E-02 1.3734549E+00
endloop
endfacet
facet normal 0.0000000E+00 5.3203332E-01 8.4672338E-01
outer loop
vertex -9.3150002E-01 1.8704696E-02 1.3734549E+00
vertex -9.6149999E-01 1.8704696E-02 1.3734549E+00
vertex -9.3150002E-01 1.3016514E-02 1.3770291E+00
endloop
endfacet
facet normal 0.0000000E+00 5.3203332E-01 8.4672338E-01
outer loop
vertex -9.3150002E-01 1.3016514E-02 1.3770291E+00
vertex -9.6149999E-01 1.8704696E-02 1.3734549E+00
vertex -9.6149999E-01 1.3016514E-02 1.3770291E+00
endloop
endfacet
facet normal 0.0000000E+00 3.3027261E-01 9.4388568E-01
outer loop
vertex -9.3150002E-01 1.3016514E-02 1.3770291E+00
vertex -9.6149999E-01 1.3016514E-02 1.3770291E+00
vertex -9.3150002E-01 6.6756275E-03 1.3792478E+00
endloop
endfacet
facet normal 0.0000000E+00 3.3027261E-01 9.4388568E-01
outer loop
vertex -9.3150002E-01 6.6756275E-03 1.3792478E+00
vertex -9.6149999E-01 1.3016514E-02 1.3770291E+00
vertex -9.6149999E-01 6.6756275E-03 1.3792478E+00
endloop
endfacet
facet normal 0.0000000E+00 1.1197149E-01 9.9371135E-01
outer loop
vertex -9.3150002E-01 6.6756275E-03 1.3792478E+00
vertex -9.6149999E-01 6.6756275E-03 1.3792478E+00
vertex -9.3150002E-01 -2.2351740E-09 1.3800000E+00
endloop
endfacet
facet normal 0.0000000E+00 1.1197149E-01 9.9371135E-01
outer loop
vertex -9.3150002E-01 -2.2351740E-09 1.3800000E+00
vertex -9.6149999E-01 6.6756275E-03 1.3792478E+00
vertex -9.6149999E-01 -2.2351740E-09 1.3800000E+00
endloop
endfacet
facet normal 0.0000000E+00 1.0000000E+00 0.0000000E+00
outer loop
vertex -9.0149999E-01 3.0000001E-02 -1.5000001E-01
vertex -9.6149999E-01 3.0000001E-02 -1.5000001E-01
vertex -9.3150002E-01 3.0000001E-02 -1.3000000E-01
endloop
endfacet
facet normal 0.0000000E+00 1.0000000E+00 0.0000000E+00
outer loop
vertex -9.3150002E-01 3.0000001E-02 -1.3000000E-01
vertex -9.6149999E-01 3.0000001E-02 -1.5000001E-01
vertex -9.6149999E-01 3.0000001E-02 1.3500000E+00
endloop
endfacet
facet normal 0.0000000E+00 9.9999994E-01 -0.0000000E+00
outer loop
vertex -9.3150002E-01 3.0000001E-02 -1.3000000E-01
vertex -9.6149999E-01 3.0000001E-02 1.3500000E+00
vertex -9.3150002E-01 3.0000001E-02 1.3500000E+00
endloop
endfacet
facet normal -0.0000000E+00 9.9999994E-01 0.0000000E+00
outer loop
vertex -9.3150002E-01 3.0000001E-02 -1.3000000E-01
vertex -9.0149999E-01 3.0000001E-02 -1.3000000E-01
vertex -9.0149999E-01 3.0000001E-02 -1.5000001E-01
endloop
endfacet
facet normal 0.0000000E+00 0.0000000E+00 -1.0000000E+00
outer loop
vertex -9.6149999E-01 -2.9999999E-02 -1.5000001E-01
vertex -9.6149999E-01 3.0000001E-02 -1.5000001E-01
vertex -9.0149999E-01 -2.9999999E-02 -1.5000001E-01
endloop
endfacet
facet normal 0.0000000E+00 0.0000000E+00 -1.0000000E+00
outer loop
vertex -9.0149999E-01 -2.9999999E-02 -1.5000001E-01
vertex -9.6149999E-01 3.0000001E-02 -1.5000001E-01
vertex -9.0149999E-01 3.0000001E-02 -1.5000001E-01
endloop
endfacet
facet normal -0.0000000E+00 -1.0000000E+00 -0.0000000E+00
outer loop
vertex -9.3150002E-01 -2.9999999E-02 1.2900000E+00
vertex -9.6149999E-01 -2.9999999E-02 1.2900000E+00
vertex -9.3150002E-01 -2.9999999E-02 -1.3000000E-01
endloop
endfacet
facet normal -0.0000000E+00 -1.0000000E+00 0.0000000E+00
outer loop
vertex -9.3150002E-01 -2.9999999E-02 -1.3000000E-01
vertex -9.6149999E-01 -2.9999999E-02 1.2900000E+00
vertex -9.6149999E-01 -2.9999999E-02 -1.5000001E-01
endloop
endfacet
facet normal 0.0000000E+00 -1.0000000E+00 -0.0000000E+00
outer loop
vertex -9.3150002E-01 -2.9999999E-02 -1.3000000E-01
vertex -9.6149999E-01 -2.9999999E-02 -1.5000001E-01
vertex -9.0149999E-01 -2.9999999E-02 -1.5000001E-01
endloop
endfacet
facet normal 0.0000000E+00 -9.9999994E-01 0.0000000E+00
outer loop
vertex -9.0149999E-01 -2.9999999E-02 -1.5000001E-01
vertex -9.0149999E-01 -2.9999999E-02 -1.3000000E-01
vertex -9.3150002E-01 -2.9999999E-02 -1.3000000E-01
endloop
endfacet
facet normal -9.9999994E-01 0.0000000E+00 0.0000000E+00
outer loop
vertex -9.6149999E-01 -1.3388228E-01 1.3355111E+00
vertex -9.6149999E-01 -1.3000000E-01 1.3350000E+00
vertex -9.6149999E-01 -1.3000000E-01 1.3200001E+00
endloop
endfacet
facet normal -9.9999994E-01 0.0000000E+00 0.0000000E+00
outer loop
vertex -9.6149999E-01 -1.3000000E-01 1.3200001E+00
vertex -9.6149999E-01 -1.3000000E-01 1.3350000E+00
vertex -9.6149999E-01 -1.2611772E-01 1.3355111E+00
endloop
endfacet
facet normal -1.0000000E+00 0.0000000E+00 0.0000000E+00
outer loop
vertex -9.6149999E-01 -1.3000000E-01 1.3200001E+00
vertex -9.6149999E-01 -1.2611772E-01 1.3355111E+00
vertex -9.6149999E-01 -1.2250000E-01 1.3370097E+00
endloop
endfacet
facet normal -1.0000000E+00 0.0000000E+00 -0.0000000E+00
outer loop
vertex -9.6149999E-01 -1.2250000E-01 1.3370097E+00
vertex -9.6149999E-01 -1.1939339E-01 1.3393934E+00
vertex -9.6149999E-01 -1.3000000E-01 1.3200001E+00
endloop
endfacet
facet normal -1.0000000E+00 0.0000000E+00 0.0000000E+00
outer loop
vertex -9.6149999E-01 -1.3000000E-01 1.3200001E+00
vertex -9.6149999E-01 -1.1939339E-01 1.3393934E+00
vertex -9.6149999E-01 -1.1700962E-01 1.3425000E+00
endloop
endfacet
facet normal -1.0000000E+00 0.0000000E+00 0.0000000E+00
outer loop
vertex -9.6149999E-01 -1.3000000E-01 1.3200001E+00
vertex -9.6149999E-01 -1.1700962E-01 1.3425000E+00
vertex -9.6149999E-01 -5.9999999E-02 1.3200001E+00
endloop
endfacet
facet normal -1.0000000E+00 0.0000000E+00 0.0000000E+00
outer loop
vertex -9.6149999E-01 -5.9999999E-02 1.3200001E+00
vertex -9.6149999E-01 -1.1700962E-01 1.3425000E+00
vertex -9.6149999E-01 -1.1551112E-01 1.3461177E+00
endloop
endfacet
facet normal -1.0000000E+00 0.0000000E+00 0.0000000E+00
outer loop
vertex -9.6149999E-01 -5.9999999E-02 1.3200001E+00
vertex -9.6149999E-01 -1.1551112E-01 1.3461177E+00
vertex -9.6149999E-01 -1.1500000E-01 1.3500000E+00
endloop
endfacet
facet normal -1.0000000E+00 0.0000000E+00 0.0000000E+00
outer loop
vertex -9.6149999E-01 -1.1500000E-01 1.3500000E+00
vertex -9.6149999E-01 -1.1551112E-01 1.3538823E+00
vertex -9.6149999E-01 -5.9999999E-02 1.3200001E+00
endloop
endfacet
facet normal -1.0000000E+00 0.0000000E+00 0.0000000E+00
outer loop
vertex -9.6149999E-01 -5.9999999E-02 1.3200001E+00
vertex -9.6149999E-01 -1.1551112E-01 1.3538823E+00
vertex -9.6149999E-01 -1.1700962E-01 1.3575000E+00
endloop
endfacet
facet normal -1.0000000E+00 0.0000000E+00 0.0000000E+00
outer loop
vertex -9.6149999E-01 -5.9999999E-02 1.3200001E+00
vertex -9.6149999E-01 -1.1700962E-01 1.3575000E+00
vertex -9.6149999E-01 -2.2351740E-09 1.3800000E+00
endloop
endfacet
facet normal -1.0000000E+00 -0.0000000E+00 0.0000000E+00
outer loop
vertex -9.6149999E-01 -2.2351740E-09 1.3800000E+00
vertex -9.6149999E-01 -1.1700962E-01 1.3575000E+00
vertex -9.6149999E-01 -1.3000000E-01 1.3800000E+00
endloop
endfacet
facet normal -1.0000000E+00 0.0000000E+00 0.0000000E+00
outer loop
vertex -9.6149999E-01 -1.3000000E-01 1.3800000E+00
vertex -9.6149999E-01 -1.1700962E-01 1.3575000E+00
vertex -9.6149999E-01 -1.1939339E-01 1.3606066E+00
endloop
endfacet
facet normal -1.0000000E+00 0.0000000E+00 0.0000000E+00
outer loop
vertex -9.6149999E-01 -1.3000000E-01 1.3800000E+00
vertex -9.6149999E-01 -1.1939339E-01 1.3606066E+00
vertex -9.6149999E-01 -1.2250000E-01 1.3629904E+00
endloop
endfacet
facet normal -1.0000000E+00 0.0000000E+00 0.0000000E+00
outer loop
vertex -9.6149999E-01 -1.2250000E-01 1.3629904E+00
vertex -9.6149999E-01 -1.2611772E-01 1.3644888E+00
vertex -9.6149999E-01 -1.3000000E-01 1.3800000E+00
endloop
endfacet
facet normal -9.9999994E-01 0.0000000E+00 0.0000000E+00
outer loop
vertex -9.6149999E-01 -1.3000000E-01 1.3800000E+00
vertex -9.6149999E-01 -1.2611772E-01 1.3644888E+00
vertex -9.6149999E-01 -1.3000000E-01 1.3650000E+00
endloop
endfacet
facet normal -9.9999994E-01 0.0000000E+00 -0.0000000E+00
outer loop
vertex -9.6149999E-01 -1.3000000E-01 1.3800000E+00
vertex -9.6149999E-01 -1.3000000E-01 1.3650000E+00
vertex -9.6149999E-01 -1.3388228E-01 1.3644888E+00
endloop
endfacet
facet normal -1.0000000E+00 0.0000000E+00 0.0000000E+00
outer loop
vertex -9.6149999E-01 -1.3000000E-01 1.3800000E+00
vertex -9.6149999E-01 -1.3388228E-01 1.3644888E+00
vertex -9.6149999E-01 -1.3717948E-01 1.3791283E+00
endloop
endfacet
facet normal -1.0000000E+00 0.0000000E+00 -0.0000000E+00
outer loop
vertex -9.6149999E-01 -1.3717948E-01 1.3791283E+00
vertex -9.6149999E-01 -1.3388228E-01 1.3644888E+00
vertex -9.6149999E-01 -1.3750000E-01 1.3629904E+00
endloop
endfacet
facet normal -9.9999994E-01 0.0000000E+00 0.0000000E+00
outer loop
vertex -9.6149999E-01 -1.3717948E-01 1.3791283E+00
vertex -9.6149999E-01 -1.3750000E-01 1.3629904E+00
vertex -9.6149999E-01 -1.4060660E-01 1.3606066E+00
endloop
endfacet
facet normal -1.0000000E+00 0.0000000E+00 0.0000000E+00
outer loop
vertex -9.6149999E-01 -1.3717948E-01 1.3791283E+00
vertex -9.6149999E-01 -1.4060660E-01 1.3606066E+00
vertex -9.6149999E-01 -1.4394170E-01 1.3765637E+00
endloop
endfacet
facet normal -1.0000000E+00 0.0000000E+00 0.0000000E+00
outer loop
vertex -9.6149999E-01 -1.4394170E-01 1.3765637E+00
vertex -9.6149999E-01 -1.4060660E-01 1.3606066E+00
vertex -9.6149999E-01 -1.4299038E-01 1.3575000E+00
endloop
endfacet
facet normal -1.0000000E+00 0.0000000E+00 -0.0000000E+00
outer loop
vertex -9.6149999E-01 -1.4394170E-01 1.3765637E+00
vertex -9.6149999E-01 -1.4299038E-01 1.3575000E+00
vertex -9.6149999E-01 -1.4448889E-01 1.3538823E+00
endloop
endfacet
facet normal -1.0000000E+00 -0.0000000E+00 0.0000000E+00
outer loop
vertex -9.6149999E-01 -1.4448889E-01 1.3538823E+00
vertex -9.6149999E-01 -1.4500000E-01 1.3500000E+00
vertex -9.6149999E-01 -1.4394170E-01 1.3765637E+00
endloop
endfacet
facet normal -1.0000000E+00 0.0000000E+00 0.0000000E+00
outer loop
vertex -9.6149999E-01 -1.4394170E-01 1.3765637E+00
vertex -9.6149999E-01 -1.4500000E-01 1.3500000E+00
vertex -9.6149999E-01 -1.4989367E-01 1.3724554E+00
endloop
endfacet
facet normal -1.0000000E+00 0.0000000E+00 0.0000000E+00
outer loop
vertex -9.6149999E-01 -1.4989367E-01 1.3724554E+00
vertex -9.6149999E-01 -1.4500000E-01 1.3500000E+00
vertex -9.6149999E-01 -1.4989367E-01 1.3275447E+00
endloop
endfacet
facet normal -1.0000000E+00 0.0000000E+00 -0.0000000E+00
outer loop
vertex -9.6149999E-01 -1.4989367E-01 1.3724554E+00
vertex -9.6149999E-01 -1.4989367E-01 1.3275447E+00
vertex -9.6149999E-01 -1.5468952E-01 1.3670419E+00
endloop
endfacet
facet normal -9.9999994E-01 0.0000000E+00 0.0000000E+00
outer loop
vertex -9.6149999E-01 -1.5468952E-01 1.3670419E+00
vertex -9.6149999E-01 -1.4989367E-01 1.3275447E+00
vertex -9.6149999E-01 -1.5468952E-01 1.3329580E+00
endloop
endfacet
facet normal -1.0000000E+00 0.0000000E+00 -0.0000000E+00
outer loop
vertex -9.6149999E-01 -1.5468952E-01 1.3670419E+00
vertex -9.6149999E-01 -1.5468952E-01 1.3329580E+00
vertex -9.6149999E-01 -1.5805049E-01 1.3606381E+00
endloop
endfacet
facet normal -1.0000000E+00 0.0000000E+00 0.0000000E+00
outer loop
vertex -9.6149999E-01 -1.5805049E-01 1.3606381E+00
vertex -9.6149999E-01 -1.5468952E-01 1.3329580E+00
vertex -9.6149999E-01 -1.5805049E-01 1.3393618E+00
endloop
endfacet
facet normal -1.0000000E+00 0.0000000E+00 -0.0000000E+00
outer loop
vertex -9.6149999E-01 -1.5805049E-01 1.3606381E+00
vertex -9.6149999E-01 -1.5805049E-01 1.3393618E+00
vertex -9.6149999E-01 -1.5978126E-01 1.3536161E+00
endloop
endfacet
facet normal -1.0000000E+00 0.0000000E+00 0.0000000E+00
outer loop
vertex -9.6149999E-01 -1.5978126E-01 1.3536161E+00
vertex -9.6149999E-01 -1.5805049E-01 1.3393618E+00
vertex -9.6149999E-01 -1.5978126E-01 1.3463839E+00
endloop
endfacet
facet normal -1.0000000E+00 0.0000000E+00 0.0000000E+00
outer loop
vertex -9.6149999E-01 -1.4989367E-01 1.3275447E+00
vertex -9.6149999E-01 -1.4500000E-01 1.3500000E+00
vertex -9.6149999E-01 -1.4394170E-01 1.3234363E+00
endloop
endfacet
facet normal -1.0000000E+00 0.0000000E+00 0.0000000E+00
outer loop
vertex -9.6149999E-01 -1.4394170E-01 1.3234363E+00
vertex -9.6149999E-01 -1.4500000E-01 1.3500000E+00
vertex -9.6149999E-01 -1.4448889E-01 1.3461177E+00
endloop
endfacet
facet normal -1.0000000E+00 0.0000000E+00 0.0000000E+00
outer loop
vertex -9.6149999E-01 -1.4394170E-01 1.3234363E+00
vertex -9.6149999E-01 -1.4448889E-01 1.3461177E+00
vertex -9.6149999E-01 -1.4299038E-01 1.3425000E+00
endloop
endfacet
facet normal -1.0000000E+00 0.0000000E+00 -0.0000000E+00
outer loop
vertex -9.6149999E-01 -1.4299038E-01 1.3425000E+00
vertex -9.6149999E-01 -1.4060660E-01 1.3393934E+00
vertex -9.6149999E-01 -1.4394170E-01 1.3234363E+00
endloop
endfacet
facet normal -9.9999994E-01 0.0000000E+00 0.0000000E+00
outer loop
vertex -9.6149999E-01 -1.4394170E-01 1.3234363E+00
vertex -9.6149999E-01 -1.4060660E-01 1.3393934E+00
vertex -9.6149999E-01 -1.3717948E-01 1.3208717E+00
endloop
endfacet
facet normal -1.0000000E+00 0.0000000E+00 0.0000000E+00
outer loop
vertex -9.6149999E-01 -1.3717948E-01 1.3208717E+00
vertex -9.6149999E-01 -1.4060660E-01 1.3393934E+00
vertex -9.6149999E-01 -1.3750000E-01 1.3370097E+00
endloop
endfacet
facet normal -1.0000000E+00 0.0000000E+00 0.0000000E+00
outer loop
vertex -9.6149999E-01 -1.3717948E-01 1.3208717E+00
vertex -9.6149999E-01 -1.3750000E-01 1.3370097E+00
vertex -9.6149999E-01 -1.3388228E-01 1.3355111E+00
endloop
endfacet
facet normal -1.0000000E+00 0.0000000E+00 0.0000000E+00
outer loop
vertex -9.6149999E-01 -1.3717948E-01 1.3208717E+00
vertex -9.6149999E-01 -1.3388228E-01 1.3355111E+00
vertex -9.6149999E-01 -1.3000000E-01 1.3200001E+00
endloop
endfacet
facet normal -1.0000000E+00 0.0000000E+00 0.0000000E+00
outer loop
vertex -9.6149999E-01 -2.9999999E-02 -1.5000001E-01
vertex -9.6149999E-01 -2.9999999E-02 1.2900000E+00
vertex -9.6149999E-01 3.0000001E-02 -1.5000001E-01
endloop
endfacet
facet normal -1.0000000E+00 0.0000000E+00 0.0000000E+00
outer loop
vertex -9.6149999E-01 3.0000001E-02 -1.5000001E-01
vertex -9.6149999E-01 -2.9999999E-02 1.2900000E+00
vertex -9.6149999E-01 3.0000001E-02 1.3500000E+00
endloop
endfacet
facet normal -1.0000000E+00 -0.0000000E+00 0.0000000E+00
outer loop
vertex -9.6149999E-01 3.0000001E-02 1.3500000E+00
vertex -9.6149999E-01 -2.9999999E-02 1.2900000E+00
vertex -9.6149999E-01 1.3016514E-02 1.3770291E+00
endloop
endfacet
facet normal -1.0000000E+00 0.0000000E+00 0.0000000E+00
outer loop
vertex -9.6149999E-01 3.0000001E-02 1.3500000E+00
vertex -9.6149999E-01 1.3016514E-02 1.3770291E+00
vertex -9.6149999E-01 1.8704696E-02 1.3734549E+00
endloop
endfacet
facet normal -1.0000000E+00 0.0000000E+00 0.0000000E+00
outer loop
vertex -9.6149999E-01 -3.0752163E-02 1.2966757E+00
vertex -9.6149999E-01 -2.2351740E-09 1.3800000E+00
vertex -9.6149999E-01 -2.9999999E-02 1.2900000E+00
endloop
endfacet
facet normal -1.0000000E+00 0.0000000E+00 0.0000000E+00
outer loop
vertex -9.6149999E-01 -2.9999999E-02 1.2900000E+00
vertex -9.6149999E-01 -2.2351740E-09 1.3800000E+00
vertex -9.6149999E-01 6.6756275E-03 1.3792478E+00
endloop
endfacet
facet normal -1.0000000E+00 0.0000000E+00 0.0000000E+00
outer loop
vertex -9.6149999E-01 -2.9999999E-02 1.2900000E+00
vertex -9.6149999E-01 6.6756275E-03 1.3792478E+00
vertex -9.6149999E-01 1.3016514E-02 1.3770291E+00
endloop
endfacet
facet normal -1.0000000E+00 0.0000000E+00 0.0000000E+00
outer loop
vertex -9.6149999E-01 -3.0752163E-02 1.2966757E+00
vertex -9.6149999E-01 -3.2970935E-02 1.3030164E+00
vertex -9.6149999E-01 -2.2351740E-09 1.3800000E+00
endloop
endfacet
facet normal -9.9999994E-01 0.0000000E+00 0.0000000E+00
outer loop
vertex -9.6149999E-01 -2.2351740E-09 1.3800000E+00
vertex -9.6149999E-01 -3.2970935E-02 1.3030164E+00
vertex -9.6149999E-01 -3.6545057E-02 1.3087047E+00
endloop
endfacet
facet normal -1.0000000E+00 0.0000000E+00 0.0000000E+00
outer loop
vertex -9.6149999E-01 -2.2351740E-09 1.3800000E+00
vertex -9.6149999E-01 -3.6545057E-02 1.3087047E+00
vertex -9.6149999E-01 -4.1295309E-02 1.3134550E+00
endloop
endfacet
facet normal -1.0000000E+00 0.0000000E+00 0.0000000E+00
outer loop
vertex -9.6149999E-01 -4.1295309E-02 1.3134550E+00
vertex -9.6149999E-01 -4.6983488E-02 1.3170290E+00
vertex -9.6149999E-01 -2.2351740E-09 1.3800000E+00
endloop
endfacet
facet normal -1.0000000E+00 0.0000000E+00 0.0000000E+00
outer loop
vertex -9.6149999E-01 -2.2351740E-09 1.3800000E+00
vertex -9.6149999E-01 -4.6983488E-02 1.3170290E+00
vertex -9.6149999E-01 -5.3324372E-02 1.3192478E+00
endloop
endfacet
facet normal -1.0000000E+00 0.0000000E+00 0.0000000E+00
outer loop
vertex -9.6149999E-01 -2.2351740E-09 1.3800000E+00
vertex -9.6149999E-01 -5.3324372E-02 1.3192478E+00
vertex -9.6149999E-01 -5.9999999E-02 1.3200001E+00
endloop
endfacet
facet normal -9.9999994E-01 0.0000000E+00 0.0000000E+00
outer loop
vertex -9.6149999E-01 1.8704696E-02 1.3734549E+00
vertex -9.6149999E-01 2.3454947E-02 1.3687047E+00
vertex -9.6149999E-01 3.0000001E-02 1.3500000E+00
endloop
endfacet
facet normal -9.9999994E-01 0.0000000E+00 0.0000000E+00
outer loop
vertex -9.6149999E-01 3.0000001E-02 1.3500000E+00
vertex -9.6149999E-01 2.3454947E-02 1.3687047E+00
vertex -9.6149999E-01 2.7029064E-02 1.3630165E+00
endloop
endfacet
facet normal -1.0000000E+00 0.0000000E+00 0.0000000E+00
outer loop
vertex -9.6149999E-01 3.0000001E-02 1.3500000E+00
vertex -9.6149999E-01 2.7029064E-02 1.3630165E+00
vertex -9.6149999E-01 2.9247835E-02 1.3566756E+00
endloop
endfacet
endsolid Created by stlwrite.m 03-Sep-2021 16:23:09
