solid Created by stlwrite.m 10-Sep-2021 19:13:29
facet normal 0.0000000E+00 0.0000000E+00 -1.0000000E+00
outer loop
vertex 2.9999999E-02 1.5000000E-02 1.4800000E+00
vertex -2.9999999E-02 1.5000000E-02 1.4800000E+00
vertex 2.9999999E-02 4.5000002E-02 1.4800000E+00
endloop
endfacet
facet normal -0.0000000E+00 0.0000000E+00 -1.0000000E+00
outer loop
vertex 2.9999999E-02 4.5000002E-02 1.4800000E+00
vertex -2.9999999E-02 1.5000000E-02 1.4800000E+00
vertex -2.9999999E-02 4.5000002E-02 1.4800000E+00
endloop
endfacet
facet normal 0.0000000E+00 1.0000000E+00 0.0000000E+00
outer loop
vertex 2.9999999E-02 4.5000002E-02 1.5000000E+00
vertex 2.9999999E-02 4.5000002E-02 1.4800000E+00
vertex -2.9999999E-02 4.5000002E-02 1.5000000E+00
endloop
endfacet
facet normal 0.0000000E+00 1.0000000E+00 0.0000000E+00
outer loop
vertex -2.9999999E-02 4.5000002E-02 1.5000000E+00
vertex 2.9999999E-02 4.5000002E-02 1.4800000E+00
vertex -2.9999999E-02 4.5000002E-02 1.4800000E+00
endloop
endfacet
facet normal -0.0000000E+00 9.9999994E-01 0.0000000E+00
outer loop
vertex -2.9999999E-02 1.5000000E-02 1.4800000E+00
vertex 2.9999999E-02 1.5000000E-02 1.4800000E+00
vertex -2.9999999E-02 1.5000000E-02 5.9999995E-02
endloop
endfacet
facet normal -0.0000000E+00 1.0000000E+00 0.0000000E+00
outer loop
vertex -2.9999999E-02 1.5000000E-02 5.9999995E-02
vertex 2.9999999E-02 1.5000000E-02 1.4800000E+00
vertex 2.9999999E-02 1.5000000E-02 -1.7881394E-09
endloop
endfacet
facet normal 0.0000000E+00 9.9999994E-01 0.0000000E+00
outer loop
vertex -2.9999999E-02 1.5000000E-02 5.9999995E-02
vertex 2.9999999E-02 1.5000000E-02 -1.7881394E-09
vertex 1.3016479E-02 1.5000000E-02 -2.7029045E-02
endloop
endfacet
facet normal 0.0000000E+00 1.0000000E+00 0.0000000E+00
outer loop
vertex 1.3016479E-02 1.5000000E-02 -2.7029045E-02
vertex 2.9999999E-02 1.5000000E-02 -1.7881394E-09
vertex 1.8704712E-02 1.5000000E-02 -2.3454927E-02
endloop
endfacet
facet normal 0.0000000E+00 1.0000000E+00 0.0000000E+00
outer loop
vertex 1.8704712E-02 1.5000000E-02 -2.3454927E-02
vertex 2.9999999E-02 1.5000000E-02 -1.7881394E-09
vertex 2.3454957E-02 1.5000000E-02 -1.8704711E-02
endloop
endfacet
facet normal 0.0000000E+00 1.0000000E+00 0.0000000E+00
outer loop
vertex 2.3454957E-02 1.5000000E-02 -1.8704711E-02
vertex 2.9999999E-02 1.5000000E-02 -1.7881394E-09
vertex 2.7029052E-02 1.5000000E-02 -1.3016507E-02
endloop
endfacet
facet normal 0.0000000E+00 1.0000000E+00 0.0000000E+00
outer loop
vertex 2.7029052E-02 1.5000000E-02 -1.3016507E-02
vertex 2.9999999E-02 1.5000000E-02 -1.7881394E-09
vertex 2.9247804E-02 1.5000000E-02 -6.6756206E-03
endloop
endfacet
facet normal 0.0000000E+00 1.0000000E+00 0.0000000E+00
outer loop
vertex 1.3016479E-02 1.5000000E-02 -2.7029045E-02
vertex 6.6756592E-03 1.5000000E-02 -2.9247822E-02
vertex -2.9999999E-02 1.5000000E-02 5.9999995E-02
endloop
endfacet
facet normal 0.0000000E+00 1.0000000E+00 0.0000000E+00
outer loop
vertex -2.9999999E-02 1.5000000E-02 5.9999995E-02
vertex 6.6756592E-03 1.5000000E-02 -2.9247822E-02
vertex -2.2204460E-16 1.5000000E-02 -2.9999999E-02
endloop
endfacet
facet normal 0.0000000E+00 1.0000000E+00 0.0000000E+00
outer loop
vertex -2.9999999E-02 1.5000000E-02 5.9999995E-02
vertex -2.2204460E-16 1.5000000E-02 -2.9999999E-02
vertex -3.0752197E-02 1.5000000E-02 5.3324375E-02
endloop
endfacet
facet normal 0.0000000E+00 1.0000000E+00 0.0000000E+00
outer loop
vertex -3.0752197E-02 1.5000000E-02 5.3324375E-02
vertex -2.2204460E-16 1.5000000E-02 -2.9999999E-02
vertex -3.2970946E-02 1.5000000E-02 4.6983492E-02
endloop
endfacet
facet normal 0.0000000E+00 1.0000000E+00 0.0000000E+00
outer loop
vertex -3.2970946E-02 1.5000000E-02 4.6983492E-02
vertex -2.2204460E-16 1.5000000E-02 -2.9999999E-02
vertex -3.6545046E-02 1.5000000E-02 4.1295283E-02
endloop
endfacet
facet normal 0.0000000E+00 1.0000000E+00 0.0000000E+00
outer loop
vertex -3.6545046E-02 1.5000000E-02 4.1295283E-02
vertex -2.2204460E-16 1.5000000E-02 -2.9999999E-02
vertex -4.1295286E-02 1.5000000E-02 3.6545072E-02
endloop
endfacet
facet normal 0.0000000E+00 1.0000000E+00 0.0000000E+00
outer loop
vertex -4.1295286E-02 1.5000000E-02 3.6545072E-02
vertex -2.2204460E-16 1.5000000E-02 -2.9999999E-02
vertex -4.6983521E-02 1.5000000E-02 3.2970950E-02
endloop
endfacet
facet normal 0.0000000E+00 1.0000000E+00 0.0000000E+00
outer loop
vertex -4.6983521E-02 1.5000000E-02 3.2970950E-02
vertex -2.2204460E-16 1.5000000E-02 -2.9999999E-02
vertex -5.3324342E-02 1.5000000E-02 3.0752175E-02
endloop
endfacet
facet normal 0.0000000E+00 1.0000000E+00 0.0000000E+00
outer loop
vertex -5.3324342E-02 1.5000000E-02 3.0752175E-02
vertex -2.2204460E-16 1.5000000E-02 -2.9999999E-02
vertex -5.9999999E-02 1.5000000E-02 2.9999996E-02
endloop
endfacet
facet normal 0.0000000E+00 1.0000000E+00 0.0000000E+00
outer loop
vertex -5.9999999E-02 1.5000000E-02 2.9999996E-02
vertex -2.2204460E-16 1.5000000E-02 -2.9999999E-02
vertex -1.1700965E-01 1.5000000E-02 -7.4999784E-03
endloop
endfacet
facet normal 0.0000000E+00 1.0000000E+00 0.0000000E+00
outer loop
vertex -5.9999999E-02 1.5000000E-02 2.9999996E-02
vertex -1.1700965E-01 1.5000000E-02 -7.4999784E-03
vertex -1.1551111E-01 1.5000000E-02 -3.8822687E-03
endloop
endfacet
facet normal 0.0000000E+00 1.0000000E+00 0.0000000E+00
outer loop
vertex -2.2204460E-16 1.5000000E-02 -2.9999999E-02
vertex -1.3000000E-01 1.5000000E-02 -2.9999999E-02
vertex -1.1700965E-01 1.5000000E-02 -7.4999784E-03
endloop
endfacet
facet normal 0.0000000E+00 1.0000000E+00 0.0000000E+00
outer loop
vertex -1.1700965E-01 1.5000000E-02 -7.4999784E-03
vertex -1.3000000E-01 1.5000000E-02 -2.9999999E-02
vertex -1.1939343E-01 1.5000000E-02 -1.0606585E-02
endloop
endfacet
facet normal 0.0000000E+00 1.0000000E+00 0.0000000E+00
outer loop
vertex -1.1939343E-01 1.5000000E-02 -1.0606585E-02
vertex -1.3000000E-01 1.5000000E-02 -2.9999999E-02
vertex -1.2250000E-01 1.5000000E-02 -1.2990381E-02
endloop
endfacet
facet normal 0.0000000E+00 1.0000000E+00 0.0000000E+00
outer loop
vertex -1.2250000E-01 1.5000000E-02 -1.2990381E-02
vertex -1.3000000E-01 1.5000000E-02 -2.9999999E-02
vertex -1.2611768E-01 1.5000000E-02 -1.4488898E-02
endloop
endfacet
facet normal 0.0000000E+00 1.0000000E+00 0.0000000E+00
outer loop
vertex -1.2611768E-01 1.5000000E-02 -1.4488898E-02
vertex -1.3000000E-01 1.5000000E-02 -2.9999999E-02
vertex -1.3000000E-01 1.5000000E-02 -1.5000001E-02
endloop
endfacet
facet normal 0.0000000E+00 1.0000000E+00 0.0000000E+00
outer loop
vertex -1.3000000E-01 1.5000000E-02 -1.5000001E-02
vertex -1.3000000E-01 1.5000000E-02 -2.9999999E-02
vertex -1.3388233E-01 1.5000000E-02 -1.4488898E-02
endloop
endfacet
facet normal 0.0000000E+00 1.0000000E+00 0.0000000E+00
outer loop
vertex -1.3388233E-01 1.5000000E-02 -1.4488898E-02
vertex -1.3000000E-01 1.5000000E-02 -2.9999999E-02
vertex -1.3717945E-01 1.5000000E-02 -2.9128265E-02
endloop
endfacet
facet normal 0.0000000E+00 1.0000000E+00 0.0000000E+00
outer loop
vertex -1.3388233E-01 1.5000000E-02 -1.4488898E-02
vertex -1.3717945E-01 1.5000000E-02 -2.9128265E-02
vertex -1.3750000E-01 1.5000000E-02 -1.2990381E-02
endloop
endfacet
facet normal 0.0000000E+00 1.0000000E+00 0.0000000E+00
outer loop
vertex -1.3750000E-01 1.5000000E-02 -1.2990381E-02
vertex -1.3717945E-01 1.5000000E-02 -2.9128265E-02
vertex -1.4060657E-01 1.5000000E-02 -1.0606585E-02
endloop
endfacet
facet normal 0.0000000E+00 9.9999994E-01 0.0000000E+00
outer loop
vertex -1.4060657E-01 1.5000000E-02 -1.0606585E-02
vertex -1.3717945E-01 1.5000000E-02 -2.9128265E-02
vertex -1.4394166E-01 1.5000000E-02 -2.6563676E-02
endloop
endfacet
facet normal 0.0000000E+00 1.0000000E+00 0.0000000E+00
outer loop
vertex -1.4060657E-01 1.5000000E-02 -1.0606585E-02
vertex -1.4394166E-01 1.5000000E-02 -2.6563676E-02
vertex -1.4299035E-01 1.5000000E-02 -7.4999784E-03
endloop
endfacet
facet normal 0.0000000E+00 9.9999994E-01 0.0000000E+00
outer loop
vertex -1.4299035E-01 1.5000000E-02 -7.4999784E-03
vertex -1.4394166E-01 1.5000000E-02 -2.6563676E-02
vertex -1.4448889E-01 1.5000000E-02 -3.8822687E-03
endloop
endfacet
facet normal 0.0000000E+00 1.0000000E+00 0.0000000E+00
outer loop
vertex -1.4448889E-01 1.5000000E-02 -3.8822687E-03
vertex -1.4394166E-01 1.5000000E-02 -2.6563676E-02
vertex -1.4989367E-01 1.5000000E-02 -2.2455338E-02
endloop
endfacet
facet normal 0.0000000E+00 9.9999994E-01 0.0000000E+00
outer loop
vertex -1.4448889E-01 1.5000000E-02 -3.8822687E-03
vertex -1.4989367E-01 1.5000000E-02 -2.2455338E-02
vertex -1.4500000E-01 1.5000000E-02 -1.7881394E-09
endloop
endfacet
facet normal 0.0000000E+00 1.0000000E+00 0.0000000E+00
outer loop
vertex -1.4500000E-01 1.5000000E-02 -1.7881394E-09
vertex -1.4989367E-01 1.5000000E-02 -2.2455338E-02
vertex -1.4989367E-01 1.5000000E-02 2.2455333E-02
endloop
endfacet
facet normal 0.0000000E+00 1.0000000E+00 -0.0000000E+00
outer loop
vertex -1.4500000E-01 1.5000000E-02 -1.7881394E-09
vertex -1.4989367E-01 1.5000000E-02 2.2455333E-02
vertex -1.4448889E-01 1.5000000E-02 3.8822652E-03
endloop
endfacet
facet normal 0.0000000E+00 1.0000000E+00 -0.0000000E+00
outer loop
vertex -1.4448889E-01 1.5000000E-02 3.8822652E-03
vertex -1.4989367E-01 1.5000000E-02 2.2455333E-02
vertex -1.4394166E-01 1.5000000E-02 2.6563672E-02
endloop
endfacet
facet normal 0.0000000E+00 1.0000000E+00 0.0000000E+00
outer loop
vertex -1.4448889E-01 1.5000000E-02 3.8822652E-03
vertex -1.4394166E-01 1.5000000E-02 2.6563672E-02
vertex -1.4299035E-01 1.5000000E-02 7.5000203E-03
endloop
endfacet
facet normal 0.0000000E+00 1.0000000E+00 -0.0000000E+00
outer loop
vertex -1.4299035E-01 1.5000000E-02 7.5000203E-03
vertex -1.4394166E-01 1.5000000E-02 2.6563672E-02
vertex -1.4060657E-01 1.5000000E-02 1.0606581E-02
endloop
endfacet
facet normal 0.0000000E+00 9.9999994E-01 -0.0000000E+00
outer loop
vertex -1.4060657E-01 1.5000000E-02 1.0606581E-02
vertex -1.4394166E-01 1.5000000E-02 2.6563672E-02
vertex -1.3717945E-01 1.5000000E-02 2.9128261E-02
endloop
endfacet
facet normal 0.0000000E+00 1.0000000E+00 0.0000000E+00
outer loop
vertex -1.4060657E-01 1.5000000E-02 1.0606581E-02
vertex -1.3717945E-01 1.5000000E-02 2.9128261E-02
vertex -1.3750000E-01 1.5000000E-02 1.2990377E-02
endloop
endfacet
facet normal 0.0000000E+00 1.0000000E+00 0.0000000E+00
outer loop
vertex -1.3750000E-01 1.5000000E-02 1.2990377E-02
vertex -1.3717945E-01 1.5000000E-02 2.9128261E-02
vertex -1.3388233E-01 1.5000000E-02 1.4488894E-02
endloop
endfacet
facet normal 0.0000000E+00 1.0000000E+00 -0.0000000E+00
outer loop
vertex -1.3388233E-01 1.5000000E-02 1.4488894E-02
vertex -1.3717945E-01 1.5000000E-02 2.9128261E-02
vertex -1.3000000E-01 1.5000000E-02 2.9999996E-02
endloop
endfacet
facet normal 0.0000000E+00 1.0000000E+00 0.0000000E+00
outer loop
vertex -1.3388233E-01 1.5000000E-02 1.4488894E-02
vertex -1.3000000E-01 1.5000000E-02 2.9999996E-02
vertex -1.3000000E-01 1.5000000E-02 1.4999997E-02
endloop
endfacet
facet normal -0.0000000E+00 1.0000000E+00 0.0000000E+00
outer loop
vertex -1.3000000E-01 1.5000000E-02 1.4999997E-02
vertex -1.3000000E-01 1.5000000E-02 2.9999996E-02
vertex -1.2611768E-01 1.5000000E-02 1.4488894E-02
endloop
endfacet
facet normal -0.0000000E+00 9.9999994E-01 -0.0000000E+00
outer loop
vertex -1.2611768E-01 1.5000000E-02 1.4488894E-02
vertex -1.3000000E-01 1.5000000E-02 2.9999996E-02
vertex -1.2250000E-01 1.5000000E-02 1.2990377E-02
endloop
endfacet
facet normal -0.0000000E+00 1.0000000E+00 -0.0000000E+00
outer loop
vertex -1.2250000E-01 1.5000000E-02 1.2990377E-02
vertex -1.3000000E-01 1.5000000E-02 2.9999996E-02
vertex -1.1939343E-01 1.5000000E-02 1.0606581E-02
endloop
endfacet
facet normal -0.0000000E+00 1.0000000E+00 -0.0000000E+00
outer loop
vertex -1.1939343E-01 1.5000000E-02 1.0606581E-02
vertex -1.3000000E-01 1.5000000E-02 2.9999996E-02
vertex -1.1700965E-01 1.5000000E-02 7.5000203E-03
endloop
endfacet
facet normal 0.0000000E+00 1.0000000E+00 -0.0000000E+00
outer loop
vertex -1.1700965E-01 1.5000000E-02 7.5000203E-03
vertex -1.3000000E-01 1.5000000E-02 2.9999996E-02
vertex -5.9999999E-02 1.5000000E-02 2.9999996E-02
endloop
endfacet
facet normal -0.0000000E+00 9.9999994E-01 0.0000000E+00
outer loop
vertex -1.1700965E-01 1.5000000E-02 7.5000203E-03
vertex -5.9999999E-02 1.5000000E-02 2.9999996E-02
vertex -1.1551111E-01 1.5000000E-02 3.8822652E-03
endloop
endfacet
facet normal -0.0000000E+00 1.0000000E+00 0.0000000E+00
outer loop
vertex -1.1551111E-01 1.5000000E-02 3.8822652E-03
vertex -5.9999999E-02 1.5000000E-02 2.9999996E-02
vertex -1.1500000E-01 1.5000000E-02 -1.7881394E-09
endloop
endfacet
facet normal -0.0000000E+00 1.0000000E+00 0.0000000E+00
outer loop
vertex -1.1500000E-01 1.5000000E-02 -1.7881394E-09
vertex -5.9999999E-02 1.5000000E-02 2.9999996E-02
vertex -1.1551111E-01 1.5000000E-02 -3.8822687E-03
endloop
endfacet
facet normal 0.0000000E+00 1.0000000E+00 0.0000000E+00
outer loop
vertex -1.4989367E-01 1.5000000E-02 2.2455333E-02
vertex -1.4989367E-01 1.5000000E-02 -2.2455338E-02
vertex -1.5468958E-01 1.5000000E-02 1.7041946E-02
endloop
endfacet
facet normal 0.0000000E+00 1.0000000E+00 0.0000000E+00
outer loop
vertex -1.5468958E-01 1.5000000E-02 1.7041946E-02
vertex -1.4989367E-01 1.5000000E-02 -2.2455338E-02
vertex -1.5468958E-01 1.5000000E-02 -1.7041950E-02
endloop
endfacet
facet normal 0.0000000E+00 9.9999994E-01 0.0000000E+00
outer loop
vertex -1.5468958E-01 1.5000000E-02 1.7041946E-02
vertex -1.5468958E-01 1.5000000E-02 -1.7041950E-02
vertex -1.5805054E-01 1.5000000E-02 1.0638135E-02
endloop
endfacet
facet normal 0.0000000E+00 1.0000000E+00 0.0000000E+00
outer loop
vertex -1.5805054E-01 1.5000000E-02 1.0638135E-02
vertex -1.5468958E-01 1.5000000E-02 -1.7041950E-02
vertex -1.5805054E-01 1.5000000E-02 -1.0638139E-02
endloop
endfacet
facet normal 0.0000000E+00 1.0000000E+00 0.0000000E+00
outer loop
vertex -1.5805054E-01 1.5000000E-02 1.0638135E-02
vertex -1.5805054E-01 1.5000000E-02 -1.0638139E-02
vertex -1.5978125E-01 1.5000000E-02 3.6161123E-03
endloop
endfacet
facet normal 0.0000000E+00 1.0000000E+00 0.0000000E+00
outer loop
vertex -1.5978125E-01 1.5000000E-02 3.6161123E-03
vertex -1.5805054E-01 1.5000000E-02 -1.0638139E-02
vertex -1.5978125E-01 1.5000000E-02 -3.6161158E-03
endloop
endfacet
facet normal -1.3052253E-01 -0.0000000E+00 -9.9144536E-01
outer loop
vertex -1.2611768E-01 1.5000000E-02 1.4488894E-02
vertex -1.2611768E-01 -1.5000001E-02 1.4488894E-02
vertex -1.3000000E-01 1.5000000E-02 1.4999997E-02
endloop
endfacet
facet normal -1.3052253E-01 -0.0000000E+00 -9.9144536E-01
outer loop
vertex -1.3000000E-01 1.5000000E-02 1.4999997E-02
vertex -1.2611768E-01 -1.5000001E-02 1.4488894E-02
vertex -1.3000000E-01 -1.5000001E-02 1.4999997E-02
endloop
endfacet
facet normal 1.3052201E-01 0.0000000E+00 -9.9144530E-01
outer loop
vertex -1.3000000E-01 1.5000000E-02 1.4999997E-02
vertex -1.3000000E-01 -1.5000001E-02 1.4999997E-02
vertex -1.3388233E-01 1.5000000E-02 1.4488894E-02
endloop
endfacet
facet normal 1.3052201E-01 0.0000000E+00 -9.9144530E-01
outer loop
vertex -1.3388233E-01 1.5000000E-02 1.4488894E-02
vertex -1.3000000E-01 -1.5000001E-02 1.4999997E-02
vertex -1.3388233E-01 -1.5000001E-02 1.4488894E-02
endloop
endfacet
facet normal 3.8268954E-01 0.0000000E+00 -9.2387700E-01
outer loop
vertex -1.3388233E-01 1.5000000E-02 1.4488894E-02
vertex -1.3388233E-01 -1.5000001E-02 1.4488894E-02
vertex -1.3750000E-01 1.5000000E-02 1.2990377E-02
endloop
endfacet
facet normal 3.8268954E-01 0.0000000E+00 -9.2387700E-01
outer loop
vertex -1.3750000E-01 1.5000000E-02 1.2990377E-02
vertex -1.3388233E-01 -1.5000001E-02 1.4488894E-02
vertex -1.3750000E-01 -1.5000001E-02 1.2990377E-02
endloop
endfacet
facet normal 6.0876864E-01 0.0000000E+00 -7.9334784E-01
outer loop
vertex -1.3750000E-01 1.5000000E-02 1.2990377E-02
vertex -1.3750000E-01 -1.5000001E-02 1.2990377E-02
vertex -1.4060657E-01 1.5000000E-02 1.0606581E-02
endloop
endfacet
facet normal 6.0876864E-01 0.0000000E+00 -7.9334784E-01
outer loop
vertex -1.4060657E-01 1.5000000E-02 1.0606581E-02
vertex -1.3750000E-01 -1.5000001E-02 1.2990377E-02
vertex -1.4060657E-01 -1.5000001E-02 1.0606581E-02
endloop
endfacet
facet normal 7.9334897E-01 0.0000000E+00 -6.0876715E-01
outer loop
vertex -1.4060657E-01 1.5000000E-02 1.0606581E-02
vertex -1.4060657E-01 -1.5000001E-02 1.0606581E-02
vertex -1.4299035E-01 1.5000000E-02 7.5000203E-03
endloop
endfacet
facet normal 7.9334897E-01 0.0000000E+00 -6.0876715E-01
outer loop
vertex -1.4299035E-01 1.5000000E-02 7.5000203E-03
vertex -1.4060657E-01 -1.5000001E-02 1.0606581E-02
vertex -1.4299035E-01 -1.5000001E-02 7.5000203E-03
endloop
endfacet
facet normal 9.2387843E-01 0.0000000E+00 -3.8268605E-01
outer loop
vertex -1.4299035E-01 1.5000000E-02 7.5000203E-03
vertex -1.4299035E-01 -1.5000001E-02 7.5000203E-03
vertex -1.4448889E-01 1.5000000E-02 3.8822652E-03
endloop
endfacet
facet normal 9.2387843E-01 0.0000000E+00 -3.8268605E-01
outer loop
vertex -1.4448889E-01 1.5000000E-02 3.8822652E-03
vertex -1.4299035E-01 -1.5000001E-02 7.5000203E-03
vertex -1.4448889E-01 -1.5000001E-02 3.8822652E-03
endloop
endfacet
facet normal 9.9144489E-01 0.0000000E+00 -1.3052611E-01
outer loop
vertex -1.4448889E-01 1.5000000E-02 3.8822652E-03
vertex -1.4448889E-01 -1.5000001E-02 3.8822652E-03
vertex -1.4500000E-01 1.5000000E-02 -1.7881394E-09
endloop
endfacet
facet normal 9.9144489E-01 0.0000000E+00 -1.3052611E-01
outer loop
vertex -1.4500000E-01 1.5000000E-02 -1.7881394E-09
vertex -1.4448889E-01 -1.5000001E-02 3.8822652E-03
vertex -1.4500000E-01 -1.5000001E-02 -1.7881394E-09
endloop
endfacet
facet normal 9.9144495E-01 0.0000000E+00 1.3052613E-01
outer loop
vertex -1.4500000E-01 1.5000000E-02 -1.7881394E-09
vertex -1.4500000E-01 -1.5000001E-02 -1.7881394E-09
vertex -1.4448889E-01 1.5000000E-02 -3.8822687E-03
endloop
endfacet
facet normal 9.9144495E-01 0.0000000E+00 1.3052613E-01
outer loop
vertex -1.4448889E-01 1.5000000E-02 -3.8822687E-03
vertex -1.4500000E-01 -1.5000001E-02 -1.7881394E-09
vertex -1.4448889E-01 -1.5000001E-02 -3.8822687E-03
endloop
endfacet
facet normal 9.2387670E-01 0.0000000E+00 3.8269013E-01
outer loop
vertex -1.4448889E-01 1.5000000E-02 -3.8822687E-03
vertex -1.4448889E-01 -1.5000001E-02 -3.8822687E-03
vertex -1.4299035E-01 1.5000000E-02 -7.4999784E-03
endloop
endfacet
facet normal 9.2387670E-01 0.0000000E+00 3.8269013E-01
outer loop
vertex -1.4299035E-01 1.5000000E-02 -7.4999784E-03
vertex -1.4448889E-01 -1.5000001E-02 -3.8822687E-03
vertex -1.4299035E-01 -1.5000001E-02 -7.4999784E-03
endloop
endfacet
facet normal 7.9335338E-01 0.0000000E+00 6.0876155E-01
outer loop
vertex -1.4299035E-01 1.5000000E-02 -7.4999784E-03
vertex -1.4299035E-01 -1.5000001E-02 -7.4999784E-03
vertex -1.4060657E-01 1.5000000E-02 -1.0606585E-02
endloop
endfacet
facet normal 7.9335338E-01 0.0000000E+00 6.0876155E-01
outer loop
vertex -1.4060657E-01 1.5000000E-02 -1.0606585E-02
vertex -1.4299035E-01 -1.5000001E-02 -7.4999784E-03
vertex -1.4060657E-01 -1.5000001E-02 -1.0606585E-02
endloop
endfacet
facet normal 6.0876864E-01 0.0000000E+00 7.9334784E-01
outer loop
vertex -1.4060657E-01 1.5000000E-02 -1.0606585E-02
vertex -1.4060657E-01 -1.5000001E-02 -1.0606585E-02
vertex -1.3750000E-01 1.5000000E-02 -1.2990381E-02
endloop
endfacet
facet normal 6.0876864E-01 0.0000000E+00 7.9334784E-01
outer loop
vertex -1.3750000E-01 1.5000000E-02 -1.2990381E-02
vertex -1.4060657E-01 -1.5000001E-02 -1.0606585E-02
vertex -1.3750000E-01 -1.5000001E-02 -1.2990381E-02
endloop
endfacet
facet normal 3.8268954E-01 0.0000000E+00 9.2387700E-01
outer loop
vertex -1.3750000E-01 1.5000000E-02 -1.2990381E-02
vertex -1.3750000E-01 -1.5000001E-02 -1.2990381E-02
vertex -1.3388233E-01 1.5000000E-02 -1.4488898E-02
endloop
endfacet
facet normal 3.8268954E-01 0.0000000E+00 9.2387700E-01
outer loop
vertex -1.3388233E-01 1.5000000E-02 -1.4488898E-02
vertex -1.3750000E-01 -1.5000001E-02 -1.2990381E-02
vertex -1.3388233E-01 -1.5000001E-02 -1.4488898E-02
endloop
endfacet
facet normal 1.3052201E-01 0.0000000E+00 9.9144530E-01
outer loop
vertex -1.3388233E-01 1.5000000E-02 -1.4488898E-02
vertex -1.3388233E-01 -1.5000001E-02 -1.4488898E-02
vertex -1.3000000E-01 1.5000000E-02 -1.5000001E-02
endloop
endfacet
facet normal 1.3052201E-01 0.0000000E+00 9.9144530E-01
outer loop
vertex -1.3000000E-01 1.5000000E-02 -1.5000001E-02
vertex -1.3388233E-01 -1.5000001E-02 -1.4488898E-02
vertex -1.3000000E-01 -1.5000001E-02 -1.5000001E-02
endloop
endfacet
facet normal -1.3052253E-01 0.0000000E+00 9.9144536E-01
outer loop
vertex -1.3000000E-01 1.5000000E-02 -1.5000001E-02
vertex -1.3000000E-01 -1.5000001E-02 -1.5000001E-02
vertex -1.2611768E-01 1.5000000E-02 -1.4488898E-02
endloop
endfacet
facet normal -1.3052253E-01 0.0000000E+00 9.9144536E-01
outer loop
vertex -1.2611768E-01 1.5000000E-02 -1.4488898E-02
vertex -1.3000000E-01 -1.5000001E-02 -1.5000001E-02
vertex -1.2611768E-01 -1.5000001E-02 -1.4488898E-02
endloop
endfacet
facet normal -3.8268954E-01 0.0000000E+00 9.2387700E-01
outer loop
vertex -1.2611768E-01 1.5000000E-02 -1.4488898E-02
vertex -1.2611768E-01 -1.5000001E-02 -1.4488898E-02
vertex -1.2250000E-01 1.5000000E-02 -1.2990381E-02
endloop
endfacet
facet normal -3.8268954E-01 0.0000000E+00 9.2387700E-01
outer loop
vertex -1.2250000E-01 1.5000000E-02 -1.2990381E-02
vertex -1.2611768E-01 -1.5000001E-02 -1.4488898E-02
vertex -1.2250000E-01 -1.5000001E-02 -1.2990381E-02
endloop
endfacet
facet normal -6.0876763E-01 0.0000000E+00 7.9334843E-01
outer loop
vertex -1.2250000E-01 1.5000000E-02 -1.2990381E-02
vertex -1.2250000E-01 -1.5000001E-02 -1.2990381E-02
vertex -1.1939343E-01 1.5000000E-02 -1.0606585E-02
endloop
endfacet
facet normal -6.0876763E-01 0.0000000E+00 7.9334843E-01
outer loop
vertex -1.1939343E-01 1.5000000E-02 -1.0606585E-02
vertex -1.2250000E-01 -1.5000001E-02 -1.2990381E-02
vertex -1.1939343E-01 -1.5000001E-02 -1.0606585E-02
endloop
endfacet
facet normal -7.9335338E-01 0.0000000E+00 6.0876155E-01
outer loop
vertex -1.1939343E-01 1.5000000E-02 -1.0606585E-02
vertex -1.1939343E-01 -1.5000001E-02 -1.0606585E-02
vertex -1.1700965E-01 1.5000000E-02 -7.4999784E-03
endloop
endfacet
facet normal -7.9335338E-01 0.0000000E+00 6.0876155E-01
outer loop
vertex -1.1700965E-01 1.5000000E-02 -7.4999784E-03
vertex -1.1939343E-01 -1.5000001E-02 -1.0606585E-02
vertex -1.1700965E-01 -1.5000001E-02 -7.4999784E-03
endloop
endfacet
facet normal -9.2387670E-01 0.0000000E+00 3.8269013E-01
outer loop
vertex -1.1700965E-01 1.5000000E-02 -7.4999784E-03
vertex -1.1700965E-01 -1.5000001E-02 -7.4999784E-03
vertex -1.1551111E-01 1.5000000E-02 -3.8822687E-03
endloop
endfacet
facet normal -9.2387670E-01 0.0000000E+00 3.8269013E-01
outer loop
vertex -1.1551111E-01 1.5000000E-02 -3.8822687E-03
vertex -1.1700965E-01 -1.5000001E-02 -7.4999784E-03
vertex -1.1551111E-01 -1.5000001E-02 -3.8822687E-03
endloop
endfacet
facet normal -9.9144495E-01 0.0000000E+00 1.3052613E-01
outer loop
vertex -1.1551111E-01 1.5000000E-02 -3.8822687E-03
vertex -1.1551111E-01 -1.5000001E-02 -3.8822687E-03
vertex -1.1500000E-01 1.5000000E-02 -1.7881394E-09
endloop
endfacet
facet normal -9.9144495E-01 0.0000000E+00 1.3052613E-01
outer loop
vertex -1.1500000E-01 1.5000000E-02 -1.7881394E-09
vertex -1.1551111E-01 -1.5000001E-02 -3.8822687E-03
vertex -1.1500000E-01 -1.5000001E-02 -1.7881394E-09
endloop
endfacet
facet normal -9.9144489E-01 -0.0000000E+00 -1.3052611E-01
outer loop
vertex -1.1500000E-01 1.5000000E-02 -1.7881394E-09
vertex -1.1500000E-01 -1.5000001E-02 -1.7881394E-09
vertex -1.1551111E-01 1.5000000E-02 3.8822652E-03
endloop
endfacet
facet normal -9.9144489E-01 -0.0000000E+00 -1.3052611E-01
outer loop
vertex -1.1551111E-01 1.5000000E-02 3.8822652E-03
vertex -1.1500000E-01 -1.5000001E-02 -1.7881394E-09
vertex -1.1551111E-01 -1.5000001E-02 3.8822652E-03
endloop
endfacet
facet normal -9.2387843E-01 -0.0000000E+00 -3.8268605E-01
outer loop
vertex -1.1551111E-01 1.5000000E-02 3.8822652E-03
vertex -1.1551111E-01 -1.5000001E-02 3.8822652E-03
vertex -1.1700965E-01 1.5000000E-02 7.5000203E-03
endloop
endfacet
facet normal -9.2387843E-01 -0.0000000E+00 -3.8268605E-01
outer loop
vertex -1.1700965E-01 1.5000000E-02 7.5000203E-03
vertex -1.1551111E-01 -1.5000001E-02 3.8822652E-03
vertex -1.1700965E-01 -1.5000001E-02 7.5000203E-03
endloop
endfacet
facet normal -7.9334897E-01 -0.0000000E+00 -6.0876715E-01
outer loop
vertex -1.1700965E-01 1.5000000E-02 7.5000203E-03
vertex -1.1700965E-01 -1.5000001E-02 7.5000203E-03
vertex -1.1939343E-01 1.5000000E-02 1.0606581E-02
endloop
endfacet
facet normal -7.9334897E-01 -0.0000000E+00 -6.0876715E-01
outer loop
vertex -1.1939343E-01 1.5000000E-02 1.0606581E-02
vertex -1.1700965E-01 -1.5000001E-02 7.5000203E-03
vertex -1.1939343E-01 -1.5000001E-02 1.0606581E-02
endloop
endfacet
facet normal -6.0876763E-01 -0.0000000E+00 -7.9334843E-01
outer loop
vertex -1.1939343E-01 1.5000000E-02 1.0606581E-02
vertex -1.1939343E-01 -1.5000001E-02 1.0606581E-02
vertex -1.2250000E-01 1.5000000E-02 1.2990377E-02
endloop
endfacet
facet normal -6.0876763E-01 -0.0000000E+00 -7.9334843E-01
outer loop
vertex -1.2250000E-01 1.5000000E-02 1.2990377E-02
vertex -1.1939343E-01 -1.5000001E-02 1.0606581E-02
vertex -1.2250000E-01 -1.5000001E-02 1.2990377E-02
endloop
endfacet
facet normal -3.8268954E-01 -0.0000000E+00 -9.2387700E-01
outer loop
vertex -1.2250000E-01 1.5000000E-02 1.2990377E-02
vertex -1.2250000E-01 -1.5000001E-02 1.2990377E-02
vertex -1.2611768E-01 1.5000000E-02 1.4488894E-02
endloop
endfacet
facet normal -3.8268954E-01 -0.0000000E+00 -9.2387700E-01
outer loop
vertex -1.2611768E-01 1.5000000E-02 1.4488894E-02
vertex -1.2250000E-01 -1.5000001E-02 1.2990377E-02
vertex -1.2611768E-01 -1.5000001E-02 1.4488894E-02
endloop
endfacet
facet normal -1.1196640E-01 0.0000000E+00 9.9371201E-01
outer loop
vertex -5.9999999E-02 1.5000000E-02 2.9999996E-02
vertex -5.9999999E-02 -1.5000001E-02 2.9999996E-02
vertex -5.3324342E-02 1.5000000E-02 3.0752175E-02
endloop
endfacet
facet normal -1.1196640E-01 0.0000000E+00 9.9371201E-01
outer loop
vertex -5.3324342E-02 1.5000000E-02 3.0752175E-02
vertex -5.9999999E-02 -1.5000001E-02 2.9999996E-02
vertex -5.3324342E-02 -1.5000001E-02 3.0752175E-02
endloop
endfacet
facet normal -3.3028260E-01 0.0000000E+00 9.4388211E-01
outer loop
vertex -5.3324342E-02 1.5000000E-02 3.0752175E-02
vertex -5.3324342E-02 -1.5000001E-02 3.0752175E-02
vertex -4.6983521E-02 1.5000000E-02 3.2970950E-02
endloop
endfacet
facet normal -3.3028260E-01 0.0000000E+00 9.4388211E-01
outer loop
vertex -4.6983521E-02 1.5000000E-02 3.2970950E-02
vertex -5.3324342E-02 -1.5000001E-02 3.0752175E-02
vertex -4.6983521E-02 -1.5000001E-02 3.2970950E-02
endloop
endfacet
facet normal -5.3202856E-01 0.0000000E+00 8.4672648E-01
outer loop
vertex -4.6983521E-02 1.5000000E-02 3.2970950E-02
vertex -4.6983521E-02 -1.5000001E-02 3.2970950E-02
vertex -4.1295286E-02 1.5000000E-02 3.6545072E-02
endloop
endfacet
facet normal -5.3202856E-01 0.0000000E+00 8.4672648E-01
outer loop
vertex -4.1295286E-02 1.5000000E-02 3.6545072E-02
vertex -4.6983521E-02 -1.5000001E-02 3.2970950E-02
vertex -4.1295286E-02 -1.5000001E-02 3.6545072E-02
endloop
endfacet
facet normal -7.0710456E-01 0.0000000E+00 7.0710903E-01
outer loop
vertex -4.1295286E-02 1.5000000E-02 3.6545072E-02
vertex -4.1295286E-02 -1.5000001E-02 3.6545072E-02
vertex -3.6545046E-02 1.5000000E-02 4.1295283E-02
endloop
endfacet
facet normal -7.0710456E-01 0.0000000E+00 7.0710903E-01
outer loop
vertex -3.6545046E-02 1.5000000E-02 4.1295283E-02
vertex -4.1295286E-02 -1.5000001E-02 3.6545072E-02
vertex -3.6545046E-02 -1.5000001E-02 4.1295283E-02
endloop
endfacet
facet normal -8.4672683E-01 0.0000000E+00 5.3202790E-01
outer loop
vertex -3.6545046E-02 1.5000000E-02 4.1295283E-02
vertex -3.6545046E-02 -1.5000001E-02 4.1295283E-02
vertex -3.2970946E-02 1.5000000E-02 4.6983492E-02
endloop
endfacet
facet normal -8.4672683E-01 0.0000000E+00 5.3202790E-01
outer loop
vertex -3.2970946E-02 1.5000000E-02 4.6983492E-02
vertex -3.6545046E-02 -1.5000001E-02 4.1295283E-02
vertex -3.2970946E-02 -1.5000001E-02 4.6983492E-02
endloop
endfacet
facet normal -9.4388437E-01 0.0000000E+00 3.3027619E-01
outer loop
vertex -3.2970946E-02 1.5000000E-02 4.6983492E-02
vertex -3.2970946E-02 -1.5000001E-02 4.6983492E-02
vertex -3.0752197E-02 1.5000000E-02 5.3324375E-02
endloop
endfacet
facet normal -9.4388437E-01 0.0000000E+00 3.3027619E-01
outer loop
vertex -3.0752197E-02 1.5000000E-02 5.3324375E-02
vertex -3.2970946E-02 -1.5000001E-02 4.6983492E-02
vertex -3.0752197E-02 -1.5000001E-02 5.3324375E-02
endloop
endfacet
facet normal -9.9371165E-01 0.0000000E+00 1.1196975E-01
outer loop
vertex -3.0752197E-02 1.5000000E-02 5.3324375E-02
vertex -3.0752197E-02 -1.5000001E-02 5.3324375E-02
vertex -2.9999999E-02 1.5000000E-02 5.9999995E-02
endloop
endfacet
facet normal -9.9371165E-01 0.0000000E+00 1.1196975E-01
outer loop
vertex -2.9999999E-02 1.5000000E-02 5.9999995E-02
vertex -3.0752197E-02 -1.5000001E-02 5.3324375E-02
vertex -2.9999999E-02 -1.5000001E-02 5.9999995E-02
endloop
endfacet
facet normal 0.0000000E+00 0.0000000E+00 1.0000000E+00
outer loop
vertex -1.3000000E-01 -1.5000001E-02 2.9999996E-02
vertex -5.9999999E-02 -1.5000001E-02 2.9999996E-02
vertex -1.3000000E-01 1.5000000E-02 2.9999996E-02
endloop
endfacet
facet normal -0.0000000E+00 0.0000000E+00 1.0000000E+00
outer loop
vertex -1.3000000E-01 1.5000000E-02 2.9999996E-02
vertex -5.9999999E-02 -1.5000001E-02 2.9999996E-02
vertex -5.9999999E-02 1.5000000E-02 2.9999996E-02
endloop
endfacet
facet normal -1.2053548E-01 -0.0000000E+00 -9.9270904E-01
outer loop
vertex -1.3000000E-01 1.5000000E-02 -2.9999999E-02
vertex -1.3000000E-01 -1.5000001E-02 -2.9999999E-02
vertex -1.3717945E-01 1.5000000E-02 -2.9128265E-02
endloop
endfacet
facet normal -1.2053548E-01 -0.0000000E+00 -9.9270904E-01
outer loop
vertex -1.3717945E-01 1.5000000E-02 -2.9128265E-02
vertex -1.3000000E-01 -1.5000001E-02 -2.9999999E-02
vertex -1.3717945E-01 -1.5000001E-02 -2.9128265E-02
endloop
endfacet
facet normal -3.5460755E-01 -0.0000000E+00 -9.3501526E-01
outer loop
vertex -1.3717945E-01 1.5000000E-02 -2.9128265E-02
vertex -1.3717945E-01 -1.5000001E-02 -2.9128265E-02
vertex -1.4394166E-01 1.5000000E-02 -2.6563676E-02
endloop
endfacet
facet normal -3.5460755E-01 -0.0000000E+00 -9.3501526E-01
outer loop
vertex -1.4394166E-01 1.5000000E-02 -2.6563676E-02
vertex -1.3717945E-01 -1.5000001E-02 -2.9128265E-02
vertex -1.4394166E-01 -1.5000001E-02 -2.6563676E-02
endloop
endfacet
facet normal -5.6806087E-01 -0.0000000E+00 -8.2298660E-01
outer loop
vertex -1.4394166E-01 1.5000000E-02 -2.6563676E-02
vertex -1.4394166E-01 -1.5000001E-02 -2.6563676E-02
vertex -1.4989367E-01 1.5000000E-02 -2.2455338E-02
endloop
endfacet
facet normal -5.6806087E-01 -0.0000000E+00 -8.2298660E-01
outer loop
vertex -1.4989367E-01 1.5000000E-02 -2.2455338E-02
vertex -1.4394166E-01 -1.5000001E-02 -2.6563676E-02
vertex -1.4989367E-01 -1.5000001E-02 -2.2455338E-02
endloop
endfacet
facet normal -7.4850631E-01 -0.0000000E+00 -6.6312766E-01
outer loop
vertex -1.4989367E-01 1.5000000E-02 -2.2455338E-02
vertex -1.4989367E-01 -1.5000001E-02 -2.2455338E-02
vertex -1.5468958E-01 1.5000000E-02 -1.7041950E-02
endloop
endfacet
facet normal -7.4850631E-01 -0.0000000E+00 -6.6312766E-01
outer loop
vertex -1.5468958E-01 1.5000000E-02 -1.7041950E-02
vertex -1.4989367E-01 -1.5000001E-02 -2.2455338E-02
vertex -1.5468958E-01 -1.5000001E-02 -1.7041950E-02
endloop
endfacet
facet normal -8.8545722E-01 -0.0000000E+00 -4.6472079E-01
outer loop
vertex -1.5468958E-01 1.5000000E-02 -1.7041950E-02
vertex -1.5468958E-01 -1.5000001E-02 -1.7041950E-02
vertex -1.5805054E-01 1.5000000E-02 -1.0638139E-02
endloop
endfacet
facet normal -8.8545722E-01 -0.0000000E+00 -4.6472079E-01
outer loop
vertex -1.5805054E-01 1.5000000E-02 -1.0638139E-02
vertex -1.5468958E-01 -1.5000001E-02 -1.7041950E-02
vertex -1.5805054E-01 -1.5000001E-02 -1.0638139E-02
endloop
endfacet
facet normal -9.7094381E-01 -0.0000000E+00 -2.3930745E-01
outer loop
vertex -1.5805054E-01 1.5000000E-02 -1.0638139E-02
vertex -1.5805054E-01 -1.5000001E-02 -1.0638139E-02
vertex -1.5978125E-01 1.5000000E-02 -3.6161158E-03
endloop
endfacet
facet normal -9.7094381E-01 -0.0000000E+00 -2.3930745E-01
outer loop
vertex -1.5978125E-01 1.5000000E-02 -3.6161158E-03
vertex -1.5805054E-01 -1.5000001E-02 -1.0638139E-02
vertex -1.5978125E-01 -1.5000001E-02 -3.6161158E-03
endloop
endfacet
facet normal -1.0000000E+00 0.0000000E+00 0.0000000E+00
outer loop
vertex -1.5978125E-01 1.5000000E-02 -3.6161158E-03
vertex -1.5978125E-01 -1.5000001E-02 -3.6161158E-03
vertex -1.5978125E-01 1.5000000E-02 3.6161123E-03
endloop
endfacet
facet normal -1.0000000E+00 -0.0000000E+00 0.0000000E+00
outer loop
vertex -1.5978125E-01 1.5000000E-02 3.6161123E-03
vertex -1.5978125E-01 -1.5000001E-02 -3.6161158E-03
vertex -1.5978125E-01 -1.5000001E-02 3.6161123E-03
endloop
endfacet
facet normal -9.7094387E-01 0.0000000E+00 2.3930749E-01
outer loop
vertex -1.5978125E-01 1.5000000E-02 3.6161123E-03
vertex -1.5978125E-01 -1.5000001E-02 3.6161123E-03
vertex -1.5805054E-01 1.5000000E-02 1.0638135E-02
endloop
endfacet
facet normal -9.7094387E-01 0.0000000E+00 2.3930749E-01
outer loop
vertex -1.5805054E-01 1.5000000E-02 1.0638135E-02
vertex -1.5978125E-01 -1.5000001E-02 3.6161123E-03
vertex -1.5805054E-01 -1.5000001E-02 1.0638135E-02
endloop
endfacet
facet normal -8.8545728E-01 0.0000000E+00 4.6472073E-01
outer loop
vertex -1.5805054E-01 1.5000000E-02 1.0638135E-02
vertex -1.5805054E-01 -1.5000001E-02 1.0638135E-02
vertex -1.5468958E-01 1.5000000E-02 1.7041946E-02
endloop
endfacet
facet normal -8.8545728E-01 0.0000000E+00 4.6472073E-01
outer loop
vertex -1.5468958E-01 1.5000000E-02 1.7041946E-02
vertex -1.5805054E-01 -1.5000001E-02 1.0638135E-02
vertex -1.5468958E-01 -1.5000001E-02 1.7041946E-02
endloop
endfacet
facet normal -7.4850619E-01 0.0000000E+00 6.6312784E-01
outer loop
vertex -1.5468958E-01 1.5000000E-02 1.7041946E-02
vertex -1.5468958E-01 -1.5000001E-02 1.7041946E-02
vertex -1.4989367E-01 1.5000000E-02 2.2455333E-02
endloop
endfacet
facet normal -7.4850619E-01 0.0000000E+00 6.6312784E-01
outer loop
vertex -1.4989367E-01 1.5000000E-02 2.2455333E-02
vertex -1.5468958E-01 -1.5000001E-02 1.7041946E-02
vertex -1.4989367E-01 -1.5000001E-02 2.2455333E-02
endloop
endfacet
facet normal -5.6806099E-01 0.0000000E+00 8.2298642E-01
outer loop
vertex -1.4989367E-01 1.5000000E-02 2.2455333E-02
vertex -1.4989367E-01 -1.5000001E-02 2.2455333E-02
vertex -1.4394166E-01 1.5000000E-02 2.6563672E-02
endloop
endfacet
facet normal -5.6806099E-01 0.0000000E+00 8.2298642E-01
outer loop
vertex -1.4394166E-01 1.5000000E-02 2.6563672E-02
vertex -1.4989367E-01 -1.5000001E-02 2.2455333E-02
vertex -1.4394166E-01 -1.5000001E-02 2.6563672E-02
endloop
endfacet
facet normal -3.5460755E-01 0.0000000E+00 9.3501526E-01
outer loop
vertex -1.4394166E-01 1.5000000E-02 2.6563672E-02
vertex -1.4394166E-01 -1.5000001E-02 2.6563672E-02
vertex -1.3717945E-01 1.5000000E-02 2.9128261E-02
endloop
endfacet
facet normal -3.5460755E-01 0.0000000E+00 9.3501526E-01
outer loop
vertex -1.3717945E-01 1.5000000E-02 2.9128261E-02
vertex -1.4394166E-01 -1.5000001E-02 2.6563672E-02
vertex -1.3717945E-01 -1.5000001E-02 2.9128261E-02
endloop
endfacet
facet normal -1.2053548E-01 0.0000000E+00 9.9270904E-01
outer loop
vertex -1.3717945E-01 1.5000000E-02 2.9128261E-02
vertex -1.3717945E-01 -1.5000001E-02 2.9128261E-02
vertex -1.3000000E-01 1.5000000E-02 2.9999996E-02
endloop
endfacet
facet normal -1.2053548E-01 0.0000000E+00 9.9270904E-01
outer loop
vertex -1.3000000E-01 1.5000000E-02 2.9999996E-02
vertex -1.3717945E-01 -1.5000001E-02 2.9128261E-02
vertex -1.3000000E-01 -1.5000001E-02 2.9999996E-02
endloop
endfacet
facet normal 0.0000000E+00 0.0000000E+00 -1.0000000E+00
outer loop
vertex -2.2204460E-16 -1.5000001E-02 -2.9999999E-02
vertex -1.3000000E-01 -1.5000001E-02 -2.9999999E-02
vertex -2.2204460E-16 1.5000000E-02 -2.9999999E-02
endloop
endfacet
facet normal -0.0000000E+00 0.0000000E+00 -1.0000000E+00
outer loop
vertex -2.2204460E-16 1.5000000E-02 -2.9999999E-02
vertex -1.3000000E-01 -1.5000001E-02 -2.9999999E-02
vertex -1.3000000E-01 1.5000000E-02 -2.9999999E-02
endloop
endfacet
facet normal 9.9371171E-01 0.0000000E+00 -1.1196951E-01
outer loop
vertex 2.9999999E-02 1.5000000E-02 -1.7881394E-09
vertex 2.9999999E-02 -1.5000001E-02 -1.7881394E-09
vertex 2.9247804E-02 1.5000000E-02 -6.6756206E-03
endloop
endfacet
facet normal 9.9371171E-01 0.0000000E+00 -1.1196951E-01
outer loop
vertex 2.9247804E-02 1.5000000E-02 -6.6756206E-03
vertex 2.9999999E-02 -1.5000001E-02 -1.7881394E-09
vertex 2.9247804E-02 -1.5000001E-02 -6.6756206E-03
endloop
endfacet
facet normal 9.4388425E-01 0.0000000E+00 -3.3027628E-01
outer loop
vertex 2.9247804E-02 1.5000000E-02 -6.6756206E-03
vertex 2.9247804E-02 -1.5000001E-02 -6.6756206E-03
vertex 2.7029052E-02 1.5000000E-02 -1.3016507E-02
endloop
endfacet
facet normal 9.4388425E-01 0.0000000E+00 -3.3027628E-01
outer loop
vertex 2.7029052E-02 1.5000000E-02 -1.3016507E-02
vertex 2.9247804E-02 -1.5000001E-02 -6.6756206E-03
vertex 2.7029052E-02 -1.5000001E-02 -1.3016507E-02
endloop
endfacet
facet normal 8.4672689E-01 0.0000000E+00 -5.3202790E-01
outer loop
vertex 2.7029052E-02 1.5000000E-02 -1.3016507E-02
vertex 2.7029052E-02 -1.5000001E-02 -1.3016507E-02
vertex 2.3454957E-02 1.5000000E-02 -1.8704711E-02
endloop
endfacet
facet normal 8.4672689E-01 0.0000000E+00 -5.3202790E-01
outer loop
vertex 2.3454957E-02 1.5000000E-02 -1.8704711E-02
vertex 2.7029052E-02 -1.5000001E-02 -1.3016507E-02
vertex 2.3454957E-02 -1.5000001E-02 -1.8704711E-02
endloop
endfacet
facet normal 7.0710462E-01 0.0000000E+00 -7.0710886E-01
outer loop
vertex 2.3454957E-02 1.5000000E-02 -1.8704711E-02
vertex 2.3454957E-02 -1.5000001E-02 -1.8704711E-02
vertex 1.8704712E-02 1.5000000E-02 -2.3454927E-02
endloop
endfacet
facet normal 7.0710462E-01 0.0000000E+00 -7.0710886E-01
outer loop
vertex 1.8704712E-02 1.5000000E-02 -2.3454927E-02
vertex 2.3454957E-02 -1.5000001E-02 -1.8704711E-02
vertex 1.8704712E-02 -1.5000001E-02 -2.3454927E-02
endloop
endfacet
facet normal 5.3202826E-01 0.0000000E+00 -8.4672660E-01
outer loop
vertex 1.8704712E-02 1.5000000E-02 -2.3454927E-02
vertex 1.8704712E-02 -1.5000001E-02 -2.3454927E-02
vertex 1.3016479E-02 1.5000000E-02 -2.7029045E-02
endloop
endfacet
facet normal 5.3202826E-01 0.0000000E+00 -8.4672660E-01
outer loop
vertex 1.3016479E-02 1.5000000E-02 -2.7029045E-02
vertex 1.8704712E-02 -1.5000001E-02 -2.3454927E-02
vertex 1.3016479E-02 -1.5000001E-02 -2.7029045E-02
endloop
endfacet
facet normal 3.3028284E-01 0.0000000E+00 -9.4388205E-01
outer loop
vertex 1.3016479E-02 1.5000000E-02 -2.7029045E-02
vertex 1.3016479E-02 -1.5000001E-02 -2.7029045E-02
vertex 6.6756592E-03 1.5000000E-02 -2.9247822E-02
endloop
endfacet
facet normal 3.3028284E-01 0.0000000E+00 -9.4388205E-01
outer loop
vertex 6.6756592E-03 1.5000000E-02 -2.9247822E-02
vertex 1.3016479E-02 -1.5000001E-02 -2.7029045E-02
vertex 6.6756592E-03 -1.5000001E-02 -2.9247822E-02
endloop
endfacet
facet normal 1.1196609E-01 0.0000000E+00 -9.9371207E-01
outer loop
vertex 6.6756592E-03 1.5000000E-02 -2.9247822E-02
vertex 6.6756592E-03 -1.5000001E-02 -2.9247822E-02
vertex -2.2204460E-16 1.5000000E-02 -2.9999999E-02
endloop
endfacet
facet normal 1.1196609E-01 0.0000000E+00 -9.9371207E-01
outer loop
vertex -2.2204460E-16 1.5000000E-02 -2.9999999E-02
vertex 6.6756592E-03 -1.5000001E-02 -2.9247822E-02
vertex -2.2204460E-16 -1.5000001E-02 -2.9999999E-02
endloop
endfacet
facet normal 1.0000000E+00 0.0000000E+00 0.0000000E+00
outer loop
vertex 2.9999999E-02 4.5000002E-02 1.5000000E+00
vertex 2.9999999E-02 -1.5000001E-02 1.5000000E+00
vertex 2.9999999E-02 1.5000000E-02 1.4800000E+00
endloop
endfacet
facet normal 1.0000000E+00 0.0000000E+00 0.0000000E+00
outer loop
vertex 2.9999999E-02 1.5000000E-02 1.4800000E+00
vertex 2.9999999E-02 -1.5000001E-02 1.5000000E+00
vertex 2.9999999E-02 -1.5000001E-02 -1.7881394E-09
endloop
endfacet
facet normal 1.0000000E+00 0.0000000E+00 0.0000000E+00
outer loop
vertex 2.9999999E-02 1.5000000E-02 1.4800000E+00
vertex 2.9999999E-02 -1.5000001E-02 -1.7881394E-09
vertex 2.9999999E-02 1.5000000E-02 -1.7881394E-09
endloop
endfacet
facet normal 1.0000000E+00 0.0000000E+00 0.0000000E+00
outer loop
vertex 2.9999999E-02 1.5000000E-02 1.4800000E+00
vertex 2.9999999E-02 4.5000002E-02 1.4800000E+00
vertex 2.9999999E-02 4.5000002E-02 1.5000000E+00
endloop
endfacet
facet normal 0.0000000E+00 0.0000000E+00 1.0000000E+00
outer loop
vertex -2.9999999E-02 -1.5000001E-02 1.5000000E+00
vertex 2.9999999E-02 -1.5000001E-02 1.5000000E+00
vertex -2.9999999E-02 4.5000002E-02 1.5000000E+00
endloop
endfacet
facet normal -0.0000000E+00 0.0000000E+00 1.0000000E+00
outer loop
vertex -2.9999999E-02 4.5000002E-02 1.5000000E+00
vertex 2.9999999E-02 -1.5000001E-02 1.5000000E+00
vertex 2.9999999E-02 4.5000002E-02 1.5000000E+00
endloop
endfacet
facet normal -9.9999994E-01 0.0000000E+00 0.0000000E+00
outer loop
vertex -2.9999999E-02 1.5000000E-02 5.9999995E-02
vertex -2.9999999E-02 -1.5000001E-02 5.9999995E-02
vertex -2.9999999E-02 1.5000000E-02 1.4800000E+00
endloop
endfacet
facet normal -1.0000000E+00 -0.0000000E+00 0.0000000E+00
outer loop
vertex -2.9999999E-02 1.5000000E-02 1.4800000E+00
vertex -2.9999999E-02 -1.5000001E-02 5.9999995E-02
vertex -2.9999999E-02 -1.5000001E-02 1.5000000E+00
endloop
endfacet
facet normal -1.0000000E+00 0.0000000E+00 0.0000000E+00
outer loop
vertex -2.9999999E-02 1.5000000E-02 1.4800000E+00
vertex -2.9999999E-02 -1.5000001E-02 1.5000000E+00
vertex -2.9999999E-02 4.5000002E-02 1.5000000E+00
endloop
endfacet
facet normal -1.0000000E+00 0.0000000E+00 -0.0000000E+00
outer loop
vertex -2.9999999E-02 4.5000002E-02 1.5000000E+00
vertex -2.9999999E-02 4.5000002E-02 1.4800000E+00
vertex -2.9999999E-02 1.5000000E-02 1.4800000E+00
endloop
endfacet
facet normal 0.0000000E+00 -1.0000000E+00 0.0000000E+00
outer loop
vertex -1.3388233E-01 -1.5000001E-02 1.4488894E-02
vertex -1.3000000E-01 -1.5000001E-02 1.4999997E-02
vertex -1.3000000E-01 -1.5000001E-02 2.9999996E-02
endloop
endfacet
facet normal 0.0000000E+00 -1.0000000E+00 0.0000000E+00
outer loop
vertex -1.3000000E-01 -1.5000001E-02 2.9999996E-02
vertex -1.3000000E-01 -1.5000001E-02 1.4999997E-02
vertex -1.2611768E-01 -1.5000001E-02 1.4488894E-02
endloop
endfacet
facet normal 0.0000000E+00 -1.0000000E+00 0.0000000E+00
outer loop
vertex -1.3000000E-01 -1.5000001E-02 2.9999996E-02
vertex -1.2611768E-01 -1.5000001E-02 1.4488894E-02
vertex -1.2250000E-01 -1.5000001E-02 1.2990377E-02
endloop
endfacet
facet normal 0.0000000E+00 -1.0000000E+00 0.0000000E+00
outer loop
vertex -1.2250000E-01 -1.5000001E-02 1.2990377E-02
vertex -1.1939343E-01 -1.5000001E-02 1.0606581E-02
vertex -1.3000000E-01 -1.5000001E-02 2.9999996E-02
endloop
endfacet
facet normal 0.0000000E+00 -1.0000000E+00 0.0000000E+00
outer loop
vertex -1.3000000E-01 -1.5000001E-02 2.9999996E-02
vertex -1.1939343E-01 -1.5000001E-02 1.0606581E-02
vertex -1.1700965E-01 -1.5000001E-02 7.5000203E-03
endloop
endfacet
facet normal 0.0000000E+00 -1.0000000E+00 0.0000000E+00
outer loop
vertex -1.3000000E-01 -1.5000001E-02 2.9999996E-02
vertex -1.1700965E-01 -1.5000001E-02 7.5000203E-03
vertex -5.9999999E-02 -1.5000001E-02 2.9999996E-02
endloop
endfacet
facet normal 0.0000000E+00 -1.0000000E+00 0.0000000E+00
outer loop
vertex -5.9999999E-02 -1.5000001E-02 2.9999996E-02
vertex -1.1700965E-01 -1.5000001E-02 7.5000203E-03
vertex -1.1551111E-01 -1.5000001E-02 3.8822652E-03
endloop
endfacet
facet normal 0.0000000E+00 -1.0000000E+00 0.0000000E+00
outer loop
vertex -5.9999999E-02 -1.5000001E-02 2.9999996E-02
vertex -1.1551111E-01 -1.5000001E-02 3.8822652E-03
vertex -1.1500000E-01 -1.5000001E-02 -1.7881394E-09
endloop
endfacet
facet normal 0.0000000E+00 -1.0000000E+00 -0.0000000E+00
outer loop
vertex -1.1500000E-01 -1.5000001E-02 -1.7881394E-09
vertex -1.1551111E-01 -1.5000001E-02 -3.8822687E-03
vertex -5.9999999E-02 -1.5000001E-02 2.9999996E-02
endloop
endfacet
facet normal 0.0000000E+00 -1.0000000E+00 0.0000000E+00
outer loop
vertex -5.9999999E-02 -1.5000001E-02 2.9999996E-02
vertex -1.1551111E-01 -1.5000001E-02 -3.8822687E-03
vertex -1.1700965E-01 -1.5000001E-02 -7.4999784E-03
endloop
endfacet
facet normal 0.0000000E+00 -1.0000000E+00 -0.0000000E+00
outer loop
vertex -5.9999999E-02 -1.5000001E-02 2.9999996E-02
vertex -1.1700965E-01 -1.5000001E-02 -7.4999784E-03
vertex -2.2204460E-16 -1.5000001E-02 -2.9999999E-02
endloop
endfacet
facet normal 0.0000000E+00 -1.0000000E+00 0.0000000E+00
outer loop
vertex -2.2204460E-16 -1.5000001E-02 -2.9999999E-02
vertex -1.1700965E-01 -1.5000001E-02 -7.4999784E-03
vertex -1.3000000E-01 -1.5000001E-02 -2.9999999E-02
endloop
endfacet
facet normal 0.0000000E+00 -1.0000000E+00 0.0000000E+00
outer loop
vertex -1.3000000E-01 -1.5000001E-02 -2.9999999E-02
vertex -1.1700965E-01 -1.5000001E-02 -7.4999784E-03
vertex -1.1939343E-01 -1.5000001E-02 -1.0606585E-02
endloop
endfacet
facet normal 0.0000000E+00 -1.0000000E+00 0.0000000E+00
outer loop
vertex -1.3000000E-01 -1.5000001E-02 -2.9999999E-02
vertex -1.1939343E-01 -1.5000001E-02 -1.0606585E-02
vertex -1.2250000E-01 -1.5000001E-02 -1.2990381E-02
endloop
endfacet
facet normal 0.0000000E+00 -1.0000000E+00 0.0000000E+00
outer loop
vertex -1.2250000E-01 -1.5000001E-02 -1.2990381E-02
vertex -1.2611768E-01 -1.5000001E-02 -1.4488898E-02
vertex -1.3000000E-01 -1.5000001E-02 -2.9999999E-02
endloop
endfacet
facet normal 0.0000000E+00 -1.0000000E+00 0.0000000E+00
outer loop
vertex -1.3000000E-01 -1.5000001E-02 -2.9999999E-02
vertex -1.2611768E-01 -1.5000001E-02 -1.4488898E-02
vertex -1.3000000E-01 -1.5000001E-02 -1.5000001E-02
endloop
endfacet
facet normal 0.0000000E+00 -1.0000000E+00 0.0000000E+00
outer loop
vertex -1.3000000E-01 -1.5000001E-02 -2.9999999E-02
vertex -1.3000000E-01 -1.5000001E-02 -1.5000001E-02
vertex -1.3388233E-01 -1.5000001E-02 -1.4488898E-02
endloop
endfacet
facet normal 0.0000000E+00 -1.0000000E+00 0.0000000E+00
outer loop
vertex -1.3000000E-01 -1.5000001E-02 -2.9999999E-02
vertex -1.3388233E-01 -1.5000001E-02 -1.4488898E-02
vertex -1.3717945E-01 -1.5000001E-02 -2.9128265E-02
endloop
endfacet
facet normal 0.0000000E+00 -1.0000000E+00 0.0000000E+00
outer loop
vertex -1.3717945E-01 -1.5000001E-02 -2.9128265E-02
vertex -1.3388233E-01 -1.5000001E-02 -1.4488898E-02
vertex -1.3750000E-01 -1.5000001E-02 -1.2990381E-02
endloop
endfacet
facet normal 0.0000000E+00 -1.0000000E+00 0.0000000E+00
outer loop
vertex -1.3717945E-01 -1.5000001E-02 -2.9128265E-02
vertex -1.3750000E-01 -1.5000001E-02 -1.2990381E-02
vertex -1.4060657E-01 -1.5000001E-02 -1.0606585E-02
endloop
endfacet
facet normal 0.0000000E+00 -1.0000000E+00 0.0000000E+00
outer loop
vertex -1.3717945E-01 -1.5000001E-02 -2.9128265E-02
vertex -1.4060657E-01 -1.5000001E-02 -1.0606585E-02
vertex -1.4394166E-01 -1.5000001E-02 -2.6563676E-02
endloop
endfacet
facet normal 0.0000000E+00 -1.0000000E+00 0.0000000E+00
outer loop
vertex -1.4394166E-01 -1.5000001E-02 -2.6563676E-02
vertex -1.4060657E-01 -1.5000001E-02 -1.0606585E-02
vertex -1.4299035E-01 -1.5000001E-02 -7.4999784E-03
endloop
endfacet
facet normal 0.0000000E+00 -1.0000000E+00 0.0000000E+00
outer loop
vertex -1.4394166E-01 -1.5000001E-02 -2.6563676E-02
vertex -1.4299035E-01 -1.5000001E-02 -7.4999784E-03
vertex -1.4448889E-01 -1.5000001E-02 -3.8822687E-03
endloop
endfacet
facet normal -0.0000000E+00 -1.0000000E+00 -0.0000000E+00
outer loop
vertex -1.4448889E-01 -1.5000001E-02 -3.8822687E-03
vertex -1.4500000E-01 -1.5000001E-02 -1.7881394E-09
vertex -1.4394166E-01 -1.5000001E-02 -2.6563676E-02
endloop
endfacet
facet normal 0.0000000E+00 -1.0000000E+00 0.0000000E+00
outer loop
vertex -1.4394166E-01 -1.5000001E-02 -2.6563676E-02
vertex -1.4500000E-01 -1.5000001E-02 -1.7881394E-09
vertex -1.4989367E-01 -1.5000001E-02 -2.2455338E-02
endloop
endfacet
facet normal 0.0000000E+00 -1.0000000E+00 0.0000000E+00
outer loop
vertex -1.4989367E-01 -1.5000001E-02 -2.2455338E-02
vertex -1.4500000E-01 -1.5000001E-02 -1.7881394E-09
vertex -1.4989367E-01 -1.5000001E-02 2.2455333E-02
endloop
endfacet
facet normal 0.0000000E+00 -1.0000000E+00 0.0000000E+00
outer loop
vertex -1.4989367E-01 -1.5000001E-02 -2.2455338E-02
vertex -1.4989367E-01 -1.5000001E-02 2.2455333E-02
vertex -1.5468958E-01 -1.5000001E-02 -1.7041950E-02
endloop
endfacet
facet normal 0.0000000E+00 -1.0000000E+00 0.0000000E+00
outer loop
vertex -1.5468958E-01 -1.5000001E-02 -1.7041950E-02
vertex -1.4989367E-01 -1.5000001E-02 2.2455333E-02
vertex -1.5468958E-01 -1.5000001E-02 1.7041946E-02
endloop
endfacet
facet normal 0.0000000E+00 -9.9999994E-01 0.0000000E+00
outer loop
vertex -1.5468958E-01 -1.5000001E-02 -1.7041950E-02
vertex -1.5468958E-01 -1.5000001E-02 1.7041946E-02
vertex -1.5805054E-01 -1.5000001E-02 -1.0638139E-02
endloop
endfacet
facet normal 0.0000000E+00 -1.0000000E+00 0.0000000E+00
outer loop
vertex -1.5805054E-01 -1.5000001E-02 -1.0638139E-02
vertex -1.5468958E-01 -1.5000001E-02 1.7041946E-02
vertex -1.5805054E-01 -1.5000001E-02 1.0638135E-02
endloop
endfacet
facet normal 0.0000000E+00 -1.0000000E+00 0.0000000E+00
outer loop
vertex -1.5805054E-01 -1.5000001E-02 -1.0638139E-02
vertex -1.5805054E-01 -1.5000001E-02 1.0638135E-02
vertex -1.5978125E-01 -1.5000001E-02 -3.6161158E-03
endloop
endfacet
facet normal 0.0000000E+00 -1.0000000E+00 0.0000000E+00
outer loop
vertex -1.5978125E-01 -1.5000001E-02 -3.6161158E-03
vertex -1.5805054E-01 -1.5000001E-02 1.0638135E-02
vertex -1.5978125E-01 -1.5000001E-02 3.6161123E-03
endloop
endfacet
facet normal 0.0000000E+00 -1.0000000E+00 0.0000000E+00
outer loop
vertex -1.4989367E-01 -1.5000001E-02 2.2455333E-02
vertex -1.4500000E-01 -1.5000001E-02 -1.7881394E-09
vertex -1.4394166E-01 -1.5000001E-02 2.6563672E-02
endloop
endfacet
facet normal 0.0000000E+00 -1.0000000E+00 0.0000000E+00
outer loop
vertex -1.4394166E-01 -1.5000001E-02 2.6563672E-02
vertex -1.4500000E-01 -1.5000001E-02 -1.7881394E-09
vertex -1.4448889E-01 -1.5000001E-02 3.8822652E-03
endloop
endfacet
facet normal 0.0000000E+00 -1.0000000E+00 -0.0000000E+00
outer loop
vertex -1.4394166E-01 -1.5000001E-02 2.6563672E-02
vertex -1.4448889E-01 -1.5000001E-02 3.8822652E-03
vertex -1.4299035E-01 -1.5000001E-02 7.5000203E-03
endloop
endfacet
facet normal 0.0000000E+00 -1.0000000E+00 0.0000000E+00
outer loop
vertex -1.4299035E-01 -1.5000001E-02 7.5000203E-03
vertex -1.4060657E-01 -1.5000001E-02 1.0606581E-02
vertex -1.4394166E-01 -1.5000001E-02 2.6563672E-02
endloop
endfacet
facet normal 0.0000000E+00 -1.0000000E+00 0.0000000E+00
outer loop
vertex -1.4394166E-01 -1.5000001E-02 2.6563672E-02
vertex -1.4060657E-01 -1.5000001E-02 1.0606581E-02
vertex -1.3717945E-01 -1.5000001E-02 2.9128261E-02
endloop
endfacet
facet normal 0.0000000E+00 -1.0000000E+00 0.0000000E+00
outer loop
vertex -1.3717945E-01 -1.5000001E-02 2.9128261E-02
vertex -1.4060657E-01 -1.5000001E-02 1.0606581E-02
vertex -1.3750000E-01 -1.5000001E-02 1.2990377E-02
endloop
endfacet
facet normal 0.0000000E+00 -1.0000000E+00 -0.0000000E+00
outer loop
vertex -1.3717945E-01 -1.5000001E-02 2.9128261E-02
vertex -1.3750000E-01 -1.5000001E-02 1.2990377E-02
vertex -1.3388233E-01 -1.5000001E-02 1.4488894E-02
endloop
endfacet
facet normal 0.0000000E+00 -1.0000000E+00 0.0000000E+00
outer loop
vertex -1.3717945E-01 -1.5000001E-02 2.9128261E-02
vertex -1.3388233E-01 -1.5000001E-02 1.4488894E-02
vertex -1.3000000E-01 -1.5000001E-02 2.9999996E-02
endloop
endfacet
facet normal 0.0000000E+00 -1.0000000E+00 0.0000000E+00
outer loop
vertex -2.9999999E-02 -1.5000001E-02 1.5000000E+00
vertex -2.9999999E-02 -1.5000001E-02 5.9999995E-02
vertex 2.9999999E-02 -1.5000001E-02 1.5000000E+00
endloop
endfacet
facet normal 0.0000000E+00 -1.0000000E+00 -0.0000000E+00
outer loop
vertex 2.9999999E-02 -1.5000001E-02 1.5000000E+00
vertex -2.9999999E-02 -1.5000001E-02 5.9999995E-02
vertex 2.9999999E-02 -1.5000001E-02 -1.7881394E-09
endloop
endfacet
facet normal -0.0000000E+00 -1.0000000E+00 0.0000000E+00
outer loop
vertex 2.9999999E-02 -1.5000001E-02 -1.7881394E-09
vertex -2.9999999E-02 -1.5000001E-02 5.9999995E-02
vertex 1.3016479E-02 -1.5000001E-02 -2.7029045E-02
endloop
endfacet
facet normal 0.0000000E+00 -1.0000000E+00 0.0000000E+00
outer loop
vertex 2.9999999E-02 -1.5000001E-02 -1.7881394E-09
vertex 1.3016479E-02 -1.5000001E-02 -2.7029045E-02
vertex 1.8704712E-02 -1.5000001E-02 -2.3454927E-02
endloop
endfacet
facet normal 0.0000000E+00 -1.0000000E+00 0.0000000E+00
outer loop
vertex -3.0752197E-02 -1.5000001E-02 5.3324375E-02
vertex -2.2204460E-16 -1.5000001E-02 -2.9999999E-02
vertex -2.9999999E-02 -1.5000001E-02 5.9999995E-02
endloop
endfacet
facet normal 0.0000000E+00 -1.0000000E+00 0.0000000E+00
outer loop
vertex -2.9999999E-02 -1.5000001E-02 5.9999995E-02
vertex -2.2204460E-16 -1.5000001E-02 -2.9999999E-02
vertex 6.6756592E-03 -1.5000001E-02 -2.9247822E-02
endloop
endfacet
facet normal 0.0000000E+00 -1.0000000E+00 0.0000000E+00
outer loop
vertex -2.9999999E-02 -1.5000001E-02 5.9999995E-02
vertex 6.6756592E-03 -1.5000001E-02 -2.9247822E-02
vertex 1.3016479E-02 -1.5000001E-02 -2.7029045E-02
endloop
endfacet
facet normal 0.0000000E+00 -1.0000000E+00 -0.0000000E+00
outer loop
vertex -3.0752197E-02 -1.5000001E-02 5.3324375E-02
vertex -3.2970946E-02 -1.5000001E-02 4.6983492E-02
vertex -2.2204460E-16 -1.5000001E-02 -2.9999999E-02
endloop
endfacet
facet normal 0.0000000E+00 -1.0000000E+00 0.0000000E+00
outer loop
vertex -2.2204460E-16 -1.5000001E-02 -2.9999999E-02
vertex -3.2970946E-02 -1.5000001E-02 4.6983492E-02
vertex -3.6545046E-02 -1.5000001E-02 4.1295283E-02
endloop
endfacet
facet normal 0.0000000E+00 -1.0000000E+00 0.0000000E+00
outer loop
vertex -2.2204460E-16 -1.5000001E-02 -2.9999999E-02
vertex -3.6545046E-02 -1.5000001E-02 4.1295283E-02
vertex -4.1295286E-02 -1.5000001E-02 3.6545072E-02
endloop
endfacet
facet normal 0.0000000E+00 -1.0000000E+00 -0.0000000E+00
outer loop
vertex -4.1295286E-02 -1.5000001E-02 3.6545072E-02
vertex -4.6983521E-02 -1.5000001E-02 3.2970950E-02
vertex -2.2204460E-16 -1.5000001E-02 -2.9999999E-02
endloop
endfacet
facet normal 0.0000000E+00 -1.0000000E+00 0.0000000E+00
outer loop
vertex -2.2204460E-16 -1.5000001E-02 -2.9999999E-02
vertex -4.6983521E-02 -1.5000001E-02 3.2970950E-02
vertex -5.3324342E-02 -1.5000001E-02 3.0752175E-02
endloop
endfacet
facet normal 0.0000000E+00 -9.9999994E-01 0.0000000E+00
outer loop
vertex -2.2204460E-16 -1.5000001E-02 -2.9999999E-02
vertex -5.3324342E-02 -1.5000001E-02 3.0752175E-02
vertex -5.9999999E-02 -1.5000001E-02 2.9999996E-02
endloop
endfacet
facet normal 0.0000000E+00 -1.0000000E+00 0.0000000E+00
outer loop
vertex 1.8704712E-02 -1.5000001E-02 -2.3454927E-02
vertex 2.3454957E-02 -1.5000001E-02 -1.8704711E-02
vertex 2.9999999E-02 -1.5000001E-02 -1.7881394E-09
endloop
endfacet
facet normal 0.0000000E+00 -1.0000000E+00 0.0000000E+00
outer loop
vertex 2.9999999E-02 -1.5000001E-02 -1.7881394E-09
vertex 2.3454957E-02 -1.5000001E-02 -1.8704711E-02
vertex 2.7029052E-02 -1.5000001E-02 -1.3016507E-02
endloop
endfacet
facet normal 0.0000000E+00 -1.0000000E+00 0.0000000E+00
outer loop
vertex 2.9999999E-02 -1.5000001E-02 -1.7881394E-09
vertex 2.7029052E-02 -1.5000001E-02 -1.3016507E-02
vertex 2.9247804E-02 -1.5000001E-02 -6.6756206E-03
endloop
endfacet
endsolid Created by stlwrite.m 10-Sep-2021 19:13:29
