solid Created by stlwrite.m 03-Sep-2021 16:23:09
facet normal 1.0000000E+00 0.0000000E+00 0.0000000E+00
outer loop
vertex -9.0149999E-01 -5.5000001E-01 2.9999999E-02
vertex -9.0149999E-01 -5.8499998E-01 2.9999999E-02
vertex -9.0149999E-01 -5.5000001E-01 -2.9999999E-02
endloop
endfacet
facet normal 1.0000000E+00 0.0000000E+00 0.0000000E+00
outer loop
vertex -9.0149999E-01 -5.5000001E-01 -2.9999999E-02
vertex -9.0149999E-01 -5.8499998E-01 2.9999999E-02
vertex -9.0149999E-01 -5.8499998E-01 -2.9999999E-02
endloop
endfacet
facet normal 7.0710820E-01 -7.0710534E-01 0.0000000E+00
outer loop
vertex -9.1649997E-01 -6.0000002E-01 -2.9999999E-02
vertex -9.0149999E-01 -5.8499998E-01 -2.9999999E-02
vertex -9.1649997E-01 -6.0000002E-01 2.9999999E-02
endloop
endfacet
facet normal 7.0710820E-01 -7.0710534E-01 0.0000000E+00
outer loop
vertex -9.1649997E-01 -6.0000002E-01 2.9999999E-02
vertex -9.0149999E-01 -5.8499998E-01 -2.9999999E-02
vertex -9.0149999E-01 -5.8499998E-01 2.9999999E-02
endloop
endfacet
facet normal -0.0000000E+00 0.0000000E+00 -9.9999994E-01
outer loop
vertex -9.0149999E-01 -5.8499998E-01 -2.9999999E-02
vertex -9.1649997E-01 -6.0000002E-01 -2.9999999E-02
vertex -9.0149999E-01 -5.5000001E-01 -2.9999999E-02
endloop
endfacet
facet normal 0.0000000E+00 0.0000000E+00 -1.0000000E+00
outer loop
vertex -9.0149999E-01 -5.5000001E-01 -2.9999999E-02
vertex -9.1649997E-01 -6.0000002E-01 -2.9999999E-02
vertex -9.3150002E-01 -6.0000002E-01 -2.9999999E-02
endloop
endfacet
facet normal -0.0000000E+00 0.0000000E+00 -1.0000000E+00
outer loop
vertex -9.0149999E-01 -5.5000001E-01 -2.9999999E-02
vertex -9.3150002E-01 -6.0000002E-01 -2.9999999E-02
vertex -9.6149999E-01 -5.5000001E-01 -2.9999999E-02
endloop
endfacet
facet normal 0.0000000E+00 0.0000000E+00 -1.0000000E+00
outer loop
vertex -9.6149999E-01 -5.5000001E-01 -2.9999999E-02
vertex -9.3150002E-01 -6.0000002E-01 -2.9999999E-02
vertex -9.6149999E-01 -7.5000000E-01 -2.9999999E-02
endloop
endfacet
facet normal 0.0000000E+00 0.0000000E+00 -1.0000000E+00
outer loop
vertex -9.6149999E-01 -7.5000000E-01 -2.9999999E-02
vertex -9.3150002E-01 -6.0000002E-01 -2.9999999E-02
vertex -9.3150002E-01 -7.5000000E-01 -2.9999999E-02
endloop
endfacet
facet normal 0.0000000E+00 -1.0000000E+00 0.0000000E+00
outer loop
vertex -9.1649997E-01 -6.0000002E-01 -2.9999999E-02
vertex -9.1649997E-01 -6.0000002E-01 2.9999999E-02
vertex -9.3150002E-01 -6.0000002E-01 -2.9999999E-02
endloop
endfacet
facet normal 0.0000000E+00 -1.0000000E+00 0.0000000E+00
outer loop
vertex -9.3150002E-01 -6.0000002E-01 -2.9999999E-02
vertex -9.1649997E-01 -6.0000002E-01 2.9999999E-02
vertex -9.3150002E-01 -6.0000002E-01 2.9999999E-02
endloop
endfacet
facet normal 0.0000000E+00 1.0000000E+00 0.0000000E+00
outer loop
vertex -9.0149999E-01 -5.5000001E-01 2.9999999E-02
vertex -9.0149999E-01 -5.5000001E-01 -2.9999999E-02
vertex -9.6149999E-01 -5.5000001E-01 2.9999999E-02
endloop
endfacet
facet normal 0.0000000E+00 1.0000000E+00 0.0000000E+00
outer loop
vertex -9.6149999E-01 -5.5000001E-01 2.9999999E-02
vertex -9.0149999E-01 -5.5000001E-01 -2.9999999E-02
vertex -9.6149999E-01 -5.5000001E-01 -2.9999999E-02
endloop
endfacet
facet normal 0.0000000E+00 -0.0000000E+00 9.9999994E-01
outer loop
vertex -9.0149999E-01 -5.8499998E-01 2.9999999E-02
vertex -9.0149999E-01 -5.5000001E-01 2.9999999E-02
vertex -9.1649997E-01 -6.0000002E-01 2.9999999E-02
endloop
endfacet
facet normal 0.0000000E+00 -0.0000000E+00 1.0000000E+00
outer loop
vertex -9.1649997E-01 -6.0000002E-01 2.9999999E-02
vertex -9.0149999E-01 -5.5000001E-01 2.9999999E-02
vertex -9.3150002E-01 -6.0000002E-01 2.9999999E-02
endloop
endfacet
facet normal 0.0000000E+00 -0.0000000E+00 1.0000000E+00
outer loop
vertex -9.3150002E-01 -6.0000002E-01 2.9999999E-02
vertex -9.0149999E-01 -5.5000001E-01 2.9999999E-02
vertex -9.6149999E-01 -5.5000001E-01 2.9999999E-02
endloop
endfacet
facet normal 0.0000000E+00 0.0000000E+00 1.0000000E+00
outer loop
vertex -9.3150002E-01 -6.0000002E-01 2.9999999E-02
vertex -9.6149999E-01 -5.5000001E-01 2.9999999E-02
vertex -9.6149999E-01 -7.5000000E-01 2.9999999E-02
endloop
endfacet
facet normal 0.0000000E+00 0.0000000E+00 1.0000000E+00
outer loop
vertex -9.6149999E-01 -7.5000000E-01 2.9999999E-02
vertex -9.3150002E-01 -7.5000000E-01 2.9999999E-02
vertex -9.3150002E-01 -6.0000002E-01 2.9999999E-02
endloop
endfacet
facet normal -1.0000000E+00 0.0000000E+00 0.0000000E+00
outer loop
vertex -9.6149999E-01 -5.5000001E-01 -2.9999999E-02
vertex -9.6149999E-01 -7.3500001E-01 -6.6528939E-17
vertex -9.6149999E-01 -5.5000001E-01 2.9999999E-02
endloop
endfacet
facet normal -1.0000000E+00 0.0000000E+00 0.0000000E+00
outer loop
vertex -9.6149999E-01 -5.5000001E-01 2.9999999E-02
vertex -9.6149999E-01 -7.3500001E-01 -6.6528939E-17
vertex -9.6149999E-01 -7.3515266E-01 2.1347224E-03
endloop
endfacet
facet normal -1.0000000E+00 0.0000000E+00 0.0000000E+00
outer loop
vertex -9.6149999E-01 -5.5000001E-01 2.9999999E-02
vertex -9.6149999E-01 -7.3515266E-01 2.1347224E-03
vertex -9.6149999E-01 -7.3560762E-01 4.2259884E-03
endloop
endfacet
facet normal -1.0000000E+00 0.0000000E+00 0.0000000E+00
outer loop
vertex -9.6149999E-01 -7.5000000E-01 -2.9999999E-02
vertex -9.6149999E-01 -7.4189037E-01 -1.2618803E-02
vertex -9.6149999E-01 -5.5000001E-01 -2.9999999E-02
endloop
endfacet
facet normal -1.0000000E+00 0.0000000E+00 0.0000000E+00
outer loop
vertex -9.6149999E-01 -5.5000001E-01 -2.9999999E-02
vertex -9.6149999E-01 -7.4189037E-01 -1.2618803E-02
vertex -9.6149999E-01 -7.4017709E-01 -1.1336244E-02
endloop
endfacet
facet normal -9.9999994E-01 0.0000000E+00 0.0000000E+00
outer loop
vertex -9.6149999E-01 -5.5000001E-01 -2.9999999E-02
vertex -9.6149999E-01 -7.4017709E-01 -1.1336244E-02
vertex -9.6149999E-01 -7.3866373E-01 -9.8229116E-03
endloop
endfacet
facet normal -9.9999994E-01 0.0000000E+00 0.0000000E+00
outer loop
vertex -9.6149999E-01 -7.5303507E-01 -2.9846080E-02
vertex -9.6149999E-01 -7.5603896E-01 -2.9385898E-02
vertex -9.6149999E-01 -7.5000000E-01 -2.9999999E-02
endloop
endfacet
facet normal -1.0000000E+00 0.0000000E+00 0.0000000E+00
outer loop
vertex -9.6149999E-01 -7.5000000E-01 -2.9999999E-02
vertex -9.6149999E-01 -7.5603896E-01 -2.9385898E-02
vertex -9.6149999E-01 -7.5898087E-01 -2.8624179E-02
endloop
endfacet
facet normal -1.0000000E+00 0.0000000E+00 0.0000000E+00
outer loop
vertex -9.6149999E-01 -7.5000000E-01 -2.9999999E-02
vertex -9.6149999E-01 -7.5898087E-01 -2.8624179E-02
vertex -9.6149999E-01 -7.6183069E-01 -2.7568735E-02
endloop
endfacet
facet normal -1.0000000E+00 0.0000000E+00 0.0000000E+00
outer loop
vertex -9.6149999E-01 -7.6183069E-01 -2.7568735E-02
vertex -9.6149999E-01 -7.6455903E-01 -2.6230399E-02
vertex -9.6149999E-01 -7.5000000E-01 -2.9999999E-02
endloop
endfacet
facet normal -1.0000000E+00 0.0000000E+00 0.0000000E+00
outer loop
vertex -9.6149999E-01 -7.5000000E-01 -2.9999999E-02
vertex -9.6149999E-01 -7.6455903E-01 -2.6230399E-02
vertex -9.6149999E-01 -7.4786526E-01 -1.4847321E-02
endloop
endfacet
facet normal -1.0000000E+00 0.0000000E+00 0.0000000E+00
outer loop
vertex -9.6149999E-01 -7.5000000E-01 -2.9999999E-02
vertex -9.6149999E-01 -7.4786526E-01 -1.4847321E-02
vertex -9.6149999E-01 -7.4577403E-01 -1.4392396E-02
endloop
endfacet
facet normal -1.0000000E+00 0.0000000E+00 0.0000000E+00
outer loop
vertex -9.6149999E-01 -7.6455903E-01 -2.6230399E-02
vertex -9.6149999E-01 -7.6713806E-01 -2.4622904E-02
vertex -9.6149999E-01 -7.4786526E-01 -1.4847321E-02
endloop
endfacet
facet normal -1.0000000E+00 0.0000000E+00 0.0000000E+00
outer loop
vertex -9.6149999E-01 -7.4786526E-01 -1.4847321E-02
vertex -9.6149999E-01 -7.6713806E-01 -2.4622904E-02
vertex -9.6149999E-01 -7.5000000E-01 -1.5000000E-02
endloop
endfacet
facet normal -1.0000000E+00 0.0000000E+00 0.0000000E+00
outer loop
vertex -9.6149999E-01 -7.5000000E-01 -1.5000000E-02
vertex -9.6149999E-01 -7.6713806E-01 -2.4622904E-02
vertex -9.6149999E-01 -7.6954114E-01 -2.2762744E-02
endloop
endfacet
facet normal -1.0000000E+00 0.0000000E+00 0.0000000E+00
outer loop
vertex -9.6149999E-01 -7.5000000E-01 -1.5000000E-02
vertex -9.6149999E-01 -7.6954114E-01 -2.2762744E-02
vertex -9.6149999E-01 -7.7174377E-01 -2.0669008E-02
endloop
endfacet
facet normal -1.0000000E+00 -0.0000000E+00 0.0000000E+00
outer loop
vertex -9.6149999E-01 -7.5000000E-01 -1.5000000E-02
vertex -9.6149999E-01 -7.7174377E-01 -2.0669008E-02
vertex -9.6149999E-01 -7.5213474E-01 -1.4847321E-02
endloop
endfacet
facet normal -1.0000000E+00 0.0000000E+00 0.0000000E+00
outer loop
vertex -9.6149999E-01 -7.5213474E-01 -1.4847321E-02
vertex -9.6149999E-01 -7.7174377E-01 -2.0669008E-02
vertex -9.6149999E-01 -7.7372324E-01 -1.8363180E-02
endloop
endfacet
facet normal -1.0000000E+00 -0.0000000E+00 0.0000000E+00
outer loop
vertex -9.6149999E-01 -7.5213474E-01 -1.4847321E-02
vertex -9.6149999E-01 -7.7372324E-01 -1.8363180E-02
vertex -9.6149999E-01 -7.5422597E-01 -1.4392396E-02
endloop
endfacet
facet normal -1.0000000E+00 0.0000000E+00 0.0000000E+00
outer loop
vertex -9.6149999E-01 -7.5422597E-01 -1.4392396E-02
vertex -9.6149999E-01 -7.7372324E-01 -1.8363180E-02
vertex -9.6149999E-01 -7.7545935E-01 -1.5868921E-02
endloop
endfacet
facet normal -1.0000000E+00 -0.0000000E+00 0.0000000E+00
outer loop
vertex -9.6149999E-01 -7.5422597E-01 -1.4392396E-02
vertex -9.6149999E-01 -7.7545935E-01 -1.5868921E-02
vertex -9.6149999E-01 -7.5623125E-01 -1.3644480E-02
endloop
endfacet
facet normal -9.9999994E-01 -0.0000000E+00 0.0000000E+00
outer loop
vertex -9.6149999E-01 -7.5623125E-01 -1.3644480E-02
vertex -9.6149999E-01 -7.7545935E-01 -1.5868921E-02
vertex -9.6149999E-01 -7.5810963E-01 -1.2618803E-02
endloop
endfacet
facet normal -9.9999994E-01 0.0000000E+00 0.0000000E+00
outer loop
vertex -9.6149999E-01 -7.5810963E-01 -1.2618803E-02
vertex -9.6149999E-01 -7.7545935E-01 -1.5868921E-02
vertex -9.6149999E-01 -7.7693415E-01 -1.3211824E-02
endloop
endfacet
facet normal -9.9999994E-01 -0.0000000E+00 0.0000000E+00
outer loop
vertex -9.6149999E-01 -7.5810963E-01 -1.2618803E-02
vertex -9.6149999E-01 -7.7693415E-01 -1.3211824E-02
vertex -9.6149999E-01 -7.5982291E-01 -1.1336244E-02
endloop
endfacet
facet normal -9.9999994E-01 -0.0000000E+00 0.0000000E+00
outer loop
vertex -9.6149999E-01 -7.5982291E-01 -1.1336244E-02
vertex -9.6149999E-01 -7.7693415E-01 -1.3211824E-02
vertex -9.6149999E-01 -7.7813256E-01 -1.0419158E-02
endloop
endfacet
facet normal -1.0000000E+00 0.0000000E+00 0.0000000E+00
outer loop
vertex -9.6149999E-01 -7.5982291E-01 -1.1336244E-02
vertex -9.6149999E-01 -7.7813256E-01 -1.0419158E-02
vertex -9.6149999E-01 -7.6133627E-01 -9.8229116E-03
endloop
endfacet
facet normal -1.0000000E+00 -0.0000000E+00 0.0000000E+00
outer loop
vertex -9.6149999E-01 -7.6133627E-01 -9.8229116E-03
vertex -9.6149999E-01 -7.7813256E-01 -1.0419158E-02
vertex -9.6149999E-01 -7.6261878E-01 -8.1096124E-03
endloop
endfacet
facet normal -1.0000000E+00 -0.0000000E+00 0.0000000E+00
outer loop
vertex -9.6149999E-01 -7.6261878E-01 -8.1096124E-03
vertex -9.6149999E-01 -7.7813256E-01 -1.0419158E-02
vertex -9.6149999E-01 -7.7904230E-01 -7.5195758E-03
endloop
endfacet
facet normal -1.0000000E+00 0.0000000E+00 0.0000000E+00
outer loop
vertex -9.6149999E-01 -7.6261878E-01 -8.1096124E-03
vertex -9.6149999E-01 -7.7904230E-01 -7.5195758E-03
vertex -9.6149999E-01 -7.6364446E-01 -6.2312251E-03
endloop
endfacet
facet normal -1.0000000E+00 -0.0000000E+00 0.0000000E+00
outer loop
vertex -9.6149999E-01 -7.6364446E-01 -6.2312251E-03
vertex -9.6149999E-01 -7.7904230E-01 -7.5195758E-03
vertex -9.6149999E-01 -7.7965403E-01 -4.5428332E-03
endloop
endfacet
facet normal -1.0000000E+00 0.0000000E+00 0.0000000E+00
outer loop
vertex -9.6149999E-01 -7.6364446E-01 -6.2312251E-03
vertex -9.6149999E-01 -7.7965403E-01 -4.5428332E-03
vertex -9.6149999E-01 -7.6439238E-01 -4.2259884E-03
endloop
endfacet
facet normal -1.0000000E+00 -0.0000000E+00 0.0000000E+00
outer loop
vertex -9.6149999E-01 -7.6439238E-01 -4.2259884E-03
vertex -9.6149999E-01 -7.7965403E-01 -4.5428332E-03
vertex -9.6149999E-01 -7.6484734E-01 -2.1347224E-03
endloop
endfacet
facet normal -1.0000000E+00 -0.0000000E+00 0.0000000E+00
outer loop
vertex -9.6149999E-01 -7.6484734E-01 -2.1347224E-03
vertex -9.6149999E-01 -7.7965403E-01 -4.5428332E-03
vertex -9.6149999E-01 -7.7996153E-01 -1.5194751E-03
endloop
endfacet
facet normal -1.0000000E+00 0.0000000E+00 0.0000000E+00
outer loop
vertex -9.6149999E-01 -7.6484734E-01 -2.1347224E-03
vertex -9.6149999E-01 -7.7996153E-01 -1.5194751E-03
vertex -9.6149999E-01 -7.6499999E-01 -6.8365909E-17
endloop
endfacet
facet normal -1.0000000E+00 -0.0000000E+00 0.0000000E+00
outer loop
vertex -9.6149999E-01 -7.6499999E-01 -6.8365909E-17
vertex -9.6149999E-01 -7.7996153E-01 -1.5194751E-03
vertex -9.6149999E-01 -7.7996153E-01 1.5194751E-03
endloop
endfacet
facet normal -1.0000000E+00 0.0000000E+00 0.0000000E+00
outer loop
vertex -9.6149999E-01 -7.6499999E-01 -6.8365909E-17
vertex -9.6149999E-01 -7.7996153E-01 1.5194751E-03
vertex -9.6149999E-01 -7.6484734E-01 2.1347224E-03
endloop
endfacet
facet normal -1.0000000E+00 -0.0000000E+00 0.0000000E+00
outer loop
vertex -9.6149999E-01 -7.6484734E-01 2.1347224E-03
vertex -9.6149999E-01 -7.7996153E-01 1.5194751E-03
vertex -9.6149999E-01 -7.7965403E-01 4.5428332E-03
endloop
endfacet
facet normal -1.0000000E+00 0.0000000E+00 0.0000000E+00
outer loop
vertex -9.6149999E-01 -7.6484734E-01 2.1347224E-03
vertex -9.6149999E-01 -7.7965403E-01 4.5428332E-03
vertex -9.6149999E-01 -7.6439238E-01 4.2259884E-03
endloop
endfacet
facet normal -1.0000000E+00 0.0000000E+00 0.0000000E+00
outer loop
vertex -9.6149999E-01 -7.6439238E-01 4.2259884E-03
vertex -9.6149999E-01 -7.7965403E-01 4.5428332E-03
vertex -9.6149999E-01 -7.6364446E-01 6.2312251E-03
endloop
endfacet
facet normal -1.0000000E+00 -0.0000000E+00 0.0000000E+00
outer loop
vertex -9.6149999E-01 -7.6364446E-01 6.2312251E-03
vertex -9.6149999E-01 -7.7965403E-01 4.5428332E-03
vertex -9.6149999E-01 -7.7904230E-01 7.5195758E-03
endloop
endfacet
facet normal -9.9999994E-01 0.0000000E+00 0.0000000E+00
outer loop
vertex -9.6149999E-01 -7.6364446E-01 6.2312251E-03
vertex -9.6149999E-01 -7.7904230E-01 7.5195758E-03
vertex -9.6149999E-01 -7.6261878E-01 8.1096124E-03
endloop
endfacet
facet normal -1.0000000E+00 -0.0000000E+00 0.0000000E+00
outer loop
vertex -9.6149999E-01 -7.6261878E-01 8.1096124E-03
vertex -9.6149999E-01 -7.7904230E-01 7.5195758E-03
vertex -9.6149999E-01 -7.7813256E-01 1.0419158E-02
endloop
endfacet
facet normal -1.0000000E+00 0.0000000E+00 0.0000000E+00
outer loop
vertex -9.6149999E-01 -7.6261878E-01 8.1096124E-03
vertex -9.6149999E-01 -7.7813256E-01 1.0419158E-02
vertex -9.6149999E-01 -7.6133627E-01 9.8229116E-03
endloop
endfacet
facet normal -1.0000000E+00 0.0000000E+00 0.0000000E+00
outer loop
vertex -9.6149999E-01 -7.6133627E-01 9.8229116E-03
vertex -9.6149999E-01 -7.7813256E-01 1.0419158E-02
vertex -9.6149999E-01 -7.5982291E-01 1.1336244E-02
endloop
endfacet
facet normal -9.9999994E-01 -0.0000000E+00 0.0000000E+00
outer loop
vertex -9.6149999E-01 -7.5982291E-01 1.1336244E-02
vertex -9.6149999E-01 -7.7813256E-01 1.0419158E-02
vertex -9.6149999E-01 -7.7693415E-01 1.3211824E-02
endloop
endfacet
facet normal -9.9999994E-01 0.0000000E+00 0.0000000E+00
outer loop
vertex -9.6149999E-01 -7.5982291E-01 1.1336244E-02
vertex -9.6149999E-01 -7.7693415E-01 1.3211824E-02
vertex -9.6149999E-01 -7.5810963E-01 1.2618803E-02
endloop
endfacet
facet normal -9.9999994E-01 0.0000000E+00 0.0000000E+00
outer loop
vertex -9.6149999E-01 -7.5810963E-01 1.2618803E-02
vertex -9.6149999E-01 -7.7693415E-01 1.3211824E-02
vertex -9.6149999E-01 -7.7545935E-01 1.5868921E-02
endloop
endfacet
facet normal -9.9999994E-01 0.0000000E+00 0.0000000E+00
outer loop
vertex -9.6149999E-01 -7.5810963E-01 1.2618803E-02
vertex -9.6149999E-01 -7.7545935E-01 1.5868921E-02
vertex -9.6149999E-01 -7.5623125E-01 1.3644480E-02
endloop
endfacet
facet normal -1.0000000E+00 0.0000000E+00 0.0000000E+00
outer loop
vertex -9.6149999E-01 -7.5623125E-01 1.3644480E-02
vertex -9.6149999E-01 -7.7545935E-01 1.5868921E-02
vertex -9.6149999E-01 -7.5422597E-01 1.4392396E-02
endloop
endfacet
facet normal -1.0000000E+00 0.0000000E+00 0.0000000E+00
outer loop
vertex -9.6149999E-01 -7.5422597E-01 1.4392396E-02
vertex -9.6149999E-01 -7.7545935E-01 1.5868921E-02
vertex -9.6149999E-01 -7.7372324E-01 1.8363180E-02
endloop
endfacet
facet normal -1.0000000E+00 0.0000000E+00 0.0000000E+00
outer loop
vertex -9.6149999E-01 -7.5422597E-01 1.4392396E-02
vertex -9.6149999E-01 -7.7372324E-01 1.8363180E-02
vertex -9.6149999E-01 -7.5213474E-01 1.4847321E-02
endloop
endfacet
facet normal -1.0000000E+00 0.0000000E+00 0.0000000E+00
outer loop
vertex -9.6149999E-01 -7.5213474E-01 1.4847321E-02
vertex -9.6149999E-01 -7.7372324E-01 1.8363180E-02
vertex -9.6149999E-01 -7.7174377E-01 2.0669008E-02
endloop
endfacet
facet normal -1.0000000E+00 0.0000000E+00 0.0000000E+00
outer loop
vertex -9.6149999E-01 -7.5213474E-01 1.4847321E-02
vertex -9.6149999E-01 -7.7174377E-01 2.0669008E-02
vertex -9.6149999E-01 -7.5000000E-01 1.5000000E-02
endloop
endfacet
facet normal -1.0000000E+00 0.0000000E+00 0.0000000E+00
outer loop
vertex -9.6149999E-01 -7.5000000E-01 1.5000000E-02
vertex -9.6149999E-01 -7.7174377E-01 2.0669008E-02
vertex -9.6149999E-01 -7.6954114E-01 2.2762744E-02
endloop
endfacet
facet normal -1.0000000E+00 0.0000000E+00 0.0000000E+00
outer loop
vertex -9.6149999E-01 -7.5000000E-01 1.5000000E-02
vertex -9.6149999E-01 -7.6954114E-01 2.2762744E-02
vertex -9.6149999E-01 -7.6713806E-01 2.4622904E-02
endloop
endfacet
facet normal -1.0000000E+00 0.0000000E+00 0.0000000E+00
outer loop
vertex -9.6149999E-01 -7.5000000E-01 1.5000000E-02
vertex -9.6149999E-01 -7.6713806E-01 2.4622904E-02
vertex -9.6149999E-01 -7.4786526E-01 1.4847321E-02
endloop
endfacet
facet normal -1.0000000E+00 0.0000000E+00 0.0000000E+00
outer loop
vertex -9.6149999E-01 -7.4786526E-01 1.4847321E-02
vertex -9.6149999E-01 -7.6713806E-01 2.4622904E-02
vertex -9.6149999E-01 -7.6455903E-01 2.6230399E-02
endloop
endfacet
facet normal -1.0000000E+00 0.0000000E+00 0.0000000E+00
outer loop
vertex -9.6149999E-01 -7.4786526E-01 1.4847321E-02
vertex -9.6149999E-01 -7.6455903E-01 2.6230399E-02
vertex -9.6149999E-01 -7.5000000E-01 2.9999999E-02
endloop
endfacet
facet normal -1.0000000E+00 0.0000000E+00 0.0000000E+00
outer loop
vertex -9.6149999E-01 -7.5000000E-01 2.9999999E-02
vertex -9.6149999E-01 -7.6455903E-01 2.6230399E-02
vertex -9.6149999E-01 -7.6183069E-01 2.7568735E-02
endloop
endfacet
facet normal -1.0000000E+00 0.0000000E+00 0.0000000E+00
outer loop
vertex -9.6149999E-01 -7.5000000E-01 2.9999999E-02
vertex -9.6149999E-01 -7.6183069E-01 2.7568735E-02
vertex -9.6149999E-01 -7.5898087E-01 2.8624179E-02
endloop
endfacet
facet normal -9.9999994E-01 0.0000000E+00 0.0000000E+00
outer loop
vertex -9.6149999E-01 -7.5898087E-01 2.8624179E-02
vertex -9.6149999E-01 -7.5603896E-01 2.9385898E-02
vertex -9.6149999E-01 -7.5000000E-01 2.9999999E-02
endloop
endfacet
facet normal -9.9999994E-01 0.0000000E+00 0.0000000E+00
outer loop
vertex -9.6149999E-01 -7.5000000E-01 2.9999999E-02
vertex -9.6149999E-01 -7.5603896E-01 2.9385898E-02
vertex -9.6149999E-01 -7.5303507E-01 2.9846080E-02
endloop
endfacet
facet normal -1.0000000E+00 -0.0000000E+00 0.0000000E+00
outer loop
vertex -9.6149999E-01 -5.5000001E-01 2.9999999E-02
vertex -9.6149999E-01 -7.4189037E-01 1.2618803E-02
vertex -9.6149999E-01 -7.5000000E-01 2.9999999E-02
endloop
endfacet
facet normal -1.0000000E+00 0.0000000E+00 0.0000000E+00
outer loop
vertex -9.6149999E-01 -7.5000000E-01 2.9999999E-02
vertex -9.6149999E-01 -7.4189037E-01 1.2618803E-02
vertex -9.6149999E-01 -7.4376875E-01 1.3644480E-02
endloop
endfacet
facet normal -1.0000000E+00 0.0000000E+00 0.0000000E+00
outer loop
vertex -9.6149999E-01 -7.5000000E-01 2.9999999E-02
vertex -9.6149999E-01 -7.4376875E-01 1.3644480E-02
vertex -9.6149999E-01 -7.4577403E-01 1.4392396E-02
endloop
endfacet
facet normal -1.0000000E+00 0.0000000E+00 -0.0000000E+00
outer loop
vertex -9.6149999E-01 -7.4577403E-01 -1.4392396E-02
vertex -9.6149999E-01 -7.4376875E-01 -1.3644480E-02
vertex -9.6149999E-01 -7.5000000E-01 -2.9999999E-02
endloop
endfacet
facet normal -1.0000000E+00 0.0000000E+00 0.0000000E+00
outer loop
vertex -9.6149999E-01 -7.5000000E-01 -2.9999999E-02
vertex -9.6149999E-01 -7.4376875E-01 -1.3644480E-02
vertex -9.6149999E-01 -7.4189037E-01 -1.2618803E-02
endloop
endfacet
facet normal -1.0000000E+00 0.0000000E+00 0.0000000E+00
outer loop
vertex -9.6149999E-01 -7.3866373E-01 -9.8229116E-03
vertex -9.6149999E-01 -7.3738122E-01 -8.1096124E-03
vertex -9.6149999E-01 -5.5000001E-01 -2.9999999E-02
endloop
endfacet
facet normal -1.0000000E+00 0.0000000E+00 0.0000000E+00
outer loop
vertex -9.6149999E-01 -5.5000001E-01 -2.9999999E-02
vertex -9.6149999E-01 -7.3738122E-01 -8.1096124E-03
vertex -9.6149999E-01 -7.3635554E-01 -6.2312251E-03
endloop
endfacet
facet normal -1.0000000E+00 0.0000000E+00 0.0000000E+00
outer loop
vertex -9.6149999E-01 -5.5000001E-01 -2.9999999E-02
vertex -9.6149999E-01 -7.3635554E-01 -6.2312251E-03
vertex -9.6149999E-01 -7.3560762E-01 -4.2259884E-03
endloop
endfacet
facet normal -9.9999994E-01 0.0000000E+00 0.0000000E+00
outer loop
vertex -9.6149999E-01 -7.3560762E-01 -4.2259884E-03
vertex -9.6149999E-01 -7.3515266E-01 -2.1347224E-03
vertex -9.6149999E-01 -5.5000001E-01 -2.9999999E-02
endloop
endfacet
facet normal -1.0000000E+00 0.0000000E+00 0.0000000E+00
outer loop
vertex -9.6149999E-01 -5.5000001E-01 -2.9999999E-02
vertex -9.6149999E-01 -7.3515266E-01 -2.1347224E-03
vertex -9.6149999E-01 -7.3500001E-01 -6.6528939E-17
endloop
endfacet
facet normal -1.0000000E+00 0.0000000E+00 0.0000000E+00
outer loop
vertex -9.6149999E-01 -7.3560762E-01 4.2259884E-03
vertex -9.6149999E-01 -7.3635554E-01 6.2312251E-03
vertex -9.6149999E-01 -5.5000001E-01 2.9999999E-02
endloop
endfacet
facet normal -1.0000000E+00 0.0000000E+00 0.0000000E+00
outer loop
vertex -9.6149999E-01 -5.5000001E-01 2.9999999E-02
vertex -9.6149999E-01 -7.3635554E-01 6.2312251E-03
vertex -9.6149999E-01 -7.3738122E-01 8.1096124E-03
endloop
endfacet
facet normal -1.0000000E+00 0.0000000E+00 0.0000000E+00
outer loop
vertex -9.6149999E-01 -5.5000001E-01 2.9999999E-02
vertex -9.6149999E-01 -7.3738122E-01 8.1096124E-03
vertex -9.6149999E-01 -7.3866373E-01 9.8229116E-03
endloop
endfacet
facet normal -1.0000000E+00 0.0000000E+00 0.0000000E+00
outer loop
vertex -9.6149999E-01 -7.3866373E-01 9.8229116E-03
vertex -9.6149999E-01 -7.4017709E-01 1.1336244E-02
vertex -9.6149999E-01 -5.5000001E-01 2.9999999E-02
endloop
endfacet
facet normal -1.0000000E+00 0.0000000E+00 0.0000000E+00
outer loop
vertex -9.6149999E-01 -5.5000001E-01 2.9999999E-02
vertex -9.6149999E-01 -7.4017709E-01 1.1336244E-02
vertex -9.6149999E-01 -7.4189037E-01 1.2618803E-02
endloop
endfacet
facet normal -1.0000000E+00 0.0000000E+00 0.0000000E+00
outer loop
vertex -9.6149999E-01 -7.4577403E-01 1.4392396E-02
vertex -9.6149999E-01 -7.4786526E-01 1.4847321E-02
vertex -9.6149999E-01 -7.5000000E-01 2.9999999E-02
endloop
endfacet
facet normal 0.0000000E+00 -5.0648656E-02 -9.9871659E-01
outer loop
vertex -9.6149999E-01 -7.5000000E-01 -2.9999999E-02
vertex -9.3150002E-01 -7.5000000E-01 -2.9999999E-02
vertex -9.6149999E-01 -7.5303507E-01 -2.9846080E-02
endloop
endfacet
facet normal 0.0000000E+00 -5.0648656E-02 -9.9871659E-01
outer loop
vertex -9.6149999E-01 -7.5303507E-01 -2.9846080E-02
vertex -9.3150002E-01 -7.5000000E-01 -2.9999999E-02
vertex -9.3150002E-01 -7.5303507E-01 -2.9846080E-02
endloop
endfacet
facet normal 0.0000000E+00 -1.5142828E-01 -9.8846829E-01
outer loop
vertex -9.6149999E-01 -7.5303507E-01 -2.9846080E-02
vertex -9.3150002E-01 -7.5303507E-01 -2.9846080E-02
vertex -9.6149999E-01 -7.5603896E-01 -2.9385898E-02
endloop
endfacet
facet normal 0.0000000E+00 -1.5142828E-01 -9.8846829E-01
outer loop
vertex -9.6149999E-01 -7.5603896E-01 -2.9385898E-02
vertex -9.3150002E-01 -7.5303507E-01 -2.9846080E-02
vertex -9.3150002E-01 -7.5603896E-01 -2.9385898E-02
endloop
endfacet
facet normal 0.0000000E+00 -2.5065470E-01 -9.6807659E-01
outer loop
vertex -9.6149999E-01 -7.5603896E-01 -2.9385898E-02
vertex -9.3150002E-01 -7.5603896E-01 -2.9385898E-02
vertex -9.6149999E-01 -7.5898087E-01 -2.8624179E-02
endloop
endfacet
facet normal 0.0000000E+00 -2.5065470E-01 -9.6807659E-01
outer loop
vertex -9.6149999E-01 -7.5898087E-01 -2.8624179E-02
vertex -9.3150002E-01 -7.5603896E-01 -2.9385898E-02
vertex -9.3150002E-01 -7.5898087E-01 -2.8624179E-02
endloop
endfacet
facet normal 0.0000000E+00 -3.4730154E-01 -9.3775350E-01
outer loop
vertex -9.6149999E-01 -7.5898087E-01 -2.8624179E-02
vertex -9.3150002E-01 -7.5898087E-01 -2.8624179E-02
vertex -9.6149999E-01 -7.6183069E-01 -2.7568735E-02
endloop
endfacet
facet normal 0.0000000E+00 -3.4730154E-01 -9.3775350E-01
outer loop
vertex -9.6149999E-01 -7.6183069E-01 -2.7568735E-02
vertex -9.3150002E-01 -7.5898087E-01 -2.8624179E-02
vertex -9.3150002E-01 -7.6183069E-01 -2.7568735E-02
endloop
endfacet
facet normal 0.0000000E+00 -4.4039956E-01 -8.9780182E-01
outer loop
vertex -9.6149999E-01 -7.6183069E-01 -2.7568735E-02
vertex -9.3150002E-01 -7.6183069E-01 -2.7568735E-02
vertex -9.6149999E-01 -7.6455903E-01 -2.6230399E-02
endloop
endfacet
facet normal 0.0000000E+00 -4.4039956E-01 -8.9780182E-01
outer loop
vertex -9.6149999E-01 -7.6455903E-01 -2.6230399E-02
vertex -9.3150002E-01 -7.6183069E-01 -2.7568735E-02
vertex -9.3150002E-01 -7.6455903E-01 -2.6230399E-02
endloop
endfacet
facet normal 0.0000000E+00 -5.2895707E-01 -8.4864861E-01
outer loop
vertex -9.6149999E-01 -7.6455903E-01 -2.6230399E-02
vertex -9.3150002E-01 -7.6455903E-01 -2.6230399E-02
vertex -9.6149999E-01 -7.6713806E-01 -2.4622904E-02
endloop
endfacet
facet normal 0.0000000E+00 -5.2895707E-01 -8.4864861E-01
outer loop
vertex -9.6149999E-01 -7.6713806E-01 -2.4622904E-02
vertex -9.3150002E-01 -7.6455903E-01 -2.6230399E-02
vertex -9.3150002E-01 -7.6713806E-01 -2.4622904E-02
endloop
endfacet
facet normal 0.0000000E+00 -6.1211377E-01 -7.9076976E-01
outer loop
vertex -9.6149999E-01 -7.6713806E-01 -2.4622904E-02
vertex -9.3150002E-01 -7.6713806E-01 -2.4622904E-02
vertex -9.6149999E-01 -7.6954114E-01 -2.2762744E-02
endloop
endfacet
facet normal 0.0000000E+00 -6.1211377E-01 -7.9076976E-01
outer loop
vertex -9.6149999E-01 -7.6954114E-01 -2.2762744E-02
vertex -9.3150002E-01 -7.6713806E-01 -2.4622904E-02
vertex -9.3150002E-01 -7.6954114E-01 -2.2762744E-02
endloop
endfacet
facet normal 0.0000000E+00 -6.8896347E-01 -7.2479600E-01
outer loop
vertex -9.6149999E-01 -7.6954114E-01 -2.2762744E-02
vertex -9.3150002E-01 -7.6954114E-01 -2.2762744E-02
vertex -9.6149999E-01 -7.7174377E-01 -2.0669008E-02
endloop
endfacet
facet normal 0.0000000E+00 -6.8896347E-01 -7.2479600E-01
outer loop
vertex -9.6149999E-01 -7.7174377E-01 -2.0669008E-02
vertex -9.3150002E-01 -7.6954114E-01 -2.2762744E-02
vertex -9.3150002E-01 -7.7174377E-01 -2.0669008E-02
endloop
endfacet
facet normal 0.0000000E+00 -7.5876111E-01 -6.5136904E-01
outer loop
vertex -9.6149999E-01 -7.7174377E-01 -2.0669008E-02
vertex -9.3150002E-01 -7.7174377E-01 -2.0669008E-02
vertex -9.6149999E-01 -7.7372324E-01 -1.8363180E-02
endloop
endfacet
facet normal 0.0000000E+00 -7.5876111E-01 -6.5136904E-01
outer loop
vertex -9.6149999E-01 -7.7372324E-01 -1.8363180E-02
vertex -9.3150002E-01 -7.7174377E-01 -2.0669008E-02
vertex -9.3150002E-01 -7.7372324E-01 -1.8363180E-02
endloop
endfacet
facet normal 0.0000000E+00 -8.2075590E-01 -5.7127911E-01
outer loop
vertex -9.6149999E-01 -7.7372324E-01 -1.8363180E-02
vertex -9.3150002E-01 -7.7372324E-01 -1.8363180E-02
vertex -9.6149999E-01 -7.7545935E-01 -1.5868921E-02
endloop
endfacet
facet normal 0.0000000E+00 -8.2075590E-01 -5.7127911E-01
outer loop
vertex -9.6149999E-01 -7.7545935E-01 -1.5868921E-02
vertex -9.3150002E-01 -7.7372324E-01 -1.8363180E-02
vertex -9.3150002E-01 -7.7545935E-01 -1.5868921E-02
endloop
endfacet
facet normal 0.0000000E+00 -8.7434822E-01 -4.8529914E-01
outer loop
vertex -9.6149999E-01 -7.7545935E-01 -1.5868921E-02
vertex -9.3150002E-01 -7.7545935E-01 -1.5868921E-02
vertex -9.6149999E-01 -7.7693415E-01 -1.3211824E-02
endloop
endfacet
facet normal 0.0000000E+00 -8.7434822E-01 -4.8529914E-01
outer loop
vertex -9.6149999E-01 -7.7693415E-01 -1.3211824E-02
vertex -9.3150002E-01 -7.7545935E-01 -1.5868921E-02
vertex -9.3150002E-01 -7.7693415E-01 -1.3211824E-02
endloop
endfacet
facet normal 0.0000000E+00 -9.1895974E-01 -3.9435133E-01
outer loop
vertex -9.6149999E-01 -7.7693415E-01 -1.3211824E-02
vertex -9.3150002E-01 -7.7693415E-01 -1.3211824E-02
vertex -9.6149999E-01 -7.7813256E-01 -1.0419158E-02
endloop
endfacet
facet normal 0.0000000E+00 -9.1895974E-01 -3.9435133E-01
outer loop
vertex -9.6149999E-01 -7.7813256E-01 -1.0419158E-02
vertex -9.3150002E-01 -7.7693415E-01 -1.3211824E-02
vertex -9.3150002E-01 -7.7813256E-01 -1.0419158E-02
endloop
endfacet
facet normal 0.0000000E+00 -9.5413965E-01 -2.9936185E-01
outer loop
vertex -9.6149999E-01 -7.7813256E-01 -1.0419158E-02
vertex -9.3150002E-01 -7.7813256E-01 -1.0419158E-02
vertex -9.6149999E-01 -7.7904230E-01 -7.5195758E-03
endloop
endfacet
facet normal 0.0000000E+00 -9.5413965E-01 -2.9936185E-01
outer loop
vertex -9.6149999E-01 -7.7904230E-01 -7.5195758E-03
vertex -9.3150002E-01 -7.7813256E-01 -1.0419158E-02
vertex -9.3150002E-01 -7.7904230E-01 -7.5195758E-03
endloop
endfacet
facet normal 0.0000000E+00 -9.7953081E-01 -2.0129420E-01
outer loop
vertex -9.6149999E-01 -7.7904230E-01 -7.5195758E-03
vertex -9.3150002E-01 -7.7904230E-01 -7.5195758E-03
vertex -9.6149999E-01 -7.7965403E-01 -4.5428332E-03
endloop
endfacet
facet normal 0.0000000E+00 -9.7953081E-01 -2.0129420E-01
outer loop
vertex -9.6149999E-01 -7.7965403E-01 -4.5428332E-03
vertex -9.3150002E-01 -7.7904230E-01 -7.5195758E-03
vertex -9.3150002E-01 -7.7965403E-01 -4.5428332E-03
endloop
endfacet
facet normal 0.0000000E+00 -9.9486750E-01 -1.0118620E-01
outer loop
vertex -9.6149999E-01 -7.7965403E-01 -4.5428332E-03
vertex -9.3150002E-01 -7.7965403E-01 -4.5428332E-03
vertex -9.6149999E-01 -7.7996153E-01 -1.5194751E-03
endloop
endfacet
facet normal 0.0000000E+00 -9.9486750E-01 -1.0118620E-01
outer loop
vertex -9.6149999E-01 -7.7996153E-01 -1.5194751E-03
vertex -9.3150002E-01 -7.7965403E-01 -4.5428332E-03
vertex -9.3150002E-01 -7.7996153E-01 -1.5194751E-03
endloop
endfacet
facet normal 0.0000000E+00 -1.0000000E+00 0.0000000E+00
outer loop
vertex -9.6149999E-01 -7.7996153E-01 -1.5194751E-03
vertex -9.3150002E-01 -7.7996153E-01 -1.5194751E-03
vertex -9.6149999E-01 -7.7996153E-01 1.5194751E-03
endloop
endfacet
facet normal 0.0000000E+00 -1.0000000E+00 0.0000000E+00
outer loop
vertex -9.6149999E-01 -7.7996153E-01 1.5194751E-03
vertex -9.3150002E-01 -7.7996153E-01 -1.5194751E-03
vertex -9.3150002E-01 -7.7996153E-01 1.5194751E-03
endloop
endfacet
facet normal 0.0000000E+00 -9.9486750E-01 1.0118620E-01
outer loop
vertex -9.6149999E-01 -7.7996153E-01 1.5194751E-03
vertex -9.3150002E-01 -7.7996153E-01 1.5194751E-03
vertex -9.6149999E-01 -7.7965403E-01 4.5428332E-03
endloop
endfacet
facet normal 0.0000000E+00 -9.9486750E-01 1.0118620E-01
outer loop
vertex -9.6149999E-01 -7.7965403E-01 4.5428332E-03
vertex -9.3150002E-01 -7.7996153E-01 1.5194751E-03
vertex -9.3150002E-01 -7.7965403E-01 4.5428332E-03
endloop
endfacet
facet normal 0.0000000E+00 -9.7953081E-01 2.0129420E-01
outer loop
vertex -9.6149999E-01 -7.7965403E-01 4.5428332E-03
vertex -9.3150002E-01 -7.7965403E-01 4.5428332E-03
vertex -9.6149999E-01 -7.7904230E-01 7.5195758E-03
endloop
endfacet
facet normal 0.0000000E+00 -9.7953081E-01 2.0129420E-01
outer loop
vertex -9.6149999E-01 -7.7904230E-01 7.5195758E-03
vertex -9.3150002E-01 -7.7965403E-01 4.5428332E-03
vertex -9.3150002E-01 -7.7904230E-01 7.5195758E-03
endloop
endfacet
facet normal 0.0000000E+00 -9.5413965E-01 2.9936185E-01
outer loop
vertex -9.6149999E-01 -7.7904230E-01 7.5195758E-03
vertex -9.3150002E-01 -7.7904230E-01 7.5195758E-03
vertex -9.6149999E-01 -7.7813256E-01 1.0419158E-02
endloop
endfacet
facet normal 0.0000000E+00 -9.5413965E-01 2.9936185E-01
outer loop
vertex -9.6149999E-01 -7.7813256E-01 1.0419158E-02
vertex -9.3150002E-01 -7.7904230E-01 7.5195758E-03
vertex -9.3150002E-01 -7.7813256E-01 1.0419158E-02
endloop
endfacet
facet normal 0.0000000E+00 -9.1895974E-01 3.9435133E-01
outer loop
vertex -9.6149999E-01 -7.7813256E-01 1.0419158E-02
vertex -9.3150002E-01 -7.7813256E-01 1.0419158E-02
vertex -9.6149999E-01 -7.7693415E-01 1.3211824E-02
endloop
endfacet
facet normal 0.0000000E+00 -9.1895974E-01 3.9435133E-01
outer loop
vertex -9.6149999E-01 -7.7693415E-01 1.3211824E-02
vertex -9.3150002E-01 -7.7813256E-01 1.0419158E-02
vertex -9.3150002E-01 -7.7693415E-01 1.3211824E-02
endloop
endfacet
facet normal 0.0000000E+00 -8.7434822E-01 4.8529914E-01
outer loop
vertex -9.6149999E-01 -7.7693415E-01 1.3211824E-02
vertex -9.3150002E-01 -7.7693415E-01 1.3211824E-02
vertex -9.6149999E-01 -7.7545935E-01 1.5868921E-02
endloop
endfacet
facet normal 0.0000000E+00 -8.7434822E-01 4.8529914E-01
outer loop
vertex -9.6149999E-01 -7.7545935E-01 1.5868921E-02
vertex -9.3150002E-01 -7.7693415E-01 1.3211824E-02
vertex -9.3150002E-01 -7.7545935E-01 1.5868921E-02
endloop
endfacet
facet normal 0.0000000E+00 -8.2075590E-01 5.7127911E-01
outer loop
vertex -9.6149999E-01 -7.7545935E-01 1.5868921E-02
vertex -9.3150002E-01 -7.7545935E-01 1.5868921E-02
vertex -9.6149999E-01 -7.7372324E-01 1.8363180E-02
endloop
endfacet
facet normal 0.0000000E+00 -8.2075590E-01 5.7127911E-01
outer loop
vertex -9.6149999E-01 -7.7372324E-01 1.8363180E-02
vertex -9.3150002E-01 -7.7545935E-01 1.5868921E-02
vertex -9.3150002E-01 -7.7372324E-01 1.8363180E-02
endloop
endfacet
facet normal 0.0000000E+00 -7.5876111E-01 6.5136904E-01
outer loop
vertex -9.6149999E-01 -7.7372324E-01 1.8363180E-02
vertex -9.3150002E-01 -7.7372324E-01 1.8363180E-02
vertex -9.6149999E-01 -7.7174377E-01 2.0669008E-02
endloop
endfacet
facet normal 0.0000000E+00 -7.5876111E-01 6.5136904E-01
outer loop
vertex -9.6149999E-01 -7.7174377E-01 2.0669008E-02
vertex -9.3150002E-01 -7.7372324E-01 1.8363180E-02
vertex -9.3150002E-01 -7.7174377E-01 2.0669008E-02
endloop
endfacet
facet normal 0.0000000E+00 -6.8896347E-01 7.2479600E-01
outer loop
vertex -9.6149999E-01 -7.7174377E-01 2.0669008E-02
vertex -9.3150002E-01 -7.7174377E-01 2.0669008E-02
vertex -9.6149999E-01 -7.6954114E-01 2.2762744E-02
endloop
endfacet
facet normal 0.0000000E+00 -6.8896347E-01 7.2479600E-01
outer loop
vertex -9.6149999E-01 -7.6954114E-01 2.2762744E-02
vertex -9.3150002E-01 -7.7174377E-01 2.0669008E-02
vertex -9.3150002E-01 -7.6954114E-01 2.2762744E-02
endloop
endfacet
facet normal 0.0000000E+00 -6.1211377E-01 7.9076976E-01
outer loop
vertex -9.6149999E-01 -7.6954114E-01 2.2762744E-02
vertex -9.3150002E-01 -7.6954114E-01 2.2762744E-02
vertex -9.6149999E-01 -7.6713806E-01 2.4622904E-02
endloop
endfacet
facet normal 0.0000000E+00 -6.1211377E-01 7.9076976E-01
outer loop
vertex -9.6149999E-01 -7.6713806E-01 2.4622904E-02
vertex -9.3150002E-01 -7.6954114E-01 2.2762744E-02
vertex -9.3150002E-01 -7.6713806E-01 2.4622904E-02
endloop
endfacet
facet normal 0.0000000E+00 -5.2895707E-01 8.4864861E-01
outer loop
vertex -9.6149999E-01 -7.6713806E-01 2.4622904E-02
vertex -9.3150002E-01 -7.6713806E-01 2.4622904E-02
vertex -9.6149999E-01 -7.6455903E-01 2.6230399E-02
endloop
endfacet
facet normal 0.0000000E+00 -5.2895707E-01 8.4864861E-01
outer loop
vertex -9.6149999E-01 -7.6455903E-01 2.6230399E-02
vertex -9.3150002E-01 -7.6713806E-01 2.4622904E-02
vertex -9.3150002E-01 -7.6455903E-01 2.6230399E-02
endloop
endfacet
facet normal 0.0000000E+00 -4.4039956E-01 8.9780182E-01
outer loop
vertex -9.6149999E-01 -7.6455903E-01 2.6230399E-02
vertex -9.3150002E-01 -7.6455903E-01 2.6230399E-02
vertex -9.6149999E-01 -7.6183069E-01 2.7568735E-02
endloop
endfacet
facet normal 0.0000000E+00 -4.4039956E-01 8.9780182E-01
outer loop
vertex -9.6149999E-01 -7.6183069E-01 2.7568735E-02
vertex -9.3150002E-01 -7.6455903E-01 2.6230399E-02
vertex -9.3150002E-01 -7.6183069E-01 2.7568735E-02
endloop
endfacet
facet normal 0.0000000E+00 -3.4730154E-01 9.3775350E-01
outer loop
vertex -9.6149999E-01 -7.6183069E-01 2.7568735E-02
vertex -9.3150002E-01 -7.6183069E-01 2.7568735E-02
vertex -9.6149999E-01 -7.5898087E-01 2.8624179E-02
endloop
endfacet
facet normal 0.0000000E+00 -3.4730154E-01 9.3775350E-01
outer loop
vertex -9.6149999E-01 -7.5898087E-01 2.8624179E-02
vertex -9.3150002E-01 -7.6183069E-01 2.7568735E-02
vertex -9.3150002E-01 -7.5898087E-01 2.8624179E-02
endloop
endfacet
facet normal 0.0000000E+00 -2.5065470E-01 9.6807659E-01
outer loop
vertex -9.6149999E-01 -7.5898087E-01 2.8624179E-02
vertex -9.3150002E-01 -7.5898087E-01 2.8624179E-02
vertex -9.6149999E-01 -7.5603896E-01 2.9385898E-02
endloop
endfacet
facet normal 0.0000000E+00 -2.5065470E-01 9.6807659E-01
outer loop
vertex -9.6149999E-01 -7.5603896E-01 2.9385898E-02
vertex -9.3150002E-01 -7.5898087E-01 2.8624179E-02
vertex -9.3150002E-01 -7.5603896E-01 2.9385898E-02
endloop
endfacet
facet normal 0.0000000E+00 -1.5142828E-01 9.8846829E-01
outer loop
vertex -9.6149999E-01 -7.5603896E-01 2.9385898E-02
vertex -9.3150002E-01 -7.5603896E-01 2.9385898E-02
vertex -9.6149999E-01 -7.5303507E-01 2.9846080E-02
endloop
endfacet
facet normal 0.0000000E+00 -1.5142828E-01 9.8846829E-01
outer loop
vertex -9.6149999E-01 -7.5303507E-01 2.9846080E-02
vertex -9.3150002E-01 -7.5603896E-01 2.9385898E-02
vertex -9.3150002E-01 -7.5303507E-01 2.9846080E-02
endloop
endfacet
facet normal 0.0000000E+00 -5.0648656E-02 9.9871659E-01
outer loop
vertex -9.6149999E-01 -7.5303507E-01 2.9846080E-02
vertex -9.3150002E-01 -7.5303507E-01 2.9846080E-02
vertex -9.6149999E-01 -7.5000000E-01 2.9999999E-02
endloop
endfacet
facet normal 0.0000000E+00 -5.0648656E-02 9.9871659E-01
outer loop
vertex -9.6149999E-01 -7.5000000E-01 2.9999999E-02
vertex -9.3150002E-01 -7.5303507E-01 2.9846080E-02
vertex -9.3150002E-01 -7.5000000E-01 2.9999999E-02
endloop
endfacet
facet normal -0.0000000E+00 -9.9745303E-01 -7.1324825E-02
outer loop
vertex -9.3150002E-01 -7.3515266E-01 2.1347224E-03
vertex -9.6149999E-01 -7.3515266E-01 2.1347224E-03
vertex -9.3150002E-01 -7.3500001E-01 -6.2855000E-17
endloop
endfacet
facet normal 8.7347775E-18 -9.9745303E-01 -7.1324825E-02
outer loop
vertex -9.3150002E-01 -7.3500001E-01 -6.2855000E-17
vertex -9.6149999E-01 -7.3515266E-01 2.1347224E-03
vertex -9.6149999E-01 -7.3500001E-01 -6.6528939E-17
endloop
endfacet
facet normal -8.7347775E-18 -9.9745303E-01 7.1324825E-02
outer loop
vertex -9.3150002E-01 -7.3500001E-01 -6.2855000E-17
vertex -9.6149999E-01 -7.3500001E-01 -6.6528939E-17
vertex -9.3150002E-01 -7.3515266E-01 -2.1347224E-03
endloop
endfacet
facet normal 0.0000000E+00 -9.9745303E-01 7.1324825E-02
outer loop
vertex -9.3150002E-01 -7.3515266E-01 -2.1347224E-03
vertex -9.6149999E-01 -7.3500001E-01 -6.6528939E-17
vertex -9.6149999E-01 -7.3515266E-01 -2.1347224E-03
endloop
endfacet
facet normal 0.0000000E+00 -9.7714341E-01 2.1258098E-01
outer loop
vertex -9.3150002E-01 -7.3515266E-01 -2.1347224E-03
vertex -9.6149999E-01 -7.3515266E-01 -2.1347224E-03
vertex -9.3150002E-01 -7.3560762E-01 -4.2259884E-03
endloop
endfacet
facet normal 0.0000000E+00 -9.7714341E-01 2.1258098E-01
outer loop
vertex -9.3150002E-01 -7.3560762E-01 -4.2259884E-03
vertex -9.6149999E-01 -7.3515266E-01 -2.1347224E-03
vertex -9.6149999E-01 -7.3560762E-01 -4.2259884E-03
endloop
endfacet
facet normal 0.0000000E+00 -9.3694901E-01 3.4946600E-01
outer loop
vertex -9.3150002E-01 -7.3560762E-01 -4.2259884E-03
vertex -9.6149999E-01 -7.3560762E-01 -4.2259884E-03
vertex -9.3150002E-01 -7.3635554E-01 -6.2312251E-03
endloop
endfacet
facet normal 0.0000000E+00 -9.3694901E-01 3.4946600E-01
outer loop
vertex -9.3150002E-01 -7.3635554E-01 -6.2312251E-03
vertex -9.6149999E-01 -7.3560762E-01 -4.2259884E-03
vertex -9.6149999E-01 -7.3635554E-01 -6.2312251E-03
endloop
endfacet
facet normal 0.0000000E+00 -8.7767905E-01 4.7924888E-01
outer loop
vertex -9.3150002E-01 -7.3635554E-01 -6.2312251E-03
vertex -9.6149999E-01 -7.3635554E-01 -6.2312251E-03
vertex -9.3150002E-01 -7.3738122E-01 -8.1096124E-03
endloop
endfacet
facet normal 0.0000000E+00 -8.7767905E-01 4.7924888E-01
outer loop
vertex -9.3150002E-01 -7.3738122E-01 -8.1096124E-03
vertex -9.6149999E-01 -7.3635554E-01 -6.2312251E-03
vertex -9.6149999E-01 -7.3738122E-01 -8.1096124E-03
endloop
endfacet
facet normal 0.0000000E+00 -8.0055165E-01 5.9926373E-01
outer loop
vertex -9.3150002E-01 -7.3738122E-01 -8.1096124E-03
vertex -9.6149999E-01 -7.3738122E-01 -8.1096124E-03
vertex -9.3150002E-01 -7.3866373E-01 -9.8229116E-03
endloop
endfacet
facet normal 0.0000000E+00 -8.0055165E-01 5.9926373E-01
outer loop
vertex -9.3150002E-01 -7.3866373E-01 -9.8229116E-03
vertex -9.6149999E-01 -7.3738122E-01 -8.1096124E-03
vertex -9.6149999E-01 -7.3866373E-01 -9.8229116E-03
endloop
endfacet
facet normal 0.0000000E+00 -7.0709980E-01 7.0711374E-01
outer loop
vertex -9.3150002E-01 -7.3866373E-01 -9.8229116E-03
vertex -9.6149999E-01 -7.3866373E-01 -9.8229116E-03
vertex -9.3150002E-01 -7.4017709E-01 -1.1336244E-02
endloop
endfacet
facet normal 0.0000000E+00 -7.0709980E-01 7.0711374E-01
outer loop
vertex -9.3150002E-01 -7.4017709E-01 -1.1336244E-02
vertex -9.6149999E-01 -7.3866373E-01 -9.8229116E-03
vertex -9.6149999E-01 -7.4017709E-01 -1.1336244E-02
endloop
endfacet
facet normal 0.0000000E+00 -5.9928292E-01 8.0053735E-01
outer loop
vertex -9.3150002E-01 -7.4017709E-01 -1.1336244E-02
vertex -9.6149999E-01 -7.4017709E-01 -1.1336244E-02
vertex -9.3150002E-01 -7.4189037E-01 -1.2618803E-02
endloop
endfacet
facet normal 0.0000000E+00 -5.9928292E-01 8.0053735E-01
outer loop
vertex -9.3150002E-01 -7.4189037E-01 -1.2618803E-02
vertex -9.6149999E-01 -7.4017709E-01 -1.1336244E-02
vertex -9.6149999E-01 -7.4189037E-01 -1.2618803E-02
endloop
endfacet
facet normal 0.0000000E+00 -4.7925013E-01 8.7767839E-01
outer loop
vertex -9.3150002E-01 -7.4189037E-01 -1.2618803E-02
vertex -9.6149999E-01 -7.4189037E-01 -1.2618803E-02
vertex -9.3150002E-01 -7.4376875E-01 -1.3644480E-02
endloop
endfacet
facet normal 0.0000000E+00 -4.7925013E-01 8.7767839E-01
outer loop
vertex -9.3150002E-01 -7.4376875E-01 -1.3644480E-02
vertex -9.6149999E-01 -7.4189037E-01 -1.2618803E-02
vertex -9.6149999E-01 -7.4376875E-01 -1.3644480E-02
endloop
endfacet
facet normal 0.0000000E+00 -3.4945837E-01 9.3695188E-01
outer loop
vertex -9.3150002E-01 -7.4376875E-01 -1.3644480E-02
vertex -9.6149999E-01 -7.4376875E-01 -1.3644480E-02
vertex -9.3150002E-01 -7.4577403E-01 -1.4392396E-02
endloop
endfacet
facet normal 0.0000000E+00 -3.4945837E-01 9.3695188E-01
outer loop
vertex -9.3150002E-01 -7.4577403E-01 -1.4392396E-02
vertex -9.6149999E-01 -7.4376875E-01 -1.3644480E-02
vertex -9.6149999E-01 -7.4577403E-01 -1.4392396E-02
endloop
endfacet
facet normal 0.0000000E+00 -2.1256799E-01 9.7714633E-01
outer loop
vertex -9.3150002E-01 -7.4577403E-01 -1.4392396E-02
vertex -9.6149999E-01 -7.4577403E-01 -1.4392396E-02
vertex -9.3150002E-01 -7.4786526E-01 -1.4847321E-02
endloop
endfacet
facet normal 0.0000000E+00 -2.1256799E-01 9.7714633E-01
outer loop
vertex -9.3150002E-01 -7.4786526E-01 -1.4847321E-02
vertex -9.6149999E-01 -7.4577403E-01 -1.4392396E-02
vertex -9.6149999E-01 -7.4786526E-01 -1.4847321E-02
endloop
endfacet
facet normal 0.0000000E+00 -7.1338527E-02 9.9745214E-01
outer loop
vertex -9.3150002E-01 -7.4786526E-01 -1.4847321E-02
vertex -9.6149999E-01 -7.4786526E-01 -1.4847321E-02
vertex -9.3150002E-01 -7.5000000E-01 -1.5000000E-02
endloop
endfacet
facet normal 0.0000000E+00 -7.1338527E-02 9.9745214E-01
outer loop
vertex -9.3150002E-01 -7.5000000E-01 -1.5000000E-02
vertex -9.6149999E-01 -7.4786526E-01 -1.4847321E-02
vertex -9.6149999E-01 -7.5000000E-01 -1.5000000E-02
endloop
endfacet
facet normal 0.0000000E+00 7.1338527E-02 9.9745214E-01
outer loop
vertex -9.3150002E-01 -7.5000000E-01 -1.5000000E-02
vertex -9.6149999E-01 -7.5000000E-01 -1.5000000E-02
vertex -9.3150002E-01 -7.5213474E-01 -1.4847321E-02
endloop
endfacet
facet normal 0.0000000E+00 7.1338527E-02 9.9745214E-01
outer loop
vertex -9.3150002E-01 -7.5213474E-01 -1.4847321E-02
vertex -9.6149999E-01 -7.5000000E-01 -1.5000000E-02
vertex -9.6149999E-01 -7.5213474E-01 -1.4847321E-02
endloop
endfacet
facet normal 0.0000000E+00 2.1256799E-01 9.7714633E-01
outer loop
vertex -9.3150002E-01 -7.5213474E-01 -1.4847321E-02
vertex -9.6149999E-01 -7.5213474E-01 -1.4847321E-02
vertex -9.3150002E-01 -7.5422597E-01 -1.4392396E-02
endloop
endfacet
facet normal 0.0000000E+00 2.1256799E-01 9.7714633E-01
outer loop
vertex -9.3150002E-01 -7.5422597E-01 -1.4392396E-02
vertex -9.6149999E-01 -7.5213474E-01 -1.4847321E-02
vertex -9.6149999E-01 -7.5422597E-01 -1.4392396E-02
endloop
endfacet
facet normal 0.0000000E+00 3.4945837E-01 9.3695188E-01
outer loop
vertex -9.3150002E-01 -7.5422597E-01 -1.4392396E-02
vertex -9.6149999E-01 -7.5422597E-01 -1.4392396E-02
vertex -9.3150002E-01 -7.5623125E-01 -1.3644480E-02
endloop
endfacet
facet normal 0.0000000E+00 3.4945837E-01 9.3695188E-01
outer loop
vertex -9.3150002E-01 -7.5623125E-01 -1.3644480E-02
vertex -9.6149999E-01 -7.5422597E-01 -1.4392396E-02
vertex -9.6149999E-01 -7.5623125E-01 -1.3644480E-02
endloop
endfacet
facet normal 0.0000000E+00 4.7925013E-01 8.7767839E-01
outer loop
vertex -9.3150002E-01 -7.5623125E-01 -1.3644480E-02
vertex -9.6149999E-01 -7.5623125E-01 -1.3644480E-02
vertex -9.3150002E-01 -7.5810963E-01 -1.2618803E-02
endloop
endfacet
facet normal 0.0000000E+00 4.7925013E-01 8.7767839E-01
outer loop
vertex -9.3150002E-01 -7.5810963E-01 -1.2618803E-02
vertex -9.6149999E-01 -7.5623125E-01 -1.3644480E-02
vertex -9.6149999E-01 -7.5810963E-01 -1.2618803E-02
endloop
endfacet
facet normal 0.0000000E+00 5.9928292E-01 8.0053735E-01
outer loop
vertex -9.3150002E-01 -7.5810963E-01 -1.2618803E-02
vertex -9.6149999E-01 -7.5810963E-01 -1.2618803E-02
vertex -9.3150002E-01 -7.5982291E-01 -1.1336244E-02
endloop
endfacet
facet normal 0.0000000E+00 5.9928292E-01 8.0053735E-01
outer loop
vertex -9.3150002E-01 -7.5982291E-01 -1.1336244E-02
vertex -9.6149999E-01 -7.5810963E-01 -1.2618803E-02
vertex -9.6149999E-01 -7.5982291E-01 -1.1336244E-02
endloop
endfacet
facet normal 0.0000000E+00 7.0709980E-01 7.0711374E-01
outer loop
vertex -9.3150002E-01 -7.5982291E-01 -1.1336244E-02
vertex -9.6149999E-01 -7.5982291E-01 -1.1336244E-02
vertex -9.3150002E-01 -7.6133627E-01 -9.8229116E-03
endloop
endfacet
facet normal 0.0000000E+00 7.0709980E-01 7.0711374E-01
outer loop
vertex -9.3150002E-01 -7.6133627E-01 -9.8229116E-03
vertex -9.6149999E-01 -7.5982291E-01 -1.1336244E-02
vertex -9.6149999E-01 -7.6133627E-01 -9.8229116E-03
endloop
endfacet
facet normal 0.0000000E+00 8.0055165E-01 5.9926373E-01
outer loop
vertex -9.3150002E-01 -7.6133627E-01 -9.8229116E-03
vertex -9.6149999E-01 -7.6133627E-01 -9.8229116E-03
vertex -9.3150002E-01 -7.6261878E-01 -8.1096124E-03
endloop
endfacet
facet normal 0.0000000E+00 8.0055165E-01 5.9926373E-01
outer loop
vertex -9.3150002E-01 -7.6261878E-01 -8.1096124E-03
vertex -9.6149999E-01 -7.6133627E-01 -9.8229116E-03
vertex -9.6149999E-01 -7.6261878E-01 -8.1096124E-03
endloop
endfacet
facet normal 0.0000000E+00 8.7767905E-01 4.7924888E-01
outer loop
vertex -9.3150002E-01 -7.6261878E-01 -8.1096124E-03
vertex -9.6149999E-01 -7.6261878E-01 -8.1096124E-03
vertex -9.3150002E-01 -7.6364446E-01 -6.2312251E-03
endloop
endfacet
facet normal 0.0000000E+00 8.7767905E-01 4.7924888E-01
outer loop
vertex -9.3150002E-01 -7.6364446E-01 -6.2312251E-03
vertex -9.6149999E-01 -7.6261878E-01 -8.1096124E-03
vertex -9.6149999E-01 -7.6364446E-01 -6.2312251E-03
endloop
endfacet
facet normal 0.0000000E+00 9.3694901E-01 3.4946600E-01
outer loop
vertex -9.3150002E-01 -7.6364446E-01 -6.2312251E-03
vertex -9.6149999E-01 -7.6364446E-01 -6.2312251E-03
vertex -9.3150002E-01 -7.6439238E-01 -4.2259884E-03
endloop
endfacet
facet normal 0.0000000E+00 9.3694901E-01 3.4946600E-01
outer loop
vertex -9.3150002E-01 -7.6439238E-01 -4.2259884E-03
vertex -9.6149999E-01 -7.6364446E-01 -6.2312251E-03
vertex -9.6149999E-01 -7.6439238E-01 -4.2259884E-03
endloop
endfacet
facet normal 0.0000000E+00 9.7714341E-01 2.1258098E-01
outer loop
vertex -9.3150002E-01 -7.6439238E-01 -4.2259884E-03
vertex -9.6149999E-01 -7.6439238E-01 -4.2259884E-03
vertex -9.3150002E-01 -7.6484734E-01 -2.1347224E-03
endloop
endfacet
facet normal 0.0000000E+00 9.7714341E-01 2.1258098E-01
outer loop
vertex -9.3150002E-01 -7.6484734E-01 -2.1347224E-03
vertex -9.6149999E-01 -7.6439238E-01 -4.2259884E-03
vertex -9.6149999E-01 -7.6484734E-01 -2.1347224E-03
endloop
endfacet
facet normal 0.0000000E+00 9.9745303E-01 7.1324825E-02
outer loop
vertex -9.3150002E-01 -7.6484734E-01 -2.1347224E-03
vertex -9.6149999E-01 -7.6484734E-01 -2.1347224E-03
vertex -9.3150002E-01 -7.6499999E-01 -6.2855000E-17
endloop
endfacet
facet normal -1.3102166E-17 9.9745303E-01 7.1324825E-02
outer loop
vertex -9.3150002E-01 -7.6499999E-01 -6.2855000E-17
vertex -9.6149999E-01 -7.6484734E-01 -2.1347224E-03
vertex -9.6149999E-01 -7.6499999E-01 -6.8365909E-17
endloop
endfacet
facet normal 1.3102166E-17 9.9745303E-01 -7.1324825E-02
outer loop
vertex -9.3150002E-01 -7.6499999E-01 -6.2855000E-17
vertex -9.6149999E-01 -7.6499999E-01 -6.8365909E-17
vertex -9.3150002E-01 -7.6484734E-01 2.1347224E-03
endloop
endfacet
facet normal 0.0000000E+00 9.9745303E-01 -7.1324825E-02
outer loop
vertex -9.3150002E-01 -7.6484734E-01 2.1347224E-03
vertex -9.6149999E-01 -7.6499999E-01 -6.8365909E-17
vertex -9.6149999E-01 -7.6484734E-01 2.1347224E-03
endloop
endfacet
facet normal 0.0000000E+00 9.7714341E-01 -2.1258098E-01
outer loop
vertex -9.3150002E-01 -7.6484734E-01 2.1347224E-03
vertex -9.6149999E-01 -7.6484734E-01 2.1347224E-03
vertex -9.3150002E-01 -7.6439238E-01 4.2259884E-03
endloop
endfacet
facet normal 0.0000000E+00 9.7714341E-01 -2.1258098E-01
outer loop
vertex -9.3150002E-01 -7.6439238E-01 4.2259884E-03
vertex -9.6149999E-01 -7.6484734E-01 2.1347224E-03
vertex -9.6149999E-01 -7.6439238E-01 4.2259884E-03
endloop
endfacet
facet normal 0.0000000E+00 9.3694901E-01 -3.4946600E-01
outer loop
vertex -9.3150002E-01 -7.6439238E-01 4.2259884E-03
vertex -9.6149999E-01 -7.6439238E-01 4.2259884E-03
vertex -9.3150002E-01 -7.6364446E-01 6.2312251E-03
endloop
endfacet
facet normal 0.0000000E+00 9.3694901E-01 -3.4946600E-01
outer loop
vertex -9.3150002E-01 -7.6364446E-01 6.2312251E-03
vertex -9.6149999E-01 -7.6439238E-01 4.2259884E-03
vertex -9.6149999E-01 -7.6364446E-01 6.2312251E-03
endloop
endfacet
facet normal 0.0000000E+00 8.7767905E-01 -4.7924888E-01
outer loop
vertex -9.3150002E-01 -7.6364446E-01 6.2312251E-03
vertex -9.6149999E-01 -7.6364446E-01 6.2312251E-03
vertex -9.3150002E-01 -7.6261878E-01 8.1096124E-03
endloop
endfacet
facet normal 0.0000000E+00 8.7767905E-01 -4.7924888E-01
outer loop
vertex -9.3150002E-01 -7.6261878E-01 8.1096124E-03
vertex -9.6149999E-01 -7.6364446E-01 6.2312251E-03
vertex -9.6149999E-01 -7.6261878E-01 8.1096124E-03
endloop
endfacet
facet normal 0.0000000E+00 8.0055165E-01 -5.9926373E-01
outer loop
vertex -9.3150002E-01 -7.6261878E-01 8.1096124E-03
vertex -9.6149999E-01 -7.6261878E-01 8.1096124E-03
vertex -9.3150002E-01 -7.6133627E-01 9.8229116E-03
endloop
endfacet
facet normal 0.0000000E+00 8.0055165E-01 -5.9926373E-01
outer loop
vertex -9.3150002E-01 -7.6133627E-01 9.8229116E-03
vertex -9.6149999E-01 -7.6261878E-01 8.1096124E-03
vertex -9.6149999E-01 -7.6133627E-01 9.8229116E-03
endloop
endfacet
facet normal 0.0000000E+00 7.0709980E-01 -7.0711374E-01
outer loop
vertex -9.3150002E-01 -7.6133627E-01 9.8229116E-03
vertex -9.6149999E-01 -7.6133627E-01 9.8229116E-03
vertex -9.3150002E-01 -7.5982291E-01 1.1336244E-02
endloop
endfacet
facet normal 0.0000000E+00 7.0709980E-01 -7.0711374E-01
outer loop
vertex -9.3150002E-01 -7.5982291E-01 1.1336244E-02
vertex -9.6149999E-01 -7.6133627E-01 9.8229116E-03
vertex -9.6149999E-01 -7.5982291E-01 1.1336244E-02
endloop
endfacet
facet normal 0.0000000E+00 5.9928292E-01 -8.0053735E-01
outer loop
vertex -9.3150002E-01 -7.5982291E-01 1.1336244E-02
vertex -9.6149999E-01 -7.5982291E-01 1.1336244E-02
vertex -9.3150002E-01 -7.5810963E-01 1.2618803E-02
endloop
endfacet
facet normal 0.0000000E+00 5.9928292E-01 -8.0053735E-01
outer loop
vertex -9.3150002E-01 -7.5810963E-01 1.2618803E-02
vertex -9.6149999E-01 -7.5982291E-01 1.1336244E-02
vertex -9.6149999E-01 -7.5810963E-01 1.2618803E-02
endloop
endfacet
facet normal 0.0000000E+00 4.7925013E-01 -8.7767839E-01
outer loop
vertex -9.3150002E-01 -7.5810963E-01 1.2618803E-02
vertex -9.6149999E-01 -7.5810963E-01 1.2618803E-02
vertex -9.3150002E-01 -7.5623125E-01 1.3644480E-02
endloop
endfacet
facet normal 0.0000000E+00 4.7925013E-01 -8.7767839E-01
outer loop
vertex -9.3150002E-01 -7.5623125E-01 1.3644480E-02
vertex -9.6149999E-01 -7.5810963E-01 1.2618803E-02
vertex -9.6149999E-01 -7.5623125E-01 1.3644480E-02
endloop
endfacet
facet normal 0.0000000E+00 3.4945837E-01 -9.3695188E-01
outer loop
vertex -9.3150002E-01 -7.5623125E-01 1.3644480E-02
vertex -9.6149999E-01 -7.5623125E-01 1.3644480E-02
vertex -9.3150002E-01 -7.5422597E-01 1.4392396E-02
endloop
endfacet
facet normal 0.0000000E+00 3.4945837E-01 -9.3695188E-01
outer loop
vertex -9.3150002E-01 -7.5422597E-01 1.4392396E-02
vertex -9.6149999E-01 -7.5623125E-01 1.3644480E-02
vertex -9.6149999E-01 -7.5422597E-01 1.4392396E-02
endloop
endfacet
facet normal 0.0000000E+00 2.1256799E-01 -9.7714633E-01
outer loop
vertex -9.3150002E-01 -7.5422597E-01 1.4392396E-02
vertex -9.6149999E-01 -7.5422597E-01 1.4392396E-02
vertex -9.3150002E-01 -7.5213474E-01 1.4847321E-02
endloop
endfacet
facet normal 0.0000000E+00 2.1256799E-01 -9.7714633E-01
outer loop
vertex -9.3150002E-01 -7.5213474E-01 1.4847321E-02
vertex -9.6149999E-01 -7.5422597E-01 1.4392396E-02
vertex -9.6149999E-01 -7.5213474E-01 1.4847321E-02
endloop
endfacet
facet normal 0.0000000E+00 7.1338527E-02 -9.9745214E-01
outer loop
vertex -9.3150002E-01 -7.5213474E-01 1.4847321E-02
vertex -9.6149999E-01 -7.5213474E-01 1.4847321E-02
vertex -9.3150002E-01 -7.5000000E-01 1.5000000E-02
endloop
endfacet
facet normal 0.0000000E+00 7.1338527E-02 -9.9745214E-01
outer loop
vertex -9.3150002E-01 -7.5000000E-01 1.5000000E-02
vertex -9.6149999E-01 -7.5213474E-01 1.4847321E-02
vertex -9.6149999E-01 -7.5000000E-01 1.5000000E-02
endloop
endfacet
facet normal -0.0000000E+00 -7.1338527E-02 -9.9745214E-01
outer loop
vertex -9.3150002E-01 -7.5000000E-01 1.5000000E-02
vertex -9.6149999E-01 -7.5000000E-01 1.5000000E-02
vertex -9.3150002E-01 -7.4786526E-01 1.4847321E-02
endloop
endfacet
facet normal -0.0000000E+00 -7.1338527E-02 -9.9745214E-01
outer loop
vertex -9.3150002E-01 -7.4786526E-01 1.4847321E-02
vertex -9.6149999E-01 -7.5000000E-01 1.5000000E-02
vertex -9.6149999E-01 -7.4786526E-01 1.4847321E-02
endloop
endfacet
facet normal -0.0000000E+00 -2.1256799E-01 -9.7714633E-01
outer loop
vertex -9.3150002E-01 -7.4786526E-01 1.4847321E-02
vertex -9.6149999E-01 -7.4786526E-01 1.4847321E-02
vertex -9.3150002E-01 -7.4577403E-01 1.4392396E-02
endloop
endfacet
facet normal -0.0000000E+00 -2.1256799E-01 -9.7714633E-01
outer loop
vertex -9.3150002E-01 -7.4577403E-01 1.4392396E-02
vertex -9.6149999E-01 -7.4786526E-01 1.4847321E-02
vertex -9.6149999E-01 -7.4577403E-01 1.4392396E-02
endloop
endfacet
facet normal -0.0000000E+00 -3.4945837E-01 -9.3695188E-01
outer loop
vertex -9.3150002E-01 -7.4577403E-01 1.4392396E-02
vertex -9.6149999E-01 -7.4577403E-01 1.4392396E-02
vertex -9.3150002E-01 -7.4376875E-01 1.3644480E-02
endloop
endfacet
facet normal -0.0000000E+00 -3.4945837E-01 -9.3695188E-01
outer loop
vertex -9.3150002E-01 -7.4376875E-01 1.3644480E-02
vertex -9.6149999E-01 -7.4577403E-01 1.4392396E-02
vertex -9.6149999E-01 -7.4376875E-01 1.3644480E-02
endloop
endfacet
facet normal -0.0000000E+00 -4.7925013E-01 -8.7767839E-01
outer loop
vertex -9.3150002E-01 -7.4376875E-01 1.3644480E-02
vertex -9.6149999E-01 -7.4376875E-01 1.3644480E-02
vertex -9.3150002E-01 -7.4189037E-01 1.2618803E-02
endloop
endfacet
facet normal -0.0000000E+00 -4.7925013E-01 -8.7767839E-01
outer loop
vertex -9.3150002E-01 -7.4189037E-01 1.2618803E-02
vertex -9.6149999E-01 -7.4376875E-01 1.3644480E-02
vertex -9.6149999E-01 -7.4189037E-01 1.2618803E-02
endloop
endfacet
facet normal -0.0000000E+00 -5.9928292E-01 -8.0053735E-01
outer loop
vertex -9.3150002E-01 -7.4189037E-01 1.2618803E-02
vertex -9.6149999E-01 -7.4189037E-01 1.2618803E-02
vertex -9.3150002E-01 -7.4017709E-01 1.1336244E-02
endloop
endfacet
facet normal -0.0000000E+00 -5.9928292E-01 -8.0053735E-01
outer loop
vertex -9.3150002E-01 -7.4017709E-01 1.1336244E-02
vertex -9.6149999E-01 -7.4189037E-01 1.2618803E-02
vertex -9.6149999E-01 -7.4017709E-01 1.1336244E-02
endloop
endfacet
facet normal -0.0000000E+00 -7.0709980E-01 -7.0711374E-01
outer loop
vertex -9.3150002E-01 -7.4017709E-01 1.1336244E-02
vertex -9.6149999E-01 -7.4017709E-01 1.1336244E-02
vertex -9.3150002E-01 -7.3866373E-01 9.8229116E-03
endloop
endfacet
facet normal -0.0000000E+00 -7.0709980E-01 -7.0711374E-01
outer loop
vertex -9.3150002E-01 -7.3866373E-01 9.8229116E-03
vertex -9.6149999E-01 -7.4017709E-01 1.1336244E-02
vertex -9.6149999E-01 -7.3866373E-01 9.8229116E-03
endloop
endfacet
facet normal -0.0000000E+00 -8.0055165E-01 -5.9926373E-01
outer loop
vertex -9.3150002E-01 -7.3866373E-01 9.8229116E-03
vertex -9.6149999E-01 -7.3866373E-01 9.8229116E-03
vertex -9.3150002E-01 -7.3738122E-01 8.1096124E-03
endloop
endfacet
facet normal -0.0000000E+00 -8.0055165E-01 -5.9926373E-01
outer loop
vertex -9.3150002E-01 -7.3738122E-01 8.1096124E-03
vertex -9.6149999E-01 -7.3866373E-01 9.8229116E-03
vertex -9.6149999E-01 -7.3738122E-01 8.1096124E-03
endloop
endfacet
facet normal -0.0000000E+00 -8.7767905E-01 -4.7924888E-01
outer loop
vertex -9.3150002E-01 -7.3738122E-01 8.1096124E-03
vertex -9.6149999E-01 -7.3738122E-01 8.1096124E-03
vertex -9.3150002E-01 -7.3635554E-01 6.2312251E-03
endloop
endfacet
facet normal -0.0000000E+00 -8.7767905E-01 -4.7924888E-01
outer loop
vertex -9.3150002E-01 -7.3635554E-01 6.2312251E-03
vertex -9.6149999E-01 -7.3738122E-01 8.1096124E-03
vertex -9.6149999E-01 -7.3635554E-01 6.2312251E-03
endloop
endfacet
facet normal -0.0000000E+00 -9.3694901E-01 -3.4946600E-01
outer loop
vertex -9.3150002E-01 -7.3635554E-01 6.2312251E-03
vertex -9.6149999E-01 -7.3635554E-01 6.2312251E-03
vertex -9.3150002E-01 -7.3560762E-01 4.2259884E-03
endloop
endfacet
facet normal -0.0000000E+00 -9.3694901E-01 -3.4946600E-01
outer loop
vertex -9.3150002E-01 -7.3560762E-01 4.2259884E-03
vertex -9.6149999E-01 -7.3635554E-01 6.2312251E-03
vertex -9.6149999E-01 -7.3560762E-01 4.2259884E-03
endloop
endfacet
facet normal -0.0000000E+00 -9.7714341E-01 -2.1258098E-01
outer loop
vertex -9.3150002E-01 -7.3560762E-01 4.2259884E-03
vertex -9.6149999E-01 -7.3560762E-01 4.2259884E-03
vertex -9.3150002E-01 -7.3515266E-01 2.1347224E-03
endloop
endfacet
facet normal -0.0000000E+00 -9.7714341E-01 -2.1258098E-01
outer loop
vertex -9.3150002E-01 -7.3515266E-01 2.1347224E-03
vertex -9.6149999E-01 -7.3560762E-01 4.2259884E-03
vertex -9.6149999E-01 -7.3515266E-01 2.1347224E-03
endloop
endfacet
facet normal 1.0000000E+00 0.0000000E+00 0.0000000E+00
outer loop
vertex -9.3150002E-01 -6.0000002E-01 2.9999999E-02
vertex -9.3150002E-01 -7.3500001E-01 -6.2855000E-17
vertex -9.3150002E-01 -6.0000002E-01 -2.9999999E-02
endloop
endfacet
facet normal 1.0000000E+00 0.0000000E+00 0.0000000E+00
outer loop
vertex -9.3150002E-01 -6.0000002E-01 -2.9999999E-02
vertex -9.3150002E-01 -7.3500001E-01 -6.2855000E-17
vertex -9.3150002E-01 -7.3515266E-01 -2.1347224E-03
endloop
endfacet
facet normal 1.0000000E+00 0.0000000E+00 0.0000000E+00
outer loop
vertex -9.3150002E-01 -6.0000002E-01 -2.9999999E-02
vertex -9.3150002E-01 -7.3515266E-01 -2.1347224E-03
vertex -9.3150002E-01 -7.3560762E-01 -4.2259884E-03
endloop
endfacet
facet normal 1.0000000E+00 -0.0000000E+00 0.0000000E+00
outer loop
vertex -9.3150002E-01 -7.5000000E-01 2.9999999E-02
vertex -9.3150002E-01 -7.4189037E-01 1.2618803E-02
vertex -9.3150002E-01 -6.0000002E-01 2.9999999E-02
endloop
endfacet
facet normal 1.0000000E+00 0.0000000E+00 0.0000000E+00
outer loop
vertex -9.3150002E-01 -6.0000002E-01 2.9999999E-02
vertex -9.3150002E-01 -7.4189037E-01 1.2618803E-02
vertex -9.3150002E-01 -7.4017709E-01 1.1336244E-02
endloop
endfacet
facet normal 1.0000000E+00 0.0000000E+00 0.0000000E+00
outer loop
vertex -9.3150002E-01 -6.0000002E-01 2.9999999E-02
vertex -9.3150002E-01 -7.4017709E-01 1.1336244E-02
vertex -9.3150002E-01 -7.3866373E-01 9.8229116E-03
endloop
endfacet
facet normal 9.9999994E-01 -0.0000000E+00 0.0000000E+00
outer loop
vertex -9.3150002E-01 -7.5303507E-01 2.9846080E-02
vertex -9.3150002E-01 -7.5603896E-01 2.9385898E-02
vertex -9.3150002E-01 -7.5000000E-01 2.9999999E-02
endloop
endfacet
facet normal 1.0000000E+00 0.0000000E+00 0.0000000E+00
outer loop
vertex -9.3150002E-01 -7.5000000E-01 2.9999999E-02
vertex -9.3150002E-01 -7.5603896E-01 2.9385898E-02
vertex -9.3150002E-01 -7.5898087E-01 2.8624179E-02
endloop
endfacet
facet normal 1.0000000E+00 0.0000000E+00 0.0000000E+00
outer loop
vertex -9.3150002E-01 -7.5000000E-01 2.9999999E-02
vertex -9.3150002E-01 -7.5898087E-01 2.8624179E-02
vertex -9.3150002E-01 -7.6183069E-01 2.7568735E-02
endloop
endfacet
facet normal 1.0000000E+00 0.0000000E+00 0.0000000E+00
outer loop
vertex -9.3150002E-01 -7.5000000E-01 2.9999999E-02
vertex -9.3150002E-01 -7.6183069E-01 2.7568735E-02
vertex -9.3150002E-01 -7.4786526E-01 1.4847321E-02
endloop
endfacet
facet normal 1.0000000E+00 0.0000000E+00 0.0000000E+00
outer loop
vertex -9.3150002E-01 -7.4786526E-01 1.4847321E-02
vertex -9.3150002E-01 -7.6183069E-01 2.7568735E-02
vertex -9.3150002E-01 -7.6455903E-01 2.6230399E-02
endloop
endfacet
facet normal 1.0000000E+00 0.0000000E+00 0.0000000E+00
outer loop
vertex -9.3150002E-01 -7.4786526E-01 1.4847321E-02
vertex -9.3150002E-01 -7.6455903E-01 2.6230399E-02
vertex -9.3150002E-01 -7.5000000E-01 1.5000000E-02
endloop
endfacet
facet normal 1.0000000E+00 0.0000000E+00 0.0000000E+00
outer loop
vertex -9.3150002E-01 -7.5000000E-01 1.5000000E-02
vertex -9.3150002E-01 -7.6455903E-01 2.6230399E-02
vertex -9.3150002E-01 -7.6713806E-01 2.4622904E-02
endloop
endfacet
facet normal 1.0000000E+00 0.0000000E+00 0.0000000E+00
outer loop
vertex -9.3150002E-01 -7.5000000E-01 1.5000000E-02
vertex -9.3150002E-01 -7.6713806E-01 2.4622904E-02
vertex -9.3150002E-01 -7.6954114E-01 2.2762744E-02
endloop
endfacet
facet normal 1.0000000E+00 0.0000000E+00 0.0000000E+00
outer loop
vertex -9.3150002E-01 -7.5000000E-01 1.5000000E-02
vertex -9.3150002E-01 -7.6954114E-01 2.2762744E-02
vertex -9.3150002E-01 -7.5213474E-01 1.4847321E-02
endloop
endfacet
facet normal 1.0000000E+00 0.0000000E+00 0.0000000E+00
outer loop
vertex -9.3150002E-01 -7.5213474E-01 1.4847321E-02
vertex -9.3150002E-01 -7.6954114E-01 2.2762744E-02
vertex -9.3150002E-01 -7.7174377E-01 2.0669008E-02
endloop
endfacet
facet normal 1.0000000E+00 0.0000000E+00 0.0000000E+00
outer loop
vertex -9.3150002E-01 -7.5213474E-01 1.4847321E-02
vertex -9.3150002E-01 -7.7174377E-01 2.0669008E-02
vertex -9.3150002E-01 -7.5422597E-01 1.4392396E-02
endloop
endfacet
facet normal 1.0000000E+00 0.0000000E+00 0.0000000E+00
outer loop
vertex -9.3150002E-01 -7.5422597E-01 1.4392396E-02
vertex -9.3150002E-01 -7.7174377E-01 2.0669008E-02
vertex -9.3150002E-01 -7.7372324E-01 1.8363180E-02
endloop
endfacet
facet normal 1.0000000E+00 0.0000000E+00 0.0000000E+00
outer loop
vertex -9.3150002E-01 -7.5422597E-01 1.4392396E-02
vertex -9.3150002E-01 -7.7372324E-01 1.8363180E-02
vertex -9.3150002E-01 -7.5623125E-01 1.3644480E-02
endloop
endfacet
facet normal 1.0000000E+00 0.0000000E+00 0.0000000E+00
outer loop
vertex -9.3150002E-01 -7.5623125E-01 1.3644480E-02
vertex -9.3150002E-01 -7.7372324E-01 1.8363180E-02
vertex -9.3150002E-01 -7.7545935E-01 1.5868921E-02
endloop
endfacet
facet normal 9.9999994E-01 0.0000000E+00 0.0000000E+00
outer loop
vertex -9.3150002E-01 -7.5623125E-01 1.3644480E-02
vertex -9.3150002E-01 -7.7545935E-01 1.5868921E-02
vertex -9.3150002E-01 -7.5810963E-01 1.2618803E-02
endloop
endfacet
facet normal 9.9999994E-01 0.0000000E+00 0.0000000E+00
outer loop
vertex -9.3150002E-01 -7.5810963E-01 1.2618803E-02
vertex -9.3150002E-01 -7.7545935E-01 1.5868921E-02
vertex -9.3150002E-01 -7.7693415E-01 1.3211824E-02
endloop
endfacet
facet normal 9.9999994E-01 0.0000000E+00 0.0000000E+00
outer loop
vertex -9.3150002E-01 -7.5810963E-01 1.2618803E-02
vertex -9.3150002E-01 -7.7693415E-01 1.3211824E-02
vertex -9.3150002E-01 -7.5982291E-01 1.1336244E-02
endloop
endfacet
facet normal 1.0000000E+00 0.0000000E+00 0.0000000E+00
outer loop
vertex -9.3150002E-01 -7.5982291E-01 1.1336244E-02
vertex -9.3150002E-01 -7.7693415E-01 1.3211824E-02
vertex -9.3150002E-01 -7.6133627E-01 9.8229116E-03
endloop
endfacet
facet normal 1.0000000E+00 0.0000000E+00 0.0000000E+00
outer loop
vertex -9.3150002E-01 -7.6133627E-01 9.8229116E-03
vertex -9.3150002E-01 -7.7693415E-01 1.3211824E-02
vertex -9.3150002E-01 -7.7813256E-01 1.0419158E-02
endloop
endfacet
facet normal 1.0000000E+00 0.0000000E+00 0.0000000E+00
outer loop
vertex -9.3150002E-01 -7.6133627E-01 9.8229116E-03
vertex -9.3150002E-01 -7.7813256E-01 1.0419158E-02
vertex -9.3150002E-01 -7.6261878E-01 8.1096124E-03
endloop
endfacet
facet normal 1.0000000E+00 0.0000000E+00 0.0000000E+00
outer loop
vertex -9.3150002E-01 -7.6261878E-01 8.1096124E-03
vertex -9.3150002E-01 -7.7813256E-01 1.0419158E-02
vertex -9.3150002E-01 -7.7904230E-01 7.5195758E-03
endloop
endfacet
facet normal 1.0000000E+00 0.0000000E+00 0.0000000E+00
outer loop
vertex -9.3150002E-01 -7.6261878E-01 8.1096124E-03
vertex -9.3150002E-01 -7.7904230E-01 7.5195758E-03
vertex -9.3150002E-01 -7.6364446E-01 6.2312251E-03
endloop
endfacet
facet normal 1.0000000E+00 0.0000000E+00 0.0000000E+00
outer loop
vertex -9.3150002E-01 -7.6364446E-01 6.2312251E-03
vertex -9.3150002E-01 -7.7904230E-01 7.5195758E-03
vertex -9.3150002E-01 -7.7965403E-01 4.5428332E-03
endloop
endfacet
facet normal 1.0000000E+00 0.0000000E+00 0.0000000E+00
outer loop
vertex -9.3150002E-01 -7.6364446E-01 6.2312251E-03
vertex -9.3150002E-01 -7.7965403E-01 4.5428332E-03
vertex -9.3150002E-01 -7.6439238E-01 4.2259884E-03
endloop
endfacet
facet normal 1.0000000E+00 0.0000000E+00 0.0000000E+00
outer loop
vertex -9.3150002E-01 -7.6439238E-01 4.2259884E-03
vertex -9.3150002E-01 -7.7965403E-01 4.5428332E-03
vertex -9.3150002E-01 -7.6484734E-01 2.1347224E-03
endloop
endfacet
facet normal 1.0000000E+00 0.0000000E+00 0.0000000E+00
outer loop
vertex -9.3150002E-01 -7.6484734E-01 2.1347224E-03
vertex -9.3150002E-01 -7.7965403E-01 4.5428332E-03
vertex -9.3150002E-01 -7.7996153E-01 1.5194751E-03
endloop
endfacet
facet normal 1.0000000E+00 0.0000000E+00 0.0000000E+00
outer loop
vertex -9.3150002E-01 -7.6484734E-01 2.1347224E-03
vertex -9.3150002E-01 -7.7996153E-01 1.5194751E-03
vertex -9.3150002E-01 -7.6499999E-01 -6.2855000E-17
endloop
endfacet
facet normal 1.0000000E+00 0.0000000E+00 0.0000000E+00
outer loop
vertex -9.3150002E-01 -7.6499999E-01 -6.2855000E-17
vertex -9.3150002E-01 -7.7996153E-01 1.5194751E-03
vertex -9.3150002E-01 -7.7996153E-01 -1.5194751E-03
endloop
endfacet
facet normal 1.0000000E+00 0.0000000E+00 0.0000000E+00
outer loop
vertex -9.3150002E-01 -7.6499999E-01 -6.2855000E-17
vertex -9.3150002E-01 -7.7996153E-01 -1.5194751E-03
vertex -9.3150002E-01 -7.6484734E-01 -2.1347224E-03
endloop
endfacet
facet normal 1.0000000E+00 0.0000000E+00 0.0000000E+00
outer loop
vertex -9.3150002E-01 -7.6484734E-01 -2.1347224E-03
vertex -9.3150002E-01 -7.7996153E-01 -1.5194751E-03
vertex -9.3150002E-01 -7.7965403E-01 -4.5428332E-03
endloop
endfacet
facet normal 1.0000000E+00 0.0000000E+00 0.0000000E+00
outer loop
vertex -9.3150002E-01 -7.6484734E-01 -2.1347224E-03
vertex -9.3150002E-01 -7.7965403E-01 -4.5428332E-03
vertex -9.3150002E-01 -7.6439238E-01 -4.2259884E-03
endloop
endfacet
facet normal 1.0000000E+00 0.0000000E+00 0.0000000E+00
outer loop
vertex -9.3150002E-01 -7.6439238E-01 -4.2259884E-03
vertex -9.3150002E-01 -7.7965403E-01 -4.5428332E-03
vertex -9.3150002E-01 -7.6364446E-01 -6.2312251E-03
endloop
endfacet
facet normal 1.0000000E+00 0.0000000E+00 0.0000000E+00
outer loop
vertex -9.3150002E-01 -7.6364446E-01 -6.2312251E-03
vertex -9.3150002E-01 -7.7965403E-01 -4.5428332E-03
vertex -9.3150002E-01 -7.7904230E-01 -7.5195758E-03
endloop
endfacet
facet normal 9.9999994E-01 0.0000000E+00 0.0000000E+00
outer loop
vertex -9.3150002E-01 -7.6364446E-01 -6.2312251E-03
vertex -9.3150002E-01 -7.7904230E-01 -7.5195758E-03
vertex -9.3150002E-01 -7.6261878E-01 -8.1096124E-03
endloop
endfacet
facet normal 1.0000000E+00 0.0000000E+00 0.0000000E+00
outer loop
vertex -9.3150002E-01 -7.6261878E-01 -8.1096124E-03
vertex -9.3150002E-01 -7.7904230E-01 -7.5195758E-03
vertex -9.3150002E-01 -7.7813256E-01 -1.0419158E-02
endloop
endfacet
facet normal 1.0000000E+00 0.0000000E+00 0.0000000E+00
outer loop
vertex -9.3150002E-01 -7.6261878E-01 -8.1096124E-03
vertex -9.3150002E-01 -7.7813256E-01 -1.0419158E-02
vertex -9.3150002E-01 -7.6133627E-01 -9.8229116E-03
endloop
endfacet
facet normal 1.0000000E+00 0.0000000E+00 0.0000000E+00
outer loop
vertex -9.3150002E-01 -7.6133627E-01 -9.8229116E-03
vertex -9.3150002E-01 -7.7813256E-01 -1.0419158E-02
vertex -9.3150002E-01 -7.7693415E-01 -1.3211824E-02
endloop
endfacet
facet normal 1.0000000E+00 0.0000000E+00 0.0000000E+00
outer loop
vertex -9.3150002E-01 -7.6133627E-01 -9.8229116E-03
vertex -9.3150002E-01 -7.7693415E-01 -1.3211824E-02
vertex -9.3150002E-01 -7.5982291E-01 -1.1336244E-02
endloop
endfacet
facet normal 9.9999994E-01 0.0000000E+00 0.0000000E+00
outer loop
vertex -9.3150002E-01 -7.5982291E-01 -1.1336244E-02
vertex -9.3150002E-01 -7.7693415E-01 -1.3211824E-02
vertex -9.3150002E-01 -7.5810963E-01 -1.2618803E-02
endloop
endfacet
facet normal 9.9999994E-01 0.0000000E+00 0.0000000E+00
outer loop
vertex -9.3150002E-01 -7.5810963E-01 -1.2618803E-02
vertex -9.3150002E-01 -7.7693415E-01 -1.3211824E-02
vertex -9.3150002E-01 -7.7545935E-01 -1.5868921E-02
endloop
endfacet
facet normal 9.9999994E-01 0.0000000E+00 0.0000000E+00
outer loop
vertex -9.3150002E-01 -7.5810963E-01 -1.2618803E-02
vertex -9.3150002E-01 -7.7545935E-01 -1.5868921E-02
vertex -9.3150002E-01 -7.5623125E-01 -1.3644480E-02
endloop
endfacet
facet normal 1.0000000E+00 0.0000000E+00 0.0000000E+00
outer loop
vertex -9.3150002E-01 -7.5623125E-01 -1.3644480E-02
vertex -9.3150002E-01 -7.7545935E-01 -1.5868921E-02
vertex -9.3150002E-01 -7.7372324E-01 -1.8363180E-02
endloop
endfacet
facet normal 1.0000000E+00 0.0000000E+00 0.0000000E+00
outer loop
vertex -9.3150002E-01 -7.5623125E-01 -1.3644480E-02
vertex -9.3150002E-01 -7.7372324E-01 -1.8363180E-02
vertex -9.3150002E-01 -7.5422597E-01 -1.4392396E-02
endloop
endfacet
facet normal 1.0000000E+00 0.0000000E+00 0.0000000E+00
outer loop
vertex -9.3150002E-01 -7.5422597E-01 -1.4392396E-02
vertex -9.3150002E-01 -7.7372324E-01 -1.8363180E-02
vertex -9.3150002E-01 -7.7174377E-01 -2.0669008E-02
endloop
endfacet
facet normal 1.0000000E+00 0.0000000E+00 0.0000000E+00
outer loop
vertex -9.3150002E-01 -7.5422597E-01 -1.4392396E-02
vertex -9.3150002E-01 -7.7174377E-01 -2.0669008E-02
vertex -9.3150002E-01 -7.5213474E-01 -1.4847321E-02
endloop
endfacet
facet normal 1.0000000E+00 0.0000000E+00 0.0000000E+00
outer loop
vertex -9.3150002E-01 -7.5213474E-01 -1.4847321E-02
vertex -9.3150002E-01 -7.7174377E-01 -2.0669008E-02
vertex -9.3150002E-01 -7.6954114E-01 -2.2762744E-02
endloop
endfacet
facet normal 1.0000000E+00 0.0000000E+00 0.0000000E+00
outer loop
vertex -9.3150002E-01 -7.5213474E-01 -1.4847321E-02
vertex -9.3150002E-01 -7.6954114E-01 -2.2762744E-02
vertex -9.3150002E-01 -7.5000000E-01 -1.5000000E-02
endloop
endfacet
facet normal 1.0000000E+00 0.0000000E+00 0.0000000E+00
outer loop
vertex -9.3150002E-01 -7.5000000E-01 -1.5000000E-02
vertex -9.3150002E-01 -7.6954114E-01 -2.2762744E-02
vertex -9.3150002E-01 -7.6713806E-01 -2.4622904E-02
endloop
endfacet
facet normal 1.0000000E+00 0.0000000E+00 0.0000000E+00
outer loop
vertex -9.3150002E-01 -7.5000000E-01 -1.5000000E-02
vertex -9.3150002E-01 -7.6713806E-01 -2.4622904E-02
vertex -9.3150002E-01 -7.6455903E-01 -2.6230399E-02
endloop
endfacet
facet normal 1.0000000E+00 -0.0000000E+00 0.0000000E+00
outer loop
vertex -9.3150002E-01 -7.5000000E-01 -1.5000000E-02
vertex -9.3150002E-01 -7.6455903E-01 -2.6230399E-02
vertex -9.3150002E-01 -7.4786526E-01 -1.4847321E-02
endloop
endfacet
facet normal 1.0000000E+00 0.0000000E+00 0.0000000E+00
outer loop
vertex -9.3150002E-01 -7.4786526E-01 -1.4847321E-02
vertex -9.3150002E-01 -7.6455903E-01 -2.6230399E-02
vertex -9.3150002E-01 -7.6183069E-01 -2.7568735E-02
endloop
endfacet
facet normal 1.0000000E+00 0.0000000E+00 0.0000000E+00
outer loop
vertex -9.3150002E-01 -7.4786526E-01 -1.4847321E-02
vertex -9.3150002E-01 -7.6183069E-01 -2.7568735E-02
vertex -9.3150002E-01 -7.5000000E-01 -2.9999999E-02
endloop
endfacet
facet normal 1.0000000E+00 0.0000000E+00 0.0000000E+00
outer loop
vertex -9.3150002E-01 -7.5000000E-01 -2.9999999E-02
vertex -9.3150002E-01 -7.6183069E-01 -2.7568735E-02
vertex -9.3150002E-01 -7.5898087E-01 -2.8624179E-02
endloop
endfacet
facet normal 1.0000000E+00 0.0000000E+00 0.0000000E+00
outer loop
vertex -9.3150002E-01 -7.5000000E-01 -2.9999999E-02
vertex -9.3150002E-01 -7.5898087E-01 -2.8624179E-02
vertex -9.3150002E-01 -7.5603896E-01 -2.9385898E-02
endloop
endfacet
facet normal 1.0000000E+00 0.0000000E+00 0.0000000E+00
outer loop
vertex -9.3150002E-01 -7.5603896E-01 -2.9385898E-02
vertex -9.3150002E-01 -7.5303507E-01 -2.9846080E-02
vertex -9.3150002E-01 -7.5000000E-01 -2.9999999E-02
endloop
endfacet
facet normal 1.0000000E+00 0.0000000E+00 0.0000000E+00
outer loop
vertex -9.3150002E-01 -6.0000002E-01 -2.9999999E-02
vertex -9.3150002E-01 -7.4189037E-01 -1.2618803E-02
vertex -9.3150002E-01 -7.5000000E-01 -2.9999999E-02
endloop
endfacet
facet normal 1.0000000E+00 0.0000000E+00 0.0000000E+00
outer loop
vertex -9.3150002E-01 -7.5000000E-01 -2.9999999E-02
vertex -9.3150002E-01 -7.4189037E-01 -1.2618803E-02
vertex -9.3150002E-01 -7.4376875E-01 -1.3644480E-02
endloop
endfacet
facet normal 1.0000000E+00 0.0000000E+00 0.0000000E+00
outer loop
vertex -9.3150002E-01 -7.5000000E-01 -2.9999999E-02
vertex -9.3150002E-01 -7.4376875E-01 -1.3644480E-02
vertex -9.3150002E-01 -7.4577403E-01 -1.4392396E-02
endloop
endfacet
facet normal 1.0000000E+00 0.0000000E+00 0.0000000E+00
outer loop
vertex -9.3150002E-01 -7.3560762E-01 -4.2259884E-03
vertex -9.3150002E-01 -7.3635554E-01 -6.2312251E-03
vertex -9.3150002E-01 -6.0000002E-01 -2.9999999E-02
endloop
endfacet
facet normal 1.0000000E+00 0.0000000E+00 0.0000000E+00
outer loop
vertex -9.3150002E-01 -6.0000002E-01 -2.9999999E-02
vertex -9.3150002E-01 -7.3635554E-01 -6.2312251E-03
vertex -9.3150002E-01 -7.3738122E-01 -8.1096124E-03
endloop
endfacet
facet normal 1.0000000E+00 0.0000000E+00 0.0000000E+00
outer loop
vertex -9.3150002E-01 -6.0000002E-01 -2.9999999E-02
vertex -9.3150002E-01 -7.3738122E-01 -8.1096124E-03
vertex -9.3150002E-01 -7.3866373E-01 -9.8229116E-03
endloop
endfacet
facet normal 1.0000000E+00 0.0000000E+00 0.0000000E+00
outer loop
vertex -9.3150002E-01 -7.3866373E-01 -9.8229116E-03
vertex -9.3150002E-01 -7.4017709E-01 -1.1336244E-02
vertex -9.3150002E-01 -6.0000002E-01 -2.9999999E-02
endloop
endfacet
facet normal 1.0000000E+00 0.0000000E+00 0.0000000E+00
outer loop
vertex -9.3150002E-01 -6.0000002E-01 -2.9999999E-02
vertex -9.3150002E-01 -7.4017709E-01 -1.1336244E-02
vertex -9.3150002E-01 -7.4189037E-01 -1.2618803E-02
endloop
endfacet
facet normal 1.0000000E+00 0.0000000E+00 0.0000000E+00
outer loop
vertex -9.3150002E-01 -7.4577403E-01 -1.4392396E-02
vertex -9.3150002E-01 -7.4786526E-01 -1.4847321E-02
vertex -9.3150002E-01 -7.5000000E-01 -2.9999999E-02
endloop
endfacet
facet normal 1.0000000E+00 -0.0000000E+00 -0.0000000E+00
outer loop
vertex -9.3150002E-01 -7.4786526E-01 1.4847321E-02
vertex -9.3150002E-01 -7.4577403E-01 1.4392396E-02
vertex -9.3150002E-01 -7.5000000E-01 2.9999999E-02
endloop
endfacet
facet normal 1.0000000E+00 0.0000000E+00 0.0000000E+00
outer loop
vertex -9.3150002E-01 -7.5000000E-01 2.9999999E-02
vertex -9.3150002E-01 -7.4577403E-01 1.4392396E-02
vertex -9.3150002E-01 -7.4376875E-01 1.3644480E-02
endloop
endfacet
facet normal 1.0000000E+00 0.0000000E+00 0.0000000E+00
outer loop
vertex -9.3150002E-01 -7.5000000E-01 2.9999999E-02
vertex -9.3150002E-01 -7.4376875E-01 1.3644480E-02
vertex -9.3150002E-01 -7.4189037E-01 1.2618803E-02
endloop
endfacet
facet normal 1.0000000E+00 -0.0000000E+00 0.0000000E+00
outer loop
vertex -9.3150002E-01 -7.3866373E-01 9.8229116E-03
vertex -9.3150002E-01 -7.3738122E-01 8.1096124E-03
vertex -9.3150002E-01 -6.0000002E-01 2.9999999E-02
endloop
endfacet
facet normal 1.0000000E+00 0.0000000E+00 0.0000000E+00
outer loop
vertex -9.3150002E-01 -6.0000002E-01 2.9999999E-02
vertex -9.3150002E-01 -7.3738122E-01 8.1096124E-03
vertex -9.3150002E-01 -7.3635554E-01 6.2312251E-03
endloop
endfacet
facet normal 1.0000000E+00 0.0000000E+00 0.0000000E+00
outer loop
vertex -9.3150002E-01 -6.0000002E-01 2.9999999E-02
vertex -9.3150002E-01 -7.3635554E-01 6.2312251E-03
vertex -9.3150002E-01 -7.3560762E-01 4.2259884E-03
endloop
endfacet
facet normal 1.0000000E+00 -0.0000000E+00 0.0000000E+00
outer loop
vertex -9.3150002E-01 -7.3560762E-01 4.2259884E-03
vertex -9.3150002E-01 -7.3515266E-01 2.1347224E-03
vertex -9.3150002E-01 -6.0000002E-01 2.9999999E-02
endloop
endfacet
facet normal 1.0000000E+00 0.0000000E+00 0.0000000E+00
outer loop
vertex -9.3150002E-01 -6.0000002E-01 2.9999999E-02
vertex -9.3150002E-01 -7.3515266E-01 2.1347224E-03
vertex -9.3150002E-01 -7.3500001E-01 -6.2855000E-17
endloop
endfacet
endsolid Created by stlwrite.m 03-Sep-2021 16:23:09
