solid Created by stlwrite.m 14-Sep-2021 16:20:00
facet normal 0.0000000E+00 1.0000000E+00 -0.0000000E+00
outer loop
vertex 5.0000001E-02 5.0000001E-02 -5.9604643E-10
vertex -5.0000001E-02 5.0000001E-02 -5.9604643E-10
vertex 5.0000001E-02 5.0000001E-02 7.9999998E-02
endloop
endfacet
facet normal 0.0000000E+00 1.0000000E+00 0.0000000E+00
outer loop
vertex 5.0000001E-02 5.0000001E-02 7.9999998E-02
vertex -5.0000001E-02 5.0000001E-02 -5.9604643E-10
vertex -5.0000001E-02 5.0000001E-02 7.9999998E-02
endloop
endfacet
facet normal 1.0000000E+00 0.0000000E+00 0.0000000E+00
outer loop
vertex 5.0000001E-02 -5.0000001E-02 -5.9604643E-10
vertex 5.0000001E-02 5.0000001E-02 -5.9604643E-10
vertex 5.0000001E-02 -5.0000001E-02 7.9999998E-02
endloop
endfacet
facet normal 1.0000000E+00 -0.0000000E+00 0.0000000E+00
outer loop
vertex 5.0000001E-02 -5.0000001E-02 7.9999998E-02
vertex 5.0000001E-02 5.0000001E-02 -5.9604643E-10
vertex 5.0000001E-02 5.0000001E-02 7.9999998E-02
endloop
endfacet
facet normal 0.0000000E+00 -1.0000000E+00 0.0000000E+00
outer loop
vertex -5.0000001E-02 -5.0000001E-02 -5.9604643E-10
vertex 5.0000001E-02 -5.0000001E-02 -5.9604643E-10
vertex -5.0000001E-02 -5.0000001E-02 7.9999998E-02
endloop
endfacet
facet normal 0.0000000E+00 -1.0000000E+00 0.0000000E+00
outer loop
vertex -5.0000001E-02 -5.0000001E-02 7.9999998E-02
vertex 5.0000001E-02 -5.0000001E-02 -5.9604643E-10
vertex 5.0000001E-02 -5.0000001E-02 7.9999998E-02
endloop
endfacet
facet normal -1.0000000E+00 0.0000000E+00 0.0000000E+00
outer loop
vertex -5.0000001E-02 5.0000001E-02 -5.9604643E-10
vertex -5.0000001E-02 -5.0000001E-02 -5.9604643E-10
vertex -5.0000001E-02 5.0000001E-02 7.9999998E-02
endloop
endfacet
facet normal -1.0000000E+00 -0.0000000E+00 0.0000000E+00
outer loop
vertex -5.0000001E-02 5.0000001E-02 7.9999998E-02
vertex -5.0000001E-02 -5.0000001E-02 -5.9604643E-10
vertex -5.0000001E-02 -5.0000001E-02 7.9999998E-02
endloop
endfacet
facet normal 0.0000000E+00 0.0000000E+00 1.0000000E+00
outer loop
vertex -5.0000001E-02 -5.0000001E-02 7.9999998E-02
vertex 5.0000001E-02 -5.0000001E-02 7.9999998E-02
vertex -5.0000001E-02 5.0000001E-02 7.9999998E-02
endloop
endfacet
facet normal -0.0000000E+00 0.0000000E+00 1.0000000E+00
outer loop
vertex -5.0000001E-02 5.0000001E-02 7.9999998E-02
vertex 5.0000001E-02 -5.0000001E-02 7.9999998E-02
vertex 5.0000001E-02 5.0000001E-02 7.9999998E-02
endloop
endfacet
facet normal 0.0000000E+00 0.0000000E+00 -1.0000000E+00
outer loop
vertex -5.0000001E-02 5.0000001E-02 -5.9604643E-10
vertex 5.0000001E-02 5.0000001E-02 -5.9604643E-10
vertex -5.0000001E-02 -5.0000001E-02 -5.9604643E-10
endloop
endfacet
facet normal 0.0000000E+00 0.0000000E+00 -1.0000000E+00
outer loop
vertex -5.0000001E-02 -5.0000001E-02 -5.9604643E-10
vertex 5.0000001E-02 5.0000001E-02 -5.9604643E-10
vertex 5.0000001E-02 -5.0000001E-02 -5.9604643E-10
endloop
endfacet
endsolid Created by stlwrite.m 14-Sep-2021 16:20:00
