solid Created by stlwrite.m 09-Sep-2021 17:11:21
facet normal -9.9999994E-01 0.0000000E+00 0.0000000E+00
outer loop
vertex 9.9999998E-03 4.5000002E-02 -1.6000000E-01
vertex 9.9999998E-03 4.5000002E-02 -1.0000000E-01
vertex 9.9999998E-03 7.5000003E-02 -1.6000000E-01
endloop
endfacet
facet normal -9.9999994E-01 0.0000000E+00 0.0000000E+00
outer loop
vertex 9.9999998E-03 7.5000003E-02 -1.6000000E-01
vertex 9.9999998E-03 4.5000002E-02 -1.0000000E-01
vertex 9.9999998E-03 7.5000003E-02 -1.0000000E-01
endloop
endfacet
facet normal 0.0000000E+00 1.0000000E+00 -0.0000000E+00
outer loop
vertex 2.9999999E-02 7.5000003E-02 -1.6000000E-01
vertex 9.9999998E-03 7.5000003E-02 -1.6000000E-01
vertex 2.9999999E-02 7.5000003E-02 -1.0000000E-01
endloop
endfacet
facet normal 0.0000000E+00 1.0000000E+00 0.0000000E+00
outer loop
vertex 2.9999999E-02 7.5000003E-02 -1.0000000E-01
vertex 9.9999998E-03 7.5000003E-02 -1.6000000E-01
vertex 9.9999998E-03 7.5000003E-02 -1.0000000E-01
endloop
endfacet
facet normal 0.0000000E+00 1.0000000E+00 0.0000000E+00
outer loop
vertex 9.9999998E-03 4.5000002E-02 -1.0000000E-01
vertex 9.9999998E-03 4.5000002E-02 -1.6000000E-01
vertex -1.4100000E+00 4.5000002E-02 -1.0000000E-01
endloop
endfacet
facet normal 0.0000000E+00 1.0000000E+00 0.0000000E+00
outer loop
vertex -1.4100000E+00 4.5000002E-02 -1.0000000E-01
vertex 9.9999998E-03 4.5000002E-02 -1.6000000E-01
vertex -1.4700000E+00 4.5000002E-02 -1.6000000E-01
endloop
endfacet
facet normal 0.0000000E+00 1.0000000E+00 0.0000000E+00
outer loop
vertex -1.4100000E+00 4.5000002E-02 -1.0000000E-01
vertex -1.4700000E+00 4.5000002E-02 -1.6000000E-01
vertex -1.4970291E+00 4.5000002E-02 -1.4301652E-01
endloop
endfacet
facet normal 0.0000000E+00 1.0000000E+00 0.0000000E+00
outer loop
vertex -1.4970291E+00 4.5000002E-02 -1.4301652E-01
vertex -1.4700000E+00 4.5000002E-02 -1.6000000E-01
vertex -1.4934549E+00 4.5000002E-02 -1.4870469E-01
endloop
endfacet
facet normal 0.0000000E+00 1.0000000E+00 0.0000000E+00
outer loop
vertex -1.4934549E+00 4.5000002E-02 -1.4870469E-01
vertex -1.4700000E+00 4.5000002E-02 -1.6000000E-01
vertex -1.4887047E+00 4.5000002E-02 -1.5345494E-01
endloop
endfacet
facet normal 0.0000000E+00 1.0000000E+00 0.0000000E+00
outer loop
vertex -1.4887047E+00 4.5000002E-02 -1.5345494E-01
vertex -1.4700000E+00 4.5000002E-02 -1.6000000E-01
vertex -1.4830165E+00 4.5000002E-02 -1.5702906E-01
endloop
endfacet
facet normal 0.0000000E+00 1.0000000E+00 0.0000000E+00
outer loop
vertex -1.4830165E+00 4.5000002E-02 -1.5702906E-01
vertex -1.4700000E+00 4.5000002E-02 -1.6000000E-01
vertex -1.4766756E+00 4.5000002E-02 -1.5924783E-01
endloop
endfacet
facet normal 0.0000000E+00 1.0000000E+00 -0.0000000E+00
outer loop
vertex -1.4970291E+00 4.5000002E-02 -1.4301652E-01
vertex -1.4992478E+00 4.5000002E-02 -1.3667563E-01
vertex -1.4100000E+00 4.5000002E-02 -1.0000000E-01
endloop
endfacet
facet normal 0.0000000E+00 1.0000000E+00 0.0000000E+00
outer loop
vertex -1.4100000E+00 4.5000002E-02 -1.0000000E-01
vertex -1.4992478E+00 4.5000002E-02 -1.3667563E-01
vertex -1.5000000E+00 4.5000002E-02 -1.3000000E-01
endloop
endfacet
facet normal 0.0000000E+00 1.0000000E+00 0.0000000E+00
outer loop
vertex -1.4100000E+00 4.5000002E-02 -1.0000000E-01
vertex -1.5000000E+00 4.5000002E-02 -1.3000000E-01
vertex -1.4166757E+00 4.5000002E-02 -9.9247843E-02
endloop
endfacet
facet normal 0.0000000E+00 1.0000000E+00 0.0000000E+00
outer loop
vertex -1.4166757E+00 4.5000002E-02 -9.9247843E-02
vertex -1.5000000E+00 4.5000002E-02 -1.3000000E-01
vertex -1.4230164E+00 4.5000002E-02 -9.7029068E-02
endloop
endfacet
facet normal 0.0000000E+00 1.0000000E+00 0.0000000E+00
outer loop
vertex -1.4230164E+00 4.5000002E-02 -9.7029068E-02
vertex -1.5000000E+00 4.5000002E-02 -1.3000000E-01
vertex -1.4287047E+00 4.5000002E-02 -9.3454942E-02
endloop
endfacet
facet normal 0.0000000E+00 1.0000000E+00 0.0000000E+00
outer loop
vertex -1.4287047E+00 4.5000002E-02 -9.3454942E-02
vertex -1.5000000E+00 4.5000002E-02 -1.3000000E-01
vertex -1.4334550E+00 4.5000002E-02 -8.8704698E-02
endloop
endfacet
facet normal 0.0000000E+00 1.0000000E+00 0.0000000E+00
outer loop
vertex -1.4334550E+00 4.5000002E-02 -8.8704698E-02
vertex -1.5000000E+00 4.5000002E-02 -1.3000000E-01
vertex -1.4370290E+00 4.5000002E-02 -8.3016507E-02
endloop
endfacet
facet normal 0.0000000E+00 1.0000000E+00 0.0000000E+00
outer loop
vertex -1.4370290E+00 4.5000002E-02 -8.3016507E-02
vertex -1.5000000E+00 4.5000002E-02 -1.3000000E-01
vertex -1.4392478E+00 4.5000002E-02 -7.6675631E-02
endloop
endfacet
facet normal 0.0000000E+00 1.0000000E+00 0.0000000E+00
outer loop
vertex -1.4392478E+00 4.5000002E-02 -7.6675631E-02
vertex -1.5000000E+00 4.5000002E-02 -1.3000000E-01
vertex -1.4400001E+00 4.5000002E-02 -7.0000000E-02
endloop
endfacet
facet normal 0.0000000E+00 1.0000000E+00 0.0000000E+00
outer loop
vertex -1.4400001E+00 4.5000002E-02 -7.0000000E-02
vertex -1.5000000E+00 4.5000002E-02 -1.3000000E-01
vertex -1.4775000E+00 4.5000002E-02 -1.2990384E-02
endloop
endfacet
facet normal 0.0000000E+00 1.0000000E+00 0.0000000E+00
outer loop
vertex -1.4400001E+00 4.5000002E-02 -7.0000000E-02
vertex -1.4775000E+00 4.5000002E-02 -1.2990384E-02
vertex -1.4738823E+00 4.5000002E-02 -1.4488891E-02
endloop
endfacet
facet normal 0.0000000E+00 1.0000000E+00 0.0000000E+00
outer loop
vertex -1.5000000E+00 4.5000002E-02 -1.3000000E-01
vertex -1.5000000E+00 4.5000002E-02 1.8626442E-10
vertex -1.4775000E+00 4.5000002E-02 -1.2990384E-02
endloop
endfacet
facet normal 0.0000000E+00 1.0000000E+00 0.0000000E+00
outer loop
vertex -1.4775000E+00 4.5000002E-02 -1.2990384E-02
vertex -1.5000000E+00 4.5000002E-02 1.8626442E-10
vertex -1.4806066E+00 4.5000002E-02 -1.0606601E-02
endloop
endfacet
facet normal 0.0000000E+00 1.0000000E+00 0.0000000E+00
outer loop
vertex -1.4806066E+00 4.5000002E-02 -1.0606601E-02
vertex -1.5000000E+00 4.5000002E-02 1.8626442E-10
vertex -1.4829904E+00 4.5000002E-02 -7.4999994E-03
endloop
endfacet
facet normal 0.0000000E+00 1.0000000E+00 0.0000000E+00
outer loop
vertex -1.4829904E+00 4.5000002E-02 -7.4999994E-03
vertex -1.5000000E+00 4.5000002E-02 1.8626442E-10
vertex -1.4844888E+00 4.5000002E-02 -3.8822836E-03
endloop
endfacet
facet normal 0.0000000E+00 1.0000000E+00 0.0000000E+00
outer loop
vertex -1.4844888E+00 4.5000002E-02 -3.8822836E-03
vertex -1.5000000E+00 4.5000002E-02 1.8626442E-10
vertex -1.4850000E+00 4.5000002E-02 1.8626442E-10
endloop
endfacet
facet normal 0.0000000E+00 1.0000000E+00 -0.0000000E+00
outer loop
vertex -1.4850000E+00 4.5000002E-02 1.8626442E-10
vertex -1.5000000E+00 4.5000002E-02 1.8626442E-10
vertex -1.4844888E+00 4.5000002E-02 3.8822843E-03
endloop
endfacet
facet normal 0.0000000E+00 9.9999994E-01 0.0000000E+00
outer loop
vertex -1.4844888E+00 4.5000002E-02 3.8822843E-03
vertex -1.5000000E+00 4.5000002E-02 1.8626442E-10
vertex -1.4991283E+00 4.5000002E-02 7.1794721E-03
endloop
endfacet
facet normal 0.0000000E+00 1.0000000E+00 -0.0000000E+00
outer loop
vertex -1.4844888E+00 4.5000002E-02 3.8822843E-03
vertex -1.4991283E+00 4.5000002E-02 7.1794721E-03
vertex -1.4829904E+00 4.5000002E-02 7.4999994E-03
endloop
endfacet
facet normal 0.0000000E+00 1.0000000E+00 -0.0000000E+00
outer loop
vertex -1.4829904E+00 4.5000002E-02 7.4999994E-03
vertex -1.4991283E+00 4.5000002E-02 7.1794721E-03
vertex -1.4806066E+00 4.5000002E-02 1.0606601E-02
endloop
endfacet
facet normal 0.0000000E+00 1.0000000E+00 0.0000000E+00
outer loop
vertex -1.4806066E+00 4.5000002E-02 1.0606601E-02
vertex -1.4991283E+00 4.5000002E-02 7.1794721E-03
vertex -1.4965637E+00 4.5000002E-02 1.3941697E-02
endloop
endfacet
facet normal 0.0000000E+00 1.0000000E+00 -0.0000000E+00
outer loop
vertex -1.4806066E+00 4.5000002E-02 1.0606601E-02
vertex -1.4965637E+00 4.5000002E-02 1.3941697E-02
vertex -1.4775000E+00 4.5000002E-02 1.2990384E-02
endloop
endfacet
facet normal 0.0000000E+00 1.0000000E+00 -0.0000000E+00
outer loop
vertex -1.4775000E+00 4.5000002E-02 1.2990384E-02
vertex -1.4965637E+00 4.5000002E-02 1.3941697E-02
vertex -1.4738823E+00 4.5000002E-02 1.4488891E-02
endloop
endfacet
facet normal 0.0000000E+00 1.0000000E+00 0.0000000E+00
outer loop
vertex -1.4738823E+00 4.5000002E-02 1.4488891E-02
vertex -1.4965637E+00 4.5000002E-02 1.3941697E-02
vertex -1.4924554E+00 4.5000002E-02 1.9893682E-02
endloop
endfacet
facet normal 0.0000000E+00 1.0000000E+00 -0.0000000E+00
outer loop
vertex -1.4738823E+00 4.5000002E-02 1.4488891E-02
vertex -1.4924554E+00 4.5000002E-02 1.9893682E-02
vertex -1.4700000E+00 4.5000002E-02 1.4999999E-02
endloop
endfacet
facet normal 0.0000000E+00 1.0000000E+00 -0.0000000E+00
outer loop
vertex -1.4700000E+00 4.5000002E-02 1.4999999E-02
vertex -1.4924554E+00 4.5000002E-02 1.9893682E-02
vertex -1.4475447E+00 4.5000002E-02 1.9893682E-02
endloop
endfacet
facet normal -0.0000000E+00 9.9999994E-01 0.0000000E+00
outer loop
vertex -1.4700000E+00 4.5000002E-02 1.4999999E-02
vertex -1.4475447E+00 4.5000002E-02 1.9893682E-02
vertex -1.4661176E+00 4.5000002E-02 1.4488891E-02
endloop
endfacet
facet normal -0.0000000E+00 1.0000000E+00 0.0000000E+00
outer loop
vertex -1.4661176E+00 4.5000002E-02 1.4488891E-02
vertex -1.4475447E+00 4.5000002E-02 1.9893682E-02
vertex -1.4434363E+00 4.5000002E-02 1.3941697E-02
endloop
endfacet
facet normal 0.0000000E+00 1.0000000E+00 0.0000000E+00
outer loop
vertex -1.4661176E+00 4.5000002E-02 1.4488891E-02
vertex -1.4434363E+00 4.5000002E-02 1.3941697E-02
vertex -1.4625000E+00 4.5000002E-02 1.2990384E-02
endloop
endfacet
facet normal -0.0000000E+00 9.9999994E-01 0.0000000E+00
outer loop
vertex -1.4625000E+00 4.5000002E-02 1.2990384E-02
vertex -1.4434363E+00 4.5000002E-02 1.3941697E-02
vertex -1.4593934E+00 4.5000002E-02 1.0606601E-02
endloop
endfacet
facet normal -0.0000000E+00 1.0000000E+00 0.0000000E+00
outer loop
vertex -1.4593934E+00 4.5000002E-02 1.0606601E-02
vertex -1.4434363E+00 4.5000002E-02 1.3941697E-02
vertex -1.4408717E+00 4.5000002E-02 7.1794721E-03
endloop
endfacet
facet normal 0.0000000E+00 1.0000000E+00 0.0000000E+00
outer loop
vertex -1.4593934E+00 4.5000002E-02 1.0606601E-02
vertex -1.4408717E+00 4.5000002E-02 7.1794721E-03
vertex -1.4570097E+00 4.5000002E-02 7.4999994E-03
endloop
endfacet
facet normal 0.0000000E+00 9.9999994E-01 0.0000000E+00
outer loop
vertex -1.4570097E+00 4.5000002E-02 7.4999994E-03
vertex -1.4408717E+00 4.5000002E-02 7.1794721E-03
vertex -1.4555111E+00 4.5000002E-02 3.8822843E-03
endloop
endfacet
facet normal -0.0000000E+00 1.0000000E+00 0.0000000E+00
outer loop
vertex -1.4555111E+00 4.5000002E-02 3.8822843E-03
vertex -1.4408717E+00 4.5000002E-02 7.1794721E-03
vertex -1.4400001E+00 4.5000002E-02 1.8626442E-10
endloop
endfacet
facet normal 0.0000000E+00 9.9999994E-01 0.0000000E+00
outer loop
vertex -1.4555111E+00 4.5000002E-02 3.8822843E-03
vertex -1.4400001E+00 4.5000002E-02 1.8626442E-10
vertex -1.4550000E+00 4.5000002E-02 1.8626442E-10
endloop
endfacet
facet normal -0.0000000E+00 9.9999994E-01 0.0000000E+00
outer loop
vertex -1.4550000E+00 4.5000002E-02 1.8626442E-10
vertex -1.4400001E+00 4.5000002E-02 1.8626442E-10
vertex -1.4555111E+00 4.5000002E-02 -3.8822836E-03
endloop
endfacet
facet normal -0.0000000E+00 1.0000000E+00 0.0000000E+00
outer loop
vertex -1.4555111E+00 4.5000002E-02 -3.8822836E-03
vertex -1.4400001E+00 4.5000002E-02 1.8626442E-10
vertex -1.4570097E+00 4.5000002E-02 -7.4999994E-03
endloop
endfacet
facet normal -0.0000000E+00 1.0000000E+00 0.0000000E+00
outer loop
vertex -1.4570097E+00 4.5000002E-02 -7.4999994E-03
vertex -1.4400001E+00 4.5000002E-02 1.8626442E-10
vertex -1.4593934E+00 4.5000002E-02 -1.0606601E-02
endloop
endfacet
facet normal -0.0000000E+00 1.0000000E+00 0.0000000E+00
outer loop
vertex -1.4593934E+00 4.5000002E-02 -1.0606601E-02
vertex -1.4400001E+00 4.5000002E-02 1.8626442E-10
vertex -1.4625000E+00 4.5000002E-02 -1.2990384E-02
endloop
endfacet
facet normal -0.0000000E+00 9.9999994E-01 0.0000000E+00
outer loop
vertex -1.4625000E+00 4.5000002E-02 -1.2990384E-02
vertex -1.4400001E+00 4.5000002E-02 1.8626442E-10
vertex -1.4400001E+00 4.5000002E-02 -7.0000000E-02
endloop
endfacet
facet normal 0.0000000E+00 1.0000000E+00 0.0000000E+00
outer loop
vertex -1.4625000E+00 4.5000002E-02 -1.2990384E-02
vertex -1.4400001E+00 4.5000002E-02 -7.0000000E-02
vertex -1.4661176E+00 4.5000002E-02 -1.4488891E-02
endloop
endfacet
facet normal 0.0000000E+00 1.0000000E+00 0.0000000E+00
outer loop
vertex -1.4661176E+00 4.5000002E-02 -1.4488891E-02
vertex -1.4400001E+00 4.5000002E-02 -7.0000000E-02
vertex -1.4700000E+00 4.5000002E-02 -1.4999999E-02
endloop
endfacet
facet normal 0.0000000E+00 1.0000000E+00 0.0000000E+00
outer loop
vertex -1.4700000E+00 4.5000002E-02 -1.4999999E-02
vertex -1.4400001E+00 4.5000002E-02 -7.0000000E-02
vertex -1.4738823E+00 4.5000002E-02 -1.4488891E-02
endloop
endfacet
facet normal 0.0000000E+00 1.0000000E+00 0.0000000E+00
outer loop
vertex -1.4475447E+00 4.5000002E-02 1.9893682E-02
vertex -1.4924554E+00 4.5000002E-02 1.9893682E-02
vertex -1.4529580E+00 4.5000002E-02 2.4689514E-02
endloop
endfacet
facet normal 0.0000000E+00 1.0000000E+00 0.0000000E+00
outer loop
vertex -1.4529580E+00 4.5000002E-02 2.4689514E-02
vertex -1.4924554E+00 4.5000002E-02 1.9893682E-02
vertex -1.4870420E+00 4.5000002E-02 2.4689514E-02
endloop
endfacet
facet normal 0.0000000E+00 1.0000000E+00 0.0000000E+00
outer loop
vertex -1.4529580E+00 4.5000002E-02 2.4689514E-02
vertex -1.4870420E+00 4.5000002E-02 2.4689514E-02
vertex -1.4593618E+00 4.5000002E-02 2.8050486E-02
endloop
endfacet
facet normal 0.0000000E+00 1.0000000E+00 0.0000000E+00
outer loop
vertex -1.4593618E+00 4.5000002E-02 2.8050486E-02
vertex -1.4870420E+00 4.5000002E-02 2.4689514E-02
vertex -1.4806381E+00 4.5000002E-02 2.8050486E-02
endloop
endfacet
facet normal 0.0000000E+00 1.0000000E+00 0.0000000E+00
outer loop
vertex -1.4593618E+00 4.5000002E-02 2.8050486E-02
vertex -1.4806381E+00 4.5000002E-02 2.8050486E-02
vertex -1.4663839E+00 4.5000002E-02 2.9781267E-02
endloop
endfacet
facet normal 0.0000000E+00 9.9999994E-01 0.0000000E+00
outer loop
vertex -1.4663839E+00 4.5000002E-02 2.9781267E-02
vertex -1.4806381E+00 4.5000002E-02 2.8050486E-02
vertex -1.4736161E+00 4.5000002E-02 2.9781267E-02
endloop
endfacet
facet normal -9.9144697E-01 0.0000000E+00 1.3051060E-01
outer loop
vertex -1.4555111E+00 4.5000002E-02 -3.8822836E-03
vertex -1.4555111E+00 1.4999999E-02 -3.8822836E-03
vertex -1.4550000E+00 4.5000002E-02 1.8626442E-10
endloop
endfacet
facet normal -9.9144697E-01 0.0000000E+00 1.3051060E-01
outer loop
vertex -1.4550000E+00 4.5000002E-02 1.8626442E-10
vertex -1.4555111E+00 1.4999999E-02 -3.8822836E-03
vertex -1.4550000E+00 1.4999999E-02 1.8626442E-10
endloop
endfacet
facet normal -9.9144691E-01 -0.0000000E+00 -1.3051058E-01
outer loop
vertex -1.4550000E+00 4.5000002E-02 1.8626442E-10
vertex -1.4550000E+00 1.4999999E-02 1.8626442E-10
vertex -1.4555111E+00 4.5000002E-02 3.8822843E-03
endloop
endfacet
facet normal -9.9144691E-01 -0.0000000E+00 -1.3051058E-01
outer loop
vertex -1.4555111E+00 4.5000002E-02 3.8822843E-03
vertex -1.4550000E+00 1.4999999E-02 1.8626442E-10
vertex -1.4555111E+00 1.4999999E-02 3.8822843E-03
endloop
endfacet
facet normal -9.2387295E-01 -0.0000000E+00 -3.8269943E-01
outer loop
vertex -1.4555111E+00 4.5000002E-02 3.8822843E-03
vertex -1.4555111E+00 1.4999999E-02 3.8822843E-03
vertex -1.4570097E+00 4.5000002E-02 7.4999994E-03
endloop
endfacet
facet normal -9.2387295E-01 -0.0000000E+00 -3.8269943E-01
outer loop
vertex -1.4570097E+00 4.5000002E-02 7.4999994E-03
vertex -1.4555111E+00 1.4999999E-02 3.8822843E-03
vertex -1.4570097E+00 1.4999999E-02 7.4999994E-03
endloop
endfacet
facet normal -7.9336202E-01 -0.0000000E+00 -6.0875016E-01
outer loop
vertex -1.4570097E+00 4.5000002E-02 7.4999994E-03
vertex -1.4570097E+00 1.4999999E-02 7.4999994E-03
vertex -1.4593934E+00 4.5000002E-02 1.0606601E-02
endloop
endfacet
facet normal -7.9336202E-01 -0.0000000E+00 -6.0875016E-01
outer loop
vertex -1.4593934E+00 4.5000002E-02 1.0606601E-02
vertex -1.4570097E+00 1.4999999E-02 7.4999994E-03
vertex -1.4593934E+00 1.4999999E-02 1.0606601E-02
endloop
endfacet
facet normal -6.0876304E-01 -0.0000000E+00 -7.9335213E-01
outer loop
vertex -1.4593934E+00 4.5000002E-02 1.0606601E-02
vertex -1.4593934E+00 1.4999999E-02 1.0606601E-02
vertex -1.4625000E+00 4.5000002E-02 1.2990384E-02
endloop
endfacet
facet normal -6.0876304E-01 -0.0000000E+00 -7.9335213E-01
outer loop
vertex -1.4625000E+00 4.5000002E-02 1.2990384E-02
vertex -1.4593934E+00 1.4999999E-02 1.0606601E-02
vertex -1.4625000E+00 1.4999999E-02 1.2990384E-02
endloop
endfacet
facet normal -3.8268974E-01 -0.0000000E+00 -9.2387688E-01
outer loop
vertex -1.4625000E+00 4.5000002E-02 1.2990384E-02
vertex -1.4625000E+00 1.4999999E-02 1.2990384E-02
vertex -1.4661176E+00 4.5000002E-02 1.4488891E-02
endloop
endfacet
facet normal -3.8268974E-01 -0.0000000E+00 -9.2387688E-01
outer loop
vertex -1.4661176E+00 4.5000002E-02 1.4488891E-02
vertex -1.4625000E+00 1.4999999E-02 1.2990384E-02
vertex -1.4661176E+00 1.4999999E-02 1.4488891E-02
endloop
endfacet
facet normal -1.3052097E-01 -0.0000000E+00 -9.9144554E-01
outer loop
vertex -1.4661176E+00 4.5000002E-02 1.4488891E-02
vertex -1.4661176E+00 1.4999999E-02 1.4488891E-02
vertex -1.4700000E+00 4.5000002E-02 1.4999999E-02
endloop
endfacet
facet normal -1.3052097E-01 -0.0000000E+00 -9.9144554E-01
outer loop
vertex -1.4700000E+00 4.5000002E-02 1.4999999E-02
vertex -1.4661176E+00 1.4999999E-02 1.4488891E-02
vertex -1.4700000E+00 1.4999999E-02 1.4999999E-02
endloop
endfacet
facet normal 1.3052493E-01 0.0000000E+00 -9.9144506E-01
outer loop
vertex -1.4700000E+00 4.5000002E-02 1.4999999E-02
vertex -1.4700000E+00 1.4999999E-02 1.4999999E-02
vertex -1.4738823E+00 4.5000002E-02 1.4488891E-02
endloop
endfacet
facet normal 1.3052493E-01 0.0000000E+00 -9.9144506E-01
outer loop
vertex -1.4738823E+00 4.5000002E-02 1.4488891E-02
vertex -1.4700000E+00 1.4999999E-02 1.4999999E-02
vertex -1.4738823E+00 1.4999999E-02 1.4488891E-02
endloop
endfacet
facet normal 3.8268974E-01 0.0000000E+00 -9.2387688E-01
outer loop
vertex -1.4738823E+00 4.5000002E-02 1.4488891E-02
vertex -1.4738823E+00 1.4999999E-02 1.4488891E-02
vertex -1.4775000E+00 4.5000002E-02 1.2990384E-02
endloop
endfacet
facet normal 3.8268974E-01 0.0000000E+00 -9.2387688E-01
outer loop
vertex -1.4775000E+00 4.5000002E-02 1.2990384E-02
vertex -1.4738823E+00 1.4999999E-02 1.4488891E-02
vertex -1.4775000E+00 1.4999999E-02 1.2990384E-02
endloop
endfacet
facet normal 6.0876304E-01 0.0000000E+00 -7.9335213E-01
outer loop
vertex -1.4775000E+00 4.5000002E-02 1.2990384E-02
vertex -1.4775000E+00 1.4999999E-02 1.2990384E-02
vertex -1.4806066E+00 4.5000002E-02 1.0606601E-02
endloop
endfacet
facet normal 6.0876304E-01 0.0000000E+00 -7.9335213E-01
outer loop
vertex -1.4806066E+00 4.5000002E-02 1.0606601E-02
vertex -1.4775000E+00 1.4999999E-02 1.2990384E-02
vertex -1.4806066E+00 1.4999999E-02 1.0606601E-02
endloop
endfacet
facet normal 7.9334736E-01 0.0000000E+00 -6.0876930E-01
outer loop
vertex -1.4806066E+00 4.5000002E-02 1.0606601E-02
vertex -1.4806066E+00 1.4999999E-02 1.0606601E-02
vertex -1.4829904E+00 4.5000002E-02 7.4999994E-03
endloop
endfacet
facet normal 7.9334736E-01 0.0000000E+00 -6.0876930E-01
outer loop
vertex -1.4829904E+00 4.5000002E-02 7.4999994E-03
vertex -1.4806066E+00 1.4999999E-02 1.0606601E-02
vertex -1.4829904E+00 1.4999999E-02 7.4999994E-03
endloop
endfacet
facet normal 9.2388362E-01 0.0000000E+00 -3.8267341E-01
outer loop
vertex -1.4829904E+00 4.5000002E-02 7.4999994E-03
vertex -1.4829904E+00 1.4999999E-02 7.4999994E-03
vertex -1.4844888E+00 4.5000002E-02 3.8822843E-03
endloop
endfacet
facet normal 9.2388362E-01 0.0000000E+00 -3.8267341E-01
outer loop
vertex -1.4844888E+00 4.5000002E-02 3.8822843E-03
vertex -1.4829904E+00 1.4999999E-02 7.4999994E-03
vertex -1.4844888E+00 1.4999999E-02 3.8822843E-03
endloop
endfacet
facet normal 9.9144304E-01 0.0000000E+00 -1.3054052E-01
outer loop
vertex -1.4844888E+00 4.5000002E-02 3.8822843E-03
vertex -1.4844888E+00 1.4999999E-02 3.8822843E-03
vertex -1.4850000E+00 4.5000002E-02 1.8626442E-10
endloop
endfacet
facet normal 9.9144304E-01 0.0000000E+00 -1.3054052E-01
outer loop
vertex -1.4850000E+00 4.5000002E-02 1.8626442E-10
vertex -1.4844888E+00 1.4999999E-02 3.8822843E-03
vertex -1.4850000E+00 1.4999999E-02 1.8626442E-10
endloop
endfacet
facet normal 9.9144298E-01 0.0000000E+00 1.3054052E-01
outer loop
vertex -1.4850000E+00 4.5000002E-02 1.8626442E-10
vertex -1.4850000E+00 1.4999999E-02 1.8626442E-10
vertex -1.4844888E+00 4.5000002E-02 -3.8822836E-03
endloop
endfacet
facet normal 9.9144298E-01 0.0000000E+00 1.3054052E-01
outer loop
vertex -1.4844888E+00 4.5000002E-02 -3.8822836E-03
vertex -1.4850000E+00 1.4999999E-02 1.8626442E-10
vertex -1.4844888E+00 1.4999999E-02 -3.8822836E-03
endloop
endfacet
facet normal 9.2388374E-01 0.0000000E+00 3.8267335E-01
outer loop
vertex -1.4844888E+00 4.5000002E-02 -3.8822836E-03
vertex -1.4844888E+00 1.4999999E-02 -3.8822836E-03
vertex -1.4829904E+00 4.5000002E-02 -7.4999994E-03
endloop
endfacet
facet normal 9.2388374E-01 0.0000000E+00 3.8267335E-01
outer loop
vertex -1.4829904E+00 4.5000002E-02 -7.4999994E-03
vertex -1.4844888E+00 1.4999999E-02 -3.8822836E-03
vertex -1.4829904E+00 1.4999999E-02 -7.4999994E-03
endloop
endfacet
facet normal 7.9334736E-01 0.0000000E+00 6.0876930E-01
outer loop
vertex -1.4829904E+00 4.5000002E-02 -7.4999994E-03
vertex -1.4829904E+00 1.4999999E-02 -7.4999994E-03
vertex -1.4806066E+00 4.5000002E-02 -1.0606601E-02
endloop
endfacet
facet normal 7.9334736E-01 0.0000000E+00 6.0876930E-01
outer loop
vertex -1.4806066E+00 4.5000002E-02 -1.0606601E-02
vertex -1.4829904E+00 1.4999999E-02 -7.4999994E-03
vertex -1.4806066E+00 1.4999999E-02 -1.0606601E-02
endloop
endfacet
facet normal 6.0876304E-01 0.0000000E+00 7.9335213E-01
outer loop
vertex -1.4806066E+00 4.5000002E-02 -1.0606601E-02
vertex -1.4806066E+00 1.4999999E-02 -1.0606601E-02
vertex -1.4775000E+00 4.5000002E-02 -1.2990384E-02
endloop
endfacet
facet normal 6.0876304E-01 0.0000000E+00 7.9335213E-01
outer loop
vertex -1.4775000E+00 4.5000002E-02 -1.2990384E-02
vertex -1.4806066E+00 1.4999999E-02 -1.0606601E-02
vertex -1.4775000E+00 1.4999999E-02 -1.2990384E-02
endloop
endfacet
facet normal 3.8268974E-01 0.0000000E+00 9.2387688E-01
outer loop
vertex -1.4775000E+00 4.5000002E-02 -1.2990384E-02
vertex -1.4775000E+00 1.4999999E-02 -1.2990384E-02
vertex -1.4738823E+00 4.5000002E-02 -1.4488891E-02
endloop
endfacet
facet normal 3.8268974E-01 0.0000000E+00 9.2387688E-01
outer loop
vertex -1.4738823E+00 4.5000002E-02 -1.4488891E-02
vertex -1.4775000E+00 1.4999999E-02 -1.2990384E-02
vertex -1.4738823E+00 1.4999999E-02 -1.4488891E-02
endloop
endfacet
facet normal 1.3052493E-01 0.0000000E+00 9.9144506E-01
outer loop
vertex -1.4738823E+00 4.5000002E-02 -1.4488891E-02
vertex -1.4738823E+00 1.4999999E-02 -1.4488891E-02
vertex -1.4700000E+00 4.5000002E-02 -1.4999999E-02
endloop
endfacet
facet normal 1.3052493E-01 0.0000000E+00 9.9144506E-01
outer loop
vertex -1.4700000E+00 4.5000002E-02 -1.4999999E-02
vertex -1.4738823E+00 1.4999999E-02 -1.4488891E-02
vertex -1.4700000E+00 1.4999999E-02 -1.4999999E-02
endloop
endfacet
facet normal -1.3052097E-01 0.0000000E+00 9.9144554E-01
outer loop
vertex -1.4700000E+00 4.5000002E-02 -1.4999999E-02
vertex -1.4700000E+00 1.4999999E-02 -1.4999999E-02
vertex -1.4661176E+00 4.5000002E-02 -1.4488891E-02
endloop
endfacet
facet normal -1.3052097E-01 0.0000000E+00 9.9144554E-01
outer loop
vertex -1.4661176E+00 4.5000002E-02 -1.4488891E-02
vertex -1.4700000E+00 1.4999999E-02 -1.4999999E-02
vertex -1.4661176E+00 1.4999999E-02 -1.4488891E-02
endloop
endfacet
facet normal -3.8268974E-01 0.0000000E+00 9.2387688E-01
outer loop
vertex -1.4661176E+00 4.5000002E-02 -1.4488891E-02
vertex -1.4661176E+00 1.4999999E-02 -1.4488891E-02
vertex -1.4625000E+00 4.5000002E-02 -1.2990384E-02
endloop
endfacet
facet normal -3.8268974E-01 0.0000000E+00 9.2387688E-01
outer loop
vertex -1.4625000E+00 4.5000002E-02 -1.2990384E-02
vertex -1.4661176E+00 1.4999999E-02 -1.4488891E-02
vertex -1.4625000E+00 1.4999999E-02 -1.2990384E-02
endloop
endfacet
facet normal -6.0876304E-01 0.0000000E+00 7.9335213E-01
outer loop
vertex -1.4625000E+00 4.5000002E-02 -1.2990384E-02
vertex -1.4625000E+00 1.4999999E-02 -1.2990384E-02
vertex -1.4593934E+00 4.5000002E-02 -1.0606601E-02
endloop
endfacet
facet normal -6.0876304E-01 0.0000000E+00 7.9335213E-01
outer loop
vertex -1.4593934E+00 4.5000002E-02 -1.0606601E-02
vertex -1.4625000E+00 1.4999999E-02 -1.2990384E-02
vertex -1.4593934E+00 1.4999999E-02 -1.0606601E-02
endloop
endfacet
facet normal -7.9336202E-01 0.0000000E+00 6.0875016E-01
outer loop
vertex -1.4593934E+00 4.5000002E-02 -1.0606601E-02
vertex -1.4593934E+00 1.4999999E-02 -1.0606601E-02
vertex -1.4570097E+00 4.5000002E-02 -7.4999994E-03
endloop
endfacet
facet normal -7.9336202E-01 0.0000000E+00 6.0875016E-01
outer loop
vertex -1.4570097E+00 4.5000002E-02 -7.4999994E-03
vertex -1.4593934E+00 1.4999999E-02 -1.0606601E-02
vertex -1.4570097E+00 1.4999999E-02 -7.4999994E-03
endloop
endfacet
facet normal -9.2387289E-01 0.0000000E+00 3.8269934E-01
outer loop
vertex -1.4570097E+00 4.5000002E-02 -7.4999994E-03
vertex -1.4570097E+00 1.4999999E-02 -7.4999994E-03
vertex -1.4555111E+00 4.5000002E-02 -3.8822836E-03
endloop
endfacet
facet normal -9.2387289E-01 0.0000000E+00 3.8269934E-01
outer loop
vertex -1.4555111E+00 4.5000002E-02 -3.8822836E-03
vertex -1.4570097E+00 1.4999999E-02 -7.4999994E-03
vertex -1.4555111E+00 1.4999999E-02 -3.8822836E-03
endloop
endfacet
facet normal 9.9371141E-01 0.0000000E+00 1.1197148E-01
outer loop
vertex -1.4400001E+00 4.5000002E-02 -7.0000000E-02
vertex -1.4400001E+00 1.4999999E-02 -7.0000000E-02
vertex -1.4392478E+00 4.5000002E-02 -7.6675631E-02
endloop
endfacet
facet normal 9.9371141E-01 0.0000000E+00 1.1197148E-01
outer loop
vertex -1.4392478E+00 4.5000002E-02 -7.6675631E-02
vertex -1.4400001E+00 1.4999999E-02 -7.0000000E-02
vertex -1.4392478E+00 1.4999999E-02 -7.6675631E-02
endloop
endfacet
facet normal 9.4387990E-01 0.0000000E+00 3.3028889E-01
outer loop
vertex -1.4392478E+00 4.5000002E-02 -7.6675631E-02
vertex -1.4392478E+00 1.4999999E-02 -7.6675631E-02
vertex -1.4370290E+00 4.5000002E-02 -8.3016507E-02
endloop
endfacet
facet normal 9.4387990E-01 0.0000000E+00 3.3028889E-01
outer loop
vertex -1.4370290E+00 4.5000002E-02 -8.3016507E-02
vertex -1.4392478E+00 1.4999999E-02 -7.6675631E-02
vertex -1.4370290E+00 1.4999999E-02 -8.3016507E-02
endloop
endfacet
facet normal 8.4673178E-01 0.0000000E+00 5.3201997E-01
outer loop
vertex -1.4370290E+00 4.5000002E-02 -8.3016507E-02
vertex -1.4370290E+00 1.4999999E-02 -8.3016507E-02
vertex -1.4334550E+00 4.5000002E-02 -8.8704698E-02
endloop
endfacet
facet normal 8.4673178E-01 0.0000000E+00 5.3201997E-01
outer loop
vertex -1.4334550E+00 4.5000002E-02 -8.8704698E-02
vertex -1.4370290E+00 1.4999999E-02 -8.3016507E-02
vertex -1.4334550E+00 1.4999999E-02 -8.8704698E-02
endloop
endfacet
facet normal 7.0710629E-01 0.0000000E+00 7.0710737E-01
outer loop
vertex -1.4334550E+00 4.5000002E-02 -8.8704698E-02
vertex -1.4334550E+00 1.4999999E-02 -8.8704698E-02
vertex -1.4287047E+00 4.5000002E-02 -9.3454942E-02
endloop
endfacet
facet normal 7.0710629E-01 0.0000000E+00 7.0710737E-01
outer loop
vertex -1.4287047E+00 4.5000002E-02 -9.3454942E-02
vertex -1.4334550E+00 1.4999999E-02 -8.8704698E-02
vertex -1.4287047E+00 1.4999999E-02 -9.3454942E-02
endloop
endfacet
facet normal 5.3202397E-01 0.0000000E+00 8.4672934E-01
outer loop
vertex -1.4287047E+00 4.5000002E-02 -9.3454942E-02
vertex -1.4287047E+00 1.4999999E-02 -9.3454942E-02
vertex -1.4230164E+00 4.5000002E-02 -9.7029068E-02
endloop
endfacet
facet normal 5.3202397E-01 0.0000000E+00 8.4672934E-01
outer loop
vertex -1.4230164E+00 4.5000002E-02 -9.7029068E-02
vertex -1.4287047E+00 1.4999999E-02 -9.3454942E-02
vertex -1.4230164E+00 1.4999999E-02 -9.7029068E-02
endloop
endfacet
facet normal 3.3028620E-01 0.0000000E+00 9.4388086E-01
outer loop
vertex -1.4230164E+00 4.5000002E-02 -9.7029068E-02
vertex -1.4230164E+00 1.4999999E-02 -9.7029068E-02
vertex -1.4166757E+00 4.5000002E-02 -9.9247843E-02
endloop
endfacet
facet normal 3.3028620E-01 0.0000000E+00 9.4388086E-01
outer loop
vertex -1.4166757E+00 4.5000002E-02 -9.9247843E-02
vertex -1.4230164E+00 1.4999999E-02 -9.7029068E-02
vertex -1.4166757E+00 1.4999999E-02 -9.9247843E-02
endloop
endfacet
facet normal 1.1196234E-01 0.0000000E+00 9.9371248E-01
outer loop
vertex -1.4166757E+00 4.5000002E-02 -9.9247843E-02
vertex -1.4166757E+00 1.4999999E-02 -9.9247843E-02
vertex -1.4100000E+00 4.5000002E-02 -1.0000000E-01
endloop
endfacet
facet normal 1.1196234E-01 0.0000000E+00 9.9371248E-01
outer loop
vertex -1.4100000E+00 4.5000002E-02 -1.0000000E-01
vertex -1.4166757E+00 1.4999999E-02 -9.9247843E-02
vertex -1.4100000E+00 1.4999999E-02 -1.0000000E-01
endloop
endfacet
facet normal 1.0000000E+00 -0.0000000E+00 0.0000000E+00
outer loop
vertex -1.4400001E+00 1.4999999E-02 1.8626442E-10
vertex -1.4400001E+00 1.4999999E-02 -7.0000000E-02
vertex -1.4400001E+00 4.5000002E-02 1.8626442E-10
endloop
endfacet
facet normal 1.0000000E+00 0.0000000E+00 0.0000000E+00
outer loop
vertex -1.4400001E+00 4.5000002E-02 1.8626442E-10
vertex -1.4400001E+00 1.4999999E-02 -7.0000000E-02
vertex -1.4400001E+00 4.5000002E-02 -7.0000000E-02
endloop
endfacet
facet normal -9.9271035E-01 0.0000000E+00 1.2052476E-01
outer loop
vertex -1.5000000E+00 4.5000002E-02 1.8626442E-10
vertex -1.5000000E+00 1.4999999E-02 1.8626442E-10
vertex -1.4991283E+00 4.5000002E-02 7.1794721E-03
endloop
endfacet
facet normal -9.9271035E-01 0.0000000E+00 1.2052476E-01
outer loop
vertex -1.4991283E+00 4.5000002E-02 7.1794721E-03
vertex -1.5000000E+00 1.4999999E-02 1.8626442E-10
vertex -1.4991283E+00 1.4999999E-02 7.1794721E-03
endloop
endfacet
facet normal -9.3501192E-01 0.0000000E+00 3.5461637E-01
outer loop
vertex -1.4991283E+00 4.5000002E-02 7.1794721E-03
vertex -1.4991283E+00 1.4999999E-02 7.1794721E-03
vertex -1.4965637E+00 4.5000002E-02 1.3941697E-02
endloop
endfacet
facet normal -9.3501192E-01 0.0000000E+00 3.5461637E-01
outer loop
vertex -1.4965637E+00 4.5000002E-02 1.3941697E-02
vertex -1.4991283E+00 1.4999999E-02 7.1794721E-03
vertex -1.4965637E+00 1.4999999E-02 1.3941697E-02
endloop
endfacet
facet normal -8.2298708E-01 0.0000000E+00 5.6806022E-01
outer loop
vertex -1.4965637E+00 4.5000002E-02 1.3941697E-02
vertex -1.4965637E+00 1.4999999E-02 1.3941697E-02
vertex -1.4924554E+00 4.5000002E-02 1.9893682E-02
endloop
endfacet
facet normal -8.2298708E-01 0.0000000E+00 5.6806022E-01
outer loop
vertex -1.4924554E+00 4.5000002E-02 1.9893682E-02
vertex -1.4965637E+00 1.4999999E-02 1.3941697E-02
vertex -1.4924554E+00 1.4999999E-02 1.9893682E-02
endloop
endfacet
facet normal -6.6312015E-01 0.0000000E+00 7.4851304E-01
outer loop
vertex -1.4924554E+00 4.5000002E-02 1.9893682E-02
vertex -1.4924554E+00 1.4999999E-02 1.9893682E-02
vertex -1.4870420E+00 4.5000002E-02 2.4689514E-02
endloop
endfacet
facet normal -6.6312015E-01 0.0000000E+00 7.4851304E-01
outer loop
vertex -1.4870420E+00 4.5000002E-02 2.4689514E-02
vertex -1.4924554E+00 1.4999999E-02 1.9893682E-02
vertex -1.4870420E+00 1.4999999E-02 2.4689514E-02
endloop
endfacet
facet normal -4.6472275E-01 0.0000000E+00 8.8545620E-01
outer loop
vertex -1.4870420E+00 4.5000002E-02 2.4689514E-02
vertex -1.4870420E+00 1.4999999E-02 2.4689514E-02
vertex -1.4806381E+00 4.5000002E-02 2.8050486E-02
endloop
endfacet
facet normal -4.6472275E-01 0.0000000E+00 8.8545620E-01
outer loop
vertex -1.4806381E+00 4.5000002E-02 2.8050486E-02
vertex -1.4870420E+00 1.4999999E-02 2.4689514E-02
vertex -1.4806381E+00 1.4999999E-02 2.8050486E-02
endloop
endfacet
facet normal -2.3931670E-01 0.0000000E+00 9.7094160E-01
outer loop
vertex -1.4806381E+00 4.5000002E-02 2.8050486E-02
vertex -1.4806381E+00 1.4999999E-02 2.8050486E-02
vertex -1.4736161E+00 4.5000002E-02 2.9781267E-02
endloop
endfacet
facet normal -2.3931670E-01 0.0000000E+00 9.7094160E-01
outer loop
vertex -1.4736161E+00 4.5000002E-02 2.9781267E-02
vertex -1.4806381E+00 1.4999999E-02 2.8050486E-02
vertex -1.4736161E+00 1.4999999E-02 2.9781267E-02
endloop
endfacet
facet normal -0.0000000E+00 0.0000000E+00 1.0000000E+00
outer loop
vertex -1.4736161E+00 4.5000002E-02 2.9781267E-02
vertex -1.4736161E+00 1.4999999E-02 2.9781267E-02
vertex -1.4663839E+00 4.5000002E-02 2.9781267E-02
endloop
endfacet
facet normal 0.0000000E+00 0.0000000E+00 1.0000000E+00
outer loop
vertex -1.4663839E+00 4.5000002E-02 2.9781267E-02
vertex -1.4736161E+00 1.4999999E-02 2.9781267E-02
vertex -1.4663839E+00 1.4999999E-02 2.9781267E-02
endloop
endfacet
facet normal 2.3931284E-01 0.0000000E+00 9.7094250E-01
outer loop
vertex -1.4663839E+00 4.5000002E-02 2.9781267E-02
vertex -1.4663839E+00 1.4999999E-02 2.9781267E-02
vertex -1.4593618E+00 4.5000002E-02 2.8050486E-02
endloop
endfacet
facet normal 2.3931284E-01 0.0000000E+00 9.7094250E-01
outer loop
vertex -1.4593618E+00 4.5000002E-02 2.8050486E-02
vertex -1.4663839E+00 1.4999999E-02 2.9781267E-02
vertex -1.4593618E+00 1.4999999E-02 2.8050486E-02
endloop
endfacet
facet normal 4.6472275E-01 0.0000000E+00 8.8545620E-01
outer loop
vertex -1.4593618E+00 4.5000002E-02 2.8050486E-02
vertex -1.4593618E+00 1.4999999E-02 2.8050486E-02
vertex -1.4529580E+00 4.5000002E-02 2.4689514E-02
endloop
endfacet
facet normal 4.6472275E-01 0.0000000E+00 8.8545620E-01
outer loop
vertex -1.4529580E+00 4.5000002E-02 2.4689514E-02
vertex -1.4593618E+00 1.4999999E-02 2.8050486E-02
vertex -1.4529580E+00 1.4999999E-02 2.4689514E-02
endloop
endfacet
facet normal 6.6312826E-01 0.0000000E+00 7.4850577E-01
outer loop
vertex -1.4529580E+00 4.5000002E-02 2.4689514E-02
vertex -1.4529580E+00 1.4999999E-02 2.4689514E-02
vertex -1.4475447E+00 4.5000002E-02 1.9893682E-02
endloop
endfacet
facet normal 6.6312826E-01 0.0000000E+00 7.4850577E-01
outer loop
vertex -1.4475447E+00 4.5000002E-02 1.9893682E-02
vertex -1.4529580E+00 1.4999999E-02 2.4689514E-02
vertex -1.4475447E+00 1.4999999E-02 1.9893682E-02
endloop
endfacet
facet normal 8.2297927E-01 0.0000000E+00 5.6807137E-01
outer loop
vertex -1.4475447E+00 4.5000002E-02 1.9893682E-02
vertex -1.4475447E+00 1.4999999E-02 1.9893682E-02
vertex -1.4434363E+00 4.5000002E-02 1.3941697E-02
endloop
endfacet
facet normal 8.2297927E-01 0.0000000E+00 5.6807137E-01
outer loop
vertex -1.4434363E+00 4.5000002E-02 1.3941697E-02
vertex -1.4475447E+00 1.4999999E-02 1.9893682E-02
vertex -1.4434363E+00 1.4999999E-02 1.3941697E-02
endloop
endfacet
facet normal 9.3501741E-01 0.0000000E+00 3.5460198E-01
outer loop
vertex -1.4434363E+00 4.5000002E-02 1.3941697E-02
vertex -1.4434363E+00 1.4999999E-02 1.3941697E-02
vertex -1.4408717E+00 4.5000002E-02 7.1794721E-03
endloop
endfacet
facet normal 9.3501741E-01 0.0000000E+00 3.5460198E-01
outer loop
vertex -1.4408717E+00 4.5000002E-02 7.1794721E-03
vertex -1.4434363E+00 1.4999999E-02 1.3941697E-02
vertex -1.4408717E+00 1.4999999E-02 7.1794721E-03
endloop
endfacet
facet normal 9.9271035E-01 0.0000000E+00 1.2052476E-01
outer loop
vertex -1.4408717E+00 4.5000002E-02 7.1794721E-03
vertex -1.4408717E+00 1.4999999E-02 7.1794721E-03
vertex -1.4400001E+00 4.5000002E-02 1.8626442E-10
endloop
endfacet
facet normal 9.9271035E-01 0.0000000E+00 1.2052476E-01
outer loop
vertex -1.4400001E+00 4.5000002E-02 1.8626442E-10
vertex -1.4408717E+00 1.4999999E-02 7.1794721E-03
vertex -1.4400001E+00 1.4999999E-02 1.8626442E-10
endloop
endfacet
facet normal -1.0000000E+00 0.0000000E+00 0.0000000E+00
outer loop
vertex -1.5000000E+00 1.4999999E-02 -1.3000000E-01
vertex -1.5000000E+00 1.4999999E-02 1.8626442E-10
vertex -1.5000000E+00 4.5000002E-02 -1.3000000E-01
endloop
endfacet
facet normal -1.0000000E+00 0.0000000E+00 0.0000000E+00
outer loop
vertex -1.5000000E+00 4.5000002E-02 -1.3000000E-01
vertex -1.5000000E+00 1.4999999E-02 1.8626442E-10
vertex -1.5000000E+00 4.5000002E-02 1.8626442E-10
endloop
endfacet
facet normal -1.1196540E-01 -0.0000000E+00 -9.9371213E-01
outer loop
vertex -1.4700000E+00 4.5000002E-02 -1.6000000E-01
vertex -1.4700000E+00 1.4999999E-02 -1.6000000E-01
vertex -1.4766756E+00 4.5000002E-02 -1.5924783E-01
endloop
endfacet
facet normal -1.1196540E-01 -0.0000000E+00 -9.9371213E-01
outer loop
vertex -1.4766756E+00 4.5000002E-02 -1.5924783E-01
vertex -1.4700000E+00 1.4999999E-02 -1.6000000E-01
vertex -1.4766756E+00 1.4999999E-02 -1.5924783E-01
endloop
endfacet
facet normal -3.3027968E-01 -0.0000000E+00 -9.4388312E-01
outer loop
vertex -1.4766756E+00 4.5000002E-02 -1.5924783E-01
vertex -1.4766756E+00 1.4999999E-02 -1.5924783E-01
vertex -1.4830165E+00 4.5000002E-02 -1.5702906E-01
endloop
endfacet
facet normal -3.3027968E-01 -0.0000000E+00 -9.4388312E-01
outer loop
vertex -1.4830165E+00 4.5000002E-02 -1.5702906E-01
vertex -1.4766756E+00 1.4999999E-02 -1.5924783E-01
vertex -1.4830165E+00 1.4999999E-02 -1.5702906E-01
endloop
endfacet
facet normal -5.3203112E-01 -0.0000000E+00 -8.4672475E-01
outer loop
vertex -1.4830165E+00 4.5000002E-02 -1.5702906E-01
vertex -1.4830165E+00 1.4999999E-02 -1.5702906E-01
vertex -1.4887047E+00 4.5000002E-02 -1.5345494E-01
endloop
endfacet
facet normal -5.3203112E-01 -0.0000000E+00 -8.4672475E-01
outer loop
vertex -1.4887047E+00 4.5000002E-02 -1.5345494E-01
vertex -1.4830165E+00 1.4999999E-02 -1.5702906E-01
vertex -1.4887047E+00 1.4999999E-02 -1.5345494E-01
endloop
endfacet
facet normal -7.0710677E-01 -0.0000000E+00 -7.0710677E-01
outer loop
vertex -1.4887047E+00 4.5000002E-02 -1.5345494E-01
vertex -1.4887047E+00 1.4999999E-02 -1.5345494E-01
vertex -1.4934549E+00 4.5000002E-02 -1.4870469E-01
endloop
endfacet
facet normal -7.0710677E-01 -0.0000000E+00 -7.0710677E-01
outer loop
vertex -1.4934549E+00 4.5000002E-02 -1.4870469E-01
vertex -1.4887047E+00 1.4999999E-02 -1.5345494E-01
vertex -1.4934549E+00 1.4999999E-02 -1.4870469E-01
endloop
endfacet
facet normal -8.4672320E-01 -0.0000000E+00 -5.3203368E-01
outer loop
vertex -1.4934549E+00 4.5000002E-02 -1.4870469E-01
vertex -1.4934549E+00 1.4999999E-02 -1.4870469E-01
vertex -1.4970291E+00 4.5000002E-02 -1.4301652E-01
endloop
endfacet
facet normal -8.4672320E-01 -0.0000000E+00 -5.3203368E-01
outer loop
vertex -1.4970291E+00 4.5000002E-02 -1.4301652E-01
vertex -1.4934549E+00 1.4999999E-02 -1.4870469E-01
vertex -1.4970291E+00 1.4999999E-02 -1.4301652E-01
endloop
endfacet
facet normal -9.4388562E-01 -0.0000000E+00 -3.3027235E-01
outer loop
vertex -1.4970291E+00 4.5000002E-02 -1.4301652E-01
vertex -1.4970291E+00 1.4999999E-02 -1.4301652E-01
vertex -1.4992478E+00 4.5000002E-02 -1.3667563E-01
endloop
endfacet
facet normal -9.4388562E-01 -0.0000000E+00 -3.3027235E-01
outer loop
vertex -1.4992478E+00 4.5000002E-02 -1.3667563E-01
vertex -1.4970291E+00 1.4999999E-02 -1.4301652E-01
vertex -1.4992478E+00 1.4999999E-02 -1.3667563E-01
endloop
endfacet
facet normal -9.9371141E-01 -0.0000000E+00 -1.1197148E-01
outer loop
vertex -1.4992478E+00 4.5000002E-02 -1.3667563E-01
vertex -1.4992478E+00 1.4999999E-02 -1.3667563E-01
vertex -1.5000000E+00 4.5000002E-02 -1.3000000E-01
endloop
endfacet
facet normal -9.9371141E-01 -0.0000000E+00 -1.1197148E-01
outer loop
vertex -1.5000000E+00 4.5000002E-02 -1.3000000E-01
vertex -1.4992478E+00 1.4999999E-02 -1.3667563E-01
vertex -1.5000000E+00 1.4999999E-02 -1.3000000E-01
endloop
endfacet
facet normal 0.0000000E+00 -0.0000000E+00 -1.0000000E+00
outer loop
vertex 2.9999999E-02 7.5000003E-02 -1.6000000E-01
vertex 2.9999999E-02 1.4999999E-02 -1.6000000E-01
vertex 9.9999998E-03 4.5000002E-02 -1.6000000E-01
endloop
endfacet
facet normal 0.0000000E+00 -0.0000000E+00 -1.0000000E+00
outer loop
vertex 9.9999998E-03 4.5000002E-02 -1.6000000E-01
vertex 2.9999999E-02 1.4999999E-02 -1.6000000E-01
vertex -1.4700000E+00 1.4999999E-02 -1.6000000E-01
endloop
endfacet
facet normal -0.0000000E+00 0.0000000E+00 -1.0000000E+00
outer loop
vertex 9.9999998E-03 4.5000002E-02 -1.6000000E-01
vertex -1.4700000E+00 1.4999999E-02 -1.6000000E-01
vertex -1.4700000E+00 4.5000002E-02 -1.6000000E-01
endloop
endfacet
facet normal 0.0000000E+00 0.0000000E+00 -1.0000000E+00
outer loop
vertex 9.9999998E-03 4.5000002E-02 -1.6000000E-01
vertex 9.9999998E-03 7.5000003E-02 -1.6000000E-01
vertex 2.9999999E-02 7.5000003E-02 -1.6000000E-01
endloop
endfacet
facet normal 9.9999994E-01 -0.0000000E+00 0.0000000E+00
outer loop
vertex 2.9999999E-02 1.4999999E-02 -1.0000000E-01
vertex 2.9999999E-02 1.4999999E-02 -1.6000000E-01
vertex 2.9999999E-02 7.5000003E-02 -1.0000000E-01
endloop
endfacet
facet normal 9.9999994E-01 0.0000000E+00 0.0000000E+00
outer loop
vertex 2.9999999E-02 7.5000003E-02 -1.0000000E-01
vertex 2.9999999E-02 1.4999999E-02 -1.6000000E-01
vertex 2.9999999E-02 7.5000003E-02 -1.6000000E-01
endloop
endfacet
facet normal -0.0000000E+00 0.0000000E+00 9.9999994E-01
outer loop
vertex -1.4100000E+00 4.5000002E-02 -1.0000000E-01
vertex -1.4100000E+00 1.4999999E-02 -1.0000000E-01
vertex 9.9999998E-03 4.5000002E-02 -1.0000000E-01
endloop
endfacet
facet normal 0.0000000E+00 0.0000000E+00 1.0000000E+00
outer loop
vertex 9.9999998E-03 4.5000002E-02 -1.0000000E-01
vertex -1.4100000E+00 1.4999999E-02 -1.0000000E-01
vertex 2.9999999E-02 1.4999999E-02 -1.0000000E-01
endloop
endfacet
facet normal -0.0000000E+00 0.0000000E+00 1.0000000E+00
outer loop
vertex 9.9999998E-03 4.5000002E-02 -1.0000000E-01
vertex 2.9999999E-02 1.4999999E-02 -1.0000000E-01
vertex 2.9999999E-02 7.5000003E-02 -1.0000000E-01
endloop
endfacet
facet normal 0.0000000E+00 0.0000000E+00 1.0000000E+00
outer loop
vertex 2.9999999E-02 7.5000003E-02 -1.0000000E-01
vertex 9.9999998E-03 7.5000003E-02 -1.0000000E-01
vertex 9.9999998E-03 4.5000002E-02 -1.0000000E-01
endloop
endfacet
facet normal 0.0000000E+00 -9.9999994E-01 0.0000000E+00
outer loop
vertex -1.4555111E+00 1.4999999E-02 3.8822843E-03
vertex -1.4550000E+00 1.4999999E-02 1.8626442E-10
vertex -1.4400001E+00 1.4999999E-02 1.8626442E-10
endloop
endfacet
facet normal -0.0000000E+00 -9.9999994E-01 0.0000000E+00
outer loop
vertex -1.4400001E+00 1.4999999E-02 1.8626442E-10
vertex -1.4550000E+00 1.4999999E-02 1.8626442E-10
vertex -1.4555111E+00 1.4999999E-02 -3.8822836E-03
endloop
endfacet
facet normal 0.0000000E+00 -1.0000000E+00 0.0000000E+00
outer loop
vertex -1.4400001E+00 1.4999999E-02 1.8626442E-10
vertex -1.4555111E+00 1.4999999E-02 -3.8822836E-03
vertex -1.4570097E+00 1.4999999E-02 -7.4999994E-03
endloop
endfacet
facet normal 0.0000000E+00 -1.0000000E+00 -0.0000000E+00
outer loop
vertex -1.4570097E+00 1.4999999E-02 -7.4999994E-03
vertex -1.4593934E+00 1.4999999E-02 -1.0606601E-02
vertex -1.4400001E+00 1.4999999E-02 1.8626442E-10
endloop
endfacet
facet normal 0.0000000E+00 -1.0000000E+00 0.0000000E+00
outer loop
vertex -1.4400001E+00 1.4999999E-02 1.8626442E-10
vertex -1.4593934E+00 1.4999999E-02 -1.0606601E-02
vertex -1.4625000E+00 1.4999999E-02 -1.2990384E-02
endloop
endfacet
facet normal 0.0000000E+00 -9.9999994E-01 -0.0000000E+00
outer loop
vertex -1.4400001E+00 1.4999999E-02 1.8626442E-10
vertex -1.4625000E+00 1.4999999E-02 -1.2990384E-02
vertex -1.4400001E+00 1.4999999E-02 -7.0000000E-02
endloop
endfacet
facet normal 0.0000000E+00 -1.0000000E+00 0.0000000E+00
outer loop
vertex -1.4400001E+00 1.4999999E-02 -7.0000000E-02
vertex -1.4625000E+00 1.4999999E-02 -1.2990384E-02
vertex -1.4661176E+00 1.4999999E-02 -1.4488891E-02
endloop
endfacet
facet normal 0.0000000E+00 -1.0000000E+00 0.0000000E+00
outer loop
vertex -1.4400001E+00 1.4999999E-02 -7.0000000E-02
vertex -1.4661176E+00 1.4999999E-02 -1.4488891E-02
vertex -1.4700000E+00 1.4999999E-02 -1.4999999E-02
endloop
endfacet
facet normal -0.0000000E+00 -1.0000000E+00 -0.0000000E+00
outer loop
vertex -1.4700000E+00 1.4999999E-02 -1.4999999E-02
vertex -1.4738823E+00 1.4999999E-02 -1.4488891E-02
vertex -1.4400001E+00 1.4999999E-02 -7.0000000E-02
endloop
endfacet
facet normal 0.0000000E+00 -1.0000000E+00 0.0000000E+00
outer loop
vertex -1.4400001E+00 1.4999999E-02 -7.0000000E-02
vertex -1.4738823E+00 1.4999999E-02 -1.4488891E-02
vertex -1.4775000E+00 1.4999999E-02 -1.2990384E-02
endloop
endfacet
facet normal -0.0000000E+00 -1.0000000E+00 0.0000000E+00
outer loop
vertex -1.4400001E+00 1.4999999E-02 -7.0000000E-02
vertex -1.4775000E+00 1.4999999E-02 -1.2990384E-02
vertex -1.5000000E+00 1.4999999E-02 -1.3000000E-01
endloop
endfacet
facet normal 0.0000000E+00 -1.0000000E+00 0.0000000E+00
outer loop
vertex -1.5000000E+00 1.4999999E-02 -1.3000000E-01
vertex -1.4775000E+00 1.4999999E-02 -1.2990384E-02
vertex -1.5000000E+00 1.4999999E-02 1.8626442E-10
endloop
endfacet
facet normal 0.0000000E+00 -1.0000000E+00 0.0000000E+00
outer loop
vertex -1.5000000E+00 1.4999999E-02 1.8626442E-10
vertex -1.4775000E+00 1.4999999E-02 -1.2990384E-02
vertex -1.4806066E+00 1.4999999E-02 -1.0606601E-02
endloop
endfacet
facet normal 0.0000000E+00 -1.0000000E+00 0.0000000E+00
outer loop
vertex -1.5000000E+00 1.4999999E-02 1.8626442E-10
vertex -1.4806066E+00 1.4999999E-02 -1.0606601E-02
vertex -1.4829904E+00 1.4999999E-02 -7.4999994E-03
endloop
endfacet
facet normal 0.0000000E+00 -1.0000000E+00 0.0000000E+00
outer loop
vertex -1.4829904E+00 1.4999999E-02 -7.4999994E-03
vertex -1.4844888E+00 1.4999999E-02 -3.8822836E-03
vertex -1.5000000E+00 1.4999999E-02 1.8626442E-10
endloop
endfacet
facet normal 0.0000000E+00 -9.9999994E-01 0.0000000E+00
outer loop
vertex -1.5000000E+00 1.4999999E-02 1.8626442E-10
vertex -1.4844888E+00 1.4999999E-02 -3.8822836E-03
vertex -1.4850000E+00 1.4999999E-02 1.8626442E-10
endloop
endfacet
facet normal 0.0000000E+00 -1.0000000E+00 0.0000000E+00
outer loop
vertex -1.5000000E+00 1.4999999E-02 1.8626442E-10
vertex -1.4850000E+00 1.4999999E-02 1.8626442E-10
vertex -1.4844888E+00 1.4999999E-02 3.8822843E-03
endloop
endfacet
facet normal 0.0000000E+00 -1.0000000E+00 0.0000000E+00
outer loop
vertex -1.5000000E+00 1.4999999E-02 1.8626442E-10
vertex -1.4844888E+00 1.4999999E-02 3.8822843E-03
vertex -1.4991283E+00 1.4999999E-02 7.1794721E-03
endloop
endfacet
facet normal 0.0000000E+00 -1.0000000E+00 0.0000000E+00
outer loop
vertex -1.4991283E+00 1.4999999E-02 7.1794721E-03
vertex -1.4844888E+00 1.4999999E-02 3.8822843E-03
vertex -1.4829904E+00 1.4999999E-02 7.4999994E-03
endloop
endfacet
facet normal 0.0000000E+00 -1.0000000E+00 0.0000000E+00
outer loop
vertex -1.4991283E+00 1.4999999E-02 7.1794721E-03
vertex -1.4829904E+00 1.4999999E-02 7.4999994E-03
vertex -1.4806066E+00 1.4999999E-02 1.0606601E-02
endloop
endfacet
facet normal 0.0000000E+00 -1.0000000E+00 0.0000000E+00
outer loop
vertex -1.4991283E+00 1.4999999E-02 7.1794721E-03
vertex -1.4806066E+00 1.4999999E-02 1.0606601E-02
vertex -1.4965637E+00 1.4999999E-02 1.3941697E-02
endloop
endfacet
facet normal 0.0000000E+00 -9.9999994E-01 0.0000000E+00
outer loop
vertex -1.4965637E+00 1.4999999E-02 1.3941697E-02
vertex -1.4806066E+00 1.4999999E-02 1.0606601E-02
vertex -1.4775000E+00 1.4999999E-02 1.2990384E-02
endloop
endfacet
facet normal 0.0000000E+00 -1.0000000E+00 0.0000000E+00
outer loop
vertex -1.4965637E+00 1.4999999E-02 1.3941697E-02
vertex -1.4775000E+00 1.4999999E-02 1.2990384E-02
vertex -1.4738823E+00 1.4999999E-02 1.4488891E-02
endloop
endfacet
facet normal -0.0000000E+00 -1.0000000E+00 0.0000000E+00
outer loop
vertex -1.4738823E+00 1.4999999E-02 1.4488891E-02
vertex -1.4700000E+00 1.4999999E-02 1.4999999E-02
vertex -1.4965637E+00 1.4999999E-02 1.3941697E-02
endloop
endfacet
facet normal 0.0000000E+00 -1.0000000E+00 0.0000000E+00
outer loop
vertex -1.4965637E+00 1.4999999E-02 1.3941697E-02
vertex -1.4700000E+00 1.4999999E-02 1.4999999E-02
vertex -1.4924554E+00 1.4999999E-02 1.9893682E-02
endloop
endfacet
facet normal 0.0000000E+00 -1.0000000E+00 0.0000000E+00
outer loop
vertex -1.4924554E+00 1.4999999E-02 1.9893682E-02
vertex -1.4700000E+00 1.4999999E-02 1.4999999E-02
vertex -1.4475447E+00 1.4999999E-02 1.9893682E-02
endloop
endfacet
facet normal 0.0000000E+00 -1.0000000E+00 0.0000000E+00
outer loop
vertex -1.4924554E+00 1.4999999E-02 1.9893682E-02
vertex -1.4475447E+00 1.4999999E-02 1.9893682E-02
vertex -1.4870420E+00 1.4999999E-02 2.4689514E-02
endloop
endfacet
facet normal 0.0000000E+00 -1.0000000E+00 0.0000000E+00
outer loop
vertex -1.4870420E+00 1.4999999E-02 2.4689514E-02
vertex -1.4475447E+00 1.4999999E-02 1.9893682E-02
vertex -1.4529580E+00 1.4999999E-02 2.4689514E-02
endloop
endfacet
facet normal 0.0000000E+00 -1.0000000E+00 0.0000000E+00
outer loop
vertex -1.4870420E+00 1.4999999E-02 2.4689514E-02
vertex -1.4529580E+00 1.4999999E-02 2.4689514E-02
vertex -1.4806381E+00 1.4999999E-02 2.8050486E-02
endloop
endfacet
facet normal 0.0000000E+00 -1.0000000E+00 0.0000000E+00
outer loop
vertex -1.4806381E+00 1.4999999E-02 2.8050486E-02
vertex -1.4529580E+00 1.4999999E-02 2.4689514E-02
vertex -1.4593618E+00 1.4999999E-02 2.8050486E-02
endloop
endfacet
facet normal 0.0000000E+00 -1.0000000E+00 0.0000000E+00
outer loop
vertex -1.4806381E+00 1.4999999E-02 2.8050486E-02
vertex -1.4593618E+00 1.4999999E-02 2.8050486E-02
vertex -1.4736161E+00 1.4999999E-02 2.9781267E-02
endloop
endfacet
facet normal 0.0000000E+00 -9.9999994E-01 0.0000000E+00
outer loop
vertex -1.4736161E+00 1.4999999E-02 2.9781267E-02
vertex -1.4593618E+00 1.4999999E-02 2.8050486E-02
vertex -1.4663839E+00 1.4999999E-02 2.9781267E-02
endloop
endfacet
facet normal 0.0000000E+00 -1.0000000E+00 -0.0000000E+00
outer loop
vertex -1.4475447E+00 1.4999999E-02 1.9893682E-02
vertex -1.4700000E+00 1.4999999E-02 1.4999999E-02
vertex -1.4434363E+00 1.4999999E-02 1.3941697E-02
endloop
endfacet
facet normal 0.0000000E+00 -1.0000000E+00 0.0000000E+00
outer loop
vertex -1.4434363E+00 1.4999999E-02 1.3941697E-02
vertex -1.4700000E+00 1.4999999E-02 1.4999999E-02
vertex -1.4661176E+00 1.4999999E-02 1.4488891E-02
endloop
endfacet
facet normal -0.0000000E+00 -1.0000000E+00 0.0000000E+00
outer loop
vertex -1.4434363E+00 1.4999999E-02 1.3941697E-02
vertex -1.4661176E+00 1.4999999E-02 1.4488891E-02
vertex -1.4625000E+00 1.4999999E-02 1.2990384E-02
endloop
endfacet
facet normal 0.0000000E+00 -9.9999994E-01 0.0000000E+00
outer loop
vertex -1.4625000E+00 1.4999999E-02 1.2990384E-02
vertex -1.4593934E+00 1.4999999E-02 1.0606601E-02
vertex -1.4434363E+00 1.4999999E-02 1.3941697E-02
endloop
endfacet
facet normal 0.0000000E+00 -1.0000000E+00 -0.0000000E+00
outer loop
vertex -1.4434363E+00 1.4999999E-02 1.3941697E-02
vertex -1.4593934E+00 1.4999999E-02 1.0606601E-02
vertex -1.4408717E+00 1.4999999E-02 7.1794721E-03
endloop
endfacet
facet normal 0.0000000E+00 -1.0000000E+00 0.0000000E+00
outer loop
vertex -1.4408717E+00 1.4999999E-02 7.1794721E-03
vertex -1.4593934E+00 1.4999999E-02 1.0606601E-02
vertex -1.4570097E+00 1.4999999E-02 7.4999994E-03
endloop
endfacet
facet normal -0.0000000E+00 -1.0000000E+00 0.0000000E+00
outer loop
vertex -1.4408717E+00 1.4999999E-02 7.1794721E-03
vertex -1.4570097E+00 1.4999999E-02 7.4999994E-03
vertex -1.4555111E+00 1.4999999E-02 3.8822843E-03
endloop
endfacet
facet normal 0.0000000E+00 -1.0000000E+00 -0.0000000E+00
outer loop
vertex -1.4408717E+00 1.4999999E-02 7.1794721E-03
vertex -1.4555111E+00 1.4999999E-02 3.8822843E-03
vertex -1.4400001E+00 1.4999999E-02 1.8626442E-10
endloop
endfacet
facet normal -0.0000000E+00 -1.0000000E+00 -0.0000000E+00
outer loop
vertex 2.9999999E-02 1.4999999E-02 -1.0000000E-01
vertex -1.4100000E+00 1.4999999E-02 -1.0000000E-01
vertex 2.9999999E-02 1.4999999E-02 -1.6000000E-01
endloop
endfacet
facet normal 0.0000000E+00 -1.0000000E+00 0.0000000E+00
outer loop
vertex 2.9999999E-02 1.4999999E-02 -1.6000000E-01
vertex -1.4100000E+00 1.4999999E-02 -1.0000000E-01
vertex -1.4700000E+00 1.4999999E-02 -1.6000000E-01
endloop
endfacet
facet normal 0.0000000E+00 -1.0000000E+00 0.0000000E+00
outer loop
vertex -1.4700000E+00 1.4999999E-02 -1.6000000E-01
vertex -1.4100000E+00 1.4999999E-02 -1.0000000E-01
vertex -1.4970291E+00 1.4999999E-02 -1.4301652E-01
endloop
endfacet
facet normal 0.0000000E+00 -1.0000000E+00 0.0000000E+00
outer loop
vertex -1.4700000E+00 1.4999999E-02 -1.6000000E-01
vertex -1.4970291E+00 1.4999999E-02 -1.4301652E-01
vertex -1.4934549E+00 1.4999999E-02 -1.4870469E-01
endloop
endfacet
facet normal 0.0000000E+00 -1.0000000E+00 -0.0000000E+00
outer loop
vertex -1.4166757E+00 1.4999999E-02 -9.9247843E-02
vertex -1.5000000E+00 1.4999999E-02 -1.3000000E-01
vertex -1.4100000E+00 1.4999999E-02 -1.0000000E-01
endloop
endfacet
facet normal 0.0000000E+00 -1.0000000E+00 0.0000000E+00
outer loop
vertex -1.4100000E+00 1.4999999E-02 -1.0000000E-01
vertex -1.5000000E+00 1.4999999E-02 -1.3000000E-01
vertex -1.4992478E+00 1.4999999E-02 -1.3667563E-01
endloop
endfacet
facet normal 0.0000000E+00 -1.0000000E+00 0.0000000E+00
outer loop
vertex -1.4100000E+00 1.4999999E-02 -1.0000000E-01
vertex -1.4992478E+00 1.4999999E-02 -1.3667563E-01
vertex -1.4970291E+00 1.4999999E-02 -1.4301652E-01
endloop
endfacet
facet normal -0.0000000E+00 -1.0000000E+00 0.0000000E+00
outer loop
vertex -1.4166757E+00 1.4999999E-02 -9.9247843E-02
vertex -1.4230164E+00 1.4999999E-02 -9.7029068E-02
vertex -1.5000000E+00 1.4999999E-02 -1.3000000E-01
endloop
endfacet
facet normal 0.0000000E+00 -1.0000000E+00 0.0000000E+00
outer loop
vertex -1.5000000E+00 1.4999999E-02 -1.3000000E-01
vertex -1.4230164E+00 1.4999999E-02 -9.7029068E-02
vertex -1.4287047E+00 1.4999999E-02 -9.3454942E-02
endloop
endfacet
facet normal 0.0000000E+00 -1.0000000E+00 0.0000000E+00
outer loop
vertex -1.5000000E+00 1.4999999E-02 -1.3000000E-01
vertex -1.4287047E+00 1.4999999E-02 -9.3454942E-02
vertex -1.4334550E+00 1.4999999E-02 -8.8704698E-02
endloop
endfacet
facet normal -0.0000000E+00 -1.0000000E+00 0.0000000E+00
outer loop
vertex -1.4334550E+00 1.4999999E-02 -8.8704698E-02
vertex -1.4370290E+00 1.4999999E-02 -8.3016507E-02
vertex -1.5000000E+00 1.4999999E-02 -1.3000000E-01
endloop
endfacet
facet normal 0.0000000E+00 -1.0000000E+00 0.0000000E+00
outer loop
vertex -1.5000000E+00 1.4999999E-02 -1.3000000E-01
vertex -1.4370290E+00 1.4999999E-02 -8.3016507E-02
vertex -1.4392478E+00 1.4999999E-02 -7.6675631E-02
endloop
endfacet
facet normal 0.0000000E+00 -1.0000000E+00 0.0000000E+00
outer loop
vertex -1.5000000E+00 1.4999999E-02 -1.3000000E-01
vertex -1.4392478E+00 1.4999999E-02 -7.6675631E-02
vertex -1.4400001E+00 1.4999999E-02 -7.0000000E-02
endloop
endfacet
facet normal 0.0000000E+00 -1.0000000E+00 0.0000000E+00
outer loop
vertex -1.4934549E+00 1.4999999E-02 -1.4870469E-01
vertex -1.4887047E+00 1.4999999E-02 -1.5345494E-01
vertex -1.4700000E+00 1.4999999E-02 -1.6000000E-01
endloop
endfacet
facet normal 0.0000000E+00 -1.0000000E+00 0.0000000E+00
outer loop
vertex -1.4700000E+00 1.4999999E-02 -1.6000000E-01
vertex -1.4887047E+00 1.4999999E-02 -1.5345494E-01
vertex -1.4830165E+00 1.4999999E-02 -1.5702906E-01
endloop
endfacet
facet normal 0.0000000E+00 -1.0000000E+00 0.0000000E+00
outer loop
vertex -1.4700000E+00 1.4999999E-02 -1.6000000E-01
vertex -1.4830165E+00 1.4999999E-02 -1.5702906E-01
vertex -1.4766756E+00 1.4999999E-02 -1.5924783E-01
endloop
endfacet
endsolid Created by stlwrite.m 09-Sep-2021 17:11:21
