solid Created by stlwrite.m 09-Sep-2021 17:11:21
facet normal 0.0000000E+00 0.0000000E+00 1.0000000E+00
outer loop
vertex -7.0000000E-02 -3.6000001E-01 -1.9072999E-09
vertex -3.5000000E-02 -3.6000001E-01 -1.9072999E-09
vertex -7.0000000E-02 -3.0000001E-01 -1.9072999E-09
endloop
endfacet
facet normal -0.0000000E+00 0.0000000E+00 1.0000000E+00
outer loop
vertex -7.0000000E-02 -3.0000001E-01 -1.9072999E-09
vertex -3.5000000E-02 -3.6000001E-01 -1.9072999E-09
vertex -3.5000000E-02 -3.0000001E-01 -1.9072999E-09
endloop
endfacet
facet normal 7.0710677E-01 0.0000000E+00 7.0710683E-01
outer loop
vertex -2.0000000E-02 -3.0000001E-01 -1.5000001E-02
vertex -3.5000000E-02 -3.0000001E-01 -1.9072999E-09
vertex -2.0000000E-02 -3.6000001E-01 -1.5000001E-02
endloop
endfacet
facet normal 7.0710677E-01 0.0000000E+00 7.0710683E-01
outer loop
vertex -2.0000000E-02 -3.6000001E-01 -1.5000001E-02
vertex -3.5000000E-02 -3.0000001E-01 -1.9072999E-09
vertex -3.5000000E-02 -3.6000001E-01 -1.9072999E-09
endloop
endfacet
facet normal 0.0000000E+00 1.0000000E+00 0.0000000E+00
outer loop
vertex -3.5000000E-02 -3.0000001E-01 -1.9072999E-09
vertex -2.0000000E-02 -3.0000001E-01 -1.5000001E-02
vertex -7.0000000E-02 -3.0000001E-01 -1.9072999E-09
endloop
endfacet
facet normal 0.0000000E+00 9.9999994E-01 0.0000000E+00
outer loop
vertex -7.0000000E-02 -3.0000001E-01 -1.9072999E-09
vertex -2.0000000E-02 -3.0000001E-01 -1.5000001E-02
vertex -2.0000000E-02 -3.0000001E-01 -2.9999999E-02
endloop
endfacet
facet normal 0.0000000E+00 9.9999994E-01 0.0000000E+00
outer loop
vertex -7.0000000E-02 -3.0000001E-01 -1.9072999E-09
vertex -2.0000000E-02 -3.0000001E-01 -2.9999999E-02
vertex -7.0000000E-02 -3.0000001E-01 -5.9999999E-02
endloop
endfacet
facet normal 0.0000000E+00 9.9999994E-01 0.0000000E+00
outer loop
vertex -7.0000000E-02 -3.0000001E-01 -5.9999999E-02
vertex -2.0000000E-02 -3.0000001E-01 -2.9999999E-02
vertex 1.3000000E-01 -3.0000001E-01 -5.9999999E-02
endloop
endfacet
facet normal 0.0000000E+00 1.0000000E+00 -0.0000000E+00
outer loop
vertex 1.3000000E-01 -3.0000001E-01 -5.9999999E-02
vertex -2.0000000E-02 -3.0000001E-01 -2.9999999E-02
vertex 1.3000000E-01 -3.0000001E-01 -2.9999999E-02
endloop
endfacet
facet normal 9.9999994E-01 0.0000000E+00 0.0000000E+00
outer loop
vertex -2.0000000E-02 -3.0000001E-01 -1.5000001E-02
vertex -2.0000000E-02 -3.6000001E-01 -1.5000001E-02
vertex -2.0000000E-02 -3.0000001E-01 -2.9999999E-02
endloop
endfacet
facet normal 9.9999994E-01 0.0000000E+00 0.0000000E+00
outer loop
vertex -2.0000000E-02 -3.0000001E-01 -2.9999999E-02
vertex -2.0000000E-02 -3.6000001E-01 -1.5000001E-02
vertex -2.0000000E-02 -3.6000001E-01 -2.9999999E-02
endloop
endfacet
facet normal -9.9999994E-01 0.0000000E+00 0.0000000E+00
outer loop
vertex -7.0000000E-02 -3.6000001E-01 -1.9072999E-09
vertex -7.0000000E-02 -3.0000001E-01 -1.9072999E-09
vertex -7.0000000E-02 -3.6000001E-01 -5.9999999E-02
endloop
endfacet
facet normal -9.9999994E-01 0.0000000E+00 0.0000000E+00
outer loop
vertex -7.0000000E-02 -3.6000001E-01 -5.9999999E-02
vertex -7.0000000E-02 -3.0000001E-01 -1.9072999E-09
vertex -7.0000000E-02 -3.0000001E-01 -5.9999999E-02
endloop
endfacet
facet normal -0.0000000E+00 -1.0000000E+00 -0.0000000E+00
outer loop
vertex -3.5000000E-02 -3.6000001E-01 -1.9072999E-09
vertex -7.0000000E-02 -3.6000001E-01 -1.9072999E-09
vertex -2.0000000E-02 -3.6000001E-01 -1.5000001E-02
endloop
endfacet
facet normal -0.0000000E+00 -9.9999994E-01 -0.0000000E+00
outer loop
vertex -2.0000000E-02 -3.6000001E-01 -1.5000001E-02
vertex -7.0000000E-02 -3.6000001E-01 -1.9072999E-09
vertex -2.0000000E-02 -3.6000001E-01 -2.9999999E-02
endloop
endfacet
facet normal -0.0000000E+00 -1.0000000E+00 0.0000000E+00
outer loop
vertex -2.0000000E-02 -3.6000001E-01 -2.9999999E-02
vertex -7.0000000E-02 -3.6000001E-01 -1.9072999E-09
vertex -7.0000000E-02 -3.6000001E-01 -5.9999999E-02
endloop
endfacet
facet normal 0.0000000E+00 -1.0000000E+00 -0.0000000E+00
outer loop
vertex -2.0000000E-02 -3.6000001E-01 -2.9999999E-02
vertex -7.0000000E-02 -3.6000001E-01 -5.9999999E-02
vertex 1.3000000E-01 -3.6000001E-01 -5.9999999E-02
endloop
endfacet
facet normal 0.0000000E+00 -1.0000000E+00 0.0000000E+00
outer loop
vertex 1.3000000E-01 -3.6000001E-01 -5.9999999E-02
vertex 1.3000000E-01 -3.6000001E-01 -2.9999999E-02
vertex -2.0000000E-02 -3.6000001E-01 -2.9999999E-02
endloop
endfacet
facet normal 0.0000000E+00 0.0000000E+00 -1.0000000E+00
outer loop
vertex -7.0000000E-02 -3.0000001E-01 -5.9999999E-02
vertex 1.1500000E-01 -3.3000001E-01 -5.9999999E-02
vertex -7.0000000E-02 -3.6000001E-01 -5.9999999E-02
endloop
endfacet
facet normal 0.0000000E+00 0.0000000E+00 -9.9999994E-01
outer loop
vertex -7.0000000E-02 -3.6000001E-01 -5.9999999E-02
vertex 1.1500000E-01 -3.3000001E-01 -5.9999999E-02
vertex 1.1515259E-01 -3.3213472E-01 -5.9999999E-02
endloop
endfacet
facet normal 0.0000000E+00 0.0000000E+00 -1.0000000E+00
outer loop
vertex -7.0000000E-02 -3.6000001E-01 -5.9999999E-02
vertex 1.1515259E-01 -3.3213472E-01 -5.9999999E-02
vertex 1.1560766E-01 -3.3422598E-01 -5.9999999E-02
endloop
endfacet
facet normal -0.0000000E+00 0.0000000E+00 -1.0000000E+00
outer loop
vertex 1.3000000E-01 -3.0000001E-01 -5.9999999E-02
vertex 1.2189038E-01 -3.1738120E-01 -5.9999999E-02
vertex -7.0000000E-02 -3.0000001E-01 -5.9999999E-02
endloop
endfacet
facet normal 0.0000000E+00 0.0000000E+00 -1.0000000E+00
outer loop
vertex -7.0000000E-02 -3.0000001E-01 -5.9999999E-02
vertex 1.2189038E-01 -3.1738120E-01 -5.9999999E-02
vertex 1.2017700E-01 -3.1866375E-01 -5.9999999E-02
endloop
endfacet
facet normal 0.0000000E+00 0.0000000E+00 -1.0000000E+00
outer loop
vertex -7.0000000E-02 -3.0000001E-01 -5.9999999E-02
vertex 1.2017700E-01 -3.1866375E-01 -5.9999999E-02
vertex 1.1866382E-01 -3.2017708E-01 -5.9999999E-02
endloop
endfacet
facet normal -0.0000000E+00 -0.0000000E+00 -1.0000000E+00
outer loop
vertex 1.3303515E-01 -3.0015391E-01 -5.9999999E-02
vertex 1.3603906E-01 -3.0061412E-01 -5.9999999E-02
vertex 1.3000000E-01 -3.0000001E-01 -5.9999999E-02
endloop
endfacet
facet normal 0.0000000E+00 0.0000000E+00 -1.0000000E+00
outer loop
vertex 1.3000000E-01 -3.0000001E-01 -5.9999999E-02
vertex 1.3603906E-01 -3.0061412E-01 -5.9999999E-02
vertex 1.3898095E-01 -3.0137584E-01 -5.9999999E-02
endloop
endfacet
facet normal 0.0000000E+00 0.0000000E+00 -1.0000000E+00
outer loop
vertex 1.3000000E-01 -3.0000001E-01 -5.9999999E-02
vertex 1.3898095E-01 -3.0137584E-01 -5.9999999E-02
vertex 1.4183056E-01 -3.0243126E-01 -5.9999999E-02
endloop
endfacet
facet normal -0.0000000E+00 -0.0000000E+00 -1.0000000E+00
outer loop
vertex 1.4183056E-01 -3.0243126E-01 -5.9999999E-02
vertex 1.4455909E-01 -3.0376959E-01 -5.9999999E-02
vertex 1.3000000E-01 -3.0000001E-01 -5.9999999E-02
endloop
endfacet
facet normal 0.0000000E+00 -0.0000000E+00 -1.0000000E+00
outer loop
vertex 1.3000000E-01 -3.0000001E-01 -5.9999999E-02
vertex 1.4455909E-01 -3.0376959E-01 -5.9999999E-02
vertex 1.2786524E-01 -3.1515267E-01 -5.9999999E-02
endloop
endfacet
facet normal 0.0000000E+00 0.0000000E+00 -1.0000000E+00
outer loop
vertex 1.3000000E-01 -3.0000001E-01 -5.9999999E-02
vertex 1.2786524E-01 -3.1515267E-01 -5.9999999E-02
vertex 1.2577392E-01 -3.1560761E-01 -5.9999999E-02
endloop
endfacet
facet normal 0.0000000E+00 -0.0000000E+00 -1.0000000E+00
outer loop
vertex 1.4455909E-01 -3.0376959E-01 -5.9999999E-02
vertex 1.4713794E-01 -3.0537710E-01 -5.9999999E-02
vertex 1.2786524E-01 -3.1515267E-01 -5.9999999E-02
endloop
endfacet
facet normal 0.0000000E+00 0.0000000E+00 -1.0000000E+00
outer loop
vertex 1.2786524E-01 -3.1515267E-01 -5.9999999E-02
vertex 1.4713794E-01 -3.0537710E-01 -5.9999999E-02
vertex 1.3000000E-01 -3.1500000E-01 -5.9999999E-02
endloop
endfacet
facet normal 0.0000000E+00 0.0000000E+00 -1.0000000E+00
outer loop
vertex 1.3000000E-01 -3.1500000E-01 -5.9999999E-02
vertex 1.4713794E-01 -3.0537710E-01 -5.9999999E-02
vertex 1.4954126E-01 -3.0723727E-01 -5.9999999E-02
endloop
endfacet
facet normal 0.0000000E+00 0.0000000E+00 -9.9999994E-01
outer loop
vertex 1.3000000E-01 -3.1500000E-01 -5.9999999E-02
vertex 1.4954126E-01 -3.0723727E-01 -5.9999999E-02
vertex 1.5174390E-01 -3.0933100E-01 -5.9999999E-02
endloop
endfacet
facet normal 0.0000000E+00 0.0000000E+00 -1.0000000E+00
outer loop
vertex 1.3000000E-01 -3.1500000E-01 -5.9999999E-02
vertex 1.5174390E-01 -3.0933100E-01 -5.9999999E-02
vertex 1.3213477E-01 -3.1515267E-01 -5.9999999E-02
endloop
endfacet
facet normal 0.0000000E+00 0.0000000E+00 -1.0000000E+00
outer loop
vertex 1.3213477E-01 -3.1515267E-01 -5.9999999E-02
vertex 1.5174390E-01 -3.0933100E-01 -5.9999999E-02
vertex 1.5372339E-01 -3.1163681E-01 -5.9999999E-02
endloop
endfacet
facet normal 0.0000000E+00 0.0000000E+00 -1.0000000E+00
outer loop
vertex 1.3213477E-01 -3.1515267E-01 -5.9999999E-02
vertex 1.5372339E-01 -3.1163681E-01 -5.9999999E-02
vertex 1.3422607E-01 -3.1560761E-01 -5.9999999E-02
endloop
endfacet
facet normal 0.0000000E+00 0.0000000E+00 -1.0000000E+00
outer loop
vertex 1.3422607E-01 -3.1560761E-01 -5.9999999E-02
vertex 1.5372339E-01 -3.1163681E-01 -5.9999999E-02
vertex 1.5545923E-01 -3.1413108E-01 -5.9999999E-02
endloop
endfacet
facet normal 0.0000000E+00 0.0000000E+00 -1.0000000E+00
outer loop
vertex 1.3422607E-01 -3.1560761E-01 -5.9999999E-02
vertex 1.5545923E-01 -3.1413108E-01 -5.9999999E-02
vertex 1.3623120E-01 -3.1635553E-01 -5.9999999E-02
endloop
endfacet
facet normal 0.0000000E+00 0.0000000E+00 -1.0000000E+00
outer loop
vertex 1.3623120E-01 -3.1635553E-01 -5.9999999E-02
vertex 1.5545923E-01 -3.1413108E-01 -5.9999999E-02
vertex 1.3810962E-01 -3.1738120E-01 -5.9999999E-02
endloop
endfacet
facet normal 0.0000000E+00 0.0000000E+00 -1.0000000E+00
outer loop
vertex 1.3810962E-01 -3.1738120E-01 -5.9999999E-02
vertex 1.5545923E-01 -3.1413108E-01 -5.9999999E-02
vertex 1.5693408E-01 -3.1678817E-01 -5.9999999E-02
endloop
endfacet
facet normal 0.0000000E+00 0.0000000E+00 -1.0000000E+00
outer loop
vertex 1.3810962E-01 -3.1738120E-01 -5.9999999E-02
vertex 1.5693408E-01 -3.1678817E-01 -5.9999999E-02
vertex 1.3982300E-01 -3.1866375E-01 -5.9999999E-02
endloop
endfacet
facet normal 0.0000000E+00 0.0000000E+00 -9.9999994E-01
outer loop
vertex 1.3982300E-01 -3.1866375E-01 -5.9999999E-02
vertex 1.5693408E-01 -3.1678817E-01 -5.9999999E-02
vertex 1.5813257E-01 -3.1958085E-01 -5.9999999E-02
endloop
endfacet
facet normal 0.0000000E+00 0.0000000E+00 -1.0000000E+00
outer loop
vertex 1.3982300E-01 -3.1866375E-01 -5.9999999E-02
vertex 1.5813257E-01 -3.1958085E-01 -5.9999999E-02
vertex 1.4133619E-01 -3.2017708E-01 -5.9999999E-02
endloop
endfacet
facet normal 0.0000000E+00 0.0000000E+00 -1.0000000E+00
outer loop
vertex 1.4133619E-01 -3.2017708E-01 -5.9999999E-02
vertex 1.5813257E-01 -3.1958085E-01 -5.9999999E-02
vertex 1.4261889E-01 -3.2189038E-01 -5.9999999E-02
endloop
endfacet
facet normal 0.0000000E+00 0.0000000E+00 -9.9999994E-01
outer loop
vertex 1.4261889E-01 -3.2189038E-01 -5.9999999E-02
vertex 1.5813257E-01 -3.1958085E-01 -5.9999999E-02
vertex 1.5904224E-01 -3.2248041E-01 -5.9999999E-02
endloop
endfacet
facet normal 0.0000000E+00 0.0000000E+00 -1.0000000E+00
outer loop
vertex 1.4261889E-01 -3.2189038E-01 -5.9999999E-02
vertex 1.5904224E-01 -3.2248041E-01 -5.9999999E-02
vertex 1.4364453E-01 -3.2376876E-01 -5.9999999E-02
endloop
endfacet
facet normal 0.0000000E+00 0.0000000E+00 -1.0000000E+00
outer loop
vertex 1.4364453E-01 -3.2376876E-01 -5.9999999E-02
vertex 1.5904224E-01 -3.2248041E-01 -5.9999999E-02
vertex 1.5965405E-01 -3.2545716E-01 -5.9999999E-02
endloop
endfacet
facet normal 0.0000000E+00 0.0000000E+00 -1.0000000E+00
outer loop
vertex 1.4364453E-01 -3.2376876E-01 -5.9999999E-02
vertex 1.5965405E-01 -3.2545716E-01 -5.9999999E-02
vertex 1.4439234E-01 -3.2577401E-01 -5.9999999E-02
endloop
endfacet
facet normal 0.0000000E+00 0.0000000E+00 -1.0000000E+00
outer loop
vertex 1.4439234E-01 -3.2577401E-01 -5.9999999E-02
vertex 1.5965405E-01 -3.2545716E-01 -5.9999999E-02
vertex 1.4484741E-01 -3.2786527E-01 -5.9999999E-02
endloop
endfacet
facet normal 0.0000000E+00 0.0000000E+00 -1.0000000E+00
outer loop
vertex 1.4484741E-01 -3.2786527E-01 -5.9999999E-02
vertex 1.5965405E-01 -3.2545716E-01 -5.9999999E-02
vertex 1.5996143E-01 -3.2848054E-01 -5.9999999E-02
endloop
endfacet
facet normal 0.0000000E+00 0.0000000E+00 -1.0000000E+00
outer loop
vertex 1.4484741E-01 -3.2786527E-01 -5.9999999E-02
vertex 1.5996143E-01 -3.2848054E-01 -5.9999999E-02
vertex 1.4500000E-01 -3.3000001E-01 -5.9999999E-02
endloop
endfacet
facet normal 0.0000000E+00 0.0000000E+00 -1.0000000E+00
outer loop
vertex 1.4500000E-01 -3.3000001E-01 -5.9999999E-02
vertex 1.5996143E-01 -3.2848054E-01 -5.9999999E-02
vertex 1.5996143E-01 -3.3151948E-01 -5.9999999E-02
endloop
endfacet
facet normal 0.0000000E+00 -0.0000000E+00 -1.0000000E+00
outer loop
vertex 1.4500000E-01 -3.3000001E-01 -5.9999999E-02
vertex 1.5996143E-01 -3.3151948E-01 -5.9999999E-02
vertex 1.4484741E-01 -3.3213472E-01 -5.9999999E-02
endloop
endfacet
facet normal 0.0000000E+00 0.0000000E+00 -1.0000000E+00
outer loop
vertex 1.4484741E-01 -3.3213472E-01 -5.9999999E-02
vertex 1.5996143E-01 -3.3151948E-01 -5.9999999E-02
vertex 1.5965405E-01 -3.3454284E-01 -5.9999999E-02
endloop
endfacet
facet normal 0.0000000E+00 -0.0000000E+00 -1.0000000E+00
outer loop
vertex 1.4484741E-01 -3.3213472E-01 -5.9999999E-02
vertex 1.5965405E-01 -3.3454284E-01 -5.9999999E-02
vertex 1.4439234E-01 -3.3422598E-01 -5.9999999E-02
endloop
endfacet
facet normal 0.0000000E+00 -0.0000000E+00 -1.0000000E+00
outer loop
vertex 1.4439234E-01 -3.3422598E-01 -5.9999999E-02
vertex 1.5965405E-01 -3.3454284E-01 -5.9999999E-02
vertex 1.4364453E-01 -3.3623123E-01 -5.9999999E-02
endloop
endfacet
facet normal 0.0000000E+00 0.0000000E+00 -1.0000000E+00
outer loop
vertex 1.4364453E-01 -3.3623123E-01 -5.9999999E-02
vertex 1.5965405E-01 -3.3454284E-01 -5.9999999E-02
vertex 1.5904224E-01 -3.3751959E-01 -5.9999999E-02
endloop
endfacet
facet normal 0.0000000E+00 -0.0000000E+00 -1.0000000E+00
outer loop
vertex 1.4364453E-01 -3.3623123E-01 -5.9999999E-02
vertex 1.5904224E-01 -3.3751959E-01 -5.9999999E-02
vertex 1.4261889E-01 -3.3810961E-01 -5.9999999E-02
endloop
endfacet
facet normal 0.0000000E+00 0.0000000E+00 -1.0000000E+00
outer loop
vertex 1.4261889E-01 -3.3810961E-01 -5.9999999E-02
vertex 1.5904224E-01 -3.3751959E-01 -5.9999999E-02
vertex 1.5813257E-01 -3.4041917E-01 -5.9999999E-02
endloop
endfacet
facet normal 0.0000000E+00 -0.0000000E+00 -1.0000000E+00
outer loop
vertex 1.4261889E-01 -3.3810961E-01 -5.9999999E-02
vertex 1.5813257E-01 -3.4041917E-01 -5.9999999E-02
vertex 1.4133619E-01 -3.3982292E-01 -5.9999999E-02
endloop
endfacet
facet normal 0.0000000E+00 -0.0000000E+00 -1.0000000E+00
outer loop
vertex 1.4133619E-01 -3.3982292E-01 -5.9999999E-02
vertex 1.5813257E-01 -3.4041917E-01 -5.9999999E-02
vertex 1.3982300E-01 -3.4133625E-01 -5.9999999E-02
endloop
endfacet
facet normal 0.0000000E+00 0.0000000E+00 -1.0000000E+00
outer loop
vertex 1.3982300E-01 -3.4133625E-01 -5.9999999E-02
vertex 1.5813257E-01 -3.4041917E-01 -5.9999999E-02
vertex 1.5693408E-01 -3.4321183E-01 -5.9999999E-02
endloop
endfacet
facet normal 0.0000000E+00 -0.0000000E+00 -9.9999994E-01
outer loop
vertex 1.3982300E-01 -3.4133625E-01 -5.9999999E-02
vertex 1.5693408E-01 -3.4321183E-01 -5.9999999E-02
vertex 1.3810962E-01 -3.4261879E-01 -5.9999999E-02
endloop
endfacet
facet normal 0.0000000E+00 0.0000000E+00 -1.0000000E+00
outer loop
vertex 1.3810962E-01 -3.4261879E-01 -5.9999999E-02
vertex 1.5693408E-01 -3.4321183E-01 -5.9999999E-02
vertex 1.5545923E-01 -3.4586892E-01 -5.9999999E-02
endloop
endfacet
facet normal 0.0000000E+00 -0.0000000E+00 -1.0000000E+00
outer loop
vertex 1.3810962E-01 -3.4261879E-01 -5.9999999E-02
vertex 1.5545923E-01 -3.4586892E-01 -5.9999999E-02
vertex 1.3623120E-01 -3.4364450E-01 -5.9999999E-02
endloop
endfacet
facet normal 0.0000000E+00 -0.0000000E+00 -1.0000000E+00
outer loop
vertex 1.3623120E-01 -3.4364450E-01 -5.9999999E-02
vertex 1.5545923E-01 -3.4586892E-01 -5.9999999E-02
vertex 1.3422607E-01 -3.4439239E-01 -5.9999999E-02
endloop
endfacet
facet normal 0.0000000E+00 0.0000000E+00 -1.0000000E+00
outer loop
vertex 1.3422607E-01 -3.4439239E-01 -5.9999999E-02
vertex 1.5545923E-01 -3.4586892E-01 -5.9999999E-02
vertex 1.5372339E-01 -3.4836316E-01 -5.9999999E-02
endloop
endfacet
facet normal 0.0000000E+00 -0.0000000E+00 -1.0000000E+00
outer loop
vertex 1.3422607E-01 -3.4439239E-01 -5.9999999E-02
vertex 1.5372339E-01 -3.4836316E-01 -5.9999999E-02
vertex 1.3213477E-01 -3.4484732E-01 -5.9999999E-02
endloop
endfacet
facet normal 0.0000000E+00 0.0000000E+00 -9.9999994E-01
outer loop
vertex 1.3213477E-01 -3.4484732E-01 -5.9999999E-02
vertex 1.5372339E-01 -3.4836316E-01 -5.9999999E-02
vertex 1.5174390E-01 -3.5066900E-01 -5.9999999E-02
endloop
endfacet
facet normal 0.0000000E+00 -0.0000000E+00 -1.0000000E+00
outer loop
vertex 1.3213477E-01 -3.4484732E-01 -5.9999999E-02
vertex 1.5174390E-01 -3.5066900E-01 -5.9999999E-02
vertex 1.3000000E-01 -3.4500000E-01 -5.9999999E-02
endloop
endfacet
facet normal 0.0000000E+00 0.0000000E+00 -9.9999994E-01
outer loop
vertex 1.3000000E-01 -3.4500000E-01 -5.9999999E-02
vertex 1.5174390E-01 -3.5066900E-01 -5.9999999E-02
vertex 1.4954126E-01 -3.5276273E-01 -5.9999999E-02
endloop
endfacet
facet normal 0.0000000E+00 0.0000000E+00 -1.0000000E+00
outer loop
vertex 1.3000000E-01 -3.4500000E-01 -5.9999999E-02
vertex 1.4954126E-01 -3.5276273E-01 -5.9999999E-02
vertex 1.4713794E-01 -3.5462290E-01 -5.9999999E-02
endloop
endfacet
facet normal -0.0000000E+00 -0.0000000E+00 -1.0000000E+00
outer loop
vertex 1.3000000E-01 -3.4500000E-01 -5.9999999E-02
vertex 1.4713794E-01 -3.5462290E-01 -5.9999999E-02
vertex 1.2786524E-01 -3.4484732E-01 -5.9999999E-02
endloop
endfacet
facet normal 0.0000000E+00 0.0000000E+00 -1.0000000E+00
outer loop
vertex 1.2786524E-01 -3.4484732E-01 -5.9999999E-02
vertex 1.4713794E-01 -3.5462290E-01 -5.9999999E-02
vertex 1.4455909E-01 -3.5623038E-01 -5.9999999E-02
endloop
endfacet
facet normal 0.0000000E+00 0.0000000E+00 -1.0000000E+00
outer loop
vertex 1.2786524E-01 -3.4484732E-01 -5.9999999E-02
vertex 1.4455909E-01 -3.5623038E-01 -5.9999999E-02
vertex 1.3000000E-01 -3.6000001E-01 -5.9999999E-02
endloop
endfacet
facet normal 0.0000000E+00 0.0000000E+00 -1.0000000E+00
outer loop
vertex 1.3000000E-01 -3.6000001E-01 -5.9999999E-02
vertex 1.4455909E-01 -3.5623038E-01 -5.9999999E-02
vertex 1.4183056E-01 -3.5756874E-01 -5.9999999E-02
endloop
endfacet
facet normal 0.0000000E+00 0.0000000E+00 -1.0000000E+00
outer loop
vertex 1.3000000E-01 -3.6000001E-01 -5.9999999E-02
vertex 1.4183056E-01 -3.5756874E-01 -5.9999999E-02
vertex 1.3898095E-01 -3.5862419E-01 -5.9999999E-02
endloop
endfacet
facet normal 0.0000000E+00 0.0000000E+00 -1.0000000E+00
outer loop
vertex 1.3898095E-01 -3.5862419E-01 -5.9999999E-02
vertex 1.3603906E-01 -3.5938591E-01 -5.9999999E-02
vertex 1.3000000E-01 -3.6000001E-01 -5.9999999E-02
endloop
endfacet
facet normal 0.0000000E+00 0.0000000E+00 -1.0000000E+00
outer loop
vertex 1.3000000E-01 -3.6000001E-01 -5.9999999E-02
vertex 1.3603906E-01 -3.5938591E-01 -5.9999999E-02
vertex 1.3303515E-01 -3.5984609E-01 -5.9999999E-02
endloop
endfacet
facet normal 0.0000000E+00 0.0000000E+00 -1.0000000E+00
outer loop
vertex -7.0000000E-02 -3.6000001E-01 -5.9999999E-02
vertex 1.2189038E-01 -3.4261879E-01 -5.9999999E-02
vertex 1.3000000E-01 -3.6000001E-01 -5.9999999E-02
endloop
endfacet
facet normal 0.0000000E+00 0.0000000E+00 -1.0000000E+00
outer loop
vertex 1.3000000E-01 -3.6000001E-01 -5.9999999E-02
vertex 1.2189038E-01 -3.4261879E-01 -5.9999999E-02
vertex 1.2376880E-01 -3.4364450E-01 -5.9999999E-02
endloop
endfacet
facet normal 0.0000000E+00 0.0000000E+00 -1.0000000E+00
outer loop
vertex 1.3000000E-01 -3.6000001E-01 -5.9999999E-02
vertex 1.2376880E-01 -3.4364450E-01 -5.9999999E-02
vertex 1.2577392E-01 -3.4439239E-01 -5.9999999E-02
endloop
endfacet
facet normal -0.0000000E+00 0.0000000E+00 -1.0000000E+00
outer loop
vertex 1.2577392E-01 -3.1560761E-01 -5.9999999E-02
vertex 1.2376880E-01 -3.1635553E-01 -5.9999999E-02
vertex 1.3000000E-01 -3.0000001E-01 -5.9999999E-02
endloop
endfacet
facet normal 0.0000000E+00 0.0000000E+00 -9.9999994E-01
outer loop
vertex 1.3000000E-01 -3.0000001E-01 -5.9999999E-02
vertex 1.2376880E-01 -3.1635553E-01 -5.9999999E-02
vertex 1.2189038E-01 -3.1738120E-01 -5.9999999E-02
endloop
endfacet
facet normal -0.0000000E+00 0.0000000E+00 -1.0000000E+00
outer loop
vertex 1.1866382E-01 -3.2017708E-01 -5.9999999E-02
vertex 1.1738110E-01 -3.2189038E-01 -5.9999999E-02
vertex -7.0000000E-02 -3.0000001E-01 -5.9999999E-02
endloop
endfacet
facet normal 0.0000000E+00 0.0000000E+00 -1.0000000E+00
outer loop
vertex -7.0000000E-02 -3.0000001E-01 -5.9999999E-02
vertex 1.1738110E-01 -3.2189038E-01 -5.9999999E-02
vertex 1.1635547E-01 -3.2376876E-01 -5.9999999E-02
endloop
endfacet
facet normal 0.0000000E+00 0.0000000E+00 -1.0000000E+00
outer loop
vertex -7.0000000E-02 -3.0000001E-01 -5.9999999E-02
vertex 1.1635547E-01 -3.2376876E-01 -5.9999999E-02
vertex 1.1560766E-01 -3.2577401E-01 -5.9999999E-02
endloop
endfacet
facet normal -0.0000000E+00 0.0000000E+00 -1.0000000E+00
outer loop
vertex 1.1560766E-01 -3.2577401E-01 -5.9999999E-02
vertex 1.1515259E-01 -3.2786527E-01 -5.9999999E-02
vertex -7.0000000E-02 -3.0000001E-01 -5.9999999E-02
endloop
endfacet
facet normal 0.0000000E+00 0.0000000E+00 -1.0000000E+00
outer loop
vertex -7.0000000E-02 -3.0000001E-01 -5.9999999E-02
vertex 1.1515259E-01 -3.2786527E-01 -5.9999999E-02
vertex 1.1500000E-01 -3.3000001E-01 -5.9999999E-02
endloop
endfacet
facet normal 0.0000000E+00 -0.0000000E+00 -1.0000000E+00
outer loop
vertex 1.1560766E-01 -3.3422598E-01 -5.9999999E-02
vertex 1.1635547E-01 -3.3623123E-01 -5.9999999E-02
vertex -7.0000000E-02 -3.6000001E-01 -5.9999999E-02
endloop
endfacet
facet normal 0.0000000E+00 0.0000000E+00 -1.0000000E+00
outer loop
vertex -7.0000000E-02 -3.6000001E-01 -5.9999999E-02
vertex 1.1635547E-01 -3.3623123E-01 -5.9999999E-02
vertex 1.1738110E-01 -3.3810961E-01 -5.9999999E-02
endloop
endfacet
facet normal 0.0000000E+00 0.0000000E+00 -1.0000000E+00
outer loop
vertex -7.0000000E-02 -3.6000001E-01 -5.9999999E-02
vertex 1.1738110E-01 -3.3810961E-01 -5.9999999E-02
vertex 1.1866382E-01 -3.3982292E-01 -5.9999999E-02
endloop
endfacet
facet normal 0.0000000E+00 -0.0000000E+00 -1.0000000E+00
outer loop
vertex 1.1866382E-01 -3.3982292E-01 -5.9999999E-02
vertex 1.2017700E-01 -3.4133625E-01 -5.9999999E-02
vertex -7.0000000E-02 -3.6000001E-01 -5.9999999E-02
endloop
endfacet
facet normal 0.0000000E+00 0.0000000E+00 -1.0000000E+00
outer loop
vertex -7.0000000E-02 -3.6000001E-01 -5.9999999E-02
vertex 1.2017700E-01 -3.4133625E-01 -5.9999999E-02
vertex 1.2189038E-01 -3.4261879E-01 -5.9999999E-02
endloop
endfacet
facet normal 0.0000000E+00 0.0000000E+00 -1.0000000E+00
outer loop
vertex 1.2577392E-01 -3.4439239E-01 -5.9999999E-02
vertex 1.2786524E-01 -3.4484732E-01 -5.9999999E-02
vertex 1.3000000E-01 -3.6000001E-01 -5.9999999E-02
endloop
endfacet
facet normal 5.0640441E-02 9.9871701E-01 -0.0000000E+00
outer loop
vertex 1.3000000E-01 -3.0000001E-01 -5.9999999E-02
vertex 1.3000000E-01 -3.0000001E-01 -2.9999999E-02
vertex 1.3303515E-01 -3.0015391E-01 -5.9999999E-02
endloop
endfacet
facet normal 5.0640441E-02 9.9871701E-01 -0.0000000E+00
outer loop
vertex 1.3303515E-01 -3.0015391E-01 -5.9999999E-02
vertex 1.3000000E-01 -3.0000001E-01 -2.9999999E-02
vertex 1.3303515E-01 -3.0015391E-01 -2.9999999E-02
endloop
endfacet
facet normal 1.5143593E-01 9.8846704E-01 -0.0000000E+00
outer loop
vertex 1.3303515E-01 -3.0015391E-01 -5.9999999E-02
vertex 1.3303515E-01 -3.0015391E-01 -2.9999999E-02
vertex 1.3603906E-01 -3.0061412E-01 -5.9999999E-02
endloop
endfacet
facet normal 1.5143593E-01 9.8846704E-01 -0.0000000E+00
outer loop
vertex 1.3603906E-01 -3.0061412E-01 -5.9999999E-02
vertex 1.3303515E-01 -3.0015391E-01 -2.9999999E-02
vertex 1.3603906E-01 -3.0061412E-01 -2.9999999E-02
endloop
endfacet
facet normal 2.5065529E-01 9.6807635E-01 -0.0000000E+00
outer loop
vertex 1.3603906E-01 -3.0061412E-01 -5.9999999E-02
vertex 1.3603906E-01 -3.0061412E-01 -2.9999999E-02
vertex 1.3898095E-01 -3.0137584E-01 -5.9999999E-02
endloop
endfacet
facet normal 2.5065529E-01 9.6807635E-01 -0.0000000E+00
outer loop
vertex 1.3898095E-01 -3.0137584E-01 -5.9999999E-02
vertex 1.3603906E-01 -3.0061412E-01 -2.9999999E-02
vertex 1.3898095E-01 -3.0137584E-01 -2.9999999E-02
endloop
endfacet
facet normal 3.4731686E-01 9.3774778E-01 -0.0000000E+00
outer loop
vertex 1.3898095E-01 -3.0137584E-01 -5.9999999E-02
vertex 1.3898095E-01 -3.0137584E-01 -2.9999999E-02
vertex 1.4183056E-01 -3.0243126E-01 -5.9999999E-02
endloop
endfacet
facet normal 3.4731686E-01 9.3774778E-01 -0.0000000E+00
outer loop
vertex 1.4183056E-01 -3.0243126E-01 -5.9999999E-02
vertex 1.3898095E-01 -3.0137584E-01 -2.9999999E-02
vertex 1.4183056E-01 -3.0243126E-01 -2.9999999E-02
endloop
endfacet
facet normal 4.4037533E-01 8.9781374E-01 -0.0000000E+00
outer loop
vertex 1.4183056E-01 -3.0243126E-01 -5.9999999E-02
vertex 1.4183056E-01 -3.0243126E-01 -2.9999999E-02
vertex 1.4455909E-01 -3.0376959E-01 -5.9999999E-02
endloop
endfacet
facet normal 4.4037533E-01 8.9781374E-01 -0.0000000E+00
outer loop
vertex 1.4455909E-01 -3.0376959E-01 -5.9999999E-02
vertex 1.4183056E-01 -3.0243126E-01 -2.9999999E-02
vertex 1.4455909E-01 -3.0376959E-01 -2.9999999E-02
endloop
endfacet
facet normal 5.2898651E-01 8.4863013E-01 -0.0000000E+00
outer loop
vertex 1.4455909E-01 -3.0376959E-01 -5.9999999E-02
vertex 1.4455909E-01 -3.0376959E-01 -2.9999999E-02
vertex 1.4713794E-01 -3.0537710E-01 -5.9999999E-02
endloop
endfacet
facet normal 5.2898651E-01 8.4863013E-01 -0.0000000E+00
outer loop
vertex 1.4713794E-01 -3.0537710E-01 -5.9999999E-02
vertex 1.4455909E-01 -3.0376959E-01 -2.9999999E-02
vertex 1.4713794E-01 -3.0537710E-01 -2.9999999E-02
endloop
endfacet
facet normal 6.1207807E-01 7.9079735E-01 -0.0000000E+00
outer loop
vertex 1.4713794E-01 -3.0537710E-01 -5.9999999E-02
vertex 1.4713794E-01 -3.0537710E-01 -2.9999999E-02
vertex 1.4954126E-01 -3.0723727E-01 -5.9999999E-02
endloop
endfacet
facet normal 6.1207807E-01 7.9079735E-01 -0.0000000E+00
outer loop
vertex 1.4954126E-01 -3.0723727E-01 -5.9999999E-02
vertex 1.4713794E-01 -3.0537710E-01 -2.9999999E-02
vertex 1.4954126E-01 -3.0723727E-01 -2.9999999E-02
endloop
endfacet
facet normal 6.8896043E-01 7.2479904E-01 -0.0000000E+00
outer loop
vertex 1.4954126E-01 -3.0723727E-01 -5.9999999E-02
vertex 1.4954126E-01 -3.0723727E-01 -2.9999999E-02
vertex 1.5174390E-01 -3.0933100E-01 -5.9999999E-02
endloop
endfacet
facet normal 6.8896043E-01 7.2479904E-01 -0.0000000E+00
outer loop
vertex 1.5174390E-01 -3.0933100E-01 -5.9999999E-02
vertex 1.4954126E-01 -3.0723727E-01 -2.9999999E-02
vertex 1.5174390E-01 -3.0933100E-01 -2.9999999E-02
endloop
endfacet
facet normal 7.5875556E-01 6.5137553E-01 -0.0000000E+00
outer loop
vertex 1.5174390E-01 -3.0933100E-01 -5.9999999E-02
vertex 1.5174390E-01 -3.0933100E-01 -2.9999999E-02
vertex 1.5372339E-01 -3.1163681E-01 -5.9999999E-02
endloop
endfacet
facet normal 7.5875556E-01 6.5137553E-01 -0.0000000E+00
outer loop
vertex 1.5372339E-01 -3.1163681E-01 -5.9999999E-02
vertex 1.5174390E-01 -3.0933100E-01 -2.9999999E-02
vertex 1.5372339E-01 -3.1163681E-01 -2.9999999E-02
endloop
endfacet
facet normal 8.2079905E-01 5.7121706E-01 -0.0000000E+00
outer loop
vertex 1.5372339E-01 -3.1163681E-01 -5.9999999E-02
vertex 1.5372339E-01 -3.1163681E-01 -2.9999999E-02
vertex 1.5545923E-01 -3.1413108E-01 -5.9999999E-02
endloop
endfacet
facet normal 8.2079905E-01 5.7121706E-01 -0.0000000E+00
outer loop
vertex 1.5545923E-01 -3.1413108E-01 -5.9999999E-02
vertex 1.5372339E-01 -3.1163681E-01 -2.9999999E-02
vertex 1.5545923E-01 -3.1413108E-01 -2.9999999E-02
endloop
endfacet
facet normal 8.7433898E-01 4.8531565E-01 -0.0000000E+00
outer loop
vertex 1.5545923E-01 -3.1413108E-01 -5.9999999E-02
vertex 1.5545923E-01 -3.1413108E-01 -2.9999999E-02
vertex 1.5693408E-01 -3.1678817E-01 -5.9999999E-02
endloop
endfacet
facet normal 8.7433898E-01 4.8531565E-01 -0.0000000E+00
outer loop
vertex 1.5693408E-01 -3.1678817E-01 -5.9999999E-02
vertex 1.5545923E-01 -3.1413108E-01 -2.9999999E-02
vertex 1.5693408E-01 -3.1678817E-01 -2.9999999E-02
endloop
endfacet
facet normal 9.1895187E-01 3.9436954E-01 -0.0000000E+00
outer loop
vertex 1.5693408E-01 -3.1678817E-01 -5.9999999E-02
vertex 1.5693408E-01 -3.1678817E-01 -2.9999999E-02
vertex 1.5813257E-01 -3.1958085E-01 -5.9999999E-02
endloop
endfacet
facet normal 9.1895187E-01 3.9436954E-01 -0.0000000E+00
outer loop
vertex 1.5813257E-01 -3.1958085E-01 -5.9999999E-02
vertex 1.5693408E-01 -3.1678817E-01 -2.9999999E-02
vertex 1.5813257E-01 -3.1958085E-01 -2.9999999E-02
endloop
endfacet
facet normal 9.5414591E-01 2.9934189E-01 -0.0000000E+00
outer loop
vertex 1.5813257E-01 -3.1958085E-01 -5.9999999E-02
vertex 1.5813257E-01 -3.1958085E-01 -2.9999999E-02
vertex 1.5904224E-01 -3.2248041E-01 -5.9999999E-02
endloop
endfacet
facet normal 9.5414591E-01 2.9934189E-01 -0.0000000E+00
outer loop
vertex 1.5904224E-01 -3.2248041E-01 -5.9999999E-02
vertex 1.5813257E-01 -3.1958085E-01 -2.9999999E-02
vertex 1.5904224E-01 -3.2248041E-01 -2.9999999E-02
endloop
endfacet
facet normal 9.7952515E-01 2.0132226E-01 -0.0000000E+00
outer loop
vertex 1.5904224E-01 -3.2248041E-01 -5.9999999E-02
vertex 1.5904224E-01 -3.2248041E-01 -2.9999999E-02
vertex 1.5965405E-01 -3.2545716E-01 -5.9999999E-02
endloop
endfacet
facet normal 9.7952515E-01 2.0132226E-01 -0.0000000E+00
outer loop
vertex 1.5965405E-01 -3.2545716E-01 -5.9999999E-02
vertex 1.5904224E-01 -3.2248041E-01 -2.9999999E-02
vertex 1.5965405E-01 -3.2545716E-01 -2.9999999E-02
endloop
endfacet
facet normal 9.9487150E-01 1.0114644E-01 -0.0000000E+00
outer loop
vertex 1.5965405E-01 -3.2545716E-01 -5.9999999E-02
vertex 1.5965405E-01 -3.2545716E-01 -2.9999999E-02
vertex 1.5996143E-01 -3.2848054E-01 -5.9999999E-02
endloop
endfacet
facet normal 9.9487150E-01 1.0114644E-01 -0.0000000E+00
outer loop
vertex 1.5996143E-01 -3.2848054E-01 -5.9999999E-02
vertex 1.5965405E-01 -3.2545716E-01 -2.9999999E-02
vertex 1.5996143E-01 -3.2848054E-01 -2.9999999E-02
endloop
endfacet
facet normal 1.0000000E+00 0.0000000E+00 -0.0000000E+00
outer loop
vertex 1.5996143E-01 -3.2848054E-01 -5.9999999E-02
vertex 1.5996143E-01 -3.2848054E-01 -2.9999999E-02
vertex 1.5996143E-01 -3.3151948E-01 -5.9999999E-02
endloop
endfacet
facet normal 1.0000000E+00 0.0000000E+00 0.0000000E+00
outer loop
vertex 1.5996143E-01 -3.3151948E-01 -5.9999999E-02
vertex 1.5996143E-01 -3.2848054E-01 -2.9999999E-02
vertex 1.5996143E-01 -3.3151948E-01 -2.9999999E-02
endloop
endfacet
facet normal 9.9487144E-01 -1.0114744E-01 0.0000000E+00
outer loop
vertex 1.5996143E-01 -3.3151948E-01 -5.9999999E-02
vertex 1.5996143E-01 -3.3151948E-01 -2.9999999E-02
vertex 1.5965405E-01 -3.3454284E-01 -5.9999999E-02
endloop
endfacet
facet normal 9.9487144E-01 -1.0114744E-01 0.0000000E+00
outer loop
vertex 1.5965405E-01 -3.3454284E-01 -5.9999999E-02
vertex 1.5996143E-01 -3.3151948E-01 -2.9999999E-02
vertex 1.5965405E-01 -3.3454284E-01 -2.9999999E-02
endloop
endfacet
facet normal 9.7952515E-01 -2.0132226E-01 0.0000000E+00
outer loop
vertex 1.5965405E-01 -3.3454284E-01 -5.9999999E-02
vertex 1.5965405E-01 -3.3454284E-01 -2.9999999E-02
vertex 1.5904224E-01 -3.3751959E-01 -5.9999999E-02
endloop
endfacet
facet normal 9.7952515E-01 -2.0132226E-01 0.0000000E+00
outer loop
vertex 1.5904224E-01 -3.3751959E-01 -5.9999999E-02
vertex 1.5965405E-01 -3.3454284E-01 -2.9999999E-02
vertex 1.5904224E-01 -3.3751959E-01 -2.9999999E-02
endloop
endfacet
facet normal 9.5414680E-01 -2.9933912E-01 0.0000000E+00
outer loop
vertex 1.5904224E-01 -3.3751959E-01 -5.9999999E-02
vertex 1.5904224E-01 -3.3751959E-01 -2.9999999E-02
vertex 1.5813257E-01 -3.4041917E-01 -5.9999999E-02
endloop
endfacet
facet normal 9.5414680E-01 -2.9933912E-01 0.0000000E+00
outer loop
vertex 1.5813257E-01 -3.4041917E-01 -5.9999999E-02
vertex 1.5904224E-01 -3.3751959E-01 -2.9999999E-02
vertex 1.5813257E-01 -3.4041917E-01 -2.9999999E-02
endloop
endfacet
facet normal 9.1895038E-01 -3.9437315E-01 0.0000000E+00
outer loop
vertex 1.5813257E-01 -3.4041917E-01 -5.9999999E-02
vertex 1.5813257E-01 -3.4041917E-01 -2.9999999E-02
vertex 1.5693408E-01 -3.4321183E-01 -5.9999999E-02
endloop
endfacet
facet normal 9.1895038E-01 -3.9437315E-01 0.0000000E+00
outer loop
vertex 1.5693408E-01 -3.4321183E-01 -5.9999999E-02
vertex 1.5813257E-01 -3.4041917E-01 -2.9999999E-02
vertex 1.5693408E-01 -3.4321183E-01 -2.9999999E-02
endloop
endfacet
facet normal 8.7433898E-01 -4.8531565E-01 0.0000000E+00
outer loop
vertex 1.5693408E-01 -3.4321183E-01 -5.9999999E-02
vertex 1.5693408E-01 -3.4321183E-01 -2.9999999E-02
vertex 1.5545923E-01 -3.4586892E-01 -5.9999999E-02
endloop
endfacet
facet normal 8.7433898E-01 -4.8531565E-01 0.0000000E+00
outer loop
vertex 1.5545923E-01 -3.4586892E-01 -5.9999999E-02
vertex 1.5693408E-01 -3.4321183E-01 -2.9999999E-02
vertex 1.5545923E-01 -3.4586892E-01 -2.9999999E-02
endloop
endfacet
facet normal 8.2079595E-01 -5.7122171E-01 0.0000000E+00
outer loop
vertex 1.5545923E-01 -3.4586892E-01 -5.9999999E-02
vertex 1.5545923E-01 -3.4586892E-01 -2.9999999E-02
vertex 1.5372339E-01 -3.4836316E-01 -5.9999999E-02
endloop
endfacet
facet normal 8.2079595E-01 -5.7122171E-01 0.0000000E+00
outer loop
vertex 1.5372339E-01 -3.4836316E-01 -5.9999999E-02
vertex 1.5545923E-01 -3.4586892E-01 -2.9999999E-02
vertex 1.5372339E-01 -3.4836316E-01 -2.9999999E-02
endloop
endfacet
facet normal 7.5875968E-01 -6.5137070E-01 0.0000000E+00
outer loop
vertex 1.5372339E-01 -3.4836316E-01 -5.9999999E-02
vertex 1.5372339E-01 -3.4836316E-01 -2.9999999E-02
vertex 1.5174390E-01 -3.5066900E-01 -5.9999999E-02
endloop
endfacet
facet normal 7.5875968E-01 -6.5137070E-01 0.0000000E+00
outer loop
vertex 1.5174390E-01 -3.5066900E-01 -5.9999999E-02
vertex 1.5372339E-01 -3.4836316E-01 -2.9999999E-02
vertex 1.5174390E-01 -3.5066900E-01 -2.9999999E-02
endloop
endfacet
facet normal 6.8896043E-01 -7.2479904E-01 0.0000000E+00
outer loop
vertex 1.5174390E-01 -3.5066900E-01 -5.9999999E-02
vertex 1.5174390E-01 -3.5066900E-01 -2.9999999E-02
vertex 1.4954126E-01 -3.5276273E-01 -5.9999999E-02
endloop
endfacet
facet normal 6.8896043E-01 -7.2479904E-01 0.0000000E+00
outer loop
vertex 1.4954126E-01 -3.5276273E-01 -5.9999999E-02
vertex 1.5174390E-01 -3.5066900E-01 -2.9999999E-02
vertex 1.4954126E-01 -3.5276273E-01 -2.9999999E-02
endloop
endfacet
facet normal 6.1207807E-01 -7.9079735E-01 0.0000000E+00
outer loop
vertex 1.4954126E-01 -3.5276273E-01 -5.9999999E-02
vertex 1.4954126E-01 -3.5276273E-01 -2.9999999E-02
vertex 1.4713794E-01 -3.5462290E-01 -5.9999999E-02
endloop
endfacet
facet normal 6.1207807E-01 -7.9079735E-01 0.0000000E+00
outer loop
vertex 1.4713794E-01 -3.5462290E-01 -5.9999999E-02
vertex 1.4954126E-01 -3.5276273E-01 -2.9999999E-02
vertex 1.4713794E-01 -3.5462290E-01 -2.9999999E-02
endloop
endfacet
facet normal 5.2897948E-01 -8.4863460E-01 0.0000000E+00
outer loop
vertex 1.4713794E-01 -3.5462290E-01 -5.9999999E-02
vertex 1.4713794E-01 -3.5462290E-01 -2.9999999E-02
vertex 1.4455909E-01 -3.5623038E-01 -5.9999999E-02
endloop
endfacet
facet normal 5.2897948E-01 -8.4863460E-01 0.0000000E+00
outer loop
vertex 1.4455909E-01 -3.5623038E-01 -5.9999999E-02
vertex 1.4713794E-01 -3.5462290E-01 -2.9999999E-02
vertex 1.4455909E-01 -3.5623038E-01 -2.9999999E-02
endloop
endfacet
facet normal 4.4038326E-01 -8.9780986E-01 0.0000000E+00
outer loop
vertex 1.4455909E-01 -3.5623038E-01 -5.9999999E-02
vertex 1.4455909E-01 -3.5623038E-01 -2.9999999E-02
vertex 1.4183056E-01 -3.5756874E-01 -5.9999999E-02
endloop
endfacet
facet normal 4.4038326E-01 -8.9780986E-01 0.0000000E+00
outer loop
vertex 1.4183056E-01 -3.5756874E-01 -5.9999999E-02
vertex 1.4455909E-01 -3.5623038E-01 -2.9999999E-02
vertex 1.4183056E-01 -3.5756874E-01 -2.9999999E-02
endloop
endfacet
facet normal 3.4732550E-01 -9.3774462E-01 0.0000000E+00
outer loop
vertex 1.4183056E-01 -3.5756874E-01 -5.9999999E-02
vertex 1.4183056E-01 -3.5756874E-01 -2.9999999E-02
vertex 1.3898095E-01 -3.5862419E-01 -5.9999999E-02
endloop
endfacet
facet normal 3.4732550E-01 -9.3774462E-01 0.0000000E+00
outer loop
vertex 1.3898095E-01 -3.5862419E-01 -5.9999999E-02
vertex 1.4183056E-01 -3.5756874E-01 -2.9999999E-02
vertex 1.3898095E-01 -3.5862419E-01 -2.9999999E-02
endloop
endfacet
facet normal 2.5065529E-01 -9.6807635E-01 0.0000000E+00
outer loop
vertex 1.3898095E-01 -3.5862419E-01 -5.9999999E-02
vertex 1.3898095E-01 -3.5862419E-01 -2.9999999E-02
vertex 1.3603906E-01 -3.5938591E-01 -5.9999999E-02
endloop
endfacet
facet normal 2.5065529E-01 -9.6807635E-01 0.0000000E+00
outer loop
vertex 1.3603906E-01 -3.5938591E-01 -5.9999999E-02
vertex 1.3898095E-01 -3.5862419E-01 -2.9999999E-02
vertex 1.3603906E-01 -3.5938591E-01 -2.9999999E-02
endloop
endfacet
facet normal 1.5142633E-01 -9.8846847E-01 0.0000000E+00
outer loop
vertex 1.3603906E-01 -3.5938591E-01 -5.9999999E-02
vertex 1.3603906E-01 -3.5938591E-01 -2.9999999E-02
vertex 1.3303515E-01 -3.5984609E-01 -5.9999999E-02
endloop
endfacet
facet normal 1.5142633E-01 -9.8846847E-01 0.0000000E+00
outer loop
vertex 1.3303515E-01 -3.5984609E-01 -5.9999999E-02
vertex 1.3603906E-01 -3.5938591E-01 -2.9999999E-02
vertex 1.3303515E-01 -3.5984609E-01 -2.9999999E-02
endloop
endfacet
facet normal 5.0650217E-02 -9.9871641E-01 0.0000000E+00
outer loop
vertex 1.3303515E-01 -3.5984609E-01 -5.9999999E-02
vertex 1.3303515E-01 -3.5984609E-01 -2.9999999E-02
vertex 1.3000000E-01 -3.6000001E-01 -5.9999999E-02
endloop
endfacet
facet normal 5.0650217E-02 -9.9871641E-01 0.0000000E+00
outer loop
vertex 1.3000000E-01 -3.6000001E-01 -5.9999999E-02
vertex 1.3303515E-01 -3.5984609E-01 -2.9999999E-02
vertex 1.3000000E-01 -3.6000001E-01 -2.9999999E-02
endloop
endfacet
facet normal 9.9745506E-01 7.1297519E-02 0.0000000E+00
outer loop
vertex 1.1515259E-01 -3.3213472E-01 -2.9999999E-02
vertex 1.1515259E-01 -3.3213472E-01 -5.9999999E-02
vertex 1.1500000E-01 -3.3000001E-01 -2.9999999E-02
endloop
endfacet
facet normal 9.9745506E-01 7.1297519E-02 0.0000000E+00
outer loop
vertex 1.1500000E-01 -3.3000001E-01 -2.9999999E-02
vertex 1.1515259E-01 -3.3213472E-01 -5.9999999E-02
vertex 1.1500000E-01 -3.3000001E-01 -5.9999999E-02
endloop
endfacet
facet normal 9.9745512E-01 -7.1296528E-02 0.0000000E+00
outer loop
vertex 1.1500000E-01 -3.3000001E-01 -2.9999999E-02
vertex 1.1500000E-01 -3.3000001E-01 -5.9999999E-02
vertex 1.1515259E-01 -3.2786527E-01 -2.9999999E-02
endloop
endfacet
facet normal 9.9745512E-01 -7.1296528E-02 0.0000000E+00
outer loop
vertex 1.1515259E-01 -3.2786527E-01 -2.9999999E-02
vertex 1.1500000E-01 -3.3000001E-01 -5.9999999E-02
vertex 1.1515259E-01 -3.2786527E-01 -5.9999999E-02
endloop
endfacet
facet normal 9.7713250E-01 -2.1263157E-01 0.0000000E+00
outer loop
vertex 1.1515259E-01 -3.2786527E-01 -2.9999999E-02
vertex 1.1515259E-01 -3.2786527E-01 -5.9999999E-02
vertex 1.1560766E-01 -3.2577401E-01 -2.9999999E-02
endloop
endfacet
facet normal 9.7713250E-01 -2.1263157E-01 0.0000000E+00
outer loop
vertex 1.1560766E-01 -3.2577401E-01 -2.9999999E-02
vertex 1.1515259E-01 -3.2786527E-01 -5.9999999E-02
vertex 1.1560766E-01 -3.2577401E-01 -5.9999999E-02
endloop
endfacet
facet normal 9.3696690E-01 -3.4941825E-01 0.0000000E+00
outer loop
vertex 1.1560766E-01 -3.2577401E-01 -2.9999999E-02
vertex 1.1560766E-01 -3.2577401E-01 -5.9999999E-02
vertex 1.1635547E-01 -3.2376876E-01 -2.9999999E-02
endloop
endfacet
facet normal 9.3696690E-01 -3.4941825E-01 0.0000000E+00
outer loop
vertex 1.1635547E-01 -3.2376876E-01 -2.9999999E-02
vertex 1.1560766E-01 -3.2577401E-01 -5.9999999E-02
vertex 1.1635547E-01 -3.2376876E-01 -5.9999999E-02
endloop
endfacet
facet normal 8.7768722E-01 -4.7923407E-01 0.0000000E+00
outer loop
vertex 1.1635547E-01 -3.2376876E-01 -2.9999999E-02
vertex 1.1635547E-01 -3.2376876E-01 -5.9999999E-02
vertex 1.1738110E-01 -3.2189038E-01 -2.9999999E-02
endloop
endfacet
facet normal 8.7768722E-01 -4.7923407E-01 0.0000000E+00
outer loop
vertex 1.1738110E-01 -3.2189038E-01 -2.9999999E-02
vertex 1.1635547E-01 -3.2376876E-01 -5.9999999E-02
vertex 1.1738110E-01 -3.2189038E-01 -5.9999999E-02
endloop
endfacet
facet normal 8.0050766E-01 -5.9932250E-01 0.0000000E+00
outer loop
vertex 1.1738110E-01 -3.2189038E-01 -2.9999999E-02
vertex 1.1738110E-01 -3.2189038E-01 -5.9999999E-02
vertex 1.1866382E-01 -3.2017708E-01 -2.9999999E-02
endloop
endfacet
facet normal 8.0050766E-01 -5.9932250E-01 0.0000000E+00
outer loop
vertex 1.1866382E-01 -3.2017708E-01 -2.9999999E-02
vertex 1.1738110E-01 -3.2189038E-01 -5.9999999E-02
vertex 1.1866382E-01 -3.2017708E-01 -5.9999999E-02
endloop
endfacet
facet normal 7.0714158E-01 -7.0707196E-01 0.0000000E+00
outer loop
vertex 1.1866382E-01 -3.2017708E-01 -2.9999999E-02
vertex 1.1866382E-01 -3.2017708E-01 -5.9999999E-02
vertex 1.2017700E-01 -3.1866375E-01 -2.9999999E-02
endloop
endfacet
facet normal 7.0714158E-01 -7.0707196E-01 0.0000000E+00
outer loop
vertex 1.2017700E-01 -3.1866375E-01 -2.9999999E-02
vertex 1.1866382E-01 -3.2017708E-01 -5.9999999E-02
vertex 1.2017700E-01 -3.1866375E-01 -5.9999999E-02
endloop
endfacet
facet normal 5.9925449E-01 -8.0055869E-01 0.0000000E+00
outer loop
vertex 1.2017700E-01 -3.1866375E-01 -2.9999999E-02
vertex 1.2017700E-01 -3.1866375E-01 -5.9999999E-02
vertex 1.2189038E-01 -3.1738120E-01 -2.9999999E-02
endloop
endfacet
facet normal 5.9925449E-01 -8.0055869E-01 0.0000000E+00
outer loop
vertex 1.2189038E-01 -3.1738120E-01 -2.9999999E-02
vertex 1.2017700E-01 -3.1866375E-01 -5.9999999E-02
vertex 1.2189038E-01 -3.1738120E-01 -5.9999999E-02
endloop
endfacet
facet normal 4.7924280E-01 -8.7768233E-01 0.0000000E+00
outer loop
vertex 1.2189038E-01 -3.1738120E-01 -2.9999999E-02
vertex 1.2189038E-01 -3.1738120E-01 -5.9999999E-02
vertex 1.2376880E-01 -3.1635553E-01 -2.9999999E-02
endloop
endfacet
facet normal 4.7924280E-01 -8.7768233E-01 0.0000000E+00
outer loop
vertex 1.2376880E-01 -3.1635553E-01 -2.9999999E-02
vertex 1.2189038E-01 -3.1738120E-01 -5.9999999E-02
vertex 1.2376880E-01 -3.1635553E-01 -5.9999999E-02
endloop
endfacet
facet normal 3.4948349E-01 -9.3694258E-01 0.0000000E+00
outer loop
vertex 1.2376880E-01 -3.1635553E-01 -2.9999999E-02
vertex 1.2376880E-01 -3.1635553E-01 -5.9999999E-02
vertex 1.2577392E-01 -3.1560761E-01 -2.9999999E-02
endloop
endfacet
facet normal 3.4948349E-01 -9.3694258E-01 0.0000000E+00
outer loop
vertex 1.2577392E-01 -3.1560761E-01 -2.9999999E-02
vertex 1.2376880E-01 -3.1635553E-01 -5.9999999E-02
vertex 1.2577392E-01 -3.1560761E-01 -5.9999999E-02
endloop
endfacet
facet normal 2.1256262E-01 -9.7714752E-01 0.0000000E+00
outer loop
vertex 1.2577392E-01 -3.1560761E-01 -2.9999999E-02
vertex 1.2577392E-01 -3.1560761E-01 -5.9999999E-02
vertex 1.2786524E-01 -3.1515267E-01 -2.9999999E-02
endloop
endfacet
facet normal 2.1256262E-01 -9.7714752E-01 0.0000000E+00
outer loop
vertex 1.2786524E-01 -3.1515267E-01 -2.9999999E-02
vertex 1.2577392E-01 -3.1560761E-01 -5.9999999E-02
vertex 1.2786524E-01 -3.1515267E-01 -5.9999999E-02
endloop
endfacet
facet normal 7.1337596E-02 -9.9745220E-01 0.0000000E+00
outer loop
vertex 1.2786524E-01 -3.1515267E-01 -2.9999999E-02
vertex 1.2786524E-01 -3.1515267E-01 -5.9999999E-02
vertex 1.3000000E-01 -3.1500000E-01 -2.9999999E-02
endloop
endfacet
facet normal 7.1337596E-02 -9.9745220E-01 0.0000000E+00
outer loop
vertex 1.3000000E-01 -3.1500000E-01 -2.9999999E-02
vertex 1.2786524E-01 -3.1515267E-01 -5.9999999E-02
vertex 1.3000000E-01 -3.1500000E-01 -5.9999999E-02
endloop
endfacet
facet normal -7.1337096E-02 -9.9745220E-01 -0.0000000E+00
outer loop
vertex 1.3000000E-01 -3.1500000E-01 -2.9999999E-02
vertex 1.3000000E-01 -3.1500000E-01 -5.9999999E-02
vertex 1.3213477E-01 -3.1515267E-01 -2.9999999E-02
endloop
endfacet
facet normal -7.1337096E-02 -9.9745220E-01 -0.0000000E+00
outer loop
vertex 1.3213477E-01 -3.1515267E-01 -2.9999999E-02
vertex 1.3000000E-01 -3.1500000E-01 -5.9999999E-02
vertex 1.3213477E-01 -3.1515267E-01 -5.9999999E-02
endloop
endfacet
facet normal -2.1256405E-01 -9.7714716E-01 -0.0000000E+00
outer loop
vertex 1.3213477E-01 -3.1515267E-01 -2.9999999E-02
vertex 1.3213477E-01 -3.1515267E-01 -5.9999999E-02
vertex 1.3422607E-01 -3.1560761E-01 -2.9999999E-02
endloop
endfacet
facet normal -2.1256405E-01 -9.7714716E-01 -0.0000000E+00
outer loop
vertex 1.3422607E-01 -3.1560761E-01 -2.9999999E-02
vertex 1.3213477E-01 -3.1515267E-01 -5.9999999E-02
vertex 1.3422607E-01 -3.1560761E-01 -5.9999999E-02
endloop
endfacet
facet normal -3.4948233E-01 -9.3694293E-01 -0.0000000E+00
outer loop
vertex 1.3422607E-01 -3.1560761E-01 -2.9999999E-02
vertex 1.3422607E-01 -3.1560761E-01 -5.9999999E-02
vertex 1.3623120E-01 -3.1635553E-01 -2.9999999E-02
endloop
endfacet
facet normal -3.4948233E-01 -9.3694293E-01 -0.0000000E+00
outer loop
vertex 1.3623120E-01 -3.1635553E-01 -2.9999999E-02
vertex 1.3422607E-01 -3.1560761E-01 -5.9999999E-02
vertex 1.3623120E-01 -3.1635553E-01 -5.9999999E-02
endloop
endfacet
facet normal -4.7924134E-01 -8.7768316E-01 -0.0000000E+00
outer loop
vertex 1.3623120E-01 -3.1635553E-01 -2.9999999E-02
vertex 1.3623120E-01 -3.1635553E-01 -5.9999999E-02
vertex 1.3810962E-01 -3.1738120E-01 -2.9999999E-02
endloop
endfacet
facet normal -4.7924134E-01 -8.7768316E-01 -0.0000000E+00
outer loop
vertex 1.3810962E-01 -3.1738120E-01 -2.9999999E-02
vertex 1.3623120E-01 -3.1635553E-01 -5.9999999E-02
vertex 1.3810962E-01 -3.1738120E-01 -5.9999999E-02
endloop
endfacet
facet normal -5.9925449E-01 -8.0055869E-01 -0.0000000E+00
outer loop
vertex 1.3810962E-01 -3.1738120E-01 -2.9999999E-02
vertex 1.3810962E-01 -3.1738120E-01 -5.9999999E-02
vertex 1.3982300E-01 -3.1866375E-01 -2.9999999E-02
endloop
endfacet
facet normal -5.9925449E-01 -8.0055869E-01 -0.0000000E+00
outer loop
vertex 1.3982300E-01 -3.1866375E-01 -2.9999999E-02
vertex 1.3810962E-01 -3.1738120E-01 -5.9999999E-02
vertex 1.3982300E-01 -3.1866375E-01 -5.9999999E-02
endloop
endfacet
facet normal -7.0714158E-01 -7.0707196E-01 -0.0000000E+00
outer loop
vertex 1.3982300E-01 -3.1866375E-01 -2.9999999E-02
vertex 1.3982300E-01 -3.1866375E-01 -5.9999999E-02
vertex 1.4133619E-01 -3.2017708E-01 -2.9999999E-02
endloop
endfacet
facet normal -7.0714158E-01 -7.0707196E-01 -0.0000000E+00
outer loop
vertex 1.4133619E-01 -3.2017708E-01 -2.9999999E-02
vertex 1.3982300E-01 -3.1866375E-01 -5.9999999E-02
vertex 1.4133619E-01 -3.2017708E-01 -5.9999999E-02
endloop
endfacet
facet normal -8.0050927E-01 -5.9932023E-01 -0.0000000E+00
outer loop
vertex 1.4133619E-01 -3.2017708E-01 -2.9999999E-02
vertex 1.4133619E-01 -3.2017708E-01 -5.9999999E-02
vertex 1.4261889E-01 -3.2189038E-01 -2.9999999E-02
endloop
endfacet
facet normal -8.0050927E-01 -5.9932023E-01 -0.0000000E+00
outer loop
vertex 1.4261889E-01 -3.2189038E-01 -2.9999999E-02
vertex 1.4133619E-01 -3.2017708E-01 -5.9999999E-02
vertex 1.4261889E-01 -3.2189038E-01 -5.9999999E-02
endloop
endfacet
facet normal -8.7768722E-01 -4.7923407E-01 -0.0000000E+00
outer loop
vertex 1.4261889E-01 -3.2189038E-01 -2.9999999E-02
vertex 1.4261889E-01 -3.2189038E-01 -5.9999999E-02
vertex 1.4364453E-01 -3.2376876E-01 -2.9999999E-02
endloop
endfacet
facet normal -8.7768722E-01 -4.7923407E-01 -0.0000000E+00
outer loop
vertex 1.4364453E-01 -3.2376876E-01 -2.9999999E-02
vertex 1.4261889E-01 -3.2189038E-01 -5.9999999E-02
vertex 1.4364453E-01 -3.2376876E-01 -5.9999999E-02
endloop
endfacet
facet normal -9.3696570E-01 -3.4942129E-01 -0.0000000E+00
outer loop
vertex 1.4364453E-01 -3.2376876E-01 -2.9999999E-02
vertex 1.4364453E-01 -3.2376876E-01 -5.9999999E-02
vertex 1.4439234E-01 -3.2577401E-01 -2.9999999E-02
endloop
endfacet
facet normal -9.3696570E-01 -3.4942129E-01 -0.0000000E+00
outer loop
vertex 1.4439234E-01 -3.2577401E-01 -2.9999999E-02
vertex 1.4364453E-01 -3.2376876E-01 -5.9999999E-02
vertex 1.4439234E-01 -3.2577401E-01 -5.9999999E-02
endloop
endfacet
facet normal -9.7713321E-01 -2.1262823E-01 -0.0000000E+00
outer loop
vertex 1.4439234E-01 -3.2577401E-01 -2.9999999E-02
vertex 1.4439234E-01 -3.2577401E-01 -5.9999999E-02
vertex 1.4484741E-01 -3.2786527E-01 -2.9999999E-02
endloop
endfacet
facet normal -9.7713321E-01 -2.1262823E-01 -0.0000000E+00
outer loop
vertex 1.4484741E-01 -3.2786527E-01 -2.9999999E-02
vertex 1.4439234E-01 -3.2577401E-01 -5.9999999E-02
vertex 1.4484741E-01 -3.2786527E-01 -5.9999999E-02
endloop
endfacet
facet normal -9.9745512E-01 -7.1296528E-02 -0.0000000E+00
outer loop
vertex 1.4484741E-01 -3.2786527E-01 -2.9999999E-02
vertex 1.4484741E-01 -3.2786527E-01 -5.9999999E-02
vertex 1.4500000E-01 -3.3000001E-01 -2.9999999E-02
endloop
endfacet
facet normal -9.9745512E-01 -7.1296528E-02 -0.0000000E+00
outer loop
vertex 1.4500000E-01 -3.3000001E-01 -2.9999999E-02
vertex 1.4484741E-01 -3.2786527E-01 -5.9999999E-02
vertex 1.4500000E-01 -3.3000001E-01 -5.9999999E-02
endloop
endfacet
facet normal -9.9745506E-01 7.1297519E-02 0.0000000E+00
outer loop
vertex 1.4500000E-01 -3.3000001E-01 -2.9999999E-02
vertex 1.4500000E-01 -3.3000001E-01 -5.9999999E-02
vertex 1.4484741E-01 -3.3213472E-01 -2.9999999E-02
endloop
endfacet
facet normal -9.9745506E-01 7.1297519E-02 0.0000000E+00
outer loop
vertex 1.4484741E-01 -3.3213472E-01 -2.9999999E-02
vertex 1.4500000E-01 -3.3000001E-01 -5.9999999E-02
vertex 1.4484741E-01 -3.3213472E-01 -5.9999999E-02
endloop
endfacet
facet normal -9.7713321E-01 2.1262823E-01 0.0000000E+00
outer loop
vertex 1.4484741E-01 -3.3213472E-01 -2.9999999E-02
vertex 1.4484741E-01 -3.3213472E-01 -5.9999999E-02
vertex 1.4439234E-01 -3.3422598E-01 -2.9999999E-02
endloop
endfacet
facet normal -9.7713321E-01 2.1262823E-01 0.0000000E+00
outer loop
vertex 1.4439234E-01 -3.3422598E-01 -2.9999999E-02
vertex 1.4484741E-01 -3.3213472E-01 -5.9999999E-02
vertex 1.4439234E-01 -3.3422598E-01 -5.9999999E-02
endloop
endfacet
facet normal -9.3696570E-01 3.4942129E-01 0.0000000E+00
outer loop
vertex 1.4439234E-01 -3.3422598E-01 -2.9999999E-02
vertex 1.4439234E-01 -3.3422598E-01 -5.9999999E-02
vertex 1.4364453E-01 -3.3623123E-01 -2.9999999E-02
endloop
endfacet
facet normal -9.3696570E-01 3.4942129E-01 0.0000000E+00
outer loop
vertex 1.4364453E-01 -3.3623123E-01 -2.9999999E-02
vertex 1.4439234E-01 -3.3422598E-01 -5.9999999E-02
vertex 1.4364453E-01 -3.3623123E-01 -5.9999999E-02
endloop
endfacet
facet normal -8.7768722E-01 4.7923407E-01 0.0000000E+00
outer loop
vertex 1.4364453E-01 -3.3623123E-01 -2.9999999E-02
vertex 1.4364453E-01 -3.3623123E-01 -5.9999999E-02
vertex 1.4261889E-01 -3.3810961E-01 -2.9999999E-02
endloop
endfacet
facet normal -8.7768722E-01 4.7923407E-01 0.0000000E+00
outer loop
vertex 1.4261889E-01 -3.3810961E-01 -2.9999999E-02
vertex 1.4364453E-01 -3.3623123E-01 -5.9999999E-02
vertex 1.4261889E-01 -3.3810961E-01 -5.9999999E-02
endloop
endfacet
facet normal -8.0050927E-01 5.9932023E-01 0.0000000E+00
outer loop
vertex 1.4261889E-01 -3.3810961E-01 -2.9999999E-02
vertex 1.4261889E-01 -3.3810961E-01 -5.9999999E-02
vertex 1.4133619E-01 -3.3982292E-01 -2.9999999E-02
endloop
endfacet
facet normal -8.0050927E-01 5.9932023E-01 0.0000000E+00
outer loop
vertex 1.4133619E-01 -3.3982292E-01 -2.9999999E-02
vertex 1.4261889E-01 -3.3810961E-01 -5.9999999E-02
vertex 1.4133619E-01 -3.3982292E-01 -5.9999999E-02
endloop
endfacet
facet normal -7.0714158E-01 7.0707196E-01 0.0000000E+00
outer loop
vertex 1.4133619E-01 -3.3982292E-01 -2.9999999E-02
vertex 1.4133619E-01 -3.3982292E-01 -5.9999999E-02
vertex 1.3982300E-01 -3.4133625E-01 -2.9999999E-02
endloop
endfacet
facet normal -7.0714158E-01 7.0707196E-01 0.0000000E+00
outer loop
vertex 1.3982300E-01 -3.4133625E-01 -2.9999999E-02
vertex 1.4133619E-01 -3.3982292E-01 -5.9999999E-02
vertex 1.3982300E-01 -3.4133625E-01 -5.9999999E-02
endloop
endfacet
facet normal -5.9925449E-01 8.0055869E-01 0.0000000E+00
outer loop
vertex 1.3982300E-01 -3.4133625E-01 -2.9999999E-02
vertex 1.3982300E-01 -3.4133625E-01 -5.9999999E-02
vertex 1.3810962E-01 -3.4261879E-01 -2.9999999E-02
endloop
endfacet
facet normal -5.9925449E-01 8.0055869E-01 0.0000000E+00
outer loop
vertex 1.3810962E-01 -3.4261879E-01 -2.9999999E-02
vertex 1.3982300E-01 -3.4133625E-01 -5.9999999E-02
vertex 1.3810962E-01 -3.4261879E-01 -5.9999999E-02
endloop
endfacet
facet normal -4.7925210E-01 8.7767732E-01 0.0000000E+00
outer loop
vertex 1.3810962E-01 -3.4261879E-01 -2.9999999E-02
vertex 1.3810962E-01 -3.4261879E-01 -5.9999999E-02
vertex 1.3623120E-01 -3.4364450E-01 -2.9999999E-02
endloop
endfacet
facet normal -4.7925210E-01 8.7767732E-01 0.0000000E+00
outer loop
vertex 1.3623120E-01 -3.4364450E-01 -2.9999999E-02
vertex 1.3810962E-01 -3.4261879E-01 -5.9999999E-02
vertex 1.3623120E-01 -3.4364450E-01 -5.9999999E-02
endloop
endfacet
facet normal -3.4947011E-01 9.3694752E-01 0.0000000E+00
outer loop
vertex 1.3623120E-01 -3.4364450E-01 -2.9999999E-02
vertex 1.3623120E-01 -3.4364450E-01 -5.9999999E-02
vertex 1.3422607E-01 -3.4439239E-01 -2.9999999E-02
endloop
endfacet
facet normal -3.4947011E-01 9.3694752E-01 0.0000000E+00
outer loop
vertex 1.3422607E-01 -3.4439239E-01 -2.9999999E-02
vertex 1.3623120E-01 -3.4364450E-01 -5.9999999E-02
vertex 1.3422607E-01 -3.4439239E-01 -5.9999999E-02
endloop
endfacet
facet normal -2.1256405E-01 9.7714716E-01 0.0000000E+00
outer loop
vertex 1.3422607E-01 -3.4439239E-01 -2.9999999E-02
vertex 1.3422607E-01 -3.4439239E-01 -5.9999999E-02
vertex 1.3213477E-01 -3.4484732E-01 -2.9999999E-02
endloop
endfacet
facet normal -2.1256405E-01 9.7714716E-01 0.0000000E+00
outer loop
vertex 1.3213477E-01 -3.4484732E-01 -2.9999999E-02
vertex 1.3422607E-01 -3.4439239E-01 -5.9999999E-02
vertex 1.3213477E-01 -3.4484732E-01 -5.9999999E-02
endloop
endfacet
facet normal -7.1337096E-02 9.9745220E-01 0.0000000E+00
outer loop
vertex 1.3213477E-01 -3.4484732E-01 -2.9999999E-02
vertex 1.3213477E-01 -3.4484732E-01 -5.9999999E-02
vertex 1.3000000E-01 -3.4500000E-01 -2.9999999E-02
endloop
endfacet
facet normal -7.1337096E-02 9.9745220E-01 0.0000000E+00
outer loop
vertex 1.3000000E-01 -3.4500000E-01 -2.9999999E-02
vertex 1.3213477E-01 -3.4484732E-01 -5.9999999E-02
vertex 1.3000000E-01 -3.4500000E-01 -5.9999999E-02
endloop
endfacet
facet normal 7.1337596E-02 9.9745220E-01 0.0000000E+00
outer loop
vertex 1.3000000E-01 -3.4500000E-01 -2.9999999E-02
vertex 1.3000000E-01 -3.4500000E-01 -5.9999999E-02
vertex 1.2786524E-01 -3.4484732E-01 -2.9999999E-02
endloop
endfacet
facet normal 7.1337596E-02 9.9745220E-01 0.0000000E+00
outer loop
vertex 1.2786524E-01 -3.4484732E-01 -2.9999999E-02
vertex 1.3000000E-01 -3.4500000E-01 -5.9999999E-02
vertex 1.2786524E-01 -3.4484732E-01 -5.9999999E-02
endloop
endfacet
facet normal 2.1256262E-01 9.7714752E-01 0.0000000E+00
outer loop
vertex 1.2786524E-01 -3.4484732E-01 -2.9999999E-02
vertex 1.2786524E-01 -3.4484732E-01 -5.9999999E-02
vertex 1.2577392E-01 -3.4439239E-01 -2.9999999E-02
endloop
endfacet
facet normal 2.1256262E-01 9.7714752E-01 0.0000000E+00
outer loop
vertex 1.2577392E-01 -3.4439239E-01 -2.9999999E-02
vertex 1.2786524E-01 -3.4484732E-01 -5.9999999E-02
vertex 1.2577392E-01 -3.4439239E-01 -5.9999999E-02
endloop
endfacet
facet normal 3.4947127E-01 9.3694717E-01 0.0000000E+00
outer loop
vertex 1.2577392E-01 -3.4439239E-01 -2.9999999E-02
vertex 1.2577392E-01 -3.4439239E-01 -5.9999999E-02
vertex 1.2376880E-01 -3.4364450E-01 -2.9999999E-02
endloop
endfacet
facet normal 3.4947127E-01 9.3694717E-01 0.0000000E+00
outer loop
vertex 1.2376880E-01 -3.4364450E-01 -2.9999999E-02
vertex 1.2577392E-01 -3.4439239E-01 -5.9999999E-02
vertex 1.2376880E-01 -3.4364450E-01 -5.9999999E-02
endloop
endfacet
facet normal 4.7925356E-01 8.7767649E-01 0.0000000E+00
outer loop
vertex 1.2376880E-01 -3.4364450E-01 -2.9999999E-02
vertex 1.2376880E-01 -3.4364450E-01 -5.9999999E-02
vertex 1.2189038E-01 -3.4261879E-01 -2.9999999E-02
endloop
endfacet
facet normal 4.7925356E-01 8.7767649E-01 0.0000000E+00
outer loop
vertex 1.2189038E-01 -3.4261879E-01 -2.9999999E-02
vertex 1.2376880E-01 -3.4364450E-01 -5.9999999E-02
vertex 1.2189038E-01 -3.4261879E-01 -5.9999999E-02
endloop
endfacet
facet normal 5.9925449E-01 8.0055869E-01 0.0000000E+00
outer loop
vertex 1.2189038E-01 -3.4261879E-01 -2.9999999E-02
vertex 1.2189038E-01 -3.4261879E-01 -5.9999999E-02
vertex 1.2017700E-01 -3.4133625E-01 -2.9999999E-02
endloop
endfacet
facet normal 5.9925449E-01 8.0055869E-01 0.0000000E+00
outer loop
vertex 1.2017700E-01 -3.4133625E-01 -2.9999999E-02
vertex 1.2189038E-01 -3.4261879E-01 -5.9999999E-02
vertex 1.2017700E-01 -3.4133625E-01 -5.9999999E-02
endloop
endfacet
facet normal 7.0714158E-01 7.0707196E-01 0.0000000E+00
outer loop
vertex 1.2017700E-01 -3.4133625E-01 -2.9999999E-02
vertex 1.2017700E-01 -3.4133625E-01 -5.9999999E-02
vertex 1.1866382E-01 -3.3982292E-01 -2.9999999E-02
endloop
endfacet
facet normal 7.0714158E-01 7.0707196E-01 0.0000000E+00
outer loop
vertex 1.1866382E-01 -3.3982292E-01 -2.9999999E-02
vertex 1.2017700E-01 -3.4133625E-01 -5.9999999E-02
vertex 1.1866382E-01 -3.3982292E-01 -5.9999999E-02
endloop
endfacet
facet normal 8.0050766E-01 5.9932250E-01 0.0000000E+00
outer loop
vertex 1.1866382E-01 -3.3982292E-01 -2.9999999E-02
vertex 1.1866382E-01 -3.3982292E-01 -5.9999999E-02
vertex 1.1738110E-01 -3.3810961E-01 -2.9999999E-02
endloop
endfacet
facet normal 8.0050766E-01 5.9932250E-01 0.0000000E+00
outer loop
vertex 1.1738110E-01 -3.3810961E-01 -2.9999999E-02
vertex 1.1866382E-01 -3.3982292E-01 -5.9999999E-02
vertex 1.1738110E-01 -3.3810961E-01 -5.9999999E-02
endloop
endfacet
facet normal 8.7768722E-01 4.7923407E-01 0.0000000E+00
outer loop
vertex 1.1738110E-01 -3.3810961E-01 -2.9999999E-02
vertex 1.1738110E-01 -3.3810961E-01 -5.9999999E-02
vertex 1.1635547E-01 -3.3623123E-01 -2.9999999E-02
endloop
endfacet
facet normal 8.7768722E-01 4.7923407E-01 0.0000000E+00
outer loop
vertex 1.1635547E-01 -3.3623123E-01 -2.9999999E-02
vertex 1.1738110E-01 -3.3810961E-01 -5.9999999E-02
vertex 1.1635547E-01 -3.3623123E-01 -5.9999999E-02
endloop
endfacet
facet normal 9.3696690E-01 3.4941825E-01 0.0000000E+00
outer loop
vertex 1.1635547E-01 -3.3623123E-01 -2.9999999E-02
vertex 1.1635547E-01 -3.3623123E-01 -5.9999999E-02
vertex 1.1560766E-01 -3.3422598E-01 -2.9999999E-02
endloop
endfacet
facet normal 9.3696690E-01 3.4941825E-01 0.0000000E+00
outer loop
vertex 1.1560766E-01 -3.3422598E-01 -2.9999999E-02
vertex 1.1635547E-01 -3.3623123E-01 -5.9999999E-02
vertex 1.1560766E-01 -3.3422598E-01 -5.9999999E-02
endloop
endfacet
facet normal 9.7713250E-01 2.1263157E-01 0.0000000E+00
outer loop
vertex 1.1560766E-01 -3.3422598E-01 -2.9999999E-02
vertex 1.1560766E-01 -3.3422598E-01 -5.9999999E-02
vertex 1.1515259E-01 -3.3213472E-01 -2.9999999E-02
endloop
endfacet
facet normal 9.7713250E-01 2.1263157E-01 0.0000000E+00
outer loop
vertex 1.1515259E-01 -3.3213472E-01 -2.9999999E-02
vertex 1.1560766E-01 -3.3422598E-01 -5.9999999E-02
vertex 1.1515259E-01 -3.3213472E-01 -5.9999999E-02
endloop
endfacet
facet normal 0.0000000E+00 0.0000000E+00 1.0000000E+00
outer loop
vertex -2.0000000E-02 -3.6000001E-01 -2.9999999E-02
vertex 1.1500000E-01 -3.3000001E-01 -2.9999999E-02
vertex -2.0000000E-02 -3.0000001E-01 -2.9999999E-02
endloop
endfacet
facet normal 0.0000000E+00 0.0000000E+00 1.0000000E+00
outer loop
vertex -2.0000000E-02 -3.0000001E-01 -2.9999999E-02
vertex 1.1500000E-01 -3.3000001E-01 -2.9999999E-02
vertex 1.1515259E-01 -3.2786527E-01 -2.9999999E-02
endloop
endfacet
facet normal 0.0000000E+00 0.0000000E+00 1.0000000E+00
outer loop
vertex -2.0000000E-02 -3.0000001E-01 -2.9999999E-02
vertex 1.1515259E-01 -3.2786527E-01 -2.9999999E-02
vertex 1.1560766E-01 -3.2577401E-01 -2.9999999E-02
endloop
endfacet
facet normal 0.0000000E+00 0.0000000E+00 1.0000000E+00
outer loop
vertex 1.3000000E-01 -3.6000001E-01 -2.9999999E-02
vertex 1.2189038E-01 -3.4261879E-01 -2.9999999E-02
vertex -2.0000000E-02 -3.6000001E-01 -2.9999999E-02
endloop
endfacet
facet normal 0.0000000E+00 0.0000000E+00 1.0000000E+00
outer loop
vertex -2.0000000E-02 -3.6000001E-01 -2.9999999E-02
vertex 1.2189038E-01 -3.4261879E-01 -2.9999999E-02
vertex 1.2017700E-01 -3.4133625E-01 -2.9999999E-02
endloop
endfacet
facet normal 0.0000000E+00 0.0000000E+00 1.0000000E+00
outer loop
vertex -2.0000000E-02 -3.6000001E-01 -2.9999999E-02
vertex 1.2017700E-01 -3.4133625E-01 -2.9999999E-02
vertex 1.1866382E-01 -3.3982292E-01 -2.9999999E-02
endloop
endfacet
facet normal 0.0000000E+00 -0.0000000E+00 1.0000000E+00
outer loop
vertex 1.3303515E-01 -3.5984609E-01 -2.9999999E-02
vertex 1.3603906E-01 -3.5938591E-01 -2.9999999E-02
vertex 1.3000000E-01 -3.6000001E-01 -2.9999999E-02
endloop
endfacet
facet normal 0.0000000E+00 0.0000000E+00 1.0000000E+00
outer loop
vertex 1.3000000E-01 -3.6000001E-01 -2.9999999E-02
vertex 1.3603906E-01 -3.5938591E-01 -2.9999999E-02
vertex 1.3898095E-01 -3.5862419E-01 -2.9999999E-02
endloop
endfacet
facet normal 0.0000000E+00 0.0000000E+00 1.0000000E+00
outer loop
vertex 1.3000000E-01 -3.6000001E-01 -2.9999999E-02
vertex 1.3898095E-01 -3.5862419E-01 -2.9999999E-02
vertex 1.4183056E-01 -3.5756874E-01 -2.9999999E-02
endloop
endfacet
facet normal 0.0000000E+00 -0.0000000E+00 9.9999994E-01
outer loop
vertex 1.3000000E-01 -3.6000001E-01 -2.9999999E-02
vertex 1.4183056E-01 -3.5756874E-01 -2.9999999E-02
vertex 1.2786524E-01 -3.4484732E-01 -2.9999999E-02
endloop
endfacet
facet normal 0.0000000E+00 0.0000000E+00 1.0000000E+00
outer loop
vertex 1.2786524E-01 -3.4484732E-01 -2.9999999E-02
vertex 1.4183056E-01 -3.5756874E-01 -2.9999999E-02
vertex 1.4455909E-01 -3.5623038E-01 -2.9999999E-02
endloop
endfacet
facet normal 0.0000000E+00 0.0000000E+00 1.0000000E+00
outer loop
vertex 1.2786524E-01 -3.4484732E-01 -2.9999999E-02
vertex 1.4455909E-01 -3.5623038E-01 -2.9999999E-02
vertex 1.3000000E-01 -3.4500000E-01 -2.9999999E-02
endloop
endfacet
facet normal 0.0000000E+00 0.0000000E+00 1.0000000E+00
outer loop
vertex 1.3000000E-01 -3.4500000E-01 -2.9999999E-02
vertex 1.4455909E-01 -3.5623038E-01 -2.9999999E-02
vertex 1.4713794E-01 -3.5462290E-01 -2.9999999E-02
endloop
endfacet
facet normal 0.0000000E+00 0.0000000E+00 1.0000000E+00
outer loop
vertex 1.3000000E-01 -3.4500000E-01 -2.9999999E-02
vertex 1.4713794E-01 -3.5462290E-01 -2.9999999E-02
vertex 1.4954126E-01 -3.5276273E-01 -2.9999999E-02
endloop
endfacet
facet normal -0.0000000E+00 0.0000000E+00 1.0000000E+00
outer loop
vertex 1.3000000E-01 -3.4500000E-01 -2.9999999E-02
vertex 1.4954126E-01 -3.5276273E-01 -2.9999999E-02
vertex 1.3213477E-01 -3.4484732E-01 -2.9999999E-02
endloop
endfacet
facet normal 0.0000000E+00 0.0000000E+00 9.9999994E-01
outer loop
vertex 1.3213477E-01 -3.4484732E-01 -2.9999999E-02
vertex 1.4954126E-01 -3.5276273E-01 -2.9999999E-02
vertex 1.5174390E-01 -3.5066900E-01 -2.9999999E-02
endloop
endfacet
facet normal -0.0000000E+00 0.0000000E+00 1.0000000E+00
outer loop
vertex 1.3213477E-01 -3.4484732E-01 -2.9999999E-02
vertex 1.5174390E-01 -3.5066900E-01 -2.9999999E-02
vertex 1.3422607E-01 -3.4439239E-01 -2.9999999E-02
endloop
endfacet
facet normal 0.0000000E+00 0.0000000E+00 1.0000000E+00
outer loop
vertex 1.3422607E-01 -3.4439239E-01 -2.9999999E-02
vertex 1.5174390E-01 -3.5066900E-01 -2.9999999E-02
vertex 1.5372339E-01 -3.4836316E-01 -2.9999999E-02
endloop
endfacet
facet normal -0.0000000E+00 0.0000000E+00 1.0000000E+00
outer loop
vertex 1.3422607E-01 -3.4439239E-01 -2.9999999E-02
vertex 1.5372339E-01 -3.4836316E-01 -2.9999999E-02
vertex 1.3623120E-01 -3.4364450E-01 -2.9999999E-02
endloop
endfacet
facet normal 0.0000000E+00 0.0000000E+00 9.9999994E-01
outer loop
vertex 1.3623120E-01 -3.4364450E-01 -2.9999999E-02
vertex 1.5372339E-01 -3.4836316E-01 -2.9999999E-02
vertex 1.5545923E-01 -3.4586892E-01 -2.9999999E-02
endloop
endfacet
facet normal -0.0000000E+00 0.0000000E+00 1.0000000E+00
outer loop
vertex 1.3623120E-01 -3.4364450E-01 -2.9999999E-02
vertex 1.5545923E-01 -3.4586892E-01 -2.9999999E-02
vertex 1.3810962E-01 -3.4261879E-01 -2.9999999E-02
endloop
endfacet
facet normal 0.0000000E+00 0.0000000E+00 1.0000000E+00
outer loop
vertex 1.3810962E-01 -3.4261879E-01 -2.9999999E-02
vertex 1.5545923E-01 -3.4586892E-01 -2.9999999E-02
vertex 1.5693408E-01 -3.4321183E-01 -2.9999999E-02
endloop
endfacet
facet normal -0.0000000E+00 0.0000000E+00 1.0000000E+00
outer loop
vertex 1.3810962E-01 -3.4261879E-01 -2.9999999E-02
vertex 1.5693408E-01 -3.4321183E-01 -2.9999999E-02
vertex 1.3982300E-01 -3.4133625E-01 -2.9999999E-02
endloop
endfacet
facet normal -0.0000000E+00 0.0000000E+00 1.0000000E+00
outer loop
vertex 1.3982300E-01 -3.4133625E-01 -2.9999999E-02
vertex 1.5693408E-01 -3.4321183E-01 -2.9999999E-02
vertex 1.4133619E-01 -3.3982292E-01 -2.9999999E-02
endloop
endfacet
facet normal 0.0000000E+00 0.0000000E+00 1.0000000E+00
outer loop
vertex 1.4133619E-01 -3.3982292E-01 -2.9999999E-02
vertex 1.5693408E-01 -3.4321183E-01 -2.9999999E-02
vertex 1.5813257E-01 -3.4041917E-01 -2.9999999E-02
endloop
endfacet
facet normal -0.0000000E+00 0.0000000E+00 1.0000000E+00
outer loop
vertex 1.4133619E-01 -3.3982292E-01 -2.9999999E-02
vertex 1.5813257E-01 -3.4041917E-01 -2.9999999E-02
vertex 1.4261889E-01 -3.3810961E-01 -2.9999999E-02
endloop
endfacet
facet normal -0.0000000E+00 0.0000000E+00 1.0000000E+00
outer loop
vertex 1.4261889E-01 -3.3810961E-01 -2.9999999E-02
vertex 1.5813257E-01 -3.4041917E-01 -2.9999999E-02
vertex 1.5904224E-01 -3.3751959E-01 -2.9999999E-02
endloop
endfacet
facet normal 0.0000000E+00 0.0000000E+00 1.0000000E+00
outer loop
vertex 1.4261889E-01 -3.3810961E-01 -2.9999999E-02
vertex 1.5904224E-01 -3.3751959E-01 -2.9999999E-02
vertex 1.4364453E-01 -3.3623123E-01 -2.9999999E-02
endloop
endfacet
facet normal -0.0000000E+00 0.0000000E+00 1.0000000E+00
outer loop
vertex 1.4364453E-01 -3.3623123E-01 -2.9999999E-02
vertex 1.5904224E-01 -3.3751959E-01 -2.9999999E-02
vertex 1.5965405E-01 -3.3454284E-01 -2.9999999E-02
endloop
endfacet
facet normal 0.0000000E+00 0.0000000E+00 1.0000000E+00
outer loop
vertex 1.4364453E-01 -3.3623123E-01 -2.9999999E-02
vertex 1.5965405E-01 -3.3454284E-01 -2.9999999E-02
vertex 1.4439234E-01 -3.3422598E-01 -2.9999999E-02
endloop
endfacet
facet normal -0.0000000E+00 0.0000000E+00 1.0000000E+00
outer loop
vertex 1.4439234E-01 -3.3422598E-01 -2.9999999E-02
vertex 1.5965405E-01 -3.3454284E-01 -2.9999999E-02
vertex 1.4484741E-01 -3.3213472E-01 -2.9999999E-02
endloop
endfacet
facet normal -0.0000000E+00 0.0000000E+00 1.0000000E+00
outer loop
vertex 1.4484741E-01 -3.3213472E-01 -2.9999999E-02
vertex 1.5965405E-01 -3.3454284E-01 -2.9999999E-02
vertex 1.5996143E-01 -3.3151948E-01 -2.9999999E-02
endloop
endfacet
facet normal 0.0000000E+00 0.0000000E+00 1.0000000E+00
outer loop
vertex 1.4484741E-01 -3.3213472E-01 -2.9999999E-02
vertex 1.5996143E-01 -3.3151948E-01 -2.9999999E-02
vertex 1.4500000E-01 -3.3000001E-01 -2.9999999E-02
endloop
endfacet
facet normal -0.0000000E+00 0.0000000E+00 1.0000000E+00
outer loop
vertex 1.4500000E-01 -3.3000001E-01 -2.9999999E-02
vertex 1.5996143E-01 -3.3151948E-01 -2.9999999E-02
vertex 1.5996143E-01 -3.2848054E-01 -2.9999999E-02
endloop
endfacet
facet normal 0.0000000E+00 -0.0000000E+00 1.0000000E+00
outer loop
vertex 1.4500000E-01 -3.3000001E-01 -2.9999999E-02
vertex 1.5996143E-01 -3.2848054E-01 -2.9999999E-02
vertex 1.4484741E-01 -3.2786527E-01 -2.9999999E-02
endloop
endfacet
facet normal -0.0000000E+00 0.0000000E+00 1.0000000E+00
outer loop
vertex 1.4484741E-01 -3.2786527E-01 -2.9999999E-02
vertex 1.5996143E-01 -3.2848054E-01 -2.9999999E-02
vertex 1.5965405E-01 -3.2545716E-01 -2.9999999E-02
endloop
endfacet
facet normal 0.0000000E+00 -0.0000000E+00 1.0000000E+00
outer loop
vertex 1.4484741E-01 -3.2786527E-01 -2.9999999E-02
vertex 1.5965405E-01 -3.2545716E-01 -2.9999999E-02
vertex 1.4439234E-01 -3.2577401E-01 -2.9999999E-02
endloop
endfacet
facet normal 0.0000000E+00 -0.0000000E+00 1.0000000E+00
outer loop
vertex 1.4439234E-01 -3.2577401E-01 -2.9999999E-02
vertex 1.5965405E-01 -3.2545716E-01 -2.9999999E-02
vertex 1.4364453E-01 -3.2376876E-01 -2.9999999E-02
endloop
endfacet
facet normal -0.0000000E+00 0.0000000E+00 1.0000000E+00
outer loop
vertex 1.4364453E-01 -3.2376876E-01 -2.9999999E-02
vertex 1.5965405E-01 -3.2545716E-01 -2.9999999E-02
vertex 1.5904224E-01 -3.2248041E-01 -2.9999999E-02
endloop
endfacet
facet normal 0.0000000E+00 -0.0000000E+00 1.0000000E+00
outer loop
vertex 1.4364453E-01 -3.2376876E-01 -2.9999999E-02
vertex 1.5904224E-01 -3.2248041E-01 -2.9999999E-02
vertex 1.4261889E-01 -3.2189038E-01 -2.9999999E-02
endloop
endfacet
facet normal -0.0000000E+00 0.0000000E+00 9.9999994E-01
outer loop
vertex 1.4261889E-01 -3.2189038E-01 -2.9999999E-02
vertex 1.5904224E-01 -3.2248041E-01 -2.9999999E-02
vertex 1.5813257E-01 -3.1958085E-01 -2.9999999E-02
endloop
endfacet
facet normal 0.0000000E+00 -0.0000000E+00 1.0000000E+00
outer loop
vertex 1.4261889E-01 -3.2189038E-01 -2.9999999E-02
vertex 1.5813257E-01 -3.1958085E-01 -2.9999999E-02
vertex 1.4133619E-01 -3.2017708E-01 -2.9999999E-02
endloop
endfacet
facet normal 0.0000000E+00 0.0000000E+00 1.0000000E+00
outer loop
vertex 1.4133619E-01 -3.2017708E-01 -2.9999999E-02
vertex 1.5813257E-01 -3.1958085E-01 -2.9999999E-02
vertex 1.5693408E-01 -3.1678817E-01 -2.9999999E-02
endloop
endfacet
facet normal 0.0000000E+00 -0.0000000E+00 1.0000000E+00
outer loop
vertex 1.4133619E-01 -3.2017708E-01 -2.9999999E-02
vertex 1.5693408E-01 -3.1678817E-01 -2.9999999E-02
vertex 1.3982300E-01 -3.1866375E-01 -2.9999999E-02
endloop
endfacet
facet normal 0.0000000E+00 -0.0000000E+00 9.9999994E-01
outer loop
vertex 1.3982300E-01 -3.1866375E-01 -2.9999999E-02
vertex 1.5693408E-01 -3.1678817E-01 -2.9999999E-02
vertex 1.3810962E-01 -3.1738120E-01 -2.9999999E-02
endloop
endfacet
facet normal 0.0000000E+00 0.0000000E+00 1.0000000E+00
outer loop
vertex 1.3810962E-01 -3.1738120E-01 -2.9999999E-02
vertex 1.5693408E-01 -3.1678817E-01 -2.9999999E-02
vertex 1.5545923E-01 -3.1413108E-01 -2.9999999E-02
endloop
endfacet
facet normal 0.0000000E+00 -0.0000000E+00 1.0000000E+00
outer loop
vertex 1.3810962E-01 -3.1738120E-01 -2.9999999E-02
vertex 1.5545923E-01 -3.1413108E-01 -2.9999999E-02
vertex 1.3623120E-01 -3.1635553E-01 -2.9999999E-02
endloop
endfacet
facet normal 0.0000000E+00 0.0000000E+00 1.0000000E+00
outer loop
vertex 1.3623120E-01 -3.1635553E-01 -2.9999999E-02
vertex 1.5545923E-01 -3.1413108E-01 -2.9999999E-02
vertex 1.5372339E-01 -3.1163681E-01 -2.9999999E-02
endloop
endfacet
facet normal 0.0000000E+00 -0.0000000E+00 9.9999994E-01
outer loop
vertex 1.3623120E-01 -3.1635553E-01 -2.9999999E-02
vertex 1.5372339E-01 -3.1163681E-01 -2.9999999E-02
vertex 1.3422607E-01 -3.1560761E-01 -2.9999999E-02
endloop
endfacet
facet normal 0.0000000E+00 0.0000000E+00 1.0000000E+00
outer loop
vertex 1.3422607E-01 -3.1560761E-01 -2.9999999E-02
vertex 1.5372339E-01 -3.1163681E-01 -2.9999999E-02
vertex 1.5174390E-01 -3.0933100E-01 -2.9999999E-02
endloop
endfacet
facet normal 0.0000000E+00 -0.0000000E+00 1.0000000E+00
outer loop
vertex 1.3422607E-01 -3.1560761E-01 -2.9999999E-02
vertex 1.5174390E-01 -3.0933100E-01 -2.9999999E-02
vertex 1.3213477E-01 -3.1515267E-01 -2.9999999E-02
endloop
endfacet
facet normal 0.0000000E+00 0.0000000E+00 9.9999994E-01
outer loop
vertex 1.3213477E-01 -3.1515267E-01 -2.9999999E-02
vertex 1.5174390E-01 -3.0933100E-01 -2.9999999E-02
vertex 1.4954126E-01 -3.0723727E-01 -2.9999999E-02
endloop
endfacet
facet normal 0.0000000E+00 -0.0000000E+00 1.0000000E+00
outer loop
vertex 1.3213477E-01 -3.1515267E-01 -2.9999999E-02
vertex 1.4954126E-01 -3.0723727E-01 -2.9999999E-02
vertex 1.3000000E-01 -3.1500000E-01 -2.9999999E-02
endloop
endfacet
facet normal 0.0000000E+00 0.0000000E+00 1.0000000E+00
outer loop
vertex 1.3000000E-01 -3.1500000E-01 -2.9999999E-02
vertex 1.4954126E-01 -3.0723727E-01 -2.9999999E-02
vertex 1.4713794E-01 -3.0537710E-01 -2.9999999E-02
endloop
endfacet
facet normal 0.0000000E+00 0.0000000E+00 1.0000000E+00
outer loop
vertex 1.3000000E-01 -3.1500000E-01 -2.9999999E-02
vertex 1.4713794E-01 -3.0537710E-01 -2.9999999E-02
vertex 1.4455909E-01 -3.0376959E-01 -2.9999999E-02
endloop
endfacet
facet normal 0.0000000E+00 -0.0000000E+00 9.9999994E-01
outer loop
vertex 1.3000000E-01 -3.1500000E-01 -2.9999999E-02
vertex 1.4455909E-01 -3.0376959E-01 -2.9999999E-02
vertex 1.2786524E-01 -3.1515267E-01 -2.9999999E-02
endloop
endfacet
facet normal 0.0000000E+00 0.0000000E+00 1.0000000E+00
outer loop
vertex 1.2786524E-01 -3.1515267E-01 -2.9999999E-02
vertex 1.4455909E-01 -3.0376959E-01 -2.9999999E-02
vertex 1.4183056E-01 -3.0243126E-01 -2.9999999E-02
endloop
endfacet
facet normal 0.0000000E+00 0.0000000E+00 1.0000000E+00
outer loop
vertex 1.2786524E-01 -3.1515267E-01 -2.9999999E-02
vertex 1.4183056E-01 -3.0243126E-01 -2.9999999E-02
vertex 1.3000000E-01 -3.0000001E-01 -2.9999999E-02
endloop
endfacet
facet normal 0.0000000E+00 0.0000000E+00 1.0000000E+00
outer loop
vertex 1.3000000E-01 -3.0000001E-01 -2.9999999E-02
vertex 1.4183056E-01 -3.0243126E-01 -2.9999999E-02
vertex 1.3898095E-01 -3.0137584E-01 -2.9999999E-02
endloop
endfacet
facet normal 0.0000000E+00 0.0000000E+00 1.0000000E+00
outer loop
vertex 1.3000000E-01 -3.0000001E-01 -2.9999999E-02
vertex 1.3898095E-01 -3.0137584E-01 -2.9999999E-02
vertex 1.3603906E-01 -3.0061412E-01 -2.9999999E-02
endloop
endfacet
facet normal 0.0000000E+00 0.0000000E+00 1.0000000E+00
outer loop
vertex 1.3603906E-01 -3.0061412E-01 -2.9999999E-02
vertex 1.3303515E-01 -3.0015391E-01 -2.9999999E-02
vertex 1.3000000E-01 -3.0000001E-01 -2.9999999E-02
endloop
endfacet
facet normal -0.0000000E+00 0.0000000E+00 9.9999994E-01
outer loop
vertex -2.0000000E-02 -3.0000001E-01 -2.9999999E-02
vertex 1.2189038E-01 -3.1738120E-01 -2.9999999E-02
vertex 1.3000000E-01 -3.0000001E-01 -2.9999999E-02
endloop
endfacet
facet normal 0.0000000E+00 0.0000000E+00 9.9999994E-01
outer loop
vertex 1.3000000E-01 -3.0000001E-01 -2.9999999E-02
vertex 1.2189038E-01 -3.1738120E-01 -2.9999999E-02
vertex 1.2376880E-01 -3.1635553E-01 -2.9999999E-02
endloop
endfacet
facet normal 0.0000000E+00 0.0000000E+00 1.0000000E+00
outer loop
vertex 1.3000000E-01 -3.0000001E-01 -2.9999999E-02
vertex 1.2376880E-01 -3.1635553E-01 -2.9999999E-02
vertex 1.2577392E-01 -3.1560761E-01 -2.9999999E-02
endloop
endfacet
facet normal 0.0000000E+00 -0.0000000E+00 1.0000000E+00
outer loop
vertex 1.1560766E-01 -3.2577401E-01 -2.9999999E-02
vertex 1.1635547E-01 -3.2376876E-01 -2.9999999E-02
vertex -2.0000000E-02 -3.0000001E-01 -2.9999999E-02
endloop
endfacet
facet normal 0.0000000E+00 0.0000000E+00 1.0000000E+00
outer loop
vertex -2.0000000E-02 -3.0000001E-01 -2.9999999E-02
vertex 1.1635547E-01 -3.2376876E-01 -2.9999999E-02
vertex 1.1738110E-01 -3.2189038E-01 -2.9999999E-02
endloop
endfacet
facet normal 0.0000000E+00 0.0000000E+00 1.0000000E+00
outer loop
vertex -2.0000000E-02 -3.0000001E-01 -2.9999999E-02
vertex 1.1738110E-01 -3.2189038E-01 -2.9999999E-02
vertex 1.1866382E-01 -3.2017708E-01 -2.9999999E-02
endloop
endfacet
facet normal 0.0000000E+00 -0.0000000E+00 9.9999994E-01
outer loop
vertex 1.1866382E-01 -3.2017708E-01 -2.9999999E-02
vertex 1.2017700E-01 -3.1866375E-01 -2.9999999E-02
vertex -2.0000000E-02 -3.0000001E-01 -2.9999999E-02
endloop
endfacet
facet normal 0.0000000E+00 0.0000000E+00 1.0000000E+00
outer loop
vertex -2.0000000E-02 -3.0000001E-01 -2.9999999E-02
vertex 1.2017700E-01 -3.1866375E-01 -2.9999999E-02
vertex 1.2189038E-01 -3.1738120E-01 -2.9999999E-02
endloop
endfacet
facet normal 0.0000000E+00 0.0000000E+00 1.0000000E+00
outer loop
vertex 1.2577392E-01 -3.1560761E-01 -2.9999999E-02
vertex 1.2786524E-01 -3.1515267E-01 -2.9999999E-02
vertex 1.3000000E-01 -3.0000001E-01 -2.9999999E-02
endloop
endfacet
facet normal 0.0000000E+00 0.0000000E+00 1.0000000E+00
outer loop
vertex 1.2786524E-01 -3.4484732E-01 -2.9999999E-02
vertex 1.2577392E-01 -3.4439239E-01 -2.9999999E-02
vertex 1.3000000E-01 -3.6000001E-01 -2.9999999E-02
endloop
endfacet
facet normal 0.0000000E+00 0.0000000E+00 1.0000000E+00
outer loop
vertex 1.3000000E-01 -3.6000001E-01 -2.9999999E-02
vertex 1.2577392E-01 -3.4439239E-01 -2.9999999E-02
vertex 1.2376880E-01 -3.4364450E-01 -2.9999999E-02
endloop
endfacet
facet normal 0.0000000E+00 0.0000000E+00 1.0000000E+00
outer loop
vertex 1.3000000E-01 -3.6000001E-01 -2.9999999E-02
vertex 1.2376880E-01 -3.4364450E-01 -2.9999999E-02
vertex 1.2189038E-01 -3.4261879E-01 -2.9999999E-02
endloop
endfacet
facet normal 0.0000000E+00 0.0000000E+00 1.0000000E+00
outer loop
vertex 1.1866382E-01 -3.3982292E-01 -2.9999999E-02
vertex 1.1738110E-01 -3.3810961E-01 -2.9999999E-02
vertex -2.0000000E-02 -3.6000001E-01 -2.9999999E-02
endloop
endfacet
facet normal 0.0000000E+00 0.0000000E+00 1.0000000E+00
outer loop
vertex -2.0000000E-02 -3.6000001E-01 -2.9999999E-02
vertex 1.1738110E-01 -3.3810961E-01 -2.9999999E-02
vertex 1.1635547E-01 -3.3623123E-01 -2.9999999E-02
endloop
endfacet
facet normal 0.0000000E+00 0.0000000E+00 1.0000000E+00
outer loop
vertex -2.0000000E-02 -3.6000001E-01 -2.9999999E-02
vertex 1.1635547E-01 -3.3623123E-01 -2.9999999E-02
vertex 1.1560766E-01 -3.3422598E-01 -2.9999999E-02
endloop
endfacet
facet normal 0.0000000E+00 0.0000000E+00 1.0000000E+00
outer loop
vertex 1.1560766E-01 -3.3422598E-01 -2.9999999E-02
vertex 1.1515259E-01 -3.3213472E-01 -2.9999999E-02
vertex -2.0000000E-02 -3.6000001E-01 -2.9999999E-02
endloop
endfacet
facet normal 0.0000000E+00 0.0000000E+00 1.0000000E+00
outer loop
vertex -2.0000000E-02 -3.6000001E-01 -2.9999999E-02
vertex 1.1515259E-01 -3.3213472E-01 -2.9999999E-02
vertex 1.1500000E-01 -3.3000001E-01 -2.9999999E-02
endloop
endfacet
endsolid Created by stlwrite.m 09-Sep-2021 17:11:21
