solid Created by stlwrite.m 10-Sep-2021 22:33:54
facet normal 1.0000000E+00 0.0000000E+00 0.0000000E+00
outer loop
vertex 2.9999999E-02 0.0000000E+00 -2.9999999E-02
vertex 2.9999999E-02 3.5000000E-02 -2.9999999E-02
vertex 2.9999999E-02 0.0000000E+00 2.9999999E-02
endloop
endfacet
facet normal 1.0000000E+00 -0.0000000E+00 0.0000000E+00
outer loop
vertex 2.9999999E-02 0.0000000E+00 2.9999999E-02
vertex 2.9999999E-02 3.5000000E-02 -2.9999999E-02
vertex 2.9999999E-02 3.5000000E-02 2.9999999E-02
endloop
endfacet
facet normal 7.0710683E-01 7.0710677E-01 0.0000000E+00
outer loop
vertex 1.5000000E-02 5.0000001E-02 2.9999999E-02
vertex 2.9999999E-02 3.5000000E-02 2.9999999E-02
vertex 1.5000000E-02 5.0000001E-02 -2.9999999E-02
endloop
endfacet
facet normal 7.0710683E-01 7.0710677E-01 0.0000000E+00
outer loop
vertex 1.5000000E-02 5.0000001E-02 -2.9999999E-02
vertex 2.9999999E-02 3.5000000E-02 2.9999999E-02
vertex 2.9999999E-02 3.5000000E-02 -2.9999999E-02
endloop
endfacet
facet normal 0.0000000E+00 0.0000000E+00 1.0000000E+00
outer loop
vertex 2.9999999E-02 3.5000000E-02 2.9999999E-02
vertex 1.5000000E-02 5.0000001E-02 2.9999999E-02
vertex 2.9999999E-02 0.0000000E+00 2.9999999E-02
endloop
endfacet
facet normal 0.0000000E+00 0.0000000E+00 1.0000000E+00
outer loop
vertex 2.9999999E-02 0.0000000E+00 2.9999999E-02
vertex 1.5000000E-02 5.0000001E-02 2.9999999E-02
vertex -2.2204460E-16 5.0000001E-02 2.9999999E-02
endloop
endfacet
facet normal 0.0000000E+00 0.0000000E+00 1.0000000E+00
outer loop
vertex 2.9999999E-02 0.0000000E+00 2.9999999E-02
vertex -2.2204460E-16 5.0000001E-02 2.9999999E-02
vertex -2.9999999E-02 0.0000000E+00 2.9999999E-02
endloop
endfacet
facet normal 0.0000000E+00 0.0000000E+00 1.0000000E+00
outer loop
vertex -2.9999999E-02 0.0000000E+00 2.9999999E-02
vertex -2.2204460E-16 5.0000001E-02 2.9999999E-02
vertex -2.9999999E-02 2.0000000E-01 2.9999999E-02
endloop
endfacet
facet normal -0.0000000E+00 0.0000000E+00 1.0000000E+00
outer loop
vertex -2.9999999E-02 2.0000000E-01 2.9999999E-02
vertex -2.2204460E-16 5.0000001E-02 2.9999999E-02
vertex -2.2204460E-16 2.0000000E-01 2.9999999E-02
endloop
endfacet
facet normal 0.0000000E+00 9.9999994E-01 0.0000000E+00
outer loop
vertex 1.5000000E-02 5.0000001E-02 2.9999999E-02
vertex 1.5000000E-02 5.0000001E-02 -2.9999999E-02
vertex -2.2204460E-16 5.0000001E-02 2.9999999E-02
endloop
endfacet
facet normal 0.0000000E+00 9.9999994E-01 0.0000000E+00
outer loop
vertex -2.2204460E-16 5.0000001E-02 2.9999999E-02
vertex 1.5000000E-02 5.0000001E-02 -2.9999999E-02
vertex -2.2204460E-16 5.0000001E-02 -2.9999999E-02
endloop
endfacet
facet normal 0.0000000E+00 -9.9999994E-01 0.0000000E+00
outer loop
vertex 2.9999999E-02 0.0000000E+00 -2.9999999E-02
vertex 2.9999999E-02 0.0000000E+00 2.9999999E-02
vertex -2.9999999E-02 0.0000000E+00 -2.9999999E-02
endloop
endfacet
facet normal 0.0000000E+00 -9.9999994E-01 0.0000000E+00
outer loop
vertex -2.9999999E-02 0.0000000E+00 -2.9999999E-02
vertex 2.9999999E-02 0.0000000E+00 2.9999999E-02
vertex -2.9999999E-02 0.0000000E+00 2.9999999E-02
endloop
endfacet
facet normal -0.0000000E+00 -0.0000000E+00 -1.0000000E+00
outer loop
vertex 2.9999999E-02 3.5000000E-02 -2.9999999E-02
vertex 2.9999999E-02 0.0000000E+00 -2.9999999E-02
vertex 1.5000000E-02 5.0000001E-02 -2.9999999E-02
endloop
endfacet
facet normal -0.0000000E+00 -0.0000000E+00 -1.0000000E+00
outer loop
vertex 1.5000000E-02 5.0000001E-02 -2.9999999E-02
vertex 2.9999999E-02 0.0000000E+00 -2.9999999E-02
vertex -2.2204460E-16 5.0000001E-02 -2.9999999E-02
endloop
endfacet
facet normal 0.0000000E+00 -0.0000000E+00 -1.0000000E+00
outer loop
vertex -2.2204460E-16 5.0000001E-02 -2.9999999E-02
vertex 2.9999999E-02 0.0000000E+00 -2.9999999E-02
vertex -2.9999999E-02 0.0000000E+00 -2.9999999E-02
endloop
endfacet
facet normal -0.0000000E+00 0.0000000E+00 -1.0000000E+00
outer loop
vertex -2.2204460E-16 5.0000001E-02 -2.9999999E-02
vertex -2.9999999E-02 0.0000000E+00 -2.9999999E-02
vertex -2.9999999E-02 2.0000000E-01 -2.9999999E-02
endloop
endfacet
facet normal 0.0000000E+00 0.0000000E+00 -1.0000000E+00
outer loop
vertex -2.9999999E-02 2.0000000E-01 -2.9999999E-02
vertex -2.2204460E-16 2.0000000E-01 -2.9999999E-02
vertex -2.2204460E-16 5.0000001E-02 -2.9999999E-02
endloop
endfacet
facet normal -1.0000000E+00 0.0000000E+00 0.0000000E+00
outer loop
vertex -2.9999999E-02 0.0000000E+00 2.9999999E-02
vertex -2.9999999E-02 1.8500000E-01 5.9413942E-17
vertex -2.9999999E-02 0.0000000E+00 -2.9999999E-02
endloop
endfacet
facet normal -1.0000000E+00 0.0000000E+00 0.0000000E+00
outer loop
vertex -2.9999999E-02 0.0000000E+00 -2.9999999E-02
vertex -2.9999999E-02 1.8500000E-01 5.9413942E-17
vertex -2.9999999E-02 1.8515271E-01 -2.1347224E-03
endloop
endfacet
facet normal -1.0000000E+00 0.0000000E+00 0.0000000E+00
outer loop
vertex -2.9999999E-02 0.0000000E+00 -2.9999999E-02
vertex -2.9999999E-02 1.8515271E-01 -2.1347224E-03
vertex -2.9999999E-02 1.8560767E-01 -4.2259884E-03
endloop
endfacet
facet normal -1.0000000E+00 -0.0000000E+00 0.0000000E+00
outer loop
vertex -2.9999999E-02 2.0000000E-01 2.9999999E-02
vertex -2.9999999E-02 1.9189037E-01 1.2618803E-02
vertex -2.9999999E-02 0.0000000E+00 2.9999999E-02
endloop
endfacet
facet normal -9.9999994E-01 0.0000000E+00 0.0000000E+00
outer loop
vertex -2.9999999E-02 0.0000000E+00 2.9999999E-02
vertex -2.9999999E-02 1.9189037E-01 1.2618803E-02
vertex -2.9999999E-02 1.9017713E-01 1.1336244E-02
endloop
endfacet
facet normal -1.0000000E+00 0.0000000E+00 0.0000000E+00
outer loop
vertex -2.9999999E-02 0.0000000E+00 2.9999999E-02
vertex -2.9999999E-02 1.9017713E-01 1.1336244E-02
vertex -2.9999999E-02 1.8866369E-01 9.8229116E-03
endloop
endfacet
facet normal -1.0000000E+00 -0.0000000E+00 -0.0000000E+00
outer loop
vertex -2.9999999E-02 2.0303503E-01 2.9846078E-02
vertex -2.9999999E-02 2.0603894E-01 2.9385900E-02
vertex -2.9999999E-02 2.0000000E-01 2.9999999E-02
endloop
endfacet
facet normal -9.9999994E-01 0.0000000E+00 0.0000000E+00
outer loop
vertex -2.9999999E-02 2.0000000E-01 2.9999999E-02
vertex -2.9999999E-02 2.0603894E-01 2.9385900E-02
vertex -2.9999999E-02 2.0898083E-01 2.8624179E-02
endloop
endfacet
facet normal -9.9999994E-01 0.0000000E+00 0.0000000E+00
outer loop
vertex -2.9999999E-02 2.0000000E-01 2.9999999E-02
vertex -2.9999999E-02 2.0898083E-01 2.8624179E-02
vertex -2.9999999E-02 2.1183069E-01 2.7568735E-02
endloop
endfacet
facet normal -1.0000000E+00 -0.0000000E+00 -0.0000000E+00
outer loop
vertex -2.9999999E-02 2.1183069E-01 2.7568735E-02
vertex -2.9999999E-02 2.1455908E-01 2.6230399E-02
vertex -2.9999999E-02 2.0000000E-01 2.9999999E-02
endloop
endfacet
facet normal -9.9999994E-01 0.0000000E+00 -0.0000000E+00
outer loop
vertex -2.9999999E-02 2.0000000E-01 2.9999999E-02
vertex -2.9999999E-02 2.1455908E-01 2.6230399E-02
vertex -2.9999999E-02 1.9786523E-01 1.4847321E-02
endloop
endfacet
facet normal -1.0000000E+00 0.0000000E+00 0.0000000E+00
outer loop
vertex -2.9999999E-02 2.0000000E-01 2.9999999E-02
vertex -2.9999999E-02 1.9786523E-01 1.4847321E-02
vertex -2.9999999E-02 1.9577405E-01 1.4392394E-02
endloop
endfacet
facet normal -1.0000000E+00 0.0000000E+00 -0.0000000E+00
outer loop
vertex -2.9999999E-02 2.1455908E-01 2.6230399E-02
vertex -2.9999999E-02 2.1713807E-01 2.4622904E-02
vertex -2.9999999E-02 1.9786523E-01 1.4847321E-02
endloop
endfacet
facet normal -1.0000000E+00 0.0000000E+00 0.0000000E+00
outer loop
vertex -2.9999999E-02 1.9786523E-01 1.4847321E-02
vertex -2.9999999E-02 2.1713807E-01 2.4622904E-02
vertex -2.9999999E-02 2.0000000E-01 1.5000000E-02
endloop
endfacet
facet normal -1.0000000E+00 0.0000000E+00 0.0000000E+00
outer loop
vertex -2.9999999E-02 2.0000000E-01 1.5000000E-02
vertex -2.9999999E-02 2.1713807E-01 2.4622904E-02
vertex -2.9999999E-02 2.1954113E-01 2.2762744E-02
endloop
endfacet
facet normal -1.0000000E+00 0.0000000E+00 0.0000000E+00
outer loop
vertex -2.9999999E-02 2.0000000E-01 1.5000000E-02
vertex -2.9999999E-02 2.1954113E-01 2.2762744E-02
vertex -2.9999999E-02 2.2174378E-01 2.0669008E-02
endloop
endfacet
facet normal -1.0000000E+00 0.0000000E+00 0.0000000E+00
outer loop
vertex -2.9999999E-02 2.0000000E-01 1.5000000E-02
vertex -2.9999999E-02 2.2174378E-01 2.0669008E-02
vertex -2.9999999E-02 2.0213476E-01 1.4847321E-02
endloop
endfacet
facet normal -1.0000000E+00 0.0000000E+00 0.0000000E+00
outer loop
vertex -2.9999999E-02 2.0213476E-01 1.4847321E-02
vertex -2.9999999E-02 2.2174378E-01 2.0669008E-02
vertex -2.9999999E-02 2.2372326E-01 1.8363180E-02
endloop
endfacet
facet normal -1.0000000E+00 0.0000000E+00 0.0000000E+00
outer loop
vertex -2.9999999E-02 2.0213476E-01 1.4847321E-02
vertex -2.9999999E-02 2.2372326E-01 1.8363180E-02
vertex -2.9999999E-02 2.0422596E-01 1.4392394E-02
endloop
endfacet
facet normal -9.9999994E-01 0.0000000E+00 0.0000000E+00
outer loop
vertex -2.9999999E-02 2.0422596E-01 1.4392394E-02
vertex -2.9999999E-02 2.2372326E-01 1.8363180E-02
vertex -2.9999999E-02 2.2545935E-01 1.5868921E-02
endloop
endfacet
facet normal -1.0000000E+00 0.0000000E+00 0.0000000E+00
outer loop
vertex -2.9999999E-02 2.0422596E-01 1.4392394E-02
vertex -2.9999999E-02 2.2545935E-01 1.5868921E-02
vertex -2.9999999E-02 2.0623121E-01 1.3644480E-02
endloop
endfacet
facet normal -1.0000000E+00 0.0000000E+00 0.0000000E+00
outer loop
vertex -2.9999999E-02 2.0623121E-01 1.3644480E-02
vertex -2.9999999E-02 2.2545935E-01 1.5868921E-02
vertex -2.9999999E-02 2.0810962E-01 1.2618803E-02
endloop
endfacet
facet normal -1.0000000E+00 0.0000000E+00 0.0000000E+00
outer loop
vertex -2.9999999E-02 2.0810962E-01 1.2618803E-02
vertex -2.9999999E-02 2.2545935E-01 1.5868921E-02
vertex -2.9999999E-02 2.2693408E-01 1.3211824E-02
endloop
endfacet
facet normal -1.0000000E+00 0.0000000E+00 0.0000000E+00
outer loop
vertex -2.9999999E-02 2.0810962E-01 1.2618803E-02
vertex -2.9999999E-02 2.2693408E-01 1.3211824E-02
vertex -2.9999999E-02 2.0982288E-01 1.1336244E-02
endloop
endfacet
facet normal -1.0000000E+00 0.0000000E+00 0.0000000E+00
outer loop
vertex -2.9999999E-02 2.0982288E-01 1.1336244E-02
vertex -2.9999999E-02 2.2693408E-01 1.3211824E-02
vertex -2.9999999E-02 2.2813258E-01 1.0419158E-02
endloop
endfacet
facet normal -1.0000000E+00 0.0000000E+00 0.0000000E+00
outer loop
vertex -2.9999999E-02 2.0982288E-01 1.1336244E-02
vertex -2.9999999E-02 2.2813258E-01 1.0419158E-02
vertex -2.9999999E-02 2.1133630E-01 9.8229116E-03
endloop
endfacet
facet normal -1.0000000E+00 0.0000000E+00 0.0000000E+00
outer loop
vertex -2.9999999E-02 2.1133630E-01 9.8229116E-03
vertex -2.9999999E-02 2.2813258E-01 1.0419158E-02
vertex -2.9999999E-02 2.1261877E-01 8.1096124E-03
endloop
endfacet
facet normal -1.0000000E+00 0.0000000E+00 0.0000000E+00
outer loop
vertex -2.9999999E-02 2.1261877E-01 8.1096124E-03
vertex -2.9999999E-02 2.2813258E-01 1.0419158E-02
vertex -2.9999999E-02 2.2904235E-01 7.5195762E-03
endloop
endfacet
facet normal -1.0000000E+00 0.0000000E+00 0.0000000E+00
outer loop
vertex -2.9999999E-02 2.1261877E-01 8.1096124E-03
vertex -2.9999999E-02 2.2904235E-01 7.5195762E-03
vertex -2.9999999E-02 2.1364453E-01 6.2312251E-03
endloop
endfacet
facet normal -1.0000000E+00 0.0000000E+00 0.0000000E+00
outer loop
vertex -2.9999999E-02 2.1364453E-01 6.2312251E-03
vertex -2.9999999E-02 2.2904235E-01 7.5195762E-03
vertex -2.9999999E-02 2.2965406E-01 4.5428332E-03
endloop
endfacet
facet normal -1.0000000E+00 0.0000000E+00 0.0000000E+00
outer loop
vertex -2.9999999E-02 2.1364453E-01 6.2312251E-03
vertex -2.9999999E-02 2.2965406E-01 4.5428332E-03
vertex -2.9999999E-02 2.1439233E-01 4.2259884E-03
endloop
endfacet
facet normal -1.0000000E+00 0.0000000E+00 0.0000000E+00
outer loop
vertex -2.9999999E-02 2.1439233E-01 4.2259884E-03
vertex -2.9999999E-02 2.2965406E-01 4.5428332E-03
vertex -2.9999999E-02 2.1484730E-01 2.1347224E-03
endloop
endfacet
facet normal -1.0000000E+00 0.0000000E+00 0.0000000E+00
outer loop
vertex -2.9999999E-02 2.1484730E-01 2.1347224E-03
vertex -2.9999999E-02 2.2965406E-01 4.5428332E-03
vertex -2.9999999E-02 2.2996154E-01 1.5194751E-03
endloop
endfacet
facet normal -1.0000000E+00 0.0000000E+00 0.0000000E+00
outer loop
vertex -2.9999999E-02 2.1484730E-01 2.1347224E-03
vertex -2.9999999E-02 2.2996154E-01 1.5194751E-03
vertex -2.9999999E-02 2.1500000E-01 5.9413942E-17
endloop
endfacet
facet normal -1.0000000E+00 0.0000000E+00 0.0000000E+00
outer loop
vertex -2.9999999E-02 2.1500000E-01 5.9413942E-17
vertex -2.9999999E-02 2.2996154E-01 1.5194751E-03
vertex -2.9999999E-02 2.2996154E-01 -1.5194751E-03
endloop
endfacet
facet normal -1.0000000E+00 0.0000000E+00 -0.0000000E+00
outer loop
vertex -2.9999999E-02 2.1500000E-01 5.9413942E-17
vertex -2.9999999E-02 2.2996154E-01 -1.5194751E-03
vertex -2.9999999E-02 2.1484730E-01 -2.1347224E-03
endloop
endfacet
facet normal -1.0000000E+00 0.0000000E+00 0.0000000E+00
outer loop
vertex -2.9999999E-02 2.1484730E-01 -2.1347224E-03
vertex -2.9999999E-02 2.2996154E-01 -1.5194751E-03
vertex -2.9999999E-02 2.2965406E-01 -4.5428332E-03
endloop
endfacet
facet normal -1.0000000E+00 0.0000000E+00 -0.0000000E+00
outer loop
vertex -2.9999999E-02 2.1484730E-01 -2.1347224E-03
vertex -2.9999999E-02 2.2965406E-01 -4.5428332E-03
vertex -2.9999999E-02 2.1439233E-01 -4.2259884E-03
endloop
endfacet
facet normal -1.0000000E+00 0.0000000E+00 -0.0000000E+00
outer loop
vertex -2.9999999E-02 2.1439233E-01 -4.2259884E-03
vertex -2.9999999E-02 2.2965406E-01 -4.5428332E-03
vertex -2.9999999E-02 2.1364453E-01 -6.2312251E-03
endloop
endfacet
facet normal -1.0000000E+00 0.0000000E+00 0.0000000E+00
outer loop
vertex -2.9999999E-02 2.1364453E-01 -6.2312251E-03
vertex -2.9999999E-02 2.2965406E-01 -4.5428332E-03
vertex -2.9999999E-02 2.2904235E-01 -7.5195762E-03
endloop
endfacet
facet normal -1.0000000E+00 0.0000000E+00 -0.0000000E+00
outer loop
vertex -2.9999999E-02 2.1364453E-01 -6.2312251E-03
vertex -2.9999999E-02 2.2904235E-01 -7.5195762E-03
vertex -2.9999999E-02 2.1261877E-01 -8.1096124E-03
endloop
endfacet
facet normal -1.0000000E+00 0.0000000E+00 0.0000000E+00
outer loop
vertex -2.9999999E-02 2.1261877E-01 -8.1096124E-03
vertex -2.9999999E-02 2.2904235E-01 -7.5195762E-03
vertex -2.9999999E-02 2.2813258E-01 -1.0419158E-02
endloop
endfacet
facet normal -1.0000000E+00 0.0000000E+00 -0.0000000E+00
outer loop
vertex -2.9999999E-02 2.1261877E-01 -8.1096124E-03
vertex -2.9999999E-02 2.2813258E-01 -1.0419158E-02
vertex -2.9999999E-02 2.1133630E-01 -9.8229116E-03
endloop
endfacet
facet normal -1.0000000E+00 0.0000000E+00 -0.0000000E+00
outer loop
vertex -2.9999999E-02 2.1133630E-01 -9.8229116E-03
vertex -2.9999999E-02 2.2813258E-01 -1.0419158E-02
vertex -2.9999999E-02 2.0982288E-01 -1.1336244E-02
endloop
endfacet
facet normal -1.0000000E+00 0.0000000E+00 0.0000000E+00
outer loop
vertex -2.9999999E-02 2.0982288E-01 -1.1336244E-02
vertex -2.9999999E-02 2.2813258E-01 -1.0419158E-02
vertex -2.9999999E-02 2.2693408E-01 -1.3211824E-02
endloop
endfacet
facet normal -1.0000000E+00 0.0000000E+00 -0.0000000E+00
outer loop
vertex -2.9999999E-02 2.0982288E-01 -1.1336244E-02
vertex -2.9999999E-02 2.2693408E-01 -1.3211824E-02
vertex -2.9999999E-02 2.0810962E-01 -1.2618803E-02
endloop
endfacet
facet normal -1.0000000E+00 0.0000000E+00 0.0000000E+00
outer loop
vertex -2.9999999E-02 2.0810962E-01 -1.2618803E-02
vertex -2.9999999E-02 2.2693408E-01 -1.3211824E-02
vertex -2.9999999E-02 2.2545935E-01 -1.5868921E-02
endloop
endfacet
facet normal -1.0000000E+00 0.0000000E+00 -0.0000000E+00
outer loop
vertex -2.9999999E-02 2.0810962E-01 -1.2618803E-02
vertex -2.9999999E-02 2.2545935E-01 -1.5868921E-02
vertex -2.9999999E-02 2.0623121E-01 -1.3644480E-02
endloop
endfacet
facet normal -1.0000000E+00 0.0000000E+00 -0.0000000E+00
outer loop
vertex -2.9999999E-02 2.0623121E-01 -1.3644480E-02
vertex -2.9999999E-02 2.2545935E-01 -1.5868921E-02
vertex -2.9999999E-02 2.0422596E-01 -1.4392394E-02
endloop
endfacet
facet normal -9.9999994E-01 0.0000000E+00 0.0000000E+00
outer loop
vertex -2.9999999E-02 2.0422596E-01 -1.4392394E-02
vertex -2.9999999E-02 2.2545935E-01 -1.5868921E-02
vertex -2.9999999E-02 2.2372326E-01 -1.8363180E-02
endloop
endfacet
facet normal -1.0000000E+00 0.0000000E+00 -0.0000000E+00
outer loop
vertex -2.9999999E-02 2.0422596E-01 -1.4392394E-02
vertex -2.9999999E-02 2.2372326E-01 -1.8363180E-02
vertex -2.9999999E-02 2.0213476E-01 -1.4847321E-02
endloop
endfacet
facet normal -1.0000000E+00 0.0000000E+00 0.0000000E+00
outer loop
vertex -2.9999999E-02 2.0213476E-01 -1.4847321E-02
vertex -2.9999999E-02 2.2372326E-01 -1.8363180E-02
vertex -2.9999999E-02 2.2174378E-01 -2.0669008E-02
endloop
endfacet
facet normal -1.0000000E+00 0.0000000E+00 -0.0000000E+00
outer loop
vertex -2.9999999E-02 2.0213476E-01 -1.4847321E-02
vertex -2.9999999E-02 2.2174378E-01 -2.0669008E-02
vertex -2.9999999E-02 2.0000000E-01 -1.5000000E-02
endloop
endfacet
facet normal -1.0000000E+00 0.0000000E+00 0.0000000E+00
outer loop
vertex -2.9999999E-02 2.0000000E-01 -1.5000000E-02
vertex -2.9999999E-02 2.2174378E-01 -2.0669008E-02
vertex -2.9999999E-02 2.1954113E-01 -2.2762744E-02
endloop
endfacet
facet normal -1.0000000E+00 0.0000000E+00 0.0000000E+00
outer loop
vertex -2.9999999E-02 2.0000000E-01 -1.5000000E-02
vertex -2.9999999E-02 2.1954113E-01 -2.2762744E-02
vertex -2.9999999E-02 2.1713807E-01 -2.4622904E-02
endloop
endfacet
facet normal -1.0000000E+00 -0.0000000E+00 -0.0000000E+00
outer loop
vertex -2.9999999E-02 2.0000000E-01 -1.5000000E-02
vertex -2.9999999E-02 2.1713807E-01 -2.4622904E-02
vertex -2.9999999E-02 1.9786523E-01 -1.4847321E-02
endloop
endfacet
facet normal -9.9999994E-01 0.0000000E+00 0.0000000E+00
outer loop
vertex -2.9999999E-02 1.9786523E-01 -1.4847321E-02
vertex -2.9999999E-02 2.1713807E-01 -2.4622904E-02
vertex -2.9999999E-02 2.1455908E-01 -2.6230399E-02
endloop
endfacet
facet normal -1.0000000E+00 0.0000000E+00 0.0000000E+00
outer loop
vertex -2.9999999E-02 1.9786523E-01 -1.4847321E-02
vertex -2.9999999E-02 2.1455908E-01 -2.6230399E-02
vertex -2.9999999E-02 2.0000000E-01 -2.9999999E-02
endloop
endfacet
facet normal -1.0000000E+00 0.0000000E+00 0.0000000E+00
outer loop
vertex -2.9999999E-02 2.0000000E-01 -2.9999999E-02
vertex -2.9999999E-02 2.1455908E-01 -2.6230399E-02
vertex -2.9999999E-02 2.1183069E-01 -2.7568735E-02
endloop
endfacet
facet normal -9.9999994E-01 0.0000000E+00 0.0000000E+00
outer loop
vertex -2.9999999E-02 2.0000000E-01 -2.9999999E-02
vertex -2.9999999E-02 2.1183069E-01 -2.7568735E-02
vertex -2.9999999E-02 2.0898083E-01 -2.8624179E-02
endloop
endfacet
facet normal -9.9999994E-01 0.0000000E+00 0.0000000E+00
outer loop
vertex -2.9999999E-02 2.0898083E-01 -2.8624179E-02
vertex -2.9999999E-02 2.0603894E-01 -2.9385900E-02
vertex -2.9999999E-02 2.0000000E-01 -2.9999999E-02
endloop
endfacet
facet normal -9.9999994E-01 0.0000000E+00 0.0000000E+00
outer loop
vertex -2.9999999E-02 2.0000000E-01 -2.9999999E-02
vertex -2.9999999E-02 2.0603894E-01 -2.9385900E-02
vertex -2.9999999E-02 2.0303503E-01 -2.9846078E-02
endloop
endfacet
facet normal -1.0000000E+00 0.0000000E+00 0.0000000E+00
outer loop
vertex -2.9999999E-02 0.0000000E+00 -2.9999999E-02
vertex -2.9999999E-02 1.9189037E-01 -1.2618803E-02
vertex -2.9999999E-02 2.0000000E-01 -2.9999999E-02
endloop
endfacet
facet normal -1.0000000E+00 0.0000000E+00 0.0000000E+00
outer loop
vertex -2.9999999E-02 2.0000000E-01 -2.9999999E-02
vertex -2.9999999E-02 1.9189037E-01 -1.2618803E-02
vertex -2.9999999E-02 1.9376880E-01 -1.3644480E-02
endloop
endfacet
facet normal -1.0000000E+00 0.0000000E+00 0.0000000E+00
outer loop
vertex -2.9999999E-02 2.0000000E-01 -2.9999999E-02
vertex -2.9999999E-02 1.9376880E-01 -1.3644480E-02
vertex -2.9999999E-02 1.9577405E-01 -1.4392394E-02
endloop
endfacet
facet normal -1.0000000E+00 -0.0000000E+00 0.0000000E+00
outer loop
vertex -2.9999999E-02 1.9577405E-01 1.4392394E-02
vertex -2.9999999E-02 1.9376880E-01 1.3644480E-02
vertex -2.9999999E-02 2.0000000E-01 2.9999999E-02
endloop
endfacet
facet normal -1.0000000E+00 0.0000000E+00 0.0000000E+00
outer loop
vertex -2.9999999E-02 2.0000000E-01 2.9999999E-02
vertex -2.9999999E-02 1.9376880E-01 1.3644480E-02
vertex -2.9999999E-02 1.9189037E-01 1.2618803E-02
endloop
endfacet
facet normal -1.0000000E+00 -0.0000000E+00 0.0000000E+00
outer loop
vertex -2.9999999E-02 1.8866369E-01 9.8229116E-03
vertex -2.9999999E-02 1.8738122E-01 8.1096124E-03
vertex -2.9999999E-02 0.0000000E+00 2.9999999E-02
endloop
endfacet
facet normal -1.0000000E+00 0.0000000E+00 0.0000000E+00
outer loop
vertex -2.9999999E-02 0.0000000E+00 2.9999999E-02
vertex -2.9999999E-02 1.8738122E-01 8.1096124E-03
vertex -2.9999999E-02 1.8635547E-01 6.2312251E-03
endloop
endfacet
facet normal -1.0000000E+00 0.0000000E+00 0.0000000E+00
outer loop
vertex -2.9999999E-02 0.0000000E+00 2.9999999E-02
vertex -2.9999999E-02 1.8635547E-01 6.2312251E-03
vertex -2.9999999E-02 1.8560767E-01 4.2259884E-03
endloop
endfacet
facet normal -1.0000000E+00 -0.0000000E+00 0.0000000E+00
outer loop
vertex -2.9999999E-02 1.8560767E-01 4.2259884E-03
vertex -2.9999999E-02 1.8515271E-01 2.1347224E-03
vertex -2.9999999E-02 0.0000000E+00 2.9999999E-02
endloop
endfacet
facet normal -1.0000000E+00 0.0000000E+00 0.0000000E+00
outer loop
vertex -2.9999999E-02 0.0000000E+00 2.9999999E-02
vertex -2.9999999E-02 1.8515271E-01 2.1347224E-03
vertex -2.9999999E-02 1.8500000E-01 5.9413942E-17
endloop
endfacet
facet normal -1.0000000E+00 0.0000000E+00 -0.0000000E+00
outer loop
vertex -2.9999999E-02 1.8560767E-01 -4.2259884E-03
vertex -2.9999999E-02 1.8635547E-01 -6.2312251E-03
vertex -2.9999999E-02 0.0000000E+00 -2.9999999E-02
endloop
endfacet
facet normal -1.0000000E+00 0.0000000E+00 0.0000000E+00
outer loop
vertex -2.9999999E-02 0.0000000E+00 -2.9999999E-02
vertex -2.9999999E-02 1.8635547E-01 -6.2312251E-03
vertex -2.9999999E-02 1.8738122E-01 -8.1096124E-03
endloop
endfacet
facet normal -1.0000000E+00 0.0000000E+00 0.0000000E+00
outer loop
vertex -2.9999999E-02 0.0000000E+00 -2.9999999E-02
vertex -2.9999999E-02 1.8738122E-01 -8.1096124E-03
vertex -2.9999999E-02 1.8866369E-01 -9.8229116E-03
endloop
endfacet
facet normal -1.0000000E+00 0.0000000E+00 -0.0000000E+00
outer loop
vertex -2.9999999E-02 1.8866369E-01 -9.8229116E-03
vertex -2.9999999E-02 1.9017713E-01 -1.1336244E-02
vertex -2.9999999E-02 0.0000000E+00 -2.9999999E-02
endloop
endfacet
facet normal -9.9999994E-01 0.0000000E+00 0.0000000E+00
outer loop
vertex -2.9999999E-02 0.0000000E+00 -2.9999999E-02
vertex -2.9999999E-02 1.9017713E-01 -1.1336244E-02
vertex -2.9999999E-02 1.9189037E-01 -1.2618803E-02
endloop
endfacet
facet normal -1.0000000E+00 0.0000000E+00 0.0000000E+00
outer loop
vertex -2.9999999E-02 1.9577405E-01 -1.4392394E-02
vertex -2.9999999E-02 1.9786523E-01 -1.4847321E-02
vertex -2.9999999E-02 2.0000000E-01 -2.9999999E-02
endloop
endfacet
facet normal -0.0000000E+00 5.0650008E-02 9.9871653E-01
outer loop
vertex -2.9999999E-02 2.0000000E-01 2.9999999E-02
vertex -2.2204460E-16 2.0000000E-01 2.9999999E-02
vertex -2.9999999E-02 2.0303503E-01 2.9846078E-02
endloop
endfacet
facet normal -0.0000000E+00 5.0650008E-02 9.9871653E-01
outer loop
vertex -2.9999999E-02 2.0303503E-01 2.9846078E-02
vertex -2.2204460E-16 2.0000000E-01 2.9999999E-02
vertex -2.2204460E-16 2.0303503E-01 2.9846078E-02
endloop
endfacet
facet normal -0.0000000E+00 1.5142633E-01 9.8846847E-01
outer loop
vertex -2.9999999E-02 2.0303503E-01 2.9846078E-02
vertex -2.2204460E-16 2.0303503E-01 2.9846078E-02
vertex -2.9999999E-02 2.0603894E-01 2.9385900E-02
endloop
endfacet
facet normal -0.0000000E+00 1.5142633E-01 9.8846847E-01
outer loop
vertex -2.9999999E-02 2.0603894E-01 2.9385900E-02
vertex -2.2204460E-16 2.0303503E-01 2.9846078E-02
vertex -2.2204460E-16 2.0603894E-01 2.9385900E-02
endloop
endfacet
facet normal -0.0000000E+00 2.5065649E-01 9.6807611E-01
outer loop
vertex -2.9999999E-02 2.0603894E-01 2.9385900E-02
vertex -2.2204460E-16 2.0603894E-01 2.9385900E-02
vertex -2.9999999E-02 2.0898083E-01 2.8624179E-02
endloop
endfacet
facet normal -0.0000000E+00 2.5065649E-01 9.6807611E-01
outer loop
vertex -2.9999999E-02 2.0898083E-01 2.8624179E-02
vertex -2.2204460E-16 2.0603894E-01 2.9385900E-02
vertex -2.2204460E-16 2.0898083E-01 2.8624179E-02
endloop
endfacet
facet normal -0.0000000E+00 3.4729677E-01 9.3775529E-01
outer loop
vertex -2.9999999E-02 2.0898083E-01 2.8624179E-02
vertex -2.2204460E-16 2.0898083E-01 2.8624179E-02
vertex -2.9999999E-02 2.1183069E-01 2.7568735E-02
endloop
endfacet
facet normal -0.0000000E+00 3.4729677E-01 9.3775529E-01
outer loop
vertex -2.9999999E-02 2.1183069E-01 2.7568735E-02
vertex -2.2204460E-16 2.0898083E-01 2.8624179E-02
vertex -2.2204460E-16 2.1183069E-01 2.7568735E-02
endloop
endfacet
facet normal -0.0000000E+00 4.4039381E-01 8.9780474E-01
outer loop
vertex -2.9999999E-02 2.1183069E-01 2.7568735E-02
vertex -2.2204460E-16 2.1183069E-01 2.7568735E-02
vertex -2.9999999E-02 2.1455908E-01 2.6230399E-02
endloop
endfacet
facet normal -0.0000000E+00 4.4039381E-01 8.9780474E-01
outer loop
vertex -2.9999999E-02 2.1455908E-01 2.6230399E-02
vertex -2.2204460E-16 2.1183069E-01 2.7568735E-02
vertex -2.2204460E-16 2.1455908E-01 2.6230399E-02
endloop
endfacet
facet normal -0.0000000E+00 5.2896369E-01 8.4864450E-01
outer loop
vertex -2.9999999E-02 2.1455908E-01 2.6230399E-02
vertex -2.2204460E-16 2.1455908E-01 2.6230399E-02
vertex -2.9999999E-02 2.1713807E-01 2.4622904E-02
endloop
endfacet
facet normal -0.0000000E+00 5.2896369E-01 8.4864450E-01
outer loop
vertex -2.9999999E-02 2.1713807E-01 2.4622904E-02
vertex -2.2204460E-16 2.1455908E-01 2.6230399E-02
vertex -2.2204460E-16 2.1713807E-01 2.4622904E-02
endloop
endfacet
facet normal -0.0000000E+00 6.1211610E-01 7.9076785E-01
outer loop
vertex -2.9999999E-02 2.1713807E-01 2.4622904E-02
vertex -2.2204460E-16 2.1713807E-01 2.4622904E-02
vertex -2.9999999E-02 2.1954113E-01 2.2762744E-02
endloop
endfacet
facet normal -0.0000000E+00 6.1211610E-01 7.9076785E-01
outer loop
vertex -2.9999999E-02 2.1954113E-01 2.2762744E-02
vertex -2.2204460E-16 2.1713807E-01 2.4622904E-02
vertex -2.2204460E-16 2.1954113E-01 2.2762744E-02
endloop
endfacet
facet normal -0.0000000E+00 6.8896109E-01 7.2479838E-01
outer loop
vertex -2.9999999E-02 2.1954113E-01 2.2762744E-02
vertex -2.2204460E-16 2.1954113E-01 2.2762744E-02
vertex -2.9999999E-02 2.2174378E-01 2.0669008E-02
endloop
endfacet
facet normal -0.0000000E+00 6.8896109E-01 7.2479838E-01
outer loop
vertex -2.9999999E-02 2.2174378E-01 2.0669008E-02
vertex -2.2204460E-16 2.1954113E-01 2.2762744E-02
vertex -2.2204460E-16 2.2174378E-01 2.0669008E-02
endloop
endfacet
facet normal -0.0000000E+00 7.5875872E-01 6.5137190E-01
outer loop
vertex -2.9999999E-02 2.2174378E-01 2.0669008E-02
vertex -2.2204460E-16 2.2174378E-01 2.0669008E-02
vertex -2.9999999E-02 2.2372326E-01 1.8363180E-02
endloop
endfacet
facet normal -0.0000000E+00 7.5875872E-01 6.5137190E-01
outer loop
vertex -2.9999999E-02 2.2372326E-01 1.8363180E-02
vertex -2.2204460E-16 2.2174378E-01 2.0669008E-02
vertex -2.2204460E-16 2.2372326E-01 1.8363180E-02
endloop
endfacet
facet normal -0.0000000E+00 8.2075816E-01 5.7127583E-01
outer loop
vertex -2.9999999E-02 2.2372326E-01 1.8363180E-02
vertex -2.2204460E-16 2.2372326E-01 1.8363180E-02
vertex -2.9999999E-02 2.2545935E-01 1.5868921E-02
endloop
endfacet
facet normal -0.0000000E+00 8.2075816E-01 5.7127583E-01
outer loop
vertex -2.9999999E-02 2.2545935E-01 1.5868921E-02
vertex -2.2204460E-16 2.2372326E-01 1.8363180E-02
vertex -2.2204460E-16 2.2545935E-01 1.5868921E-02
endloop
endfacet
facet normal -0.0000000E+00 8.7435871E-01 4.8528042E-01
outer loop
vertex -2.9999999E-02 2.2545935E-01 1.5868921E-02
vertex -2.2204460E-16 2.2545935E-01 1.5868921E-02
vertex -2.9999999E-02 2.2693408E-01 1.3211824E-02
endloop
endfacet
facet normal -0.0000000E+00 8.7435871E-01 4.8528042E-01
outer loop
vertex -2.9999999E-02 2.2693408E-01 1.3211824E-02
vertex -2.2204460E-16 2.2545935E-01 1.5868921E-02
vertex -2.2204460E-16 2.2693408E-01 1.3211824E-02
endloop
endfacet
facet normal -0.0000000E+00 9.1894919E-01 3.9437622E-01
outer loop
vertex -2.9999999E-02 2.2693408E-01 1.3211824E-02
vertex -2.2204460E-16 2.2693408E-01 1.3211824E-02
vertex -2.9999999E-02 2.2813258E-01 1.0419158E-02
endloop
endfacet
facet normal -0.0000000E+00 9.1894919E-01 3.9437622E-01
outer loop
vertex -2.9999999E-02 2.2813258E-01 1.0419158E-02
vertex -2.2204460E-16 2.2693408E-01 1.3211824E-02
vertex -2.2204460E-16 2.2813258E-01 1.0419158E-02
endloop
endfacet
facet normal -0.0000000E+00 9.5413679E-01 2.9937083E-01
outer loop
vertex -2.9999999E-02 2.2813258E-01 1.0419158E-02
vertex -2.2204460E-16 2.2813258E-01 1.0419158E-02
vertex -2.9999999E-02 2.2904235E-01 7.5195762E-03
endloop
endfacet
facet normal -0.0000000E+00 9.5413679E-01 2.9937083E-01
outer loop
vertex -2.9999999E-02 2.2904235E-01 7.5195762E-03
vertex -2.2204460E-16 2.2813258E-01 1.0419158E-02
vertex -2.2204460E-16 2.2904235E-01 7.5195762E-03
endloop
endfacet
facet normal -0.0000000E+00 9.7953176E-01 2.0128947E-01
outer loop
vertex -2.9999999E-02 2.2904235E-01 7.5195762E-03
vertex -2.2204460E-16 2.2904235E-01 7.5195762E-03
vertex -2.9999999E-02 2.2965406E-01 4.5428332E-03
endloop
endfacet
facet normal -0.0000000E+00 9.7953176E-01 2.0128947E-01
outer loop
vertex -2.9999999E-02 2.2965406E-01 4.5428332E-03
vertex -2.2204460E-16 2.2904235E-01 7.5195762E-03
vertex -2.2204460E-16 2.2965406E-01 4.5428332E-03
endloop
endfacet
facet normal -0.0000000E+00 9.9486798E-01 1.0118135E-01
outer loop
vertex -2.9999999E-02 2.2965406E-01 4.5428332E-03
vertex -2.2204460E-16 2.2965406E-01 4.5428332E-03
vertex -2.9999999E-02 2.2996154E-01 1.5194751E-03
endloop
endfacet
facet normal -0.0000000E+00 9.9486798E-01 1.0118135E-01
outer loop
vertex -2.9999999E-02 2.2996154E-01 1.5194751E-03
vertex -2.2204460E-16 2.2965406E-01 4.5428332E-03
vertex -2.2204460E-16 2.2996154E-01 1.5194751E-03
endloop
endfacet
facet normal -0.0000000E+00 1.0000000E+00 0.0000000E+00
outer loop
vertex -2.9999999E-02 2.2996154E-01 1.5194751E-03
vertex -2.2204460E-16 2.2996154E-01 1.5194751E-03
vertex -2.9999999E-02 2.2996154E-01 -1.5194751E-03
endloop
endfacet
facet normal 0.0000000E+00 1.0000000E+00 0.0000000E+00
outer loop
vertex -2.9999999E-02 2.2996154E-01 -1.5194751E-03
vertex -2.2204460E-16 2.2996154E-01 1.5194751E-03
vertex -2.2204460E-16 2.2996154E-01 -1.5194751E-03
endloop
endfacet
facet normal 0.0000000E+00 9.9486798E-01 -1.0118135E-01
outer loop
vertex -2.9999999E-02 2.2996154E-01 -1.5194751E-03
vertex -2.2204460E-16 2.2996154E-01 -1.5194751E-03
vertex -2.9999999E-02 2.2965406E-01 -4.5428332E-03
endloop
endfacet
facet normal 0.0000000E+00 9.9486798E-01 -1.0118135E-01
outer loop
vertex -2.9999999E-02 2.2965406E-01 -4.5428332E-03
vertex -2.2204460E-16 2.2996154E-01 -1.5194751E-03
vertex -2.2204460E-16 2.2965406E-01 -4.5428332E-03
endloop
endfacet
facet normal 0.0000000E+00 9.7953176E-01 -2.0128947E-01
outer loop
vertex -2.9999999E-02 2.2965406E-01 -4.5428332E-03
vertex -2.2204460E-16 2.2965406E-01 -4.5428332E-03
vertex -2.9999999E-02 2.2904235E-01 -7.5195762E-03
endloop
endfacet
facet normal 0.0000000E+00 9.7953176E-01 -2.0128947E-01
outer loop
vertex -2.9999999E-02 2.2904235E-01 -7.5195762E-03
vertex -2.2204460E-16 2.2965406E-01 -4.5428332E-03
vertex -2.2204460E-16 2.2904235E-01 -7.5195762E-03
endloop
endfacet
facet normal 0.0000000E+00 9.5413679E-01 -2.9937083E-01
outer loop
vertex -2.9999999E-02 2.2904235E-01 -7.5195762E-03
vertex -2.2204460E-16 2.2904235E-01 -7.5195762E-03
vertex -2.9999999E-02 2.2813258E-01 -1.0419158E-02
endloop
endfacet
facet normal 0.0000000E+00 9.5413679E-01 -2.9937083E-01
outer loop
vertex -2.9999999E-02 2.2813258E-01 -1.0419158E-02
vertex -2.2204460E-16 2.2904235E-01 -7.5195762E-03
vertex -2.2204460E-16 2.2813258E-01 -1.0419158E-02
endloop
endfacet
facet normal 0.0000000E+00 9.1894919E-01 -3.9437622E-01
outer loop
vertex -2.9999999E-02 2.2813258E-01 -1.0419158E-02
vertex -2.2204460E-16 2.2813258E-01 -1.0419158E-02
vertex -2.9999999E-02 2.2693408E-01 -1.3211824E-02
endloop
endfacet
facet normal 0.0000000E+00 9.1894919E-01 -3.9437622E-01
outer loop
vertex -2.9999999E-02 2.2693408E-01 -1.3211824E-02
vertex -2.2204460E-16 2.2813258E-01 -1.0419158E-02
vertex -2.2204460E-16 2.2693408E-01 -1.3211824E-02
endloop
endfacet
facet normal 0.0000000E+00 8.7435871E-01 -4.8528042E-01
outer loop
vertex -2.9999999E-02 2.2693408E-01 -1.3211824E-02
vertex -2.2204460E-16 2.2693408E-01 -1.3211824E-02
vertex -2.9999999E-02 2.2545935E-01 -1.5868921E-02
endloop
endfacet
facet normal 0.0000000E+00 8.7435871E-01 -4.8528042E-01
outer loop
vertex -2.9999999E-02 2.2545935E-01 -1.5868921E-02
vertex -2.2204460E-16 2.2693408E-01 -1.3211824E-02
vertex -2.2204460E-16 2.2545935E-01 -1.5868921E-02
endloop
endfacet
facet normal 0.0000000E+00 8.2075816E-01 -5.7127583E-01
outer loop
vertex -2.9999999E-02 2.2545935E-01 -1.5868921E-02
vertex -2.2204460E-16 2.2545935E-01 -1.5868921E-02
vertex -2.9999999E-02 2.2372326E-01 -1.8363180E-02
endloop
endfacet
facet normal 0.0000000E+00 8.2075816E-01 -5.7127583E-01
outer loop
vertex -2.9999999E-02 2.2372326E-01 -1.8363180E-02
vertex -2.2204460E-16 2.2545935E-01 -1.5868921E-02
vertex -2.2204460E-16 2.2372326E-01 -1.8363180E-02
endloop
endfacet
facet normal 0.0000000E+00 7.5875872E-01 -6.5137190E-01
outer loop
vertex -2.9999999E-02 2.2372326E-01 -1.8363180E-02
vertex -2.2204460E-16 2.2372326E-01 -1.8363180E-02
vertex -2.9999999E-02 2.2174378E-01 -2.0669008E-02
endloop
endfacet
facet normal 0.0000000E+00 7.5875872E-01 -6.5137190E-01
outer loop
vertex -2.9999999E-02 2.2174378E-01 -2.0669008E-02
vertex -2.2204460E-16 2.2372326E-01 -1.8363180E-02
vertex -2.2204460E-16 2.2174378E-01 -2.0669008E-02
endloop
endfacet
facet normal 0.0000000E+00 6.8896109E-01 -7.2479838E-01
outer loop
vertex -2.9999999E-02 2.2174378E-01 -2.0669008E-02
vertex -2.2204460E-16 2.2174378E-01 -2.0669008E-02
vertex -2.9999999E-02 2.1954113E-01 -2.2762744E-02
endloop
endfacet
facet normal 0.0000000E+00 6.8896109E-01 -7.2479838E-01
outer loop
vertex -2.9999999E-02 2.1954113E-01 -2.2762744E-02
vertex -2.2204460E-16 2.2174378E-01 -2.0669008E-02
vertex -2.2204460E-16 2.1954113E-01 -2.2762744E-02
endloop
endfacet
facet normal 0.0000000E+00 6.1211610E-01 -7.9076785E-01
outer loop
vertex -2.9999999E-02 2.1954113E-01 -2.2762744E-02
vertex -2.2204460E-16 2.1954113E-01 -2.2762744E-02
vertex -2.9999999E-02 2.1713807E-01 -2.4622904E-02
endloop
endfacet
facet normal 0.0000000E+00 6.1211610E-01 -7.9076785E-01
outer loop
vertex -2.9999999E-02 2.1713807E-01 -2.4622904E-02
vertex -2.2204460E-16 2.1954113E-01 -2.2762744E-02
vertex -2.2204460E-16 2.1713807E-01 -2.4622904E-02
endloop
endfacet
facet normal 0.0000000E+00 5.2896369E-01 -8.4864450E-01
outer loop
vertex -2.9999999E-02 2.1713807E-01 -2.4622904E-02
vertex -2.2204460E-16 2.1713807E-01 -2.4622904E-02
vertex -2.9999999E-02 2.1455908E-01 -2.6230399E-02
endloop
endfacet
facet normal 0.0000000E+00 5.2896369E-01 -8.4864450E-01
outer loop
vertex -2.9999999E-02 2.1455908E-01 -2.6230399E-02
vertex -2.2204460E-16 2.1713807E-01 -2.4622904E-02
vertex -2.2204460E-16 2.1455908E-01 -2.6230399E-02
endloop
endfacet
facet normal 0.0000000E+00 4.4039381E-01 -8.9780474E-01
outer loop
vertex -2.9999999E-02 2.1455908E-01 -2.6230399E-02
vertex -2.2204460E-16 2.1455908E-01 -2.6230399E-02
vertex -2.9999999E-02 2.1183069E-01 -2.7568735E-02
endloop
endfacet
facet normal 0.0000000E+00 4.4039381E-01 -8.9780474E-01
outer loop
vertex -2.9999999E-02 2.1183069E-01 -2.7568735E-02
vertex -2.2204460E-16 2.1455908E-01 -2.6230399E-02
vertex -2.2204460E-16 2.1183069E-01 -2.7568735E-02
endloop
endfacet
facet normal 0.0000000E+00 3.4729677E-01 -9.3775529E-01
outer loop
vertex -2.9999999E-02 2.1183069E-01 -2.7568735E-02
vertex -2.2204460E-16 2.1183069E-01 -2.7568735E-02
vertex -2.9999999E-02 2.0898083E-01 -2.8624179E-02
endloop
endfacet
facet normal 0.0000000E+00 3.4729677E-01 -9.3775529E-01
outer loop
vertex -2.9999999E-02 2.0898083E-01 -2.8624179E-02
vertex -2.2204460E-16 2.1183069E-01 -2.7568735E-02
vertex -2.2204460E-16 2.0898083E-01 -2.8624179E-02
endloop
endfacet
facet normal 0.0000000E+00 2.5065649E-01 -9.6807611E-01
outer loop
vertex -2.9999999E-02 2.0898083E-01 -2.8624179E-02
vertex -2.2204460E-16 2.0898083E-01 -2.8624179E-02
vertex -2.9999999E-02 2.0603894E-01 -2.9385900E-02
endloop
endfacet
facet normal 0.0000000E+00 2.5065649E-01 -9.6807611E-01
outer loop
vertex -2.9999999E-02 2.0603894E-01 -2.9385900E-02
vertex -2.2204460E-16 2.0898083E-01 -2.8624179E-02
vertex -2.2204460E-16 2.0603894E-01 -2.9385900E-02
endloop
endfacet
facet normal 0.0000000E+00 1.5142633E-01 -9.8846847E-01
outer loop
vertex -2.9999999E-02 2.0603894E-01 -2.9385900E-02
vertex -2.2204460E-16 2.0603894E-01 -2.9385900E-02
vertex -2.9999999E-02 2.0303503E-01 -2.9846078E-02
endloop
endfacet
facet normal 0.0000000E+00 1.5142633E-01 -9.8846847E-01
outer loop
vertex -2.9999999E-02 2.0303503E-01 -2.9846078E-02
vertex -2.2204460E-16 2.0603894E-01 -2.9385900E-02
vertex -2.2204460E-16 2.0303503E-01 -2.9846078E-02
endloop
endfacet
facet normal 0.0000000E+00 5.0650008E-02 -9.9871653E-01
outer loop
vertex -2.9999999E-02 2.0303503E-01 -2.9846078E-02
vertex -2.2204460E-16 2.0303503E-01 -2.9846078E-02
vertex -2.9999999E-02 2.0000000E-01 -2.9999999E-02
endloop
endfacet
facet normal 0.0000000E+00 5.0650008E-02 -9.9871653E-01
outer loop
vertex -2.9999999E-02 2.0000000E-01 -2.9999999E-02
vertex -2.2204460E-16 2.0303503E-01 -2.9846078E-02
vertex -2.2204460E-16 2.0000000E-01 -2.9999999E-02
endloop
endfacet
facet normal 0.0000000E+00 9.9745113E-01 7.1352541E-02
outer loop
vertex -2.2204460E-16 1.8515271E-01 -2.1347224E-03
vertex -2.9999999E-02 1.8515271E-01 -2.1347224E-03
vertex -2.2204460E-16 1.8500000E-01 6.1250911E-17
endloop
endfacet
facet normal -4.3690820E-18 9.9745113E-01 7.1352541E-02
outer loop
vertex -2.2204460E-16 1.8500000E-01 6.1250911E-17
vertex -2.9999999E-02 1.8515271E-01 -2.1347224E-03
vertex -2.9999999E-02 1.8500000E-01 5.9413942E-17
endloop
endfacet
facet normal 4.3690820E-18 9.9745113E-01 -7.1352541E-02
outer loop
vertex -2.2204460E-16 1.8500000E-01 6.1250911E-17
vertex -2.9999999E-02 1.8500000E-01 5.9413942E-17
vertex -2.2204460E-16 1.8515271E-01 2.1347224E-03
endloop
endfacet
facet normal 0.0000000E+00 9.9745113E-01 -7.1352541E-02
outer loop
vertex -2.2204460E-16 1.8515271E-01 2.1347224E-03
vertex -2.9999999E-02 1.8500000E-01 5.9413942E-17
vertex -2.9999999E-02 1.8515271E-01 2.1347224E-03
endloop
endfacet
facet normal 0.0000000E+00 9.7714347E-01 -2.1258098E-01
outer loop
vertex -2.2204460E-16 1.8515271E-01 2.1347224E-03
vertex -2.9999999E-02 1.8515271E-01 2.1347224E-03
vertex -2.2204460E-16 1.8560767E-01 4.2259884E-03
endloop
endfacet
facet normal 0.0000000E+00 9.7714347E-01 -2.1258098E-01
outer loop
vertex -2.2204460E-16 1.8560767E-01 4.2259884E-03
vertex -2.9999999E-02 1.8515271E-01 2.1347224E-03
vertex -2.9999999E-02 1.8560767E-01 4.2259884E-03
endloop
endfacet
facet normal 0.0000000E+00 9.3696737E-01 -3.4941715E-01
outer loop
vertex -2.2204460E-16 1.8560767E-01 4.2259884E-03
vertex -2.9999999E-02 1.8560767E-01 4.2259884E-03
vertex -2.2204460E-16 1.8635547E-01 6.2312251E-03
endloop
endfacet
facet normal 0.0000000E+00 9.3696737E-01 -3.4941715E-01
outer loop
vertex -2.2204460E-16 1.8635547E-01 6.2312251E-03
vertex -2.9999999E-02 1.8560767E-01 4.2259884E-03
vertex -2.9999999E-02 1.8635547E-01 6.2312251E-03
endloop
endfacet
facet normal 0.0000000E+00 8.7766439E-01 -4.7927564E-01
outer loop
vertex -2.2204460E-16 1.8635547E-01 6.2312251E-03
vertex -2.9999999E-02 1.8635547E-01 6.2312251E-03
vertex -2.2204460E-16 1.8738122E-01 8.1096124E-03
endloop
endfacet
facet normal 0.0000000E+00 8.7766439E-01 -4.7927564E-01
outer loop
vertex -2.2204460E-16 1.8738122E-01 8.1096124E-03
vertex -2.9999999E-02 1.8635547E-01 6.2312251E-03
vertex -2.9999999E-02 1.8738122E-01 8.1096124E-03
endloop
endfacet
facet normal 0.0000000E+00 8.0056173E-01 -5.9925038E-01
outer loop
vertex -2.2204460E-16 1.8738122E-01 8.1096124E-03
vertex -2.9999999E-02 1.8738122E-01 8.1096124E-03
vertex -2.2204460E-16 1.8866369E-01 9.8229116E-03
endloop
endfacet
facet normal 0.0000000E+00 8.0056173E-01 -5.9925038E-01
outer loop
vertex -2.2204460E-16 1.8866369E-01 9.8229116E-03
vertex -2.9999999E-02 1.8738122E-01 8.1096124E-03
vertex -2.9999999E-02 1.8866369E-01 9.8229116E-03
endloop
endfacet
facet normal 0.0000000E+00 7.0708239E-01 -7.0713115E-01
outer loop
vertex -2.2204460E-16 1.8866369E-01 9.8229116E-03
vertex -2.9999999E-02 1.8866369E-01 9.8229116E-03
vertex -2.2204460E-16 1.9017713E-01 1.1336244E-02
endloop
endfacet
facet normal 0.0000000E+00 7.0708239E-01 -7.0713115E-01
outer loop
vertex -2.2204460E-16 1.9017713E-01 1.1336244E-02
vertex -2.9999999E-02 1.8866369E-01 9.8229116E-03
vertex -2.9999999E-02 1.9017713E-01 1.1336244E-02
endloop
endfacet
facet normal 0.0000000E+00 5.9928960E-01 -8.0053234E-01
outer loop
vertex -2.2204460E-16 1.9017713E-01 1.1336244E-02
vertex -2.9999999E-02 1.9017713E-01 1.1336244E-02
vertex -2.2204460E-16 1.9189037E-01 1.2618803E-02
endloop
endfacet
facet normal 0.0000000E+00 5.9928960E-01 -8.0053234E-01
outer loop
vertex -2.2204460E-16 1.9189037E-01 1.2618803E-02
vertex -2.9999999E-02 1.9017713E-01 1.1336244E-02
vertex -2.9999999E-02 1.9189037E-01 1.2618803E-02
endloop
endfacet
facet normal 0.0000000E+00 4.7924134E-01 -8.7768316E-01
outer loop
vertex -2.2204460E-16 1.9189037E-01 1.2618803E-02
vertex -2.9999999E-02 1.9189037E-01 1.2618803E-02
vertex -2.2204460E-16 1.9376880E-01 1.3644480E-02
endloop
endfacet
facet normal 0.0000000E+00 4.7924134E-01 -8.7768316E-01
outer loop
vertex -2.2204460E-16 1.9376880E-01 1.3644480E-02
vertex -2.9999999E-02 1.9189037E-01 1.2618803E-02
vertex -2.9999999E-02 1.9376880E-01 1.3644480E-02
endloop
endfacet
facet normal 0.0000000E+00 3.4946179E-01 -9.3695062E-01
outer loop
vertex -2.2204460E-16 1.9376880E-01 1.3644480E-02
vertex -2.9999999E-02 1.9376880E-01 1.3644480E-02
vertex -2.2204460E-16 1.9577405E-01 1.4392394E-02
endloop
endfacet
facet normal 0.0000000E+00 3.4946179E-01 -9.3695062E-01
outer loop
vertex -2.2204460E-16 1.9577405E-01 1.4392394E-02
vertex -2.9999999E-02 1.9376880E-01 1.3644480E-02
vertex -2.9999999E-02 1.9577405E-01 1.4392394E-02
endloop
endfacet
facet normal 0.0000000E+00 2.1257311E-01 -9.7714508E-01
outer loop
vertex -2.2204460E-16 1.9577405E-01 1.4392394E-02
vertex -2.9999999E-02 1.9577405E-01 1.4392394E-02
vertex -2.2204460E-16 1.9786523E-01 1.4847321E-02
endloop
endfacet
facet normal 0.0000000E+00 2.1257311E-01 -9.7714508E-01
outer loop
vertex -2.2204460E-16 1.9786523E-01 1.4847321E-02
vertex -2.9999999E-02 1.9577405E-01 1.4392394E-02
vertex -2.9999999E-02 1.9786523E-01 1.4847321E-02
endloop
endfacet
facet normal 0.0000000E+00 7.1337961E-02 -9.9745220E-01
outer loop
vertex -2.2204460E-16 1.9786523E-01 1.4847321E-02
vertex -2.9999999E-02 1.9786523E-01 1.4847321E-02
vertex -2.2204460E-16 2.0000000E-01 1.5000000E-02
endloop
endfacet
facet normal 0.0000000E+00 7.1337961E-02 -9.9745220E-01
outer loop
vertex -2.2204460E-16 2.0000000E-01 1.5000000E-02
vertex -2.9999999E-02 1.9786523E-01 1.4847321E-02
vertex -2.9999999E-02 2.0000000E-01 1.5000000E-02
endloop
endfacet
facet normal -0.0000000E+00 -7.1338460E-02 -9.9745220E-01
outer loop
vertex -2.2204460E-16 2.0000000E-01 1.5000000E-02
vertex -2.9999999E-02 2.0000000E-01 1.5000000E-02
vertex -2.2204460E-16 2.0213476E-01 1.4847321E-02
endloop
endfacet
facet normal -0.0000000E+00 -7.1338460E-02 -9.9745220E-01
outer loop
vertex -2.2204460E-16 2.0213476E-01 1.4847321E-02
vertex -2.9999999E-02 2.0000000E-01 1.5000000E-02
vertex -2.9999999E-02 2.0213476E-01 1.4847321E-02
endloop
endfacet
facet normal -0.0000000E+00 -2.1257168E-01 -9.7714549E-01
outer loop
vertex -2.2204460E-16 2.0213476E-01 1.4847321E-02
vertex -2.9999999E-02 2.0213476E-01 1.4847321E-02
vertex -2.2204460E-16 2.0422596E-01 1.4392394E-02
endloop
endfacet
facet normal -0.0000000E+00 -2.1257168E-01 -9.7714549E-01
outer loop
vertex -2.2204460E-16 2.0422596E-01 1.4392394E-02
vertex -2.9999999E-02 2.0213476E-01 1.4847321E-02
vertex -2.9999999E-02 2.0422596E-01 1.4392394E-02
endloop
endfacet
facet normal -0.0000000E+00 -3.4946179E-01 -9.3695062E-01
outer loop
vertex -2.2204460E-16 2.0422596E-01 1.4392394E-02
vertex -2.9999999E-02 2.0422596E-01 1.4392394E-02
vertex -2.2204460E-16 2.0623121E-01 1.3644480E-02
endloop
endfacet
facet normal -0.0000000E+00 -3.4946179E-01 -9.3695062E-01
outer loop
vertex -2.2204460E-16 2.0623121E-01 1.3644480E-02
vertex -2.9999999E-02 2.0422596E-01 1.4392394E-02
vertex -2.9999999E-02 2.0623121E-01 1.3644480E-02
endloop
endfacet
facet normal -0.0000000E+00 -4.7924429E-01 -8.7768155E-01
outer loop
vertex -2.2204460E-16 2.0623121E-01 1.3644480E-02
vertex -2.9999999E-02 2.0623121E-01 1.3644480E-02
vertex -2.2204460E-16 2.0810962E-01 1.2618803E-02
endloop
endfacet
facet normal -0.0000000E+00 -4.7924429E-01 -8.7768155E-01
outer loop
vertex -2.2204460E-16 2.0810962E-01 1.2618803E-02
vertex -2.9999999E-02 2.0623121E-01 1.3644480E-02
vertex -2.9999999E-02 2.0810962E-01 1.2618803E-02
endloop
endfacet
facet normal -0.0000000E+00 -5.9928620E-01 -8.0053478E-01
outer loop
vertex -2.2204460E-16 2.0810962E-01 1.2618803E-02
vertex -2.9999999E-02 2.0810962E-01 1.2618803E-02
vertex -2.2204460E-16 2.0982288E-01 1.1336244E-02
endloop
endfacet
facet normal -0.0000000E+00 -5.9928620E-01 -8.0053478E-01
outer loop
vertex -2.2204460E-16 2.0982288E-01 1.1336244E-02
vertex -2.9999999E-02 2.0810962E-01 1.2618803E-02
vertex -2.9999999E-02 2.0982288E-01 1.1336244E-02
endloop
endfacet
facet normal -0.0000000E+00 -7.0708591E-01 -7.0712769E-01
outer loop
vertex -2.2204460E-16 2.0982288E-01 1.1336244E-02
vertex -2.9999999E-02 2.0982288E-01 1.1336244E-02
vertex -2.2204460E-16 2.1133630E-01 9.8229116E-03
endloop
endfacet
facet normal -0.0000000E+00 -7.0708591E-01 -7.0712769E-01
outer loop
vertex -2.2204460E-16 2.1133630E-01 9.8229116E-03
vertex -2.9999999E-02 2.0982288E-01 1.1336244E-02
vertex -2.9999999E-02 2.1133630E-01 9.8229116E-03
endloop
endfacet
facet normal -0.0000000E+00 -8.0056173E-01 -5.9925038E-01
outer loop
vertex -2.2204460E-16 2.1133630E-01 9.8229116E-03
vertex -2.9999999E-02 2.1133630E-01 9.8229116E-03
vertex -2.2204460E-16 2.1261877E-01 8.1096124E-03
endloop
endfacet
facet normal -0.0000000E+00 -8.0056173E-01 -5.9925038E-01
outer loop
vertex -2.2204460E-16 2.1261877E-01 8.1096124E-03
vertex -2.9999999E-02 2.1133630E-01 9.8229116E-03
vertex -2.9999999E-02 2.1261877E-01 8.1096124E-03
endloop
endfacet
facet normal -0.0000000E+00 -8.7766153E-01 -4.7928107E-01
outer loop
vertex -2.2204460E-16 2.1261877E-01 8.1096124E-03
vertex -2.9999999E-02 2.1261877E-01 8.1096124E-03
vertex -2.2204460E-16 2.1364453E-01 6.2312251E-03
endloop
endfacet
facet normal -0.0000000E+00 -8.7766153E-01 -4.7928107E-01
outer loop
vertex -2.2204460E-16 2.1364453E-01 6.2312251E-03
vertex -2.9999999E-02 2.1261877E-01 8.1096124E-03
vertex -2.9999999E-02 2.1364453E-01 6.2312251E-03
endloop
endfacet
facet normal -0.0000000E+00 -9.3696737E-01 -3.4941715E-01
outer loop
vertex -2.2204460E-16 2.1364453E-01 6.2312251E-03
vertex -2.9999999E-02 2.1364453E-01 6.2312251E-03
vertex -2.2204460E-16 2.1439233E-01 4.2259884E-03
endloop
endfacet
facet normal -0.0000000E+00 -9.3696737E-01 -3.4941715E-01
outer loop
vertex -2.2204460E-16 2.1439233E-01 4.2259884E-03
vertex -2.9999999E-02 2.1364453E-01 6.2312251E-03
vertex -2.9999999E-02 2.1439233E-01 4.2259884E-03
endloop
endfacet
facet normal -0.0000000E+00 -9.7714347E-01 -2.1258098E-01
outer loop
vertex -2.2204460E-16 2.1439233E-01 4.2259884E-03
vertex -2.9999999E-02 2.1439233E-01 4.2259884E-03
vertex -2.2204460E-16 2.1484730E-01 2.1347224E-03
endloop
endfacet
facet normal -0.0000000E+00 -9.7714347E-01 -2.1258098E-01
outer loop
vertex -2.2204460E-16 2.1484730E-01 2.1347224E-03
vertex -2.9999999E-02 2.1439233E-01 4.2259884E-03
vertex -2.9999999E-02 2.1484730E-01 2.1347224E-03
endloop
endfacet
facet normal -0.0000000E+00 -9.9745113E-01 -7.1352541E-02
outer loop
vertex -2.2204460E-16 2.1484730E-01 2.1347224E-03
vertex -2.9999999E-02 2.1484730E-01 2.1347224E-03
vertex -2.2204460E-16 2.1500000E-01 5.9413942E-17
endloop
endfacet
facet normal -0.0000000E+00 -9.9745113E-01 -7.1352541E-02
outer loop
vertex -2.2204460E-16 2.1500000E-01 5.9413942E-17
vertex -2.9999999E-02 2.1484730E-01 2.1347224E-03
vertex -2.9999999E-02 2.1500000E-01 5.9413942E-17
endloop
endfacet
facet normal 0.0000000E+00 -9.9745113E-01 7.1352541E-02
outer loop
vertex -2.2204460E-16 2.1500000E-01 5.9413942E-17
vertex -2.9999999E-02 2.1500000E-01 5.9413942E-17
vertex -2.2204460E-16 2.1484730E-01 -2.1347224E-03
endloop
endfacet
facet normal 0.0000000E+00 -9.9745113E-01 7.1352541E-02
outer loop
vertex -2.2204460E-16 2.1484730E-01 -2.1347224E-03
vertex -2.9999999E-02 2.1500000E-01 5.9413942E-17
vertex -2.9999999E-02 2.1484730E-01 -2.1347224E-03
endloop
endfacet
facet normal 0.0000000E+00 -9.7714347E-01 2.1258098E-01
outer loop
vertex -2.2204460E-16 2.1484730E-01 -2.1347224E-03
vertex -2.9999999E-02 2.1484730E-01 -2.1347224E-03
vertex -2.2204460E-16 2.1439233E-01 -4.2259884E-03
endloop
endfacet
facet normal 0.0000000E+00 -9.7714347E-01 2.1258098E-01
outer loop
vertex -2.2204460E-16 2.1439233E-01 -4.2259884E-03
vertex -2.9999999E-02 2.1484730E-01 -2.1347224E-03
vertex -2.9999999E-02 2.1439233E-01 -4.2259884E-03
endloop
endfacet
facet normal 0.0000000E+00 -9.3696737E-01 3.4941715E-01
outer loop
vertex -2.2204460E-16 2.1439233E-01 -4.2259884E-03
vertex -2.9999999E-02 2.1439233E-01 -4.2259884E-03
vertex -2.2204460E-16 2.1364453E-01 -6.2312251E-03
endloop
endfacet
facet normal 0.0000000E+00 -9.3696737E-01 3.4941715E-01
outer loop
vertex -2.2204460E-16 2.1364453E-01 -6.2312251E-03
vertex -2.9999999E-02 2.1439233E-01 -4.2259884E-03
vertex -2.9999999E-02 2.1364453E-01 -6.2312251E-03
endloop
endfacet
facet normal 0.0000000E+00 -8.7766153E-01 4.7928107E-01
outer loop
vertex -2.2204460E-16 2.1364453E-01 -6.2312251E-03
vertex -2.9999999E-02 2.1364453E-01 -6.2312251E-03
vertex -2.2204460E-16 2.1261877E-01 -8.1096124E-03
endloop
endfacet
facet normal 0.0000000E+00 -8.7766153E-01 4.7928107E-01
outer loop
vertex -2.2204460E-16 2.1261877E-01 -8.1096124E-03
vertex -2.9999999E-02 2.1364453E-01 -6.2312251E-03
vertex -2.9999999E-02 2.1261877E-01 -8.1096124E-03
endloop
endfacet
facet normal 0.0000000E+00 -8.0056173E-01 5.9925038E-01
outer loop
vertex -2.2204460E-16 2.1261877E-01 -8.1096124E-03
vertex -2.9999999E-02 2.1261877E-01 -8.1096124E-03
vertex -2.2204460E-16 2.1133630E-01 -9.8229116E-03
endloop
endfacet
facet normal 0.0000000E+00 -8.0056173E-01 5.9925038E-01
outer loop
vertex -2.2204460E-16 2.1133630E-01 -9.8229116E-03
vertex -2.9999999E-02 2.1261877E-01 -8.1096124E-03
vertex -2.9999999E-02 2.1133630E-01 -9.8229116E-03
endloop
endfacet
facet normal 0.0000000E+00 -7.0708591E-01 7.0712769E-01
outer loop
vertex -2.2204460E-16 2.1133630E-01 -9.8229116E-03
vertex -2.9999999E-02 2.1133630E-01 -9.8229116E-03
vertex -2.2204460E-16 2.0982288E-01 -1.1336244E-02
endloop
endfacet
facet normal 0.0000000E+00 -7.0708591E-01 7.0712769E-01
outer loop
vertex -2.2204460E-16 2.0982288E-01 -1.1336244E-02
vertex -2.9999999E-02 2.1133630E-01 -9.8229116E-03
vertex -2.9999999E-02 2.0982288E-01 -1.1336244E-02
endloop
endfacet
facet normal 0.0000000E+00 -5.9928620E-01 8.0053478E-01
outer loop
vertex -2.2204460E-16 2.0982288E-01 -1.1336244E-02
vertex -2.9999999E-02 2.0982288E-01 -1.1336244E-02
vertex -2.2204460E-16 2.0810962E-01 -1.2618803E-02
endloop
endfacet
facet normal 0.0000000E+00 -5.9928620E-01 8.0053478E-01
outer loop
vertex -2.2204460E-16 2.0810962E-01 -1.2618803E-02
vertex -2.9999999E-02 2.0982288E-01 -1.1336244E-02
vertex -2.9999999E-02 2.0810962E-01 -1.2618803E-02
endloop
endfacet
facet normal 0.0000000E+00 -4.7924429E-01 8.7768155E-01
outer loop
vertex -2.2204460E-16 2.0810962E-01 -1.2618803E-02
vertex -2.9999999E-02 2.0810962E-01 -1.2618803E-02
vertex -2.2204460E-16 2.0623121E-01 -1.3644480E-02
endloop
endfacet
facet normal 0.0000000E+00 -4.7924429E-01 8.7768155E-01
outer loop
vertex -2.2204460E-16 2.0623121E-01 -1.3644480E-02
vertex -2.9999999E-02 2.0810962E-01 -1.2618803E-02
vertex -2.9999999E-02 2.0623121E-01 -1.3644480E-02
endloop
endfacet
facet normal 0.0000000E+00 -3.4946179E-01 9.3695062E-01
outer loop
vertex -2.2204460E-16 2.0623121E-01 -1.3644480E-02
vertex -2.9999999E-02 2.0623121E-01 -1.3644480E-02
vertex -2.2204460E-16 2.0422596E-01 -1.4392394E-02
endloop
endfacet
facet normal 0.0000000E+00 -3.4946179E-01 9.3695062E-01
outer loop
vertex -2.2204460E-16 2.0422596E-01 -1.4392394E-02
vertex -2.9999999E-02 2.0623121E-01 -1.3644480E-02
vertex -2.9999999E-02 2.0422596E-01 -1.4392394E-02
endloop
endfacet
facet normal 0.0000000E+00 -2.1257168E-01 9.7714549E-01
outer loop
vertex -2.2204460E-16 2.0422596E-01 -1.4392394E-02
vertex -2.9999999E-02 2.0422596E-01 -1.4392394E-02
vertex -2.2204460E-16 2.0213476E-01 -1.4847321E-02
endloop
endfacet
facet normal 0.0000000E+00 -2.1257168E-01 9.7714549E-01
outer loop
vertex -2.2204460E-16 2.0213476E-01 -1.4847321E-02
vertex -2.9999999E-02 2.0422596E-01 -1.4392394E-02
vertex -2.9999999E-02 2.0213476E-01 -1.4847321E-02
endloop
endfacet
facet normal 0.0000000E+00 -7.1338460E-02 9.9745220E-01
outer loop
vertex -2.2204460E-16 2.0213476E-01 -1.4847321E-02
vertex -2.9999999E-02 2.0213476E-01 -1.4847321E-02
vertex -2.2204460E-16 2.0000000E-01 -1.5000000E-02
endloop
endfacet
facet normal 0.0000000E+00 -7.1338460E-02 9.9745220E-01
outer loop
vertex -2.2204460E-16 2.0000000E-01 -1.5000000E-02
vertex -2.9999999E-02 2.0213476E-01 -1.4847321E-02
vertex -2.9999999E-02 2.0000000E-01 -1.5000000E-02
endloop
endfacet
facet normal 0.0000000E+00 7.1337961E-02 9.9745220E-01
outer loop
vertex -2.2204460E-16 2.0000000E-01 -1.5000000E-02
vertex -2.9999999E-02 2.0000000E-01 -1.5000000E-02
vertex -2.2204460E-16 1.9786523E-01 -1.4847321E-02
endloop
endfacet
facet normal 0.0000000E+00 7.1337961E-02 9.9745220E-01
outer loop
vertex -2.2204460E-16 1.9786523E-01 -1.4847321E-02
vertex -2.9999999E-02 2.0000000E-01 -1.5000000E-02
vertex -2.9999999E-02 1.9786523E-01 -1.4847321E-02
endloop
endfacet
facet normal 0.0000000E+00 2.1257311E-01 9.7714508E-01
outer loop
vertex -2.2204460E-16 1.9786523E-01 -1.4847321E-02
vertex -2.9999999E-02 1.9786523E-01 -1.4847321E-02
vertex -2.2204460E-16 1.9577405E-01 -1.4392394E-02
endloop
endfacet
facet normal 0.0000000E+00 2.1257311E-01 9.7714508E-01
outer loop
vertex -2.2204460E-16 1.9577405E-01 -1.4392394E-02
vertex -2.9999999E-02 1.9786523E-01 -1.4847321E-02
vertex -2.9999999E-02 1.9577405E-01 -1.4392394E-02
endloop
endfacet
facet normal 0.0000000E+00 3.4946179E-01 9.3695062E-01
outer loop
vertex -2.2204460E-16 1.9577405E-01 -1.4392394E-02
vertex -2.9999999E-02 1.9577405E-01 -1.4392394E-02
vertex -2.2204460E-16 1.9376880E-01 -1.3644480E-02
endloop
endfacet
facet normal 0.0000000E+00 3.4946179E-01 9.3695062E-01
outer loop
vertex -2.2204460E-16 1.9376880E-01 -1.3644480E-02
vertex -2.9999999E-02 1.9577405E-01 -1.4392394E-02
vertex -2.9999999E-02 1.9376880E-01 -1.3644480E-02
endloop
endfacet
facet normal 0.0000000E+00 4.7924134E-01 8.7768316E-01
outer loop
vertex -2.2204460E-16 1.9376880E-01 -1.3644480E-02
vertex -2.9999999E-02 1.9376880E-01 -1.3644480E-02
vertex -2.2204460E-16 1.9189037E-01 -1.2618803E-02
endloop
endfacet
facet normal 0.0000000E+00 4.7924134E-01 8.7768316E-01
outer loop
vertex -2.2204460E-16 1.9189037E-01 -1.2618803E-02
vertex -2.9999999E-02 1.9376880E-01 -1.3644480E-02
vertex -2.9999999E-02 1.9189037E-01 -1.2618803E-02
endloop
endfacet
facet normal 0.0000000E+00 5.9928960E-01 8.0053234E-01
outer loop
vertex -2.2204460E-16 1.9189037E-01 -1.2618803E-02
vertex -2.9999999E-02 1.9189037E-01 -1.2618803E-02
vertex -2.2204460E-16 1.9017713E-01 -1.1336244E-02
endloop
endfacet
facet normal 0.0000000E+00 5.9928960E-01 8.0053234E-01
outer loop
vertex -2.2204460E-16 1.9017713E-01 -1.1336244E-02
vertex -2.9999999E-02 1.9189037E-01 -1.2618803E-02
vertex -2.9999999E-02 1.9017713E-01 -1.1336244E-02
endloop
endfacet
facet normal 0.0000000E+00 7.0708239E-01 7.0713115E-01
outer loop
vertex -2.2204460E-16 1.9017713E-01 -1.1336244E-02
vertex -2.9999999E-02 1.9017713E-01 -1.1336244E-02
vertex -2.2204460E-16 1.8866369E-01 -9.8229116E-03
endloop
endfacet
facet normal 0.0000000E+00 7.0708239E-01 7.0713115E-01
outer loop
vertex -2.2204460E-16 1.8866369E-01 -9.8229116E-03
vertex -2.9999999E-02 1.9017713E-01 -1.1336244E-02
vertex -2.9999999E-02 1.8866369E-01 -9.8229116E-03
endloop
endfacet
facet normal 0.0000000E+00 8.0056173E-01 5.9925038E-01
outer loop
vertex -2.2204460E-16 1.8866369E-01 -9.8229116E-03
vertex -2.9999999E-02 1.8866369E-01 -9.8229116E-03
vertex -2.2204460E-16 1.8738122E-01 -8.1096124E-03
endloop
endfacet
facet normal 0.0000000E+00 8.0056173E-01 5.9925038E-01
outer loop
vertex -2.2204460E-16 1.8738122E-01 -8.1096124E-03
vertex -2.9999999E-02 1.8866369E-01 -9.8229116E-03
vertex -2.9999999E-02 1.8738122E-01 -8.1096124E-03
endloop
endfacet
facet normal 0.0000000E+00 8.7766439E-01 4.7927564E-01
outer loop
vertex -2.2204460E-16 1.8738122E-01 -8.1096124E-03
vertex -2.9999999E-02 1.8738122E-01 -8.1096124E-03
vertex -2.2204460E-16 1.8635547E-01 -6.2312251E-03
endloop
endfacet
facet normal 0.0000000E+00 8.7766439E-01 4.7927564E-01
outer loop
vertex -2.2204460E-16 1.8635547E-01 -6.2312251E-03
vertex -2.9999999E-02 1.8738122E-01 -8.1096124E-03
vertex -2.9999999E-02 1.8635547E-01 -6.2312251E-03
endloop
endfacet
facet normal 0.0000000E+00 9.3696737E-01 3.4941715E-01
outer loop
vertex -2.2204460E-16 1.8635547E-01 -6.2312251E-03
vertex -2.9999999E-02 1.8635547E-01 -6.2312251E-03
vertex -2.2204460E-16 1.8560767E-01 -4.2259884E-03
endloop
endfacet
facet normal 0.0000000E+00 9.3696737E-01 3.4941715E-01
outer loop
vertex -2.2204460E-16 1.8560767E-01 -4.2259884E-03
vertex -2.9999999E-02 1.8635547E-01 -6.2312251E-03
vertex -2.9999999E-02 1.8560767E-01 -4.2259884E-03
endloop
endfacet
facet normal 0.0000000E+00 9.7714347E-01 2.1258098E-01
outer loop
vertex -2.2204460E-16 1.8560767E-01 -4.2259884E-03
vertex -2.9999999E-02 1.8560767E-01 -4.2259884E-03
vertex -2.2204460E-16 1.8515271E-01 -2.1347224E-03
endloop
endfacet
facet normal 0.0000000E+00 9.7714347E-01 2.1258098E-01
outer loop
vertex -2.2204460E-16 1.8515271E-01 -2.1347224E-03
vertex -2.9999999E-02 1.8560767E-01 -4.2259884E-03
vertex -2.9999999E-02 1.8515271E-01 -2.1347224E-03
endloop
endfacet
facet normal 1.0000000E+00 0.0000000E+00 0.0000000E+00
outer loop
vertex -2.2204460E-16 5.0000001E-02 -2.9999999E-02
vertex -2.2204460E-16 1.8500000E-01 6.1250911E-17
vertex -2.2204460E-16 5.0000001E-02 2.9999999E-02
endloop
endfacet
facet normal 1.0000000E+00 0.0000000E+00 0.0000000E+00
outer loop
vertex -2.2204460E-16 5.0000001E-02 2.9999999E-02
vertex -2.2204460E-16 1.8500000E-01 6.1250911E-17
vertex -2.2204460E-16 1.8515271E-01 2.1347224E-03
endloop
endfacet
facet normal 1.0000000E+00 0.0000000E+00 0.0000000E+00
outer loop
vertex -2.2204460E-16 5.0000001E-02 2.9999999E-02
vertex -2.2204460E-16 1.8515271E-01 2.1347224E-03
vertex -2.2204460E-16 1.8560767E-01 4.2259884E-03
endloop
endfacet
facet normal 1.0000000E+00 0.0000000E+00 0.0000000E+00
outer loop
vertex -2.2204460E-16 2.0000000E-01 -2.9999999E-02
vertex -2.2204460E-16 1.9189037E-01 -1.2618803E-02
vertex -2.2204460E-16 5.0000001E-02 -2.9999999E-02
endloop
endfacet
facet normal 1.0000000E+00 0.0000000E+00 0.0000000E+00
outer loop
vertex -2.2204460E-16 5.0000001E-02 -2.9999999E-02
vertex -2.2204460E-16 1.9189037E-01 -1.2618803E-02
vertex -2.2204460E-16 1.9017713E-01 -1.1336244E-02
endloop
endfacet
facet normal 1.0000000E+00 0.0000000E+00 0.0000000E+00
outer loop
vertex -2.2204460E-16 5.0000001E-02 -2.9999999E-02
vertex -2.2204460E-16 1.9017713E-01 -1.1336244E-02
vertex -2.2204460E-16 1.8866369E-01 -9.8229116E-03
endloop
endfacet
facet normal 1.0000000E+00 0.0000000E+00 -0.0000000E+00
outer loop
vertex -2.2204460E-16 2.0303503E-01 -2.9846078E-02
vertex -2.2204460E-16 2.0603894E-01 -2.9385900E-02
vertex -2.2204460E-16 2.0000000E-01 -2.9999999E-02
endloop
endfacet
facet normal 9.9999994E-01 0.0000000E+00 0.0000000E+00
outer loop
vertex -2.2204460E-16 2.0000000E-01 -2.9999999E-02
vertex -2.2204460E-16 2.0603894E-01 -2.9385900E-02
vertex -2.2204460E-16 2.0898083E-01 -2.8624179E-02
endloop
endfacet
facet normal 9.9999994E-01 0.0000000E+00 0.0000000E+00
outer loop
vertex -2.2204460E-16 2.0000000E-01 -2.9999999E-02
vertex -2.2204460E-16 2.0898083E-01 -2.8624179E-02
vertex -2.2204460E-16 2.1183069E-01 -2.7568735E-02
endloop
endfacet
facet normal 1.0000000E+00 0.0000000E+00 -0.0000000E+00
outer loop
vertex -2.2204460E-16 2.0000000E-01 -2.9999999E-02
vertex -2.2204460E-16 2.1183069E-01 -2.7568735E-02
vertex -2.2204460E-16 1.9786523E-01 -1.4847321E-02
endloop
endfacet
facet normal 1.0000000E+00 0.0000000E+00 0.0000000E+00
outer loop
vertex -2.2204460E-16 1.9786523E-01 -1.4847321E-02
vertex -2.2204460E-16 2.1183069E-01 -2.7568735E-02
vertex -2.2204460E-16 2.1455908E-01 -2.6230399E-02
endloop
endfacet
facet normal 9.9999994E-01 0.0000000E+00 0.0000000E+00
outer loop
vertex -2.2204460E-16 1.9786523E-01 -1.4847321E-02
vertex -2.2204460E-16 2.1455908E-01 -2.6230399E-02
vertex -2.2204460E-16 2.0000000E-01 -1.5000000E-02
endloop
endfacet
facet normal 1.0000000E+00 0.0000000E+00 0.0000000E+00
outer loop
vertex -2.2204460E-16 2.0000000E-01 -1.5000000E-02
vertex -2.2204460E-16 2.1455908E-01 -2.6230399E-02
vertex -2.2204460E-16 2.1713807E-01 -2.4622904E-02
endloop
endfacet
facet normal 1.0000000E+00 0.0000000E+00 0.0000000E+00
outer loop
vertex -2.2204460E-16 2.0000000E-01 -1.5000000E-02
vertex -2.2204460E-16 2.1713807E-01 -2.4622904E-02
vertex -2.2204460E-16 2.1954113E-01 -2.2762744E-02
endloop
endfacet
facet normal 1.0000000E+00 -0.0000000E+00 0.0000000E+00
outer loop
vertex -2.2204460E-16 2.0000000E-01 -1.5000000E-02
vertex -2.2204460E-16 2.1954113E-01 -2.2762744E-02
vertex -2.2204460E-16 2.0213476E-01 -1.4847321E-02
endloop
endfacet
facet normal 1.0000000E+00 0.0000000E+00 0.0000000E+00
outer loop
vertex -2.2204460E-16 2.0213476E-01 -1.4847321E-02
vertex -2.2204460E-16 2.1954113E-01 -2.2762744E-02
vertex -2.2204460E-16 2.2174378E-01 -2.0669008E-02
endloop
endfacet
facet normal 1.0000000E+00 -0.0000000E+00 0.0000000E+00
outer loop
vertex -2.2204460E-16 2.0213476E-01 -1.4847321E-02
vertex -2.2204460E-16 2.2174378E-01 -2.0669008E-02
vertex -2.2204460E-16 2.0422596E-01 -1.4392394E-02
endloop
endfacet
facet normal 1.0000000E+00 0.0000000E+00 0.0000000E+00
outer loop
vertex -2.2204460E-16 2.0422596E-01 -1.4392394E-02
vertex -2.2204460E-16 2.2174378E-01 -2.0669008E-02
vertex -2.2204460E-16 2.2372326E-01 -1.8363180E-02
endloop
endfacet
facet normal 1.0000000E+00 -0.0000000E+00 0.0000000E+00
outer loop
vertex -2.2204460E-16 2.0422596E-01 -1.4392394E-02
vertex -2.2204460E-16 2.2372326E-01 -1.8363180E-02
vertex -2.2204460E-16 2.0623121E-01 -1.3644480E-02
endloop
endfacet
facet normal 1.0000000E+00 0.0000000E+00 0.0000000E+00
outer loop
vertex -2.2204460E-16 2.0623121E-01 -1.3644480E-02
vertex -2.2204460E-16 2.2372326E-01 -1.8363180E-02
vertex -2.2204460E-16 2.2545935E-01 -1.5868921E-02
endloop
endfacet
facet normal 1.0000000E+00 -0.0000000E+00 0.0000000E+00
outer loop
vertex -2.2204460E-16 2.0623121E-01 -1.3644480E-02
vertex -2.2204460E-16 2.2545935E-01 -1.5868921E-02
vertex -2.2204460E-16 2.0810962E-01 -1.2618803E-02
endloop
endfacet
facet normal 1.0000000E+00 0.0000000E+00 0.0000000E+00
outer loop
vertex -2.2204460E-16 2.0810962E-01 -1.2618803E-02
vertex -2.2204460E-16 2.2545935E-01 -1.5868921E-02
vertex -2.2204460E-16 2.2693408E-01 -1.3211824E-02
endloop
endfacet
facet normal 1.0000000E+00 -0.0000000E+00 0.0000000E+00
outer loop
vertex -2.2204460E-16 2.0810962E-01 -1.2618803E-02
vertex -2.2204460E-16 2.2693408E-01 -1.3211824E-02
vertex -2.2204460E-16 2.0982288E-01 -1.1336244E-02
endloop
endfacet
facet normal 1.0000000E+00 -0.0000000E+00 0.0000000E+00
outer loop
vertex -2.2204460E-16 2.0982288E-01 -1.1336244E-02
vertex -2.2204460E-16 2.2693408E-01 -1.3211824E-02
vertex -2.2204460E-16 2.1133630E-01 -9.8229116E-03
endloop
endfacet
facet normal 1.0000000E+00 0.0000000E+00 0.0000000E+00
outer loop
vertex -2.2204460E-16 2.1133630E-01 -9.8229116E-03
vertex -2.2204460E-16 2.2693408E-01 -1.3211824E-02
vertex -2.2204460E-16 2.2813258E-01 -1.0419158E-02
endloop
endfacet
facet normal 1.0000000E+00 -0.0000000E+00 0.0000000E+00
outer loop
vertex -2.2204460E-16 2.1133630E-01 -9.8229116E-03
vertex -2.2204460E-16 2.2813258E-01 -1.0419158E-02
vertex -2.2204460E-16 2.1261877E-01 -8.1096124E-03
endloop
endfacet
facet normal 1.0000000E+00 -0.0000000E+00 0.0000000E+00
outer loop
vertex -2.2204460E-16 2.1261877E-01 -8.1096124E-03
vertex -2.2204460E-16 2.2813258E-01 -1.0419158E-02
vertex -2.2204460E-16 2.2904235E-01 -7.5195762E-03
endloop
endfacet
facet normal 1.0000000E+00 0.0000000E+00 0.0000000E+00
outer loop
vertex -2.2204460E-16 2.1261877E-01 -8.1096124E-03
vertex -2.2204460E-16 2.2904235E-01 -7.5195762E-03
vertex -2.2204460E-16 2.1364453E-01 -6.2312251E-03
endloop
endfacet
facet normal 1.0000000E+00 -0.0000000E+00 0.0000000E+00
outer loop
vertex -2.2204460E-16 2.1364453E-01 -6.2312251E-03
vertex -2.2204460E-16 2.2904235E-01 -7.5195762E-03
vertex -2.2204460E-16 2.2965406E-01 -4.5428332E-03
endloop
endfacet
facet normal 1.0000000E+00 0.0000000E+00 0.0000000E+00
outer loop
vertex -2.2204460E-16 2.1364453E-01 -6.2312251E-03
vertex -2.2204460E-16 2.2965406E-01 -4.5428332E-03
vertex -2.2204460E-16 2.1439233E-01 -4.2259884E-03
endloop
endfacet
facet normal 1.0000000E+00 -0.0000000E+00 0.0000000E+00
outer loop
vertex -2.2204460E-16 2.1439233E-01 -4.2259884E-03
vertex -2.2204460E-16 2.2965406E-01 -4.5428332E-03
vertex -2.2204460E-16 2.1484730E-01 -2.1347224E-03
endloop
endfacet
facet normal 1.0000000E+00 -0.0000000E+00 0.0000000E+00
outer loop
vertex -2.2204460E-16 2.1484730E-01 -2.1347224E-03
vertex -2.2204460E-16 2.2965406E-01 -4.5428332E-03
vertex -2.2204460E-16 2.2996154E-01 -1.5194751E-03
endloop
endfacet
facet normal 1.0000000E+00 0.0000000E+00 0.0000000E+00
outer loop
vertex -2.2204460E-16 2.1484730E-01 -2.1347224E-03
vertex -2.2204460E-16 2.2996154E-01 -1.5194751E-03
vertex -2.2204460E-16 2.1500000E-01 5.9413942E-17
endloop
endfacet
facet normal 1.0000000E+00 -0.0000000E+00 0.0000000E+00
outer loop
vertex -2.2204460E-16 2.1500000E-01 5.9413942E-17
vertex -2.2204460E-16 2.2996154E-01 -1.5194751E-03
vertex -2.2204460E-16 2.2996154E-01 1.5194751E-03
endloop
endfacet
facet normal 1.0000000E+00 0.0000000E+00 -0.0000000E+00
outer loop
vertex -2.2204460E-16 2.1500000E-01 5.9413942E-17
vertex -2.2204460E-16 2.2996154E-01 1.5194751E-03
vertex -2.2204460E-16 2.1484730E-01 2.1347224E-03
endloop
endfacet
facet normal 1.0000000E+00 -0.0000000E+00 0.0000000E+00
outer loop
vertex -2.2204460E-16 2.1484730E-01 2.1347224E-03
vertex -2.2204460E-16 2.2996154E-01 1.5194751E-03
vertex -2.2204460E-16 2.2965406E-01 4.5428332E-03
endloop
endfacet
facet normal 1.0000000E+00 0.0000000E+00 -0.0000000E+00
outer loop
vertex -2.2204460E-16 2.1484730E-01 2.1347224E-03
vertex -2.2204460E-16 2.2965406E-01 4.5428332E-03
vertex -2.2204460E-16 2.1439233E-01 4.2259884E-03
endloop
endfacet
facet normal 1.0000000E+00 0.0000000E+00 -0.0000000E+00
outer loop
vertex -2.2204460E-16 2.1439233E-01 4.2259884E-03
vertex -2.2204460E-16 2.2965406E-01 4.5428332E-03
vertex -2.2204460E-16 2.1364453E-01 6.2312251E-03
endloop
endfacet
facet normal 1.0000000E+00 -0.0000000E+00 0.0000000E+00
outer loop
vertex -2.2204460E-16 2.1364453E-01 6.2312251E-03
vertex -2.2204460E-16 2.2965406E-01 4.5428332E-03
vertex -2.2204460E-16 2.2904235E-01 7.5195762E-03
endloop
endfacet
facet normal 1.0000000E+00 0.0000000E+00 -0.0000000E+00
outer loop
vertex -2.2204460E-16 2.1364453E-01 6.2312251E-03
vertex -2.2204460E-16 2.2904235E-01 7.5195762E-03
vertex -2.2204460E-16 2.1261877E-01 8.1096124E-03
endloop
endfacet
facet normal 1.0000000E+00 -0.0000000E+00 0.0000000E+00
outer loop
vertex -2.2204460E-16 2.1261877E-01 8.1096124E-03
vertex -2.2204460E-16 2.2904235E-01 7.5195762E-03
vertex -2.2204460E-16 2.2813258E-01 1.0419158E-02
endloop
endfacet
facet normal 1.0000000E+00 0.0000000E+00 -0.0000000E+00
outer loop
vertex -2.2204460E-16 2.1261877E-01 8.1096124E-03
vertex -2.2204460E-16 2.2813258E-01 1.0419158E-02
vertex -2.2204460E-16 2.1133630E-01 9.8229116E-03
endloop
endfacet
facet normal 1.0000000E+00 0.0000000E+00 0.0000000E+00
outer loop
vertex -2.2204460E-16 2.1133630E-01 9.8229116E-03
vertex -2.2204460E-16 2.2813258E-01 1.0419158E-02
vertex -2.2204460E-16 2.2693408E-01 1.3211824E-02
endloop
endfacet
facet normal 1.0000000E+00 0.0000000E+00 -0.0000000E+00
outer loop
vertex -2.2204460E-16 2.1133630E-01 9.8229116E-03
vertex -2.2204460E-16 2.2693408E-01 1.3211824E-02
vertex -2.2204460E-16 2.0982288E-01 1.1336244E-02
endloop
endfacet
facet normal 1.0000000E+00 0.0000000E+00 -0.0000000E+00
outer loop
vertex -2.2204460E-16 2.0982288E-01 1.1336244E-02
vertex -2.2204460E-16 2.2693408E-01 1.3211824E-02
vertex -2.2204460E-16 2.0810962E-01 1.2618803E-02
endloop
endfacet
facet normal 1.0000000E+00 0.0000000E+00 0.0000000E+00
outer loop
vertex -2.2204460E-16 2.0810962E-01 1.2618803E-02
vertex -2.2204460E-16 2.2693408E-01 1.3211824E-02
vertex -2.2204460E-16 2.2545935E-01 1.5868921E-02
endloop
endfacet
facet normal 1.0000000E+00 0.0000000E+00 -0.0000000E+00
outer loop
vertex -2.2204460E-16 2.0810962E-01 1.2618803E-02
vertex -2.2204460E-16 2.2545935E-01 1.5868921E-02
vertex -2.2204460E-16 2.0623121E-01 1.3644480E-02
endloop
endfacet
facet normal 1.0000000E+00 0.0000000E+00 0.0000000E+00
outer loop
vertex -2.2204460E-16 2.0623121E-01 1.3644480E-02
vertex -2.2204460E-16 2.2545935E-01 1.5868921E-02
vertex -2.2204460E-16 2.2372326E-01 1.8363180E-02
endloop
endfacet
facet normal 1.0000000E+00 0.0000000E+00 -0.0000000E+00
outer loop
vertex -2.2204460E-16 2.0623121E-01 1.3644480E-02
vertex -2.2204460E-16 2.2372326E-01 1.8363180E-02
vertex -2.2204460E-16 2.0422596E-01 1.4392394E-02
endloop
endfacet
facet normal 1.0000000E+00 0.0000000E+00 0.0000000E+00
outer loop
vertex -2.2204460E-16 2.0422596E-01 1.4392394E-02
vertex -2.2204460E-16 2.2372326E-01 1.8363180E-02
vertex -2.2204460E-16 2.2174378E-01 2.0669008E-02
endloop
endfacet
facet normal 1.0000000E+00 0.0000000E+00 -0.0000000E+00
outer loop
vertex -2.2204460E-16 2.0422596E-01 1.4392394E-02
vertex -2.2204460E-16 2.2174378E-01 2.0669008E-02
vertex -2.2204460E-16 2.0213476E-01 1.4847321E-02
endloop
endfacet
facet normal 1.0000000E+00 0.0000000E+00 0.0000000E+00
outer loop
vertex -2.2204460E-16 2.0213476E-01 1.4847321E-02
vertex -2.2204460E-16 2.2174378E-01 2.0669008E-02
vertex -2.2204460E-16 2.1954113E-01 2.2762744E-02
endloop
endfacet
facet normal 1.0000000E+00 0.0000000E+00 -0.0000000E+00
outer loop
vertex -2.2204460E-16 2.0213476E-01 1.4847321E-02
vertex -2.2204460E-16 2.1954113E-01 2.2762744E-02
vertex -2.2204460E-16 2.0000000E-01 1.5000000E-02
endloop
endfacet
facet normal 1.0000000E+00 0.0000000E+00 0.0000000E+00
outer loop
vertex -2.2204460E-16 2.0000000E-01 1.5000000E-02
vertex -2.2204460E-16 2.1954113E-01 2.2762744E-02
vertex -2.2204460E-16 2.1713807E-01 2.4622904E-02
endloop
endfacet
facet normal 1.0000000E+00 0.0000000E+00 0.0000000E+00
outer loop
vertex -2.2204460E-16 2.0000000E-01 1.5000000E-02
vertex -2.2204460E-16 2.1713807E-01 2.4622904E-02
vertex -2.2204460E-16 2.1455908E-01 2.6230399E-02
endloop
endfacet
facet normal 9.9999994E-01 0.0000000E+00 -0.0000000E+00
outer loop
vertex -2.2204460E-16 2.0000000E-01 1.5000000E-02
vertex -2.2204460E-16 2.1455908E-01 2.6230399E-02
vertex -2.2204460E-16 1.9786523E-01 1.4847321E-02
endloop
endfacet
facet normal 1.0000000E+00 0.0000000E+00 0.0000000E+00
outer loop
vertex -2.2204460E-16 1.9786523E-01 1.4847321E-02
vertex -2.2204460E-16 2.1455908E-01 2.6230399E-02
vertex -2.2204460E-16 2.1183069E-01 2.7568735E-02
endloop
endfacet
facet normal 1.0000000E+00 0.0000000E+00 0.0000000E+00
outer loop
vertex -2.2204460E-16 1.9786523E-01 1.4847321E-02
vertex -2.2204460E-16 2.1183069E-01 2.7568735E-02
vertex -2.2204460E-16 2.0000000E-01 2.9999999E-02
endloop
endfacet
facet normal 9.9999994E-01 0.0000000E+00 0.0000000E+00
outer loop
vertex -2.2204460E-16 2.0000000E-01 2.9999999E-02
vertex -2.2204460E-16 2.1183069E-01 2.7568735E-02
vertex -2.2204460E-16 2.0898083E-01 2.8624179E-02
endloop
endfacet
facet normal 9.9999994E-01 0.0000000E+00 0.0000000E+00
outer loop
vertex -2.2204460E-16 2.0000000E-01 2.9999999E-02
vertex -2.2204460E-16 2.0898083E-01 2.8624179E-02
vertex -2.2204460E-16 2.0603894E-01 2.9385900E-02
endloop
endfacet
facet normal 1.0000000E+00 0.0000000E+00 0.0000000E+00
outer loop
vertex -2.2204460E-16 2.0603894E-01 2.9385900E-02
vertex -2.2204460E-16 2.0303503E-01 2.9846078E-02
vertex -2.2204460E-16 2.0000000E-01 2.9999999E-02
endloop
endfacet
facet normal 1.0000000E+00 -0.0000000E+00 0.0000000E+00
outer loop
vertex -2.2204460E-16 5.0000001E-02 2.9999999E-02
vertex -2.2204460E-16 1.9189037E-01 1.2618803E-02
vertex -2.2204460E-16 2.0000000E-01 2.9999999E-02
endloop
endfacet
facet normal 1.0000000E+00 0.0000000E+00 0.0000000E+00
outer loop
vertex -2.2204460E-16 2.0000000E-01 2.9999999E-02
vertex -2.2204460E-16 1.9189037E-01 1.2618803E-02
vertex -2.2204460E-16 1.9376880E-01 1.3644480E-02
endloop
endfacet
facet normal 1.0000000E+00 0.0000000E+00 0.0000000E+00
outer loop
vertex -2.2204460E-16 2.0000000E-01 2.9999999E-02
vertex -2.2204460E-16 1.9376880E-01 1.3644480E-02
vertex -2.2204460E-16 1.9577405E-01 1.4392394E-02
endloop
endfacet
facet normal 1.0000000E+00 0.0000000E+00 -0.0000000E+00
outer loop
vertex -2.2204460E-16 1.8560767E-01 4.2259884E-03
vertex -2.2204460E-16 1.8635547E-01 6.2312251E-03
vertex -2.2204460E-16 5.0000001E-02 2.9999999E-02
endloop
endfacet
facet normal 1.0000000E+00 0.0000000E+00 0.0000000E+00
outer loop
vertex -2.2204460E-16 5.0000001E-02 2.9999999E-02
vertex -2.2204460E-16 1.8635547E-01 6.2312251E-03
vertex -2.2204460E-16 1.8738122E-01 8.1096124E-03
endloop
endfacet
facet normal 1.0000000E+00 0.0000000E+00 0.0000000E+00
outer loop
vertex -2.2204460E-16 5.0000001E-02 2.9999999E-02
vertex -2.2204460E-16 1.8738122E-01 8.1096124E-03
vertex -2.2204460E-16 1.8866369E-01 9.8229116E-03
endloop
endfacet
facet normal 9.9999994E-01 0.0000000E+00 -0.0000000E+00
outer loop
vertex -2.2204460E-16 1.8866369E-01 9.8229116E-03
vertex -2.2204460E-16 1.9017713E-01 1.1336244E-02
vertex -2.2204460E-16 5.0000001E-02 2.9999999E-02
endloop
endfacet
facet normal 1.0000000E+00 0.0000000E+00 0.0000000E+00
outer loop
vertex -2.2204460E-16 5.0000001E-02 2.9999999E-02
vertex -2.2204460E-16 1.9017713E-01 1.1336244E-02
vertex -2.2204460E-16 1.9189037E-01 1.2618803E-02
endloop
endfacet
facet normal 1.0000000E+00 0.0000000E+00 0.0000000E+00
outer loop
vertex -2.2204460E-16 1.9577405E-01 1.4392394E-02
vertex -2.2204460E-16 1.9786523E-01 1.4847321E-02
vertex -2.2204460E-16 2.0000000E-01 2.9999999E-02
endloop
endfacet
facet normal 1.0000000E+00 0.0000000E+00 0.0000000E+00
outer loop
vertex -2.2204460E-16 1.9786523E-01 -1.4847321E-02
vertex -2.2204460E-16 1.9577405E-01 -1.4392394E-02
vertex -2.2204460E-16 2.0000000E-01 -2.9999999E-02
endloop
endfacet
facet normal 1.0000000E+00 0.0000000E+00 0.0000000E+00
outer loop
vertex -2.2204460E-16 2.0000000E-01 -2.9999999E-02
vertex -2.2204460E-16 1.9577405E-01 -1.4392394E-02
vertex -2.2204460E-16 1.9376880E-01 -1.3644480E-02
endloop
endfacet
facet normal 1.0000000E+00 0.0000000E+00 0.0000000E+00
outer loop
vertex -2.2204460E-16 2.0000000E-01 -2.9999999E-02
vertex -2.2204460E-16 1.9376880E-01 -1.3644480E-02
vertex -2.2204460E-16 1.9189037E-01 -1.2618803E-02
endloop
endfacet
facet normal 1.0000000E+00 0.0000000E+00 0.0000000E+00
outer loop
vertex -2.2204460E-16 1.8866369E-01 -9.8229116E-03
vertex -2.2204460E-16 1.8738122E-01 -8.1096124E-03
vertex -2.2204460E-16 5.0000001E-02 -2.9999999E-02
endloop
endfacet
facet normal 1.0000000E+00 0.0000000E+00 0.0000000E+00
outer loop
vertex -2.2204460E-16 5.0000001E-02 -2.9999999E-02
vertex -2.2204460E-16 1.8738122E-01 -8.1096124E-03
vertex -2.2204460E-16 1.8635547E-01 -6.2312251E-03
endloop
endfacet
facet normal 1.0000000E+00 0.0000000E+00 0.0000000E+00
outer loop
vertex -2.2204460E-16 5.0000001E-02 -2.9999999E-02
vertex -2.2204460E-16 1.8635547E-01 -6.2312251E-03
vertex -2.2204460E-16 1.8560767E-01 -4.2259884E-03
endloop
endfacet
facet normal 1.0000000E+00 0.0000000E+00 0.0000000E+00
outer loop
vertex -2.2204460E-16 1.8560767E-01 -4.2259884E-03
vertex -2.2204460E-16 1.8515271E-01 -2.1347224E-03
vertex -2.2204460E-16 5.0000001E-02 -2.9999999E-02
endloop
endfacet
facet normal 1.0000000E+00 0.0000000E+00 0.0000000E+00
outer loop
vertex -2.2204460E-16 5.0000001E-02 -2.9999999E-02
vertex -2.2204460E-16 1.8515271E-01 -2.1347224E-03
vertex -2.2204460E-16 1.8500000E-01 6.1250911E-17
endloop
endfacet
endsolid Created by stlwrite.m 10-Sep-2021 22:33:54
