solid Created by stlwrite.m 03-Sep-2021 16:23:09
facet normal 0.0000000E+00 9.9144447E-01 1.3052924E-01
outer loop
vertex -9.3150002E-01 -1.6448887E-01 -3.8822857E-03
vertex -9.6149999E-01 -1.6448887E-01 -3.8822857E-03
vertex -9.3150002E-01 -1.6499999E-01 -2.9789533E-17
endloop
endfacet
facet normal -7.9926153E-18 9.9144447E-01 1.3052924E-01
outer loop
vertex -9.3150002E-01 -1.6499999E-01 -2.9789533E-17
vertex -9.6149999E-01 -1.6448887E-01 -3.8822857E-03
vertex -9.6149999E-01 -1.6499999E-01 -3.1626503E-17
endloop
endfacet
facet normal 7.9926153E-18 9.9144447E-01 -1.3052924E-01
outer loop
vertex -9.3150002E-01 -1.6499999E-01 -2.9789533E-17
vertex -9.6149999E-01 -1.6499999E-01 -3.1626503E-17
vertex -9.3150002E-01 -1.6448887E-01 3.8822857E-03
endloop
endfacet
facet normal 0.0000000E+00 9.9144447E-01 -1.3052924E-01
outer loop
vertex -9.3150002E-01 -1.6448887E-01 3.8822857E-03
vertex -9.6149999E-01 -1.6499999E-01 -3.1626503E-17
vertex -9.6149999E-01 -1.6448887E-01 3.8822857E-03
endloop
endfacet
facet normal 0.0000000E+00 9.2388231E-01 -3.8267678E-01
outer loop
vertex -9.3150002E-01 -1.6448887E-01 3.8822857E-03
vertex -9.6149999E-01 -1.6448887E-01 3.8822857E-03
vertex -9.3150002E-01 -1.6299039E-01 7.4999998E-03
endloop
endfacet
facet normal 0.0000000E+00 9.2388231E-01 -3.8267678E-01
outer loop
vertex -9.3150002E-01 -1.6299039E-01 7.4999998E-03
vertex -9.6149999E-01 -1.6448887E-01 3.8822857E-03
vertex -9.6149999E-01 -1.6299039E-01 7.4999998E-03
endloop
endfacet
facet normal 0.0000000E+00 7.9335284E-01 -6.0876203E-01
outer loop
vertex -9.3150002E-01 -1.6299039E-01 7.4999998E-03
vertex -9.6149999E-01 -1.6299039E-01 7.4999998E-03
vertex -9.3150002E-01 -1.6060661E-01 1.0606602E-02
endloop
endfacet
facet normal 0.0000000E+00 7.9335284E-01 -6.0876203E-01
outer loop
vertex -9.3150002E-01 -1.6060661E-01 1.0606602E-02
vertex -9.6149999E-01 -1.6299039E-01 7.4999998E-03
vertex -9.6149999E-01 -1.6060661E-01 1.0606602E-02
endloop
endfacet
facet normal 0.0000000E+00 6.0876244E-01 -7.9335260E-01
outer loop
vertex -9.3150002E-01 -1.6060661E-01 1.0606602E-02
vertex -9.6149999E-01 -1.6060661E-01 1.0606602E-02
vertex -9.3150002E-01 -1.5750001E-01 1.2990382E-02
endloop
endfacet
facet normal 0.0000000E+00 6.0876244E-01 -7.9335260E-01
outer loop
vertex -9.3150002E-01 -1.5750001E-01 1.2990382E-02
vertex -9.6149999E-01 -1.6060661E-01 1.0606602E-02
vertex -9.6149999E-01 -1.5750001E-01 1.2990382E-02
endloop
endfacet
facet normal 0.0000000E+00 3.8268036E-01 -9.2388082E-01
outer loop
vertex -9.3150002E-01 -1.5750001E-01 1.2990382E-02
vertex -9.6149999E-01 -1.5750001E-01 1.2990382E-02
vertex -9.3150002E-01 -1.5388227E-01 1.4488888E-02
endloop
endfacet
facet normal 0.0000000E+00 3.8268036E-01 -9.2388082E-01
outer loop
vertex -9.3150002E-01 -1.5388227E-01 1.4488888E-02
vertex -9.6149999E-01 -1.5750001E-01 1.2990382E-02
vertex -9.6149999E-01 -1.5388227E-01 1.4488888E-02
endloop
endfacet
facet normal 0.0000000E+00 1.3052684E-01 -9.9144477E-01
outer loop
vertex -9.3150002E-01 -1.5388227E-01 1.4488888E-02
vertex -9.6149999E-01 -1.5388227E-01 1.4488888E-02
vertex -9.3150002E-01 -1.5000001E-01 1.5000000E-02
endloop
endfacet
facet normal 0.0000000E+00 1.3052684E-01 -9.9144477E-01
outer loop
vertex -9.3150002E-01 -1.5000001E-01 1.5000000E-02
vertex -9.6149999E-01 -1.5388227E-01 1.4488888E-02
vertex -9.6149999E-01 -1.5000001E-01 1.5000000E-02
endloop
endfacet
facet normal -0.0000000E+00 -1.3052487E-01 -9.9144506E-01
outer loop
vertex -9.3150002E-01 -1.5000001E-01 1.5000000E-02
vertex -9.6149999E-01 -1.5000001E-01 1.5000000E-02
vertex -9.3150002E-01 -1.4611769E-01 1.4488888E-02
endloop
endfacet
facet normal -0.0000000E+00 -1.3052487E-01 -9.9144506E-01
outer loop
vertex -9.3150002E-01 -1.4611769E-01 1.4488888E-02
vertex -9.6149999E-01 -1.5000001E-01 1.5000000E-02
vertex -9.6149999E-01 -1.4611769E-01 1.4488888E-02
endloop
endfacet
facet normal -0.0000000E+00 -3.8268438E-01 -9.2387915E-01
outer loop
vertex -9.3150002E-01 -1.4611769E-01 1.4488888E-02
vertex -9.6149999E-01 -1.4611769E-01 1.4488888E-02
vertex -9.3150002E-01 -1.4249998E-01 1.2990382E-02
endloop
endfacet
facet normal -0.0000000E+00 -3.8268438E-01 -9.2387915E-01
outer loop
vertex -9.3150002E-01 -1.4249998E-01 1.2990382E-02
vertex -9.6149999E-01 -1.4611769E-01 1.4488888E-02
vertex -9.6149999E-01 -1.4249998E-01 1.2990382E-02
endloop
endfacet
facet normal -0.0000000E+00 -6.0876429E-01 -7.9335123E-01
outer loop
vertex -9.3150002E-01 -1.4249998E-01 1.2990382E-02
vertex -9.6149999E-01 -1.4249998E-01 1.2990382E-02
vertex -9.3150002E-01 -1.3939340E-01 1.0606602E-02
endloop
endfacet
facet normal -0.0000000E+00 -6.0876429E-01 -7.9335123E-01
outer loop
vertex -9.3150002E-01 -1.3939340E-01 1.0606602E-02
vertex -9.6149999E-01 -1.4249998E-01 1.2990382E-02
vertex -9.6149999E-01 -1.3939340E-01 1.0606602E-02
endloop
endfacet
facet normal -0.0000000E+00 -7.9335105E-01 -6.0876441E-01
outer loop
vertex -9.3150002E-01 -1.3939340E-01 1.0606602E-02
vertex -9.6149999E-01 -1.3939340E-01 1.0606602E-02
vertex -9.3150002E-01 -1.3700961E-01 7.4999998E-03
endloop
endfacet
facet normal -0.0000000E+00 -7.9335105E-01 -6.0876441E-01
outer loop
vertex -9.3150002E-01 -1.3700961E-01 7.4999998E-03
vertex -9.6149999E-01 -1.3939340E-01 1.0606602E-02
vertex -9.6149999E-01 -1.3700961E-01 7.4999998E-03
endloop
endfacet
facet normal -0.0000000E+00 -9.2387962E-01 -3.8268328E-01
outer loop
vertex -9.3150002E-01 -1.3700961E-01 7.4999998E-03
vertex -9.6149999E-01 -1.3700961E-01 7.4999998E-03
vertex -9.3150002E-01 -1.3551110E-01 3.8822857E-03
endloop
endfacet
facet normal -0.0000000E+00 -9.2387962E-01 -3.8268328E-01
outer loop
vertex -9.3150002E-01 -1.3551110E-01 3.8822857E-03
vertex -9.6149999E-01 -1.3700961E-01 7.4999998E-03
vertex -9.6149999E-01 -1.3551110E-01 3.8822857E-03
endloop
endfacet
facet normal -0.0000000E+00 -9.9144596E-01 -1.3051800E-01
outer loop
vertex -9.3150002E-01 -1.3551110E-01 3.8822857E-03
vertex -9.6149999E-01 -1.3551110E-01 3.8822857E-03
vertex -9.3150002E-01 -1.3500002E-01 -2.7952564E-17
endloop
endfacet
facet normal 7.9919287E-18 -9.9144596E-01 -1.3051800E-01
outer loop
vertex -9.3150002E-01 -1.3500002E-01 -2.7952564E-17
vertex -9.6149999E-01 -1.3551110E-01 3.8822857E-03
vertex -9.6149999E-01 -1.3500002E-01 -2.9789533E-17
endloop
endfacet
facet normal -7.9919287E-18 -9.9144596E-01 1.3051800E-01
outer loop
vertex -9.3150002E-01 -1.3500002E-01 -2.7952564E-17
vertex -9.6149999E-01 -1.3500002E-01 -2.9789533E-17
vertex -9.3150002E-01 -1.3551110E-01 -3.8822857E-03
endloop
endfacet
facet normal 0.0000000E+00 -9.9144596E-01 1.3051800E-01
outer loop
vertex -9.3150002E-01 -1.3551110E-01 -3.8822857E-03
vertex -9.6149999E-01 -1.3500002E-01 -2.9789533E-17
vertex -9.6149999E-01 -1.3551110E-01 -3.8822857E-03
endloop
endfacet
facet normal 0.0000000E+00 -9.2387962E-01 3.8268328E-01
outer loop
vertex -9.3150002E-01 -1.3551110E-01 -3.8822857E-03
vertex -9.6149999E-01 -1.3551110E-01 -3.8822857E-03
vertex -9.3150002E-01 -1.3700961E-01 -7.4999998E-03
endloop
endfacet
facet normal 0.0000000E+00 -9.2387962E-01 3.8268328E-01
outer loop
vertex -9.3150002E-01 -1.3700961E-01 -7.4999998E-03
vertex -9.6149999E-01 -1.3551110E-01 -3.8822857E-03
vertex -9.6149999E-01 -1.3700961E-01 -7.4999998E-03
endloop
endfacet
facet normal 0.0000000E+00 -7.9335105E-01 6.0876441E-01
outer loop
vertex -9.3150002E-01 -1.3700961E-01 -7.4999998E-03
vertex -9.6149999E-01 -1.3700961E-01 -7.4999998E-03
vertex -9.3150002E-01 -1.3939340E-01 -1.0606602E-02
endloop
endfacet
facet normal 0.0000000E+00 -7.9335105E-01 6.0876441E-01
outer loop
vertex -9.3150002E-01 -1.3939340E-01 -1.0606602E-02
vertex -9.6149999E-01 -1.3700961E-01 -7.4999998E-03
vertex -9.6149999E-01 -1.3939340E-01 -1.0606602E-02
endloop
endfacet
facet normal 0.0000000E+00 -6.0876429E-01 7.9335123E-01
outer loop
vertex -9.3150002E-01 -1.3939340E-01 -1.0606602E-02
vertex -9.6149999E-01 -1.3939340E-01 -1.0606602E-02
vertex -9.3150002E-01 -1.4249998E-01 -1.2990382E-02
endloop
endfacet
facet normal 0.0000000E+00 -6.0876429E-01 7.9335123E-01
outer loop
vertex -9.3150002E-01 -1.4249998E-01 -1.2990382E-02
vertex -9.6149999E-01 -1.3939340E-01 -1.0606602E-02
vertex -9.6149999E-01 -1.4249998E-01 -1.2990382E-02
endloop
endfacet
facet normal 0.0000000E+00 -3.8268438E-01 9.2387915E-01
outer loop
vertex -9.3150002E-01 -1.4249998E-01 -1.2990382E-02
vertex -9.6149999E-01 -1.4249998E-01 -1.2990382E-02
vertex -9.3150002E-01 -1.4611769E-01 -1.4488888E-02
endloop
endfacet
facet normal 0.0000000E+00 -3.8268438E-01 9.2387915E-01
outer loop
vertex -9.3150002E-01 -1.4611769E-01 -1.4488888E-02
vertex -9.6149999E-01 -1.4249998E-01 -1.2990382E-02
vertex -9.6149999E-01 -1.4611769E-01 -1.4488888E-02
endloop
endfacet
facet normal 0.0000000E+00 -1.3052487E-01 9.9144506E-01
outer loop
vertex -9.3150002E-01 -1.4611769E-01 -1.4488888E-02
vertex -9.6149999E-01 -1.4611769E-01 -1.4488888E-02
vertex -9.3150002E-01 -1.5000001E-01 -1.5000000E-02
endloop
endfacet
facet normal 0.0000000E+00 -1.3052487E-01 9.9144506E-01
outer loop
vertex -9.3150002E-01 -1.5000001E-01 -1.5000000E-02
vertex -9.6149999E-01 -1.4611769E-01 -1.4488888E-02
vertex -9.6149999E-01 -1.5000001E-01 -1.5000000E-02
endloop
endfacet
facet normal 0.0000000E+00 1.3052684E-01 9.9144477E-01
outer loop
vertex -9.3150002E-01 -1.5000001E-01 -1.5000000E-02
vertex -9.6149999E-01 -1.5000001E-01 -1.5000000E-02
vertex -9.3150002E-01 -1.5388227E-01 -1.4488888E-02
endloop
endfacet
facet normal 0.0000000E+00 1.3052684E-01 9.9144477E-01
outer loop
vertex -9.3150002E-01 -1.5388227E-01 -1.4488888E-02
vertex -9.6149999E-01 -1.5000001E-01 -1.5000000E-02
vertex -9.6149999E-01 -1.5388227E-01 -1.4488888E-02
endloop
endfacet
facet normal 0.0000000E+00 3.8268036E-01 9.2388082E-01
outer loop
vertex -9.3150002E-01 -1.5388227E-01 -1.4488888E-02
vertex -9.6149999E-01 -1.5388227E-01 -1.4488888E-02
vertex -9.3150002E-01 -1.5750001E-01 -1.2990382E-02
endloop
endfacet
facet normal 0.0000000E+00 3.8268036E-01 9.2388082E-01
outer loop
vertex -9.3150002E-01 -1.5750001E-01 -1.2990382E-02
vertex -9.6149999E-01 -1.5388227E-01 -1.4488888E-02
vertex -9.6149999E-01 -1.5750001E-01 -1.2990382E-02
endloop
endfacet
facet normal 0.0000000E+00 6.0876244E-01 7.9335260E-01
outer loop
vertex -9.3150002E-01 -1.5750001E-01 -1.2990382E-02
vertex -9.6149999E-01 -1.5750001E-01 -1.2990382E-02
vertex -9.3150002E-01 -1.6060661E-01 -1.0606602E-02
endloop
endfacet
facet normal 0.0000000E+00 6.0876244E-01 7.9335260E-01
outer loop
vertex -9.3150002E-01 -1.6060661E-01 -1.0606602E-02
vertex -9.6149999E-01 -1.5750001E-01 -1.2990382E-02
vertex -9.6149999E-01 -1.6060661E-01 -1.0606602E-02
endloop
endfacet
facet normal 0.0000000E+00 7.9335284E-01 6.0876203E-01
outer loop
vertex -9.3150002E-01 -1.6060661E-01 -1.0606602E-02
vertex -9.6149999E-01 -1.6060661E-01 -1.0606602E-02
vertex -9.3150002E-01 -1.6299039E-01 -7.4999998E-03
endloop
endfacet
facet normal 0.0000000E+00 7.9335284E-01 6.0876203E-01
outer loop
vertex -9.3150002E-01 -1.6299039E-01 -7.4999998E-03
vertex -9.6149999E-01 -1.6060661E-01 -1.0606602E-02
vertex -9.6149999E-01 -1.6299039E-01 -7.4999998E-03
endloop
endfacet
facet normal 0.0000000E+00 9.2388231E-01 3.8267678E-01
outer loop
vertex -9.3150002E-01 -1.6299039E-01 -7.4999998E-03
vertex -9.6149999E-01 -1.6299039E-01 -7.4999998E-03
vertex -9.3150002E-01 -1.6448887E-01 -3.8822857E-03
endloop
endfacet
facet normal 0.0000000E+00 9.2388231E-01 3.8267678E-01
outer loop
vertex -9.3150002E-01 -1.6448887E-01 -3.8822857E-03
vertex -9.6149999E-01 -1.6299039E-01 -7.4999998E-03
vertex -9.6149999E-01 -1.6448887E-01 -3.8822857E-03
endloop
endfacet
facet normal 0.0000000E+00 9.9144697E-01 1.3051054E-01
outer loop
vertex -9.3150002E-01 1.3355111E+00 -3.8822857E-03
vertex -9.6149999E-01 1.3355111E+00 -3.8822857E-03
vertex -9.3150002E-01 1.3350000E+00 -2.9789533E-17
endloop
endfacet
facet normal -7.9914713E-18 9.9144697E-01 1.3051054E-01
outer loop
vertex -9.3150002E-01 1.3350000E+00 -2.9789533E-17
vertex -9.6149999E-01 1.3355111E+00 -3.8822857E-03
vertex -9.6149999E-01 1.3350000E+00 -3.1626503E-17
endloop
endfacet
facet normal 7.9914713E-18 9.9144697E-01 -1.3051054E-01
outer loop
vertex -9.3150002E-01 1.3350000E+00 -2.9789533E-17
vertex -9.6149999E-01 1.3350000E+00 -3.1626503E-17
vertex -9.3150002E-01 1.3355111E+00 3.8822857E-03
endloop
endfacet
facet normal 0.0000000E+00 9.9144697E-01 -1.3051054E-01
outer loop
vertex -9.3150002E-01 1.3355111E+00 3.8822857E-03
vertex -9.6149999E-01 1.3350000E+00 -3.1626503E-17
vertex -9.6149999E-01 1.3355111E+00 3.8822857E-03
endloop
endfacet
facet normal 0.0000000E+00 9.2387289E-01 -3.8269949E-01
outer loop
vertex -9.3150002E-01 1.3355111E+00 3.8822857E-03
vertex -9.6149999E-01 1.3355111E+00 3.8822857E-03
vertex -9.3150002E-01 1.3370097E+00 7.4999998E-03
endloop
endfacet
facet normal 0.0000000E+00 9.2387289E-01 -3.8269949E-01
outer loop
vertex -9.3150002E-01 1.3370097E+00 7.4999998E-03
vertex -9.6149999E-01 1.3355111E+00 3.8822857E-03
vertex -9.6149999E-01 1.3370097E+00 7.4999998E-03
endloop
endfacet
facet normal 0.0000000E+00 7.9336202E-01 -6.0875010E-01
outer loop
vertex -9.3150002E-01 1.3370097E+00 7.4999998E-03
vertex -9.6149999E-01 1.3370097E+00 7.4999998E-03
vertex -9.3150002E-01 1.3393934E+00 1.0606602E-02
endloop
endfacet
facet normal 0.0000000E+00 7.9336202E-01 -6.0875010E-01
outer loop
vertex -9.3150002E-01 1.3393934E+00 1.0606602E-02
vertex -9.6149999E-01 1.3370097E+00 7.4999998E-03
vertex -9.6149999E-01 1.3393934E+00 1.0606602E-02
endloop
endfacet
facet normal 0.0000000E+00 6.0876244E-01 -7.9335260E-01
outer loop
vertex -9.3150002E-01 1.3393934E+00 1.0606602E-02
vertex -9.6149999E-01 1.3393934E+00 1.0606602E-02
vertex -9.3150002E-01 1.3425000E+00 1.2990382E-02
endloop
endfacet
facet normal 0.0000000E+00 6.0876244E-01 -7.9335260E-01
outer loop
vertex -9.3150002E-01 1.3425000E+00 1.2990382E-02
vertex -9.6149999E-01 1.3393934E+00 1.0606602E-02
vertex -9.6149999E-01 1.3425000E+00 1.2990382E-02
endloop
endfacet
facet normal 0.0000000E+00 3.8267899E-01 -9.2388135E-01
outer loop
vertex -9.3150002E-01 1.3425000E+00 1.2990382E-02
vertex -9.6149999E-01 1.3425000E+00 1.2990382E-02
vertex -9.3150002E-01 1.3461177E+00 1.4488888E-02
endloop
endfacet
facet normal 0.0000000E+00 3.8267899E-01 -9.2388135E-01
outer loop
vertex -9.3150002E-01 1.3461177E+00 1.4488888E-02
vertex -9.6149999E-01 1.3425000E+00 1.2990382E-02
vertex -9.6149999E-01 1.3461177E+00 1.4488888E-02
endloop
endfacet
facet normal 0.0000000E+00 1.3052586E-01 -9.9144489E-01
outer loop
vertex -9.3150002E-01 1.3461177E+00 1.4488888E-02
vertex -9.6149999E-01 1.3461177E+00 1.4488888E-02
vertex -9.3150002E-01 1.3500000E+00 1.5000000E-02
endloop
endfacet
facet normal 0.0000000E+00 1.3052586E-01 -9.9144489E-01
outer loop
vertex -9.3150002E-01 1.3500000E+00 1.5000000E-02
vertex -9.6149999E-01 1.3461177E+00 1.4488888E-02
vertex -9.6149999E-01 1.3500000E+00 1.5000000E-02
endloop
endfacet
facet normal -0.0000000E+00 -1.3052586E-01 -9.9144489E-01
outer loop
vertex -9.3150002E-01 1.3500000E+00 1.5000000E-02
vertex -9.6149999E-01 1.3500000E+00 1.5000000E-02
vertex -9.3150002E-01 1.3538823E+00 1.4488888E-02
endloop
endfacet
facet normal -0.0000000E+00 -1.3052586E-01 -9.9144489E-01
outer loop
vertex -9.3150002E-01 1.3538823E+00 1.4488888E-02
vertex -9.6149999E-01 1.3500000E+00 1.5000000E-02
vertex -9.6149999E-01 1.3538823E+00 1.4488888E-02
endloop
endfacet
facet normal -0.0000000E+00 -3.8268974E-01 -9.2387688E-01
outer loop
vertex -9.3150002E-01 1.3538823E+00 1.4488888E-02
vertex -9.6149999E-01 1.3538823E+00 1.4488888E-02
vertex -9.3150002E-01 1.3575000E+00 1.2990382E-02
endloop
endfacet
facet normal -0.0000000E+00 -3.8268974E-01 -9.2387688E-01
outer loop
vertex -9.3150002E-01 1.3575000E+00 1.2990382E-02
vertex -9.6149999E-01 1.3538823E+00 1.4488888E-02
vertex -9.6149999E-01 1.3575000E+00 1.2990382E-02
endloop
endfacet
facet normal -0.0000000E+00 -6.0876244E-01 -7.9335260E-01
outer loop
vertex -9.3150002E-01 1.3575000E+00 1.2990382E-02
vertex -9.6149999E-01 1.3575000E+00 1.2990382E-02
vertex -9.3150002E-01 1.3606066E+00 1.0606602E-02
endloop
endfacet
facet normal -0.0000000E+00 -6.0876244E-01 -7.9335260E-01
outer loop
vertex -9.3150002E-01 1.3606066E+00 1.0606602E-02
vertex -9.6149999E-01 1.3575000E+00 1.2990382E-02
vertex -9.6149999E-01 1.3606066E+00 1.0606602E-02
endloop
endfacet
facet normal -0.0000000E+00 -7.9334742E-01 -6.0876924E-01
outer loop
vertex -9.3150002E-01 1.3606066E+00 1.0606602E-02
vertex -9.6149999E-01 1.3606066E+00 1.0606602E-02
vertex -9.3150002E-01 1.3629904E+00 7.4999998E-03
endloop
endfacet
facet normal -0.0000000E+00 -7.9334742E-01 -6.0876924E-01
outer loop
vertex -9.3150002E-01 1.3629904E+00 7.4999998E-03
vertex -9.6149999E-01 1.3606066E+00 1.0606602E-02
vertex -9.6149999E-01 1.3629904E+00 7.4999998E-03
endloop
endfacet
facet normal -0.0000000E+00 -9.2388368E-01 -3.8267353E-01
outer loop
vertex -9.3150002E-01 1.3629904E+00 7.4999998E-03
vertex -9.6149999E-01 1.3629904E+00 7.4999998E-03
vertex -9.3150002E-01 1.3644888E+00 3.8822857E-03
endloop
endfacet
facet normal -0.0000000E+00 -9.2388368E-01 -3.8267353E-01
outer loop
vertex -9.3150002E-01 1.3644888E+00 3.8822857E-03
vertex -9.6149999E-01 1.3629904E+00 7.4999998E-03
vertex -9.6149999E-01 1.3644888E+00 3.8822857E-03
endloop
endfacet
facet normal -0.0000000E+00 -9.9144298E-01 -1.3054046E-01
outer loop
vertex -9.3150002E-01 1.3644888E+00 3.8822857E-03
vertex -9.6149999E-01 1.3644888E+00 3.8822857E-03
vertex -9.3150002E-01 1.3650000E+00 -2.7952564E-17
endloop
endfacet
facet normal 7.9933027E-18 -9.9144298E-01 -1.3054046E-01
outer loop
vertex -9.3150002E-01 1.3650000E+00 -2.7952564E-17
vertex -9.6149999E-01 1.3644888E+00 3.8822857E-03
vertex -9.6149999E-01 1.3650000E+00 -2.9789533E-17
endloop
endfacet
facet normal -7.9933027E-18 -9.9144298E-01 1.3054046E-01
outer loop
vertex -9.3150002E-01 1.3650000E+00 -2.7952564E-17
vertex -9.6149999E-01 1.3650000E+00 -2.9789533E-17
vertex -9.3150002E-01 1.3644888E+00 -3.8822857E-03
endloop
endfacet
facet normal 0.0000000E+00 -9.9144298E-01 1.3054046E-01
outer loop
vertex -9.3150002E-01 1.3644888E+00 -3.8822857E-03
vertex -9.6149999E-01 1.3650000E+00 -2.9789533E-17
vertex -9.6149999E-01 1.3644888E+00 -3.8822857E-03
endloop
endfacet
facet normal 0.0000000E+00 -9.2388368E-01 3.8267353E-01
outer loop
vertex -9.3150002E-01 1.3644888E+00 -3.8822857E-03
vertex -9.6149999E-01 1.3644888E+00 -3.8822857E-03
vertex -9.3150002E-01 1.3629904E+00 -7.4999998E-03
endloop
endfacet
facet normal 0.0000000E+00 -9.2388368E-01 3.8267353E-01
outer loop
vertex -9.3150002E-01 1.3629904E+00 -7.4999998E-03
vertex -9.6149999E-01 1.3644888E+00 -3.8822857E-03
vertex -9.6149999E-01 1.3629904E+00 -7.4999998E-03
endloop
endfacet
facet normal 0.0000000E+00 -7.9334742E-01 6.0876924E-01
outer loop
vertex -9.3150002E-01 1.3629904E+00 -7.4999998E-03
vertex -9.6149999E-01 1.3629904E+00 -7.4999998E-03
vertex -9.3150002E-01 1.3606066E+00 -1.0606602E-02
endloop
endfacet
facet normal 0.0000000E+00 -7.9334742E-01 6.0876924E-01
outer loop
vertex -9.3150002E-01 1.3606066E+00 -1.0606602E-02
vertex -9.6149999E-01 1.3629904E+00 -7.4999998E-03
vertex -9.6149999E-01 1.3606066E+00 -1.0606602E-02
endloop
endfacet
facet normal 0.0000000E+00 -6.0876244E-01 7.9335260E-01
outer loop
vertex -9.3150002E-01 1.3606066E+00 -1.0606602E-02
vertex -9.6149999E-01 1.3606066E+00 -1.0606602E-02
vertex -9.3150002E-01 1.3575000E+00 -1.2990382E-02
endloop
endfacet
facet normal 0.0000000E+00 -6.0876244E-01 7.9335260E-01
outer loop
vertex -9.3150002E-01 1.3575000E+00 -1.2990382E-02
vertex -9.6149999E-01 1.3606066E+00 -1.0606602E-02
vertex -9.6149999E-01 1.3575000E+00 -1.2990382E-02
endloop
endfacet
facet normal 0.0000000E+00 -3.8268974E-01 9.2387688E-01
outer loop
vertex -9.3150002E-01 1.3575000E+00 -1.2990382E-02
vertex -9.6149999E-01 1.3575000E+00 -1.2990382E-02
vertex -9.3150002E-01 1.3538823E+00 -1.4488888E-02
endloop
endfacet
facet normal 0.0000000E+00 -3.8268974E-01 9.2387688E-01
outer loop
vertex -9.3150002E-01 1.3538823E+00 -1.4488888E-02
vertex -9.6149999E-01 1.3575000E+00 -1.2990382E-02
vertex -9.6149999E-01 1.3538823E+00 -1.4488888E-02
endloop
endfacet
facet normal 0.0000000E+00 -1.3052586E-01 9.9144489E-01
outer loop
vertex -9.3150002E-01 1.3538823E+00 -1.4488888E-02
vertex -9.6149999E-01 1.3538823E+00 -1.4488888E-02
vertex -9.3150002E-01 1.3500000E+00 -1.5000000E-02
endloop
endfacet
facet normal 0.0000000E+00 -1.3052586E-01 9.9144489E-01
outer loop
vertex -9.3150002E-01 1.3500000E+00 -1.5000000E-02
vertex -9.6149999E-01 1.3538823E+00 -1.4488888E-02
vertex -9.6149999E-01 1.3500000E+00 -1.5000000E-02
endloop
endfacet
facet normal 0.0000000E+00 1.3052586E-01 9.9144489E-01
outer loop
vertex -9.3150002E-01 1.3500000E+00 -1.5000000E-02
vertex -9.6149999E-01 1.3500000E+00 -1.5000000E-02
vertex -9.3150002E-01 1.3461177E+00 -1.4488888E-02
endloop
endfacet
facet normal 0.0000000E+00 1.3052586E-01 9.9144489E-01
outer loop
vertex -9.3150002E-01 1.3461177E+00 -1.4488888E-02
vertex -9.6149999E-01 1.3500000E+00 -1.5000000E-02
vertex -9.6149999E-01 1.3461177E+00 -1.4488888E-02
endloop
endfacet
facet normal 0.0000000E+00 3.8267899E-01 9.2388135E-01
outer loop
vertex -9.3150002E-01 1.3461177E+00 -1.4488888E-02
vertex -9.6149999E-01 1.3461177E+00 -1.4488888E-02
vertex -9.3150002E-01 1.3425000E+00 -1.2990382E-02
endloop
endfacet
facet normal 0.0000000E+00 3.8267899E-01 9.2388135E-01
outer loop
vertex -9.3150002E-01 1.3425000E+00 -1.2990382E-02
vertex -9.6149999E-01 1.3461177E+00 -1.4488888E-02
vertex -9.6149999E-01 1.3425000E+00 -1.2990382E-02
endloop
endfacet
facet normal 0.0000000E+00 6.0876244E-01 7.9335260E-01
outer loop
vertex -9.3150002E-01 1.3425000E+00 -1.2990382E-02
vertex -9.6149999E-01 1.3425000E+00 -1.2990382E-02
vertex -9.3150002E-01 1.3393934E+00 -1.0606602E-02
endloop
endfacet
facet normal 0.0000000E+00 6.0876244E-01 7.9335260E-01
outer loop
vertex -9.3150002E-01 1.3393934E+00 -1.0606602E-02
vertex -9.6149999E-01 1.3425000E+00 -1.2990382E-02
vertex -9.6149999E-01 1.3393934E+00 -1.0606602E-02
endloop
endfacet
facet normal 0.0000000E+00 7.9336202E-01 6.0875010E-01
outer loop
vertex -9.3150002E-01 1.3393934E+00 -1.0606602E-02
vertex -9.6149999E-01 1.3393934E+00 -1.0606602E-02
vertex -9.3150002E-01 1.3370097E+00 -7.4999998E-03
endloop
endfacet
facet normal 0.0000000E+00 7.9336202E-01 6.0875010E-01
outer loop
vertex -9.3150002E-01 1.3370097E+00 -7.4999998E-03
vertex -9.6149999E-01 1.3393934E+00 -1.0606602E-02
vertex -9.6149999E-01 1.3370097E+00 -7.4999998E-03
endloop
endfacet
facet normal 0.0000000E+00 9.2387289E-01 3.8269949E-01
outer loop
vertex -9.3150002E-01 1.3370097E+00 -7.4999998E-03
vertex -9.6149999E-01 1.3370097E+00 -7.4999998E-03
vertex -9.3150002E-01 1.3355111E+00 -3.8822857E-03
endloop
endfacet
facet normal 0.0000000E+00 9.2387289E-01 3.8269949E-01
outer loop
vertex -9.3150002E-01 1.3355111E+00 -3.8822857E-03
vertex -9.6149999E-01 1.3370097E+00 -7.4999998E-03
vertex -9.6149999E-01 1.3355111E+00 -3.8822857E-03
endloop
endfacet
facet normal -0.0000000E+00 0.0000000E+00 1.0000000E+00
outer loop
vertex -9.6149999E-01 1.3500000E+00 2.9999999E-02
vertex -9.6149999E-01 -1.5000001E-01 2.9999999E-02
vertex -9.3150002E-01 1.3500000E+00 2.9999999E-02
endloop
endfacet
facet normal 0.0000000E+00 0.0000000E+00 1.0000000E+00
outer loop
vertex -9.3150002E-01 1.3500000E+00 2.9999999E-02
vertex -9.6149999E-01 -1.5000001E-01 2.9999999E-02
vertex -9.3150002E-01 -1.5000001E-01 2.9999999E-02
endloop
endfacet
facet normal 0.0000000E+00 1.2053823E-01 -9.9270868E-01
outer loop
vertex -9.3150002E-01 1.3500000E+00 -2.9999999E-02
vertex -9.6149999E-01 1.3500000E+00 -2.9999999E-02
vertex -9.3150002E-01 1.3571794E+00 -2.9128253E-02
endloop
endfacet
facet normal 0.0000000E+00 1.2053823E-01 -9.9270868E-01
outer loop
vertex -9.3150002E-01 1.3571794E+00 -2.9128253E-02
vertex -9.6149999E-01 1.3500000E+00 -2.9999999E-02
vertex -9.6149999E-01 1.3571794E+00 -2.9128253E-02
endloop
endfacet
facet normal 0.0000000E+00 3.5460278E-01 -9.3501705E-01
outer loop
vertex -9.3150002E-01 1.3571794E+00 -2.9128253E-02
vertex -9.6149999E-01 1.3571794E+00 -2.9128253E-02
vertex -9.3150002E-01 1.3639417E+00 -2.6563682E-02
endloop
endfacet
facet normal 0.0000000E+00 3.5460278E-01 -9.3501705E-01
outer loop
vertex -9.3150002E-01 1.3639417E+00 -2.6563682E-02
vertex -9.6149999E-01 1.3571794E+00 -2.9128253E-02
vertex -9.6149999E-01 1.3639417E+00 -2.6563682E-02
endloop
endfacet
facet normal 0.0000000E+00 5.6806386E-01 -8.2298452E-01
outer loop
vertex -9.3150002E-01 1.3639417E+00 -2.6563682E-02
vertex -9.6149999E-01 1.3639417E+00 -2.6563682E-02
vertex -9.3150002E-01 1.3698937E+00 -2.2455322E-02
endloop
endfacet
facet normal 0.0000000E+00 5.6806386E-01 -8.2298452E-01
outer loop
vertex -9.3150002E-01 1.3698937E+00 -2.2455322E-02
vertex -9.6149999E-01 1.3639417E+00 -2.6563682E-02
vertex -9.6149999E-01 1.3698937E+00 -2.2455322E-02
endloop
endfacet
facet normal 0.0000000E+00 7.4850571E-01 -6.6312826E-01
outer loop
vertex -9.3150002E-01 1.3698937E+00 -2.2455322E-02
vertex -9.6149999E-01 1.3698937E+00 -2.2455322E-02
vertex -9.3150002E-01 1.3746896E+00 -1.7041942E-02
endloop
endfacet
facet normal 0.0000000E+00 7.4850571E-01 -6.6312826E-01
outer loop
vertex -9.3150002E-01 1.3746896E+00 -1.7041942E-02
vertex -9.6149999E-01 1.3698937E+00 -2.2455322E-02
vertex -9.6149999E-01 1.3746896E+00 -1.7041942E-02
endloop
endfacet
facet normal 0.0000000E+00 8.8545519E-01 -4.6472487E-01
outer loop
vertex -9.3150002E-01 1.3746896E+00 -1.7041942E-02
vertex -9.6149999E-01 1.3746896E+00 -1.7041942E-02
vertex -9.3150002E-01 1.3780506E+00 -1.0638147E-02
endloop
endfacet
facet normal 0.0000000E+00 8.8545519E-01 -4.6472487E-01
outer loop
vertex -9.3150002E-01 1.3780506E+00 -1.0638147E-02
vertex -9.6149999E-01 1.3746896E+00 -1.7041942E-02
vertex -9.6149999E-01 1.3780506E+00 -1.0638147E-02
endloop
endfacet
facet normal 0.0000000E+00 9.7094494E-01 -2.3930281E-01
outer loop
vertex -9.3150002E-01 1.3780506E+00 -1.0638147E-02
vertex -9.6149999E-01 1.3780506E+00 -1.0638147E-02
vertex -9.3150002E-01 1.3797812E+00 -3.6161004E-03
endloop
endfacet
facet normal 0.0000000E+00 9.7094494E-01 -2.3930281E-01
outer loop
vertex -9.3150002E-01 1.3797812E+00 -3.6161004E-03
vertex -9.6149999E-01 1.3780506E+00 -1.0638147E-02
vertex -9.6149999E-01 1.3797812E+00 -3.6161004E-03
endloop
endfacet
facet normal 0.0000000E+00 1.0000000E+00 -0.0000000E+00
outer loop
vertex -9.3150002E-01 1.3797812E+00 -3.6161004E-03
vertex -9.6149999E-01 1.3797812E+00 -3.6161004E-03
vertex -9.3150002E-01 1.3797812E+00 3.6161004E-03
endloop
endfacet
facet normal 0.0000000E+00 1.0000000E+00 0.0000000E+00
outer loop
vertex -9.3150002E-01 1.3797812E+00 3.6161004E-03
vertex -9.6149999E-01 1.3797812E+00 -3.6161004E-03
vertex -9.6149999E-01 1.3797812E+00 3.6161004E-03
endloop
endfacet
facet normal 0.0000000E+00 9.7094494E-01 2.3930281E-01
outer loop
vertex -9.3150002E-01 1.3797812E+00 3.6161004E-03
vertex -9.6149999E-01 1.3797812E+00 3.6161004E-03
vertex -9.3150002E-01 1.3780506E+00 1.0638147E-02
endloop
endfacet
facet normal 0.0000000E+00 9.7094494E-01 2.3930281E-01
outer loop
vertex -9.3150002E-01 1.3780506E+00 1.0638147E-02
vertex -9.6149999E-01 1.3797812E+00 3.6161004E-03
vertex -9.6149999E-01 1.3780506E+00 1.0638147E-02
endloop
endfacet
facet normal 0.0000000E+00 8.8545519E-01 4.6472487E-01
outer loop
vertex -9.3150002E-01 1.3780506E+00 1.0638147E-02
vertex -9.6149999E-01 1.3780506E+00 1.0638147E-02
vertex -9.3150002E-01 1.3746896E+00 1.7041942E-02
endloop
endfacet
facet normal 0.0000000E+00 8.8545519E-01 4.6472487E-01
outer loop
vertex -9.3150002E-01 1.3746896E+00 1.7041942E-02
vertex -9.6149999E-01 1.3780506E+00 1.0638147E-02
vertex -9.6149999E-01 1.3746896E+00 1.7041942E-02
endloop
endfacet
facet normal 0.0000000E+00 7.4850571E-01 6.6312826E-01
outer loop
vertex -9.3150002E-01 1.3746896E+00 1.7041942E-02
vertex -9.6149999E-01 1.3746896E+00 1.7041942E-02
vertex -9.3150002E-01 1.3698937E+00 2.2455322E-02
endloop
endfacet
facet normal 0.0000000E+00 7.4850571E-01 6.6312826E-01
outer loop
vertex -9.3150002E-01 1.3698937E+00 2.2455322E-02
vertex -9.6149999E-01 1.3746896E+00 1.7041942E-02
vertex -9.6149999E-01 1.3698937E+00 2.2455322E-02
endloop
endfacet
facet normal 0.0000000E+00 5.6806386E-01 8.2298452E-01
outer loop
vertex -9.3150002E-01 1.3698937E+00 2.2455322E-02
vertex -9.6149999E-01 1.3698937E+00 2.2455322E-02
vertex -9.3150002E-01 1.3639417E+00 2.6563682E-02
endloop
endfacet
facet normal 0.0000000E+00 5.6806386E-01 8.2298452E-01
outer loop
vertex -9.3150002E-01 1.3639417E+00 2.6563682E-02
vertex -9.6149999E-01 1.3698937E+00 2.2455322E-02
vertex -9.6149999E-01 1.3639417E+00 2.6563682E-02
endloop
endfacet
facet normal 0.0000000E+00 3.5460278E-01 9.3501705E-01
outer loop
vertex -9.3150002E-01 1.3639417E+00 2.6563682E-02
vertex -9.6149999E-01 1.3639417E+00 2.6563682E-02
vertex -9.3150002E-01 1.3571794E+00 2.9128253E-02
endloop
endfacet
facet normal 0.0000000E+00 3.5460278E-01 9.3501705E-01
outer loop
vertex -9.3150002E-01 1.3571794E+00 2.9128253E-02
vertex -9.6149999E-01 1.3639417E+00 2.6563682E-02
vertex -9.6149999E-01 1.3571794E+00 2.9128253E-02
endloop
endfacet
facet normal 0.0000000E+00 1.2053823E-01 9.9270868E-01
outer loop
vertex -9.3150002E-01 1.3571794E+00 2.9128253E-02
vertex -9.6149999E-01 1.3571794E+00 2.9128253E-02
vertex -9.3150002E-01 1.3500000E+00 2.9999999E-02
endloop
endfacet
facet normal 0.0000000E+00 1.2053823E-01 9.9270868E-01
outer loop
vertex -9.3150002E-01 1.3500000E+00 2.9999999E-02
vertex -9.6149999E-01 1.3571794E+00 2.9128253E-02
vertex -9.6149999E-01 1.3500000E+00 2.9999999E-02
endloop
endfacet
facet normal 0.0000000E+00 0.0000000E+00 -1.0000000E+00
outer loop
vertex -9.6149999E-01 -1.5000001E-01 -2.9999999E-02
vertex -9.6149999E-01 1.3500000E+00 -2.9999999E-02
vertex -9.3150002E-01 -1.5000001E-01 -2.9999999E-02
endloop
endfacet
facet normal 0.0000000E+00 0.0000000E+00 -1.0000000E+00
outer loop
vertex -9.3150002E-01 -1.5000001E-01 -2.9999999E-02
vertex -9.6149999E-01 1.3500000E+00 -2.9999999E-02
vertex -9.3150002E-01 1.3500000E+00 -2.9999999E-02
endloop
endfacet
facet normal 0.0000000E+00 -1.2053699E-01 9.9270874E-01
outer loop
vertex -9.3150002E-01 -1.5000001E-01 2.9999999E-02
vertex -9.6149999E-01 -1.5000001E-01 2.9999999E-02
vertex -9.3150002E-01 -1.5717946E-01 2.9128253E-02
endloop
endfacet
facet normal 0.0000000E+00 -1.2053699E-01 9.9270874E-01
outer loop
vertex -9.3150002E-01 -1.5717946E-01 2.9128253E-02
vertex -9.6149999E-01 -1.5000001E-01 2.9999999E-02
vertex -9.6149999E-01 -1.5717946E-01 2.9128253E-02
endloop
endfacet
facet normal 0.0000000E+00 -3.5460481E-01 9.3501621E-01
outer loop
vertex -9.3150002E-01 -1.5717946E-01 2.9128253E-02
vertex -9.6149999E-01 -1.5717946E-01 2.9128253E-02
vertex -9.3150002E-01 -1.6394168E-01 2.6563682E-02
endloop
endfacet
facet normal 0.0000000E+00 -3.5460481E-01 9.3501621E-01
outer loop
vertex -9.3150002E-01 -1.6394168E-01 2.6563682E-02
vertex -9.6149999E-01 -1.5717946E-01 2.9128253E-02
vertex -9.6149999E-01 -1.6394168E-01 2.6563682E-02
endloop
endfacet
facet normal 0.0000000E+00 -5.6806386E-01 8.2298452E-01
outer loop
vertex -9.3150002E-01 -1.6394168E-01 2.6563682E-02
vertex -9.6149999E-01 -1.6394168E-01 2.6563682E-02
vertex -9.3150002E-01 -1.6989368E-01 2.2455322E-02
endloop
endfacet
facet normal 0.0000000E+00 -5.6806386E-01 8.2298452E-01
outer loop
vertex -9.3150002E-01 -1.6989368E-01 2.2455322E-02
vertex -9.6149999E-01 -1.6394168E-01 2.6563682E-02
vertex -9.6149999E-01 -1.6989368E-01 2.2455322E-02
endloop
endfacet
facet normal 0.0000000E+00 -7.4851078E-01 6.6312253E-01
outer loop
vertex -9.3150002E-01 -1.6989368E-01 2.2455322E-02
vertex -9.6149999E-01 -1.6989368E-01 2.2455322E-02
vertex -9.3150002E-01 -1.7468952E-01 1.7041942E-02
endloop
endfacet
facet normal 0.0000000E+00 -7.4851078E-01 6.6312253E-01
outer loop
vertex -9.3150002E-01 -1.7468952E-01 1.7041942E-02
vertex -9.6149999E-01 -1.6989368E-01 2.2455322E-02
vertex -9.6149999E-01 -1.7468952E-01 1.7041942E-02
endloop
endfacet
facet normal 0.0000000E+00 -8.8545674E-01 4.6472159E-01
outer loop
vertex -9.3150002E-01 -1.7468952E-01 1.7041942E-02
vertex -9.6149999E-01 -1.7468952E-01 1.7041942E-02
vertex -9.3150002E-01 -1.7805047E-01 1.0638147E-02
endloop
endfacet
facet normal 0.0000000E+00 -8.8545674E-01 4.6472159E-01
outer loop
vertex -9.3150002E-01 -1.7805047E-01 1.0638147E-02
vertex -9.6149999E-01 -1.7468952E-01 1.7041942E-02
vertex -9.6149999E-01 -1.7805047E-01 1.0638147E-02
endloop
endfacet
facet normal 0.0000000E+00 -9.7094208E-01 2.3931445E-01
outer loop
vertex -9.3150002E-01 -1.7805047E-01 1.0638147E-02
vertex -9.6149999E-01 -1.7805047E-01 1.0638147E-02
vertex -9.3150002E-01 -1.7978124E-01 3.6161004E-03
endloop
endfacet
facet normal 0.0000000E+00 -9.7094208E-01 2.3931445E-01
outer loop
vertex -9.3150002E-01 -1.7978124E-01 3.6161004E-03
vertex -9.6149999E-01 -1.7805047E-01 1.0638147E-02
vertex -9.6149999E-01 -1.7978124E-01 3.6161004E-03
endloop
endfacet
facet normal -0.0000000E+00 -1.0000000E+00 -0.0000000E+00
outer loop
vertex -9.3150002E-01 -1.7978124E-01 3.6161004E-03
vertex -9.6149999E-01 -1.7978124E-01 3.6161004E-03
vertex -9.3150002E-01 -1.7978124E-01 -3.6161004E-03
endloop
endfacet
facet normal 0.0000000E+00 -1.0000000E+00 0.0000000E+00
outer loop
vertex -9.3150002E-01 -1.7978124E-01 -3.6161004E-03
vertex -9.6149999E-01 -1.7978124E-01 3.6161004E-03
vertex -9.6149999E-01 -1.7978124E-01 -3.6161004E-03
endloop
endfacet
facet normal -0.0000000E+00 -9.7094208E-01 -2.3931445E-01
outer loop
vertex -9.3150002E-01 -1.7978124E-01 -3.6161004E-03
vertex -9.6149999E-01 -1.7978124E-01 -3.6161004E-03
vertex -9.3150002E-01 -1.7805047E-01 -1.0638147E-02
endloop
endfacet
facet normal -0.0000000E+00 -9.7094208E-01 -2.3931445E-01
outer loop
vertex -9.3150002E-01 -1.7805047E-01 -1.0638147E-02
vertex -9.6149999E-01 -1.7978124E-01 -3.6161004E-03
vertex -9.6149999E-01 -1.7805047E-01 -1.0638147E-02
endloop
endfacet
facet normal -0.0000000E+00 -8.8545674E-01 -4.6472159E-01
outer loop
vertex -9.3150002E-01 -1.7805047E-01 -1.0638147E-02
vertex -9.6149999E-01 -1.7805047E-01 -1.0638147E-02
vertex -9.3150002E-01 -1.7468952E-01 -1.7041942E-02
endloop
endfacet
facet normal -0.0000000E+00 -8.8545674E-01 -4.6472159E-01
outer loop
vertex -9.3150002E-01 -1.7468952E-01 -1.7041942E-02
vertex -9.6149999E-01 -1.7805047E-01 -1.0638147E-02
vertex -9.6149999E-01 -1.7468952E-01 -1.7041942E-02
endloop
endfacet
facet normal -0.0000000E+00 -7.4851078E-01 -6.6312253E-01
outer loop
vertex -9.3150002E-01 -1.7468952E-01 -1.7041942E-02
vertex -9.6149999E-01 -1.7468952E-01 -1.7041942E-02
vertex -9.3150002E-01 -1.6989368E-01 -2.2455322E-02
endloop
endfacet
facet normal -0.0000000E+00 -7.4851078E-01 -6.6312253E-01
outer loop
vertex -9.3150002E-01 -1.6989368E-01 -2.2455322E-02
vertex -9.6149999E-01 -1.7468952E-01 -1.7041942E-02
vertex -9.6149999E-01 -1.6989368E-01 -2.2455322E-02
endloop
endfacet
facet normal -0.0000000E+00 -5.6806386E-01 -8.2298452E-01
outer loop
vertex -9.3150002E-01 -1.6989368E-01 -2.2455322E-02
vertex -9.6149999E-01 -1.6989368E-01 -2.2455322E-02
vertex -9.3150002E-01 -1.6394168E-01 -2.6563682E-02
endloop
endfacet
facet normal -0.0000000E+00 -5.6806386E-01 -8.2298452E-01
outer loop
vertex -9.3150002E-01 -1.6394168E-01 -2.6563682E-02
vertex -9.6149999E-01 -1.6989368E-01 -2.2455322E-02
vertex -9.6149999E-01 -1.6394168E-01 -2.6563682E-02
endloop
endfacet
facet normal -0.0000000E+00 -3.5460481E-01 -9.3501621E-01
outer loop
vertex -9.3150002E-01 -1.6394168E-01 -2.6563682E-02
vertex -9.6149999E-01 -1.6394168E-01 -2.6563682E-02
vertex -9.3150002E-01 -1.5717946E-01 -2.9128253E-02
endloop
endfacet
facet normal -0.0000000E+00 -3.5460481E-01 -9.3501621E-01
outer loop
vertex -9.3150002E-01 -1.5717946E-01 -2.9128253E-02
vertex -9.6149999E-01 -1.6394168E-01 -2.6563682E-02
vertex -9.6149999E-01 -1.5717946E-01 -2.9128253E-02
endloop
endfacet
facet normal -0.0000000E+00 -1.2053699E-01 -9.9270874E-01
outer loop
vertex -9.3150002E-01 -1.5717946E-01 -2.9128253E-02
vertex -9.6149999E-01 -1.5717946E-01 -2.9128253E-02
vertex -9.3150002E-01 -1.5000001E-01 -2.9999999E-02
endloop
endfacet
facet normal -0.0000000E+00 -1.2053699E-01 -9.9270874E-01
outer loop
vertex -9.3150002E-01 -1.5000001E-01 -2.9999999E-02
vertex -9.6149999E-01 -1.5717946E-01 -2.9128253E-02
vertex -9.6149999E-01 -1.5000001E-01 -2.9999999E-02
endloop
endfacet
facet normal 1.0000000E+00 0.0000000E+00 0.0000000E+00
outer loop
vertex -9.3150002E-01 1.3355111E+00 -3.8822857E-03
vertex -9.3150002E-01 1.3350000E+00 -2.9789533E-17
vertex -9.3150002E-01 6.0000002E-01 -1.5000000E-02
endloop
endfacet
facet normal 1.0000000E+00 0.0000000E+00 0.0000000E+00
outer loop
vertex -9.3150002E-01 6.0000002E-01 -1.5000000E-02
vertex -9.3150002E-01 1.3350000E+00 -2.9789533E-17
vertex -9.3150002E-01 1.3355111E+00 3.8822857E-03
endloop
endfacet
facet normal 9.9999994E-01 0.0000000E+00 0.0000000E+00
outer loop
vertex -9.3150002E-01 6.0000002E-01 -1.5000000E-02
vertex -9.3150002E-01 1.3355111E+00 3.8822857E-03
vertex -9.3150002E-01 1.3370097E+00 7.4999998E-03
endloop
endfacet
facet normal 1.0000000E+00 0.0000000E+00 -0.0000000E+00
outer loop
vertex -9.3150002E-01 1.3370097E+00 7.4999998E-03
vertex -9.3150002E-01 1.3393934E+00 1.0606602E-02
vertex -9.3150002E-01 6.0000002E-01 -1.5000000E-02
endloop
endfacet
facet normal 1.0000000E+00 0.0000000E+00 0.0000000E+00
outer loop
vertex -9.3150002E-01 6.0000002E-01 -1.5000000E-02
vertex -9.3150002E-01 1.3393934E+00 1.0606602E-02
vertex -9.3150002E-01 1.3425000E+00 1.2990382E-02
endloop
endfacet
facet normal 1.0000000E+00 0.0000000E+00 0.0000000E+00
outer loop
vertex -9.3150002E-01 6.0000002E-01 -1.5000000E-02
vertex -9.3150002E-01 1.3425000E+00 1.2990382E-02
vertex -9.3150002E-01 1.3461177E+00 1.4488888E-02
endloop
endfacet
facet normal 1.0000000E+00 0.0000000E+00 -0.0000000E+00
outer loop
vertex -9.3150002E-01 1.3500000E+00 1.5000000E-02
vertex -9.3150002E-01 1.3698937E+00 2.2455322E-02
vertex -9.3150002E-01 1.3461177E+00 1.4488888E-02
endloop
endfacet
facet normal 1.0000000E+00 0.0000000E+00 0.0000000E+00
outer loop
vertex -9.3150002E-01 1.3461177E+00 1.4488888E-02
vertex -9.3150002E-01 1.3698937E+00 2.2455322E-02
vertex -9.3150002E-01 1.3639417E+00 2.6563682E-02
endloop
endfacet
facet normal 1.0000000E+00 0.0000000E+00 0.0000000E+00
outer loop
vertex -9.3150002E-01 1.3461177E+00 1.4488888E-02
vertex -9.3150002E-01 1.3639417E+00 2.6563682E-02
vertex -9.3150002E-01 1.3500000E+00 2.9999999E-02
endloop
endfacet
facet normal 1.0000000E+00 0.0000000E+00 0.0000000E+00
outer loop
vertex -9.3150002E-01 1.3500000E+00 2.9999999E-02
vertex -9.3150002E-01 1.3639417E+00 2.6563682E-02
vertex -9.3150002E-01 1.3571794E+00 2.9128253E-02
endloop
endfacet
facet normal 1.0000000E+00 0.0000000E+00 0.0000000E+00
outer loop
vertex -9.3150002E-01 1.3698937E+00 2.2455322E-02
vertex -9.3150002E-01 1.3500000E+00 1.5000000E-02
vertex -9.3150002E-01 1.3746896E+00 1.7041942E-02
endloop
endfacet
facet normal 1.0000000E+00 0.0000000E+00 0.0000000E+00
outer loop
vertex -9.3150002E-01 1.3746896E+00 1.7041942E-02
vertex -9.3150002E-01 1.3500000E+00 1.5000000E-02
vertex -9.3150002E-01 1.3538823E+00 1.4488888E-02
endloop
endfacet
facet normal 1.0000000E+00 0.0000000E+00 0.0000000E+00
outer loop
vertex -9.3150002E-01 1.3746896E+00 1.7041942E-02
vertex -9.3150002E-01 1.3538823E+00 1.4488888E-02
vertex -9.3150002E-01 1.3575000E+00 1.2990382E-02
endloop
endfacet
facet normal 1.0000000E+00 0.0000000E+00 0.0000000E+00
outer loop
vertex -9.3150002E-01 1.3746896E+00 1.7041942E-02
vertex -9.3150002E-01 1.3575000E+00 1.2990382E-02
vertex -9.3150002E-01 1.3780506E+00 1.0638147E-02
endloop
endfacet
facet normal 1.0000000E+00 0.0000000E+00 0.0000000E+00
outer loop
vertex -9.3150002E-01 1.3780506E+00 1.0638147E-02
vertex -9.3150002E-01 1.3575000E+00 1.2990382E-02
vertex -9.3150002E-01 1.3606066E+00 1.0606602E-02
endloop
endfacet
facet normal 1.0000000E+00 0.0000000E+00 0.0000000E+00
outer loop
vertex -9.3150002E-01 1.3780506E+00 1.0638147E-02
vertex -9.3150002E-01 1.3606066E+00 1.0606602E-02
vertex -9.3150002E-01 1.3629904E+00 7.4999998E-03
endloop
endfacet
facet normal 1.0000000E+00 0.0000000E+00 0.0000000E+00
outer loop
vertex -9.3150002E-01 1.3780506E+00 1.0638147E-02
vertex -9.3150002E-01 1.3629904E+00 7.4999998E-03
vertex -9.3150002E-01 1.3797812E+00 3.6161004E-03
endloop
endfacet
facet normal 1.0000000E+00 0.0000000E+00 0.0000000E+00
outer loop
vertex -9.3150002E-01 1.3797812E+00 3.6161004E-03
vertex -9.3150002E-01 1.3629904E+00 7.4999998E-03
vertex -9.3150002E-01 1.3644888E+00 3.8822857E-03
endloop
endfacet
facet normal 1.0000000E+00 0.0000000E+00 0.0000000E+00
outer loop
vertex -9.3150002E-01 1.3797812E+00 3.6161004E-03
vertex -9.3150002E-01 1.3644888E+00 3.8822857E-03
vertex -9.3150002E-01 1.3650000E+00 -2.7952564E-17
endloop
endfacet
facet normal 1.0000000E+00 0.0000000E+00 0.0000000E+00
outer loop
vertex -9.3150002E-01 1.3797812E+00 3.6161004E-03
vertex -9.3150002E-01 1.3650000E+00 -2.7952564E-17
vertex -9.3150002E-01 1.3797812E+00 -3.6161004E-03
endloop
endfacet
facet normal 1.0000000E+00 0.0000000E+00 0.0000000E+00
outer loop
vertex -9.3150002E-01 1.3797812E+00 -3.6161004E-03
vertex -9.3150002E-01 1.3650000E+00 -2.7952564E-17
vertex -9.3150002E-01 1.3644888E+00 -3.8822857E-03
endloop
endfacet
facet normal 1.0000000E+00 0.0000000E+00 0.0000000E+00
outer loop
vertex -9.3150002E-01 1.3797812E+00 -3.6161004E-03
vertex -9.3150002E-01 1.3644888E+00 -3.8822857E-03
vertex -9.3150002E-01 1.3629904E+00 -7.4999998E-03
endloop
endfacet
facet normal 1.0000000E+00 0.0000000E+00 0.0000000E+00
outer loop
vertex -9.3150002E-01 1.3797812E+00 -3.6161004E-03
vertex -9.3150002E-01 1.3629904E+00 -7.4999998E-03
vertex -9.3150002E-01 1.3780506E+00 -1.0638147E-02
endloop
endfacet
facet normal 1.0000000E+00 0.0000000E+00 0.0000000E+00
outer loop
vertex -9.3150002E-01 1.3780506E+00 -1.0638147E-02
vertex -9.3150002E-01 1.3629904E+00 -7.4999998E-03
vertex -9.3150002E-01 1.3606066E+00 -1.0606602E-02
endloop
endfacet
facet normal 1.0000000E+00 0.0000000E+00 0.0000000E+00
outer loop
vertex -9.3150002E-01 1.3780506E+00 -1.0638147E-02
vertex -9.3150002E-01 1.3606066E+00 -1.0606602E-02
vertex -9.3150002E-01 1.3575000E+00 -1.2990382E-02
endloop
endfacet
facet normal 1.0000000E+00 0.0000000E+00 0.0000000E+00
outer loop
vertex -9.3150002E-01 1.3780506E+00 -1.0638147E-02
vertex -9.3150002E-01 1.3575000E+00 -1.2990382E-02
vertex -9.3150002E-01 1.3746896E+00 -1.7041942E-02
endloop
endfacet
facet normal 1.0000000E+00 0.0000000E+00 0.0000000E+00
outer loop
vertex -9.3150002E-01 1.3746896E+00 -1.7041942E-02
vertex -9.3150002E-01 1.3575000E+00 -1.2990382E-02
vertex -9.3150002E-01 1.3538823E+00 -1.4488888E-02
endloop
endfacet
facet normal 1.0000000E+00 0.0000000E+00 0.0000000E+00
outer loop
vertex -9.3150002E-01 1.3746896E+00 -1.7041942E-02
vertex -9.3150002E-01 1.3538823E+00 -1.4488888E-02
vertex -9.3150002E-01 1.3500000E+00 -1.5000000E-02
endloop
endfacet
facet normal 1.0000000E+00 0.0000000E+00 0.0000000E+00
outer loop
vertex -9.3150002E-01 1.3746896E+00 -1.7041942E-02
vertex -9.3150002E-01 1.3500000E+00 -1.5000000E-02
vertex -9.3150002E-01 1.3698937E+00 -2.2455322E-02
endloop
endfacet
facet normal 1.0000000E+00 0.0000000E+00 0.0000000E+00
outer loop
vertex -9.3150002E-01 1.3698937E+00 -2.2455322E-02
vertex -9.3150002E-01 1.3500000E+00 -1.5000000E-02
vertex -9.3150002E-01 1.3461177E+00 -1.4488888E-02
endloop
endfacet
facet normal 1.0000000E+00 0.0000000E+00 0.0000000E+00
outer loop
vertex -9.3150002E-01 1.3698937E+00 -2.2455322E-02
vertex -9.3150002E-01 1.3461177E+00 -1.4488888E-02
vertex -9.3150002E-01 1.3639417E+00 -2.6563682E-02
endloop
endfacet
facet normal 1.0000000E+00 0.0000000E+00 0.0000000E+00
outer loop
vertex -9.3150002E-01 1.3639417E+00 -2.6563682E-02
vertex -9.3150002E-01 1.3461177E+00 -1.4488888E-02
vertex -9.3150002E-01 1.3500000E+00 -2.9999999E-02
endloop
endfacet
facet normal 1.0000000E+00 0.0000000E+00 0.0000000E+00
outer loop
vertex -9.3150002E-01 1.3639417E+00 -2.6563682E-02
vertex -9.3150002E-01 1.3500000E+00 -2.9999999E-02
vertex -9.3150002E-01 1.3571794E+00 -2.9128253E-02
endloop
endfacet
facet normal 1.0000000E+00 0.0000000E+00 0.0000000E+00
outer loop
vertex -9.3150002E-01 1.3500000E+00 -2.9999999E-02
vertex -9.3150002E-01 1.3461177E+00 -1.4488888E-02
vertex -9.3150002E-01 6.0000002E-01 -1.5000000E-02
endloop
endfacet
facet normal 1.0000000E+00 0.0000000E+00 0.0000000E+00
outer loop
vertex -9.3150002E-01 6.0000002E-01 -1.5000000E-02
vertex -9.3150002E-01 1.3461177E+00 -1.4488888E-02
vertex -9.3150002E-01 1.3425000E+00 -1.2990382E-02
endloop
endfacet
facet normal 9.9999994E-01 0.0000000E+00 0.0000000E+00
outer loop
vertex -9.3150002E-01 6.0000002E-01 -1.5000000E-02
vertex -9.3150002E-01 1.3425000E+00 -1.2990382E-02
vertex -9.3150002E-01 1.3393934E+00 -1.0606602E-02
endloop
endfacet
facet normal 9.9999994E-01 0.0000000E+00 0.0000000E+00
outer loop
vertex -9.3150002E-01 1.3393934E+00 -1.0606602E-02
vertex -9.3150002E-01 1.3370097E+00 -7.4999998E-03
vertex -9.3150002E-01 6.0000002E-01 -1.5000000E-02
endloop
endfacet
facet normal 1.0000000E+00 0.0000000E+00 0.0000000E+00
outer loop
vertex -9.3150002E-01 6.0000002E-01 -1.5000000E-02
vertex -9.3150002E-01 1.3370097E+00 -7.4999998E-03
vertex -9.3150002E-01 1.3355111E+00 -3.8822857E-03
endloop
endfacet
facet normal 1.0000000E+00 0.0000000E+00 0.0000000E+00
outer loop
vertex -9.3150002E-01 -1.6448887E-01 3.8822857E-03
vertex -9.3150002E-01 -1.7978124E-01 3.6161004E-03
vertex -9.3150002E-01 -1.6499999E-01 -2.9789533E-17
endloop
endfacet
facet normal 1.0000000E+00 0.0000000E+00 0.0000000E+00
outer loop
vertex -9.3150002E-01 -1.6499999E-01 -2.9789533E-17
vertex -9.3150002E-01 -1.7978124E-01 3.6161004E-03
vertex -9.3150002E-01 -1.7978124E-01 -3.6161004E-03
endloop
endfacet
facet normal 1.0000000E+00 0.0000000E+00 0.0000000E+00
outer loop
vertex -9.3150002E-01 -1.6499999E-01 -2.9789533E-17
vertex -9.3150002E-01 -1.7978124E-01 -3.6161004E-03
vertex -9.3150002E-01 -1.6448887E-01 -3.8822857E-03
endloop
endfacet
facet normal 1.0000000E+00 0.0000000E+00 0.0000000E+00
outer loop
vertex -9.3150002E-01 -1.6448887E-01 -3.8822857E-03
vertex -9.3150002E-01 -1.7978124E-01 -3.6161004E-03
vertex -9.3150002E-01 -1.6299039E-01 -7.4999998E-03
endloop
endfacet
facet normal 1.0000000E+00 0.0000000E+00 0.0000000E+00
outer loop
vertex -9.3150002E-01 -1.6299039E-01 -7.4999998E-03
vertex -9.3150002E-01 -1.7978124E-01 -3.6161004E-03
vertex -9.3150002E-01 -1.7805047E-01 -1.0638147E-02
endloop
endfacet
facet normal 1.0000000E+00 0.0000000E+00 0.0000000E+00
outer loop
vertex -9.3150002E-01 -1.6299039E-01 -7.4999998E-03
vertex -9.3150002E-01 -1.7805047E-01 -1.0638147E-02
vertex -9.3150002E-01 -1.6060661E-01 -1.0606602E-02
endloop
endfacet
facet normal 1.0000000E+00 0.0000000E+00 0.0000000E+00
outer loop
vertex -9.3150002E-01 -1.6060661E-01 -1.0606602E-02
vertex -9.3150002E-01 -1.7805047E-01 -1.0638147E-02
vertex -9.3150002E-01 -1.5750001E-01 -1.2990382E-02
endloop
endfacet
facet normal 1.0000000E+00 0.0000000E+00 0.0000000E+00
outer loop
vertex -9.3150002E-01 -1.5750001E-01 -1.2990382E-02
vertex -9.3150002E-01 -1.7805047E-01 -1.0638147E-02
vertex -9.3150002E-01 -1.7468952E-01 -1.7041942E-02
endloop
endfacet
facet normal 1.0000000E+00 0.0000000E+00 0.0000000E+00
outer loop
vertex -9.3150002E-01 -1.5750001E-01 -1.2990382E-02
vertex -9.3150002E-01 -1.7468952E-01 -1.7041942E-02
vertex -9.3150002E-01 -1.5388227E-01 -1.4488888E-02
endloop
endfacet
facet normal 1.0000000E+00 0.0000000E+00 0.0000000E+00
outer loop
vertex -9.3150002E-01 -1.5388227E-01 -1.4488888E-02
vertex -9.3150002E-01 -1.7468952E-01 -1.7041942E-02
vertex -9.3150002E-01 -1.5000001E-01 -1.5000000E-02
endloop
endfacet
facet normal 1.0000000E+00 0.0000000E+00 0.0000000E+00
outer loop
vertex -9.3150002E-01 -1.5000001E-01 -1.5000000E-02
vertex -9.3150002E-01 -1.7468952E-01 -1.7041942E-02
vertex -9.3150002E-01 -1.6989368E-01 -2.2455322E-02
endloop
endfacet
facet normal 1.0000000E+00 -0.0000000E+00 0.0000000E+00
outer loop
vertex -9.3150002E-01 -1.5000001E-01 -1.5000000E-02
vertex -9.3150002E-01 -1.6989368E-01 -2.2455322E-02
vertex -9.3150002E-01 -1.4611769E-01 -1.4488888E-02
endloop
endfacet
facet normal 1.0000000E+00 0.0000000E+00 0.0000000E+00
outer loop
vertex -9.3150002E-01 -1.4611769E-01 -1.4488888E-02
vertex -9.3150002E-01 -1.6989368E-01 -2.2455322E-02
vertex -9.3150002E-01 -1.6394168E-01 -2.6563682E-02
endloop
endfacet
facet normal 1.0000000E+00 0.0000000E+00 0.0000000E+00
outer loop
vertex -9.3150002E-01 -1.4611769E-01 -1.4488888E-02
vertex -9.3150002E-01 -1.6394168E-01 -2.6563682E-02
vertex -9.3150002E-01 -1.5000001E-01 -2.9999999E-02
endloop
endfacet
facet normal 9.9999994E-01 0.0000000E+00 0.0000000E+00
outer loop
vertex -9.3150002E-01 -1.5000001E-01 -2.9999999E-02
vertex -9.3150002E-01 -1.6394168E-01 -2.6563682E-02
vertex -9.3150002E-01 -1.5717946E-01 -2.9128253E-02
endloop
endfacet
facet normal 1.0000000E+00 0.0000000E+00 -0.0000000E+00
outer loop
vertex -9.3150002E-01 -1.6448887E-01 3.8822857E-03
vertex -9.3150002E-01 -1.6299039E-01 7.4999998E-03
vertex -9.3150002E-01 -1.7978124E-01 3.6161004E-03
endloop
endfacet
facet normal 9.9999994E-01 0.0000000E+00 0.0000000E+00
outer loop
vertex -9.3150002E-01 -1.7978124E-01 3.6161004E-03
vertex -9.3150002E-01 -1.6299039E-01 7.4999998E-03
vertex -9.3150002E-01 -1.7805047E-01 1.0638147E-02
endloop
endfacet
facet normal 1.0000000E+00 0.0000000E+00 0.0000000E+00
outer loop
vertex -9.3150002E-01 -1.7805047E-01 1.0638147E-02
vertex -9.3150002E-01 -1.6299039E-01 7.4999998E-03
vertex -9.3150002E-01 -1.6060661E-01 1.0606602E-02
endloop
endfacet
facet normal 1.0000000E+00 -0.0000000E+00 0.0000000E+00
outer loop
vertex -9.3150002E-01 -1.7805047E-01 1.0638147E-02
vertex -9.3150002E-01 -1.6060661E-01 1.0606602E-02
vertex -9.3150002E-01 -1.5750001E-01 1.2990382E-02
endloop
endfacet
facet normal 1.0000000E+00 0.0000000E+00 0.0000000E+00
outer loop
vertex -9.3150002E-01 -1.7805047E-01 1.0638147E-02
vertex -9.3150002E-01 -1.5750001E-01 1.2990382E-02
vertex -9.3150002E-01 -1.7468952E-01 1.7041942E-02
endloop
endfacet
facet normal 1.0000000E+00 0.0000000E+00 0.0000000E+00
outer loop
vertex -9.3150002E-01 -1.7468952E-01 1.7041942E-02
vertex -9.3150002E-01 -1.5750001E-01 1.2990382E-02
vertex -9.3150002E-01 -1.5388227E-01 1.4488888E-02
endloop
endfacet
facet normal 1.0000000E+00 0.0000000E+00 0.0000000E+00
outer loop
vertex -9.3150002E-01 -1.7468952E-01 1.7041942E-02
vertex -9.3150002E-01 -1.5388227E-01 1.4488888E-02
vertex -9.3150002E-01 -1.5000001E-01 1.5000000E-02
endloop
endfacet
facet normal 1.0000000E+00 -0.0000000E+00 0.0000000E+00
outer loop
vertex -9.3150002E-01 -1.7468952E-01 1.7041942E-02
vertex -9.3150002E-01 -1.5000001E-01 1.5000000E-02
vertex -9.3150002E-01 -1.6989368E-01 2.2455322E-02
endloop
endfacet
facet normal 1.0000000E+00 0.0000000E+00 0.0000000E+00
outer loop
vertex -9.3150002E-01 -1.6989368E-01 2.2455322E-02
vertex -9.3150002E-01 -1.5000001E-01 1.5000000E-02
vertex -9.3150002E-01 -1.4611769E-01 1.4488888E-02
endloop
endfacet
facet normal 1.0000000E+00 -0.0000000E+00 0.0000000E+00
outer loop
vertex -9.3150002E-01 -1.6989368E-01 2.2455322E-02
vertex -9.3150002E-01 -1.4611769E-01 1.4488888E-02
vertex -9.3150002E-01 -1.6394168E-01 2.6563682E-02
endloop
endfacet
facet normal 1.0000000E+00 -0.0000000E+00 0.0000000E+00
outer loop
vertex -9.3150002E-01 -1.6394168E-01 2.6563682E-02
vertex -9.3150002E-01 -1.4611769E-01 1.4488888E-02
vertex -9.3150002E-01 -1.5000001E-01 2.9999999E-02
endloop
endfacet
facet normal 9.9999994E-01 0.0000000E+00 0.0000000E+00
outer loop
vertex -9.3150002E-01 -1.6394168E-01 2.6563682E-02
vertex -9.3150002E-01 -1.5000001E-01 2.9999999E-02
vertex -9.3150002E-01 -1.5717946E-01 2.9128253E-02
endloop
endfacet
facet normal 1.0000000E+00 0.0000000E+00 0.0000000E+00
outer loop
vertex -9.3150002E-01 -1.5000001E-01 2.9999999E-02
vertex -9.3150002E-01 -1.4611769E-01 1.4488888E-02
vertex -9.3150002E-01 6.0000002E-01 -1.5000000E-02
endloop
endfacet
facet normal 1.0000000E+00 0.0000000E+00 0.0000000E+00
outer loop
vertex -9.3150002E-01 6.0000002E-01 -1.5000000E-02
vertex -9.3150002E-01 -1.4611769E-01 1.4488888E-02
vertex -9.3150002E-01 -1.4249998E-01 1.2990382E-02
endloop
endfacet
facet normal 1.0000000E+00 0.0000000E+00 0.0000000E+00
outer loop
vertex -9.3150002E-01 6.0000002E-01 -1.5000000E-02
vertex -9.3150002E-01 -1.4249998E-01 1.2990382E-02
vertex -9.3150002E-01 -1.3939340E-01 1.0606602E-02
endloop
endfacet
facet normal 1.0000000E+00 0.0000000E+00 0.0000000E+00
outer loop
vertex -9.3150002E-01 -1.3939340E-01 1.0606602E-02
vertex -9.3150002E-01 -1.3700961E-01 7.4999998E-03
vertex -9.3150002E-01 6.0000002E-01 -1.5000000E-02
endloop
endfacet
facet normal 9.9999994E-01 0.0000000E+00 0.0000000E+00
outer loop
vertex -9.3150002E-01 6.0000002E-01 -1.5000000E-02
vertex -9.3150002E-01 -1.3700961E-01 7.4999998E-03
vertex -9.3150002E-01 -1.3551110E-01 3.8822857E-03
endloop
endfacet
facet normal 1.0000000E+00 0.0000000E+00 0.0000000E+00
outer loop
vertex -9.3150002E-01 6.0000002E-01 -1.5000000E-02
vertex -9.3150002E-01 -1.3551110E-01 3.8822857E-03
vertex -9.3150002E-01 -1.3500002E-01 -2.7952564E-17
endloop
endfacet
facet normal 1.0000000E+00 0.0000000E+00 0.0000000E+00
outer loop
vertex -9.3150002E-01 -1.3500002E-01 -2.7952564E-17
vertex -9.3150002E-01 -1.3551110E-01 -3.8822857E-03
vertex -9.3150002E-01 6.0000002E-01 -1.5000000E-02
endloop
endfacet
facet normal 1.0000000E+00 0.0000000E+00 0.0000000E+00
outer loop
vertex -9.3150002E-01 6.0000002E-01 -1.5000000E-02
vertex -9.3150002E-01 -1.3551110E-01 -3.8822857E-03
vertex -9.3150002E-01 -1.3700961E-01 -7.4999998E-03
endloop
endfacet
facet normal 1.0000000E+00 0.0000000E+00 0.0000000E+00
outer loop
vertex -9.3150002E-01 6.0000002E-01 -1.5000000E-02
vertex -9.3150002E-01 -1.3700961E-01 -7.4999998E-03
vertex -9.3150002E-01 -1.3939340E-01 -1.0606602E-02
endloop
endfacet
facet normal 9.9999994E-01 0.0000000E+00 0.0000000E+00
outer loop
vertex -9.3150002E-01 -1.3939340E-01 -1.0606602E-02
vertex -9.3150002E-01 -1.4249998E-01 -1.2990382E-02
vertex -9.3150002E-01 6.0000002E-01 -1.5000000E-02
endloop
endfacet
facet normal 1.0000000E+00 0.0000000E+00 0.0000000E+00
outer loop
vertex -9.3150002E-01 6.0000002E-01 -1.5000000E-02
vertex -9.3150002E-01 -1.4249998E-01 -1.2990382E-02
vertex -9.3150002E-01 -1.4611769E-01 -1.4488888E-02
endloop
endfacet
facet normal 1.0000000E+00 0.0000000E+00 0.0000000E+00
outer loop
vertex -9.3150002E-01 6.0000002E-01 -1.5000000E-02
vertex -9.3150002E-01 -1.4611769E-01 -1.4488888E-02
vertex -9.3150002E-01 -1.5000001E-01 -2.9999999E-02
endloop
endfacet
facet normal 1.0000000E+00 0.0000000E+00 0.0000000E+00
outer loop
vertex -9.3150002E-01 -1.5000001E-01 -2.9999999E-02
vertex -9.3150002E-01 1.3500000E+00 -2.9999999E-02
vertex -9.3150002E-01 6.0000002E-01 -1.5000000E-02
endloop
endfacet
facet normal 1.0000000E+00 0.0000000E+00 -0.0000000E+00
outer loop
vertex -9.3150002E-01 1.3461177E+00 1.4488888E-02
vertex -9.3150002E-01 1.3500000E+00 2.9999999E-02
vertex -9.3150002E-01 6.0000002E-01 -1.5000000E-02
endloop
endfacet
facet normal 1.0000000E+00 0.0000000E+00 -0.0000000E+00
outer loop
vertex -9.3150002E-01 6.0000002E-01 -1.5000000E-02
vertex -9.3150002E-01 1.3500000E+00 2.9999999E-02
vertex -9.3150002E-01 -1.5000001E-01 2.9999999E-02
endloop
endfacet
facet normal -1.0000000E+00 0.0000000E+00 0.0000000E+00
outer loop
vertex -9.6149999E-01 1.3355111E+00 3.8822857E-03
vertex -9.6149999E-01 1.3350000E+00 -3.1626503E-17
vertex -9.6149999E-01 6.0000002E-01 -1.5000000E-02
endloop
endfacet
facet normal -1.0000000E+00 0.0000000E+00 0.0000000E+00
outer loop
vertex -9.6149999E-01 6.0000002E-01 -1.5000000E-02
vertex -9.6149999E-01 1.3350000E+00 -3.1626503E-17
vertex -9.6149999E-01 1.3355111E+00 -3.8822857E-03
endloop
endfacet
facet normal -1.0000000E+00 0.0000000E+00 0.0000000E+00
outer loop
vertex -9.6149999E-01 6.0000002E-01 -1.5000000E-02
vertex -9.6149999E-01 1.3355111E+00 -3.8822857E-03
vertex -9.6149999E-01 1.3370097E+00 -7.4999998E-03
endloop
endfacet
facet normal -9.9999994E-01 0.0000000E+00 -0.0000000E+00
outer loop
vertex -9.6149999E-01 1.3370097E+00 -7.4999998E-03
vertex -9.6149999E-01 1.3393934E+00 -1.0606602E-02
vertex -9.6149999E-01 6.0000002E-01 -1.5000000E-02
endloop
endfacet
facet normal -9.9999994E-01 0.0000000E+00 0.0000000E+00
outer loop
vertex -9.6149999E-01 6.0000002E-01 -1.5000000E-02
vertex -9.6149999E-01 1.3393934E+00 -1.0606602E-02
vertex -9.6149999E-01 1.3425000E+00 -1.2990382E-02
endloop
endfacet
facet normal -1.0000000E+00 0.0000000E+00 0.0000000E+00
outer loop
vertex -9.6149999E-01 6.0000002E-01 -1.5000000E-02
vertex -9.6149999E-01 1.3425000E+00 -1.2990382E-02
vertex -9.6149999E-01 1.3461177E+00 -1.4488888E-02
endloop
endfacet
facet normal -1.0000000E+00 -0.0000000E+00 -0.0000000E+00
outer loop
vertex -9.6149999E-01 1.3500000E+00 -1.5000000E-02
vertex -9.6149999E-01 1.3698937E+00 -2.2455322E-02
vertex -9.6149999E-01 1.3461177E+00 -1.4488888E-02
endloop
endfacet
facet normal -1.0000000E+00 0.0000000E+00 0.0000000E+00
outer loop
vertex -9.6149999E-01 1.3461177E+00 -1.4488888E-02
vertex -9.6149999E-01 1.3698937E+00 -2.2455322E-02
vertex -9.6149999E-01 1.3639417E+00 -2.6563682E-02
endloop
endfacet
facet normal -1.0000000E+00 0.0000000E+00 0.0000000E+00
outer loop
vertex -9.6149999E-01 1.3461177E+00 -1.4488888E-02
vertex -9.6149999E-01 1.3639417E+00 -2.6563682E-02
vertex -9.6149999E-01 1.3500000E+00 -2.9999999E-02
endloop
endfacet
facet normal -1.0000000E+00 0.0000000E+00 0.0000000E+00
outer loop
vertex -9.6149999E-01 1.3500000E+00 -2.9999999E-02
vertex -9.6149999E-01 1.3639417E+00 -2.6563682E-02
vertex -9.6149999E-01 1.3571794E+00 -2.9128253E-02
endloop
endfacet
facet normal -1.0000000E+00 0.0000000E+00 0.0000000E+00
outer loop
vertex -9.6149999E-01 1.3698937E+00 -2.2455322E-02
vertex -9.6149999E-01 1.3500000E+00 -1.5000000E-02
vertex -9.6149999E-01 1.3746896E+00 -1.7041942E-02
endloop
endfacet
facet normal -1.0000000E+00 0.0000000E+00 0.0000000E+00
outer loop
vertex -9.6149999E-01 1.3746896E+00 -1.7041942E-02
vertex -9.6149999E-01 1.3500000E+00 -1.5000000E-02
vertex -9.6149999E-01 1.3538823E+00 -1.4488888E-02
endloop
endfacet
facet normal -1.0000000E+00 0.0000000E+00 0.0000000E+00
outer loop
vertex -9.6149999E-01 1.3746896E+00 -1.7041942E-02
vertex -9.6149999E-01 1.3538823E+00 -1.4488888E-02
vertex -9.6149999E-01 1.3575000E+00 -1.2990382E-02
endloop
endfacet
facet normal -1.0000000E+00 0.0000000E+00 0.0000000E+00
outer loop
vertex -9.6149999E-01 1.3746896E+00 -1.7041942E-02
vertex -9.6149999E-01 1.3575000E+00 -1.2990382E-02
vertex -9.6149999E-01 1.3780506E+00 -1.0638147E-02
endloop
endfacet
facet normal -1.0000000E+00 -0.0000000E+00 0.0000000E+00
outer loop
vertex -9.6149999E-01 1.3780506E+00 -1.0638147E-02
vertex -9.6149999E-01 1.3575000E+00 -1.2990382E-02
vertex -9.6149999E-01 1.3606066E+00 -1.0606602E-02
endloop
endfacet
facet normal -1.0000000E+00 0.0000000E+00 0.0000000E+00
outer loop
vertex -9.6149999E-01 1.3780506E+00 -1.0638147E-02
vertex -9.6149999E-01 1.3606066E+00 -1.0606602E-02
vertex -9.6149999E-01 1.3629904E+00 -7.4999998E-03
endloop
endfacet
facet normal -1.0000000E+00 0.0000000E+00 0.0000000E+00
outer loop
vertex -9.6149999E-01 1.3780506E+00 -1.0638147E-02
vertex -9.6149999E-01 1.3629904E+00 -7.4999998E-03
vertex -9.6149999E-01 1.3797812E+00 -3.6161004E-03
endloop
endfacet
facet normal -1.0000000E+00 0.0000000E+00 0.0000000E+00
outer loop
vertex -9.6149999E-01 1.3797812E+00 -3.6161004E-03
vertex -9.6149999E-01 1.3629904E+00 -7.4999998E-03
vertex -9.6149999E-01 1.3644888E+00 -3.8822857E-03
endloop
endfacet
facet normal -1.0000000E+00 -0.0000000E+00 0.0000000E+00
outer loop
vertex -9.6149999E-01 1.3797812E+00 -3.6161004E-03
vertex -9.6149999E-01 1.3644888E+00 -3.8822857E-03
vertex -9.6149999E-01 1.3650000E+00 -2.9789533E-17
endloop
endfacet
facet normal -1.0000000E+00 0.0000000E+00 0.0000000E+00
outer loop
vertex -9.6149999E-01 1.3797812E+00 -3.6161004E-03
vertex -9.6149999E-01 1.3650000E+00 -2.9789533E-17
vertex -9.6149999E-01 1.3797812E+00 3.6161004E-03
endloop
endfacet
facet normal -1.0000000E+00 -0.0000000E+00 0.0000000E+00
outer loop
vertex -9.6149999E-01 1.3797812E+00 3.6161004E-03
vertex -9.6149999E-01 1.3650000E+00 -2.9789533E-17
vertex -9.6149999E-01 1.3644888E+00 3.8822857E-03
endloop
endfacet
facet normal -1.0000000E+00 0.0000000E+00 0.0000000E+00
outer loop
vertex -9.6149999E-01 1.3797812E+00 3.6161004E-03
vertex -9.6149999E-01 1.3644888E+00 3.8822857E-03
vertex -9.6149999E-01 1.3629904E+00 7.4999998E-03
endloop
endfacet
facet normal -1.0000000E+00 0.0000000E+00 0.0000000E+00
outer loop
vertex -9.6149999E-01 1.3797812E+00 3.6161004E-03
vertex -9.6149999E-01 1.3629904E+00 7.4999998E-03
vertex -9.6149999E-01 1.3780506E+00 1.0638147E-02
endloop
endfacet
facet normal -1.0000000E+00 0.0000000E+00 0.0000000E+00
outer loop
vertex -9.6149999E-01 1.3780506E+00 1.0638147E-02
vertex -9.6149999E-01 1.3629904E+00 7.4999998E-03
vertex -9.6149999E-01 1.3606066E+00 1.0606602E-02
endloop
endfacet
facet normal -1.0000000E+00 -0.0000000E+00 0.0000000E+00
outer loop
vertex -9.6149999E-01 1.3780506E+00 1.0638147E-02
vertex -9.6149999E-01 1.3606066E+00 1.0606602E-02
vertex -9.6149999E-01 1.3575000E+00 1.2990382E-02
endloop
endfacet
facet normal -1.0000000E+00 0.0000000E+00 0.0000000E+00
outer loop
vertex -9.6149999E-01 1.3780506E+00 1.0638147E-02
vertex -9.6149999E-01 1.3575000E+00 1.2990382E-02
vertex -9.6149999E-01 1.3746896E+00 1.7041942E-02
endloop
endfacet
facet normal -1.0000000E+00 0.0000000E+00 0.0000000E+00
outer loop
vertex -9.6149999E-01 1.3746896E+00 1.7041942E-02
vertex -9.6149999E-01 1.3575000E+00 1.2990382E-02
vertex -9.6149999E-01 1.3538823E+00 1.4488888E-02
endloop
endfacet
facet normal -1.0000000E+00 0.0000000E+00 0.0000000E+00
outer loop
vertex -9.6149999E-01 1.3746896E+00 1.7041942E-02
vertex -9.6149999E-01 1.3538823E+00 1.4488888E-02
vertex -9.6149999E-01 1.3500000E+00 1.5000000E-02
endloop
endfacet
facet normal -1.0000000E+00 -0.0000000E+00 0.0000000E+00
outer loop
vertex -9.6149999E-01 1.3746896E+00 1.7041942E-02
vertex -9.6149999E-01 1.3500000E+00 1.5000000E-02
vertex -9.6149999E-01 1.3698937E+00 2.2455322E-02
endloop
endfacet
facet normal -1.0000000E+00 0.0000000E+00 0.0000000E+00
outer loop
vertex -9.6149999E-01 1.3698937E+00 2.2455322E-02
vertex -9.6149999E-01 1.3500000E+00 1.5000000E-02
vertex -9.6149999E-01 1.3461177E+00 1.4488888E-02
endloop
endfacet
facet normal -1.0000000E+00 -0.0000000E+00 0.0000000E+00
outer loop
vertex -9.6149999E-01 1.3698937E+00 2.2455322E-02
vertex -9.6149999E-01 1.3461177E+00 1.4488888E-02
vertex -9.6149999E-01 1.3639417E+00 2.6563682E-02
endloop
endfacet
facet normal -1.0000000E+00 -0.0000000E+00 0.0000000E+00
outer loop
vertex -9.6149999E-01 1.3639417E+00 2.6563682E-02
vertex -9.6149999E-01 1.3461177E+00 1.4488888E-02
vertex -9.6149999E-01 1.3500000E+00 2.9999999E-02
endloop
endfacet
facet normal -1.0000000E+00 0.0000000E+00 0.0000000E+00
outer loop
vertex -9.6149999E-01 1.3639417E+00 2.6563682E-02
vertex -9.6149999E-01 1.3500000E+00 2.9999999E-02
vertex -9.6149999E-01 1.3571794E+00 2.9128253E-02
endloop
endfacet
facet normal -1.0000000E+00 0.0000000E+00 0.0000000E+00
outer loop
vertex -9.6149999E-01 1.3500000E+00 2.9999999E-02
vertex -9.6149999E-01 1.3461177E+00 1.4488888E-02
vertex -9.6149999E-01 6.0000002E-01 -1.5000000E-02
endloop
endfacet
facet normal -1.0000000E+00 0.0000000E+00 0.0000000E+00
outer loop
vertex -9.6149999E-01 6.0000002E-01 -1.5000000E-02
vertex -9.6149999E-01 1.3461177E+00 1.4488888E-02
vertex -9.6149999E-01 1.3425000E+00 1.2990382E-02
endloop
endfacet
facet normal -1.0000000E+00 0.0000000E+00 0.0000000E+00
outer loop
vertex -9.6149999E-01 6.0000002E-01 -1.5000000E-02
vertex -9.6149999E-01 1.3425000E+00 1.2990382E-02
vertex -9.6149999E-01 1.3393934E+00 1.0606602E-02
endloop
endfacet
facet normal -1.0000000E+00 0.0000000E+00 0.0000000E+00
outer loop
vertex -9.6149999E-01 1.3393934E+00 1.0606602E-02
vertex -9.6149999E-01 1.3370097E+00 7.4999998E-03
vertex -9.6149999E-01 6.0000002E-01 -1.5000000E-02
endloop
endfacet
facet normal -9.9999994E-01 0.0000000E+00 0.0000000E+00
outer loop
vertex -9.6149999E-01 6.0000002E-01 -1.5000000E-02
vertex -9.6149999E-01 1.3370097E+00 7.4999998E-03
vertex -9.6149999E-01 1.3355111E+00 3.8822857E-03
endloop
endfacet
facet normal -1.0000000E+00 0.0000000E+00 0.0000000E+00
outer loop
vertex -9.6149999E-01 -1.6448887E-01 -3.8822857E-03
vertex -9.6149999E-01 -1.7978124E-01 -3.6161004E-03
vertex -9.6149999E-01 -1.6499999E-01 -3.1626503E-17
endloop
endfacet
facet normal -1.0000000E+00 -0.0000000E+00 0.0000000E+00
outer loop
vertex -9.6149999E-01 -1.6499999E-01 -3.1626503E-17
vertex -9.6149999E-01 -1.7978124E-01 -3.6161004E-03
vertex -9.6149999E-01 -1.7978124E-01 3.6161004E-03
endloop
endfacet
facet normal -1.0000000E+00 0.0000000E+00 0.0000000E+00
outer loop
vertex -9.6149999E-01 -1.6499999E-01 -3.1626503E-17
vertex -9.6149999E-01 -1.7978124E-01 3.6161004E-03
vertex -9.6149999E-01 -1.6448887E-01 3.8822857E-03
endloop
endfacet
facet normal -1.0000000E+00 -0.0000000E+00 0.0000000E+00
outer loop
vertex -9.6149999E-01 -1.6448887E-01 3.8822857E-03
vertex -9.6149999E-01 -1.7978124E-01 3.6161004E-03
vertex -9.6149999E-01 -1.6299039E-01 7.4999998E-03
endloop
endfacet
facet normal -1.0000000E+00 -0.0000000E+00 0.0000000E+00
outer loop
vertex -9.6149999E-01 -1.6299039E-01 7.4999998E-03
vertex -9.6149999E-01 -1.7978124E-01 3.6161004E-03
vertex -9.6149999E-01 -1.7805047E-01 1.0638147E-02
endloop
endfacet
facet normal -1.0000000E+00 0.0000000E+00 0.0000000E+00
outer loop
vertex -9.6149999E-01 -1.6299039E-01 7.4999998E-03
vertex -9.6149999E-01 -1.7805047E-01 1.0638147E-02
vertex -9.6149999E-01 -1.6060661E-01 1.0606602E-02
endloop
endfacet
facet normal -1.0000000E+00 0.0000000E+00 0.0000000E+00
outer loop
vertex -9.6149999E-01 -1.6060661E-01 1.0606602E-02
vertex -9.6149999E-01 -1.7805047E-01 1.0638147E-02
vertex -9.6149999E-01 -1.5750001E-01 1.2990382E-02
endloop
endfacet
facet normal -1.0000000E+00 -0.0000000E+00 0.0000000E+00
outer loop
vertex -9.6149999E-01 -1.5750001E-01 1.2990382E-02
vertex -9.6149999E-01 -1.7805047E-01 1.0638147E-02
vertex -9.6149999E-01 -1.7468952E-01 1.7041942E-02
endloop
endfacet
facet normal -1.0000000E+00 0.0000000E+00 0.0000000E+00
outer loop
vertex -9.6149999E-01 -1.5750001E-01 1.2990382E-02
vertex -9.6149999E-01 -1.7468952E-01 1.7041942E-02
vertex -9.6149999E-01 -1.5388227E-01 1.4488888E-02
endloop
endfacet
facet normal -1.0000000E+00 0.0000000E+00 0.0000000E+00
outer loop
vertex -9.6149999E-01 -1.5388227E-01 1.4488888E-02
vertex -9.6149999E-01 -1.7468952E-01 1.7041942E-02
vertex -9.6149999E-01 -1.5000001E-01 1.5000000E-02
endloop
endfacet
facet normal -1.0000000E+00 0.0000000E+00 0.0000000E+00
outer loop
vertex -9.6149999E-01 -1.5000001E-01 1.5000000E-02
vertex -9.6149999E-01 -1.7468952E-01 1.7041942E-02
vertex -9.6149999E-01 -1.6989368E-01 2.2455322E-02
endloop
endfacet
facet normal -1.0000000E+00 0.0000000E+00 0.0000000E+00
outer loop
vertex -9.6149999E-01 -1.5000001E-01 1.5000000E-02
vertex -9.6149999E-01 -1.6989368E-01 2.2455322E-02
vertex -9.6149999E-01 -1.4611769E-01 1.4488888E-02
endloop
endfacet
facet normal -1.0000000E+00 0.0000000E+00 0.0000000E+00
outer loop
vertex -9.6149999E-01 -1.4611769E-01 1.4488888E-02
vertex -9.6149999E-01 -1.6989368E-01 2.2455322E-02
vertex -9.6149999E-01 -1.6394168E-01 2.6563682E-02
endloop
endfacet
facet normal -1.0000000E+00 0.0000000E+00 0.0000000E+00
outer loop
vertex -9.6149999E-01 -1.4611769E-01 1.4488888E-02
vertex -9.6149999E-01 -1.6394168E-01 2.6563682E-02
vertex -9.6149999E-01 -1.5000001E-01 2.9999999E-02
endloop
endfacet
facet normal -9.9999994E-01 0.0000000E+00 0.0000000E+00
outer loop
vertex -9.6149999E-01 -1.5000001E-01 2.9999999E-02
vertex -9.6149999E-01 -1.6394168E-01 2.6563682E-02
vertex -9.6149999E-01 -1.5717946E-01 2.9128253E-02
endloop
endfacet
facet normal -1.0000000E+00 -0.0000000E+00 -0.0000000E+00
outer loop
vertex -9.6149999E-01 -1.6448887E-01 -3.8822857E-03
vertex -9.6149999E-01 -1.6299039E-01 -7.4999998E-03
vertex -9.6149999E-01 -1.7978124E-01 -3.6161004E-03
endloop
endfacet
facet normal -9.9999994E-01 0.0000000E+00 0.0000000E+00
outer loop
vertex -9.6149999E-01 -1.7978124E-01 -3.6161004E-03
vertex -9.6149999E-01 -1.6299039E-01 -7.4999998E-03
vertex -9.6149999E-01 -1.7805047E-01 -1.0638147E-02
endloop
endfacet
facet normal -1.0000000E+00 0.0000000E+00 0.0000000E+00
outer loop
vertex -9.6149999E-01 -1.7805047E-01 -1.0638147E-02
vertex -9.6149999E-01 -1.6299039E-01 -7.4999998E-03
vertex -9.6149999E-01 -1.6060661E-01 -1.0606602E-02
endloop
endfacet
facet normal -1.0000000E+00 0.0000000E+00 0.0000000E+00
outer loop
vertex -9.6149999E-01 -1.7805047E-01 -1.0638147E-02
vertex -9.6149999E-01 -1.6060661E-01 -1.0606602E-02
vertex -9.6149999E-01 -1.5750001E-01 -1.2990382E-02
endloop
endfacet
facet normal -1.0000000E+00 0.0000000E+00 0.0000000E+00
outer loop
vertex -9.6149999E-01 -1.7805047E-01 -1.0638147E-02
vertex -9.6149999E-01 -1.5750001E-01 -1.2990382E-02
vertex -9.6149999E-01 -1.7468952E-01 -1.7041942E-02
endloop
endfacet
facet normal -1.0000000E+00 0.0000000E+00 0.0000000E+00
outer loop
vertex -9.6149999E-01 -1.7468952E-01 -1.7041942E-02
vertex -9.6149999E-01 -1.5750001E-01 -1.2990382E-02
vertex -9.6149999E-01 -1.5388227E-01 -1.4488888E-02
endloop
endfacet
facet normal -1.0000000E+00 0.0000000E+00 0.0000000E+00
outer loop
vertex -9.6149999E-01 -1.7468952E-01 -1.7041942E-02
vertex -9.6149999E-01 -1.5388227E-01 -1.4488888E-02
vertex -9.6149999E-01 -1.5000001E-01 -1.5000000E-02
endloop
endfacet
facet normal -1.0000000E+00 0.0000000E+00 0.0000000E+00
outer loop
vertex -9.6149999E-01 -1.7468952E-01 -1.7041942E-02
vertex -9.6149999E-01 -1.5000001E-01 -1.5000000E-02
vertex -9.6149999E-01 -1.6989368E-01 -2.2455322E-02
endloop
endfacet
facet normal -1.0000000E+00 0.0000000E+00 0.0000000E+00
outer loop
vertex -9.6149999E-01 -1.6989368E-01 -2.2455322E-02
vertex -9.6149999E-01 -1.5000001E-01 -1.5000000E-02
vertex -9.6149999E-01 -1.4611769E-01 -1.4488888E-02
endloop
endfacet
facet normal -1.0000000E+00 0.0000000E+00 0.0000000E+00
outer loop
vertex -9.6149999E-01 -1.6989368E-01 -2.2455322E-02
vertex -9.6149999E-01 -1.4611769E-01 -1.4488888E-02
vertex -9.6149999E-01 -1.6394168E-01 -2.6563682E-02
endloop
endfacet
facet normal -1.0000000E+00 0.0000000E+00 0.0000000E+00
outer loop
vertex -9.6149999E-01 -1.6394168E-01 -2.6563682E-02
vertex -9.6149999E-01 -1.4611769E-01 -1.4488888E-02
vertex -9.6149999E-01 -1.5000001E-01 -2.9999999E-02
endloop
endfacet
facet normal -9.9999994E-01 0.0000000E+00 0.0000000E+00
outer loop
vertex -9.6149999E-01 -1.6394168E-01 -2.6563682E-02
vertex -9.6149999E-01 -1.5000001E-01 -2.9999999E-02
vertex -9.6149999E-01 -1.5717946E-01 -2.9128253E-02
endloop
endfacet
facet normal -1.0000000E+00 0.0000000E+00 0.0000000E+00
outer loop
vertex -9.6149999E-01 -1.5000001E-01 -2.9999999E-02
vertex -9.6149999E-01 -1.4611769E-01 -1.4488888E-02
vertex -9.6149999E-01 6.0000002E-01 -1.5000000E-02
endloop
endfacet
facet normal -1.0000000E+00 0.0000000E+00 0.0000000E+00
outer loop
vertex -9.6149999E-01 6.0000002E-01 -1.5000000E-02
vertex -9.6149999E-01 -1.4611769E-01 -1.4488888E-02
vertex -9.6149999E-01 -1.4249998E-01 -1.2990382E-02
endloop
endfacet
facet normal -1.0000000E+00 0.0000000E+00 0.0000000E+00
outer loop
vertex -9.6149999E-01 6.0000002E-01 -1.5000000E-02
vertex -9.6149999E-01 -1.4249998E-01 -1.2990382E-02
vertex -9.6149999E-01 -1.3939340E-01 -1.0606602E-02
endloop
endfacet
facet normal -1.0000000E+00 0.0000000E+00 0.0000000E+00
outer loop
vertex -9.6149999E-01 -1.3939340E-01 -1.0606602E-02
vertex -9.6149999E-01 -1.3700961E-01 -7.4999998E-03
vertex -9.6149999E-01 6.0000002E-01 -1.5000000E-02
endloop
endfacet
facet normal -1.0000000E+00 0.0000000E+00 0.0000000E+00
outer loop
vertex -9.6149999E-01 6.0000002E-01 -1.5000000E-02
vertex -9.6149999E-01 -1.3700961E-01 -7.4999998E-03
vertex -9.6149999E-01 -1.3551110E-01 -3.8822857E-03
endloop
endfacet
facet normal -1.0000000E+00 0.0000000E+00 0.0000000E+00
outer loop
vertex -9.6149999E-01 6.0000002E-01 -1.5000000E-02
vertex -9.6149999E-01 -1.3551110E-01 -3.8822857E-03
vertex -9.6149999E-01 -1.3500002E-01 -2.9789533E-17
endloop
endfacet
facet normal -1.0000000E+00 0.0000000E+00 0.0000000E+00
outer loop
vertex -9.6149999E-01 -1.3500002E-01 -2.9789533E-17
vertex -9.6149999E-01 -1.3551110E-01 3.8822857E-03
vertex -9.6149999E-01 6.0000002E-01 -1.5000000E-02
endloop
endfacet
facet normal -9.9999994E-01 0.0000000E+00 0.0000000E+00
outer loop
vertex -9.6149999E-01 6.0000002E-01 -1.5000000E-02
vertex -9.6149999E-01 -1.3551110E-01 3.8822857E-03
vertex -9.6149999E-01 -1.3700961E-01 7.4999998E-03
endloop
endfacet
facet normal -1.0000000E+00 0.0000000E+00 0.0000000E+00
outer loop
vertex -9.6149999E-01 6.0000002E-01 -1.5000000E-02
vertex -9.6149999E-01 -1.3700961E-01 7.4999998E-03
vertex -9.6149999E-01 -1.3939340E-01 1.0606602E-02
endloop
endfacet
facet normal -1.0000000E+00 0.0000000E+00 0.0000000E+00
outer loop
vertex -9.6149999E-01 -1.3939340E-01 1.0606602E-02
vertex -9.6149999E-01 -1.4249998E-01 1.2990382E-02
vertex -9.6149999E-01 6.0000002E-01 -1.5000000E-02
endloop
endfacet
facet normal -1.0000000E+00 0.0000000E+00 0.0000000E+00
outer loop
vertex -9.6149999E-01 6.0000002E-01 -1.5000000E-02
vertex -9.6149999E-01 -1.4249998E-01 1.2990382E-02
vertex -9.6149999E-01 -1.4611769E-01 1.4488888E-02
endloop
endfacet
facet normal -1.0000000E+00 0.0000000E+00 0.0000000E+00
outer loop
vertex -9.6149999E-01 6.0000002E-01 -1.5000000E-02
vertex -9.6149999E-01 -1.4611769E-01 1.4488888E-02
vertex -9.6149999E-01 -1.5000001E-01 2.9999999E-02
endloop
endfacet
facet normal -1.0000000E+00 0.0000000E+00 0.0000000E+00
outer loop
vertex -9.6149999E-01 -1.5000001E-01 2.9999999E-02
vertex -9.6149999E-01 1.3500000E+00 2.9999999E-02
vertex -9.6149999E-01 6.0000002E-01 -1.5000000E-02
endloop
endfacet
facet normal -1.0000000E+00 0.0000000E+00 -0.0000000E+00
outer loop
vertex -9.6149999E-01 1.3461177E+00 -1.4488888E-02
vertex -9.6149999E-01 1.3500000E+00 -2.9999999E-02
vertex -9.6149999E-01 6.0000002E-01 -1.5000000E-02
endloop
endfacet
facet normal -1.0000000E+00 0.0000000E+00 -0.0000000E+00
outer loop
vertex -9.6149999E-01 6.0000002E-01 -1.5000000E-02
vertex -9.6149999E-01 1.3500000E+00 -2.9999999E-02
vertex -9.6149999E-01 -1.5000001E-01 -2.9999999E-02
endloop
endfacet
endsolid Created by stlwrite.m 03-Sep-2021 16:23:09
