solid Created by stlwrite.m 26-Sep-2021 16:07:50
facet normal 0.0000000E+00 -0.0000000E+00 1.0000000E+00
outer loop
vertex 2.9999999E-02 -2.0000000E-01 2.9999999E-02
vertex 2.9999999E-02 -1.6500001E-01 2.9999999E-02
vertex -2.9999999E-02 -2.0000000E-01 2.9999999E-02
endloop
endfacet
facet normal 0.0000000E+00 0.0000000E+00 1.0000000E+00
outer loop
vertex -2.9999999E-02 -2.0000000E-01 2.9999999E-02
vertex 2.9999999E-02 -1.6500001E-01 2.9999999E-02
vertex -2.9999999E-02 -1.6500001E-01 2.9999999E-02
endloop
endfacet
facet normal -0.0000000E+00 7.0710677E-01 7.0710683E-01
outer loop
vertex -2.9999999E-02 -1.5000001E-01 1.5000000E-02
vertex -2.9999999E-02 -1.6500001E-01 2.9999999E-02
vertex 2.9999999E-02 -1.5000001E-01 1.5000000E-02
endloop
endfacet
facet normal 0.0000000E+00 7.0710677E-01 7.0710683E-01
outer loop
vertex 2.9999999E-02 -1.5000001E-01 1.5000000E-02
vertex -2.9999999E-02 -1.6500001E-01 2.9999999E-02
vertex 2.9999999E-02 -1.6500001E-01 2.9999999E-02
endloop
endfacet
facet normal -1.0000000E+00 -0.0000000E+00 -0.0000000E+00
outer loop
vertex -2.9999999E-02 -1.6500001E-01 2.9999999E-02
vertex -2.9999999E-02 -1.5000001E-01 1.5000000E-02
vertex -2.9999999E-02 -2.0000000E-01 2.9999999E-02
endloop
endfacet
facet normal -9.9999994E-01 0.0000000E+00 0.0000000E+00
outer loop
vertex -2.9999999E-02 -2.0000000E-01 2.9999999E-02
vertex -2.9999999E-02 -1.5000001E-01 1.5000000E-02
vertex -2.9999999E-02 -1.5000001E-01 -2.2204460E-16
endloop
endfacet
facet normal -9.9999994E-01 0.0000000E+00 0.0000000E+00
outer loop
vertex -2.9999999E-02 -2.0000000E-01 2.9999999E-02
vertex -2.9999999E-02 -1.5000001E-01 -2.2204460E-16
vertex -2.9999999E-02 -2.0000000E-01 -2.9999999E-02
endloop
endfacet
facet normal -1.0000000E+00 0.0000000E+00 0.0000000E+00
outer loop
vertex -2.9999999E-02 -2.0000000E-01 -2.9999999E-02
vertex -2.9999999E-02 -1.5000001E-01 -2.2204460E-16
vertex -2.9999999E-02 0.0000000E+00 -2.9999999E-02
endloop
endfacet
facet normal -1.0000000E+00 0.0000000E+00 0.0000000E+00
outer loop
vertex -2.9999999E-02 0.0000000E+00 -2.9999999E-02
vertex -2.9999999E-02 -1.5000001E-01 -2.2204460E-16
vertex -2.9999999E-02 0.0000000E+00 -2.2204460E-16
endloop
endfacet
facet normal -0.0000000E+00 9.9999994E-01 0.0000000E+00
outer loop
vertex -2.9999999E-02 -1.5000001E-01 1.5000000E-02
vertex 2.9999999E-02 -1.5000001E-01 1.5000000E-02
vertex -2.9999999E-02 -1.5000001E-01 -2.2204460E-16
endloop
endfacet
facet normal 0.0000000E+00 9.9999994E-01 0.0000000E+00
outer loop
vertex -2.9999999E-02 -1.5000001E-01 -2.2204460E-16
vertex 2.9999999E-02 -1.5000001E-01 1.5000000E-02
vertex 2.9999999E-02 -1.5000001E-01 -2.2204460E-16
endloop
endfacet
facet normal -0.0000000E+00 -9.9999994E-01 -0.0000000E+00
outer loop
vertex 2.9999999E-02 -2.0000000E-01 2.9999999E-02
vertex -2.9999999E-02 -2.0000000E-01 2.9999999E-02
vertex 2.9999999E-02 -2.0000000E-01 -2.9999999E-02
endloop
endfacet
facet normal 0.0000000E+00 -9.9999994E-01 0.0000000E+00
outer loop
vertex 2.9999999E-02 -2.0000000E-01 -2.9999999E-02
vertex -2.9999999E-02 -2.0000000E-01 2.9999999E-02
vertex -2.9999999E-02 -2.0000000E-01 -2.9999999E-02
endloop
endfacet
facet normal 1.0000000E+00 0.0000000E+00 0.0000000E+00
outer loop
vertex 2.9999999E-02 -1.6500001E-01 2.9999999E-02
vertex 2.9999999E-02 -2.0000000E-01 2.9999999E-02
vertex 2.9999999E-02 -1.5000001E-01 1.5000000E-02
endloop
endfacet
facet normal 9.9999994E-01 0.0000000E+00 0.0000000E+00
outer loop
vertex 2.9999999E-02 -1.5000001E-01 1.5000000E-02
vertex 2.9999999E-02 -2.0000000E-01 2.9999999E-02
vertex 2.9999999E-02 -1.5000001E-01 -2.2204460E-16
endloop
endfacet
facet normal 9.9999994E-01 0.0000000E+00 0.0000000E+00
outer loop
vertex 2.9999999E-02 -1.5000001E-01 -2.2204460E-16
vertex 2.9999999E-02 -2.0000000E-01 2.9999999E-02
vertex 2.9999999E-02 -2.0000000E-01 -2.9999999E-02
endloop
endfacet
facet normal 1.0000000E+00 0.0000000E+00 0.0000000E+00
outer loop
vertex 2.9999999E-02 -1.5000001E-01 -2.2204460E-16
vertex 2.9999999E-02 -2.0000000E-01 -2.9999999E-02
vertex 2.9999999E-02 0.0000000E+00 -2.9999999E-02
endloop
endfacet
facet normal 1.0000000E+00 0.0000000E+00 -0.0000000E+00
outer loop
vertex 2.9999999E-02 0.0000000E+00 -2.9999999E-02
vertex 2.9999999E-02 0.0000000E+00 -2.2204460E-16
vertex 2.9999999E-02 -1.5000001E-01 -2.2204460E-16
endloop
endfacet
facet normal 0.0000000E+00 0.0000000E+00 -1.0000000E+00
outer loop
vertex -2.9999999E-02 -2.0000000E-01 -2.9999999E-02
vertex -4.9922927E-17 -1.5000000E-02 -2.9999999E-02
vertex 2.9999999E-02 -2.0000000E-01 -2.9999999E-02
endloop
endfacet
facet normal 0.0000000E+00 0.0000000E+00 -1.0000000E+00
outer loop
vertex 2.9999999E-02 -2.0000000E-01 -2.9999999E-02
vertex -4.9922927E-17 -1.5000000E-02 -2.9999999E-02
vertex 2.1347224E-03 -1.4847290E-02 -2.9999999E-02
endloop
endfacet
facet normal 0.0000000E+00 0.0000000E+00 -1.0000000E+00
outer loop
vertex 2.9999999E-02 -2.0000000E-01 -2.9999999E-02
vertex 2.1347224E-03 -1.4847290E-02 -2.9999999E-02
vertex 4.2259884E-03 -1.4392334E-02 -2.9999999E-02
endloop
endfacet
facet normal 0.0000000E+00 0.0000000E+00 -1.0000000E+00
outer loop
vertex -2.9999999E-02 0.0000000E+00 -2.9999999E-02
vertex -1.2618803E-02 -8.1096189E-03 -2.9999999E-02
vertex -2.9999999E-02 -2.0000000E-01 -2.9999999E-02
endloop
endfacet
facet normal 0.0000000E+00 0.0000000E+00 -1.0000000E+00
outer loop
vertex -2.9999999E-02 -2.0000000E-01 -2.9999999E-02
vertex -1.2618803E-02 -8.1096189E-03 -2.9999999E-02
vertex -1.1336244E-02 -9.8228762E-03 -2.9999999E-02
endloop
endfacet
facet normal 0.0000000E+00 0.0000000E+00 -1.0000000E+00
outer loop
vertex -2.9999999E-02 -2.0000000E-01 -2.9999999E-02
vertex -1.1336244E-02 -9.8228762E-03 -2.9999999E-02
vertex -9.8229116E-03 -1.1336303E-02 -2.9999999E-02
endloop
endfacet
facet normal 0.0000000E+00 -0.0000000E+00 -1.0000000E+00
outer loop
vertex -2.9846078E-02 3.0350343E-03 -2.9999999E-02
vertex -2.9385900E-02 6.0389405E-03 -2.9999999E-02
vertex -2.9999999E-02 0.0000000E+00 -2.9999999E-02
endloop
endfacet
facet normal 0.0000000E+00 0.0000000E+00 -1.0000000E+00
outer loop
vertex -2.9999999E-02 0.0000000E+00 -2.9999999E-02
vertex -2.9385900E-02 6.0389405E-03 -2.9999999E-02
vertex -2.8624179E-02 8.9808349E-03 -2.9999999E-02
endloop
endfacet
facet normal 0.0000000E+00 0.0000000E+00 -1.0000000E+00
outer loop
vertex -2.9999999E-02 0.0000000E+00 -2.9999999E-02
vertex -2.8624179E-02 8.9808349E-03 -2.9999999E-02
vertex -2.7568735E-02 1.1830688E-02 -2.9999999E-02
endloop
endfacet
facet normal 0.0000000E+00 -0.0000000E+00 -1.0000000E+00
outer loop
vertex -2.7568735E-02 1.1830688E-02 -2.9999999E-02
vertex -2.6230399E-02 1.4559082E-02 -2.9999999E-02
vertex -2.9999999E-02 0.0000000E+00 -2.9999999E-02
endloop
endfacet
facet normal 0.0000000E+00 0.0000000E+00 -9.9999994E-01
outer loop
vertex -2.9999999E-02 0.0000000E+00 -2.9999999E-02
vertex -2.6230399E-02 1.4559082E-02 -2.9999999E-02
vertex -1.4847321E-02 -2.1347657E-03 -2.9999999E-02
endloop
endfacet
facet normal 0.0000000E+00 0.0000000E+00 -1.0000000E+00
outer loop
vertex -2.9999999E-02 0.0000000E+00 -2.9999999E-02
vertex -1.4847321E-02 -2.1347657E-03 -2.9999999E-02
vertex -1.4392394E-02 -4.2259521E-03 -2.9999999E-02
endloop
endfacet
facet normal 0.0000000E+00 0.0000000E+00 -1.0000000E+00
outer loop
vertex -2.6230399E-02 1.4559082E-02 -2.9999999E-02
vertex -2.4622904E-02 1.7138062E-02 -2.9999999E-02
vertex -1.4847321E-02 -2.1347657E-03 -2.9999999E-02
endloop
endfacet
facet normal 0.0000000E+00 0.0000000E+00 -1.0000000E+00
outer loop
vertex -1.4847321E-02 -2.1347657E-03 -2.9999999E-02
vertex -2.4622904E-02 1.7138062E-02 -2.9999999E-02
vertex -1.5000000E-02 0.0000000E+00 -2.9999999E-02
endloop
endfacet
facet normal 0.0000000E+00 0.0000000E+00 -1.0000000E+00
outer loop
vertex -1.5000000E-02 0.0000000E+00 -2.9999999E-02
vertex -2.4622904E-02 1.7138062E-02 -2.9999999E-02
vertex -2.2762744E-02 1.9541137E-02 -2.9999999E-02
endloop
endfacet
facet normal 0.0000000E+00 0.0000000E+00 -9.9999994E-01
outer loop
vertex -1.5000000E-02 0.0000000E+00 -2.9999999E-02
vertex -2.2762744E-02 1.9541137E-02 -2.9999999E-02
vertex -2.0669008E-02 2.1743774E-02 -2.9999999E-02
endloop
endfacet
facet normal 0.0000000E+00 0.0000000E+00 -1.0000000E+00
outer loop
vertex -1.5000000E-02 0.0000000E+00 -2.9999999E-02
vertex -2.0669008E-02 2.1743774E-02 -2.9999999E-02
vertex -1.4847321E-02 2.1347657E-03 -2.9999999E-02
endloop
endfacet
facet normal 0.0000000E+00 0.0000000E+00 -9.9999994E-01
outer loop
vertex -1.4847321E-02 2.1347657E-03 -2.9999999E-02
vertex -2.0669008E-02 2.1743774E-02 -2.9999999E-02
vertex -1.8363180E-02 2.3723267E-02 -2.9999999E-02
endloop
endfacet
facet normal 0.0000000E+00 0.0000000E+00 -1.0000000E+00
outer loop
vertex -1.4847321E-02 2.1347657E-03 -2.9999999E-02
vertex -1.8363180E-02 2.3723267E-02 -2.9999999E-02
vertex -1.4392394E-02 4.2259521E-03 -2.9999999E-02
endloop
endfacet
facet normal 0.0000000E+00 0.0000000E+00 -9.9999994E-01
outer loop
vertex -1.4392394E-02 4.2259521E-03 -2.9999999E-02
vertex -1.8363180E-02 2.3723267E-02 -2.9999999E-02
vertex -1.5868921E-02 2.5459351E-02 -2.9999999E-02
endloop
endfacet
facet normal 0.0000000E+00 0.0000000E+00 -1.0000000E+00
outer loop
vertex -1.4392394E-02 4.2259521E-03 -2.9999999E-02
vertex -1.5868921E-02 2.5459351E-02 -2.9999999E-02
vertex -1.3644480E-02 6.2312013E-03 -2.9999999E-02
endloop
endfacet
facet normal 0.0000000E+00 0.0000000E+00 -1.0000000E+00
outer loop
vertex -1.3644480E-02 6.2312013E-03 -2.9999999E-02
vertex -1.5868921E-02 2.5459351E-02 -2.9999999E-02
vertex -1.2618803E-02 8.1096189E-03 -2.9999999E-02
endloop
endfacet
facet normal 0.0000000E+00 0.0000000E+00 -1.0000000E+00
outer loop
vertex -1.2618803E-02 8.1096189E-03 -2.9999999E-02
vertex -1.5868921E-02 2.5459351E-02 -2.9999999E-02
vertex -1.3211824E-02 2.6934082E-02 -2.9999999E-02
endloop
endfacet
facet normal 0.0000000E+00 0.0000000E+00 -1.0000000E+00
outer loop
vertex -1.2618803E-02 8.1096189E-03 -2.9999999E-02
vertex -1.3211824E-02 2.6934082E-02 -2.9999999E-02
vertex -1.1336244E-02 9.8228762E-03 -2.9999999E-02
endloop
endfacet
facet normal 0.0000000E+00 0.0000000E+00 -1.0000000E+00
outer loop
vertex -1.1336244E-02 9.8228762E-03 -2.9999999E-02
vertex -1.3211824E-02 2.6934082E-02 -2.9999999E-02
vertex -1.0419158E-02 2.8132569E-02 -2.9999999E-02
endloop
endfacet
facet normal 0.0000000E+00 0.0000000E+00 -1.0000000E+00
outer loop
vertex -1.1336244E-02 9.8228762E-03 -2.9999999E-02
vertex -1.0419158E-02 2.8132569E-02 -2.9999999E-02
vertex -9.8229116E-03 1.1336303E-02 -2.9999999E-02
endloop
endfacet
facet normal 0.0000000E+00 0.0000000E+00 -1.0000000E+00
outer loop
vertex -9.8229116E-03 1.1336303E-02 -2.9999999E-02
vertex -1.0419158E-02 2.8132569E-02 -2.9999999E-02
vertex -8.1096124E-03 1.2618775E-02 -2.9999999E-02
endloop
endfacet
facet normal 0.0000000E+00 0.0000000E+00 -1.0000000E+00
outer loop
vertex -8.1096124E-03 1.2618775E-02 -2.9999999E-02
vertex -1.0419158E-02 2.8132569E-02 -2.9999999E-02
vertex -7.5195762E-03 2.9042358E-02 -2.9999999E-02
endloop
endfacet
facet normal 0.0000000E+00 0.0000000E+00 -1.0000000E+00
outer loop
vertex -8.1096124E-03 1.2618775E-02 -2.9999999E-02
vertex -7.5195762E-03 2.9042358E-02 -2.9999999E-02
vertex -6.2312251E-03 1.3644531E-02 -2.9999999E-02
endloop
endfacet
facet normal 0.0000000E+00 0.0000000E+00 -1.0000000E+00
outer loop
vertex -6.2312251E-03 1.3644531E-02 -2.9999999E-02
vertex -7.5195762E-03 2.9042358E-02 -2.9999999E-02
vertex -4.5428332E-03 2.9654052E-02 -2.9999999E-02
endloop
endfacet
facet normal 0.0000000E+00 0.0000000E+00 -1.0000000E+00
outer loop
vertex -6.2312251E-03 1.3644531E-02 -2.9999999E-02
vertex -4.5428332E-03 2.9654052E-02 -2.9999999E-02
vertex -4.2259884E-03 1.4392334E-02 -2.9999999E-02
endloop
endfacet
facet normal 0.0000000E+00 0.0000000E+00 -1.0000000E+00
outer loop
vertex -4.2259884E-03 1.4392334E-02 -2.9999999E-02
vertex -4.5428332E-03 2.9654052E-02 -2.9999999E-02
vertex -2.1347224E-03 1.4847290E-02 -2.9999999E-02
endloop
endfacet
facet normal 0.0000000E+00 0.0000000E+00 -1.0000000E+00
outer loop
vertex -2.1347224E-03 1.4847290E-02 -2.9999999E-02
vertex -4.5428332E-03 2.9654052E-02 -2.9999999E-02
vertex -1.5194751E-03 2.9961549E-02 -2.9999999E-02
endloop
endfacet
facet normal 0.0000000E+00 0.0000000E+00 -1.0000000E+00
outer loop
vertex -2.1347224E-03 1.4847290E-02 -2.9999999E-02
vertex -1.5194751E-03 2.9961549E-02 -2.9999999E-02
vertex -4.8085958E-17 1.5000000E-02 -2.9999999E-02
endloop
endfacet
facet normal 0.0000000E+00 0.0000000E+00 -1.0000000E+00
outer loop
vertex -4.8085958E-17 1.5000000E-02 -2.9999999E-02
vertex -1.5194751E-03 2.9961549E-02 -2.9999999E-02
vertex 1.5194751E-03 2.9961549E-02 -2.9999999E-02
endloop
endfacet
facet normal 0.0000000E+00 0.0000000E+00 -1.0000000E+00
outer loop
vertex -4.8085958E-17 1.5000000E-02 -2.9999999E-02
vertex 1.5194751E-03 2.9961549E-02 -2.9999999E-02
vertex 2.1347224E-03 1.4847290E-02 -2.9999999E-02
endloop
endfacet
facet normal 0.0000000E+00 0.0000000E+00 -1.0000000E+00
outer loop
vertex 2.1347224E-03 1.4847290E-02 -2.9999999E-02
vertex 1.5194751E-03 2.9961549E-02 -2.9999999E-02
vertex 4.5428332E-03 2.9654052E-02 -2.9999999E-02
endloop
endfacet
facet normal 0.0000000E+00 0.0000000E+00 -1.0000000E+00
outer loop
vertex 2.1347224E-03 1.4847290E-02 -2.9999999E-02
vertex 4.5428332E-03 2.9654052E-02 -2.9999999E-02
vertex 4.2259884E-03 1.4392334E-02 -2.9999999E-02
endloop
endfacet
facet normal 0.0000000E+00 0.0000000E+00 -1.0000000E+00
outer loop
vertex 4.2259884E-03 1.4392334E-02 -2.9999999E-02
vertex 4.5428332E-03 2.9654052E-02 -2.9999999E-02
vertex 6.2312251E-03 1.3644531E-02 -2.9999999E-02
endloop
endfacet
facet normal 0.0000000E+00 0.0000000E+00 -1.0000000E+00
outer loop
vertex 6.2312251E-03 1.3644531E-02 -2.9999999E-02
vertex 4.5428332E-03 2.9654052E-02 -2.9999999E-02
vertex 7.5195762E-03 2.9042358E-02 -2.9999999E-02
endloop
endfacet
facet normal 0.0000000E+00 0.0000000E+00 -1.0000000E+00
outer loop
vertex 6.2312251E-03 1.3644531E-02 -2.9999999E-02
vertex 7.5195762E-03 2.9042358E-02 -2.9999999E-02
vertex 8.1096124E-03 1.2618775E-02 -2.9999999E-02
endloop
endfacet
facet normal 0.0000000E+00 0.0000000E+00 -1.0000000E+00
outer loop
vertex 8.1096124E-03 1.2618775E-02 -2.9999999E-02
vertex 7.5195762E-03 2.9042358E-02 -2.9999999E-02
vertex 1.0419158E-02 2.8132569E-02 -2.9999999E-02
endloop
endfacet
facet normal 0.0000000E+00 0.0000000E+00 -9.9999994E-01
outer loop
vertex 8.1096124E-03 1.2618775E-02 -2.9999999E-02
vertex 1.0419158E-02 2.8132569E-02 -2.9999999E-02
vertex 9.8229116E-03 1.1336303E-02 -2.9999999E-02
endloop
endfacet
facet normal 0.0000000E+00 0.0000000E+00 -9.9999994E-01
outer loop
vertex 9.8229116E-03 1.1336303E-02 -2.9999999E-02
vertex 1.0419158E-02 2.8132569E-02 -2.9999999E-02
vertex 1.1336244E-02 9.8228762E-03 -2.9999999E-02
endloop
endfacet
facet normal 0.0000000E+00 0.0000000E+00 -1.0000000E+00
outer loop
vertex 1.1336244E-02 9.8228762E-03 -2.9999999E-02
vertex 1.0419158E-02 2.8132569E-02 -2.9999999E-02
vertex 1.3211824E-02 2.6934082E-02 -2.9999999E-02
endloop
endfacet
facet normal 0.0000000E+00 0.0000000E+00 -9.9999994E-01
outer loop
vertex 1.1336244E-02 9.8228762E-03 -2.9999999E-02
vertex 1.3211824E-02 2.6934082E-02 -2.9999999E-02
vertex 1.2618803E-02 8.1096189E-03 -2.9999999E-02
endloop
endfacet
facet normal 0.0000000E+00 0.0000000E+00 -1.0000000E+00
outer loop
vertex 1.2618803E-02 8.1096189E-03 -2.9999999E-02
vertex 1.3211824E-02 2.6934082E-02 -2.9999999E-02
vertex 1.5868921E-02 2.5459351E-02 -2.9999999E-02
endloop
endfacet
facet normal 0.0000000E+00 0.0000000E+00 -1.0000000E+00
outer loop
vertex 1.2618803E-02 8.1096189E-03 -2.9999999E-02
vertex 1.5868921E-02 2.5459351E-02 -2.9999999E-02
vertex 1.3644480E-02 6.2312013E-03 -2.9999999E-02
endloop
endfacet
facet normal 0.0000000E+00 0.0000000E+00 -1.0000000E+00
outer loop
vertex 1.3644480E-02 6.2312013E-03 -2.9999999E-02
vertex 1.5868921E-02 2.5459351E-02 -2.9999999E-02
vertex 1.4392394E-02 4.2259521E-03 -2.9999999E-02
endloop
endfacet
facet normal 0.0000000E+00 0.0000000E+00 -9.9999994E-01
outer loop
vertex 1.4392394E-02 4.2259521E-03 -2.9999999E-02
vertex 1.5868921E-02 2.5459351E-02 -2.9999999E-02
vertex 1.8363180E-02 2.3723267E-02 -2.9999999E-02
endloop
endfacet
facet normal 0.0000000E+00 0.0000000E+00 -1.0000000E+00
outer loop
vertex 1.4392394E-02 4.2259521E-03 -2.9999999E-02
vertex 1.8363180E-02 2.3723267E-02 -2.9999999E-02
vertex 1.4847321E-02 2.1347657E-03 -2.9999999E-02
endloop
endfacet
facet normal 0.0000000E+00 0.0000000E+00 -9.9999994E-01
outer loop
vertex 1.4847321E-02 2.1347657E-03 -2.9999999E-02
vertex 1.8363180E-02 2.3723267E-02 -2.9999999E-02
vertex 2.0669008E-02 2.1743774E-02 -2.9999999E-02
endloop
endfacet
facet normal 0.0000000E+00 0.0000000E+00 -1.0000000E+00
outer loop
vertex 1.4847321E-02 2.1347657E-03 -2.9999999E-02
vertex 2.0669008E-02 2.1743774E-02 -2.9999999E-02
vertex 1.5000000E-02 0.0000000E+00 -2.9999999E-02
endloop
endfacet
facet normal 0.0000000E+00 0.0000000E+00 -9.9999994E-01
outer loop
vertex 1.5000000E-02 0.0000000E+00 -2.9999999E-02
vertex 2.0669008E-02 2.1743774E-02 -2.9999999E-02
vertex 2.2762744E-02 1.9541137E-02 -2.9999999E-02
endloop
endfacet
facet normal 0.0000000E+00 0.0000000E+00 -1.0000000E+00
outer loop
vertex 1.5000000E-02 0.0000000E+00 -2.9999999E-02
vertex 2.2762744E-02 1.9541137E-02 -2.9999999E-02
vertex 2.4622904E-02 1.7138062E-02 -2.9999999E-02
endloop
endfacet
facet normal 0.0000000E+00 -0.0000000E+00 -1.0000000E+00
outer loop
vertex 1.5000000E-02 0.0000000E+00 -2.9999999E-02
vertex 2.4622904E-02 1.7138062E-02 -2.9999999E-02
vertex 1.4847321E-02 -2.1347657E-03 -2.9999999E-02
endloop
endfacet
facet normal 0.0000000E+00 0.0000000E+00 -1.0000000E+00
outer loop
vertex 1.4847321E-02 -2.1347657E-03 -2.9999999E-02
vertex 2.4622904E-02 1.7138062E-02 -2.9999999E-02
vertex 2.6230399E-02 1.4559082E-02 -2.9999999E-02
endloop
endfacet
facet normal 0.0000000E+00 0.0000000E+00 -9.9999994E-01
outer loop
vertex 1.4847321E-02 -2.1347657E-03 -2.9999999E-02
vertex 2.6230399E-02 1.4559082E-02 -2.9999999E-02
vertex 2.9999999E-02 0.0000000E+00 -2.9999999E-02
endloop
endfacet
facet normal 0.0000000E+00 0.0000000E+00 -1.0000000E+00
outer loop
vertex 2.9999999E-02 0.0000000E+00 -2.9999999E-02
vertex 2.6230399E-02 1.4559082E-02 -2.9999999E-02
vertex 2.7568735E-02 1.1830688E-02 -2.9999999E-02
endloop
endfacet
facet normal 0.0000000E+00 0.0000000E+00 -1.0000000E+00
outer loop
vertex 2.9999999E-02 0.0000000E+00 -2.9999999E-02
vertex 2.7568735E-02 1.1830688E-02 -2.9999999E-02
vertex 2.8624179E-02 8.9808349E-03 -2.9999999E-02
endloop
endfacet
facet normal 0.0000000E+00 0.0000000E+00 -9.9999994E-01
outer loop
vertex 2.8624179E-02 8.9808349E-03 -2.9999999E-02
vertex 2.9385900E-02 6.0389405E-03 -2.9999999E-02
vertex 2.9999999E-02 0.0000000E+00 -2.9999999E-02
endloop
endfacet
facet normal 0.0000000E+00 0.0000000E+00 -1.0000000E+00
outer loop
vertex 2.9999999E-02 0.0000000E+00 -2.9999999E-02
vertex 2.9385900E-02 6.0389405E-03 -2.9999999E-02
vertex 2.9846078E-02 3.0350343E-03 -2.9999999E-02
endloop
endfacet
facet normal 0.0000000E+00 0.0000000E+00 -1.0000000E+00
outer loop
vertex 2.9999999E-02 -2.0000000E-01 -2.9999999E-02
vertex 1.2618803E-02 -8.1096189E-03 -2.9999999E-02
vertex 2.9999999E-02 0.0000000E+00 -2.9999999E-02
endloop
endfacet
facet normal 0.0000000E+00 0.0000000E+00 -9.9999994E-01
outer loop
vertex 2.9999999E-02 0.0000000E+00 -2.9999999E-02
vertex 1.2618803E-02 -8.1096189E-03 -2.9999999E-02
vertex 1.3644480E-02 -6.2312013E-03 -2.9999999E-02
endloop
endfacet
facet normal 0.0000000E+00 0.0000000E+00 -1.0000000E+00
outer loop
vertex 2.9999999E-02 0.0000000E+00 -2.9999999E-02
vertex 1.3644480E-02 -6.2312013E-03 -2.9999999E-02
vertex 1.4392394E-02 -4.2259521E-03 -2.9999999E-02
endloop
endfacet
facet normal -0.0000000E+00 -0.0000000E+00 -1.0000000E+00
outer loop
vertex -1.4392394E-02 -4.2259521E-03 -2.9999999E-02
vertex -1.3644480E-02 -6.2312013E-03 -2.9999999E-02
vertex -2.9999999E-02 0.0000000E+00 -2.9999999E-02
endloop
endfacet
facet normal 0.0000000E+00 0.0000000E+00 -9.9999994E-01
outer loop
vertex -2.9999999E-02 0.0000000E+00 -2.9999999E-02
vertex -1.3644480E-02 -6.2312013E-03 -2.9999999E-02
vertex -1.2618803E-02 -8.1096189E-03 -2.9999999E-02
endloop
endfacet
facet normal 0.0000000E+00 -0.0000000E+00 -1.0000000E+00
outer loop
vertex -9.8229116E-03 -1.1336303E-02 -2.9999999E-02
vertex -8.1096124E-03 -1.2618775E-02 -2.9999999E-02
vertex -2.9999999E-02 -2.0000000E-01 -2.9999999E-02
endloop
endfacet
facet normal 0.0000000E+00 0.0000000E+00 -1.0000000E+00
outer loop
vertex -2.9999999E-02 -2.0000000E-01 -2.9999999E-02
vertex -8.1096124E-03 -1.2618775E-02 -2.9999999E-02
vertex -6.2312251E-03 -1.3644531E-02 -2.9999999E-02
endloop
endfacet
facet normal 0.0000000E+00 0.0000000E+00 -1.0000000E+00
outer loop
vertex -2.9999999E-02 -2.0000000E-01 -2.9999999E-02
vertex -6.2312251E-03 -1.3644531E-02 -2.9999999E-02
vertex -4.2259884E-03 -1.4392334E-02 -2.9999999E-02
endloop
endfacet
facet normal 0.0000000E+00 -0.0000000E+00 -1.0000000E+00
outer loop
vertex -4.2259884E-03 -1.4392334E-02 -2.9999999E-02
vertex -2.1347224E-03 -1.4847290E-02 -2.9999999E-02
vertex -2.9999999E-02 -2.0000000E-01 -2.9999999E-02
endloop
endfacet
facet normal 0.0000000E+00 0.0000000E+00 -1.0000000E+00
outer loop
vertex -2.9999999E-02 -2.0000000E-01 -2.9999999E-02
vertex -2.1347224E-03 -1.4847290E-02 -2.9999999E-02
vertex -4.9922927E-17 -1.5000000E-02 -2.9999999E-02
endloop
endfacet
facet normal 0.0000000E+00 0.0000000E+00 -1.0000000E+00
outer loop
vertex 4.2259884E-03 -1.4392334E-02 -2.9999999E-02
vertex 6.2312251E-03 -1.3644531E-02 -2.9999999E-02
vertex 2.9999999E-02 -2.0000000E-01 -2.9999999E-02
endloop
endfacet
facet normal 0.0000000E+00 0.0000000E+00 -1.0000000E+00
outer loop
vertex 2.9999999E-02 -2.0000000E-01 -2.9999999E-02
vertex 6.2312251E-03 -1.3644531E-02 -2.9999999E-02
vertex 8.1096124E-03 -1.2618775E-02 -2.9999999E-02
endloop
endfacet
facet normal 0.0000000E+00 0.0000000E+00 -1.0000000E+00
outer loop
vertex 2.9999999E-02 -2.0000000E-01 -2.9999999E-02
vertex 8.1096124E-03 -1.2618775E-02 -2.9999999E-02
vertex 9.8229116E-03 -1.1336303E-02 -2.9999999E-02
endloop
endfacet
facet normal 0.0000000E+00 0.0000000E+00 -1.0000000E+00
outer loop
vertex 9.8229116E-03 -1.1336303E-02 -2.9999999E-02
vertex 1.1336244E-02 -9.8228762E-03 -2.9999999E-02
vertex 2.9999999E-02 -2.0000000E-01 -2.9999999E-02
endloop
endfacet
facet normal 0.0000000E+00 0.0000000E+00 -1.0000000E+00
outer loop
vertex 2.9999999E-02 -2.0000000E-01 -2.9999999E-02
vertex 1.1336244E-02 -9.8228762E-03 -2.9999999E-02
vertex 1.2618803E-02 -8.1096189E-03 -2.9999999E-02
endloop
endfacet
facet normal 0.0000000E+00 0.0000000E+00 -1.0000000E+00
outer loop
vertex 1.4392394E-02 -4.2259521E-03 -2.9999999E-02
vertex 1.4847321E-02 -2.1347657E-03 -2.9999999E-02
vertex 2.9999999E-02 0.0000000E+00 -2.9999999E-02
endloop
endfacet
facet normal -9.9871647E-01 5.0649833E-02 0.0000000E+00
outer loop
vertex -2.9999999E-02 0.0000000E+00 -2.9999999E-02
vertex -2.9999999E-02 0.0000000E+00 -2.2204460E-16
vertex -2.9846078E-02 3.0350343E-03 -2.9999999E-02
endloop
endfacet
facet normal -9.9871647E-01 5.0649833E-02 0.0000000E+00
outer loop
vertex -2.9846078E-02 3.0350343E-03 -2.9999999E-02
vertex -2.9999999E-02 0.0000000E+00 -2.2204460E-16
vertex -2.9846078E-02 3.0350343E-03 -2.2204460E-16
endloop
endfacet
facet normal -9.8846853E-01 1.5142652E-01 0.0000000E+00
outer loop
vertex -2.9846078E-02 3.0350343E-03 -2.9999999E-02
vertex -2.9846078E-02 3.0350343E-03 -2.2204460E-16
vertex -2.9385900E-02 6.0389405E-03 -2.9999999E-02
endloop
endfacet
facet normal -9.8846853E-01 1.5142652E-01 0.0000000E+00
outer loop
vertex -2.9385900E-02 6.0389405E-03 -2.9999999E-02
vertex -2.9846078E-02 3.0350343E-03 -2.2204460E-16
vertex -2.9385900E-02 6.0389405E-03 -2.2204460E-16
endloop
endfacet
facet normal -9.6807611E-01 2.5065625E-01 0.0000000E+00
outer loop
vertex -2.9385900E-02 6.0389405E-03 -2.9999999E-02
vertex -2.9385900E-02 6.0389405E-03 -2.2204460E-16
vertex -2.8624179E-02 8.9808349E-03 -2.9999999E-02
endloop
endfacet
facet normal -9.6807611E-01 2.5065625E-01 0.0000000E+00
outer loop
vertex -2.8624179E-02 8.9808349E-03 -2.9999999E-02
vertex -2.9385900E-02 6.0389405E-03 -2.2204460E-16
vertex -2.8624179E-02 8.9808349E-03 -2.2204460E-16
endloop
endfacet
facet normal -9.3775499E-01 3.4729767E-01 0.0000000E+00
outer loop
vertex -2.8624179E-02 8.9808349E-03 -2.9999999E-02
vertex -2.8624179E-02 8.9808349E-03 -2.2204460E-16
vertex -2.7568735E-02 1.1830688E-02 -2.9999999E-02
endloop
endfacet
facet normal -9.3775499E-01 3.4729767E-01 0.0000000E+00
outer loop
vertex -2.7568735E-02 1.1830688E-02 -2.9999999E-02
vertex -2.8624179E-02 8.9808349E-03 -2.2204460E-16
vertex -2.7568735E-02 1.1830688E-02 -2.2204460E-16
endloop
endfacet
facet normal -8.9780509E-01 4.4039306E-01 0.0000000E+00
outer loop
vertex -2.7568735E-02 1.1830688E-02 -2.9999999E-02
vertex -2.7568735E-02 1.1830688E-02 -2.2204460E-16
vertex -2.6230399E-02 1.4559082E-02 -2.9999999E-02
endloop
endfacet
facet normal -8.9780509E-01 4.4039306E-01 0.0000000E+00
outer loop
vertex -2.6230399E-02 1.4559082E-02 -2.9999999E-02
vertex -2.7568735E-02 1.1830688E-02 -2.2204460E-16
vertex -2.6230399E-02 1.4559082E-02 -2.2204460E-16
endloop
endfacet
facet normal -8.4864372E-01 5.2896488E-01 0.0000000E+00
outer loop
vertex -2.6230399E-02 1.4559082E-02 -2.9999999E-02
vertex -2.6230399E-02 1.4559082E-02 -2.2204460E-16
vertex -2.4622904E-02 1.7138062E-02 -2.9999999E-02
endloop
endfacet
facet normal -8.4864372E-01 5.2896488E-01 0.0000000E+00
outer loop
vertex -2.4622904E-02 1.7138062E-02 -2.9999999E-02
vertex -2.6230399E-02 1.4559082E-02 -2.2204460E-16
vertex -2.4622904E-02 1.7138062E-02 -2.2204460E-16
endloop
endfacet
facet normal -7.9076910E-01 6.1211461E-01 0.0000000E+00
outer loop
vertex -2.4622904E-02 1.7138062E-02 -2.9999999E-02
vertex -2.4622904E-02 1.7138062E-02 -2.2204460E-16
vertex -2.2762744E-02 1.9541137E-02 -2.9999999E-02
endloop
endfacet
facet normal -7.9076910E-01 6.1211461E-01 0.0000000E+00
outer loop
vertex -2.2762744E-02 1.9541137E-02 -2.9999999E-02
vertex -2.4622904E-02 1.7138062E-02 -2.2204460E-16
vertex -2.2762744E-02 1.9541137E-02 -2.2204460E-16
endloop
endfacet
facet normal -7.2479731E-01 6.8896228E-01 0.0000000E+00
outer loop
vertex -2.2762744E-02 1.9541137E-02 -2.9999999E-02
vertex -2.2762744E-02 1.9541137E-02 -2.2204460E-16
vertex -2.0669008E-02 2.1743774E-02 -2.9999999E-02
endloop
endfacet
facet normal -7.2479731E-01 6.8896228E-01 0.0000000E+00
outer loop
vertex -2.0669008E-02 2.1743774E-02 -2.9999999E-02
vertex -2.2762744E-02 1.9541137E-02 -2.2204460E-16
vertex -2.0669008E-02 2.1743774E-02 -2.2204460E-16
endloop
endfacet
facet normal -6.5137321E-01 7.5875741E-01 0.0000000E+00
outer loop
vertex -2.0669008E-02 2.1743774E-02 -2.9999999E-02
vertex -2.0669008E-02 2.1743774E-02 -2.2204460E-16
vertex -1.8363180E-02 2.3723267E-02 -2.9999999E-02
endloop
endfacet
facet normal -6.5137321E-01 7.5875741E-01 0.0000000E+00
outer loop
vertex -1.8363180E-02 2.3723267E-02 -2.9999999E-02
vertex -2.0669008E-02 2.1743774E-02 -2.2204460E-16
vertex -1.8363180E-02 2.3723267E-02 -2.2204460E-16
endloop
endfacet
facet normal -5.7127458E-01 8.2075900E-01 0.0000000E+00
outer loop
vertex -1.8363180E-02 2.3723267E-02 -2.9999999E-02
vertex -1.8363180E-02 2.3723267E-02 -2.2204460E-16
vertex -1.5868921E-02 2.5459351E-02 -2.9999999E-02
endloop
endfacet
facet normal -5.7127458E-01 8.2075900E-01 0.0000000E+00
outer loop
vertex -1.5868921E-02 2.5459351E-02 -2.9999999E-02
vertex -1.8363180E-02 2.3723267E-02 -2.2204460E-16
vertex -1.5868921E-02 2.5459351E-02 -2.2204460E-16
endloop
endfacet
facet normal -4.8528221E-01 8.7435752E-01 0.0000000E+00
outer loop
vertex -1.5868921E-02 2.5459351E-02 -2.9999999E-02
vertex -1.5868921E-02 2.5459351E-02 -2.2204460E-16
vertex -1.3211824E-02 2.6934082E-02 -2.9999999E-02
endloop
endfacet
facet normal -4.8528221E-01 8.7435752E-01 0.0000000E+00
outer loop
vertex -1.3211824E-02 2.6934082E-02 -2.9999999E-02
vertex -1.5868921E-02 2.5459351E-02 -2.2204460E-16
vertex -1.3211824E-02 2.6934082E-02 -2.2204460E-16
endloop
endfacet
facet normal -3.9437255E-01 9.1895056E-01 0.0000000E+00
outer loop
vertex -1.3211824E-02 2.6934082E-02 -2.9999999E-02
vertex -1.3211824E-02 2.6934082E-02 -2.2204460E-16
vertex -1.0419158E-02 2.8132569E-02 -2.9999999E-02
endloop
endfacet
facet normal -3.9437255E-01 9.1895056E-01 0.0000000E+00
outer loop
vertex -1.0419158E-02 2.8132569E-02 -2.9999999E-02
vertex -1.3211824E-02 2.6934082E-02 -2.2204460E-16
vertex -1.0419158E-02 2.8132569E-02 -2.2204460E-16
endloop
endfacet
facet normal -2.9937476E-01 9.5413560E-01 0.0000000E+00
outer loop
vertex -1.0419158E-02 2.8132569E-02 -2.9999999E-02
vertex -1.0419158E-02 2.8132569E-02 -2.2204460E-16
vertex -7.5195762E-03 2.9042358E-02 -2.9999999E-02
endloop
endfacet
facet normal -2.9937476E-01 9.5413560E-01 0.0000000E+00
outer loop
vertex -7.5195762E-03 2.9042358E-02 -2.9999999E-02
vertex -1.0419158E-02 2.8132569E-02 -2.2204460E-16
vertex -7.5195762E-03 2.9042358E-02 -2.2204460E-16
endloop
endfacet
facet normal -2.0128535E-01 9.7953266E-01 0.0000000E+00
outer loop
vertex -7.5195762E-03 2.9042358E-02 -2.9999999E-02
vertex -7.5195762E-03 2.9042358E-02 -2.2204460E-16
vertex -4.5428332E-03 2.9654052E-02 -2.9999999E-02
endloop
endfacet
facet normal -2.0128535E-01 9.7953266E-01 0.0000000E+00
outer loop
vertex -4.5428332E-03 2.9654052E-02 -2.9999999E-02
vertex -7.5195762E-03 2.9042358E-02 -2.2204460E-16
vertex -4.5428332E-03 2.9654052E-02 -2.2204460E-16
endloop
endfacet
facet normal -1.0118499E-01 9.9486756E-01 0.0000000E+00
outer loop
vertex -4.5428332E-03 2.9654052E-02 -2.9999999E-02
vertex -4.5428332E-03 2.9654052E-02 -2.2204460E-16
vertex -1.5194751E-03 2.9961549E-02 -2.9999999E-02
endloop
endfacet
facet normal -1.0118499E-01 9.9486756E-01 0.0000000E+00
outer loop
vertex -1.5194751E-03 2.9961549E-02 -2.9999999E-02
vertex -4.5428332E-03 2.9654052E-02 -2.2204460E-16
vertex -1.5194751E-03 2.9961549E-02 -2.2204460E-16
endloop
endfacet
facet normal 0.0000000E+00 1.0000000E+00 0.0000000E+00
outer loop
vertex -1.5194751E-03 2.9961549E-02 -2.9999999E-02
vertex -1.5194751E-03 2.9961549E-02 -2.2204460E-16
vertex 1.5194751E-03 2.9961549E-02 -2.9999999E-02
endloop
endfacet
facet normal 0.0000000E+00 1.0000000E+00 -0.0000000E+00
outer loop
vertex 1.5194751E-03 2.9961549E-02 -2.9999999E-02
vertex -1.5194751E-03 2.9961549E-02 -2.2204460E-16
vertex 1.5194751E-03 2.9961549E-02 -2.2204460E-16
endloop
endfacet
facet normal 1.0118499E-01 9.9486756E-01 -0.0000000E+00
outer loop
vertex 1.5194751E-03 2.9961549E-02 -2.9999999E-02
vertex 1.5194751E-03 2.9961549E-02 -2.2204460E-16
vertex 4.5428332E-03 2.9654052E-02 -2.9999999E-02
endloop
endfacet
facet normal 1.0118499E-01 9.9486756E-01 -0.0000000E+00
outer loop
vertex 4.5428332E-03 2.9654052E-02 -2.9999999E-02
vertex 1.5194751E-03 2.9961549E-02 -2.2204460E-16
vertex 4.5428332E-03 2.9654052E-02 -2.2204460E-16
endloop
endfacet
facet normal 2.0128535E-01 9.7953266E-01 -0.0000000E+00
outer loop
vertex 4.5428332E-03 2.9654052E-02 -2.9999999E-02
vertex 4.5428332E-03 2.9654052E-02 -2.2204460E-16
vertex 7.5195762E-03 2.9042358E-02 -2.9999999E-02
endloop
endfacet
facet normal 2.0128535E-01 9.7953266E-01 -0.0000000E+00
outer loop
vertex 7.5195762E-03 2.9042358E-02 -2.9999999E-02
vertex 4.5428332E-03 2.9654052E-02 -2.2204460E-16
vertex 7.5195762E-03 2.9042358E-02 -2.2204460E-16
endloop
endfacet
facet normal 2.9937476E-01 9.5413560E-01 -0.0000000E+00
outer loop
vertex 7.5195762E-03 2.9042358E-02 -2.9999999E-02
vertex 7.5195762E-03 2.9042358E-02 -2.2204460E-16
vertex 1.0419158E-02 2.8132569E-02 -2.9999999E-02
endloop
endfacet
facet normal 2.9937476E-01 9.5413560E-01 -0.0000000E+00
outer loop
vertex 1.0419158E-02 2.8132569E-02 -2.9999999E-02
vertex 7.5195762E-03 2.9042358E-02 -2.2204460E-16
vertex 1.0419158E-02 2.8132569E-02 -2.2204460E-16
endloop
endfacet
facet normal 3.9437255E-01 9.1895056E-01 -0.0000000E+00
outer loop
vertex 1.0419158E-02 2.8132569E-02 -2.9999999E-02
vertex 1.0419158E-02 2.8132569E-02 -2.2204460E-16
vertex 1.3211824E-02 2.6934082E-02 -2.9999999E-02
endloop
endfacet
facet normal 3.9437255E-01 9.1895056E-01 -0.0000000E+00
outer loop
vertex 1.3211824E-02 2.6934082E-02 -2.9999999E-02
vertex 1.0419158E-02 2.8132569E-02 -2.2204460E-16
vertex 1.3211824E-02 2.6934082E-02 -2.2204460E-16
endloop
endfacet
facet normal 4.8528221E-01 8.7435752E-01 -0.0000000E+00
outer loop
vertex 1.3211824E-02 2.6934082E-02 -2.9999999E-02
vertex 1.3211824E-02 2.6934082E-02 -2.2204460E-16
vertex 1.5868921E-02 2.5459351E-02 -2.9999999E-02
endloop
endfacet
facet normal 4.8528221E-01 8.7435752E-01 -0.0000000E+00
outer loop
vertex 1.5868921E-02 2.5459351E-02 -2.9999999E-02
vertex 1.3211824E-02 2.6934082E-02 -2.2204460E-16
vertex 1.5868921E-02 2.5459351E-02 -2.2204460E-16
endloop
endfacet
facet normal 5.7127458E-01 8.2075900E-01 -0.0000000E+00
outer loop
vertex 1.5868921E-02 2.5459351E-02 -2.9999999E-02
vertex 1.5868921E-02 2.5459351E-02 -2.2204460E-16
vertex 1.8363180E-02 2.3723267E-02 -2.9999999E-02
endloop
endfacet
facet normal 5.7127458E-01 8.2075900E-01 -0.0000000E+00
outer loop
vertex 1.8363180E-02 2.3723267E-02 -2.9999999E-02
vertex 1.5868921E-02 2.5459351E-02 -2.2204460E-16
vertex 1.8363180E-02 2.3723267E-02 -2.2204460E-16
endloop
endfacet
facet normal 6.5137321E-01 7.5875741E-01 -0.0000000E+00
outer loop
vertex 1.8363180E-02 2.3723267E-02 -2.9999999E-02
vertex 1.8363180E-02 2.3723267E-02 -2.2204460E-16
vertex 2.0669008E-02 2.1743774E-02 -2.9999999E-02
endloop
endfacet
facet normal 6.5137321E-01 7.5875741E-01 -0.0000000E+00
outer loop
vertex 2.0669008E-02 2.1743774E-02 -2.9999999E-02
vertex 1.8363180E-02 2.3723267E-02 -2.2204460E-16
vertex 2.0669008E-02 2.1743774E-02 -2.2204460E-16
endloop
endfacet
facet normal 7.2479731E-01 6.8896228E-01 -0.0000000E+00
outer loop
vertex 2.0669008E-02 2.1743774E-02 -2.9999999E-02
vertex 2.0669008E-02 2.1743774E-02 -2.2204460E-16
vertex 2.2762744E-02 1.9541137E-02 -2.9999999E-02
endloop
endfacet
facet normal 7.2479731E-01 6.8896228E-01 -0.0000000E+00
outer loop
vertex 2.2762744E-02 1.9541137E-02 -2.9999999E-02
vertex 2.0669008E-02 2.1743774E-02 -2.2204460E-16
vertex 2.2762744E-02 1.9541137E-02 -2.2204460E-16
endloop
endfacet
facet normal 7.9076910E-01 6.1211461E-01 -0.0000000E+00
outer loop
vertex 2.2762744E-02 1.9541137E-02 -2.9999999E-02
vertex 2.2762744E-02 1.9541137E-02 -2.2204460E-16
vertex 2.4622904E-02 1.7138062E-02 -2.9999999E-02
endloop
endfacet
facet normal 7.9076910E-01 6.1211461E-01 -0.0000000E+00
outer loop
vertex 2.4622904E-02 1.7138062E-02 -2.9999999E-02
vertex 2.2762744E-02 1.9541137E-02 -2.2204460E-16
vertex 2.4622904E-02 1.7138062E-02 -2.2204460E-16
endloop
endfacet
facet normal 8.4864372E-01 5.2896488E-01 -0.0000000E+00
outer loop
vertex 2.4622904E-02 1.7138062E-02 -2.9999999E-02
vertex 2.4622904E-02 1.7138062E-02 -2.2204460E-16
vertex 2.6230399E-02 1.4559082E-02 -2.9999999E-02
endloop
endfacet
facet normal 8.4864372E-01 5.2896488E-01 -0.0000000E+00
outer loop
vertex 2.6230399E-02 1.4559082E-02 -2.9999999E-02
vertex 2.4622904E-02 1.7138062E-02 -2.2204460E-16
vertex 2.6230399E-02 1.4559082E-02 -2.2204460E-16
endloop
endfacet
facet normal 8.9780509E-01 4.4039306E-01 -0.0000000E+00
outer loop
vertex 2.6230399E-02 1.4559082E-02 -2.9999999E-02
vertex 2.6230399E-02 1.4559082E-02 -2.2204460E-16
vertex 2.7568735E-02 1.1830688E-02 -2.9999999E-02
endloop
endfacet
facet normal 8.9780509E-01 4.4039306E-01 -0.0000000E+00
outer loop
vertex 2.7568735E-02 1.1830688E-02 -2.9999999E-02
vertex 2.6230399E-02 1.4559082E-02 -2.2204460E-16
vertex 2.7568735E-02 1.1830688E-02 -2.2204460E-16
endloop
endfacet
facet normal 9.3775499E-01 3.4729767E-01 -0.0000000E+00
outer loop
vertex 2.7568735E-02 1.1830688E-02 -2.9999999E-02
vertex 2.7568735E-02 1.1830688E-02 -2.2204460E-16
vertex 2.8624179E-02 8.9808349E-03 -2.9999999E-02
endloop
endfacet
facet normal 9.3775499E-01 3.4729767E-01 -0.0000000E+00
outer loop
vertex 2.8624179E-02 8.9808349E-03 -2.9999999E-02
vertex 2.7568735E-02 1.1830688E-02 -2.2204460E-16
vertex 2.8624179E-02 8.9808349E-03 -2.2204460E-16
endloop
endfacet
facet normal 9.6807611E-01 2.5065625E-01 -0.0000000E+00
outer loop
vertex 2.8624179E-02 8.9808349E-03 -2.9999999E-02
vertex 2.8624179E-02 8.9808349E-03 -2.2204460E-16
vertex 2.9385900E-02 6.0389405E-03 -2.9999999E-02
endloop
endfacet
facet normal 9.6807611E-01 2.5065625E-01 -0.0000000E+00
outer loop
vertex 2.9385900E-02 6.0389405E-03 -2.9999999E-02
vertex 2.8624179E-02 8.9808349E-03 -2.2204460E-16
vertex 2.9385900E-02 6.0389405E-03 -2.2204460E-16
endloop
endfacet
facet normal 9.8846853E-01 1.5142652E-01 -0.0000000E+00
outer loop
vertex 2.9385900E-02 6.0389405E-03 -2.9999999E-02
vertex 2.9385900E-02 6.0389405E-03 -2.2204460E-16
vertex 2.9846078E-02 3.0350343E-03 -2.9999999E-02
endloop
endfacet
facet normal 9.8846853E-01 1.5142652E-01 -0.0000000E+00
outer loop
vertex 2.9846078E-02 3.0350343E-03 -2.9999999E-02
vertex 2.9385900E-02 6.0389405E-03 -2.2204460E-16
vertex 2.9846078E-02 3.0350343E-03 -2.2204460E-16
endloop
endfacet
facet normal 9.9871647E-01 5.0649833E-02 -0.0000000E+00
outer loop
vertex 2.9846078E-02 3.0350343E-03 -2.9999999E-02
vertex 2.9846078E-02 3.0350343E-03 -2.2204460E-16
vertex 2.9999999E-02 0.0000000E+00 -2.9999999E-02
endloop
endfacet
facet normal 9.9871647E-01 5.0649833E-02 -0.0000000E+00
outer loop
vertex 2.9999999E-02 0.0000000E+00 -2.9999999E-02
vertex 2.9846078E-02 3.0350343E-03 -2.2204460E-16
vertex 2.9999999E-02 0.0000000E+00 -2.2204460E-16
endloop
endfacet
facet normal -7.1353845E-02 9.9745113E-01 0.0000000E+00
outer loop
vertex 2.1347224E-03 -1.4847290E-02 -2.2204460E-16
vertex 2.1347224E-03 -1.4847290E-02 -2.9999999E-02
vertex -4.9922927E-17 -1.5000000E-02 -2.2204460E-16
endloop
endfacet
facet normal -7.1353845E-02 9.9745113E-01 0.0000000E+00
outer loop
vertex -4.9922927E-17 -1.5000000E-02 -2.2204460E-16
vertex 2.1347224E-03 -1.4847290E-02 -2.9999999E-02
vertex -4.9922927E-17 -1.5000000E-02 -2.9999999E-02
endloop
endfacet
facet normal 7.1353845E-02 9.9745113E-01 0.0000000E+00
outer loop
vertex -4.9922927E-17 -1.5000000E-02 -2.2204460E-16
vertex -4.9922927E-17 -1.5000000E-02 -2.9999999E-02
vertex -2.1347224E-03 -1.4847290E-02 -2.2204460E-16
endloop
endfacet
facet normal 7.1353845E-02 9.9745113E-01 0.0000000E+00
outer loop
vertex -2.1347224E-03 -1.4847290E-02 -2.2204460E-16
vertex -4.9922927E-17 -1.5000000E-02 -2.9999999E-02
vertex -2.1347224E-03 -1.4847290E-02 -2.9999999E-02
endloop
endfacet
facet normal 2.1257809E-01 9.7714412E-01 0.0000000E+00
outer loop
vertex -2.1347224E-03 -1.4847290E-02 -2.2204460E-16
vertex -2.1347224E-03 -1.4847290E-02 -2.9999999E-02
vertex -4.2259884E-03 -1.4392334E-02 -2.2204460E-16
endloop
endfacet
facet normal 2.1257809E-01 9.7714412E-01 0.0000000E+00
outer loop
vertex -4.2259884E-03 -1.4392334E-02 -2.2204460E-16
vertex -2.1347224E-03 -1.4847290E-02 -2.9999999E-02
vertex -4.2259884E-03 -1.4392334E-02 -2.9999999E-02
endloop
endfacet
facet normal 3.4941825E-01 9.3696684E-01 0.0000000E+00
outer loop
vertex -4.2259884E-03 -1.4392334E-02 -2.2204460E-16
vertex -4.2259884E-03 -1.4392334E-02 -2.9999999E-02
vertex -6.2312251E-03 -1.3644531E-02 -2.2204460E-16
endloop
endfacet
facet normal 3.4941825E-01 9.3696684E-01 0.0000000E+00
outer loop
vertex -6.2312251E-03 -1.3644531E-02 -2.2204460E-16
vertex -4.2259884E-03 -1.4392334E-02 -2.9999999E-02
vertex -6.2312251E-03 -1.3644531E-02 -2.9999999E-02
endloop
endfacet
facet normal 4.7927767E-01 8.7766331E-01 0.0000000E+00
outer loop
vertex -6.2312251E-03 -1.3644531E-02 -2.2204460E-16
vertex -6.2312251E-03 -1.3644531E-02 -2.9999999E-02
vertex -8.1096124E-03 -1.2618775E-02 -2.2204460E-16
endloop
endfacet
facet normal 4.7927767E-01 8.7766331E-01 0.0000000E+00
outer loop
vertex -8.1096124E-03 -1.2618775E-02 -2.2204460E-16
vertex -6.2312251E-03 -1.3644531E-02 -2.9999999E-02
vertex -8.1096124E-03 -1.2618775E-02 -2.9999999E-02
endloop
endfacet
facet normal 5.9925115E-01 8.0056107E-01 0.0000000E+00
outer loop
vertex -8.1096124E-03 -1.2618775E-02 -2.2204460E-16
vertex -8.1096124E-03 -1.2618775E-02 -2.9999999E-02
vertex -9.8229116E-03 -1.1336303E-02 -2.2204460E-16
endloop
endfacet
facet normal 5.9925115E-01 8.0056107E-01 0.0000000E+00
outer loop
vertex -9.8229116E-03 -1.1336303E-02 -2.2204460E-16
vertex -8.1096124E-03 -1.2618775E-02 -2.9999999E-02
vertex -9.8229116E-03 -1.1336303E-02 -2.9999999E-02
endloop
endfacet
facet normal 7.0712900E-01 7.0708460E-01 0.0000000E+00
outer loop
vertex -9.8229116E-03 -1.1336303E-02 -2.2204460E-16
vertex -9.8229116E-03 -1.1336303E-02 -2.9999999E-02
vertex -1.1336244E-02 -9.8228762E-03 -2.2204460E-16
endloop
endfacet
facet normal 7.0712900E-01 7.0708460E-01 0.0000000E+00
outer loop
vertex -1.1336244E-02 -9.8228762E-03 -2.2204460E-16
vertex -9.8229116E-03 -1.1336303E-02 -2.9999999E-02
vertex -1.1336244E-02 -9.8228762E-03 -2.9999999E-02
endloop
endfacet
facet normal 8.0053419E-01 5.9928709E-01 0.0000000E+00
outer loop
vertex -1.1336244E-02 -9.8228762E-03 -2.2204460E-16
vertex -1.1336244E-02 -9.8228762E-03 -2.9999999E-02
vertex -1.2618803E-02 -8.1096189E-03 -2.2204460E-16
endloop
endfacet
facet normal 8.0053419E-01 5.9928709E-01 0.0000000E+00
outer loop
vertex -1.2618803E-02 -8.1096189E-03 -2.2204460E-16
vertex -1.1336244E-02 -9.8228762E-03 -2.9999999E-02
vertex -1.2618803E-02 -8.1096189E-03 -2.9999999E-02
endloop
endfacet
facet normal 8.7768233E-01 4.7924292E-01 0.0000000E+00
outer loop
vertex -1.2618803E-02 -8.1096189E-03 -2.2204460E-16
vertex -1.2618803E-02 -8.1096189E-03 -2.9999999E-02
vertex -1.3644480E-02 -6.2312013E-03 -2.2204460E-16
endloop
endfacet
facet normal 8.7768233E-01 4.7924292E-01 0.0000000E+00
outer loop
vertex -1.3644480E-02 -6.2312013E-03 -2.2204460E-16
vertex -1.2618803E-02 -8.1096189E-03 -2.9999999E-02
vertex -1.3644480E-02 -6.2312013E-03 -2.9999999E-02
endloop
endfacet
facet normal 9.3695062E-01 3.4946179E-01 0.0000000E+00
outer loop
vertex -1.3644480E-02 -6.2312013E-03 -2.2204460E-16
vertex -1.3644480E-02 -6.2312013E-03 -2.9999999E-02
vertex -1.4392394E-02 -4.2259521E-03 -2.2204460E-16
endloop
endfacet
facet normal 9.3695062E-01 3.4946179E-01 0.0000000E+00
outer loop
vertex -1.4392394E-02 -4.2259521E-03 -2.2204460E-16
vertex -1.3644480E-02 -6.2312013E-03 -2.9999999E-02
vertex -1.4392394E-02 -4.2259521E-03 -2.9999999E-02
endloop
endfacet
facet normal 9.7714525E-01 2.1257293E-01 0.0000000E+00
outer loop
vertex -1.4392394E-02 -4.2259521E-03 -2.2204460E-16
vertex -1.4392394E-02 -4.2259521E-03 -2.9999999E-02
vertex -1.4847321E-02 -2.1347657E-03 -2.2204460E-16
endloop
endfacet
facet normal 9.7714525E-01 2.1257293E-01 0.0000000E+00
outer loop
vertex -1.4847321E-02 -2.1347657E-03 -2.2204460E-16
vertex -1.4392394E-02 -4.2259521E-03 -2.9999999E-02
vertex -1.4847321E-02 -2.1347657E-03 -2.9999999E-02
endloop
endfacet
facet normal 9.9745220E-01 7.1338110E-02 0.0000000E+00
outer loop
vertex -1.4847321E-02 -2.1347657E-03 -2.2204460E-16
vertex -1.4847321E-02 -2.1347657E-03 -2.9999999E-02
vertex -1.5000000E-02 0.0000000E+00 -2.2204460E-16
endloop
endfacet
facet normal 9.9745220E-01 7.1338110E-02 0.0000000E+00
outer loop
vertex -1.5000000E-02 0.0000000E+00 -2.2204460E-16
vertex -1.4847321E-02 -2.1347657E-03 -2.9999999E-02
vertex -1.5000000E-02 0.0000000E+00 -2.9999999E-02
endloop
endfacet
facet normal 9.9745220E-01 -7.1338110E-02 0.0000000E+00
outer loop
vertex -1.5000000E-02 0.0000000E+00 -2.2204460E-16
vertex -1.5000000E-02 0.0000000E+00 -2.9999999E-02
vertex -1.4847321E-02 2.1347657E-03 -2.2204460E-16
endloop
endfacet
facet normal 9.9745220E-01 -7.1338110E-02 0.0000000E+00
outer loop
vertex -1.4847321E-02 2.1347657E-03 -2.2204460E-16
vertex -1.5000000E-02 0.0000000E+00 -2.9999999E-02
vertex -1.4847321E-02 2.1347657E-03 -2.9999999E-02
endloop
endfacet
facet normal 9.7714525E-01 -2.1257293E-01 0.0000000E+00
outer loop
vertex -1.4847321E-02 2.1347657E-03 -2.2204460E-16
vertex -1.4847321E-02 2.1347657E-03 -2.9999999E-02
vertex -1.4392394E-02 4.2259521E-03 -2.2204460E-16
endloop
endfacet
facet normal 9.7714525E-01 -2.1257293E-01 0.0000000E+00
outer loop
vertex -1.4392394E-02 4.2259521E-03 -2.2204460E-16
vertex -1.4847321E-02 2.1347657E-03 -2.9999999E-02
vertex -1.4392394E-02 4.2259521E-03 -2.9999999E-02
endloop
endfacet
facet normal 9.3695062E-01 -3.4946179E-01 0.0000000E+00
outer loop
vertex -1.4392394E-02 4.2259521E-03 -2.2204460E-16
vertex -1.4392394E-02 4.2259521E-03 -2.9999999E-02
vertex -1.3644480E-02 6.2312013E-03 -2.2204460E-16
endloop
endfacet
facet normal 9.3695062E-01 -3.4946179E-01 0.0000000E+00
outer loop
vertex -1.3644480E-02 6.2312013E-03 -2.2204460E-16
vertex -1.4392394E-02 4.2259521E-03 -2.9999999E-02
vertex -1.3644480E-02 6.2312013E-03 -2.9999999E-02
endloop
endfacet
facet normal 8.7768233E-01 -4.7924292E-01 0.0000000E+00
outer loop
vertex -1.3644480E-02 6.2312013E-03 -2.2204460E-16
vertex -1.3644480E-02 6.2312013E-03 -2.9999999E-02
vertex -1.2618803E-02 8.1096189E-03 -2.2204460E-16
endloop
endfacet
facet normal 8.7768233E-01 -4.7924292E-01 0.0000000E+00
outer loop
vertex -1.2618803E-02 8.1096189E-03 -2.2204460E-16
vertex -1.3644480E-02 6.2312013E-03 -2.9999999E-02
vertex -1.2618803E-02 8.1096189E-03 -2.9999999E-02
endloop
endfacet
facet normal 8.0053419E-01 -5.9928709E-01 0.0000000E+00
outer loop
vertex -1.2618803E-02 8.1096189E-03 -2.2204460E-16
vertex -1.2618803E-02 8.1096189E-03 -2.9999999E-02
vertex -1.1336244E-02 9.8228762E-03 -2.2204460E-16
endloop
endfacet
facet normal 8.0053419E-01 -5.9928709E-01 0.0000000E+00
outer loop
vertex -1.1336244E-02 9.8228762E-03 -2.2204460E-16
vertex -1.2618803E-02 8.1096189E-03 -2.9999999E-02
vertex -1.1336244E-02 9.8228762E-03 -2.9999999E-02
endloop
endfacet
facet normal 7.0712900E-01 -7.0708460E-01 0.0000000E+00
outer loop
vertex -1.1336244E-02 9.8228762E-03 -2.2204460E-16
vertex -1.1336244E-02 9.8228762E-03 -2.9999999E-02
vertex -9.8229116E-03 1.1336303E-02 -2.2204460E-16
endloop
endfacet
facet normal 7.0712900E-01 -7.0708460E-01 0.0000000E+00
outer loop
vertex -9.8229116E-03 1.1336303E-02 -2.2204460E-16
vertex -1.1336244E-02 9.8228762E-03 -2.9999999E-02
vertex -9.8229116E-03 1.1336303E-02 -2.9999999E-02
endloop
endfacet
facet normal 5.9925115E-01 -8.0056107E-01 0.0000000E+00
outer loop
vertex -9.8229116E-03 1.1336303E-02 -2.2204460E-16
vertex -9.8229116E-03 1.1336303E-02 -2.9999999E-02
vertex -8.1096124E-03 1.2618775E-02 -2.2204460E-16
endloop
endfacet
facet normal 5.9925115E-01 -8.0056107E-01 0.0000000E+00
outer loop
vertex -8.1096124E-03 1.2618775E-02 -2.2204460E-16
vertex -9.8229116E-03 1.1336303E-02 -2.9999999E-02
vertex -8.1096124E-03 1.2618775E-02 -2.9999999E-02
endloop
endfacet
facet normal 4.7927767E-01 -8.7766331E-01 0.0000000E+00
outer loop
vertex -8.1096124E-03 1.2618775E-02 -2.2204460E-16
vertex -8.1096124E-03 1.2618775E-02 -2.9999999E-02
vertex -6.2312251E-03 1.3644531E-02 -2.2204460E-16
endloop
endfacet
facet normal 4.7927767E-01 -8.7766331E-01 0.0000000E+00
outer loop
vertex -6.2312251E-03 1.3644531E-02 -2.2204460E-16
vertex -8.1096124E-03 1.2618775E-02 -2.9999999E-02
vertex -6.2312251E-03 1.3644531E-02 -2.9999999E-02
endloop
endfacet
facet normal 3.4941825E-01 -9.3696684E-01 0.0000000E+00
outer loop
vertex -6.2312251E-03 1.3644531E-02 -2.2204460E-16
vertex -6.2312251E-03 1.3644531E-02 -2.9999999E-02
vertex -4.2259884E-03 1.4392334E-02 -2.2204460E-16
endloop
endfacet
facet normal 3.4941825E-01 -9.3696684E-01 0.0000000E+00
outer loop
vertex -4.2259884E-03 1.4392334E-02 -2.2204460E-16
vertex -6.2312251E-03 1.3644531E-02 -2.9999999E-02
vertex -4.2259884E-03 1.4392334E-02 -2.9999999E-02
endloop
endfacet
facet normal 2.1257809E-01 -9.7714412E-01 0.0000000E+00
outer loop
vertex -4.2259884E-03 1.4392334E-02 -2.2204460E-16
vertex -4.2259884E-03 1.4392334E-02 -2.9999999E-02
vertex -2.1347224E-03 1.4847290E-02 -2.2204460E-16
endloop
endfacet
facet normal 2.1257809E-01 -9.7714412E-01 0.0000000E+00
outer loop
vertex -2.1347224E-03 1.4847290E-02 -2.2204460E-16
vertex -4.2259884E-03 1.4392334E-02 -2.9999999E-02
vertex -2.1347224E-03 1.4847290E-02 -2.9999999E-02
endloop
endfacet
facet normal 7.1353845E-02 -9.9745113E-01 0.0000000E+00
outer loop
vertex -2.1347224E-03 1.4847290E-02 -2.2204460E-16
vertex -2.1347224E-03 1.4847290E-02 -2.9999999E-02
vertex -4.6248985E-17 1.5000000E-02 -2.2204460E-16
endloop
endfacet
facet normal 7.1353845E-02 -9.9745113E-01 -4.3691696E-18
outer loop
vertex -4.6248985E-17 1.5000000E-02 -2.2204460E-16
vertex -2.1347224E-03 1.4847290E-02 -2.9999999E-02
vertex -4.8085958E-17 1.5000000E-02 -2.9999999E-02
endloop
endfacet
facet normal -7.1353845E-02 -9.9745113E-01 4.3691696E-18
outer loop
vertex -4.6248985E-17 1.5000000E-02 -2.2204460E-16
vertex -4.8085958E-17 1.5000000E-02 -2.9999999E-02
vertex 2.1347224E-03 1.4847290E-02 -2.2204460E-16
endloop
endfacet
facet normal -7.1353845E-02 -9.9745113E-01 -0.0000000E+00
outer loop
vertex 2.1347224E-03 1.4847290E-02 -2.2204460E-16
vertex -4.8085958E-17 1.5000000E-02 -2.9999999E-02
vertex 2.1347224E-03 1.4847290E-02 -2.9999999E-02
endloop
endfacet
facet normal -2.1257809E-01 -9.7714412E-01 -0.0000000E+00
outer loop
vertex 2.1347224E-03 1.4847290E-02 -2.2204460E-16
vertex 2.1347224E-03 1.4847290E-02 -2.9999999E-02
vertex 4.2259884E-03 1.4392334E-02 -2.2204460E-16
endloop
endfacet
facet normal -2.1257809E-01 -9.7714412E-01 -0.0000000E+00
outer loop
vertex 4.2259884E-03 1.4392334E-02 -2.2204460E-16
vertex 2.1347224E-03 1.4847290E-02 -2.9999999E-02
vertex 4.2259884E-03 1.4392334E-02 -2.9999999E-02
endloop
endfacet
facet normal -3.4941825E-01 -9.3696684E-01 -0.0000000E+00
outer loop
vertex 4.2259884E-03 1.4392334E-02 -2.2204460E-16
vertex 4.2259884E-03 1.4392334E-02 -2.9999999E-02
vertex 6.2312251E-03 1.3644531E-02 -2.2204460E-16
endloop
endfacet
facet normal -3.4941825E-01 -9.3696684E-01 -0.0000000E+00
outer loop
vertex 6.2312251E-03 1.3644531E-02 -2.2204460E-16
vertex 4.2259884E-03 1.4392334E-02 -2.9999999E-02
vertex 6.2312251E-03 1.3644531E-02 -2.9999999E-02
endloop
endfacet
facet normal -4.7927767E-01 -8.7766331E-01 -0.0000000E+00
outer loop
vertex 6.2312251E-03 1.3644531E-02 -2.2204460E-16
vertex 6.2312251E-03 1.3644531E-02 -2.9999999E-02
vertex 8.1096124E-03 1.2618775E-02 -2.2204460E-16
endloop
endfacet
facet normal -4.7927767E-01 -8.7766331E-01 -0.0000000E+00
outer loop
vertex 8.1096124E-03 1.2618775E-02 -2.2204460E-16
vertex 6.2312251E-03 1.3644531E-02 -2.9999999E-02
vertex 8.1096124E-03 1.2618775E-02 -2.9999999E-02
endloop
endfacet
facet normal -5.9925115E-01 -8.0056107E-01 -0.0000000E+00
outer loop
vertex 8.1096124E-03 1.2618775E-02 -2.2204460E-16
vertex 8.1096124E-03 1.2618775E-02 -2.9999999E-02
vertex 9.8229116E-03 1.1336303E-02 -2.2204460E-16
endloop
endfacet
facet normal -5.9925115E-01 -8.0056107E-01 -0.0000000E+00
outer loop
vertex 9.8229116E-03 1.1336303E-02 -2.2204460E-16
vertex 8.1096124E-03 1.2618775E-02 -2.9999999E-02
vertex 9.8229116E-03 1.1336303E-02 -2.9999999E-02
endloop
endfacet
facet normal -7.0712900E-01 -7.0708460E-01 -0.0000000E+00
outer loop
vertex 9.8229116E-03 1.1336303E-02 -2.2204460E-16
vertex 9.8229116E-03 1.1336303E-02 -2.9999999E-02
vertex 1.1336244E-02 9.8228762E-03 -2.2204460E-16
endloop
endfacet
facet normal -7.0712900E-01 -7.0708460E-01 -0.0000000E+00
outer loop
vertex 1.1336244E-02 9.8228762E-03 -2.2204460E-16
vertex 9.8229116E-03 1.1336303E-02 -2.9999999E-02
vertex 1.1336244E-02 9.8228762E-03 -2.9999999E-02
endloop
endfacet
facet normal -8.0053419E-01 -5.9928709E-01 -0.0000000E+00
outer loop
vertex 1.1336244E-02 9.8228762E-03 -2.2204460E-16
vertex 1.1336244E-02 9.8228762E-03 -2.9999999E-02
vertex 1.2618803E-02 8.1096189E-03 -2.2204460E-16
endloop
endfacet
facet normal -8.0053419E-01 -5.9928709E-01 -0.0000000E+00
outer loop
vertex 1.2618803E-02 8.1096189E-03 -2.2204460E-16
vertex 1.1336244E-02 9.8228762E-03 -2.9999999E-02
vertex 1.2618803E-02 8.1096189E-03 -2.9999999E-02
endloop
endfacet
facet normal -8.7768233E-01 -4.7924292E-01 -0.0000000E+00
outer loop
vertex 1.2618803E-02 8.1096189E-03 -2.2204460E-16
vertex 1.2618803E-02 8.1096189E-03 -2.9999999E-02
vertex 1.3644480E-02 6.2312013E-03 -2.2204460E-16
endloop
endfacet
facet normal -8.7768233E-01 -4.7924292E-01 -0.0000000E+00
outer loop
vertex 1.3644480E-02 6.2312013E-03 -2.2204460E-16
vertex 1.2618803E-02 8.1096189E-03 -2.9999999E-02
vertex 1.3644480E-02 6.2312013E-03 -2.9999999E-02
endloop
endfacet
facet normal -9.3695062E-01 -3.4946179E-01 -0.0000000E+00
outer loop
vertex 1.3644480E-02 6.2312013E-03 -2.2204460E-16
vertex 1.3644480E-02 6.2312013E-03 -2.9999999E-02
vertex 1.4392394E-02 4.2259521E-03 -2.2204460E-16
endloop
endfacet
facet normal -9.3695062E-01 -3.4946179E-01 -0.0000000E+00
outer loop
vertex 1.4392394E-02 4.2259521E-03 -2.2204460E-16
vertex 1.3644480E-02 6.2312013E-03 -2.9999999E-02
vertex 1.4392394E-02 4.2259521E-03 -2.9999999E-02
endloop
endfacet
facet normal -9.7714525E-01 -2.1257293E-01 -0.0000000E+00
outer loop
vertex 1.4392394E-02 4.2259521E-03 -2.2204460E-16
vertex 1.4392394E-02 4.2259521E-03 -2.9999999E-02
vertex 1.4847321E-02 2.1347657E-03 -2.2204460E-16
endloop
endfacet
facet normal -9.7714525E-01 -2.1257293E-01 -0.0000000E+00
outer loop
vertex 1.4847321E-02 2.1347657E-03 -2.2204460E-16
vertex 1.4392394E-02 4.2259521E-03 -2.9999999E-02
vertex 1.4847321E-02 2.1347657E-03 -2.9999999E-02
endloop
endfacet
facet normal -9.9745220E-01 -7.1338110E-02 -0.0000000E+00
outer loop
vertex 1.4847321E-02 2.1347657E-03 -2.2204460E-16
vertex 1.4847321E-02 2.1347657E-03 -2.9999999E-02
vertex 1.5000000E-02 0.0000000E+00 -2.2204460E-16
endloop
endfacet
facet normal -9.9745220E-01 -7.1338110E-02 -0.0000000E+00
outer loop
vertex 1.5000000E-02 0.0000000E+00 -2.2204460E-16
vertex 1.4847321E-02 2.1347657E-03 -2.9999999E-02
vertex 1.5000000E-02 0.0000000E+00 -2.9999999E-02
endloop
endfacet
facet normal -9.9745220E-01 7.1338110E-02 0.0000000E+00
outer loop
vertex 1.5000000E-02 0.0000000E+00 -2.2204460E-16
vertex 1.5000000E-02 0.0000000E+00 -2.9999999E-02
vertex 1.4847321E-02 -2.1347657E-03 -2.2204460E-16
endloop
endfacet
facet normal -9.9745220E-01 7.1338110E-02 0.0000000E+00
outer loop
vertex 1.4847321E-02 -2.1347657E-03 -2.2204460E-16
vertex 1.5000000E-02 0.0000000E+00 -2.9999999E-02
vertex 1.4847321E-02 -2.1347657E-03 -2.9999999E-02
endloop
endfacet
facet normal -9.7714525E-01 2.1257293E-01 0.0000000E+00
outer loop
vertex 1.4847321E-02 -2.1347657E-03 -2.2204460E-16
vertex 1.4847321E-02 -2.1347657E-03 -2.9999999E-02
vertex 1.4392394E-02 -4.2259521E-03 -2.2204460E-16
endloop
endfacet
facet normal -9.7714525E-01 2.1257293E-01 0.0000000E+00
outer loop
vertex 1.4392394E-02 -4.2259521E-03 -2.2204460E-16
vertex 1.4847321E-02 -2.1347657E-03 -2.9999999E-02
vertex 1.4392394E-02 -4.2259521E-03 -2.9999999E-02
endloop
endfacet
facet normal -9.3695062E-01 3.4946179E-01 0.0000000E+00
outer loop
vertex 1.4392394E-02 -4.2259521E-03 -2.2204460E-16
vertex 1.4392394E-02 -4.2259521E-03 -2.9999999E-02
vertex 1.3644480E-02 -6.2312013E-03 -2.2204460E-16
endloop
endfacet
facet normal -9.3695062E-01 3.4946179E-01 0.0000000E+00
outer loop
vertex 1.3644480E-02 -6.2312013E-03 -2.2204460E-16
vertex 1.4392394E-02 -4.2259521E-03 -2.9999999E-02
vertex 1.3644480E-02 -6.2312013E-03 -2.9999999E-02
endloop
endfacet
facet normal -8.7768233E-01 4.7924292E-01 0.0000000E+00
outer loop
vertex 1.3644480E-02 -6.2312013E-03 -2.2204460E-16
vertex 1.3644480E-02 -6.2312013E-03 -2.9999999E-02
vertex 1.2618803E-02 -8.1096189E-03 -2.2204460E-16
endloop
endfacet
facet normal -8.7768233E-01 4.7924292E-01 0.0000000E+00
outer loop
vertex 1.2618803E-02 -8.1096189E-03 -2.2204460E-16
vertex 1.3644480E-02 -6.2312013E-03 -2.9999999E-02
vertex 1.2618803E-02 -8.1096189E-03 -2.9999999E-02
endloop
endfacet
facet normal -8.0053419E-01 5.9928709E-01 0.0000000E+00
outer loop
vertex 1.2618803E-02 -8.1096189E-03 -2.2204460E-16
vertex 1.2618803E-02 -8.1096189E-03 -2.9999999E-02
vertex 1.1336244E-02 -9.8228762E-03 -2.2204460E-16
endloop
endfacet
facet normal -8.0053419E-01 5.9928709E-01 0.0000000E+00
outer loop
vertex 1.1336244E-02 -9.8228762E-03 -2.2204460E-16
vertex 1.2618803E-02 -8.1096189E-03 -2.9999999E-02
vertex 1.1336244E-02 -9.8228762E-03 -2.9999999E-02
endloop
endfacet
facet normal -7.0712900E-01 7.0708460E-01 0.0000000E+00
outer loop
vertex 1.1336244E-02 -9.8228762E-03 -2.2204460E-16
vertex 1.1336244E-02 -9.8228762E-03 -2.9999999E-02
vertex 9.8229116E-03 -1.1336303E-02 -2.2204460E-16
endloop
endfacet
facet normal -7.0712900E-01 7.0708460E-01 0.0000000E+00
outer loop
vertex 9.8229116E-03 -1.1336303E-02 -2.2204460E-16
vertex 1.1336244E-02 -9.8228762E-03 -2.9999999E-02
vertex 9.8229116E-03 -1.1336303E-02 -2.9999999E-02
endloop
endfacet
facet normal -5.9925115E-01 8.0056107E-01 0.0000000E+00
outer loop
vertex 9.8229116E-03 -1.1336303E-02 -2.2204460E-16
vertex 9.8229116E-03 -1.1336303E-02 -2.9999999E-02
vertex 8.1096124E-03 -1.2618775E-02 -2.2204460E-16
endloop
endfacet
facet normal -5.9925115E-01 8.0056107E-01 0.0000000E+00
outer loop
vertex 8.1096124E-03 -1.2618775E-02 -2.2204460E-16
vertex 9.8229116E-03 -1.1336303E-02 -2.9999999E-02
vertex 8.1096124E-03 -1.2618775E-02 -2.9999999E-02
endloop
endfacet
facet normal -4.7927767E-01 8.7766331E-01 0.0000000E+00
outer loop
vertex 8.1096124E-03 -1.2618775E-02 -2.2204460E-16
vertex 8.1096124E-03 -1.2618775E-02 -2.9999999E-02
vertex 6.2312251E-03 -1.3644531E-02 -2.2204460E-16
endloop
endfacet
facet normal -4.7927767E-01 8.7766331E-01 0.0000000E+00
outer loop
vertex 6.2312251E-03 -1.3644531E-02 -2.2204460E-16
vertex 8.1096124E-03 -1.2618775E-02 -2.9999999E-02
vertex 6.2312251E-03 -1.3644531E-02 -2.9999999E-02
endloop
endfacet
facet normal -3.4941825E-01 9.3696684E-01 0.0000000E+00
outer loop
vertex 6.2312251E-03 -1.3644531E-02 -2.2204460E-16
vertex 6.2312251E-03 -1.3644531E-02 -2.9999999E-02
vertex 4.2259884E-03 -1.4392334E-02 -2.2204460E-16
endloop
endfacet
facet normal -3.4941825E-01 9.3696684E-01 0.0000000E+00
outer loop
vertex 4.2259884E-03 -1.4392334E-02 -2.2204460E-16
vertex 6.2312251E-03 -1.3644531E-02 -2.9999999E-02
vertex 4.2259884E-03 -1.4392334E-02 -2.9999999E-02
endloop
endfacet
facet normal -2.1257809E-01 9.7714412E-01 0.0000000E+00
outer loop
vertex 4.2259884E-03 -1.4392334E-02 -2.2204460E-16
vertex 4.2259884E-03 -1.4392334E-02 -2.9999999E-02
vertex 2.1347224E-03 -1.4847290E-02 -2.2204460E-16
endloop
endfacet
facet normal -2.1257809E-01 9.7714412E-01 0.0000000E+00
outer loop
vertex 2.1347224E-03 -1.4847290E-02 -2.2204460E-16
vertex 4.2259884E-03 -1.4392334E-02 -2.9999999E-02
vertex 2.1347224E-03 -1.4847290E-02 -2.9999999E-02
endloop
endfacet
facet normal 0.0000000E+00 0.0000000E+00 1.0000000E+00
outer loop
vertex 2.9999999E-02 -1.5000001E-01 -2.2204460E-16
vertex -4.9922927E-17 -1.5000000E-02 -2.2204460E-16
vertex -2.9999999E-02 -1.5000001E-01 -2.2204460E-16
endloop
endfacet
facet normal 0.0000000E+00 0.0000000E+00 1.0000000E+00
outer loop
vertex -2.9999999E-02 -1.5000001E-01 -2.2204460E-16
vertex -4.9922927E-17 -1.5000000E-02 -2.2204460E-16
vertex -2.1347224E-03 -1.4847290E-02 -2.2204460E-16
endloop
endfacet
facet normal 0.0000000E+00 0.0000000E+00 1.0000000E+00
outer loop
vertex -2.9999999E-02 -1.5000001E-01 -2.2204460E-16
vertex -2.1347224E-03 -1.4847290E-02 -2.2204460E-16
vertex -4.2259884E-03 -1.4392334E-02 -2.2204460E-16
endloop
endfacet
facet normal 0.0000000E+00 0.0000000E+00 1.0000000E+00
outer loop
vertex 2.9999999E-02 0.0000000E+00 -2.2204460E-16
vertex 1.2618803E-02 -8.1096189E-03 -2.2204460E-16
vertex 2.9999999E-02 -1.5000001E-01 -2.2204460E-16
endloop
endfacet
facet normal 0.0000000E+00 0.0000000E+00 1.0000000E+00
outer loop
vertex 2.9999999E-02 -1.5000001E-01 -2.2204460E-16
vertex 1.2618803E-02 -8.1096189E-03 -2.2204460E-16
vertex 1.1336244E-02 -9.8228762E-03 -2.2204460E-16
endloop
endfacet
facet normal 0.0000000E+00 0.0000000E+00 1.0000000E+00
outer loop
vertex 2.9999999E-02 -1.5000001E-01 -2.2204460E-16
vertex 1.1336244E-02 -9.8228762E-03 -2.2204460E-16
vertex 9.8229116E-03 -1.1336303E-02 -2.2204460E-16
endloop
endfacet
facet normal 0.0000000E+00 0.0000000E+00 1.0000000E+00
outer loop
vertex 2.9846078E-02 3.0350343E-03 -2.2204460E-16
vertex 2.9385900E-02 6.0389405E-03 -2.2204460E-16
vertex 2.9999999E-02 0.0000000E+00 -2.2204460E-16
endloop
endfacet
facet normal 0.0000000E+00 0.0000000E+00 1.0000000E+00
outer loop
vertex 2.9999999E-02 0.0000000E+00 -2.2204460E-16
vertex 2.9385900E-02 6.0389405E-03 -2.2204460E-16
vertex 2.8624179E-02 8.9808349E-03 -2.2204460E-16
endloop
endfacet
facet normal 0.0000000E+00 0.0000000E+00 1.0000000E+00
outer loop
vertex 2.9999999E-02 0.0000000E+00 -2.2204460E-16
vertex 2.8624179E-02 8.9808349E-03 -2.2204460E-16
vertex 2.7568735E-02 1.1830688E-02 -2.2204460E-16
endloop
endfacet
facet normal 0.0000000E+00 0.0000000E+00 9.9999994E-01
outer loop
vertex 2.9999999E-02 0.0000000E+00 -2.2204460E-16
vertex 2.7568735E-02 1.1830688E-02 -2.2204460E-16
vertex 1.4847321E-02 -2.1347657E-03 -2.2204460E-16
endloop
endfacet
facet normal 0.0000000E+00 0.0000000E+00 1.0000000E+00
outer loop
vertex 1.4847321E-02 -2.1347657E-03 -2.2204460E-16
vertex 2.7568735E-02 1.1830688E-02 -2.2204460E-16
vertex 2.6230399E-02 1.4559082E-02 -2.2204460E-16
endloop
endfacet
facet normal 0.0000000E+00 0.0000000E+00 1.0000000E+00
outer loop
vertex 1.4847321E-02 -2.1347657E-03 -2.2204460E-16
vertex 2.6230399E-02 1.4559082E-02 -2.2204460E-16
vertex 1.5000000E-02 0.0000000E+00 -2.2204460E-16
endloop
endfacet
facet normal 0.0000000E+00 0.0000000E+00 1.0000000E+00
outer loop
vertex 1.5000000E-02 0.0000000E+00 -2.2204460E-16
vertex 2.6230399E-02 1.4559082E-02 -2.2204460E-16
vertex 2.4622904E-02 1.7138062E-02 -2.2204460E-16
endloop
endfacet
facet normal 0.0000000E+00 0.0000000E+00 1.0000000E+00
outer loop
vertex 1.5000000E-02 0.0000000E+00 -2.2204460E-16
vertex 2.4622904E-02 1.7138062E-02 -2.2204460E-16
vertex 2.2762744E-02 1.9541137E-02 -2.2204460E-16
endloop
endfacet
facet normal 0.0000000E+00 -0.0000000E+00 1.0000000E+00
outer loop
vertex 1.5000000E-02 0.0000000E+00 -2.2204460E-16
vertex 2.2762744E-02 1.9541137E-02 -2.2204460E-16
vertex 1.4847321E-02 2.1347657E-03 -2.2204460E-16
endloop
endfacet
facet normal 0.0000000E+00 0.0000000E+00 1.0000000E+00
outer loop
vertex 1.4847321E-02 2.1347657E-03 -2.2204460E-16
vertex 2.2762744E-02 1.9541137E-02 -2.2204460E-16
vertex 2.0669008E-02 2.1743774E-02 -2.2204460E-16
endloop
endfacet
facet normal 0.0000000E+00 -0.0000000E+00 1.0000000E+00
outer loop
vertex 1.4847321E-02 2.1347657E-03 -2.2204460E-16
vertex 2.0669008E-02 2.1743774E-02 -2.2204460E-16
vertex 1.4392394E-02 4.2259521E-03 -2.2204460E-16
endloop
endfacet
facet normal 0.0000000E+00 0.0000000E+00 1.0000000E+00
outer loop
vertex 1.4392394E-02 4.2259521E-03 -2.2204460E-16
vertex 2.0669008E-02 2.1743774E-02 -2.2204460E-16
vertex 1.8363180E-02 2.3723267E-02 -2.2204460E-16
endloop
endfacet
facet normal 0.0000000E+00 -0.0000000E+00 1.0000000E+00
outer loop
vertex 1.4392394E-02 4.2259521E-03 -2.2204460E-16
vertex 1.8363180E-02 2.3723267E-02 -2.2204460E-16
vertex 1.3644480E-02 6.2312013E-03 -2.2204460E-16
endloop
endfacet
facet normal 0.0000000E+00 0.0000000E+00 1.0000000E+00
outer loop
vertex 1.3644480E-02 6.2312013E-03 -2.2204460E-16
vertex 1.8363180E-02 2.3723267E-02 -2.2204460E-16
vertex 1.5868921E-02 2.5459351E-02 -2.2204460E-16
endloop
endfacet
facet normal 0.0000000E+00 -0.0000000E+00 1.0000000E+00
outer loop
vertex 1.3644480E-02 6.2312013E-03 -2.2204460E-16
vertex 1.5868921E-02 2.5459351E-02 -2.2204460E-16
vertex 1.2618803E-02 8.1096189E-03 -2.2204460E-16
endloop
endfacet
facet normal 0.0000000E+00 0.0000000E+00 1.0000000E+00
outer loop
vertex 1.2618803E-02 8.1096189E-03 -2.2204460E-16
vertex 1.5868921E-02 2.5459351E-02 -2.2204460E-16
vertex 1.3211824E-02 2.6934082E-02 -2.2204460E-16
endloop
endfacet
facet normal 0.0000000E+00 -0.0000000E+00 1.0000000E+00
outer loop
vertex 1.2618803E-02 8.1096189E-03 -2.2204460E-16
vertex 1.3211824E-02 2.6934082E-02 -2.2204460E-16
vertex 1.1336244E-02 9.8228762E-03 -2.2204460E-16
endloop
endfacet
facet normal 0.0000000E+00 -0.0000000E+00 9.9999994E-01
outer loop
vertex 1.1336244E-02 9.8228762E-03 -2.2204460E-16
vertex 1.3211824E-02 2.6934082E-02 -2.2204460E-16
vertex 9.8229116E-03 1.1336303E-02 -2.2204460E-16
endloop
endfacet
facet normal 0.0000000E+00 0.0000000E+00 9.9999994E-01
outer loop
vertex 9.8229116E-03 1.1336303E-02 -2.2204460E-16
vertex 1.3211824E-02 2.6934082E-02 -2.2204460E-16
vertex 1.0419158E-02 2.8132569E-02 -2.2204460E-16
endloop
endfacet
facet normal 0.0000000E+00 -0.0000000E+00 1.0000000E+00
outer loop
vertex 9.8229116E-03 1.1336303E-02 -2.2204460E-16
vertex 1.0419158E-02 2.8132569E-02 -2.2204460E-16
vertex 8.1096124E-03 1.2618775E-02 -2.2204460E-16
endloop
endfacet
facet normal 0.0000000E+00 -0.0000000E+00 1.0000000E+00
outer loop
vertex 8.1096124E-03 1.2618775E-02 -2.2204460E-16
vertex 1.0419158E-02 2.8132569E-02 -2.2204460E-16
vertex 7.5195762E-03 2.9042358E-02 -2.2204460E-16
endloop
endfacet
facet normal 0.0000000E+00 0.0000000E+00 1.0000000E+00
outer loop
vertex 8.1096124E-03 1.2618775E-02 -2.2204460E-16
vertex 7.5195762E-03 2.9042358E-02 -2.2204460E-16
vertex 6.2312251E-03 1.3644531E-02 -2.2204460E-16
endloop
endfacet
facet normal 0.0000000E+00 -0.0000000E+00 1.0000000E+00
outer loop
vertex 6.2312251E-03 1.3644531E-02 -2.2204460E-16
vertex 7.5195762E-03 2.9042358E-02 -2.2204460E-16
vertex 4.5428332E-03 2.9654052E-02 -2.2204460E-16
endloop
endfacet
facet normal 0.0000000E+00 0.0000000E+00 1.0000000E+00
outer loop
vertex 6.2312251E-03 1.3644531E-02 -2.2204460E-16
vertex 4.5428332E-03 2.9654052E-02 -2.2204460E-16
vertex 4.2259884E-03 1.4392334E-02 -2.2204460E-16
endloop
endfacet
facet normal 0.0000000E+00 -0.0000000E+00 1.0000000E+00
outer loop
vertex 4.2259884E-03 1.4392334E-02 -2.2204460E-16
vertex 4.5428332E-03 2.9654052E-02 -2.2204460E-16
vertex 2.1347224E-03 1.4847290E-02 -2.2204460E-16
endloop
endfacet
facet normal 0.0000000E+00 -0.0000000E+00 1.0000000E+00
outer loop
vertex 2.1347224E-03 1.4847290E-02 -2.2204460E-16
vertex 4.5428332E-03 2.9654052E-02 -2.2204460E-16
vertex 1.5194751E-03 2.9961549E-02 -2.2204460E-16
endloop
endfacet
facet normal 0.0000000E+00 0.0000000E+00 1.0000000E+00
outer loop
vertex 2.1347224E-03 1.4847290E-02 -2.2204460E-16
vertex 1.5194751E-03 2.9961549E-02 -2.2204460E-16
vertex -4.6248985E-17 1.5000000E-02 -2.2204460E-16
endloop
endfacet
facet normal 0.0000000E+00 -0.0000000E+00 1.0000000E+00
outer loop
vertex -4.6248985E-17 1.5000000E-02 -2.2204460E-16
vertex 1.5194751E-03 2.9961549E-02 -2.2204460E-16
vertex -1.5194751E-03 2.9961549E-02 -2.2204460E-16
endloop
endfacet
facet normal 0.0000000E+00 0.0000000E+00 1.0000000E+00
outer loop
vertex -4.6248985E-17 1.5000000E-02 -2.2204460E-16
vertex -1.5194751E-03 2.9961549E-02 -2.2204460E-16
vertex -2.1347224E-03 1.4847290E-02 -2.2204460E-16
endloop
endfacet
facet normal 0.0000000E+00 -0.0000000E+00 1.0000000E+00
outer loop
vertex -2.1347224E-03 1.4847290E-02 -2.2204460E-16
vertex -1.5194751E-03 2.9961549E-02 -2.2204460E-16
vertex -4.5428332E-03 2.9654052E-02 -2.2204460E-16
endloop
endfacet
facet normal 0.0000000E+00 0.0000000E+00 1.0000000E+00
outer loop
vertex -2.1347224E-03 1.4847290E-02 -2.2204460E-16
vertex -4.5428332E-03 2.9654052E-02 -2.2204460E-16
vertex -4.2259884E-03 1.4392334E-02 -2.2204460E-16
endloop
endfacet
facet normal 0.0000000E+00 0.0000000E+00 1.0000000E+00
outer loop
vertex -4.2259884E-03 1.4392334E-02 -2.2204460E-16
vertex -4.5428332E-03 2.9654052E-02 -2.2204460E-16
vertex -6.2312251E-03 1.3644531E-02 -2.2204460E-16
endloop
endfacet
facet normal 0.0000000E+00 -0.0000000E+00 1.0000000E+00
outer loop
vertex -6.2312251E-03 1.3644531E-02 -2.2204460E-16
vertex -4.5428332E-03 2.9654052E-02 -2.2204460E-16
vertex -7.5195762E-03 2.9042358E-02 -2.2204460E-16
endloop
endfacet
facet normal 0.0000000E+00 0.0000000E+00 1.0000000E+00
outer loop
vertex -6.2312251E-03 1.3644531E-02 -2.2204460E-16
vertex -7.5195762E-03 2.9042358E-02 -2.2204460E-16
vertex -8.1096124E-03 1.2618775E-02 -2.2204460E-16
endloop
endfacet
facet normal 0.0000000E+00 -0.0000000E+00 1.0000000E+00
outer loop
vertex -8.1096124E-03 1.2618775E-02 -2.2204460E-16
vertex -7.5195762E-03 2.9042358E-02 -2.2204460E-16
vertex -1.0419158E-02 2.8132569E-02 -2.2204460E-16
endloop
endfacet
facet normal 0.0000000E+00 0.0000000E+00 9.9999994E-01
outer loop
vertex -8.1096124E-03 1.2618775E-02 -2.2204460E-16
vertex -1.0419158E-02 2.8132569E-02 -2.2204460E-16
vertex -9.8229116E-03 1.1336303E-02 -2.2204460E-16
endloop
endfacet
facet normal 0.0000000E+00 0.0000000E+00 9.9999994E-01
outer loop
vertex -9.8229116E-03 1.1336303E-02 -2.2204460E-16
vertex -1.0419158E-02 2.8132569E-02 -2.2204460E-16
vertex -1.3211824E-02 2.6934082E-02 -2.2204460E-16
endloop
endfacet
facet normal 0.0000000E+00 0.0000000E+00 1.0000000E+00
outer loop
vertex -9.8229116E-03 1.1336303E-02 -2.2204460E-16
vertex -1.3211824E-02 2.6934082E-02 -2.2204460E-16
vertex -1.1336244E-02 9.8228762E-03 -2.2204460E-16
endloop
endfacet
facet normal 0.0000000E+00 0.0000000E+00 9.9999994E-01
outer loop
vertex -1.1336244E-02 9.8228762E-03 -2.2204460E-16
vertex -1.3211824E-02 2.6934082E-02 -2.2204460E-16
vertex -1.2618803E-02 8.1096189E-03 -2.2204460E-16
endloop
endfacet
facet normal 0.0000000E+00 0.0000000E+00 1.0000000E+00
outer loop
vertex -1.2618803E-02 8.1096189E-03 -2.2204460E-16
vertex -1.3211824E-02 2.6934082E-02 -2.2204460E-16
vertex -1.5868921E-02 2.5459351E-02 -2.2204460E-16
endloop
endfacet
facet normal 0.0000000E+00 0.0000000E+00 1.0000000E+00
outer loop
vertex -1.2618803E-02 8.1096189E-03 -2.2204460E-16
vertex -1.5868921E-02 2.5459351E-02 -2.2204460E-16
vertex -1.3644480E-02 6.2312013E-03 -2.2204460E-16
endloop
endfacet
facet normal 0.0000000E+00 0.0000000E+00 1.0000000E+00
outer loop
vertex -1.3644480E-02 6.2312013E-03 -2.2204460E-16
vertex -1.5868921E-02 2.5459351E-02 -2.2204460E-16
vertex -1.8363180E-02 2.3723267E-02 -2.2204460E-16
endloop
endfacet
facet normal 0.0000000E+00 0.0000000E+00 1.0000000E+00
outer loop
vertex -1.3644480E-02 6.2312013E-03 -2.2204460E-16
vertex -1.8363180E-02 2.3723267E-02 -2.2204460E-16
vertex -1.4392394E-02 4.2259521E-03 -2.2204460E-16
endloop
endfacet
facet normal 0.0000000E+00 0.0000000E+00 1.0000000E+00
outer loop
vertex -1.4392394E-02 4.2259521E-03 -2.2204460E-16
vertex -1.8363180E-02 2.3723267E-02 -2.2204460E-16
vertex -2.0669008E-02 2.1743774E-02 -2.2204460E-16
endloop
endfacet
facet normal 0.0000000E+00 0.0000000E+00 1.0000000E+00
outer loop
vertex -1.4392394E-02 4.2259521E-03 -2.2204460E-16
vertex -2.0669008E-02 2.1743774E-02 -2.2204460E-16
vertex -1.4847321E-02 2.1347657E-03 -2.2204460E-16
endloop
endfacet
facet normal 0.0000000E+00 0.0000000E+00 1.0000000E+00
outer loop
vertex -1.4847321E-02 2.1347657E-03 -2.2204460E-16
vertex -2.0669008E-02 2.1743774E-02 -2.2204460E-16
vertex -2.2762744E-02 1.9541137E-02 -2.2204460E-16
endloop
endfacet
facet normal 0.0000000E+00 0.0000000E+00 1.0000000E+00
outer loop
vertex -1.4847321E-02 2.1347657E-03 -2.2204460E-16
vertex -2.2762744E-02 1.9541137E-02 -2.2204460E-16
vertex -1.5000000E-02 0.0000000E+00 -2.2204460E-16
endloop
endfacet
facet normal 0.0000000E+00 0.0000000E+00 1.0000000E+00
outer loop
vertex -1.5000000E-02 0.0000000E+00 -2.2204460E-16
vertex -2.2762744E-02 1.9541137E-02 -2.2204460E-16
vertex -2.4622904E-02 1.7138062E-02 -2.2204460E-16
endloop
endfacet
facet normal 0.0000000E+00 0.0000000E+00 1.0000000E+00
outer loop
vertex -1.5000000E-02 0.0000000E+00 -2.2204460E-16
vertex -2.4622904E-02 1.7138062E-02 -2.2204460E-16
vertex -2.6230399E-02 1.4559082E-02 -2.2204460E-16
endloop
endfacet
facet normal 0.0000000E+00 0.0000000E+00 1.0000000E+00
outer loop
vertex -1.5000000E-02 0.0000000E+00 -2.2204460E-16
vertex -2.6230399E-02 1.4559082E-02 -2.2204460E-16
vertex -1.4847321E-02 -2.1347657E-03 -2.2204460E-16
endloop
endfacet
facet normal 0.0000000E+00 0.0000000E+00 1.0000000E+00
outer loop
vertex -1.4847321E-02 -2.1347657E-03 -2.2204460E-16
vertex -2.6230399E-02 1.4559082E-02 -2.2204460E-16
vertex -2.7568735E-02 1.1830688E-02 -2.2204460E-16
endloop
endfacet
facet normal 0.0000000E+00 0.0000000E+00 1.0000000E+00
outer loop
vertex -1.4847321E-02 -2.1347657E-03 -2.2204460E-16
vertex -2.7568735E-02 1.1830688E-02 -2.2204460E-16
vertex -2.9999999E-02 0.0000000E+00 -2.2204460E-16
endloop
endfacet
facet normal 0.0000000E+00 0.0000000E+00 1.0000000E+00
outer loop
vertex -2.9999999E-02 0.0000000E+00 -2.2204460E-16
vertex -2.7568735E-02 1.1830688E-02 -2.2204460E-16
vertex -2.8624179E-02 8.9808349E-03 -2.2204460E-16
endloop
endfacet
facet normal 0.0000000E+00 0.0000000E+00 1.0000000E+00
outer loop
vertex -2.9999999E-02 0.0000000E+00 -2.2204460E-16
vertex -2.8624179E-02 8.9808349E-03 -2.2204460E-16
vertex -2.9385900E-02 6.0389405E-03 -2.2204460E-16
endloop
endfacet
facet normal 0.0000000E+00 0.0000000E+00 1.0000000E+00
outer loop
vertex -2.9385900E-02 6.0389405E-03 -2.2204460E-16
vertex -2.9846078E-02 3.0350343E-03 -2.2204460E-16
vertex -2.9999999E-02 0.0000000E+00 -2.2204460E-16
endloop
endfacet
facet normal 0.0000000E+00 0.0000000E+00 1.0000000E+00
outer loop
vertex -2.9999999E-02 -1.5000001E-01 -2.2204460E-16
vertex -1.2618803E-02 -8.1096189E-03 -2.2204460E-16
vertex -2.9999999E-02 0.0000000E+00 -2.2204460E-16
endloop
endfacet
facet normal 0.0000000E+00 0.0000000E+00 9.9999994E-01
outer loop
vertex -2.9999999E-02 0.0000000E+00 -2.2204460E-16
vertex -1.2618803E-02 -8.1096189E-03 -2.2204460E-16
vertex -1.3644480E-02 -6.2312013E-03 -2.2204460E-16
endloop
endfacet
facet normal 0.0000000E+00 0.0000000E+00 1.0000000E+00
outer loop
vertex -2.9999999E-02 0.0000000E+00 -2.2204460E-16
vertex -1.3644480E-02 -6.2312013E-03 -2.2204460E-16
vertex -1.4392394E-02 -4.2259521E-03 -2.2204460E-16
endloop
endfacet
facet normal 0.0000000E+00 0.0000000E+00 1.0000000E+00
outer loop
vertex -4.2259884E-03 -1.4392334E-02 -2.2204460E-16
vertex -6.2312251E-03 -1.3644531E-02 -2.2204460E-16
vertex -2.9999999E-02 -1.5000001E-01 -2.2204460E-16
endloop
endfacet
facet normal 0.0000000E+00 0.0000000E+00 1.0000000E+00
outer loop
vertex -2.9999999E-02 -1.5000001E-01 -2.2204460E-16
vertex -6.2312251E-03 -1.3644531E-02 -2.2204460E-16
vertex -8.1096124E-03 -1.2618775E-02 -2.2204460E-16
endloop
endfacet
facet normal 0.0000000E+00 0.0000000E+00 1.0000000E+00
outer loop
vertex -2.9999999E-02 -1.5000001E-01 -2.2204460E-16
vertex -8.1096124E-03 -1.2618775E-02 -2.2204460E-16
vertex -9.8229116E-03 -1.1336303E-02 -2.2204460E-16
endloop
endfacet
facet normal 0.0000000E+00 0.0000000E+00 1.0000000E+00
outer loop
vertex -9.8229116E-03 -1.1336303E-02 -2.2204460E-16
vertex -1.1336244E-02 -9.8228762E-03 -2.2204460E-16
vertex -2.9999999E-02 -1.5000001E-01 -2.2204460E-16
endloop
endfacet
facet normal 0.0000000E+00 0.0000000E+00 1.0000000E+00
outer loop
vertex -2.9999999E-02 -1.5000001E-01 -2.2204460E-16
vertex -1.1336244E-02 -9.8228762E-03 -2.2204460E-16
vertex -1.2618803E-02 -8.1096189E-03 -2.2204460E-16
endloop
endfacet
facet normal 0.0000000E+00 0.0000000E+00 1.0000000E+00
outer loop
vertex -1.4392394E-02 -4.2259521E-03 -2.2204460E-16
vertex -1.4847321E-02 -2.1347657E-03 -2.2204460E-16
vertex -2.9999999E-02 0.0000000E+00 -2.2204460E-16
endloop
endfacet
facet normal -0.0000000E+00 0.0000000E+00 1.0000000E+00
outer loop
vertex 1.4847321E-02 -2.1347657E-03 -2.2204460E-16
vertex 1.4392394E-02 -4.2259521E-03 -2.2204460E-16
vertex 2.9999999E-02 0.0000000E+00 -2.2204460E-16
endloop
endfacet
facet normal 0.0000000E+00 0.0000000E+00 1.0000000E+00
outer loop
vertex 2.9999999E-02 0.0000000E+00 -2.2204460E-16
vertex 1.4392394E-02 -4.2259521E-03 -2.2204460E-16
vertex 1.3644480E-02 -6.2312013E-03 -2.2204460E-16
endloop
endfacet
facet normal 0.0000000E+00 0.0000000E+00 9.9999994E-01
outer loop
vertex 2.9999999E-02 0.0000000E+00 -2.2204460E-16
vertex 1.3644480E-02 -6.2312013E-03 -2.2204460E-16
vertex 1.2618803E-02 -8.1096189E-03 -2.2204460E-16
endloop
endfacet
facet normal 0.0000000E+00 0.0000000E+00 1.0000000E+00
outer loop
vertex 9.8229116E-03 -1.1336303E-02 -2.2204460E-16
vertex 8.1096124E-03 -1.2618775E-02 -2.2204460E-16
vertex 2.9999999E-02 -1.5000001E-01 -2.2204460E-16
endloop
endfacet
facet normal 0.0000000E+00 0.0000000E+00 1.0000000E+00
outer loop
vertex 2.9999999E-02 -1.5000001E-01 -2.2204460E-16
vertex 8.1096124E-03 -1.2618775E-02 -2.2204460E-16
vertex 6.2312251E-03 -1.3644531E-02 -2.2204460E-16
endloop
endfacet
facet normal 0.0000000E+00 0.0000000E+00 1.0000000E+00
outer loop
vertex 2.9999999E-02 -1.5000001E-01 -2.2204460E-16
vertex 6.2312251E-03 -1.3644531E-02 -2.2204460E-16
vertex 4.2259884E-03 -1.4392334E-02 -2.2204460E-16
endloop
endfacet
facet normal 0.0000000E+00 0.0000000E+00 1.0000000E+00
outer loop
vertex 4.2259884E-03 -1.4392334E-02 -2.2204460E-16
vertex 2.1347224E-03 -1.4847290E-02 -2.2204460E-16
vertex 2.9999999E-02 -1.5000001E-01 -2.2204460E-16
endloop
endfacet
facet normal 0.0000000E+00 0.0000000E+00 1.0000000E+00
outer loop
vertex 2.9999999E-02 -1.5000001E-01 -2.2204460E-16
vertex 2.1347224E-03 -1.4847290E-02 -2.2204460E-16
vertex -4.9922927E-17 -1.5000000E-02 -2.2204460E-16
endloop
endfacet
endsolid Created by stlwrite.m 26-Sep-2021 16:07:50
