solid Created by stlwrite.m 03-Sep-2021 16:23:09
facet normal 0.0000000E+00 1.0000000E+00 -0.0000000E+00
outer loop
vertex 1.0000000E-01 1.0000000E-01 -5.9604643E-10
vertex 0.0000000E+00 1.0000000E-01 -5.9604643E-10
vertex 1.0000000E-01 1.0000000E-01 7.9999998E-02
endloop
endfacet
facet normal 0.0000000E+00 1.0000000E+00 0.0000000E+00
outer loop
vertex 1.0000000E-01 1.0000000E-01 7.9999998E-02
vertex 0.0000000E+00 1.0000000E-01 -5.9604643E-10
vertex 0.0000000E+00 1.0000000E-01 7.9999998E-02
endloop
endfacet
facet normal 1.0000000E+00 0.0000000E+00 0.0000000E+00
outer loop
vertex 1.0000000E-01 -3.6497318E-26 -5.9604643E-10
vertex 1.0000000E-01 1.0000000E-01 -5.9604643E-10
vertex 1.0000000E-01 4.8985872E-18 7.9999998E-02
endloop
endfacet
facet normal 1.0000000E+00 -0.0000000E+00 0.0000000E+00
outer loop
vertex 1.0000000E-01 4.8985872E-18 7.9999998E-02
vertex 1.0000000E-01 1.0000000E-01 -5.9604643E-10
vertex 1.0000000E-01 1.0000000E-01 7.9999998E-02
endloop
endfacet
facet normal 0.0000000E+00 -1.0000000E+00 6.1232336E-17
outer loop
vertex 0.0000000E+00 -3.6497318E-26 -5.9604643E-10
vertex 1.0000000E-01 -3.6497318E-26 -5.9604643E-10
vertex 0.0000000E+00 4.8985872E-18 7.9999998E-02
endloop
endfacet
facet normal 0.0000000E+00 -1.0000000E+00 6.1232336E-17
outer loop
vertex 0.0000000E+00 4.8985872E-18 7.9999998E-02
vertex 1.0000000E-01 -3.6497318E-26 -5.9604643E-10
vertex 1.0000000E-01 4.8985872E-18 7.9999998E-02
endloop
endfacet
facet normal -1.0000000E+00 0.0000000E+00 0.0000000E+00
outer loop
vertex 0.0000000E+00 1.0000000E-01 -5.9604643E-10
vertex 0.0000000E+00 -3.6497318E-26 -5.9604643E-10
vertex 0.0000000E+00 1.0000000E-01 7.9999998E-02
endloop
endfacet
facet normal -1.0000000E+00 -0.0000000E+00 0.0000000E+00
outer loop
vertex 0.0000000E+00 1.0000000E-01 7.9999998E-02
vertex 0.0000000E+00 -3.6497318E-26 -5.9604643E-10
vertex 0.0000000E+00 4.8985872E-18 7.9999998E-02
endloop
endfacet
facet normal 0.0000000E+00 0.0000000E+00 1.0000000E+00
outer loop
vertex 0.0000000E+00 4.8985872E-18 7.9999998E-02
vertex 1.0000000E-01 4.8985872E-18 7.9999998E-02
vertex 0.0000000E+00 1.0000000E-01 7.9999998E-02
endloop
endfacet
facet normal -0.0000000E+00 0.0000000E+00 1.0000000E+00
outer loop
vertex 0.0000000E+00 1.0000000E-01 7.9999998E-02
vertex 1.0000000E-01 4.8985872E-18 7.9999998E-02
vertex 1.0000000E-01 1.0000000E-01 7.9999998E-02
endloop
endfacet
facet normal 0.0000000E+00 0.0000000E+00 -1.0000000E+00
outer loop
vertex 0.0000000E+00 1.0000000E-01 -5.9604643E-10
vertex 1.0000000E-01 1.0000000E-01 -5.9604643E-10
vertex 0.0000000E+00 -3.6497318E-26 -5.9604643E-10
endloop
endfacet
facet normal 0.0000000E+00 0.0000000E+00 -1.0000000E+00
outer loop
vertex 0.0000000E+00 -3.6497318E-26 -5.9604643E-10
vertex 1.0000000E-01 1.0000000E-01 -5.9604643E-10
vertex 1.0000000E-01 -3.6497318E-26 -5.9604643E-10
endloop
endfacet
endsolid Created by stlwrite.m 03-Sep-2021 16:23:09
