solid Created by stlwrite.m 26-Sep-2021 16:07:50
facet normal -0.0000000E+00 0.0000000E+00 9.9999994E-01
outer loop
vertex -2.9999999E-02 2.8999999E-02 6.0000001E-03
vertex -2.9999999E-02 -3.0999999E-02 6.0000001E-03
vertex 2.9999999E-02 2.8999999E-02 6.0000001E-03
endloop
endfacet
facet normal 0.0000000E+00 0.0000000E+00 9.9999994E-01
outer loop
vertex 2.9999999E-02 2.8999999E-02 6.0000001E-03
vertex -2.9999999E-02 -3.0999999E-02 6.0000001E-03
vertex 2.9999999E-02 -3.0999999E-02 6.0000001E-03
endloop
endfacet
facet normal 0.0000000E+00 1.0000000E+00 0.0000000E+00
outer loop
vertex 2.9999999E-02 2.8999999E-02 6.0000001E-03
vertex 2.9999999E-02 2.8999999E-02 1.0000000E-03
vertex -2.9999999E-02 2.8999999E-02 6.0000001E-03
endloop
endfacet
facet normal 0.0000000E+00 1.0000000E+00 0.0000000E+00
outer loop
vertex -2.9999999E-02 2.8999999E-02 6.0000001E-03
vertex 2.9999999E-02 2.8999999E-02 1.0000000E-03
vertex -2.9999999E-02 2.8999999E-02 1.0000000E-03
endloop
endfacet
facet normal 1.0000000E+00 -0.0000000E+00 0.0000000E+00
outer loop
vertex 2.9999999E-02 -3.0999999E-02 6.0000001E-03
vertex 2.9999999E-02 -3.0999999E-02 1.0000000E-03
vertex 2.9999999E-02 2.8999999E-02 6.0000001E-03
endloop
endfacet
facet normal 1.0000000E+00 0.0000000E+00 0.0000000E+00
outer loop
vertex 2.9999999E-02 2.8999999E-02 6.0000001E-03
vertex 2.9999999E-02 -3.0999999E-02 1.0000000E-03
vertex 2.9999999E-02 2.8999999E-02 1.0000000E-03
endloop
endfacet
facet normal -0.0000000E+00 -0.0000000E+00 -9.9999994E-01
outer loop
vertex 2.9999999E-02 2.8999999E-02 1.0000000E-03
vertex 2.9999999E-02 -3.0999999E-02 1.0000000E-03
vertex -2.9999999E-02 2.8999999E-02 1.0000000E-03
endloop
endfacet
facet normal 0.0000000E+00 0.0000000E+00 -9.9999994E-01
outer loop
vertex -2.9999999E-02 2.8999999E-02 1.0000000E-03
vertex 2.9999999E-02 -3.0999999E-02 1.0000000E-03
vertex -2.9999999E-02 -3.0999999E-02 1.0000000E-03
endloop
endfacet
facet normal 0.0000000E+00 -1.0000000E+00 0.0000000E+00
outer loop
vertex -2.9999999E-02 -3.0999999E-02 6.0000001E-03
vertex -2.9999999E-02 -3.0999999E-02 1.0000000E-03
vertex 2.9999999E-02 -3.0999999E-02 6.0000001E-03
endloop
endfacet
facet normal 0.0000000E+00 -1.0000000E+00 -0.0000000E+00
outer loop
vertex 2.9999999E-02 -3.0999999E-02 6.0000001E-03
vertex -2.9999999E-02 -3.0999999E-02 1.0000000E-03
vertex 2.9999999E-02 -3.0999999E-02 1.0000000E-03
endloop
endfacet
facet normal -1.0000000E+00 -0.0000000E+00 -0.0000000E+00
outer loop
vertex -2.9999999E-02 2.8999999E-02 6.0000001E-03
vertex -2.9999999E-02 2.8999999E-02 1.0000000E-03
vertex -2.9999999E-02 -3.0999999E-02 6.0000001E-03
endloop
endfacet
facet normal -1.0000000E+00 0.0000000E+00 0.0000000E+00
outer loop
vertex -2.9999999E-02 -3.0999999E-02 6.0000001E-03
vertex -2.9999999E-02 2.8999999E-02 1.0000000E-03
vertex -2.9999999E-02 -3.0999999E-02 1.0000000E-03
endloop
endfacet
endsolid Created by stlwrite.m 26-Sep-2021 16:07:50
