solid Created by stlwrite.m 10-Sep-2021 19:13:29
facet normal 9.9144685E-01 -1.3051052E-01 0.0000000E+00
outer loop
vertex -1.5144889E+00 3.8822857E-03 -1.5000000E-02
vertex -1.5144889E+00 3.8822857E-03 1.5000000E-02
vertex -1.5150000E+00 -3.4547110E-16 -1.5000000E-02
endloop
endfacet
facet normal 9.9144685E-01 -1.3051052E-01 -3.8638844E-17
outer loop
vertex -1.5150000E+00 -3.4547110E-16 -1.5000000E-02
vertex -1.5144889E+00 3.8822857E-03 1.5000000E-02
vertex -1.5150000E+00 -3.5435287E-16 1.5000000E-02
endloop
endfacet
facet normal 9.9144685E-01 1.3051052E-01 3.8638844E-17
outer loop
vertex -1.5150000E+00 -3.4547110E-16 -1.5000000E-02
vertex -1.5150000E+00 -3.5435287E-16 1.5000000E-02
vertex -1.5144889E+00 -3.8822857E-03 -1.5000000E-02
endloop
endfacet
facet normal 9.9144685E-01 1.3051052E-01 -0.0000000E+00
outer loop
vertex -1.5144889E+00 -3.8822857E-03 -1.5000000E-02
vertex -1.5150000E+00 -3.5435287E-16 1.5000000E-02
vertex -1.5144889E+00 -3.8822857E-03 1.5000000E-02
endloop
endfacet
facet normal 9.2387289E-01 3.8269952E-01 -0.0000000E+00
outer loop
vertex -1.5144889E+00 -3.8822857E-03 -1.5000000E-02
vertex -1.5144889E+00 -3.8822857E-03 1.5000000E-02
vertex -1.5129904E+00 -7.4999998E-03 -1.5000000E-02
endloop
endfacet
facet normal 9.2387289E-01 3.8269952E-01 -0.0000000E+00
outer loop
vertex -1.5129904E+00 -7.4999998E-03 -1.5000000E-02
vertex -1.5144889E+00 -3.8822857E-03 1.5000000E-02
vertex -1.5129904E+00 -7.4999998E-03 1.5000000E-02
endloop
endfacet
facet normal 7.9336208E-01 6.0875010E-01 -0.0000000E+00
outer loop
vertex -1.5129904E+00 -7.4999998E-03 -1.5000000E-02
vertex -1.5129904E+00 -7.4999998E-03 1.5000000E-02
vertex -1.5106066E+00 -1.0606602E-02 -1.5000000E-02
endloop
endfacet
facet normal 7.9336208E-01 6.0875010E-01 -0.0000000E+00
outer loop
vertex -1.5106066E+00 -1.0606602E-02 -1.5000000E-02
vertex -1.5129904E+00 -7.4999998E-03 1.5000000E-02
vertex -1.5106066E+00 -1.0606602E-02 1.5000000E-02
endloop
endfacet
facet normal 6.0876244E-01 7.9335254E-01 -0.0000000E+00
outer loop
vertex -1.5106066E+00 -1.0606602E-02 -1.5000000E-02
vertex -1.5106066E+00 -1.0606602E-02 1.5000000E-02
vertex -1.5075001E+00 -1.2990382E-02 -1.5000000E-02
endloop
endfacet
facet normal 6.0876244E-01 7.9335254E-01 -0.0000000E+00
outer loop
vertex -1.5075001E+00 -1.2990382E-02 -1.5000000E-02
vertex -1.5106066E+00 -1.0606602E-02 1.5000000E-02
vertex -1.5075001E+00 -1.2990382E-02 1.5000000E-02
endloop
endfacet
facet normal 3.8267902E-01 9.2388135E-01 -0.0000000E+00
outer loop
vertex -1.5075001E+00 -1.2990382E-02 -1.5000000E-02
vertex -1.5075001E+00 -1.2990382E-02 1.5000000E-02
vertex -1.5038823E+00 -1.4488888E-02 -1.5000000E-02
endloop
endfacet
facet normal 3.8267902E-01 9.2388135E-01 -0.0000000E+00
outer loop
vertex -1.5038823E+00 -1.4488888E-02 -1.5000000E-02
vertex -1.5075001E+00 -1.2990382E-02 1.5000000E-02
vertex -1.5038823E+00 -1.4488888E-02 1.5000000E-02
endloop
endfacet
facet normal 1.3052587E-01 9.9144495E-01 -0.0000000E+00
outer loop
vertex -1.5038823E+00 -1.4488888E-02 -1.5000000E-02
vertex -1.5038823E+00 -1.4488888E-02 1.5000000E-02
vertex -1.5000000E+00 -1.5000000E-02 -1.5000000E-02
endloop
endfacet
facet normal 1.3052587E-01 9.9144495E-01 -0.0000000E+00
outer loop
vertex -1.5000000E+00 -1.5000000E-02 -1.5000000E-02
vertex -1.5038823E+00 -1.4488888E-02 1.5000000E-02
vertex -1.5000000E+00 -1.5000000E-02 1.5000000E-02
endloop
endfacet
facet normal -1.3052587E-01 9.9144495E-01 0.0000000E+00
outer loop
vertex -1.5000000E+00 -1.5000000E-02 -1.5000000E-02
vertex -1.5000000E+00 -1.5000000E-02 1.5000000E-02
vertex -1.4961177E+00 -1.4488888E-02 -1.5000000E-02
endloop
endfacet
facet normal -1.3052587E-01 9.9144495E-01 0.0000000E+00
outer loop
vertex -1.4961177E+00 -1.4488888E-02 -1.5000000E-02
vertex -1.5000000E+00 -1.5000000E-02 1.5000000E-02
vertex -1.4961177E+00 -1.4488888E-02 1.5000000E-02
endloop
endfacet
facet normal -3.8267902E-01 9.2388135E-01 0.0000000E+00
outer loop
vertex -1.4961177E+00 -1.4488888E-02 -1.5000000E-02
vertex -1.4961177E+00 -1.4488888E-02 1.5000000E-02
vertex -1.4924999E+00 -1.2990382E-02 -1.5000000E-02
endloop
endfacet
facet normal -3.8267902E-01 9.2388135E-01 0.0000000E+00
outer loop
vertex -1.4924999E+00 -1.2990382E-02 -1.5000000E-02
vertex -1.4961177E+00 -1.4488888E-02 1.5000000E-02
vertex -1.4924999E+00 -1.2990382E-02 1.5000000E-02
endloop
endfacet
facet normal -6.0876244E-01 7.9335254E-01 0.0000000E+00
outer loop
vertex -1.4924999E+00 -1.2990382E-02 -1.5000000E-02
vertex -1.4924999E+00 -1.2990382E-02 1.5000000E-02
vertex -1.4893934E+00 -1.0606602E-02 -1.5000000E-02
endloop
endfacet
facet normal -6.0876244E-01 7.9335254E-01 0.0000000E+00
outer loop
vertex -1.4893934E+00 -1.0606602E-02 -1.5000000E-02
vertex -1.4924999E+00 -1.2990382E-02 1.5000000E-02
vertex -1.4893934E+00 -1.0606602E-02 1.5000000E-02
endloop
endfacet
facet normal -7.9336208E-01 6.0875010E-01 0.0000000E+00
outer loop
vertex -1.4893934E+00 -1.0606602E-02 -1.5000000E-02
vertex -1.4893934E+00 -1.0606602E-02 1.5000000E-02
vertex -1.4870096E+00 -7.4999998E-03 -1.5000000E-02
endloop
endfacet
facet normal -7.9336208E-01 6.0875010E-01 0.0000000E+00
outer loop
vertex -1.4870096E+00 -7.4999998E-03 -1.5000000E-02
vertex -1.4893934E+00 -1.0606602E-02 1.5000000E-02
vertex -1.4870096E+00 -7.4999998E-03 1.5000000E-02
endloop
endfacet
facet normal -9.2387289E-01 3.8269952E-01 0.0000000E+00
outer loop
vertex -1.4870096E+00 -7.4999998E-03 -1.5000000E-02
vertex -1.4870096E+00 -7.4999998E-03 1.5000000E-02
vertex -1.4855111E+00 -3.8822857E-03 -1.5000000E-02
endloop
endfacet
facet normal -9.2387289E-01 3.8269952E-01 0.0000000E+00
outer loop
vertex -1.4855111E+00 -3.8822857E-03 -1.5000000E-02
vertex -1.4870096E+00 -7.4999998E-03 1.5000000E-02
vertex -1.4855111E+00 -3.8822857E-03 1.5000000E-02
endloop
endfacet
facet normal -9.9144685E-01 1.3051052E-01 0.0000000E+00
outer loop
vertex -1.4855111E+00 -3.8822857E-03 -1.5000000E-02
vertex -1.4855111E+00 -3.8822857E-03 1.5000000E-02
vertex -1.4850000E+00 -3.5618985E-16 -1.5000000E-02
endloop
endfacet
facet normal -9.9144685E-01 1.3051052E-01 0.0000000E+00
outer loop
vertex -1.4850000E+00 -3.5618985E-16 -1.5000000E-02
vertex -1.4855111E+00 -3.8822857E-03 1.5000000E-02
vertex -1.4850000E+00 -3.5618985E-16 1.5000000E-02
endloop
endfacet
facet normal -9.9144685E-01 -1.3051052E-01 0.0000000E+00
outer loop
vertex -1.4850000E+00 -3.5618985E-16 -1.5000000E-02
vertex -1.4850000E+00 -3.5618985E-16 1.5000000E-02
vertex -1.4855111E+00 3.8822857E-03 -1.5000000E-02
endloop
endfacet
facet normal -9.9144685E-01 -1.3051052E-01 0.0000000E+00
outer loop
vertex -1.4855111E+00 3.8822857E-03 -1.5000000E-02
vertex -1.4850000E+00 -3.5618985E-16 1.5000000E-02
vertex -1.4855111E+00 3.8822857E-03 1.5000000E-02
endloop
endfacet
facet normal -9.2387289E-01 -3.8269952E-01 0.0000000E+00
outer loop
vertex -1.4855111E+00 3.8822857E-03 -1.5000000E-02
vertex -1.4855111E+00 3.8822857E-03 1.5000000E-02
vertex -1.4870096E+00 7.4999998E-03 -1.5000000E-02
endloop
endfacet
facet normal -9.2387289E-01 -3.8269952E-01 0.0000000E+00
outer loop
vertex -1.4870096E+00 7.4999998E-03 -1.5000000E-02
vertex -1.4855111E+00 3.8822857E-03 1.5000000E-02
vertex -1.4870096E+00 7.4999998E-03 1.5000000E-02
endloop
endfacet
facet normal -7.9336208E-01 -6.0875010E-01 0.0000000E+00
outer loop
vertex -1.4870096E+00 7.4999998E-03 -1.5000000E-02
vertex -1.4870096E+00 7.4999998E-03 1.5000000E-02
vertex -1.4893934E+00 1.0606602E-02 -1.5000000E-02
endloop
endfacet
facet normal -7.9336208E-01 -6.0875010E-01 0.0000000E+00
outer loop
vertex -1.4893934E+00 1.0606602E-02 -1.5000000E-02
vertex -1.4870096E+00 7.4999998E-03 1.5000000E-02
vertex -1.4893934E+00 1.0606602E-02 1.5000000E-02
endloop
endfacet
facet normal -6.0876244E-01 -7.9335254E-01 0.0000000E+00
outer loop
vertex -1.4893934E+00 1.0606602E-02 -1.5000000E-02
vertex -1.4893934E+00 1.0606602E-02 1.5000000E-02
vertex -1.4924999E+00 1.2990382E-02 -1.5000000E-02
endloop
endfacet
facet normal -6.0876244E-01 -7.9335254E-01 0.0000000E+00
outer loop
vertex -1.4924999E+00 1.2990382E-02 -1.5000000E-02
vertex -1.4893934E+00 1.0606602E-02 1.5000000E-02
vertex -1.4924999E+00 1.2990382E-02 1.5000000E-02
endloop
endfacet
facet normal -3.8267902E-01 -9.2388135E-01 0.0000000E+00
outer loop
vertex -1.4924999E+00 1.2990382E-02 -1.5000000E-02
vertex -1.4924999E+00 1.2990382E-02 1.5000000E-02
vertex -1.4961177E+00 1.4488888E-02 -1.5000000E-02
endloop
endfacet
facet normal -3.8267902E-01 -9.2388135E-01 0.0000000E+00
outer loop
vertex -1.4961177E+00 1.4488888E-02 -1.5000000E-02
vertex -1.4924999E+00 1.2990382E-02 1.5000000E-02
vertex -1.4961177E+00 1.4488888E-02 1.5000000E-02
endloop
endfacet
facet normal -1.3052587E-01 -9.9144495E-01 0.0000000E+00
outer loop
vertex -1.4961177E+00 1.4488888E-02 -1.5000000E-02
vertex -1.4961177E+00 1.4488888E-02 1.5000000E-02
vertex -1.5000000E+00 1.5000000E-02 -1.5000000E-02
endloop
endfacet
facet normal -1.3052587E-01 -9.9144495E-01 0.0000000E+00
outer loop
vertex -1.5000000E+00 1.5000000E-02 -1.5000000E-02
vertex -1.4961177E+00 1.4488888E-02 1.5000000E-02
vertex -1.5000000E+00 1.5000000E-02 1.5000000E-02
endloop
endfacet
facet normal 1.3052587E-01 -9.9144495E-01 0.0000000E+00
outer loop
vertex -1.5000000E+00 1.5000000E-02 -1.5000000E-02
vertex -1.5000000E+00 1.5000000E-02 1.5000000E-02
vertex -1.5038823E+00 1.4488888E-02 -1.5000000E-02
endloop
endfacet
facet normal 1.3052587E-01 -9.9144495E-01 0.0000000E+00
outer loop
vertex -1.5038823E+00 1.4488888E-02 -1.5000000E-02
vertex -1.5000000E+00 1.5000000E-02 1.5000000E-02
vertex -1.5038823E+00 1.4488888E-02 1.5000000E-02
endloop
endfacet
facet normal 3.8267902E-01 -9.2388135E-01 0.0000000E+00
outer loop
vertex -1.5038823E+00 1.4488888E-02 -1.5000000E-02
vertex -1.5038823E+00 1.4488888E-02 1.5000000E-02
vertex -1.5075001E+00 1.2990382E-02 -1.5000000E-02
endloop
endfacet
facet normal 3.8267902E-01 -9.2388135E-01 0.0000000E+00
outer loop
vertex -1.5075001E+00 1.2990382E-02 -1.5000000E-02
vertex -1.5038823E+00 1.4488888E-02 1.5000000E-02
vertex -1.5075001E+00 1.2990382E-02 1.5000000E-02
endloop
endfacet
facet normal 6.0876244E-01 -7.9335254E-01 0.0000000E+00
outer loop
vertex -1.5075001E+00 1.2990382E-02 -1.5000000E-02
vertex -1.5075001E+00 1.2990382E-02 1.5000000E-02
vertex -1.5106066E+00 1.0606602E-02 -1.5000000E-02
endloop
endfacet
facet normal 6.0876244E-01 -7.9335254E-01 0.0000000E+00
outer loop
vertex -1.5106066E+00 1.0606602E-02 -1.5000000E-02
vertex -1.5075001E+00 1.2990382E-02 1.5000000E-02
vertex -1.5106066E+00 1.0606602E-02 1.5000000E-02
endloop
endfacet
facet normal 7.9336208E-01 -6.0875010E-01 0.0000000E+00
outer loop
vertex -1.5106066E+00 1.0606602E-02 -1.5000000E-02
vertex -1.5106066E+00 1.0606602E-02 1.5000000E-02
vertex -1.5129904E+00 7.4999998E-03 -1.5000000E-02
endloop
endfacet
facet normal 7.9336208E-01 -6.0875010E-01 0.0000000E+00
outer loop
vertex -1.5129904E+00 7.4999998E-03 -1.5000000E-02
vertex -1.5106066E+00 1.0606602E-02 1.5000000E-02
vertex -1.5129904E+00 7.4999998E-03 1.5000000E-02
endloop
endfacet
facet normal 9.2387289E-01 -3.8269952E-01 0.0000000E+00
outer loop
vertex -1.5129904E+00 7.4999998E-03 -1.5000000E-02
vertex -1.5129904E+00 7.4999998E-03 1.5000000E-02
vertex -1.5144889E+00 3.8822857E-03 -1.5000000E-02
endloop
endfacet
facet normal 9.2387289E-01 -3.8269952E-01 0.0000000E+00
outer loop
vertex -1.5144889E+00 3.8822857E-03 -1.5000000E-02
vertex -1.5129904E+00 7.4999998E-03 1.5000000E-02
vertex -1.5144889E+00 3.8822857E-03 1.5000000E-02
endloop
endfacet
facet normal 9.9144506E-01 -1.3052504E-01 0.0000000E+00
outer loop
vertex -1.4488892E-02 3.8822857E-03 -1.5000000E-02
vertex -1.4488892E-02 3.8822857E-03 1.5000000E-02
vertex -1.5000000E-02 -4.3731962E-16 -1.5000000E-02
endloop
endfacet
facet normal 9.9144506E-01 -1.3052504E-01 -3.8643135E-17
outer loop
vertex -1.5000000E-02 -4.3731962E-16 -1.5000000E-02
vertex -1.4488892E-02 3.8822857E-03 1.5000000E-02
vertex -1.5000000E-02 -4.4620139E-16 1.5000000E-02
endloop
endfacet
facet normal 9.9144506E-01 1.3052504E-01 3.8643135E-17
outer loop
vertex -1.5000000E-02 -4.3731962E-16 -1.5000000E-02
vertex -1.5000000E-02 -4.4620139E-16 1.5000000E-02
vertex -1.4488892E-02 -3.8822857E-03 -1.5000000E-02
endloop
endfacet
facet normal 9.9144506E-01 1.3052504E-01 -0.0000000E+00
outer loop
vertex -1.4488892E-02 -3.8822857E-03 -1.5000000E-02
vertex -1.5000000E-02 -4.4620139E-16 1.5000000E-02
vertex -1.4488892E-02 -3.8822857E-03 1.5000000E-02
endloop
endfacet
facet normal 9.2387688E-01 3.8268974E-01 -0.0000000E+00
outer loop
vertex -1.4488892E-02 -3.8822857E-03 -1.5000000E-02
vertex -1.4488892E-02 -3.8822857E-03 1.5000000E-02
vertex -1.2990356E-02 -7.4999998E-03 -1.5000000E-02
endloop
endfacet
facet normal 9.2387688E-01 3.8268974E-01 -0.0000000E+00
outer loop
vertex -1.2990356E-02 -7.4999998E-03 -1.5000000E-02
vertex -1.4488892E-02 -3.8822857E-03 1.5000000E-02
vertex -1.2990356E-02 -7.4999998E-03 1.5000000E-02
endloop
endfacet
facet normal 7.9335225E-01 6.0876298E-01 -0.0000000E+00
outer loop
vertex -1.2990356E-02 -7.4999998E-03 -1.5000000E-02
vertex -1.2990356E-02 -7.4999998E-03 1.5000000E-02
vertex -1.0606567E-02 -1.0606602E-02 -1.5000000E-02
endloop
endfacet
facet normal 7.9335225E-01 6.0876298E-01 -0.0000000E+00
outer loop
vertex -1.0606567E-02 -1.0606602E-02 -1.5000000E-02
vertex -1.2990356E-02 -7.4999998E-03 1.5000000E-02
vertex -1.0606567E-02 -1.0606602E-02 1.5000000E-02
endloop
endfacet
facet normal 6.0876572E-01 7.9335004E-01 -0.0000000E+00
outer loop
vertex -1.0606567E-02 -1.0606602E-02 -1.5000000E-02
vertex -1.0606567E-02 -1.0606602E-02 1.5000000E-02
vertex -7.4999998E-03 -1.2990382E-02 -1.5000000E-02
endloop
endfacet
facet normal 6.0876572E-01 7.9335004E-01 -0.0000000E+00
outer loop
vertex -7.4999998E-03 -1.2990382E-02 -1.5000000E-02
vertex -1.0606567E-02 -1.0606602E-02 1.5000000E-02
vertex -7.4999998E-03 -1.2990382E-02 1.5000000E-02
endloop
endfacet
facet normal 3.8268694E-01 9.2387807E-01 -0.0000000E+00
outer loop
vertex -7.4999998E-03 -1.2990382E-02 -1.5000000E-02
vertex -7.4999998E-03 -1.2990382E-02 1.5000000E-02
vertex -3.8823243E-03 -1.4488888E-02 -1.5000000E-02
endloop
endfacet
facet normal 3.8268694E-01 9.2387807E-01 -0.0000000E+00
outer loop
vertex -3.8823243E-03 -1.4488888E-02 -1.5000000E-02
vertex -7.4999998E-03 -1.2990382E-02 1.5000000E-02
vertex -3.8823243E-03 -1.4488888E-02 1.5000000E-02
endloop
endfacet
facet normal 1.3052469E-01 9.9144500E-01 -0.0000000E+00
outer loop
vertex -3.8823243E-03 -1.4488888E-02 -1.5000000E-02
vertex -3.8823243E-03 -1.4488888E-02 1.5000000E-02
vertex 0.0000000E+00 -1.5000000E-02 -1.5000000E-02
endloop
endfacet
facet normal 1.3052469E-01 9.9144500E-01 -0.0000000E+00
outer loop
vertex 0.0000000E+00 -1.5000000E-02 -1.5000000E-02
vertex -3.8823243E-03 -1.4488888E-02 1.5000000E-02
vertex 0.0000000E+00 -1.5000000E-02 1.5000000E-02
endloop
endfacet
facet normal -1.3052469E-01 9.9144500E-01 0.0000000E+00
outer loop
vertex 0.0000000E+00 -1.5000000E-02 -1.5000000E-02
vertex 0.0000000E+00 -1.5000000E-02 1.5000000E-02
vertex 3.8823243E-03 -1.4488888E-02 -1.5000000E-02
endloop
endfacet
facet normal -1.3052469E-01 9.9144500E-01 0.0000000E+00
outer loop
vertex 3.8823243E-03 -1.4488888E-02 -1.5000000E-02
vertex 0.0000000E+00 -1.5000000E-02 1.5000000E-02
vertex 3.8823243E-03 -1.4488888E-02 1.5000000E-02
endloop
endfacet
facet normal -3.8268694E-01 9.2387807E-01 0.0000000E+00
outer loop
vertex 3.8823243E-03 -1.4488888E-02 -1.5000000E-02
vertex 3.8823243E-03 -1.4488888E-02 1.5000000E-02
vertex 7.4999998E-03 -1.2990382E-02 -1.5000000E-02
endloop
endfacet
facet normal -3.8268694E-01 9.2387807E-01 0.0000000E+00
outer loop
vertex 7.4999998E-03 -1.2990382E-02 -1.5000000E-02
vertex 3.8823243E-03 -1.4488888E-02 1.5000000E-02
vertex 7.4999998E-03 -1.2990382E-02 1.5000000E-02
endloop
endfacet
facet normal -6.0876572E-01 7.9335004E-01 0.0000000E+00
outer loop
vertex 7.4999998E-03 -1.2990382E-02 -1.5000000E-02
vertex 7.4999998E-03 -1.2990382E-02 1.5000000E-02
vertex 1.0606567E-02 -1.0606602E-02 -1.5000000E-02
endloop
endfacet
facet normal -6.0876572E-01 7.9335004E-01 0.0000000E+00
outer loop
vertex 1.0606567E-02 -1.0606602E-02 -1.5000000E-02
vertex 7.4999998E-03 -1.2990382E-02 1.5000000E-02
vertex 1.0606567E-02 -1.0606602E-02 1.5000000E-02
endloop
endfacet
facet normal -7.9335225E-01 6.0876298E-01 0.0000000E+00
outer loop
vertex 1.0606567E-02 -1.0606602E-02 -1.5000000E-02
vertex 1.0606567E-02 -1.0606602E-02 1.5000000E-02
vertex 1.2990356E-02 -7.4999998E-03 -1.5000000E-02
endloop
endfacet
facet normal -7.9335225E-01 6.0876298E-01 0.0000000E+00
outer loop
vertex 1.2990356E-02 -7.4999998E-03 -1.5000000E-02
vertex 1.0606567E-02 -1.0606602E-02 1.5000000E-02
vertex 1.2990356E-02 -7.4999998E-03 1.5000000E-02
endloop
endfacet
facet normal -9.2387688E-01 3.8268974E-01 0.0000000E+00
outer loop
vertex 1.2990356E-02 -7.4999998E-03 -1.5000000E-02
vertex 1.2990356E-02 -7.4999998E-03 1.5000000E-02
vertex 1.4488892E-02 -3.8822857E-03 -1.5000000E-02
endloop
endfacet
facet normal -9.2387688E-01 3.8268974E-01 0.0000000E+00
outer loop
vertex 1.4488892E-02 -3.8822857E-03 -1.5000000E-02
vertex 1.2990356E-02 -7.4999998E-03 1.5000000E-02
vertex 1.4488892E-02 -3.8822857E-03 1.5000000E-02
endloop
endfacet
facet normal -9.9144506E-01 1.3052504E-01 0.0000000E+00
outer loop
vertex 1.4488892E-02 -3.8822857E-03 -1.5000000E-02
vertex 1.4488892E-02 -3.8822857E-03 1.5000000E-02
vertex 1.5000000E-02 -4.4803834E-16 -1.5000000E-02
endloop
endfacet
facet normal -9.9144506E-01 1.3052504E-01 0.0000000E+00
outer loop
vertex 1.5000000E-02 -4.4803834E-16 -1.5000000E-02
vertex 1.4488892E-02 -3.8822857E-03 1.5000000E-02
vertex 1.5000000E-02 -4.4803834E-16 1.5000000E-02
endloop
endfacet
facet normal -9.9144506E-01 -1.3052504E-01 0.0000000E+00
outer loop
vertex 1.5000000E-02 -4.4803834E-16 -1.5000000E-02
vertex 1.5000000E-02 -4.4803834E-16 1.5000000E-02
vertex 1.4488892E-02 3.8822857E-03 -1.5000000E-02
endloop
endfacet
facet normal -9.9144506E-01 -1.3052504E-01 0.0000000E+00
outer loop
vertex 1.4488892E-02 3.8822857E-03 -1.5000000E-02
vertex 1.5000000E-02 -4.4803834E-16 1.5000000E-02
vertex 1.4488892E-02 3.8822857E-03 1.5000000E-02
endloop
endfacet
facet normal -9.2387688E-01 -3.8268974E-01 0.0000000E+00
outer loop
vertex 1.4488892E-02 3.8822857E-03 -1.5000000E-02
vertex 1.4488892E-02 3.8822857E-03 1.5000000E-02
vertex 1.2990356E-02 7.4999998E-03 -1.5000000E-02
endloop
endfacet
facet normal -9.2387688E-01 -3.8268974E-01 0.0000000E+00
outer loop
vertex 1.2990356E-02 7.4999998E-03 -1.5000000E-02
vertex 1.4488892E-02 3.8822857E-03 1.5000000E-02
vertex 1.2990356E-02 7.4999998E-03 1.5000000E-02
endloop
endfacet
facet normal -7.9335225E-01 -6.0876298E-01 0.0000000E+00
outer loop
vertex 1.2990356E-02 7.4999998E-03 -1.5000000E-02
vertex 1.2990356E-02 7.4999998E-03 1.5000000E-02
vertex 1.0606567E-02 1.0606602E-02 -1.5000000E-02
endloop
endfacet
facet normal -7.9335225E-01 -6.0876298E-01 0.0000000E+00
outer loop
vertex 1.0606567E-02 1.0606602E-02 -1.5000000E-02
vertex 1.2990356E-02 7.4999998E-03 1.5000000E-02
vertex 1.0606567E-02 1.0606602E-02 1.5000000E-02
endloop
endfacet
facet normal -6.0876572E-01 -7.9335004E-01 0.0000000E+00
outer loop
vertex 1.0606567E-02 1.0606602E-02 -1.5000000E-02
vertex 1.0606567E-02 1.0606602E-02 1.5000000E-02
vertex 7.4999998E-03 1.2990382E-02 -1.5000000E-02
endloop
endfacet
facet normal -6.0876572E-01 -7.9335004E-01 0.0000000E+00
outer loop
vertex 7.4999998E-03 1.2990382E-02 -1.5000000E-02
vertex 1.0606567E-02 1.0606602E-02 1.5000000E-02
vertex 7.4999998E-03 1.2990382E-02 1.5000000E-02
endloop
endfacet
facet normal -3.8268694E-01 -9.2387807E-01 0.0000000E+00
outer loop
vertex 7.4999998E-03 1.2990382E-02 -1.5000000E-02
vertex 7.4999998E-03 1.2990382E-02 1.5000000E-02
vertex 3.8823243E-03 1.4488888E-02 -1.5000000E-02
endloop
endfacet
facet normal -3.8268694E-01 -9.2387807E-01 0.0000000E+00
outer loop
vertex 3.8823243E-03 1.4488888E-02 -1.5000000E-02
vertex 7.4999998E-03 1.2990382E-02 1.5000000E-02
vertex 3.8823243E-03 1.4488888E-02 1.5000000E-02
endloop
endfacet
facet normal -1.3052469E-01 -9.9144500E-01 0.0000000E+00
outer loop
vertex 3.8823243E-03 1.4488888E-02 -1.5000000E-02
vertex 3.8823243E-03 1.4488888E-02 1.5000000E-02
vertex 0.0000000E+00 1.5000000E-02 -1.5000000E-02
endloop
endfacet
facet normal -1.3052469E-01 -9.9144500E-01 0.0000000E+00
outer loop
vertex 0.0000000E+00 1.5000000E-02 -1.5000000E-02
vertex 3.8823243E-03 1.4488888E-02 1.5000000E-02
vertex 0.0000000E+00 1.5000000E-02 1.5000000E-02
endloop
endfacet
facet normal 1.3052469E-01 -9.9144500E-01 0.0000000E+00
outer loop
vertex 0.0000000E+00 1.5000000E-02 -1.5000000E-02
vertex 0.0000000E+00 1.5000000E-02 1.5000000E-02
vertex -3.8823243E-03 1.4488888E-02 -1.5000000E-02
endloop
endfacet
facet normal 1.3052469E-01 -9.9144500E-01 0.0000000E+00
outer loop
vertex -3.8823243E-03 1.4488888E-02 -1.5000000E-02
vertex 0.0000000E+00 1.5000000E-02 1.5000000E-02
vertex -3.8823243E-03 1.4488888E-02 1.5000000E-02
endloop
endfacet
facet normal 3.8268694E-01 -9.2387807E-01 0.0000000E+00
outer loop
vertex -3.8823243E-03 1.4488888E-02 -1.5000000E-02
vertex -3.8823243E-03 1.4488888E-02 1.5000000E-02
vertex -7.4999998E-03 1.2990382E-02 -1.5000000E-02
endloop
endfacet
facet normal 3.8268694E-01 -9.2387807E-01 0.0000000E+00
outer loop
vertex -7.4999998E-03 1.2990382E-02 -1.5000000E-02
vertex -3.8823243E-03 1.4488888E-02 1.5000000E-02
vertex -7.4999998E-03 1.2990382E-02 1.5000000E-02
endloop
endfacet
facet normal 6.0876572E-01 -7.9335004E-01 0.0000000E+00
outer loop
vertex -7.4999998E-03 1.2990382E-02 -1.5000000E-02
vertex -7.4999998E-03 1.2990382E-02 1.5000000E-02
vertex -1.0606567E-02 1.0606602E-02 -1.5000000E-02
endloop
endfacet
facet normal 6.0876572E-01 -7.9335004E-01 0.0000000E+00
outer loop
vertex -1.0606567E-02 1.0606602E-02 -1.5000000E-02
vertex -7.4999998E-03 1.2990382E-02 1.5000000E-02
vertex -1.0606567E-02 1.0606602E-02 1.5000000E-02
endloop
endfacet
facet normal 7.9335225E-01 -6.0876298E-01 0.0000000E+00
outer loop
vertex -1.0606567E-02 1.0606602E-02 -1.5000000E-02
vertex -1.0606567E-02 1.0606602E-02 1.5000000E-02
vertex -1.2990356E-02 7.4999998E-03 -1.5000000E-02
endloop
endfacet
facet normal 7.9335225E-01 -6.0876298E-01 0.0000000E+00
outer loop
vertex -1.2990356E-02 7.4999998E-03 -1.5000000E-02
vertex -1.0606567E-02 1.0606602E-02 1.5000000E-02
vertex -1.2990356E-02 7.4999998E-03 1.5000000E-02
endloop
endfacet
facet normal 9.2387688E-01 -3.8268974E-01 0.0000000E+00
outer loop
vertex -1.2990356E-02 7.4999998E-03 -1.5000000E-02
vertex -1.2990356E-02 7.4999998E-03 1.5000000E-02
vertex -1.4488892E-02 3.8822857E-03 -1.5000000E-02
endloop
endfacet
facet normal 9.2387688E-01 -3.8268974E-01 0.0000000E+00
outer loop
vertex -1.4488892E-02 3.8822857E-03 -1.5000000E-02
vertex -1.2990356E-02 7.4999998E-03 1.5000000E-02
vertex -1.4488892E-02 3.8822857E-03 1.5000000E-02
endloop
endfacet
facet normal -0.0000000E+00 -1.0000000E+00 -0.0000000E+00
outer loop
vertex 0.0000000E+00 -2.9999999E-02 1.5000000E-02
vertex -1.5000000E+00 -2.9999999E-02 1.5000000E-02
vertex 0.0000000E+00 -2.9999999E-02 -1.5000000E-02
endloop
endfacet
facet normal 0.0000000E+00 -1.0000000E+00 0.0000000E+00
outer loop
vertex 0.0000000E+00 -2.9999999E-02 -1.5000000E-02
vertex -1.5000000E+00 -2.9999999E-02 1.5000000E-02
vertex -1.5000000E+00 -2.9999999E-02 -1.5000000E-02
endloop
endfacet
facet normal 1.2053718E-01 9.9270886E-01 -0.0000000E+00
outer loop
vertex 0.0000000E+00 2.9999999E-02 -1.5000000E-02
vertex 0.0000000E+00 2.9999999E-02 1.5000000E-02
vertex 7.1794433E-03 2.9128253E-02 -1.5000000E-02
endloop
endfacet
facet normal 1.2053718E-01 9.9270886E-01 -0.0000000E+00
outer loop
vertex 7.1794433E-03 2.9128253E-02 -1.5000000E-02
vertex 0.0000000E+00 2.9999999E-02 1.5000000E-02
vertex 7.1794433E-03 2.9128253E-02 1.5000000E-02
endloop
endfacet
facet normal 3.5460550E-01 9.3501604E-01 -0.0000000E+00
outer loop
vertex 7.1794433E-03 2.9128253E-02 -1.5000000E-02
vertex 7.1794433E-03 2.9128253E-02 1.5000000E-02
vertex 1.3941650E-02 2.6563682E-02 -1.5000000E-02
endloop
endfacet
facet normal 3.5460550E-01 9.3501604E-01 -0.0000000E+00
outer loop
vertex 1.3941650E-02 2.6563682E-02 -1.5000000E-02
vertex 7.1794433E-03 2.9128253E-02 1.5000000E-02
vertex 1.3941650E-02 2.6563682E-02 1.5000000E-02
endloop
endfacet
facet normal 5.6806225E-01 8.2298565E-01 -0.0000000E+00
outer loop
vertex 1.3941650E-02 2.6563682E-02 -1.5000000E-02
vertex 1.3941650E-02 2.6563682E-02 1.5000000E-02
vertex 1.9893676E-02 2.2455322E-02 -1.5000000E-02
endloop
endfacet
facet normal 5.6806225E-01 8.2298565E-01 -0.0000000E+00
outer loop
vertex 1.9893676E-02 2.2455322E-02 -1.5000000E-02
vertex 1.3941650E-02 2.6563682E-02 1.5000000E-02
vertex 1.9893676E-02 2.2455322E-02 1.5000000E-02
endloop
endfacet
facet normal 7.4850637E-01 6.6312760E-01 -0.0000000E+00
outer loop
vertex 1.9893676E-02 2.2455322E-02 -1.5000000E-02
vertex 1.9893676E-02 2.2455322E-02 1.5000000E-02
vertex 2.4689576E-02 1.7041942E-02 -1.5000000E-02
endloop
endfacet
facet normal 7.4850637E-01 6.6312760E-01 -0.0000000E+00
outer loop
vertex 2.4689576E-02 1.7041942E-02 -1.5000000E-02
vertex 1.9893676E-02 2.2455322E-02 1.5000000E-02
vertex 2.4689576E-02 1.7041942E-02 1.5000000E-02
endloop
endfacet
facet normal 8.8545662E-01 4.6472204E-01 -0.0000000E+00
outer loop
vertex 2.4689576E-02 1.7041942E-02 -1.5000000E-02
vertex 2.4689576E-02 1.7041942E-02 1.5000000E-02
vertex 2.8050536E-02 1.0638147E-02 -1.5000000E-02
endloop
endfacet
facet normal 8.8545662E-01 4.6472204E-01 -0.0000000E+00
outer loop
vertex 2.8050536E-02 1.0638147E-02 -1.5000000E-02
vertex 2.4689576E-02 1.7041942E-02 1.5000000E-02
vertex 2.8050536E-02 1.0638147E-02 1.5000000E-02
endloop
endfacet
facet normal 9.7094387E-01 2.3930719E-01 -0.0000000E+00
outer loop
vertex 2.8050536E-02 1.0638147E-02 -1.5000000E-02
vertex 2.8050536E-02 1.0638147E-02 1.5000000E-02
vertex 2.9781250E-02 3.6161004E-03 -1.5000000E-02
endloop
endfacet
facet normal 9.7094387E-01 2.3930719E-01 -0.0000000E+00
outer loop
vertex 2.9781250E-02 3.6161004E-03 -1.5000000E-02
vertex 2.8050536E-02 1.0638147E-02 1.5000000E-02
vertex 2.9781250E-02 3.6161004E-03 1.5000000E-02
endloop
endfacet
facet normal 9.9999994E-01 0.0000000E+00 -0.0000000E+00
outer loop
vertex 2.9781250E-02 3.6161004E-03 -1.5000000E-02
vertex 2.9781250E-02 3.6161004E-03 1.5000000E-02
vertex 2.9781250E-02 -3.6161004E-03 -1.5000000E-02
endloop
endfacet
facet normal 9.9999994E-01 0.0000000E+00 0.0000000E+00
outer loop
vertex 2.9781250E-02 -3.6161004E-03 -1.5000000E-02
vertex 2.9781250E-02 3.6161004E-03 1.5000000E-02
vertex 2.9781250E-02 -3.6161004E-03 1.5000000E-02
endloop
endfacet
facet normal 9.7094387E-01 -2.3930719E-01 0.0000000E+00
outer loop
vertex 2.9781250E-02 -3.6161004E-03 -1.5000000E-02
vertex 2.9781250E-02 -3.6161004E-03 1.5000000E-02
vertex 2.8050536E-02 -1.0638147E-02 -1.5000000E-02
endloop
endfacet
facet normal 9.7094387E-01 -2.3930719E-01 0.0000000E+00
outer loop
vertex 2.8050536E-02 -1.0638147E-02 -1.5000000E-02
vertex 2.9781250E-02 -3.6161004E-03 1.5000000E-02
vertex 2.8050536E-02 -1.0638147E-02 1.5000000E-02
endloop
endfacet
facet normal 8.8545662E-01 -4.6472204E-01 0.0000000E+00
outer loop
vertex 2.8050536E-02 -1.0638147E-02 -1.5000000E-02
vertex 2.8050536E-02 -1.0638147E-02 1.5000000E-02
vertex 2.4689576E-02 -1.7041942E-02 -1.5000000E-02
endloop
endfacet
facet normal 8.8545662E-01 -4.6472204E-01 0.0000000E+00
outer loop
vertex 2.4689576E-02 -1.7041942E-02 -1.5000000E-02
vertex 2.8050536E-02 -1.0638147E-02 1.5000000E-02
vertex 2.4689576E-02 -1.7041942E-02 1.5000000E-02
endloop
endfacet
facet normal 7.4850637E-01 -6.6312760E-01 0.0000000E+00
outer loop
vertex 2.4689576E-02 -1.7041942E-02 -1.5000000E-02
vertex 2.4689576E-02 -1.7041942E-02 1.5000000E-02
vertex 1.9893676E-02 -2.2455322E-02 -1.5000000E-02
endloop
endfacet
facet normal 7.4850637E-01 -6.6312760E-01 0.0000000E+00
outer loop
vertex 1.9893676E-02 -2.2455322E-02 -1.5000000E-02
vertex 2.4689576E-02 -1.7041942E-02 1.5000000E-02
vertex 1.9893676E-02 -2.2455322E-02 1.5000000E-02
endloop
endfacet
facet normal 5.6806225E-01 -8.2298565E-01 0.0000000E+00
outer loop
vertex 1.9893676E-02 -2.2455322E-02 -1.5000000E-02
vertex 1.9893676E-02 -2.2455322E-02 1.5000000E-02
vertex 1.3941650E-02 -2.6563682E-02 -1.5000000E-02
endloop
endfacet
facet normal 5.6806225E-01 -8.2298565E-01 0.0000000E+00
outer loop
vertex 1.3941650E-02 -2.6563682E-02 -1.5000000E-02
vertex 1.9893676E-02 -2.2455322E-02 1.5000000E-02
vertex 1.3941650E-02 -2.6563682E-02 1.5000000E-02
endloop
endfacet
facet normal 3.5460550E-01 -9.3501604E-01 0.0000000E+00
outer loop
vertex 1.3941650E-02 -2.6563682E-02 -1.5000000E-02
vertex 1.3941650E-02 -2.6563682E-02 1.5000000E-02
vertex 7.1794433E-03 -2.9128253E-02 -1.5000000E-02
endloop
endfacet
facet normal 3.5460550E-01 -9.3501604E-01 0.0000000E+00
outer loop
vertex 7.1794433E-03 -2.9128253E-02 -1.5000000E-02
vertex 1.3941650E-02 -2.6563682E-02 1.5000000E-02
vertex 7.1794433E-03 -2.9128253E-02 1.5000000E-02
endloop
endfacet
facet normal 1.2053718E-01 -9.9270886E-01 0.0000000E+00
outer loop
vertex 7.1794433E-03 -2.9128253E-02 -1.5000000E-02
vertex 7.1794433E-03 -2.9128253E-02 1.5000000E-02
vertex 0.0000000E+00 -2.9999999E-02 -1.5000000E-02
endloop
endfacet
facet normal 1.2053718E-01 -9.9270886E-01 0.0000000E+00
outer loop
vertex 0.0000000E+00 -2.9999999E-02 -1.5000000E-02
vertex 7.1794433E-03 -2.9128253E-02 1.5000000E-02
vertex 0.0000000E+00 -2.9999999E-02 1.5000000E-02
endloop
endfacet
facet normal -0.0000000E+00 1.0000000E+00 0.0000000E+00
outer loop
vertex -1.5000000E+00 2.9999999E-02 1.5000000E-02
vertex 0.0000000E+00 2.9999999E-02 1.5000000E-02
vertex -1.5000000E+00 2.9999999E-02 -1.5000000E-02
endloop
endfacet
facet normal 0.0000000E+00 1.0000000E+00 0.0000000E+00
outer loop
vertex -1.5000000E+00 2.9999999E-02 -1.5000000E-02
vertex 0.0000000E+00 2.9999999E-02 1.5000000E-02
vertex 0.0000000E+00 2.9999999E-02 -1.5000000E-02
endloop
endfacet
facet normal -1.2053625E-01 -9.9270892E-01 0.0000000E+00
outer loop
vertex -1.5000000E+00 -2.9999999E-02 -1.5000000E-02
vertex -1.5000000E+00 -2.9999999E-02 1.5000000E-02
vertex -1.5071795E+00 -2.9128253E-02 -1.5000000E-02
endloop
endfacet
facet normal -1.2053625E-01 -9.9270892E-01 0.0000000E+00
outer loop
vertex -1.5071795E+00 -2.9128253E-02 -1.5000000E-02
vertex -1.5000000E+00 -2.9999999E-02 1.5000000E-02
vertex -1.5071795E+00 -2.9128253E-02 1.5000000E-02
endloop
endfacet
facet normal -3.5460827E-01 -9.3501502E-01 0.0000000E+00
outer loop
vertex -1.5071795E+00 -2.9128253E-02 -1.5000000E-02
vertex -1.5071795E+00 -2.9128253E-02 1.5000000E-02
vertex -1.5139416E+00 -2.6563682E-02 -1.5000000E-02
endloop
endfacet
facet normal -3.5460827E-01 -9.3501502E-01 0.0000000E+00
outer loop
vertex -1.5139416E+00 -2.6563682E-02 -1.5000000E-02
vertex -1.5071795E+00 -2.9128253E-02 1.5000000E-02
vertex -1.5139416E+00 -2.6563682E-02 1.5000000E-02
endloop
endfacet
facet normal -5.6806386E-01 -8.2298452E-01 0.0000000E+00
outer loop
vertex -1.5139416E+00 -2.6563682E-02 -1.5000000E-02
vertex -1.5139416E+00 -2.6563682E-02 1.5000000E-02
vertex -1.5198936E+00 -2.2455322E-02 -1.5000000E-02
endloop
endfacet
facet normal -5.6806386E-01 -8.2298452E-01 0.0000000E+00
outer loop
vertex -1.5198936E+00 -2.2455322E-02 -1.5000000E-02
vertex -1.5139416E+00 -2.6563682E-02 1.5000000E-02
vertex -1.5198936E+00 -2.2455322E-02 1.5000000E-02
endloop
endfacet
facet normal -7.4850577E-01 -6.6312832E-01 0.0000000E+00
outer loop
vertex -1.5198936E+00 -2.2455322E-02 -1.5000000E-02
vertex -1.5198936E+00 -2.2455322E-02 1.5000000E-02
vertex -1.5246896E+00 -1.7041942E-02 -1.5000000E-02
endloop
endfacet
facet normal -7.4850577E-01 -6.6312832E-01 0.0000000E+00
outer loop
vertex -1.5246896E+00 -1.7041942E-02 -1.5000000E-02
vertex -1.5198936E+00 -2.2455322E-02 1.5000000E-02
vertex -1.5246896E+00 -1.7041942E-02 1.5000000E-02
endloop
endfacet
facet normal -8.8546199E-01 -4.6471196E-01 0.0000000E+00
outer loop
vertex -1.5246896E+00 -1.7041942E-02 -1.5000000E-02
vertex -1.5246896E+00 -1.7041942E-02 1.5000000E-02
vertex -1.5280504E+00 -1.0638147E-02 -1.5000000E-02
endloop
endfacet
facet normal -8.8546199E-01 -4.6471196E-01 0.0000000E+00
outer loop
vertex -1.5280504E+00 -1.0638147E-02 -1.5000000E-02
vertex -1.5246896E+00 -1.7041942E-02 1.5000000E-02
vertex -1.5280504E+00 -1.0638147E-02 1.5000000E-02
endloop
endfacet
facet normal -9.7094107E-01 -2.3931834E-01 0.0000000E+00
outer loop
vertex -1.5280504E+00 -1.0638147E-02 -1.5000000E-02
vertex -1.5280504E+00 -1.0638147E-02 1.5000000E-02
vertex -1.5297812E+00 -3.6161004E-03 -1.5000000E-02
endloop
endfacet
facet normal -9.7094107E-01 -2.3931834E-01 0.0000000E+00
outer loop
vertex -1.5297812E+00 -3.6161004E-03 -1.5000000E-02
vertex -1.5280504E+00 -1.0638147E-02 1.5000000E-02
vertex -1.5297812E+00 -3.6161004E-03 1.5000000E-02
endloop
endfacet
facet normal -9.9999994E-01 0.0000000E+00 0.0000000E+00
outer loop
vertex -1.5297812E+00 -3.6161004E-03 -1.5000000E-02
vertex -1.5297812E+00 -3.6161004E-03 1.5000000E-02
vertex -1.5297812E+00 3.6161004E-03 -1.5000000E-02
endloop
endfacet
facet normal -9.9999994E-01 0.0000000E+00 0.0000000E+00
outer loop
vertex -1.5297812E+00 3.6161004E-03 -1.5000000E-02
vertex -1.5297812E+00 -3.6161004E-03 1.5000000E-02
vertex -1.5297812E+00 3.6161004E-03 1.5000000E-02
endloop
endfacet
facet normal -9.7094107E-01 2.3931834E-01 0.0000000E+00
outer loop
vertex -1.5297812E+00 3.6161004E-03 -1.5000000E-02
vertex -1.5297812E+00 3.6161004E-03 1.5000000E-02
vertex -1.5280504E+00 1.0638147E-02 -1.5000000E-02
endloop
endfacet
facet normal -9.7094107E-01 2.3931834E-01 0.0000000E+00
outer loop
vertex -1.5280504E+00 1.0638147E-02 -1.5000000E-02
vertex -1.5297812E+00 3.6161004E-03 1.5000000E-02
vertex -1.5280504E+00 1.0638147E-02 1.5000000E-02
endloop
endfacet
facet normal -8.8546199E-01 4.6471196E-01 0.0000000E+00
outer loop
vertex -1.5280504E+00 1.0638147E-02 -1.5000000E-02
vertex -1.5280504E+00 1.0638147E-02 1.5000000E-02
vertex -1.5246896E+00 1.7041942E-02 -1.5000000E-02
endloop
endfacet
facet normal -8.8546199E-01 4.6471196E-01 0.0000000E+00
outer loop
vertex -1.5246896E+00 1.7041942E-02 -1.5000000E-02
vertex -1.5280504E+00 1.0638147E-02 1.5000000E-02
vertex -1.5246896E+00 1.7041942E-02 1.5000000E-02
endloop
endfacet
facet normal -7.4850577E-01 6.6312832E-01 0.0000000E+00
outer loop
vertex -1.5246896E+00 1.7041942E-02 -1.5000000E-02
vertex -1.5246896E+00 1.7041942E-02 1.5000000E-02
vertex -1.5198936E+00 2.2455322E-02 -1.5000000E-02
endloop
endfacet
facet normal -7.4850577E-01 6.6312832E-01 0.0000000E+00
outer loop
vertex -1.5198936E+00 2.2455322E-02 -1.5000000E-02
vertex -1.5246896E+00 1.7041942E-02 1.5000000E-02
vertex -1.5198936E+00 2.2455322E-02 1.5000000E-02
endloop
endfacet
facet normal -5.6806386E-01 8.2298452E-01 0.0000000E+00
outer loop
vertex -1.5198936E+00 2.2455322E-02 -1.5000000E-02
vertex -1.5198936E+00 2.2455322E-02 1.5000000E-02
vertex -1.5139416E+00 2.6563682E-02 -1.5000000E-02
endloop
endfacet
facet normal -5.6806386E-01 8.2298452E-01 0.0000000E+00
outer loop
vertex -1.5139416E+00 2.6563682E-02 -1.5000000E-02
vertex -1.5198936E+00 2.2455322E-02 1.5000000E-02
vertex -1.5139416E+00 2.6563682E-02 1.5000000E-02
endloop
endfacet
facet normal -3.5460827E-01 9.3501502E-01 0.0000000E+00
outer loop
vertex -1.5139416E+00 2.6563682E-02 -1.5000000E-02
vertex -1.5139416E+00 2.6563682E-02 1.5000000E-02
vertex -1.5071795E+00 2.9128253E-02 -1.5000000E-02
endloop
endfacet
facet normal -3.5460827E-01 9.3501502E-01 0.0000000E+00
outer loop
vertex -1.5071795E+00 2.9128253E-02 -1.5000000E-02
vertex -1.5139416E+00 2.6563682E-02 1.5000000E-02
vertex -1.5071795E+00 2.9128253E-02 1.5000000E-02
endloop
endfacet
facet normal -1.2053625E-01 9.9270892E-01 0.0000000E+00
outer loop
vertex -1.5071795E+00 2.9128253E-02 -1.5000000E-02
vertex -1.5071795E+00 2.9128253E-02 1.5000000E-02
vertex -1.5000000E+00 2.9999999E-02 -1.5000000E-02
endloop
endfacet
facet normal -1.2053625E-01 9.9270892E-01 0.0000000E+00
outer loop
vertex -1.5000000E+00 2.9999999E-02 -1.5000000E-02
vertex -1.5071795E+00 2.9128253E-02 1.5000000E-02
vertex -1.5000000E+00 2.9999999E-02 1.5000000E-02
endloop
endfacet
facet normal -0.0000000E+00 0.0000000E+00 -1.0000000E+00
outer loop
vertex -1.4488892E-02 3.8822857E-03 -1.5000000E-02
vertex -1.5000000E-02 -4.3731962E-16 -1.5000000E-02
vertex -7.5000000E-01 1.5000000E-02 -1.5000000E-02
endloop
endfacet
facet normal 0.0000000E+00 0.0000000E+00 -1.0000000E+00
outer loop
vertex -7.5000000E-01 1.5000000E-02 -1.5000000E-02
vertex -1.5000000E-02 -4.3731962E-16 -1.5000000E-02
vertex -1.4488892E-02 -3.8822857E-03 -1.5000000E-02
endloop
endfacet
facet normal 0.0000000E+00 0.0000000E+00 -9.9999994E-01
outer loop
vertex -7.5000000E-01 1.5000000E-02 -1.5000000E-02
vertex -1.4488892E-02 -3.8822857E-03 -1.5000000E-02
vertex -1.2990356E-02 -7.4999998E-03 -1.5000000E-02
endloop
endfacet
facet normal -0.0000000E+00 -0.0000000E+00 -1.0000000E+00
outer loop
vertex -1.2990356E-02 -7.4999998E-03 -1.5000000E-02
vertex -1.0606567E-02 -1.0606602E-02 -1.5000000E-02
vertex -7.5000000E-01 1.5000000E-02 -1.5000000E-02
endloop
endfacet
facet normal 0.0000000E+00 0.0000000E+00 -1.0000000E+00
outer loop
vertex -7.5000000E-01 1.5000000E-02 -1.5000000E-02
vertex -1.0606567E-02 -1.0606602E-02 -1.5000000E-02
vertex -7.4999998E-03 -1.2990382E-02 -1.5000000E-02
endloop
endfacet
facet normal 0.0000000E+00 0.0000000E+00 -1.0000000E+00
outer loop
vertex -7.5000000E-01 1.5000000E-02 -1.5000000E-02
vertex -7.4999998E-03 -1.2990382E-02 -1.5000000E-02
vertex -3.8823243E-03 -1.4488888E-02 -1.5000000E-02
endloop
endfacet
facet normal -0.0000000E+00 -0.0000000E+00 -1.0000000E+00
outer loop
vertex 0.0000000E+00 -1.5000000E-02 -1.5000000E-02
vertex 1.9893676E-02 -2.2455322E-02 -1.5000000E-02
vertex -3.8823243E-03 -1.4488888E-02 -1.5000000E-02
endloop
endfacet
facet normal 0.0000000E+00 0.0000000E+00 -1.0000000E+00
outer loop
vertex -3.8823243E-03 -1.4488888E-02 -1.5000000E-02
vertex 1.9893676E-02 -2.2455322E-02 -1.5000000E-02
vertex 1.3941650E-02 -2.6563682E-02 -1.5000000E-02
endloop
endfacet
facet normal 0.0000000E+00 0.0000000E+00 -1.0000000E+00
outer loop
vertex -3.8823243E-03 -1.4488888E-02 -1.5000000E-02
vertex 1.3941650E-02 -2.6563682E-02 -1.5000000E-02
vertex 0.0000000E+00 -2.9999999E-02 -1.5000000E-02
endloop
endfacet
facet normal 0.0000000E+00 0.0000000E+00 -9.9999994E-01
outer loop
vertex 0.0000000E+00 -2.9999999E-02 -1.5000000E-02
vertex 1.3941650E-02 -2.6563682E-02 -1.5000000E-02
vertex 7.1794433E-03 -2.9128253E-02 -1.5000000E-02
endloop
endfacet
facet normal 0.0000000E+00 0.0000000E+00 -1.0000000E+00
outer loop
vertex 1.9893676E-02 -2.2455322E-02 -1.5000000E-02
vertex 0.0000000E+00 -1.5000000E-02 -1.5000000E-02
vertex 2.4689576E-02 -1.7041942E-02 -1.5000000E-02
endloop
endfacet
facet normal 0.0000000E+00 0.0000000E+00 -1.0000000E+00
outer loop
vertex 2.4689576E-02 -1.7041942E-02 -1.5000000E-02
vertex 0.0000000E+00 -1.5000000E-02 -1.5000000E-02
vertex 3.8823243E-03 -1.4488888E-02 -1.5000000E-02
endloop
endfacet
facet normal 0.0000000E+00 0.0000000E+00 -1.0000000E+00
outer loop
vertex 2.4689576E-02 -1.7041942E-02 -1.5000000E-02
vertex 3.8823243E-03 -1.4488888E-02 -1.5000000E-02
vertex 7.4999998E-03 -1.2990382E-02 -1.5000000E-02
endloop
endfacet
facet normal 0.0000000E+00 0.0000000E+00 -1.0000000E+00
outer loop
vertex 2.4689576E-02 -1.7041942E-02 -1.5000000E-02
vertex 7.4999998E-03 -1.2990382E-02 -1.5000000E-02
vertex 2.8050536E-02 -1.0638147E-02 -1.5000000E-02
endloop
endfacet
facet normal -0.0000000E+00 0.0000000E+00 -1.0000000E+00
outer loop
vertex 2.8050536E-02 -1.0638147E-02 -1.5000000E-02
vertex 7.4999998E-03 -1.2990382E-02 -1.5000000E-02
vertex 1.0606567E-02 -1.0606602E-02 -1.5000000E-02
endloop
endfacet
facet normal 0.0000000E+00 0.0000000E+00 -1.0000000E+00
outer loop
vertex 2.8050536E-02 -1.0638147E-02 -1.5000000E-02
vertex 1.0606567E-02 -1.0606602E-02 -1.5000000E-02
vertex 1.2990356E-02 -7.4999998E-03 -1.5000000E-02
endloop
endfacet
facet normal 0.0000000E+00 0.0000000E+00 -1.0000000E+00
outer loop
vertex 2.8050536E-02 -1.0638147E-02 -1.5000000E-02
vertex 1.2990356E-02 -7.4999998E-03 -1.5000000E-02
vertex 2.9781250E-02 -3.6161004E-03 -1.5000000E-02
endloop
endfacet
facet normal 0.0000000E+00 0.0000000E+00 -9.9999994E-01
outer loop
vertex 2.9781250E-02 -3.6161004E-03 -1.5000000E-02
vertex 1.2990356E-02 -7.4999998E-03 -1.5000000E-02
vertex 1.4488892E-02 -3.8822857E-03 -1.5000000E-02
endloop
endfacet
facet normal -0.0000000E+00 0.0000000E+00 -1.0000000E+00
outer loop
vertex 2.9781250E-02 -3.6161004E-03 -1.5000000E-02
vertex 1.4488892E-02 -3.8822857E-03 -1.5000000E-02
vertex 1.5000000E-02 -4.4803834E-16 -1.5000000E-02
endloop
endfacet
facet normal 0.0000000E+00 0.0000000E+00 -1.0000000E+00
outer loop
vertex 2.9781250E-02 -3.6161004E-03 -1.5000000E-02
vertex 1.5000000E-02 -4.4803834E-16 -1.5000000E-02
vertex 2.9781250E-02 3.6161004E-03 -1.5000000E-02
endloop
endfacet
facet normal -0.0000000E+00 0.0000000E+00 -1.0000000E+00
outer loop
vertex 2.9781250E-02 3.6161004E-03 -1.5000000E-02
vertex 1.5000000E-02 -4.4803834E-16 -1.5000000E-02
vertex 1.4488892E-02 3.8822857E-03 -1.5000000E-02
endloop
endfacet
facet normal 0.0000000E+00 0.0000000E+00 -9.9999994E-01
outer loop
vertex 2.9781250E-02 3.6161004E-03 -1.5000000E-02
vertex 1.4488892E-02 3.8822857E-03 -1.5000000E-02
vertex 1.2990356E-02 7.4999998E-03 -1.5000000E-02
endloop
endfacet
facet normal 0.0000000E+00 0.0000000E+00 -9.9999994E-01
outer loop
vertex 2.9781250E-02 3.6161004E-03 -1.5000000E-02
vertex 1.2990356E-02 7.4999998E-03 -1.5000000E-02
vertex 2.8050536E-02 1.0638147E-02 -1.5000000E-02
endloop
endfacet
facet normal 0.0000000E+00 0.0000000E+00 -1.0000000E+00
outer loop
vertex 2.8050536E-02 1.0638147E-02 -1.5000000E-02
vertex 1.2990356E-02 7.4999998E-03 -1.5000000E-02
vertex 1.0606567E-02 1.0606602E-02 -1.5000000E-02
endloop
endfacet
facet normal -0.0000000E+00 0.0000000E+00 -1.0000000E+00
outer loop
vertex 2.8050536E-02 1.0638147E-02 -1.5000000E-02
vertex 1.0606567E-02 1.0606602E-02 -1.5000000E-02
vertex 7.4999998E-03 1.2990382E-02 -1.5000000E-02
endloop
endfacet
facet normal 0.0000000E+00 0.0000000E+00 -1.0000000E+00
outer loop
vertex 2.8050536E-02 1.0638147E-02 -1.5000000E-02
vertex 7.4999998E-03 1.2990382E-02 -1.5000000E-02
vertex 2.4689576E-02 1.7041942E-02 -1.5000000E-02
endloop
endfacet
facet normal 0.0000000E+00 0.0000000E+00 -1.0000000E+00
outer loop
vertex 2.4689576E-02 1.7041942E-02 -1.5000000E-02
vertex 7.4999998E-03 1.2990382E-02 -1.5000000E-02
vertex 3.8823243E-03 1.4488888E-02 -1.5000000E-02
endloop
endfacet
facet normal 0.0000000E+00 0.0000000E+00 -1.0000000E+00
outer loop
vertex 2.4689576E-02 1.7041942E-02 -1.5000000E-02
vertex 3.8823243E-03 1.4488888E-02 -1.5000000E-02
vertex 0.0000000E+00 1.5000000E-02 -1.5000000E-02
endloop
endfacet
facet normal -0.0000000E+00 0.0000000E+00 -1.0000000E+00
outer loop
vertex 2.4689576E-02 1.7041942E-02 -1.5000000E-02
vertex 0.0000000E+00 1.5000000E-02 -1.5000000E-02
vertex 1.9893676E-02 2.2455322E-02 -1.5000000E-02
endloop
endfacet
facet normal 0.0000000E+00 0.0000000E+00 -9.9999994E-01
outer loop
vertex 1.9893676E-02 2.2455322E-02 -1.5000000E-02
vertex 0.0000000E+00 1.5000000E-02 -1.5000000E-02
vertex -3.8823243E-03 1.4488888E-02 -1.5000000E-02
endloop
endfacet
facet normal -0.0000000E+00 0.0000000E+00 -1.0000000E+00
outer loop
vertex 1.9893676E-02 2.2455322E-02 -1.5000000E-02
vertex -3.8823243E-03 1.4488888E-02 -1.5000000E-02
vertex 1.3941650E-02 2.6563682E-02 -1.5000000E-02
endloop
endfacet
facet normal -0.0000000E+00 0.0000000E+00 -1.0000000E+00
outer loop
vertex 1.3941650E-02 2.6563682E-02 -1.5000000E-02
vertex -3.8823243E-03 1.4488888E-02 -1.5000000E-02
vertex 0.0000000E+00 2.9999999E-02 -1.5000000E-02
endloop
endfacet
facet normal 0.0000000E+00 0.0000000E+00 -1.0000000E+00
outer loop
vertex 1.3941650E-02 2.6563682E-02 -1.5000000E-02
vertex 0.0000000E+00 2.9999999E-02 -1.5000000E-02
vertex 7.1794433E-03 2.9128253E-02 -1.5000000E-02
endloop
endfacet
facet normal 0.0000000E+00 0.0000000E+00 -1.0000000E+00
outer loop
vertex 0.0000000E+00 2.9999999E-02 -1.5000000E-02
vertex -3.8823243E-03 1.4488888E-02 -1.5000000E-02
vertex -7.5000000E-01 1.5000000E-02 -1.5000000E-02
endloop
endfacet
facet normal 0.0000000E+00 0.0000000E+00 -1.0000000E+00
outer loop
vertex -7.5000000E-01 1.5000000E-02 -1.5000000E-02
vertex -3.8823243E-03 1.4488888E-02 -1.5000000E-02
vertex -7.4999998E-03 1.2990382E-02 -1.5000000E-02
endloop
endfacet
facet normal 0.0000000E+00 0.0000000E+00 -1.0000000E+00
outer loop
vertex -7.5000000E-01 1.5000000E-02 -1.5000000E-02
vertex -7.4999998E-03 1.2990382E-02 -1.5000000E-02
vertex -1.0606567E-02 1.0606602E-02 -1.5000000E-02
endloop
endfacet
facet normal -0.0000000E+00 0.0000000E+00 -1.0000000E+00
outer loop
vertex -1.0606567E-02 1.0606602E-02 -1.5000000E-02
vertex -1.2990356E-02 7.4999998E-03 -1.5000000E-02
vertex -7.5000000E-01 1.5000000E-02 -1.5000000E-02
endloop
endfacet
facet normal 0.0000000E+00 0.0000000E+00 -1.0000000E+00
outer loop
vertex -7.5000000E-01 1.5000000E-02 -1.5000000E-02
vertex -1.2990356E-02 7.4999998E-03 -1.5000000E-02
vertex -1.4488892E-02 3.8822857E-03 -1.5000000E-02
endloop
endfacet
facet normal 0.0000000E+00 0.0000000E+00 -9.9999994E-01
outer loop
vertex -1.5144889E+00 -3.8822857E-03 -1.5000000E-02
vertex -1.5297812E+00 -3.6161004E-03 -1.5000000E-02
vertex -1.5150000E+00 -3.4547110E-16 -1.5000000E-02
endloop
endfacet
facet normal -0.0000000E+00 0.0000000E+00 -1.0000000E+00
outer loop
vertex -1.5150000E+00 -3.4547110E-16 -1.5000000E-02
vertex -1.5297812E+00 -3.6161004E-03 -1.5000000E-02
vertex -1.5297812E+00 3.6161004E-03 -1.5000000E-02
endloop
endfacet
facet normal 0.0000000E+00 0.0000000E+00 -9.9999994E-01
outer loop
vertex -1.5150000E+00 -3.4547110E-16 -1.5000000E-02
vertex -1.5297812E+00 3.6161004E-03 -1.5000000E-02
vertex -1.5144889E+00 3.8822857E-03 -1.5000000E-02
endloop
endfacet
facet normal -0.0000000E+00 0.0000000E+00 -1.0000000E+00
outer loop
vertex -1.5144889E+00 3.8822857E-03 -1.5000000E-02
vertex -1.5297812E+00 3.6161004E-03 -1.5000000E-02
vertex -1.5129904E+00 7.4999998E-03 -1.5000000E-02
endloop
endfacet
facet normal -0.0000000E+00 0.0000000E+00 -1.0000000E+00
outer loop
vertex -1.5129904E+00 7.4999998E-03 -1.5000000E-02
vertex -1.5297812E+00 3.6161004E-03 -1.5000000E-02
vertex -1.5280504E+00 1.0638147E-02 -1.5000000E-02
endloop
endfacet
facet normal 0.0000000E+00 0.0000000E+00 -1.0000000E+00
outer loop
vertex -1.5129904E+00 7.4999998E-03 -1.5000000E-02
vertex -1.5280504E+00 1.0638147E-02 -1.5000000E-02
vertex -1.5106066E+00 1.0606602E-02 -1.5000000E-02
endloop
endfacet
facet normal 0.0000000E+00 0.0000000E+00 -1.0000000E+00
outer loop
vertex -1.5106066E+00 1.0606602E-02 -1.5000000E-02
vertex -1.5280504E+00 1.0638147E-02 -1.5000000E-02
vertex -1.5075001E+00 1.2990382E-02 -1.5000000E-02
endloop
endfacet
facet normal -0.0000000E+00 0.0000000E+00 -1.0000000E+00
outer loop
vertex -1.5075001E+00 1.2990382E-02 -1.5000000E-02
vertex -1.5280504E+00 1.0638147E-02 -1.5000000E-02
vertex -1.5246896E+00 1.7041942E-02 -1.5000000E-02
endloop
endfacet
facet normal 0.0000000E+00 0.0000000E+00 -1.0000000E+00
outer loop
vertex -1.5075001E+00 1.2990382E-02 -1.5000000E-02
vertex -1.5246896E+00 1.7041942E-02 -1.5000000E-02
vertex -1.5038823E+00 1.4488888E-02 -1.5000000E-02
endloop
endfacet
facet normal 0.0000000E+00 0.0000000E+00 -1.0000000E+00
outer loop
vertex -1.5038823E+00 1.4488888E-02 -1.5000000E-02
vertex -1.5246896E+00 1.7041942E-02 -1.5000000E-02
vertex -1.5000000E+00 1.5000000E-02 -1.5000000E-02
endloop
endfacet
facet normal 0.0000000E+00 0.0000000E+00 -1.0000000E+00
outer loop
vertex -1.5000000E+00 1.5000000E-02 -1.5000000E-02
vertex -1.5246896E+00 1.7041942E-02 -1.5000000E-02
vertex -1.5198936E+00 2.2455322E-02 -1.5000000E-02
endloop
endfacet
facet normal 0.0000000E+00 0.0000000E+00 -1.0000000E+00
outer loop
vertex -1.5000000E+00 1.5000000E-02 -1.5000000E-02
vertex -1.5198936E+00 2.2455322E-02 -1.5000000E-02
vertex -1.4961177E+00 1.4488888E-02 -1.5000000E-02
endloop
endfacet
facet normal 0.0000000E+00 0.0000000E+00 -1.0000000E+00
outer loop
vertex -1.4961177E+00 1.4488888E-02 -1.5000000E-02
vertex -1.5198936E+00 2.2455322E-02 -1.5000000E-02
vertex -1.5139416E+00 2.6563682E-02 -1.5000000E-02
endloop
endfacet
facet normal 0.0000000E+00 0.0000000E+00 -1.0000000E+00
outer loop
vertex -1.4961177E+00 1.4488888E-02 -1.5000000E-02
vertex -1.5139416E+00 2.6563682E-02 -1.5000000E-02
vertex -1.5000000E+00 2.9999999E-02 -1.5000000E-02
endloop
endfacet
facet normal 0.0000000E+00 0.0000000E+00 -9.9999994E-01
outer loop
vertex -1.5000000E+00 2.9999999E-02 -1.5000000E-02
vertex -1.5139416E+00 2.6563682E-02 -1.5000000E-02
vertex -1.5071795E+00 2.9128253E-02 -1.5000000E-02
endloop
endfacet
facet normal -0.0000000E+00 -0.0000000E+00 -1.0000000E+00
outer loop
vertex -1.5144889E+00 -3.8822857E-03 -1.5000000E-02
vertex -1.5129904E+00 -7.4999998E-03 -1.5000000E-02
vertex -1.5297812E+00 -3.6161004E-03 -1.5000000E-02
endloop
endfacet
facet normal 0.0000000E+00 0.0000000E+00 -1.0000000E+00
outer loop
vertex -1.5297812E+00 -3.6161004E-03 -1.5000000E-02
vertex -1.5129904E+00 -7.4999998E-03 -1.5000000E-02
vertex -1.5280504E+00 -1.0638147E-02 -1.5000000E-02
endloop
endfacet
facet normal 0.0000000E+00 0.0000000E+00 -1.0000000E+00
outer loop
vertex -1.5280504E+00 -1.0638147E-02 -1.5000000E-02
vertex -1.5129904E+00 -7.4999998E-03 -1.5000000E-02
vertex -1.5106066E+00 -1.0606602E-02 -1.5000000E-02
endloop
endfacet
facet normal 0.0000000E+00 0.0000000E+00 -1.0000000E+00
outer loop
vertex -1.5280504E+00 -1.0638147E-02 -1.5000000E-02
vertex -1.5106066E+00 -1.0606602E-02 -1.5000000E-02
vertex -1.5075001E+00 -1.2990382E-02 -1.5000000E-02
endloop
endfacet
facet normal 0.0000000E+00 0.0000000E+00 -1.0000000E+00
outer loop
vertex -1.5280504E+00 -1.0638147E-02 -1.5000000E-02
vertex -1.5075001E+00 -1.2990382E-02 -1.5000000E-02
vertex -1.5246896E+00 -1.7041942E-02 -1.5000000E-02
endloop
endfacet
facet normal 0.0000000E+00 0.0000000E+00 -1.0000000E+00
outer loop
vertex -1.5246896E+00 -1.7041942E-02 -1.5000000E-02
vertex -1.5075001E+00 -1.2990382E-02 -1.5000000E-02
vertex -1.5038823E+00 -1.4488888E-02 -1.5000000E-02
endloop
endfacet
facet normal 0.0000000E+00 0.0000000E+00 -1.0000000E+00
outer loop
vertex -1.5246896E+00 -1.7041942E-02 -1.5000000E-02
vertex -1.5038823E+00 -1.4488888E-02 -1.5000000E-02
vertex -1.5000000E+00 -1.5000000E-02 -1.5000000E-02
endloop
endfacet
facet normal 0.0000000E+00 0.0000000E+00 -1.0000000E+00
outer loop
vertex -1.5246896E+00 -1.7041942E-02 -1.5000000E-02
vertex -1.5000000E+00 -1.5000000E-02 -1.5000000E-02
vertex -1.5198936E+00 -2.2455322E-02 -1.5000000E-02
endloop
endfacet
facet normal 0.0000000E+00 0.0000000E+00 -1.0000000E+00
outer loop
vertex -1.5198936E+00 -2.2455322E-02 -1.5000000E-02
vertex -1.5000000E+00 -1.5000000E-02 -1.5000000E-02
vertex -1.4961177E+00 -1.4488888E-02 -1.5000000E-02
endloop
endfacet
facet normal 0.0000000E+00 0.0000000E+00 -1.0000000E+00
outer loop
vertex -1.5198936E+00 -2.2455322E-02 -1.5000000E-02
vertex -1.4961177E+00 -1.4488888E-02 -1.5000000E-02
vertex -1.5139416E+00 -2.6563682E-02 -1.5000000E-02
endloop
endfacet
facet normal 0.0000000E+00 0.0000000E+00 -1.0000000E+00
outer loop
vertex -1.5139416E+00 -2.6563682E-02 -1.5000000E-02
vertex -1.4961177E+00 -1.4488888E-02 -1.5000000E-02
vertex -1.5000000E+00 -2.9999999E-02 -1.5000000E-02
endloop
endfacet
facet normal 0.0000000E+00 0.0000000E+00 -1.0000000E+00
outer loop
vertex -1.5139416E+00 -2.6563682E-02 -1.5000000E-02
vertex -1.5000000E+00 -2.9999999E-02 -1.5000000E-02
vertex -1.5071795E+00 -2.9128253E-02 -1.5000000E-02
endloop
endfacet
facet normal 0.0000000E+00 0.0000000E+00 -1.0000000E+00
outer loop
vertex -1.5000000E+00 -2.9999999E-02 -1.5000000E-02
vertex -1.4961177E+00 -1.4488888E-02 -1.5000000E-02
vertex -7.5000000E-01 1.5000000E-02 -1.5000000E-02
endloop
endfacet
facet normal 0.0000000E+00 0.0000000E+00 -1.0000000E+00
outer loop
vertex -7.5000000E-01 1.5000000E-02 -1.5000000E-02
vertex -1.4961177E+00 -1.4488888E-02 -1.5000000E-02
vertex -1.4924999E+00 -1.2990382E-02 -1.5000000E-02
endloop
endfacet
facet normal 0.0000000E+00 0.0000000E+00 -1.0000000E+00
outer loop
vertex -7.5000000E-01 1.5000000E-02 -1.5000000E-02
vertex -1.4924999E+00 -1.2990382E-02 -1.5000000E-02
vertex -1.4893934E+00 -1.0606602E-02 -1.5000000E-02
endloop
endfacet
facet normal 0.0000000E+00 0.0000000E+00 -1.0000000E+00
outer loop
vertex -1.4893934E+00 -1.0606602E-02 -1.5000000E-02
vertex -1.4870096E+00 -7.4999998E-03 -1.5000000E-02
vertex -7.5000000E-01 1.5000000E-02 -1.5000000E-02
endloop
endfacet
facet normal 0.0000000E+00 0.0000000E+00 -9.9999994E-01
outer loop
vertex -7.5000000E-01 1.5000000E-02 -1.5000000E-02
vertex -1.4870096E+00 -7.4999998E-03 -1.5000000E-02
vertex -1.4855111E+00 -3.8822857E-03 -1.5000000E-02
endloop
endfacet
facet normal 0.0000000E+00 0.0000000E+00 -1.0000000E+00
outer loop
vertex -7.5000000E-01 1.5000000E-02 -1.5000000E-02
vertex -1.4855111E+00 -3.8822857E-03 -1.5000000E-02
vertex -1.4850000E+00 -3.5618985E-16 -1.5000000E-02
endloop
endfacet
facet normal 0.0000000E+00 0.0000000E+00 -1.0000000E+00
outer loop
vertex -1.4850000E+00 -3.5618985E-16 -1.5000000E-02
vertex -1.4855111E+00 3.8822857E-03 -1.5000000E-02
vertex -7.5000000E-01 1.5000000E-02 -1.5000000E-02
endloop
endfacet
facet normal 0.0000000E+00 0.0000000E+00 -1.0000000E+00
outer loop
vertex -7.5000000E-01 1.5000000E-02 -1.5000000E-02
vertex -1.4855111E+00 3.8822857E-03 -1.5000000E-02
vertex -1.4870096E+00 7.4999998E-03 -1.5000000E-02
endloop
endfacet
facet normal 0.0000000E+00 0.0000000E+00 -9.9999994E-01
outer loop
vertex -7.5000000E-01 1.5000000E-02 -1.5000000E-02
vertex -1.4870096E+00 7.4999998E-03 -1.5000000E-02
vertex -1.4893934E+00 1.0606602E-02 -1.5000000E-02
endloop
endfacet
facet normal 0.0000000E+00 0.0000000E+00 -9.9999994E-01
outer loop
vertex -1.4893934E+00 1.0606602E-02 -1.5000000E-02
vertex -1.4924999E+00 1.2990382E-02 -1.5000000E-02
vertex -7.5000000E-01 1.5000000E-02 -1.5000000E-02
endloop
endfacet
facet normal 0.0000000E+00 0.0000000E+00 -1.0000000E+00
outer loop
vertex -7.5000000E-01 1.5000000E-02 -1.5000000E-02
vertex -1.4924999E+00 1.2990382E-02 -1.5000000E-02
vertex -1.4961177E+00 1.4488888E-02 -1.5000000E-02
endloop
endfacet
facet normal -0.0000000E+00 0.0000000E+00 -1.0000000E+00
outer loop
vertex -7.5000000E-01 1.5000000E-02 -1.5000000E-02
vertex -1.4961177E+00 1.4488888E-02 -1.5000000E-02
vertex -1.5000000E+00 2.9999999E-02 -1.5000000E-02
endloop
endfacet
facet normal 0.0000000E+00 0.0000000E+00 -1.0000000E+00
outer loop
vertex -1.5000000E+00 2.9999999E-02 -1.5000000E-02
vertex 0.0000000E+00 2.9999999E-02 -1.5000000E-02
vertex -7.5000000E-01 1.5000000E-02 -1.5000000E-02
endloop
endfacet
facet normal -0.0000000E+00 -0.0000000E+00 -1.0000000E+00
outer loop
vertex -3.8823243E-03 -1.4488888E-02 -1.5000000E-02
vertex 0.0000000E+00 -2.9999999E-02 -1.5000000E-02
vertex -7.5000000E-01 1.5000000E-02 -1.5000000E-02
endloop
endfacet
facet normal 0.0000000E+00 -0.0000000E+00 -1.0000000E+00
outer loop
vertex -7.5000000E-01 1.5000000E-02 -1.5000000E-02
vertex 0.0000000E+00 -2.9999999E-02 -1.5000000E-02
vertex -1.5000000E+00 -2.9999999E-02 -1.5000000E-02
endloop
endfacet
facet normal 0.0000000E+00 0.0000000E+00 1.0000000E+00
outer loop
vertex -1.4488892E-02 -3.8822857E-03 1.5000000E-02
vertex -1.5000000E-02 -4.4620139E-16 1.5000000E-02
vertex -7.5000000E-01 1.5000000E-02 1.5000000E-02
endloop
endfacet
facet normal 0.0000000E+00 0.0000000E+00 1.0000000E+00
outer loop
vertex -7.5000000E-01 1.5000000E-02 1.5000000E-02
vertex -1.5000000E-02 -4.4620139E-16 1.5000000E-02
vertex -1.4488892E-02 3.8822857E-03 1.5000000E-02
endloop
endfacet
facet normal 0.0000000E+00 0.0000000E+00 1.0000000E+00
outer loop
vertex -7.5000000E-01 1.5000000E-02 1.5000000E-02
vertex -1.4488892E-02 3.8822857E-03 1.5000000E-02
vertex -1.2990356E-02 7.4999998E-03 1.5000000E-02
endloop
endfacet
facet normal 0.0000000E+00 -0.0000000E+00 1.0000000E+00
outer loop
vertex -1.2990356E-02 7.4999998E-03 1.5000000E-02
vertex -1.0606567E-02 1.0606602E-02 1.5000000E-02
vertex -7.5000000E-01 1.5000000E-02 1.5000000E-02
endloop
endfacet
facet normal 0.0000000E+00 0.0000000E+00 1.0000000E+00
outer loop
vertex -7.5000000E-01 1.5000000E-02 1.5000000E-02
vertex -1.0606567E-02 1.0606602E-02 1.5000000E-02
vertex -7.4999998E-03 1.2990382E-02 1.5000000E-02
endloop
endfacet
facet normal 0.0000000E+00 0.0000000E+00 1.0000000E+00
outer loop
vertex -7.5000000E-01 1.5000000E-02 1.5000000E-02
vertex -7.4999998E-03 1.2990382E-02 1.5000000E-02
vertex -3.8823243E-03 1.4488888E-02 1.5000000E-02
endloop
endfacet
facet normal 0.0000000E+00 -0.0000000E+00 1.0000000E+00
outer loop
vertex 0.0000000E+00 1.5000000E-02 1.5000000E-02
vertex 1.9893676E-02 2.2455322E-02 1.5000000E-02
vertex -3.8823243E-03 1.4488888E-02 1.5000000E-02
endloop
endfacet
facet normal 0.0000000E+00 0.0000000E+00 1.0000000E+00
outer loop
vertex -3.8823243E-03 1.4488888E-02 1.5000000E-02
vertex 1.9893676E-02 2.2455322E-02 1.5000000E-02
vertex 1.3941650E-02 2.6563682E-02 1.5000000E-02
endloop
endfacet
facet normal 0.0000000E+00 0.0000000E+00 1.0000000E+00
outer loop
vertex -3.8823243E-03 1.4488888E-02 1.5000000E-02
vertex 1.3941650E-02 2.6563682E-02 1.5000000E-02
vertex 0.0000000E+00 2.9999999E-02 1.5000000E-02
endloop
endfacet
facet normal 0.0000000E+00 0.0000000E+00 9.9999994E-01
outer loop
vertex 0.0000000E+00 2.9999999E-02 1.5000000E-02
vertex 1.3941650E-02 2.6563682E-02 1.5000000E-02
vertex 7.1794433E-03 2.9128253E-02 1.5000000E-02
endloop
endfacet
facet normal 0.0000000E+00 0.0000000E+00 1.0000000E+00
outer loop
vertex 1.9893676E-02 2.2455322E-02 1.5000000E-02
vertex 0.0000000E+00 1.5000000E-02 1.5000000E-02
vertex 2.4689576E-02 1.7041942E-02 1.5000000E-02
endloop
endfacet
facet normal 0.0000000E+00 0.0000000E+00 1.0000000E+00
outer loop
vertex 2.4689576E-02 1.7041942E-02 1.5000000E-02
vertex 0.0000000E+00 1.5000000E-02 1.5000000E-02
vertex 3.8823243E-03 1.4488888E-02 1.5000000E-02
endloop
endfacet
facet normal 0.0000000E+00 0.0000000E+00 1.0000000E+00
outer loop
vertex 2.4689576E-02 1.7041942E-02 1.5000000E-02
vertex 3.8823243E-03 1.4488888E-02 1.5000000E-02
vertex 7.4999998E-03 1.2990382E-02 1.5000000E-02
endloop
endfacet
facet normal 0.0000000E+00 0.0000000E+00 1.0000000E+00
outer loop
vertex 2.4689576E-02 1.7041942E-02 1.5000000E-02
vertex 7.4999998E-03 1.2990382E-02 1.5000000E-02
vertex 2.8050536E-02 1.0638147E-02 1.5000000E-02
endloop
endfacet
facet normal 0.0000000E+00 0.0000000E+00 1.0000000E+00
outer loop
vertex 2.8050536E-02 1.0638147E-02 1.5000000E-02
vertex 7.4999998E-03 1.2990382E-02 1.5000000E-02
vertex 1.0606567E-02 1.0606602E-02 1.5000000E-02
endloop
endfacet
facet normal 0.0000000E+00 0.0000000E+00 1.0000000E+00
outer loop
vertex 2.8050536E-02 1.0638147E-02 1.5000000E-02
vertex 1.0606567E-02 1.0606602E-02 1.5000000E-02
vertex 1.2990356E-02 7.4999998E-03 1.5000000E-02
endloop
endfacet
facet normal 0.0000000E+00 0.0000000E+00 1.0000000E+00
outer loop
vertex 2.8050536E-02 1.0638147E-02 1.5000000E-02
vertex 1.2990356E-02 7.4999998E-03 1.5000000E-02
vertex 2.9781250E-02 3.6161004E-03 1.5000000E-02
endloop
endfacet
facet normal 0.0000000E+00 0.0000000E+00 9.9999994E-01
outer loop
vertex 2.9781250E-02 3.6161004E-03 1.5000000E-02
vertex 1.2990356E-02 7.4999998E-03 1.5000000E-02
vertex 1.4488892E-02 3.8822857E-03 1.5000000E-02
endloop
endfacet
facet normal 0.0000000E+00 0.0000000E+00 1.0000000E+00
outer loop
vertex 2.9781250E-02 3.6161004E-03 1.5000000E-02
vertex 1.4488892E-02 3.8822857E-03 1.5000000E-02
vertex 1.5000000E-02 -4.4803834E-16 1.5000000E-02
endloop
endfacet
facet normal 0.0000000E+00 0.0000000E+00 1.0000000E+00
outer loop
vertex 2.9781250E-02 3.6161004E-03 1.5000000E-02
vertex 1.5000000E-02 -4.4803834E-16 1.5000000E-02
vertex 2.9781250E-02 -3.6161004E-03 1.5000000E-02
endloop
endfacet
facet normal 0.0000000E+00 0.0000000E+00 1.0000000E+00
outer loop
vertex 2.9781250E-02 -3.6161004E-03 1.5000000E-02
vertex 1.5000000E-02 -4.4803834E-16 1.5000000E-02
vertex 1.4488892E-02 -3.8822857E-03 1.5000000E-02
endloop
endfacet
facet normal 0.0000000E+00 0.0000000E+00 9.9999994E-01
outer loop
vertex 2.9781250E-02 -3.6161004E-03 1.5000000E-02
vertex 1.4488892E-02 -3.8822857E-03 1.5000000E-02
vertex 1.2990356E-02 -7.4999998E-03 1.5000000E-02
endloop
endfacet
facet normal 0.0000000E+00 0.0000000E+00 9.9999994E-01
outer loop
vertex 2.9781250E-02 -3.6161004E-03 1.5000000E-02
vertex 1.2990356E-02 -7.4999998E-03 1.5000000E-02
vertex 2.8050536E-02 -1.0638147E-02 1.5000000E-02
endloop
endfacet
facet normal 0.0000000E+00 0.0000000E+00 1.0000000E+00
outer loop
vertex 2.8050536E-02 -1.0638147E-02 1.5000000E-02
vertex 1.2990356E-02 -7.4999998E-03 1.5000000E-02
vertex 1.0606567E-02 -1.0606602E-02 1.5000000E-02
endloop
endfacet
facet normal 0.0000000E+00 0.0000000E+00 1.0000000E+00
outer loop
vertex 2.8050536E-02 -1.0638147E-02 1.5000000E-02
vertex 1.0606567E-02 -1.0606602E-02 1.5000000E-02
vertex 7.4999998E-03 -1.2990382E-02 1.5000000E-02
endloop
endfacet
facet normal 0.0000000E+00 0.0000000E+00 1.0000000E+00
outer loop
vertex 2.8050536E-02 -1.0638147E-02 1.5000000E-02
vertex 7.4999998E-03 -1.2990382E-02 1.5000000E-02
vertex 2.4689576E-02 -1.7041942E-02 1.5000000E-02
endloop
endfacet
facet normal 0.0000000E+00 0.0000000E+00 1.0000000E+00
outer loop
vertex 2.4689576E-02 -1.7041942E-02 1.5000000E-02
vertex 7.4999998E-03 -1.2990382E-02 1.5000000E-02
vertex 3.8823243E-03 -1.4488888E-02 1.5000000E-02
endloop
endfacet
facet normal 0.0000000E+00 0.0000000E+00 1.0000000E+00
outer loop
vertex 2.4689576E-02 -1.7041942E-02 1.5000000E-02
vertex 3.8823243E-03 -1.4488888E-02 1.5000000E-02
vertex 0.0000000E+00 -1.5000000E-02 1.5000000E-02
endloop
endfacet
facet normal 0.0000000E+00 0.0000000E+00 1.0000000E+00
outer loop
vertex 2.4689576E-02 -1.7041942E-02 1.5000000E-02
vertex 0.0000000E+00 -1.5000000E-02 1.5000000E-02
vertex 1.9893676E-02 -2.2455322E-02 1.5000000E-02
endloop
endfacet
facet normal 0.0000000E+00 0.0000000E+00 9.9999994E-01
outer loop
vertex 1.9893676E-02 -2.2455322E-02 1.5000000E-02
vertex 0.0000000E+00 -1.5000000E-02 1.5000000E-02
vertex -3.8823243E-03 -1.4488888E-02 1.5000000E-02
endloop
endfacet
facet normal 0.0000000E+00 0.0000000E+00 1.0000000E+00
outer loop
vertex 1.9893676E-02 -2.2455322E-02 1.5000000E-02
vertex -3.8823243E-03 -1.4488888E-02 1.5000000E-02
vertex 1.3941650E-02 -2.6563682E-02 1.5000000E-02
endloop
endfacet
facet normal 0.0000000E+00 0.0000000E+00 1.0000000E+00
outer loop
vertex 1.3941650E-02 -2.6563682E-02 1.5000000E-02
vertex -3.8823243E-03 -1.4488888E-02 1.5000000E-02
vertex 0.0000000E+00 -2.9999999E-02 1.5000000E-02
endloop
endfacet
facet normal 0.0000000E+00 0.0000000E+00 1.0000000E+00
outer loop
vertex 1.3941650E-02 -2.6563682E-02 1.5000000E-02
vertex 0.0000000E+00 -2.9999999E-02 1.5000000E-02
vertex 7.1794433E-03 -2.9128253E-02 1.5000000E-02
endloop
endfacet
facet normal 0.0000000E+00 0.0000000E+00 1.0000000E+00
outer loop
vertex 0.0000000E+00 -2.9999999E-02 1.5000000E-02
vertex -3.8823243E-03 -1.4488888E-02 1.5000000E-02
vertex -7.5000000E-01 1.5000000E-02 1.5000000E-02
endloop
endfacet
facet normal 0.0000000E+00 0.0000000E+00 1.0000000E+00
outer loop
vertex -7.5000000E-01 1.5000000E-02 1.5000000E-02
vertex -3.8823243E-03 -1.4488888E-02 1.5000000E-02
vertex -7.4999998E-03 -1.2990382E-02 1.5000000E-02
endloop
endfacet
facet normal 0.0000000E+00 0.0000000E+00 1.0000000E+00
outer loop
vertex -7.5000000E-01 1.5000000E-02 1.5000000E-02
vertex -7.4999998E-03 -1.2990382E-02 1.5000000E-02
vertex -1.0606567E-02 -1.0606602E-02 1.5000000E-02
endloop
endfacet
facet normal 0.0000000E+00 0.0000000E+00 1.0000000E+00
outer loop
vertex -1.0606567E-02 -1.0606602E-02 1.5000000E-02
vertex -1.2990356E-02 -7.4999998E-03 1.5000000E-02
vertex -7.5000000E-01 1.5000000E-02 1.5000000E-02
endloop
endfacet
facet normal 0.0000000E+00 0.0000000E+00 9.9999994E-01
outer loop
vertex -7.5000000E-01 1.5000000E-02 1.5000000E-02
vertex -1.2990356E-02 -7.4999998E-03 1.5000000E-02
vertex -1.4488892E-02 -3.8822857E-03 1.5000000E-02
endloop
endfacet
facet normal 0.0000000E+00 0.0000000E+00 9.9999994E-01
outer loop
vertex -1.5144889E+00 3.8822857E-03 1.5000000E-02
vertex -1.5297812E+00 3.6161004E-03 1.5000000E-02
vertex -1.5150000E+00 -3.5435287E-16 1.5000000E-02
endloop
endfacet
facet normal 0.0000000E+00 0.0000000E+00 1.0000000E+00
outer loop
vertex -1.5150000E+00 -3.5435287E-16 1.5000000E-02
vertex -1.5297812E+00 3.6161004E-03 1.5000000E-02
vertex -1.5297812E+00 -3.6161004E-03 1.5000000E-02
endloop
endfacet
facet normal 0.0000000E+00 0.0000000E+00 9.9999994E-01
outer loop
vertex -1.5150000E+00 -3.5435287E-16 1.5000000E-02
vertex -1.5297812E+00 -3.6161004E-03 1.5000000E-02
vertex -1.5144889E+00 -3.8822857E-03 1.5000000E-02
endloop
endfacet
facet normal 0.0000000E+00 0.0000000E+00 1.0000000E+00
outer loop
vertex -1.5144889E+00 -3.8822857E-03 1.5000000E-02
vertex -1.5297812E+00 -3.6161004E-03 1.5000000E-02
vertex -1.5129904E+00 -7.4999998E-03 1.5000000E-02
endloop
endfacet
facet normal 0.0000000E+00 0.0000000E+00 1.0000000E+00
outer loop
vertex -1.5129904E+00 -7.4999998E-03 1.5000000E-02
vertex -1.5297812E+00 -3.6161004E-03 1.5000000E-02
vertex -1.5280504E+00 -1.0638147E-02 1.5000000E-02
endloop
endfacet
facet normal 0.0000000E+00 0.0000000E+00 1.0000000E+00
outer loop
vertex -1.5129904E+00 -7.4999998E-03 1.5000000E-02
vertex -1.5280504E+00 -1.0638147E-02 1.5000000E-02
vertex -1.5106066E+00 -1.0606602E-02 1.5000000E-02
endloop
endfacet
facet normal 0.0000000E+00 0.0000000E+00 1.0000000E+00
outer loop
vertex -1.5106066E+00 -1.0606602E-02 1.5000000E-02
vertex -1.5280504E+00 -1.0638147E-02 1.5000000E-02
vertex -1.5075001E+00 -1.2990382E-02 1.5000000E-02
endloop
endfacet
facet normal 0.0000000E+00 0.0000000E+00 1.0000000E+00
outer loop
vertex -1.5075001E+00 -1.2990382E-02 1.5000000E-02
vertex -1.5280504E+00 -1.0638147E-02 1.5000000E-02
vertex -1.5246896E+00 -1.7041942E-02 1.5000000E-02
endloop
endfacet
facet normal 0.0000000E+00 0.0000000E+00 1.0000000E+00
outer loop
vertex -1.5075001E+00 -1.2990382E-02 1.5000000E-02
vertex -1.5246896E+00 -1.7041942E-02 1.5000000E-02
vertex -1.5038823E+00 -1.4488888E-02 1.5000000E-02
endloop
endfacet
facet normal 0.0000000E+00 0.0000000E+00 1.0000000E+00
outer loop
vertex -1.5038823E+00 -1.4488888E-02 1.5000000E-02
vertex -1.5246896E+00 -1.7041942E-02 1.5000000E-02
vertex -1.5000000E+00 -1.5000000E-02 1.5000000E-02
endloop
endfacet
facet normal 0.0000000E+00 0.0000000E+00 1.0000000E+00
outer loop
vertex -1.5000000E+00 -1.5000000E-02 1.5000000E-02
vertex -1.5246896E+00 -1.7041942E-02 1.5000000E-02
vertex -1.5198936E+00 -2.2455322E-02 1.5000000E-02
endloop
endfacet
facet normal -0.0000000E+00 0.0000000E+00 1.0000000E+00
outer loop
vertex -1.5000000E+00 -1.5000000E-02 1.5000000E-02
vertex -1.5198936E+00 -2.2455322E-02 1.5000000E-02
vertex -1.4961177E+00 -1.4488888E-02 1.5000000E-02
endloop
endfacet
facet normal 0.0000000E+00 0.0000000E+00 1.0000000E+00
outer loop
vertex -1.4961177E+00 -1.4488888E-02 1.5000000E-02
vertex -1.5198936E+00 -2.2455322E-02 1.5000000E-02
vertex -1.5139416E+00 -2.6563682E-02 1.5000000E-02
endloop
endfacet
facet normal 0.0000000E+00 0.0000000E+00 1.0000000E+00
outer loop
vertex -1.4961177E+00 -1.4488888E-02 1.5000000E-02
vertex -1.5139416E+00 -2.6563682E-02 1.5000000E-02
vertex -1.5000000E+00 -2.9999999E-02 1.5000000E-02
endloop
endfacet
facet normal 0.0000000E+00 0.0000000E+00 9.9999994E-01
outer loop
vertex -1.5000000E+00 -2.9999999E-02 1.5000000E-02
vertex -1.5139416E+00 -2.6563682E-02 1.5000000E-02
vertex -1.5071795E+00 -2.9128253E-02 1.5000000E-02
endloop
endfacet
facet normal 0.0000000E+00 -0.0000000E+00 1.0000000E+00
outer loop
vertex -1.5144889E+00 3.8822857E-03 1.5000000E-02
vertex -1.5129904E+00 7.4999998E-03 1.5000000E-02
vertex -1.5297812E+00 3.6161004E-03 1.5000000E-02
endloop
endfacet
facet normal 0.0000000E+00 0.0000000E+00 1.0000000E+00
outer loop
vertex -1.5297812E+00 3.6161004E-03 1.5000000E-02
vertex -1.5129904E+00 7.4999998E-03 1.5000000E-02
vertex -1.5280504E+00 1.0638147E-02 1.5000000E-02
endloop
endfacet
facet normal 0.0000000E+00 0.0000000E+00 1.0000000E+00
outer loop
vertex -1.5280504E+00 1.0638147E-02 1.5000000E-02
vertex -1.5129904E+00 7.4999998E-03 1.5000000E-02
vertex -1.5106066E+00 1.0606602E-02 1.5000000E-02
endloop
endfacet
facet normal -0.0000000E+00 0.0000000E+00 1.0000000E+00
outer loop
vertex -1.5280504E+00 1.0638147E-02 1.5000000E-02
vertex -1.5106066E+00 1.0606602E-02 1.5000000E-02
vertex -1.5075001E+00 1.2990382E-02 1.5000000E-02
endloop
endfacet
facet normal 0.0000000E+00 0.0000000E+00 1.0000000E+00
outer loop
vertex -1.5280504E+00 1.0638147E-02 1.5000000E-02
vertex -1.5075001E+00 1.2990382E-02 1.5000000E-02
vertex -1.5246896E+00 1.7041942E-02 1.5000000E-02
endloop
endfacet
facet normal 0.0000000E+00 0.0000000E+00 1.0000000E+00
outer loop
vertex -1.5246896E+00 1.7041942E-02 1.5000000E-02
vertex -1.5075001E+00 1.2990382E-02 1.5000000E-02
vertex -1.5038823E+00 1.4488888E-02 1.5000000E-02
endloop
endfacet
facet normal 0.0000000E+00 0.0000000E+00 1.0000000E+00
outer loop
vertex -1.5246896E+00 1.7041942E-02 1.5000000E-02
vertex -1.5038823E+00 1.4488888E-02 1.5000000E-02
vertex -1.5000000E+00 1.5000000E-02 1.5000000E-02
endloop
endfacet
facet normal -0.0000000E+00 0.0000000E+00 1.0000000E+00
outer loop
vertex -1.5246896E+00 1.7041942E-02 1.5000000E-02
vertex -1.5000000E+00 1.5000000E-02 1.5000000E-02
vertex -1.5198936E+00 2.2455322E-02 1.5000000E-02
endloop
endfacet
facet normal 0.0000000E+00 0.0000000E+00 1.0000000E+00
outer loop
vertex -1.5198936E+00 2.2455322E-02 1.5000000E-02
vertex -1.5000000E+00 1.5000000E-02 1.5000000E-02
vertex -1.4961177E+00 1.4488888E-02 1.5000000E-02
endloop
endfacet
facet normal -0.0000000E+00 0.0000000E+00 1.0000000E+00
outer loop
vertex -1.5198936E+00 2.2455322E-02 1.5000000E-02
vertex -1.4961177E+00 1.4488888E-02 1.5000000E-02
vertex -1.5139416E+00 2.6563682E-02 1.5000000E-02
endloop
endfacet
facet normal -0.0000000E+00 0.0000000E+00 1.0000000E+00
outer loop
vertex -1.5139416E+00 2.6563682E-02 1.5000000E-02
vertex -1.4961177E+00 1.4488888E-02 1.5000000E-02
vertex -1.5000000E+00 2.9999999E-02 1.5000000E-02
endloop
endfacet
facet normal 0.0000000E+00 0.0000000E+00 1.0000000E+00
outer loop
vertex -1.5139416E+00 2.6563682E-02 1.5000000E-02
vertex -1.5000000E+00 2.9999999E-02 1.5000000E-02
vertex -1.5071795E+00 2.9128253E-02 1.5000000E-02
endloop
endfacet
facet normal 0.0000000E+00 0.0000000E+00 1.0000000E+00
outer loop
vertex -1.5000000E+00 2.9999999E-02 1.5000000E-02
vertex -1.4961177E+00 1.4488888E-02 1.5000000E-02
vertex -7.5000000E-01 1.5000000E-02 1.5000000E-02
endloop
endfacet
facet normal 0.0000000E+00 0.0000000E+00 1.0000000E+00
outer loop
vertex -7.5000000E-01 1.5000000E-02 1.5000000E-02
vertex -1.4961177E+00 1.4488888E-02 1.5000000E-02
vertex -1.4924999E+00 1.2990382E-02 1.5000000E-02
endloop
endfacet
facet normal 0.0000000E+00 0.0000000E+00 9.9999994E-01
outer loop
vertex -7.5000000E-01 1.5000000E-02 1.5000000E-02
vertex -1.4924999E+00 1.2990382E-02 1.5000000E-02
vertex -1.4893934E+00 1.0606602E-02 1.5000000E-02
endloop
endfacet
facet normal -0.0000000E+00 0.0000000E+00 9.9999994E-01
outer loop
vertex -1.4893934E+00 1.0606602E-02 1.5000000E-02
vertex -1.4870096E+00 7.4999998E-03 1.5000000E-02
vertex -7.5000000E-01 1.5000000E-02 1.5000000E-02
endloop
endfacet
facet normal 0.0000000E+00 0.0000000E+00 1.0000000E+00
outer loop
vertex -7.5000000E-01 1.5000000E-02 1.5000000E-02
vertex -1.4870096E+00 7.4999998E-03 1.5000000E-02
vertex -1.4855111E+00 3.8822857E-03 1.5000000E-02
endloop
endfacet
facet normal 0.0000000E+00 0.0000000E+00 1.0000000E+00
outer loop
vertex -7.5000000E-01 1.5000000E-02 1.5000000E-02
vertex -1.4855111E+00 3.8822857E-03 1.5000000E-02
vertex -1.4850000E+00 -3.5618985E-16 1.5000000E-02
endloop
endfacet
facet normal -0.0000000E+00 0.0000000E+00 1.0000000E+00
outer loop
vertex -1.4850000E+00 -3.5618985E-16 1.5000000E-02
vertex -1.4855111E+00 -3.8822857E-03 1.5000000E-02
vertex -7.5000000E-01 1.5000000E-02 1.5000000E-02
endloop
endfacet
facet normal 0.0000000E+00 0.0000000E+00 9.9999994E-01
outer loop
vertex -7.5000000E-01 1.5000000E-02 1.5000000E-02
vertex -1.4855111E+00 -3.8822857E-03 1.5000000E-02
vertex -1.4870096E+00 -7.4999998E-03 1.5000000E-02
endloop
endfacet
facet normal 0.0000000E+00 0.0000000E+00 1.0000000E+00
outer loop
vertex -7.5000000E-01 1.5000000E-02 1.5000000E-02
vertex -1.4870096E+00 -7.4999998E-03 1.5000000E-02
vertex -1.4893934E+00 -1.0606602E-02 1.5000000E-02
endloop
endfacet
facet normal -0.0000000E+00 0.0000000E+00 1.0000000E+00
outer loop
vertex -1.4893934E+00 -1.0606602E-02 1.5000000E-02
vertex -1.4924999E+00 -1.2990382E-02 1.5000000E-02
vertex -7.5000000E-01 1.5000000E-02 1.5000000E-02
endloop
endfacet
facet normal 0.0000000E+00 0.0000000E+00 1.0000000E+00
outer loop
vertex -7.5000000E-01 1.5000000E-02 1.5000000E-02
vertex -1.4924999E+00 -1.2990382E-02 1.5000000E-02
vertex -1.4961177E+00 -1.4488888E-02 1.5000000E-02
endloop
endfacet
facet normal 0.0000000E+00 0.0000000E+00 1.0000000E+00
outer loop
vertex -7.5000000E-01 1.5000000E-02 1.5000000E-02
vertex -1.4961177E+00 -1.4488888E-02 1.5000000E-02
vertex -1.5000000E+00 -2.9999999E-02 1.5000000E-02
endloop
endfacet
facet normal 0.0000000E+00 0.0000000E+00 1.0000000E+00
outer loop
vertex -1.5000000E+00 -2.9999999E-02 1.5000000E-02
vertex 0.0000000E+00 -2.9999999E-02 1.5000000E-02
vertex -7.5000000E-01 1.5000000E-02 1.5000000E-02
endloop
endfacet
facet normal 0.0000000E+00 -0.0000000E+00 1.0000000E+00
outer loop
vertex -3.8823243E-03 1.4488888E-02 1.5000000E-02
vertex 0.0000000E+00 2.9999999E-02 1.5000000E-02
vertex -7.5000000E-01 1.5000000E-02 1.5000000E-02
endloop
endfacet
facet normal 0.0000000E+00 -0.0000000E+00 1.0000000E+00
outer loop
vertex -7.5000000E-01 1.5000000E-02 1.5000000E-02
vertex 0.0000000E+00 2.9999999E-02 1.5000000E-02
vertex -1.5000000E+00 2.9999999E-02 1.5000000E-02
endloop
endfacet
endsolid Created by stlwrite.m 10-Sep-2021 19:13:29
